ISO-10303-21;
HEADER;
FILE_DESCRIPTION (( 'STEP AP203' ),
    '1' );
FILE_NAME ('Arm1_Default_sldprt.STEP',
    '2026-01-28T12:25:28',
    ( '' ),
    ( '' ),
    'SwSTEP 2.0',
    'SolidWorks 2024',
    '' );
FILE_SCHEMA (( 'CONFIG_CONTROL_DESIGN' ));
ENDSEC;

DATA;
#1 = DATE_TIME_ROLE ( 'creation_date' ) ;
#2 = DIRECTION ( 'NONE',  ( -4.625929269271486407E-17, -1.000000000000000000, 0.000000000000000000 ) ) ;
#3 = ORIENTED_EDGE ( 'NONE', *, *, #229, .F. ) ;
#4 = VECTOR ( 'NONE', #94, 1000.000000000000000 ) ;
#5 = LOCAL_TIME ( 13, 25, 28.00000000000000000, #179 ) ;
#6 = APPROVAL_DATE_TIME ( #401, #358 ) ;
#7 = CARTESIAN_POINT ( 'NONE',  ( -44.00000000000000711, -69.00000000000004263, 0.000000000000000000 ) ) ;
#8 = EDGE_CURVE ( 'NONE', #406, #384, #433, .T. ) ;
#9 = CARTESIAN_POINT ( 'NONE',  ( -50.00000000000000000, 0.000000000000000000, 0.000000000000000000 ) ) ;
#10 = EDGE_LOOP ( 'NONE', ( #375, #74, #330, #526 ) ) ;
#11 = FACE_OUTER_BOUND ( 'NONE', #124, .T. ) ;
#12 = EDGE_LOOP ( 'NONE', ( #54, #509, #462, #321, #306, #490, #468 ) ) ;
#13 = VECTOR ( 'NONE', #146, 1000.000000000000000 ) ;
#14 = AXIS2_PLACEMENT_3D ( 'NONE', #243, #422, #377 ) ;
#15 = DIRECTION ( 'NONE',  ( -1.000000000000000000, 0.000000000000000000, 0.000000000000000000 ) ) ;
#16 = EDGE_CURVE ( 'NONE', #541, #28, #166, .T. ) ;
#17 = ORIENTED_EDGE ( 'NONE', *, *, #99, .F. ) ;
#18 = CARTESIAN_POINT ( 'NONE',  ( -50.00000000000000000, 0.000000000000000000, 0.000000000000000000 ) ) ;
#19 = ORIENTED_EDGE ( 'NONE', *, *, #162, .F. ) ;
#20 = PRODUCT_RELATED_PRODUCT_CATEGORY ( 'detail', '', ( #53 ) ) ;
#21 = CARTESIAN_POINT ( 'NONE',  ( 50.00000000000002842, 40.00000000000000000, 0.000000000000000000 ) ) ;
#22 = ORIENTED_EDGE ( 'NONE', *, *, #256, .T. ) ;
#23 = CIRCLE ( 'NONE', #464, 40.00000000000000000 ) ;
#24 = CARTESIAN_POINT ( 'NONE',  ( -50.00000000000000000, 40.00000000000000000, 0.000000000000000000 ) ) ;
#25 = CIRCLE ( 'NONE', #278, 40.00000000000000000 ) ;
#26 = ORIENTED_EDGE ( 'NONE', *, *, #524, .F. ) ;
#27 = CYLINDRICAL_SURFACE ( 'NONE', #387, 40.00000000000000000 ) ;
#28 = VERTEX_POINT ( 'NONE', #249 ) ;
#29 = CARTESIAN_POINT ( 'NONE',  ( -50.00000000000000000, -75.00000000000004263, -80.00000000000000000 ) ) ;
#30 = LINE ( 'NONE', #7, #209 ) ;
#31 = MANIFOLD_SOLID_BREP ( 'Cut-Extrude1', #353 ) ;
#32 = CARTESIAN_POINT ( 'NONE',  ( -44.00000000000000711, -40.00000000000000000, 0.000000000000000000 ) ) ;
#33 = CARTESIAN_POINT ( 'NONE',  ( -50.00000000000000000, -40.00000000000000000, 0.000000000000000000 ) ) ;
#34 = PRODUCT_DEFINITION_FORMATION_WITH_SPECIFIED_SOURCE ( 'ANY', '', #53, .NOT_KNOWN. ) ;
#35 = CARTESIAN_POINT ( 'NONE',  ( -49.99999999999999289, 74.99999999999994316, -80.00000000000000000 ) ) ;
#36 = CARTESIAN_POINT ( 'NONE',  ( 50.00000000000002842, -75.00000000000004263, -80.00000000000000000 ) ) ;
#37 = CARTESIAN_POINT ( 'NONE',  ( 44.00000000000002132, -69.00000000000004263, -80.00000000000000000 ) ) ;
#38 = ORIENTED_EDGE ( 'NONE', *, *, #381, .F. ) ;
#39 = EDGE_CURVE ( 'NONE', #324, #147, #293, .T. ) ;
#40 = CYLINDRICAL_SURFACE ( 'NONE', #447, 40.00000000000000000 ) ;
#41 = CARTESIAN_POINT ( 'NONE',  ( -44.00000000000000711, -69.00000000000004263, -80.00000000000000000 ) ) ;
#42 = AXIS2_PLACEMENT_3D ( 'NONE', #455, #15, #279 ) ;
#43 = DATE_AND_TIME ( #260, #80 ) ;
#44 = DIRECTION ( 'NONE',  ( 0.000000000000000000, 0.000000000000000000, -1.000000000000000000 ) ) ;
#45 = CARTESIAN_POINT ( 'NONE',  ( 50.00000000000002842, -75.00000000000004263, -80.00000000000000000 ) ) ;
#46 = ORIENTED_EDGE ( 'NONE', *, *, #197, .T. ) ;
#47 = PRODUCT_DEFINITION_SHAPE ( 'NONE', 'NONE',  #96 ) ;
#48 = SECURITY_CLASSIFICATION_LEVEL ( 'unclassified' ) ;
#49 = DIRECTION ( 'NONE',  ( 1.000000000000000000, 0.000000000000000000, 0.000000000000000000 ) ) ;
#50 = VECTOR ( 'NONE', #84, 1000.000000000000000 ) ;
#51 = LOCAL_TIME ( 13, 25, 28.00000000000000000, #265 ) ;
#52 = DIRECTION ( 'NONE',  ( 1.000000000000000000, 0.000000000000000000, 0.000000000000000000 ) ) ;
#53 = PRODUCT ( 'Arm1_Default_sldprt', 'Arm1_Default_sldprt', '', ( #352 ) ) ;
#54 = ORIENTED_EDGE ( 'NONE', *, *, #120, .T. ) ;
#55 = CARTESIAN_POINT ( 'NONE',  ( 44.00000000000002132, 68.99999999999995737, -80.00000000000000000 ) ) ;
#56 = EDGE_LOOP ( 'NONE', ( #17, #349, #239, #429, #228, #290, #26 ) ) ;
#57 = EDGE_CURVE ( 'NONE', #498, #539, #470, .T. ) ;
#58 = DIRECTION ( 'NONE',  ( 0.000000000000000000, 0.000000000000000000, -1.000000000000000000 ) ) ;
#59 = VERTEX_POINT ( 'NONE', #156 ) ;
#60 = DIRECTION ( 'NONE',  ( 1.000000000000000000, 0.000000000000000000, 0.000000000000000000 ) ) ;
#61 = ORIENTED_EDGE ( 'NONE', *, *, #436, .T. ) ;
#62 = LINE ( 'NONE', #24, #220 ) ;
#63 = ORIENTED_EDGE ( 'NONE', *, *, #389, .T. ) ;
#64 = FACE_OUTER_BOUND ( 'NONE', #141, .T. ) ;
#65 = APPROVAL_DATE_TIME ( #155, #287 ) ;
#66 = VERTEX_POINT ( 'NONE', #421 ) ;
#67 = EDGE_CURVE ( 'NONE', #59, #523, #202, .T. ) ;
#68 = AXIS2_PLACEMENT_3D ( 'NONE', #221, #264, #44 ) ;
#69 = PLANE ( 'NONE',  #14 ) ;
#70 = VECTOR ( 'NONE', #514, 1000.000000000000000 ) ;
#71 = UNCERTAINTY_MEASURE_WITH_UNIT (LENGTH_MEASURE( 1.000000000000000082E-05 ), #263, 'distance_accuracy_value', 'NONE');
#72 = ORIENTED_EDGE ( 'NONE', *, *, #399, .F. ) ;
#73 = DIRECTION ( 'NONE',  ( -1.387778780781445676E-16, 1.000000000000000000, 0.000000000000000000 ) ) ;
#74 = ORIENTED_EDGE ( 'NONE', *, *, #522, .F. ) ;
#75 = LINE ( 'NONE', #326, #546 ) ;
#76 = CARTESIAN_POINT ( 'NONE',  ( -50.00000000000000000, -75.00000000000004263, 0.000000000000000000 ) ) ;
#77 = CARTESIAN_POINT ( 'NONE',  ( -49.99999999999999289, 74.99999999999994316, 0.000000000000000000 ) ) ;
#78 = VECTOR ( 'NONE', #565, 1000.000000000000000 ) ;
#79 = ORIENTED_EDGE ( 'NONE', *, *, #393, .F. ) ;
#80 = LOCAL_TIME ( 13, 25, 28.00000000000000000, #130 ) ;
#81 = CARTESIAN_POINT ( 'NONE',  ( -50.00000000000000000, 0.000000000000000000, 0.000000000000000000 ) ) ;
#82 = DIRECTION ( 'NONE',  ( 0.000000000000000000, 0.000000000000000000, 1.000000000000000000 ) ) ;
#83 = EDGE_CURVE ( 'NONE', #178, #539, #98, .T. ) ;
#84 = DIRECTION ( 'NONE',  ( -1.000000000000000000, -1.387778780781445676E-16, -0.000000000000000000 ) ) ;
#85 = DIRECTION ( 'NONE',  ( 0.000000000000000000, 1.000000000000000000, 0.000000000000000000 ) ) ;
#86 = CC_DESIGN_PERSON_AND_ORGANIZATION_ASSIGNMENT ( #92, #224, ( #34 ) ) ;
#87 = APPROVAL_ROLE ( '' ) ;
#88 = CARTESIAN_POINT ( 'NONE',  ( -44.00000000000000711, 68.99999999999995737, -80.00000000000000000 ) ) ;
#89 = VECTOR ( 'NONE', #291, 1000.000000000000000 ) ;
#90 = CARTESIAN_POINT ( 'NONE',  ( 50.00000000000002842, 0.000000000000000000, 0.000000000000000000 ) ) ;
#91 = PLANE ( 'NONE',  #68 ) ;
#92 = PERSON_AND_ORGANIZATION ( #205, #373 ) ;
#93 = EDGE_CURVE ( 'NONE', #523, #318, #477, .T. ) ;
#94 = DIRECTION ( 'NONE',  ( -1.000000000000000000, 0.000000000000000000, 0.000000000000000000 ) ) ;
#95 = CARTESIAN_POINT ( 'NONE',  ( 44.00000000000002842, 0.000000000000000000, 0.000000000000000000 ) ) ;
#96 = PRODUCT_DEFINITION ( 'UNKNOWN', '', #34, #343 ) ;
#97 = ORIENTED_EDGE ( 'NONE', *, *, #503, .F. ) ;
#98 = CIRCLE ( 'NONE', #488, 40.00000000000000000 ) ;
#99 = EDGE_CURVE ( 'NONE', #324, #478, #420, .T. ) ;
#100 = DIRECTION ( 'NONE',  ( -1.387778780781445676E-16, 1.000000000000000000, 0.000000000000000000 ) ) ;
#101 = ORIENTED_EDGE ( 'NONE', *, *, #436, .F. ) ;
#102 = EDGE_CURVE ( 'NONE', #114, #316, #262, .T. ) ;
#103 = CARTESIAN_POINT ( 'NONE',  ( -50.00000000000000000, 0.000000000000000000, -40.00000000000000000 ) ) ;
#104 = ORIENTED_EDGE ( 'NONE', *, *, #342, .F. ) ;
#105 = LINE ( 'NONE', #140, #200 ) ;
#106 = ORIENTED_EDGE ( 'NONE', *, *, #39, .F. ) ;
#107 = VECTOR ( 'NONE', #336, 1000.000000000000000 ) ;
#108 = DIRECTION ( 'NONE',  ( 1.000000000000000000, -0.000000000000000000, -0.000000000000000000 ) ) ;
#109 = EDGE_LOOP ( 'NONE', ( #3, #233, #19, #104 ) ) ;
#110 = DIRECTION ( 'NONE',  ( -1.000000000000000000, 0.000000000000000000, 0.000000000000000000 ) ) ;
#111 = ADVANCED_FACE ( 'NONE', ( #441 ), #91, .F. ) ;
#112 = ORIENTED_EDGE ( 'NONE', *, *, #8, .T. ) ;
#113 = DIRECTION ( 'NONE',  ( 0.000000000000000000, 0.000000000000000000, -1.000000000000000000 ) ) ;
#114 = VERTEX_POINT ( 'NONE', #475 ) ;
#115 = ADVANCED_FACE ( 'NONE', ( #341 ), #515, .T. ) ;
#116 = AXIS2_PLACEMENT_3D ( 'NONE', #248, #369, #416 ) ;
#117 = CARTESIAN_POINT ( 'NONE',  ( 44.00000000000002132, 68.99999999999995737, 0.000000000000000000 ) ) ;
#118 = AXIS2_PLACEMENT_3D ( 'NONE', #467, #285, #463 ) ;
#119 = ORIENTED_EDGE ( 'NONE', *, *, #39, .T. ) ;
#120 = EDGE_CURVE ( 'NONE', #168, #147, #562, .T. ) ;
#121 = PLANE ( 'NONE',  #505 ) ;
#122 = VERTEX_POINT ( 'NONE', #258 ) ;
#123 = CARTESIAN_POINT ( 'NONE',  ( -44.00000000000000711, -69.00000000000004263, -80.00000000000000000 ) ) ;
#124 = EDGE_LOOP ( 'NONE', ( #101, #500, #454, #417 ) ) ;
#125 = DIRECTION ( 'NONE',  ( 1.000000000000000000, 0.000000000000000000, 0.000000000000000000 ) ) ;
#126 = CIRCLE ( 'NONE', #116, 40.00000000000000000 ) ;
#127 = CARTESIAN_POINT ( 'NONE',  ( 44.00000000000002132, -69.00000000000004263, 0.000000000000000000 ) ) ;
#128 = APPLICATION_PROTOCOL_DEFINITION ( 'international standard', 'config_control_design', 1994, #390 ) ;
#129 = CARTESIAN_POINT ( 'NONE',  ( -50.00000000000000000, 0.000000000000000000, -40.00000000000000000 ) ) ;
#130 = COORDINATED_UNIVERSAL_TIME_OFFSET ( 1, 0, .AHEAD. ) ;
#131 = DIRECTION ( 'NONE',  ( -1.000000000000000000, -0.000000000000000000, -0.000000000000000000 ) ) ;
#132 = ORIENTED_EDGE ( 'NONE', *, *, #259, .F. ) ;
#133 = APPROVAL_STATUS ( 'not_yet_approved' ) ;
#134 = PLANE ( 'NONE',  #144 ) ;
#135 = VECTOR ( 'NONE', #273, 1000.000000000000000 ) ;
#136 = EDGE_LOOP ( 'NONE', ( #191, #449, #97, #46 ) ) ;
#137 = ADVANCED_FACE ( 'NONE', ( #175 ), #182, .T. ) ;
#138 = PERSON_AND_ORGANIZATION ( #205, #373 ) ;
#139 = DIRECTION ( 'NONE',  ( 0.000000000000000000, 0.000000000000000000, 1.000000000000000000 ) ) ;
#140 = CARTESIAN_POINT ( 'NONE',  ( -49.99999999999999289, 74.99999999999994316, -80.00000000000000000 ) ) ;
#141 = EDGE_LOOP ( 'NONE', ( #281, #241, #360, #545 ) ) ;
#142 = LINE ( 'NONE', #323, #13 ) ;
#143 = EDGE_LOOP ( 'NONE', ( #364, #270, #286, #158 ) ) ;
#144 = AXIS2_PLACEMENT_3D ( 'NONE', #485, #308, #437 ) ;
#145 = APPROVAL_PERSON_ORGANIZATION ( #160, #287, #511 ) ;
#146 = DIRECTION ( 'NONE',  ( 0.000000000000000000, 0.000000000000000000, 1.000000000000000000 ) ) ;
#147 = VERTEX_POINT ( 'NONE', #398 ) ;
#148 = CARTESIAN_POINT ( 'NONE',  ( 50.00000000000002842, -75.00000000000004263, 0.000000000000000000 ) ) ;
#149 = VERTEX_POINT ( 'NONE', #354 ) ;
#150 = CYLINDRICAL_SURFACE ( 'NONE', #430, 40.00000000000000000 ) ;
#151 = EDGE_LOOP ( 'NONE', ( #204, #277, #312, #255 ) ) ;
#152 = VECTOR ( 'NONE', #497, 1000.000000000000000 ) ;
#153 = AXIS2_PLACEMENT_3D ( 'NONE', #386, #169, #479 ) ;
#154 = CARTESIAN_POINT ( 'NONE',  ( 44.00000000000002842, 40.00000000000000000, 0.000000000000000000 ) ) ;
#155 = DATE_AND_TIME ( #280, #439 ) ;
#156 = CARTESIAN_POINT ( 'NONE',  ( 44.00000000000002132, -69.00000000000004263, -80.00000000000000000 ) ) ;
#157 = DIRECTION ( 'NONE',  ( 0.000000000000000000, -0.000000000000000000, -1.000000000000000000 ) ) ;
#158 = ORIENTED_EDGE ( 'NONE', *, *, #93, .T. ) ;
#159 = DIRECTION ( 'NONE',  ( 0.000000000000000000, 0.000000000000000000, 1.000000000000000000 ) ) ;
#160 = PERSON_AND_ORGANIZATION ( #205, #373 ) ;
#161 = ORIENTED_EDGE ( 'NONE', *, *, #524, .T. ) ;
#162 = EDGE_CURVE ( 'NONE', #406, #122, #443, .T. ) ;
#163 = VECTOR ( 'NONE', #553, 1000.000000000000000 ) ;
#164 = PLANE ( 'NONE',  #165 ) ;
#165 = AXIS2_PLACEMENT_3D ( 'NONE', #335, #508, #469 ) ;
#166 = LINE ( 'NONE', #35, #107 ) ;
#167 = DIRECTION ( 'NONE',  ( -1.000000000000000000, 0.000000000000000000, 0.000000000000000000 ) ) ;
#168 = VERTEX_POINT ( 'NONE', #127 ) ;
#169 = DIRECTION ( 'NONE',  ( 0.000000000000000000, 0.000000000000000000, 1.000000000000000000 ) ) ;
#170 = CARTESIAN_POINT ( 'NONE',  ( 44.00000000000002132, -69.00000000000004263, 0.000000000000000000 ) ) ;
#171 = EDGE_CURVE ( 'NONE', #345, #114, #391, .T. ) ;
#172 = CARTESIAN_POINT ( 'NONE',  ( 50.00000000000002842, -75.00000000000004263, -80.00000000000000000 ) ) ;
#173 = VECTOR ( 'NONE', #85, 1000.000000000000000 ) ;
#174 = CC_DESIGN_APPROVAL ( #287, ( #234 ) ) ;
#175 = FACE_OUTER_BOUND ( 'NONE', #56, .T. ) ;
#176 = APPROVAL_DATE_TIME ( #397, #222 ) ;
#177 = LINE ( 'NONE', #103, #152 ) ;
#178 = VERTEX_POINT ( 'NONE', #299 ) ;
#179 = COORDINATED_UNIVERSAL_TIME_OFFSET ( 1, 0, .AHEAD. ) ;
#180 = CARTESIAN_POINT ( 'NONE',  ( 50.00000000000000711, 74.99999999999995737, -80.00000000000000000 ) ) ;
#181 = PERSON_AND_ORGANIZATION ( #205, #373 ) ;
#182 = PLANE ( 'NONE',  #392 ) ;
#183 = AXIS2_PLACEMENT_3D ( 'NONE', #9, #52, #225 ) ;
#184 = CC_DESIGN_APPROVAL ( #222, ( #96 ) ) ;
#185 = PERSON_AND_ORGANIZATION ( #205, #373 ) ;
#186 = PLANE ( 'NONE',  #226 ) ;
#187 = APPLICATION_CONTEXT ( 'configuration controlled 3d designs of mechanical parts and assemblies' ) ;
#188 = CARTESIAN_POINT ( 'NONE',  ( -44.00000000000000711, -69.00000000000004263, -80.00000000000000000 ) ) ;
#189 = ORIENTED_EDGE ( 'NONE', *, *, #256, .F. ) ;
#190 = DIRECTION ( 'NONE',  ( -1.000000000000000000, 0.000000000000000000, -0.000000000000000000 ) ) ;
#191 = ORIENTED_EDGE ( 'NONE', *, *, #259, .T. ) ;
#192 = AXIS2_PLACEMENT_3D ( 'NONE', #210, #110, #159 ) ;
#193 = DIRECTION ( 'NONE',  ( 0.000000000000000000, 0.000000000000000000, -1.000000000000000000 ) ) ;
#194 = ORIENTED_EDGE ( 'NONE', *, *, #342, .T. ) ;
#195 = DIRECTION ( 'NONE',  ( 0.000000000000000000, 1.000000000000000000, 0.000000000000000000 ) ) ;
#196 = EDGE_LOOP ( 'NONE', ( #72, #22, #161, #409 ) ) ;
#197 = EDGE_CURVE ( 'NONE', #247, #384, #301, .T. ) ;
#198 = LINE ( 'NONE', #428, #446 ) ;
#199 = VERTEX_POINT ( 'NONE', #254 ) ;
#200 = VECTOR ( 'NONE', #311, 1000.000000000000000 ) ;
#201 = LINE ( 'NONE', #543, #261 ) ;
#202 = LINE ( 'NONE', #37, #534 ) ;
#203 = DIRECTION ( 'NONE',  ( 1.000000000000000000, -0.000000000000000000, -0.000000000000000000 ) ) ;
#204 = ORIENTED_EDGE ( 'NONE', *, *, #83, .F. ) ;
#205 = PERSON ( 'UNSPECIFIED', 'UNSPECIFIED', 'UNSPECIFIED', ('UNSPECIFIED'), ('UNSPECIFIED'), ('UNSPECIFIED') ) ;
#206 = CARTESIAN_POINT ( 'NONE',  ( -44.00000000000000711, -69.00000000000004263, -80.00000000000000000 ) ) ;
#207 = CC_DESIGN_DATE_AND_TIME_ASSIGNMENT ( #556, #370, ( #234 ) ) ;
#208 = ORIENTED_EDGE ( 'NONE', *, *, #120, .F. ) ;
#209 = VECTOR ( 'NONE', #60, 1000.000000000000000 ) ;
#210 = CARTESIAN_POINT ( 'NONE',  ( -44.00000000000000711, -69.00000000000004263, -80.00000000000000000 ) ) ;
#211 = DIRECTION ( 'NONE',  ( -1.000000000000000000, 0.000000000000000000, 0.000000000000000000 ) ) ;
#212 = DIRECTION ( 'NONE',  ( 0.000000000000000000, 0.000000000000000000, -1.000000000000000000 ) ) ;
#213 = DIRECTION ( 'NONE',  ( -4.625929269271486407E-17, -1.000000000000000000, -0.000000000000000000 ) ) ;
#214 = CARTESIAN_POINT ( 'NONE',  ( -50.00000000000000000, -40.00000000000000000, 0.000000000000000000 ) ) ;
#215 = VECTOR ( 'NONE', #230, 1000.000000000000000 ) ;
#216 = DIRECTION ( 'NONE',  ( 1.000000000000000000, -0.000000000000000000, -0.000000000000000000 ) ) ;
#217 = PERSON_AND_ORGANIZATION ( #205, #373 ) ;
#218 = EDGE_CURVE ( 'NONE', #541, #199, #344, .T. ) ;
#219 = DIRECTION ( 'NONE',  ( 1.000000000000000000, 1.387778780781445676E-16, -0.000000000000000000 ) ) ;
#220 = VECTOR ( 'NONE', #245, 1000.000000000000000 ) ;
#221 = CARTESIAN_POINT ( 'NONE',  ( 44.00000000000002132, -69.00000000000004263, -80.00000000000000000 ) ) ;
#222 = APPROVAL ( #300, 'UNSPECIFIED' ) ;
#223 = EDGE_LOOP ( 'NONE', ( #189, #333, #106, #231 ) ) ;
#224 = PERSON_AND_ORGANIZATION_ROLE ( 'creator' ) ;
#225 = DIRECTION ( 'NONE',  ( 0.000000000000000000, 0.000000000000000000, -1.000000000000000000 ) ) ;
#226 = AXIS2_PLACEMENT_3D ( 'NONE', #540, #235, #190 ) ;
#227 = LINE ( 'NONE', #188, #250 ) ;
#228 = ORIENTED_EDGE ( 'NONE', *, *, #218, .T. ) ;
#229 = EDGE_CURVE ( 'NONE', #178, #66, #520, .T. ) ;
#230 = DIRECTION ( 'NONE',  ( 0.000000000000000000, 0.000000000000000000, 1.000000000000000000 ) ) ;
#231 = ORIENTED_EDGE ( 'NONE', *, *, #99, .T. ) ;
#232 = CARTESIAN_POINT ( 'NONE',  ( 44.00000000000002132, -69.00000000000004263, 0.000000000000000000 ) ) ;
#233 = ORIENTED_EDGE ( 'NONE', *, *, #294, .F. ) ;
#234 = SECURITY_CLASSIFICATION ( '', '', #48 ) ;
#235 = DIRECTION ( 'NONE',  ( 0.000000000000000000, 0.000000000000000000, -1.000000000000000000 ) ) ;
#236 = ADVANCED_FACE ( 'NONE', ( #310 ), #134, .F. ) ;
#237 = ORIENTED_EDGE ( 'NONE', *, *, #57, .T. ) ;
#238 = FACE_OUTER_BOUND ( 'NONE', #109, .T. ) ;
#239 = ORIENTED_EDGE ( 'NONE', *, *, #302, .F. ) ;
#240 = PLANE ( 'NONE',  #118 ) ;
#241 = ORIENTED_EDGE ( 'NONE', *, *, #171, .F. ) ;
#242 = VECTOR ( 'NONE', #131, 1000.000000000000000 ) ;
#243 = CARTESIAN_POINT ( 'NONE',  ( -49.99999999999999289, 74.99999999999994316, -80.00000000000000000 ) ) ;
#244 = ORIENTED_EDGE ( 'NONE', *, *, #8, .F. ) ;
#245 = DIRECTION ( 'NONE',  ( 1.000000000000000000, -0.000000000000000000, -0.000000000000000000 ) ) ;
#246 = APPROVAL_STATUS ( 'not_yet_approved' ) ;
#247 = VERTEX_POINT ( 'NONE', #41 ) ;
#248 = CARTESIAN_POINT ( 'NONE',  ( 44.00000000000002842, 0.000000000000000000, 0.000000000000000000 ) ) ;
#249 = CARTESIAN_POINT ( 'NONE',  ( -49.99999999999999289, 74.99999999999994316, -80.00000000000000000 ) ) ;
#250 = VECTOR ( 'NONE', #359, 1000.000000000000000 ) ;
#251 = ORIENTED_EDGE ( 'NONE', *, *, #531, .F. ) ;
#252 = EDGE_CURVE ( 'NONE', #122, #114, #395, .T. ) ;
#253 = CARTESIAN_POINT ( 'NONE',  ( -44.00000000000000711, 68.99999999999995737, -80.00000000000000000 ) ) ;
#254 = CARTESIAN_POINT ( 'NONE',  ( 50.00000000000000711, 74.99999999999995737, 0.000000000000000000 ) ) ;
#255 = ORIENTED_EDGE ( 'NONE', *, *, #442, .F. ) ;
#256 = EDGE_CURVE ( 'NONE', #339, #478, #177, .T. ) ;
#257 = LINE ( 'NONE', #77, #50 ) ;
#258 = CARTESIAN_POINT ( 'NONE',  ( -50.00000000000000000, -40.00000000000000000, 0.000000000000000000 ) ) ;
#259 = EDGE_CURVE ( 'NONE', #384, #168, #30, .T. ) ;
#260 = CALENDAR_DATE ( 2026, 28, 1 ) ;
#261 = VECTOR ( 'NONE', #374, 1000.000000000000000 ) ;
#262 = LINE ( 'NONE', #388, #372 ) ;
#263 =( LENGTH_UNIT ( ) NAMED_UNIT ( * ) SI_UNIT ( .MILLI., .METRE. ) );
#264 = DIRECTION ( 'NONE',  ( 1.000000000000000000, 0.000000000000000000, 0.000000000000000000 ) ) ;
#265 = COORDINATED_UNIVERSAL_TIME_OFFSET ( 1, 0, .AHEAD. ) ;
#266 = DIRECTION ( 'NONE',  ( -1.387778780781445676E-16, 1.000000000000000000, 0.000000000000000000 ) ) ;
#267 = CIRCLE ( 'NONE', #183, 40.00000000000000000 ) ;
#268 = DIRECTION ( 'NONE',  ( 0.000000000000000000, 0.000000000000000000, -1.000000000000000000 ) ) ;
#269 = VECTOR ( 'NONE', #434, 1000.000000000000000 ) ;
#270 = ORIENTED_EDGE ( 'NONE', *, *, #503, .T. ) ;
#271 = CARTESIAN_POINT ( 'NONE',  ( -44.00000000000000711, -69.00000000000004263, 0.000000000000000000 ) ) ;
#272 = ORIENTED_EDGE ( 'NONE', *, *, #466, .F. ) ;
#273 = DIRECTION ( 'NONE',  ( 0.000000000000000000, 0.000000000000000000, 1.000000000000000000 ) ) ;
#274 = ORIENTED_EDGE ( 'NONE', *, *, #442, .T. ) ;
#275 = EDGE_CURVE ( 'NONE', #452, #502, #491, .T. ) ;
#276 = LINE ( 'NONE', #55, #215 ) ;
#277 = ORIENTED_EDGE ( 'NONE', *, *, #229, .T. ) ;
#278 = AXIS2_PLACEMENT_3D ( 'NONE', #90, #125, #346 ) ;
#279 = DIRECTION ( 'NONE',  ( 0.000000000000000000, 0.000000000000000000, 1.000000000000000000 ) ) ;
#280 = CALENDAR_DATE ( 2026, 28, 1 ) ;
#281 = ORIENTED_EDGE ( 'NONE', *, *, #102, .F. ) ;
#282 = FACE_OUTER_BOUND ( 'NONE', #136, .T. ) ;
#283 = ORIENTED_EDGE ( 'NONE', *, *, #102, .T. ) ;
#284 = ADVANCED_FACE ( 'NONE', ( #489 ), #150, .F. ) ;
#285 = DIRECTION ( 'NONE',  ( 0.000000000000000000, -1.000000000000000000, 0.000000000000000000 ) ) ;
#286 = ORIENTED_EDGE ( 'NONE', *, *, #67, .T. ) ;
#287 = APPROVAL ( #246, 'UNSPECIFIED' ) ;
#288 = AXIS2_PLACEMENT_3D ( 'NONE', #530, #108, #58 ) ;
#289 = CARTESIAN_POINT ( 'NONE',  ( -44.00000000000000711, 0.000000000000000000, 0.000000000000000000 ) ) ;
#290 = ORIENTED_EDGE ( 'NONE', *, *, #407, .F. ) ;
#291 = DIRECTION ( 'NONE',  ( -4.625929269271486407E-17, -1.000000000000000000, -0.000000000000000000 ) ) ;
#292 = EDGE_CURVE ( 'NONE', #523, #502, #276, .T. ) ;
#293 = LINE ( 'NONE', #33, #517 ) ;
#294 = EDGE_CURVE ( 'NONE', #122, #178, #267, .T. ) ;
#295 = FACE_OUTER_BOUND ( 'NONE', #368, .T. ) ;
#296 = EDGE_LOOP ( 'NONE', ( #63, #119, #208, #132, #244, #404, #512, #283 ) ) ;
#297 = DIRECTION ( 'NONE',  ( 1.000000000000000000, -0.000000000000000000, -0.000000000000000000 ) ) ;
#298 = VECTOR ( 'NONE', #379, 1000.000000000000000 ) ;
#299 = CARTESIAN_POINT ( 'NONE',  ( -50.00000000000000000, 0.000000000000000000, -40.00000000000000000 ) ) ;
#300 = APPROVAL_STATUS ( 'not_yet_approved' ) ;
#301 = LINE ( 'NONE', #569, #307 ) ;
#302 = EDGE_CURVE ( 'NONE', #566, #316, #414, .T. ) ;
#303 = CARTESIAN_POINT ( 'NONE',  ( 44.00000000000002132, 68.99999999999995737, -80.00000000000000000 ) ) ;
#304 = EDGE_CURVE ( 'NONE', #147, #339, #23, .T. ) ;
#305 = CARTESIAN_POINT ( 'NONE',  ( -50.00000000000000000, 0.000000000000000000, 0.000000000000000000 ) ) ;
#306 = ORIENTED_EDGE ( 'NONE', *, *, #292, .F. ) ;
#307 = VECTOR ( 'NONE', #82, 1000.000000000000000 ) ;
#308 = DIRECTION ( 'NONE',  ( 0.000000000000000000, 0.000000000000000000, -1.000000000000000000 ) ) ;
#309 = CALENDAR_DATE ( 2026, 28, 1 ) ;
#310 = FACE_OUTER_BOUND ( 'NONE', #427, .T. ) ;
#311 = DIRECTION ( 'NONE',  ( 0.000000000000000000, 0.000000000000000000, 1.000000000000000000 ) ) ;
#312 = ORIENTED_EDGE ( 'NONE', *, *, #459, .F. ) ;
#313 = VECTOR ( 'NONE', #216, 1000.000000000000000 ) ;
#314 = LINE ( 'NONE', #148, #325 ) ;
#315 = CC_DESIGN_SECURITY_CLASSIFICATION ( #234, ( #34 ) ) ;
#316 = VERTEX_POINT ( 'NONE', #536 ) ;
#317 = DIRECTION ( 'NONE',  ( 0.000000000000000000, 0.000000000000000000, -1.000000000000000000 ) ) ;
#318 = VERTEX_POINT ( 'NONE', #403 ) ;
#319 = ADVANCED_FACE ( 'NONE', ( #367 ), #186, .F. ) ;
#320 = CARTESIAN_POINT ( 'NONE',  ( -44.00000000000000711, -69.00000000000004263, 0.000000000000000000 ) ) ;
#321 = ORIENTED_EDGE ( 'NONE', *, *, #275, .T. ) ;
#322 = CC_DESIGN_PERSON_AND_ORGANIZATION_ASSIGNMENT ( #484, #529, ( #34 ) ) ;
#323 = CARTESIAN_POINT ( 'NONE',  ( 44.00000000000002132, -69.00000000000004263, -80.00000000000000000 ) ) ;
#324 = VERTEX_POINT ( 'NONE', #357 ) ;
#325 = VECTOR ( 'NONE', #100, 1000.000000000000000 ) ;
#326 = CARTESIAN_POINT ( 'NONE',  ( -44.00000000000000711, 68.99999999999995737, 0.000000000000000000 ) ) ;
#327 = ORIENTED_EDGE ( 'NONE', *, *, #171, .T. ) ;
#328 = CARTESIAN_POINT ( 'NONE',  ( -50.00000000000000000, 40.00000000000000000, 0.000000000000000000 ) ) ;
#329 = EDGE_CURVE ( 'NONE', #59, #168, #142, .T. ) ;
#330 = ORIENTED_EDGE ( 'NONE', *, *, #93, .F. ) ;
#331 = FACE_OUTER_BOUND ( 'NONE', #487, .T. ) ;
#332 = COORDINATED_UNIVERSAL_TIME_OFFSET ( 1, 0, .AHEAD. ) ;
#333 = ORIENTED_EDGE ( 'NONE', *, *, #304, .F. ) ;
#334 = VECTOR ( 'NONE', #213, 1000.000000000000000 ) ;
#335 = CARTESIAN_POINT ( 'NONE',  ( -44.00000000000000711, 68.99999999999995737, -80.00000000000000000 ) ) ;
#336 = DIRECTION ( 'NONE',  ( -1.000000000000000000, -1.387778780781445676E-16, -0.000000000000000000 ) ) ;
#337 = ADVANCED_FACE ( 'NONE', ( #365 ), #453, .F. ) ;
#338 = DIRECTION ( 'NONE',  ( 0.000000000000000000, -1.000000000000000000, 0.000000000000000000 ) ) ;
#339 = VERTEX_POINT ( 'NONE', #412 ) ;
#340 = LINE ( 'NONE', #253, #269 ) ;
#341 = FACE_OUTER_BOUND ( 'NONE', #533, .T. ) ;
#342 = EDGE_CURVE ( 'NONE', #66, #406, #542, .T. ) ;
#343 = DESIGN_CONTEXT ( 'detailed design', #390, 'design' ) ;
#344 = LINE ( 'NONE', #180, #563 ) ;
#345 = VERTEX_POINT ( 'NONE', #458 ) ;
#346 = DIRECTION ( 'NONE',  ( 0.000000000000000000, 0.000000000000000000, -1.000000000000000000 ) ) ;
#347 = DIRECTION ( 'NONE',  ( 0.000000000000000000, 0.000000000000000000, -1.000000000000000000 ) ) ;
#348 = CC_DESIGN_PERSON_AND_ORGANIZATION_ASSIGNMENT ( #185, #356, ( #234 ) ) ;
#349 = ORIENTED_EDGE ( 'NONE', *, *, #389, .F. ) ;
#350 = PERSON_AND_ORGANIZATION_ROLE ( 'design_owner' ) ;
#351 = DIRECTION ( 'NONE',  ( 1.000000000000000000, 0.000000000000000000, 0.000000000000000000 ) ) ;
#352 = MECHANICAL_CONTEXT ( 'NONE', #187, 'mechanical' ) ;
#353 = CLOSED_SHELL ( 'NONE', ( #558, #284, #236, #115, #496, #137, #493, #363, #319, #410, #513, #111, #418, #337, #456 ) ) ;
#354 = CARTESIAN_POINT ( 'NONE',  ( -44.00000000000000711, 68.99999999999995737, 0.000000000000000000 ) ) ;
#355 = EDGE_CURVE ( 'NONE', #28, #498, #105, .T. ) ;
#356 = PERSON_AND_ORGANIZATION_ROLE ( 'classification_officer' ) ;
#357 = CARTESIAN_POINT ( 'NONE',  ( 50.00000000000002842, -40.00000000000000000, 0.000000000000000000 ) ) ;
#358 = APPROVAL ( #133, 'UNSPECIFIED' ) ;
#359 = DIRECTION ( 'NONE',  ( -0.000000000000000000, -1.000000000000000000, -0.000000000000000000 ) ) ;
#360 = ORIENTED_EDGE ( 'NONE', *, *, #425, .T. ) ;
#361 = AXIS2_PLACEMENT_3D ( 'NONE', #538, #268, #448 ) ;
#362 = CARTESIAN_POINT ( 'NONE',  ( 50.00000000000002842, -75.00000000000004263, -80.00000000000000000 ) ) ;
#363 = ADVANCED_FACE ( 'NONE', ( #405, #11 ), #486, .T. ) ;
#364 = ORIENTED_EDGE ( 'NONE', *, *, #381, .T. ) ;
#365 = FACE_OUTER_BOUND ( 'NONE', #223, .T. ) ;
#366 = ORIENTED_EDGE ( 'NONE', *, *, #83, .T. ) ;
#367 = FACE_OUTER_BOUND ( 'NONE', #296, .T. ) ;
#368 = EDGE_LOOP ( 'NONE', ( #472, #506, #194, #112, #415, #38, #550 ) ) ;
#369 = DIRECTION ( 'NONE',  ( 1.000000000000000000, 0.000000000000000000, 0.000000000000000000 ) ) ;
#370 = DATE_TIME_ROLE ( 'classification_date' ) ;
#371 = ORIENTED_EDGE ( 'NONE', *, *, #16, .T. ) ;
#372 = VECTOR ( 'NONE', #49, 1000.000000000000000 ) ;
#373 = ORGANIZATION ( 'UNSPECIFIED', 'UNSPECIFIED', '' ) ;
#374 = DIRECTION ( 'NONE',  ( 1.000000000000000000, 0.000000000000000000, 0.000000000000000000 ) ) ;
#375 = ORIENTED_EDGE ( 'NONE', *, *, #466, .T. ) ;
#376 = AXIS2_PLACEMENT_3D ( 'NONE', #289, #167, #510 ) ;
#377 = DIRECTION ( 'NONE',  ( -1.000000000000000000, -1.387778780781445676E-16, 0.000000000000000000 ) ) ;
#378 = ORIENTED_EDGE ( 'NONE', *, *, #57, .F. ) ;
#379 = DIRECTION ( 'NONE',  ( 1.000000000000000000, 0.000000000000000000, 0.000000000000000000 ) ) ;
#380 = CARTESIAN_POINT ( 'NONE',  ( -44.00000000000000711, -69.00000000000004263, 0.000000000000000000 ) ) ;
#381 = EDGE_CURVE ( 'NONE', #318, #247, #227, .T. ) ;
#382 = AXIS2_PLACEMENT_3D ( 'NONE', #396, #560, #2 ) ;
#383 = LINE ( 'NONE', #328, #411 ) ;
#384 = VERTEX_POINT ( 'NONE', #320 ) ;
#385 = CC_DESIGN_PERSON_AND_ORGANIZATION_ASSIGNMENT ( #394, #350, ( #53 ) ) ;
#386 = CARTESIAN_POINT ( 'NONE',  ( 0.000000000000000000, 0.000000000000000000, 0.000000000000000000 ) ) ;
#387 = AXIS2_PLACEMENT_3D ( 'NONE', #555, #203, #113 ) ;
#388 = CARTESIAN_POINT ( 'NONE',  ( -50.00000000000000000, -75.00000000000004263, 0.000000000000000000 ) ) ;
#389 = EDGE_CURVE ( 'NONE', #316, #324, #314, .T. ) ;
#390 = APPLICATION_CONTEXT ( 'configuration controlled 3d designs of mechanical parts and assemblies' ) ;
#391 = LINE ( 'NONE', #528, #552 ) ;
#392 = AXIS2_PLACEMENT_3D ( 'NONE', #45, #219, #266 ) ;
#393 = EDGE_CURVE ( 'NONE', #149, #413, #532, .T. ) ;
#394 = PERSON_AND_ORGANIZATION ( #205, #373 ) ;
#395 = LINE ( 'NONE', #482, #78 ) ;
#396 = CARTESIAN_POINT ( 'NONE',  ( -50.00000000000000000, -75.00000000000004263, -80.00000000000000000 ) ) ;
#397 = DATE_AND_TIME ( #476, #518 ) ;
#398 = CARTESIAN_POINT ( 'NONE',  ( 44.00000000000002842, -40.00000000000000000, 0.000000000000000000 ) ) ;
#399 = EDGE_CURVE ( 'NONE', #339, #452, #126, .T. ) ;
#400 = ORIENTED_EDGE ( 'NONE', *, *, #252, .F. ) ;
#401 = DATE_AND_TIME ( #309, #5 ) ;
#402 = VECTOR ( 'NONE', #494, 1000.000000000000000 ) ;
#403 = CARTESIAN_POINT ( 'NONE',  ( -44.00000000000000711, 68.99999999999995737, -80.00000000000000000 ) ) ;
#404 = ORIENTED_EDGE ( 'NONE', *, *, #162, .T. ) ;
#405 = FACE_BOUND ( 'NONE', #143, .T. ) ;
#406 = VERTEX_POINT ( 'NONE', #32 ) ;
#407 = EDGE_CURVE ( 'NONE', #424, #199, #198, .T. ) ;
#408 = DIRECTION ( 'NONE',  ( 1.000000000000000000, 0.000000000000000000, 0.000000000000000000 ) ) ;
#409 = ORIENTED_EDGE ( 'NONE', *, *, #450, .F. ) ;
#410 = ADVANCED_FACE ( 'NONE', ( #295 ), #547, .F. ) ;
#411 = VECTOR ( 'NONE', #501, 1000.000000000000000 ) ;
#412 = CARTESIAN_POINT ( 'NONE',  ( 44.00000000000002842, 0.000000000000000000, -40.00000000000000000 ) ) ;
#413 = VERTEX_POINT ( 'NONE', #504 ) ;
#414 = LINE ( 'NONE', #362, #135 ) ;
#415 = ORIENTED_EDGE ( 'NONE', *, *, #197, .F. ) ;
#416 = DIRECTION ( 'NONE',  ( 0.000000000000000000, 0.000000000000000000, -1.000000000000000000 ) ) ;
#417 = ORIENTED_EDGE ( 'NONE', *, *, #425, .F. ) ;
#418 = ADVANCED_FACE ( 'NONE', ( #282 ), #121, .F. ) ;
#419 = LINE ( 'NONE', #29, #89 ) ;
#420 = CIRCLE ( 'NONE', #438, 40.00000000000000000 ) ;
#421 = CARTESIAN_POINT ( 'NONE',  ( -44.00000000000000711, 0.000000000000000000, -40.00000000000000000 ) ) ;
#422 = DIRECTION ( 'NONE',  ( -1.387778780781445676E-16, 1.000000000000000000, 0.000000000000000000 ) ) ;
#423 = SHAPE_DEFINITION_REPRESENTATION ( #47, #483 ) ;
#424 = VERTEX_POINT ( 'NONE', #21 ) ;
#425 = EDGE_CURVE ( 'NONE', #345, #566, #201, .T. ) ;
#426 = LINE ( 'NONE', #206, #298 ) ;
#427 = EDGE_LOOP ( 'NONE', ( #237, #274, #79, #272, #495, #457, #492, #460 ) ) ;
#428 = CARTESIAN_POINT ( 'NONE',  ( 50.00000000000002842, -75.00000000000004263, 0.000000000000000000 ) ) ;
#429 = ORIENTED_EDGE ( 'NONE', *, *, #554, .T. ) ;
#430 = AXIS2_PLACEMENT_3D ( 'NONE', #18, #451, #317 ) ;
#431 = APPROVAL_PERSON_ORGANIZATION ( #181, #222, #87 ) ;
#432 = LINE ( 'NONE', #172, #70 ) ;
#433 = LINE ( 'NONE', #380, #163 ) ;
#434 = DIRECTION ( 'NONE',  ( 0.000000000000000000, 0.000000000000000000, 1.000000000000000000 ) ) ;
#435 = DIRECTION ( 'NONE',  ( 1.000000000000000000, 0.000000000000000000, 0.000000000000000000 ) ) ;
#436 = EDGE_CURVE ( 'NONE', #28, #345, #419, .T. ) ;
#437 = DIRECTION ( 'NONE',  ( -1.000000000000000000, 0.000000000000000000, -0.000000000000000000 ) ) ;
#438 = AXIS2_PLACEMENT_3D ( 'NONE', #480, #435, #525 ) ;
#439 = LOCAL_TIME ( 13, 25, 28.00000000000000000, #332 ) ;
#440 =( NAMED_UNIT ( * ) SI_UNIT ( $, .STERADIAN. ) SOLID_ANGLE_UNIT ( ) );
#441 = FACE_OUTER_BOUND ( 'NONE', #12, .T. ) ;
#442 = EDGE_CURVE ( 'NONE', #539, #413, #383, .T. ) ;
#443 = LINE ( 'NONE', #214, #4 ) ;
#444 = CALENDAR_DATE ( 2026, 28, 1 ) ;
#445 = DIRECTION ( 'NONE',  ( 0.000000000000000000, 0.000000000000000000, 1.000000000000000000 ) ) ;
#446 = VECTOR ( 'NONE', #73, 1000.000000000000000 ) ;
#447 = AXIS2_PLACEMENT_3D ( 'NONE', #81, #297, #212 ) ;
#448 = DIRECTION ( 'NONE',  ( -1.000000000000000000, 0.000000000000000000, -0.000000000000000000 ) ) ;
#449 = ORIENTED_EDGE ( 'NONE', *, *, #329, .F. ) ;
#450 = EDGE_CURVE ( 'NONE', #452, #424, #62, .T. ) ;
#451 = DIRECTION ( 'NONE',  ( 1.000000000000000000, -0.000000000000000000, -0.000000000000000000 ) ) ;
#452 = VERTEX_POINT ( 'NONE', #154 ) ;
#453 = CYLINDRICAL_SURFACE ( 'NONE', #288, 40.00000000000000000 ) ;
#454 = ORIENTED_EDGE ( 'NONE', *, *, #554, .F. ) ;
#455 = CARTESIAN_POINT ( 'NONE',  ( -44.00000000000000711, 0.000000000000000000, 0.000000000000000000 ) ) ;
#456 = ADVANCED_FACE ( 'NONE', ( #238 ), #27, .F. ) ;
#457 = ORIENTED_EDGE ( 'NONE', *, *, #450, .T. ) ;
#458 = CARTESIAN_POINT ( 'NONE',  ( -50.00000000000000000, -75.00000000000004263, -80.00000000000000000 ) ) ;
#459 = EDGE_CURVE ( 'NONE', #413, #66, #567, .T. ) ;
#460 = ORIENTED_EDGE ( 'NONE', *, *, #531, .T. ) ;
#461 = CARTESIAN_POINT ( 'NONE',  ( 50.00000000000002842, 0.000000000000000000, -40.00000000000000000 ) ) ;
#462 = ORIENTED_EDGE ( 'NONE', *, *, #399, .T. ) ;
#463 = DIRECTION ( 'NONE',  ( 0.000000000000000000, -0.000000000000000000, -1.000000000000000000 ) ) ;
#464 = AXIS2_PLACEMENT_3D ( 'NONE', #95, #408, #193 ) ;
#465 = ORIENTED_EDGE ( 'NONE', *, *, #218, .F. ) ;
#466 = EDGE_CURVE ( 'NONE', #502, #149, #75, .T. ) ;
#467 = CARTESIAN_POINT ( 'NONE',  ( -50.00000000000000000, -75.00000000000004263, -80.00000000000000000 ) ) ;
#468 = ORIENTED_EDGE ( 'NONE', *, *, #329, .T. ) ;
#469 = DIRECTION ( 'NONE',  ( 0.000000000000000000, -0.000000000000000000, 1.000000000000000000 ) ) ;
#470 = LINE ( 'NONE', #76, #334 ) ;
#471 = CARTESIAN_POINT ( 'NONE',  ( -50.00000000000000000, 40.00000000000000000, 0.000000000000000000 ) ) ;
#472 = ORIENTED_EDGE ( 'NONE', *, *, #393, .T. ) ;
#473 = APPROVAL_PERSON_ORGANIZATION ( #217, #358, #568 ) ;
#474 = CARTESIAN_POINT ( 'NONE',  ( 50.00000000000000711, 74.99999999999995737, -80.00000000000000000 ) ) ;
#475 = CARTESIAN_POINT ( 'NONE',  ( -50.00000000000000000, -75.00000000000004263, 0.000000000000000000 ) ) ;
#476 = CALENDAR_DATE ( 2026, 28, 1 ) ;
#477 = LINE ( 'NONE', #88, #242 ) ;
#478 = VERTEX_POINT ( 'NONE', #461 ) ;
#479 = DIRECTION ( 'NONE',  ( 1.000000000000000000, 0.000000000000000000, 0.000000000000000000 ) ) ;
#480 = CARTESIAN_POINT ( 'NONE',  ( 50.00000000000002842, 0.000000000000000000, 0.000000000000000000 ) ) ;
#481 = PERSON_AND_ORGANIZATION_ROLE ( 'creator' ) ;
#482 = CARTESIAN_POINT ( 'NONE',  ( -50.00000000000000000, -75.00000000000004263, 0.000000000000000000 ) ) ;
#483 = ADVANCED_BREP_SHAPE_REPRESENTATION ( 'Arm1_Default_sldprt', ( #31, #153 ), #544 ) ;
#484 = PERSON_AND_ORGANIZATION ( #205, #373 ) ;
#485 = CARTESIAN_POINT ( 'NONE',  ( 0.000000000000000000, 0.000000000000000000, 0.000000000000000000 ) ) ;
#486 = PLANE ( 'NONE',  #361 ) ;
#487 = EDGE_LOOP ( 'NONE', ( #251, #465, #371, #548 ) ) ;
#488 = AXIS2_PLACEMENT_3D ( 'NONE', #305, #351, #347 ) ;
#489 = FACE_OUTER_BOUND ( 'NONE', #196, .T. ) ;
#490 = ORIENTED_EDGE ( 'NONE', *, *, #67, .F. ) ;
#491 = LINE ( 'NONE', #232, #516 ) ;
#492 = ORIENTED_EDGE ( 'NONE', *, *, #407, .T. ) ;
#493 = ADVANCED_FACE ( 'NONE', ( #64 ), #240, .T. ) ;
#494 = DIRECTION ( 'NONE',  ( -0.000000000000000000, -1.000000000000000000, -0.000000000000000000 ) ) ;
#495 = ORIENTED_EDGE ( 'NONE', *, *, #275, .F. ) ;
#496 = ADVANCED_FACE ( 'NONE', ( #331 ), #69, .T. ) ;
#497 = DIRECTION ( 'NONE',  ( 1.000000000000000000, -0.000000000000000000, -0.000000000000000000 ) ) ;
#498 = VERTEX_POINT ( 'NONE', #549 ) ;
#499 = DIRECTION ( 'NONE',  ( -1.000000000000000000, -0.000000000000000000, -0.000000000000000000 ) ) ;
#500 = ORIENTED_EDGE ( 'NONE', *, *, #16, .F. ) ;
#501 = DIRECTION ( 'NONE',  ( 1.000000000000000000, -0.000000000000000000, -0.000000000000000000 ) ) ;
#502 = VERTEX_POINT ( 'NONE', #117 ) ;
#503 = EDGE_CURVE ( 'NONE', #247, #59, #426, .T. ) ;
#504 = CARTESIAN_POINT ( 'NONE',  ( -44.00000000000000711, 40.00000000000000000, 0.000000000000000000 ) ) ;
#505 = AXIS2_PLACEMENT_3D ( 'NONE', #123, #338, #157 ) ;
#506 = ORIENTED_EDGE ( 'NONE', *, *, #459, .T. ) ;
#507 = CC_DESIGN_PERSON_AND_ORGANIZATION_ASSIGNMENT ( #138, #481, ( #96 ) ) ;
#508 = DIRECTION ( 'NONE',  ( 0.000000000000000000, 1.000000000000000000, 0.000000000000000000 ) ) ;
#509 = ORIENTED_EDGE ( 'NONE', *, *, #304, .T. ) ;
#510 = DIRECTION ( 'NONE',  ( 0.000000000000000000, 0.000000000000000000, 1.000000000000000000 ) ) ;
#511 = APPROVAL_ROLE ( '' ) ;
#512 = ORIENTED_EDGE ( 'NONE', *, *, #252, .T. ) ;
#513 = ADVANCED_FACE ( 'NONE', ( #551 ), #164, .F. ) ;
#514 = DIRECTION ( 'NONE',  ( -1.387778780781445676E-16, 1.000000000000000000, 0.000000000000000000 ) ) ;
#515 = PLANE ( 'NONE',  #382 ) ;
#516 = VECTOR ( 'NONE', #195, 1000.000000000000000 ) ;
#517 = VECTOR ( 'NONE', #211, 1000.000000000000000 ) ;
#518 = LOCAL_TIME ( 13, 25, 28.00000000000000000, #564 ) ;
#519 = APPLICATION_PROTOCOL_DEFINITION ( 'international standard', 'config_control_design', 1994, #187 ) ;
#520 = LINE ( 'NONE', #129, #313 ) ;
#521 = DIRECTION ( 'NONE',  ( 0.000000000000000000, 1.000000000000000000, 0.000000000000000000 ) ) ;
#522 = EDGE_CURVE ( 'NONE', #318, #149, #340, .T. ) ;
#523 = VERTEX_POINT ( 'NONE', #303 ) ;
#524 = EDGE_CURVE ( 'NONE', #478, #424, #25, .T. ) ;
#525 = DIRECTION ( 'NONE',  ( 0.000000000000000000, 0.000000000000000000, -1.000000000000000000 ) ) ;
#526 = ORIENTED_EDGE ( 'NONE', *, *, #292, .T. ) ;
#527 = FACE_OUTER_BOUND ( 'NONE', #151, .T. ) ;
#528 = CARTESIAN_POINT ( 'NONE',  ( -50.00000000000000000, -75.00000000000004263, -80.00000000000000000 ) ) ;
#529 = PERSON_AND_ORGANIZATION_ROLE ( 'design_supplier' ) ;
#530 = CARTESIAN_POINT ( 'NONE',  ( -50.00000000000000000, 0.000000000000000000, 0.000000000000000000 ) ) ;
#531 = EDGE_CURVE ( 'NONE', #199, #498, #257, .T. ) ;
#532 = LINE ( 'NONE', #271, #402 ) ;
#533 = EDGE_LOOP ( 'NONE', ( #557, #366, #378, #537, #61, #327, #400 ) ) ;
#534 = VECTOR ( 'NONE', #521, 1000.000000000000000 ) ;
#535 = CC_DESIGN_APPROVAL ( #358, ( #34 ) ) ;
#536 = CARTESIAN_POINT ( 'NONE',  ( 50.00000000000002842, -75.00000000000004263, 0.000000000000000000 ) ) ;
#537 = ORIENTED_EDGE ( 'NONE', *, *, #355, .F. ) ;
#538 = CARTESIAN_POINT ( 'NONE',  ( 0.000000000000000000, 0.000000000000000000, -80.00000000000000000 ) ) ;
#539 = VERTEX_POINT ( 'NONE', #471 ) ;
#540 = CARTESIAN_POINT ( 'NONE',  ( 0.000000000000000000, 0.000000000000000000, 0.000000000000000000 ) ) ;
#541 = VERTEX_POINT ( 'NONE', #474 ) ;
#542 = CIRCLE ( 'NONE', #42, 40.00000000000000000 ) ;
#543 = CARTESIAN_POINT ( 'NONE',  ( -50.00000000000000000, -75.00000000000004263, -80.00000000000000000 ) ) ;
#544 =( GEOMETRIC_REPRESENTATION_CONTEXT ( 3 ) GLOBAL_UNCERTAINTY_ASSIGNED_CONTEXT ( ( #71 ) ) GLOBAL_UNIT_ASSIGNED_CONTEXT ( ( #263, #559, #440 ) ) REPRESENTATION_CONTEXT ( 'NONE', 'WORKASPACE' ) );
#545 = ORIENTED_EDGE ( 'NONE', *, *, #302, .T. ) ;
#546 = VECTOR ( 'NONE', #499, 1000.000000000000000 ) ;
#547 = PLANE ( 'NONE',  #192 ) ;
#548 = ORIENTED_EDGE ( 'NONE', *, *, #355, .T. ) ;
#549 = CARTESIAN_POINT ( 'NONE',  ( -49.99999999999999289, 74.99999999999994316, 0.000000000000000000 ) ) ;
#550 = ORIENTED_EDGE ( 'NONE', *, *, #522, .T. ) ;
#551 = FACE_OUTER_BOUND ( 'NONE', #10, .T. ) ;
#552 = VECTOR ( 'NONE', #445, 1000.000000000000000 ) ;
#553 = DIRECTION ( 'NONE',  ( -0.000000000000000000, -1.000000000000000000, -0.000000000000000000 ) ) ;
#554 = EDGE_CURVE ( 'NONE', #566, #541, #432, .T. ) ;
#555 = CARTESIAN_POINT ( 'NONE',  ( -50.00000000000000000, 0.000000000000000000, 0.000000000000000000 ) ) ;
#556 = DATE_AND_TIME ( #444, #51 ) ;
#557 = ORIENTED_EDGE ( 'NONE', *, *, #294, .T. ) ;
#558 = ADVANCED_FACE ( 'NONE', ( #527 ), #40, .F. ) ;
#559 =( NAMED_UNIT ( * ) PLANE_ANGLE_UNIT ( ) SI_UNIT ( $, .RADIAN. ) );
#560 = DIRECTION ( 'NONE',  ( -1.000000000000000000, 4.625929269271486407E-17, 0.000000000000000000 ) ) ;
#561 = CC_DESIGN_DATE_AND_TIME_ASSIGNMENT ( #43, #1, ( #96 ) ) ;
#562 = LINE ( 'NONE', #170, #173 ) ;
#563 = VECTOR ( 'NONE', #139, 1000.000000000000000 ) ;
#564 = COORDINATED_UNIVERSAL_TIME_OFFSET ( 1, 0, .AHEAD. ) ;
#565 = DIRECTION ( 'NONE',  ( -4.625929269271486407E-17, -1.000000000000000000, -0.000000000000000000 ) ) ;
#566 = VERTEX_POINT ( 'NONE', #36 ) ;
#567 = CIRCLE ( 'NONE', #376, 40.00000000000000000 ) ;
#568 = APPROVAL_ROLE ( '' ) ;
#569 = CARTESIAN_POINT ( 'NONE',  ( -44.00000000000000711, -69.00000000000004263, -80.00000000000000000 ) ) ;
ENDSEC;
END-ISO-10303-21;
