ISO-10303-21;
HEADER;
FILE_DESCRIPTION (( 'STEP AP203' ),
    '1' );
FILE_NAME ('Arm2_Default_sldprt.STEP',
    '2026-01-28T12:25:30',
    ( '' ),
    ( '' ),
    'SwSTEP 2.0',
    'SolidWorks 2024',
    '' );
FILE_SCHEMA (( 'CONFIG_CONTROL_DESIGN' ));
ENDSEC;

DATA;
#1 = VERTEX_POINT ( 'NONE', #174 ) ;
#2 = LINE ( 'NONE', #198, #244 ) ;
#3 = EDGE_LOOP ( 'NONE', ( #256, #128, #374, #308 ) ) ;
#4 = FACE_OUTER_BOUND ( 'NONE', #199, .T. ) ;
#5 = EDGE_CURVE ( 'NONE', #123, #270, #90, .T. ) ;
#6 = ORIENTED_EDGE ( 'NONE', *, *, #30, .T. ) ;
#7 = EDGE_CURVE ( 'NONE', #270, #474, #163, .T. ) ;
#8 = DIRECTION ( 'NONE',  ( 1.000000000000000000, 0.000000000000000000, 0.000000000000000000 ) ) ;
#9 = ADVANCED_FACE ( 'NONE', ( #21 ), #202, .T. ) ;
#10 = ORIENTED_EDGE ( 'NONE', *, *, #422, .T. ) ;
#11 = VERTEX_POINT ( 'NONE', #246 ) ;
#12 = EDGE_CURVE ( 'NONE', #474, #305, #130, .T. ) ;
#13 = FACE_BOUND ( 'NONE', #253, .T. ) ;
#14 = AXIS2_PLACEMENT_3D ( 'NONE', #53, #330, #213 ) ;
#15 = EDGE_CURVE ( 'NONE', #242, #245, #325, .T. ) ;
#16 = DIRECTION ( 'NONE',  ( -1.000000000000000000, 0.000000000000000000, -0.000000000000000000 ) ) ;
#17 = LINE ( 'NONE', #468, #411 ) ;
#18 = DIRECTION ( 'NONE',  ( 0.000000000000000000, 1.000000000000000000, 0.000000000000000000 ) ) ;
#19 = VECTOR ( 'NONE', #241, 1000.000000000000000 ) ;
#20 = ADVANCED_FACE ( 'NONE', ( #477 ), #446, .T. ) ;
#21 = FACE_OUTER_BOUND ( 'NONE', #151, .T. ) ;
#22 = AXIS2_PLACEMENT_3D ( 'NONE', #248, #436, #322 ) ;
#23 = ADVANCED_FACE ( 'NONE', ( #369, #13 ), #400, .F. ) ;
#24 = DIRECTION ( 'NONE',  ( 0.000000000000000000, 0.000000000000000000, 1.000000000000000000 ) ) ;
#25 = COORDINATED_UNIVERSAL_TIME_OFFSET ( 1, 0, .AHEAD. ) ;
#26 = CARTESIAN_POINT ( 'NONE',  ( -49.99999999999999289, 74.99999999999994316, 0.000000000000000000 ) ) ;
#27 = DATE_TIME_ROLE ( 'creation_date' ) ;
#28 = VECTOR ( 'NONE', #234, 1000.000000000000000 ) ;
#29 = DIRECTION ( 'NONE',  ( 0.000000000000000000, 0.000000000000000000, -1.000000000000000000 ) ) ;
#30 = EDGE_CURVE ( 'NONE', #333, #298, #127, .T. ) ;
#31 = ORIENTED_EDGE ( 'NONE', *, *, #465, .F. ) ;
#32 = DIRECTION ( 'NONE',  ( 0.000000000000000000, 0.000000000000000000, 1.000000000000000000 ) ) ;
#33 = CARTESIAN_POINT ( 'NONE',  ( -50.00000000000000000, 0.000000000000000000, 0.000000000000000000 ) ) ;
#34 = PLANE ( 'NONE',  #360 ) ;
#35 = DIRECTION ( 'NONE',  ( 0.000000000000000000, -0.000000000000000000, 1.000000000000000000 ) ) ;
#36 = VECTOR ( 'NONE', #229, 1000.000000000000000 ) ;
#37 = PERSON_AND_ORGANIZATION ( #224, #84 ) ;
#38 = DIRECTION ( 'NONE',  ( -1.000000000000000000, -0.000000000000000000, -0.000000000000000000 ) ) ;
#39 = CC_DESIGN_SECURITY_CLASSIFICATION ( #216, ( #456 ) ) ;
#40 = CARTESIAN_POINT ( 'NONE',  ( -44.00000000000000711, -69.00000000000004263, 0.000000000000000000 ) ) ;
#41 = EDGE_LOOP ( 'NONE', ( #423, #167, #31, #473 ) ) ;
#42 = CARTESIAN_POINT ( 'NONE',  ( -44.00000000000000711, 40.00000000000000000, 0.000000000000000000 ) ) ;
#43 = CC_DESIGN_PERSON_AND_ORGANIZATION_ASSIGNMENT ( #191, #454, ( #456 ) ) ;
#44 = EDGE_LOOP ( 'NONE', ( #48, #159, #388, #81, #164, #367 ) ) ;
#45 = VECTOR ( 'NONE', #258, 1000.000000000000000 ) ;
#46 = ADVANCED_BREP_SHAPE_REPRESENTATION ( 'Arm2_Default_sldprt', ( #345, #59 ), #221 ) ;
#47 = LINE ( 'NONE', #267, #317 ) ;
#48 = ORIENTED_EDGE ( 'NONE', *, *, #30, .F. ) ;
#49 = ORIENTED_EDGE ( 'NONE', *, *, #287, .F. ) ;
#50 = APPROVAL ( #381, 'UNSPECIFIED' ) ;
#51 = CARTESIAN_POINT ( 'NONE',  ( 44.00000000000002842, 0.000000000000000000, 0.000000000000000000 ) ) ;
#52 = ADVANCED_FACE ( 'NONE', ( #96 ), #250, .T. ) ;
#53 = CARTESIAN_POINT ( 'NONE',  ( 44.00000000000002132, -69.00000000000004263, 138.2023151880890168 ) ) ;
#54 = CARTESIAN_POINT ( 'NONE',  ( -50.00000000000000000, 0.000000000000000000, 0.000000000000000000 ) ) ;
#55 = CARTESIAN_POINT ( 'NONE',  ( -44.00000000000000711, 0.000000000000000000, 0.000000000000000000 ) ) ;
#56 = APPLICATION_PROTOCOL_DEFINITION ( 'international standard', 'config_control_design', 1994, #154 ) ;
#57 = DIRECTION ( 'NONE',  ( -1.387778780781445676E-16, 1.000000000000000000, 0.000000000000000000 ) ) ;
#58 = CARTESIAN_POINT ( 'NONE',  ( 0.000000000000000000, 0.000000000000000000, 0.000000000000000000 ) ) ;
#59 = AXIS2_PLACEMENT_3D ( 'NONE', #58, #32, #329 ) ;
#60 = DIRECTION ( 'NONE',  ( -1.000000000000000000, 0.000000000000000000, 0.000000000000000000 ) ) ;
#61 = VECTOR ( 'NONE', #299, 1000.000000000000000 ) ;
#62 = PERSON_AND_ORGANIZATION_ROLE ( 'creator' ) ;
#63 = CARTESIAN_POINT ( 'NONE',  ( -44.00000000000000711, -69.00000000000004263, 138.2023151880890168 ) ) ;
#64 = DATE_AND_TIME ( #175, #445 ) ;
#65 = EDGE_CURVE ( 'NONE', #74, #11, #479, .T. ) ;
#66 = DIRECTION ( 'NONE',  ( -4.625929269271486407E-17, -1.000000000000000000, -0.000000000000000000 ) ) ;
#67 = EDGE_CURVE ( 'NONE', #474, #161, #92, .T. ) ;
#68 = APPROVAL_PERSON_ORGANIZATION ( #94, #187, #99 ) ;
#69 = DIRECTION ( 'NONE',  ( -0.000000000000000000, -0.000000000000000000, -1.000000000000000000 ) ) ;
#70 = EDGE_LOOP ( 'NONE', ( #210, #412, #457, #235, #226, #393 ) ) ;
#71 = APPROVAL_DATE_TIME ( #105, #204 ) ;
#72 = CARTESIAN_POINT ( 'NONE',  ( -49.99999999999999289, 74.99999999999994316, 138.2023151880890168 ) ) ;
#73 = CARTESIAN_POINT ( 'NONE',  ( -50.00000000000000000, 40.00000000000000000, 0.000000000000000000 ) ) ;
#74 = VERTEX_POINT ( 'NONE', #133 ) ;
#75 = LINE ( 'NONE', #40, #194 ) ;
#76 = AXIS2_PLACEMENT_3D ( 'NONE', #63, #108, #29 ) ;
#77 = LINE ( 'NONE', #207, #36 ) ;
#78 = ORIENTED_EDGE ( 'NONE', *, *, #478, .F. ) ;
#79 = CC_DESIGN_DATE_AND_TIME_ASSIGNMENT ( #64, #27, ( #264 ) ) ;
#80 = DIRECTION ( 'NONE',  ( 0.000000000000000000, 0.000000000000000000, -1.000000000000000000 ) ) ;
#81 = ORIENTED_EDGE ( 'NONE', *, *, #318, .T. ) ;
#82 = CARTESIAN_POINT ( 'NONE',  ( -44.00000000000000711, 68.99999999999995737, 0.000000000000000000 ) ) ;
#83 = ORIENTED_EDGE ( 'NONE', *, *, #303, .T. ) ;
#84 = ORGANIZATION ( 'UNSPECIFIED', 'UNSPECIFIED', '' ) ;
#85 = PLANE ( 'NONE',  #251 ) ;
#86 = VECTOR ( 'NONE', #18, 1000.000000000000000 ) ;
#87 = ORIENTED_EDGE ( 'NONE', *, *, #318, .F. ) ;
#88 = EDGE_CURVE ( 'NONE', #497, #123, #442, .T. ) ;
#89 = ORIENTED_EDGE ( 'NONE', *, *, #431, .F. ) ;
#90 = LINE ( 'NONE', #398, #215 ) ;
#91 = VECTOR ( 'NONE', #421, 1000.000000000000000 ) ;
#92 = LINE ( 'NONE', #364, #86 ) ;
#93 = VECTOR ( 'NONE', #66, 1000.000000000000000 ) ;
#94 = PERSON_AND_ORGANIZATION ( #224, #84 ) ;
#95 = EDGE_CURVE ( 'NONE', #315, #142, #170, .T. ) ;
#96 = FACE_OUTER_BOUND ( 'NONE', #3, .T. ) ;
#97 = CARTESIAN_POINT ( 'NONE',  ( 50.00000000000000711, 74.99999999999995737, 138.2023151880890168 ) ) ;
#98 = ORIENTED_EDGE ( 'NONE', *, *, #431, .T. ) ;
#99 = APPROVAL_ROLE ( '' ) ;
#100 = AXIS2_PLACEMENT_3D ( 'NONE', #392, #350, #389 ) ;
#101 = VERTEX_POINT ( 'NONE', #380 ) ;
#102 = VECTOR ( 'NONE', #208, 1000.000000000000000 ) ;
#103 = LINE ( 'NONE', #220, #186 ) ;
#104 = ORIENTED_EDGE ( 'NONE', *, *, #465, .T. ) ;
#105 = DATE_AND_TIME ( #296, #211 ) ;
#106 = CARTESIAN_POINT ( 'NONE',  ( -50.00000000000000000, -75.00000000000004263, 0.000000000000000000 ) ) ;
#107 = VECTOR ( 'NONE', #472, 1000.000000000000000 ) ;
#108 = DIRECTION ( 'NONE',  ( 1.000000000000000000, 0.000000000000000000, 0.000000000000000000 ) ) ;
#109 = ORIENTED_EDGE ( 'NONE', *, *, #434, .T. ) ;
#110 = ADVANCED_FACE ( 'NONE', ( #455 ), #148, .F. ) ;
#111 = UNCERTAINTY_MEASURE_WITH_UNIT (LENGTH_MEASURE( 1.000000000000000082E-05 ), #249, 'distance_accuracy_value', 'NONE');
#112 = CARTESIAN_POINT ( 'NONE',  ( 50.00000000000002842, -75.00000000000004263, 0.000000000000000000 ) ) ;
#113 = ORIENTED_EDGE ( 'NONE', *, *, #12, .F. ) ;
#114 = EDGE_CURVE ( 'NONE', #142, #144, #409, .T. ) ;
#115 = LINE ( 'NONE', #112, #292 ) ;
#116 = CARTESIAN_POINT ( 'NONE',  ( -50.00000000000000000, -75.00000000000004263, 0.000000000000000000 ) ) ;
#117 = ORIENTED_EDGE ( 'NONE', *, *, #405, .F. ) ;
#118 = COORDINATED_UNIVERSAL_TIME_OFFSET ( 1, 0, .AHEAD. ) ;
#119 = EDGE_CURVE ( 'NONE', #101, #278, #489, .T. ) ;
#120 = CARTESIAN_POINT ( 'NONE',  ( -44.00000000000000711, -40.00000000000000000, 0.000000000000000000 ) ) ;
#121 = VERTEX_POINT ( 'NONE', #342 ) ;
#122 = DIRECTION ( 'NONE',  ( -0.000000000000000000, -1.000000000000000000, -0.000000000000000000 ) ) ;
#123 = VERTEX_POINT ( 'NONE', #293 ) ;
#124 = CARTESIAN_POINT ( 'NONE',  ( -50.00000000000000000, -40.00000000000000000, 0.000000000000000000 ) ) ;
#125 = ORIENTED_EDGE ( 'NONE', *, *, #279, .F. ) ;
#126 = AXIS2_PLACEMENT_3D ( 'NONE', #222, #447, #177 ) ;
#127 = CIRCLE ( 'NONE', #483, 40.00000000000000000 ) ;
#128 = ORIENTED_EDGE ( 'NONE', *, *, #15, .F. ) ;
#129 = CARTESIAN_POINT ( 'NONE',  ( 0.000000000000000000, 0.000000000000000000, 138.2023151880890168 ) ) ;
#130 = LINE ( 'NONE', #206, #102 ) ;
#131 = PRODUCT_RELATED_PRODUCT_CATEGORY ( 'detail', '', ( #203 ) ) ;
#132 = APPLICATION_PROTOCOL_DEFINITION ( 'international standard', 'config_control_design', 1994, #433 ) ;
#133 = CARTESIAN_POINT ( 'NONE',  ( -50.00000000000000000, -75.00000000000004263, 138.2023151880890168 ) ) ;
#134 = PLANE ( 'NONE',  #391 ) ;
#135 = ORIENTED_EDGE ( 'NONE', *, *, #279, .T. ) ;
#136 = CC_DESIGN_PERSON_AND_ORGANIZATION_ASSIGNMENT ( #451, #372, ( #203 ) ) ;
#137 = CARTESIAN_POINT ( 'NONE',  ( -44.00000000000000711, -69.00000000000004263, 138.2023151880890168 ) ) ;
#138 = LINE ( 'NONE', #97, #429 ) ;
#139 = LINE ( 'NONE', #371, #45 ) ;
#140 = COORDINATED_UNIVERSAL_TIME_OFFSET ( 1, 0, .AHEAD. ) ;
#141 = CARTESIAN_POINT ( 'NONE',  ( 50.00000000000002842, -75.00000000000004263, 138.2023151880890168 ) ) ;
#142 = VERTEX_POINT ( 'NONE', #26 ) ;
#143 = CARTESIAN_POINT ( 'NONE',  ( -50.00000000000000000, -40.00000000000000000, 0.000000000000000000 ) ) ;
#144 = VERTEX_POINT ( 'NONE', #73 ) ;
#145 = DATE_AND_TIME ( #233, #476 ) ;
#146 = VECTOR ( 'NONE', #275, 1000.000000000000000 ) ;
#147 = CARTESIAN_POINT ( 'NONE',  ( 44.00000000000002132, -69.00000000000004263, 0.000000000000000000 ) ) ;
#148 = PLANE ( 'NONE',  #311 ) ;
#149 = ORIENTED_EDGE ( 'NONE', *, *, #394, .T. ) ;
#150 = LINE ( 'NONE', #355, #162 ) ;
#151 = EDGE_LOOP ( 'NONE', ( #347, #196, #354, #390, #343, #276 ) ) ;
#152 = CARTESIAN_POINT ( 'NONE',  ( -50.00000000000000000, -75.00000000000004263, 138.2023151880890168 ) ) ;
#153 = EDGE_LOOP ( 'NONE', ( #83, #377, #460, #419 ) ) ;
#154 = APPLICATION_CONTEXT ( 'configuration controlled 3d designs of mechanical parts and assemblies' ) ;
#155 = DIRECTION ( 'NONE',  ( -0.000000000000000000, -1.000000000000000000, -0.000000000000000000 ) ) ;
#156 = VERTEX_POINT ( 'NONE', #176 ) ;
#157 = LINE ( 'NONE', #314, #107 ) ;
#158 = EDGE_CURVE ( 'NONE', #397, #161, #331, .T. ) ;
#159 = ORIENTED_EDGE ( 'NONE', *, *, #160, .F. ) ;
#160 = EDGE_CURVE ( 'NONE', #402, #333, #103, .T. ) ;
#161 = VERTEX_POINT ( 'NONE', #459 ) ;
#162 = VECTOR ( 'NONE', #122, 1000.000000000000000 ) ;
#163 = CIRCLE ( 'NONE', #254, 40.00000000000000000 ) ;
#164 = ORIENTED_EDGE ( 'NONE', *, *, #15, .T. ) ;
#165 = DIRECTION ( 'NONE',  ( 0.000000000000000000, 0.000000000000000000, -1.000000000000000000 ) ) ;
#166 = DIRECTION ( 'NONE',  ( 1.387778780781445676E-16, -1.000000000000000000, 0.000000000000000000 ) ) ;
#167 = ORIENTED_EDGE ( 'NONE', *, *, #382, .F. ) ;
#168 = LOCAL_TIME ( 13, 25, 30.00000000000000000, #179 ) ;
#169 = CALENDAR_DATE ( 2026, 28, 1 ) ;
#170 = LINE ( 'NONE', #328, #406 ) ;
#171 = CC_DESIGN_APPROVAL ( #50, ( #216 ) ) ;
#172 = MECHANICAL_CONTEXT ( 'NONE', #433, 'mechanical' ) ;
#173 = EDGE_CURVE ( 'NONE', #156, #497, #383, .T. ) ;
#174 = CARTESIAN_POINT ( 'NONE',  ( 50.00000000000000711, 74.99999999999995737, 138.2023151880890168 ) ) ;
#175 = CALENDAR_DATE ( 2026, 28, 1 ) ;
#176 = CARTESIAN_POINT ( 'NONE',  ( 50.00000000000002842, -75.00000000000004263, 138.2023151880890168 ) ) ;
#177 = DIRECTION ( 'NONE',  ( 0.000000000000000000, 0.000000000000000000, -1.000000000000000000 ) ) ;
#178 = FACE_OUTER_BOUND ( 'NONE', #336, .T. ) ;
#179 = COORDINATED_UNIVERSAL_TIME_OFFSET ( 1, 0, .AHEAD. ) ;
#180 = DIRECTION ( 'NONE',  ( 0.000000000000000000, 1.000000000000000000, 0.000000000000000000 ) ) ;
#181 = ORIENTED_EDGE ( 'NONE', *, *, #114, .F. ) ;
#182 = CARTESIAN_POINT ( 'NONE',  ( 44.00000000000002842, -40.00000000000000000, 0.000000000000000000 ) ) ;
#183 = COORDINATED_UNIVERSAL_TIME_OFFSET ( 1, 0, .AHEAD. ) ;
#184 = AXIS2_PLACEMENT_3D ( 'NONE', #54, #323, #386 ) ;
#185 = LINE ( 'NONE', #227, #294 ) ;
#186 = VECTOR ( 'NONE', #346, 1000.000000000000000 ) ;
#187 = APPROVAL ( #290, 'UNSPECIFIED' ) ;
#188 = LOCAL_TIME ( 13, 25, 30.00000000000000000, #183 ) ;
#189 = FACE_OUTER_BOUND ( 'NONE', #70, .T. ) ;
#190 = ORIENTED_EDGE ( 'NONE', *, *, #281, .F. ) ;
#191 = PERSON_AND_ORGANIZATION ( #224, #84 ) ;
#192 = CARTESIAN_POINT ( 'NONE',  ( 44.00000000000002132, 68.99999999999995737, 138.2023151880890168 ) ) ;
#193 = ORIENTED_EDGE ( 'NONE', *, *, #95, .F. ) ;
#194 = VECTOR ( 'NONE', #8, 1000.000000000000000 ) ;
#195 = CARTESIAN_POINT ( 'NONE',  ( 44.00000000000002132, -69.00000000000004263, 138.2023151880890168 ) ) ;
#196 = ORIENTED_EDGE ( 'NONE', *, *, #238, .F. ) ;
#197 = ADVANCED_FACE ( 'NONE', ( #373 ), #259, .T. ) ;
#198 = CARTESIAN_POINT ( 'NONE',  ( 50.00000000000002842, -75.00000000000004263, 138.2023151880890168 ) ) ;
#199 = EDGE_LOOP ( 'NONE', ( #149, #6, #109, #117 ) ) ;
#200 = ADVANCED_FACE ( 'NONE', ( #178 ), #413, .F. ) ;
#201 = ORIENTED_EDGE ( 'NONE', *, *, #238, .T. ) ;
#202 = PLANE ( 'NONE',  #14 ) ;
#203 = PRODUCT ( 'Arm2_Default_sldprt', 'Arm2_Default_sldprt', '', ( #172 ) ) ;
#204 = APPROVAL ( #486, 'UNSPECIFIED' ) ;
#205 = EDGE_CURVE ( 'NONE', #121, #402, #185, .T. ) ;
#206 = CARTESIAN_POINT ( 'NONE',  ( -50.00000000000000000, 40.00000000000000000, 0.000000000000000000 ) ) ;
#207 = CARTESIAN_POINT ( 'NONE',  ( -44.00000000000000711, -69.00000000000004263, 138.2023151880890168 ) ) ;
#208 = DIRECTION ( 'NONE',  ( 1.000000000000000000, -0.000000000000000000, -0.000000000000000000 ) ) ;
#209 = DIRECTION ( 'NONE',  ( -0.000000000000000000, -0.000000000000000000, -1.000000000000000000 ) ) ;
#210 = ORIENTED_EDGE ( 'NONE', *, *, #114, .T. ) ;
#211 = LOCAL_TIME ( 13, 25, 30.00000000000000000, #140 ) ;
#212 = DIRECTION ( 'NONE',  ( -1.000000000000000000, 0.000000000000000000, -0.000000000000000000 ) ) ;
#213 = DIRECTION ( 'NONE',  ( 0.000000000000000000, 0.000000000000000000, 1.000000000000000000 ) ) ;
#214 = ADVANCED_FACE ( 'NONE', ( #218 ), #34, .T. ) ;
#215 = VECTOR ( 'NONE', #60, 1000.000000000000000 ) ;
#216 = SECURITY_CLASSIFICATION ( '', '', #378 ) ;
#217 = CARTESIAN_POINT ( 'NONE',  ( 0.000000000000000000, 0.000000000000000000, 0.000000000000000000 ) ) ;
#218 = FACE_OUTER_BOUND ( 'NONE', #243, .T. ) ;
#219 =( NAMED_UNIT ( * ) SI_UNIT ( $, .STERADIAN. ) SOLID_ANGLE_UNIT ( ) );
#220 = CARTESIAN_POINT ( 'NONE',  ( -44.00000000000000711, -69.00000000000004263, 0.000000000000000000 ) ) ;
#221 =( GEOMETRIC_REPRESENTATION_CONTEXT ( 3 ) GLOBAL_UNCERTAINTY_ASSIGNED_CONTEXT ( ( #111 ) ) GLOBAL_UNIT_ASSIGNED_CONTEXT ( ( #249, #257, #219 ) ) REPRESENTATION_CONTEXT ( 'NONE', 'WORKASPACE' ) );
#222 = CARTESIAN_POINT ( 'NONE',  ( 50.00000000000002842, 0.000000000000000000, 0.000000000000000000 ) ) ;
#223 = CARTESIAN_POINT ( 'NONE',  ( 50.00000000000002842, -75.00000000000004263, 138.2023151880890168 ) ) ;
#224 = PERSON ( 'UNSPECIFIED', 'UNSPECIFIED', 'UNSPECIFIED', ('UNSPECIFIED'), ('UNSPECIFIED'), ('UNSPECIFIED') ) ;
#225 = DIRECTION ( 'NONE',  ( 1.000000000000000000, -0.000000000000000000, -0.000000000000000000 ) ) ;
#226 = ORIENTED_EDGE ( 'NONE', *, *, #443, .F. ) ;
#227 = CARTESIAN_POINT ( 'NONE',  ( -44.00000000000000711, 68.99999999999995737, 138.2023151880890168 ) ) ;
#228 = VERTEX_POINT ( 'NONE', #72 ) ;
#229 = DIRECTION ( 'NONE',  ( 1.000000000000000000, 0.000000000000000000, 0.000000000000000000 ) ) ;
#230 = CLOSED_SHELL ( 'NONE', ( #20, #23, #438, #415, #110, #200, #332, #197, #52, #9, #214, #265, #295 ) ) ;
#231 = CYLINDRICAL_SURFACE ( 'NONE', #184, 40.00000000000000000 ) ;
#232 = ORIENTED_EDGE ( 'NONE', *, *, #379, .T. ) ;
#233 = CALENDAR_DATE ( 2026, 28, 1 ) ;
#234 = DIRECTION ( 'NONE',  ( 0.000000000000000000, 1.000000000000000000, 0.000000000000000000 ) ) ;
#235 = ORIENTED_EDGE ( 'NONE', *, *, #65, .F. ) ;
#236 = AXIS2_PLACEMENT_3D ( 'NONE', #480, #353, #80 ) ;
#237 = PLANE ( 'NONE',  #100 ) ;
#238 = EDGE_CURVE ( 'NONE', #278, #270, #139, .T. ) ;
#239 = ORIENTED_EDGE ( 'NONE', *, *, #173, .T. ) ;
#240 = AXIS2_PLACEMENT_3D ( 'NONE', #399, #482, #359 ) ;
#241 = DIRECTION ( 'NONE',  ( 1.000000000000000000, 0.000000000000000000, 0.000000000000000000 ) ) ;
#242 = VERTEX_POINT ( 'NONE', #463 ) ;
#243 = EDGE_LOOP ( 'NONE', ( #190, #485, #98, #384 ) ) ;
#244 = VECTOR ( 'NONE', #309, 1000.000000000000000 ) ;
#245 = VERTEX_POINT ( 'NONE', #302 ) ;
#246 = CARTESIAN_POINT ( 'NONE',  ( -50.00000000000000000, -75.00000000000004263, 0.000000000000000000 ) ) ;
#247 = DIRECTION ( 'NONE',  ( -4.625929269271486407E-17, -1.000000000000000000, -0.000000000000000000 ) ) ;
#248 = CARTESIAN_POINT ( 'NONE',  ( -44.00000000000000711, -69.00000000000004263, 138.2023151880890168 ) ) ;
#249 =( LENGTH_UNIT ( ) NAMED_UNIT ( * ) SI_UNIT ( .MILLI., .METRE. ) );
#250 = PLANE ( 'NONE',  #22 ) ;
#251 = AXIS2_PLACEMENT_3D ( 'NONE', #266, #166, #395 ) ;
#252 = APPROVAL_DATE_TIME ( #408, #187 ) ;
#253 = EDGE_LOOP ( 'NONE', ( #87, #89, #49, #283 ) ) ;
#254 = AXIS2_PLACEMENT_3D ( 'NONE', #51, #291, #24 ) ;
#255 = CARTESIAN_POINT ( 'NONE',  ( -50.00000000000000000, -75.00000000000004263, 138.2023151880890168 ) ) ;
#256 = ORIENTED_EDGE ( 'NONE', *, *, #326, .F. ) ;
#257 =( NAMED_UNIT ( * ) PLANE_ANGLE_UNIT ( ) SI_UNIT ( $, .RADIAN. ) );
#258 = DIRECTION ( 'NONE',  ( 0.000000000000000000, 1.000000000000000000, 0.000000000000000000 ) ) ;
#259 = PLANE ( 'NONE',  #76 ) ;
#260 = VECTOR ( 'NONE', #289, 1000.000000000000000 ) ;
#261 = ORIENTED_EDGE ( 'NONE', *, *, #67, .T. ) ;
#262 = DATE_AND_TIME ( #306, #188 ) ;
#263 = DIRECTION ( 'NONE',  ( -1.387778780781445676E-16, 1.000000000000000000, 0.000000000000000000 ) ) ;
#264 = PRODUCT_DEFINITION ( 'UNKNOWN', '', #456, #462 ) ;
#265 = ADVANCED_FACE ( 'NONE', ( #410 ), #376, .F. ) ;
#266 = CARTESIAN_POINT ( 'NONE',  ( -49.99999999999999289, 74.99999999999994316, 138.2023151880890168 ) ) ;
#267 = CARTESIAN_POINT ( 'NONE',  ( -44.00000000000000711, -69.00000000000004263, 0.000000000000000000 ) ) ;
#268 = VERTEX_POINT ( 'NONE', #143 ) ;
#269 = DIRECTION ( 'NONE',  ( -0.000000000000000000, -0.000000000000000000, -1.000000000000000000 ) ) ;
#270 = VERTEX_POINT ( 'NONE', #182 ) ;
#271 = CC_DESIGN_DATE_AND_TIME_ASSIGNMENT ( #262, #461, ( #216 ) ) ;
#272 = FACE_OUTER_BOUND ( 'NONE', #41, .T. ) ;
#273 = ORIENTED_EDGE ( 'NONE', *, *, #394, .F. ) ;
#274 = CC_DESIGN_APPROVAL ( #204, ( #456 ) ) ;
#275 = DIRECTION ( 'NONE',  ( -1.000000000000000000, 0.000000000000000000, 0.000000000000000000 ) ) ;
#276 = ORIENTED_EDGE ( 'NONE', *, *, #67, .F. ) ;
#277 = VECTOR ( 'NONE', #69, 1000.000000000000000 ) ;
#278 = VERTEX_POINT ( 'NONE', #147 ) ;
#279 = EDGE_CURVE ( 'NONE', #305, #315, #115, .T. ) ;
#280 = DIRECTION ( 'NONE',  ( 1.000000000000000000, 0.000000000000000000, 0.000000000000000000 ) ) ;
#281 = EDGE_CURVE ( 'NONE', #161, #402, #416, .T. ) ;
#282 = VECTOR ( 'NONE', #247, 1000.000000000000000 ) ;
#283 = ORIENTED_EDGE ( 'NONE', *, *, #341, .F. ) ;
#284 = FACE_OUTER_BOUND ( 'NONE', #356, .T. ) ;
#285 = AXIS2_PLACEMENT_3D ( 'NONE', #129, #440, #16 ) ;
#286 = CARTESIAN_POINT ( 'NONE',  ( 50.00000000000002842, -75.00000000000004263, 0.000000000000000000 ) ) ;
#287 = EDGE_CURVE ( 'NONE', #101, #397, #470, .T. ) ;
#288 = CARTESIAN_POINT ( 'NONE',  ( 44.00000000000002842, 40.00000000000000000, 0.000000000000000000 ) ) ;
#289 = DIRECTION ( 'NONE',  ( -0.000000000000000000, -0.000000000000000000, -1.000000000000000000 ) ) ;
#290 = APPROVAL_STATUS ( 'not_yet_approved' ) ;
#291 = DIRECTION ( 'NONE',  ( -1.000000000000000000, 0.000000000000000000, 0.000000000000000000 ) ) ;
#292 = VECTOR ( 'NONE', #263, 1000.000000000000000 ) ;
#293 = CARTESIAN_POINT ( 'NONE',  ( 50.00000000000002842, -40.00000000000000000, 0.000000000000000000 ) ) ;
#294 = VECTOR ( 'NONE', #487, 1000.000000000000000 ) ;
#295 = ADVANCED_FACE ( 'NONE', ( #4 ), #231, .F. ) ;
#296 = CALENDAR_DATE ( 2026, 28, 1 ) ;
#297 = DIRECTION ( 'NONE',  ( 0.000000000000000000, -1.000000000000000000, 0.000000000000000000 ) ) ;
#298 = VERTEX_POINT ( 'NONE', #120 ) ;
#299 = DIRECTION ( 'NONE',  ( -0.000000000000000000, -0.000000000000000000, -1.000000000000000000 ) ) ;
#300 = CIRCLE ( 'NONE', #126, 40.00000000000000000 ) ;
#301 = PERSON_AND_ORGANIZATION_ROLE ( 'design_supplier' ) ;
#302 = CARTESIAN_POINT ( 'NONE',  ( -44.00000000000000711, -69.00000000000004263, 0.000000000000000000 ) ) ;
#303 = EDGE_CURVE ( 'NONE', #11, #497, #418, .T. ) ;
#304 = DIRECTION ( 'NONE',  ( -0.000000000000000000, -0.000000000000000000, -1.000000000000000000 ) ) ;
#305 = VERTEX_POINT ( 'NONE', #312 ) ;
#306 = CALENDAR_DATE ( 2026, 28, 1 ) ;
#307 = DIRECTION ( 'NONE',  ( 1.000000000000000000, 0.000000000000000000, 0.000000000000000000 ) ) ;
#308 = ORIENTED_EDGE ( 'NONE', *, *, #119, .T. ) ;
#309 = DIRECTION ( 'NONE',  ( -1.387778780781445676E-16, 1.000000000000000000, 0.000000000000000000 ) ) ;
#310 = ORIENTED_EDGE ( 'NONE', *, *, #443, .T. ) ;
#311 = AXIS2_PLACEMENT_3D ( 'NONE', #255, #180, #35 ) ;
#312 = CARTESIAN_POINT ( 'NONE',  ( 50.00000000000002842, 40.00000000000000000, 0.000000000000000000 ) ) ;
#313 = ORIENTED_EDGE ( 'NONE', *, *, #357, .T. ) ;
#314 = CARTESIAN_POINT ( 'NONE',  ( -44.00000000000000711, 68.99999999999995737, 138.2023151880890168 ) ) ;
#315 = VERTEX_POINT ( 'NONE', #387 ) ;
#316 = CC_DESIGN_PERSON_AND_ORGANIZATION_ASSIGNMENT ( #492, #340, ( #216 ) ) ;
#317 = VECTOR ( 'NONE', #155, 1000.000000000000000 ) ;
#318 = EDGE_CURVE ( 'NONE', #121, #242, #150, .T. ) ;
#319 = ORIENTED_EDGE ( 'NONE', *, *, #478, .T. ) ;
#320 = EDGE_CURVE ( 'NONE', #268, #11, #17, .T. ) ;
#321 = ORIENTED_EDGE ( 'NONE', *, *, #5, .F. ) ;
#322 = DIRECTION ( 'NONE',  ( 0.000000000000000000, -0.000000000000000000, 1.000000000000000000 ) ) ;
#323 = DIRECTION ( 'NONE',  ( 1.000000000000000000, -0.000000000000000000, -0.000000000000000000 ) ) ;
#324 = VECTOR ( 'NONE', #269, 1000.000000000000000 ) ;
#325 = LINE ( 'NONE', #137, #458 ) ;
#326 = EDGE_CURVE ( 'NONE', #245, #278, #75, .T. ) ;
#327 = LINE ( 'NONE', #444, #282 ) ;
#328 = CARTESIAN_POINT ( 'NONE',  ( -49.99999999999999289, 74.99999999999994316, 0.000000000000000000 ) ) ;
#329 = DIRECTION ( 'NONE',  ( 1.000000000000000000, 0.000000000000000000, 0.000000000000000000 ) ) ;
#330 = DIRECTION ( 'NONE',  ( -1.000000000000000000, 0.000000000000000000, 0.000000000000000000 ) ) ;
#331 = LINE ( 'NONE', #496, #61 ) ;
#332 = ADVANCED_FACE ( 'NONE', ( #272 ), #85, .F. ) ;
#333 = VERTEX_POINT ( 'NONE', #42 ) ;
#334 = PERSON_AND_ORGANIZATION ( #224, #84 ) ;
#335 = CARTESIAN_POINT ( 'NONE',  ( -44.00000000000000711, 68.99999999999995737, 138.2023151880890168 ) ) ;
#336 = EDGE_LOOP ( 'NONE', ( #469, #78, #135, #428, #432, #239 ) ) ;
#337 = CARTESIAN_POINT ( 'NONE',  ( -49.99999999999999289, 74.99999999999994316, 138.2023151880890168 ) ) ;
#338 = DIRECTION ( 'NONE',  ( 1.387778780781445676E-16, -1.000000000000000000, 0.000000000000000000 ) ) ;
#339 = ORIENTED_EDGE ( 'NONE', *, *, #5, .T. ) ;
#340 = PERSON_AND_ORGANIZATION_ROLE ( 'classification_officer' ) ;
#341 = EDGE_CURVE ( 'NONE', #242, #101, #77, .T. ) ;
#342 = CARTESIAN_POINT ( 'NONE',  ( -44.00000000000000711, 68.99999999999995737, 138.2023151880890168 ) ) ;
#343 = ORIENTED_EDGE ( 'NONE', *, *, #158, .T. ) ;
#344 = CC_DESIGN_APPROVAL ( #187, ( #264 ) ) ;
#345 = MANIFOLD_SOLID_BREP ( 'Cut-Extrude1', #230 ) ;
#346 = DIRECTION ( 'NONE',  ( -0.000000000000000000, -1.000000000000000000, -0.000000000000000000 ) ) ;
#347 = ORIENTED_EDGE ( 'NONE', *, *, #7, .F. ) ;
#348 = DIRECTION ( 'NONE',  ( -4.625929269271486407E-17, -1.000000000000000000, -0.000000000000000000 ) ) ;
#349 = ORIENTED_EDGE ( 'NONE', *, *, #7, .T. ) ;
#350 = DIRECTION ( 'NONE',  ( 1.000000000000000000, -4.625929269271486407E-17, 0.000000000000000000 ) ) ;
#351 = ORIENTED_EDGE ( 'NONE', *, *, #326, .T. ) ;
#352 = VECTOR ( 'NONE', #38, 1000.000000000000000 ) ;
#353 = DIRECTION ( 'NONE',  ( 1.000000000000000000, 0.000000000000000000, 0.000000000000000000 ) ) ;
#354 = ORIENTED_EDGE ( 'NONE', *, *, #119, .F. ) ;
#355 = CARTESIAN_POINT ( 'NONE',  ( -44.00000000000000711, -69.00000000000004263, 138.2023151880890168 ) ) ;
#356 = EDGE_LOOP ( 'NONE', ( #321, #396, #471, #414, #358, #313, #351, #201 ) ) ;
#357 = EDGE_CURVE ( 'NONE', #298, #245, #47, .T. ) ;
#358 = ORIENTED_EDGE ( 'NONE', *, *, #434, .F. ) ;
#359 = DIRECTION ( 'NONE',  ( -1.000000000000000000, 0.000000000000000000, -0.000000000000000000 ) ) ;
#360 = AXIS2_PLACEMENT_3D ( 'NONE', #335, #297, #452 ) ;
#361 = DIRECTION ( 'NONE',  ( -0.000000000000000000, -0.000000000000000000, -1.000000000000000000 ) ) ;
#362 = LINE ( 'NONE', #152, #437 ) ;
#363 = PRODUCT_DEFINITION_SHAPE ( 'NONE', 'NONE',  #264 ) ;
#364 = CARTESIAN_POINT ( 'NONE',  ( 44.00000000000002132, -69.00000000000004263, 0.000000000000000000 ) ) ;
#365 = LINE ( 'NONE', #337, #385 ) ;
#366 = APPROVAL_PERSON_ORGANIZATION ( #334, #204, #488 ) ;
#367 = ORIENTED_EDGE ( 'NONE', *, *, #357, .F. ) ;
#368 = VECTOR ( 'NONE', #57, 1000.000000000000000 ) ;
#369 = FACE_OUTER_BOUND ( 'NONE', #450, .T. ) ;
#370 = CARTESIAN_POINT ( 'NONE',  ( 50.00000000000002842, -75.00000000000004263, 0.000000000000000000 ) ) ;
#371 = CARTESIAN_POINT ( 'NONE',  ( 44.00000000000002132, -69.00000000000004263, 0.000000000000000000 ) ) ;
#372 = PERSON_AND_ORGANIZATION_ROLE ( 'design_owner' ) ;
#373 = FACE_OUTER_BOUND ( 'NONE', #44, .T. ) ;
#374 = ORIENTED_EDGE ( 'NONE', *, *, #341, .T. ) ;
#375 = DIRECTION ( 'NONE',  ( 0.000000000000000000, 0.000000000000000000, -1.000000000000000000 ) ) ;
#376 = CYLINDRICAL_SURFACE ( 'NONE', #401, 40.00000000000000000 ) ;
#377 = ORIENTED_EDGE ( 'NONE', *, *, #173, .F. ) ;
#378 = SECURITY_CLASSIFICATION_LEVEL ( 'unclassified' ) ;
#379 = EDGE_CURVE ( 'NONE', #74, #156, #362, .T. ) ;
#380 = CARTESIAN_POINT ( 'NONE',  ( 44.00000000000002132, -69.00000000000004263, 138.2023151880890168 ) ) ;
#381 = APPROVAL_STATUS ( 'not_yet_approved' ) ;
#382 = EDGE_CURVE ( 'NONE', #228, #142, #466, .T. ) ;
#383 = LINE ( 'NONE', #141, #475 ) ;
#384 = ORIENTED_EDGE ( 'NONE', *, *, #205, .T. ) ;
#385 = VECTOR ( 'NONE', #441, 1000.000000000000000 ) ;
#386 = DIRECTION ( 'NONE',  ( 0.000000000000000000, 0.000000000000000000, -1.000000000000000000 ) ) ;
#387 = CARTESIAN_POINT ( 'NONE',  ( 50.00000000000000711, 74.99999999999995737, 0.000000000000000000 ) ) ;
#388 = ORIENTED_EDGE ( 'NONE', *, *, #205, .F. ) ;
#389 = DIRECTION ( 'NONE',  ( 4.625929269271486407E-17, 1.000000000000000000, 0.000000000000000000 ) ) ;
#390 = ORIENTED_EDGE ( 'NONE', *, *, #287, .T. ) ;
#391 = AXIS2_PLACEMENT_3D ( 'NONE', #217, #375, #212 ) ;
#392 = CARTESIAN_POINT ( 'NONE',  ( -50.00000000000000000, -75.00000000000004263, 138.2023151880890168 ) ) ;
#393 = ORIENTED_EDGE ( 'NONE', *, *, #382, .T. ) ;
#394 = EDGE_CURVE ( 'NONE', #144, #333, #425, .T. ) ;
#395 = DIRECTION ( 'NONE',  ( 1.000000000000000000, 1.387778780781445676E-16, 0.000000000000000000 ) ) ;
#396 = ORIENTED_EDGE ( 'NONE', *, *, #88, .F. ) ;
#397 = VERTEX_POINT ( 'NONE', #192 ) ;
#398 = CARTESIAN_POINT ( 'NONE',  ( -50.00000000000000000, -40.00000000000000000, 0.000000000000000000 ) ) ;
#399 = CARTESIAN_POINT ( 'NONE',  ( 0.000000000000000000, 0.000000000000000000, 0.000000000000000000 ) ) ;
#400 = PLANE ( 'NONE',  #285 ) ;
#401 = AXIS2_PLACEMENT_3D ( 'NONE', #33, #225, #491 ) ;
#402 = VERTEX_POINT ( 'NONE', #82 ) ;
#403 = CC_DESIGN_PERSON_AND_ORGANIZATION_ASSIGNMENT ( #37, #301, ( #456 ) ) ;
#404 = PERSON_AND_ORGANIZATION ( #224, #84 ) ;
#405 = EDGE_CURVE ( 'NONE', #144, #268, #481, .T. ) ;
#406 = VECTOR ( 'NONE', #484, 1000.000000000000000 ) ;
#407 = CARTESIAN_POINT ( 'NONE',  ( -44.00000000000000711, 68.99999999999995737, 0.000000000000000000 ) ) ;
#408 = DATE_AND_TIME ( #169, #168 ) ;
#409 = LINE ( 'NONE', #106, #93 ) ;
#410 = FACE_OUTER_BOUND ( 'NONE', #453, .T. ) ;
#411 = VECTOR ( 'NONE', #348, 1000.000000000000000 ) ;
#412 = ORIENTED_EDGE ( 'NONE', *, *, #405, .T. ) ;
#413 = PLANE ( 'NONE',  #448 ) ;
#414 = ORIENTED_EDGE ( 'NONE', *, *, #320, .F. ) ;
#415 = ADVANCED_FACE ( 'NONE', ( #189 ), #237, .F. ) ;
#416 = LINE ( 'NONE', #407, #352 ) ;
#417 = APPROVAL_DATE_TIME ( #145, #50 ) ;
#418 = LINE ( 'NONE', #116, #19 ) ;
#419 = ORIENTED_EDGE ( 'NONE', *, *, #65, .T. ) ;
#420 = CC_DESIGN_PERSON_AND_ORGANIZATION_ASSIGNMENT ( #404, #62, ( #264 ) ) ;
#421 = DIRECTION ( 'NONE',  ( 1.000000000000000000, -0.000000000000000000, -0.000000000000000000 ) ) ;
#422 = EDGE_CURVE ( 'NONE', #156, #1, #2, .T. ) ;
#423 = ORIENTED_EDGE ( 'NONE', *, *, #95, .T. ) ;
#424 = SHAPE_DEFINITION_REPRESENTATION ( #363, #46 ) ;
#425 = LINE ( 'NONE', #499, #91 ) ;
#426 = ORIENTED_EDGE ( 'NONE', *, *, #160, .T. ) ;
#427 = CARTESIAN_POINT ( 'NONE',  ( -49.99999999999999289, 74.99999999999994316, 138.2023151880890168 ) ) ;
#428 = ORIENTED_EDGE ( 'NONE', *, *, #493, .F. ) ;
#429 = VECTOR ( 'NONE', #209, 1000.000000000000000 ) ;
#430 = LINE ( 'NONE', #124, #146 ) ;
#431 = EDGE_CURVE ( 'NONE', #397, #121, #157, .T. ) ;
#432 = ORIENTED_EDGE ( 'NONE', *, *, #422, .F. ) ;
#433 = APPLICATION_CONTEXT ( 'configuration controlled 3d designs of mechanical parts and assemblies' ) ;
#434 = EDGE_CURVE ( 'NONE', #298, #268, #430, .T. ) ;
#435 = ORIENTED_EDGE ( 'NONE', *, *, #12, .T. ) ;
#436 = DIRECTION ( 'NONE',  ( 0.000000000000000000, 1.000000000000000000, 0.000000000000000000 ) ) ;
#437 = VECTOR ( 'NONE', #307, 1000.000000000000000 ) ;
#438 = ADVANCED_FACE ( 'NONE', ( #284 ), #134, .T. ) ;
#439 = CARTESIAN_POINT ( 'NONE',  ( -50.00000000000000000, -75.00000000000004263, 138.2023151880890168 ) ) ;
#440 = DIRECTION ( 'NONE',  ( 0.000000000000000000, 0.000000000000000000, -1.000000000000000000 ) ) ;
#441 = DIRECTION ( 'NONE',  ( -1.000000000000000000, -1.387778780781445676E-16, -0.000000000000000000 ) ) ;
#442 = LINE ( 'NONE', #286, #368 ) ;
#443 = EDGE_CURVE ( 'NONE', #228, #74, #327, .T. ) ;
#444 = CARTESIAN_POINT ( 'NONE',  ( -50.00000000000000000, -75.00000000000004263, 138.2023151880890168 ) ) ;
#445 = LOCAL_TIME ( 13, 25, 30.00000000000000000, #25 ) ;
#446 = PLANE ( 'NONE',  #240 ) ;
#447 = DIRECTION ( 'NONE',  ( 1.000000000000000000, 0.000000000000000000, 0.000000000000000000 ) ) ;
#448 = AXIS2_PLACEMENT_3D ( 'NONE', #223, #494, #338 ) ;
#449 = CARTESIAN_POINT ( 'NONE',  ( 44.00000000000002132, -69.00000000000004263, 138.2023151880890168 ) ) ;
#450 = EDGE_LOOP ( 'NONE', ( #310, #232, #10, #104 ) ) ;
#451 = PERSON_AND_ORGANIZATION ( #224, #84 ) ;
#452 = DIRECTION ( 'NONE',  ( 0.000000000000000000, -0.000000000000000000, -1.000000000000000000 ) ) ;
#453 = EDGE_LOOP ( 'NONE', ( #435, #319, #339, #349 ) ) ;
#454 = PERSON_AND_ORGANIZATION_ROLE ( 'creator' ) ;
#455 = FACE_OUTER_BOUND ( 'NONE', #153, .T. ) ;
#456 = PRODUCT_DEFINITION_FORMATION_WITH_SPECIFIED_SOURCE ( 'ANY', '', #203, .NOT_KNOWN. ) ;
#457 = ORIENTED_EDGE ( 'NONE', *, *, #320, .T. ) ;
#458 = VECTOR ( 'NONE', #361, 1000.000000000000000 ) ;
#459 = CARTESIAN_POINT ( 'NONE',  ( 44.00000000000002132, 68.99999999999995737, 0.000000000000000000 ) ) ;
#460 = ORIENTED_EDGE ( 'NONE', *, *, #379, .F. ) ;
#461 = DATE_TIME_ROLE ( 'classification_date' ) ;
#462 = DESIGN_CONTEXT ( 'detailed design', #154, 'design' ) ;
#463 = CARTESIAN_POINT ( 'NONE',  ( -44.00000000000000711, -69.00000000000004263, 138.2023151880890168 ) ) ;
#464 = APPROVAL_ROLE ( '' ) ;
#465 = EDGE_CURVE ( 'NONE', #1, #228, #365, .T. ) ;
#466 = LINE ( 'NONE', #427, #324 ) ;
#467 = ORIENTED_EDGE ( 'NONE', *, *, #281, .T. ) ;
#468 = CARTESIAN_POINT ( 'NONE',  ( -50.00000000000000000, -75.00000000000004263, 0.000000000000000000 ) ) ;
#469 = ORIENTED_EDGE ( 'NONE', *, *, #88, .T. ) ;
#470 = LINE ( 'NONE', #195, #28 ) ;
#471 = ORIENTED_EDGE ( 'NONE', *, *, #303, .F. ) ;
#472 = DIRECTION ( 'NONE',  ( -1.000000000000000000, -0.000000000000000000, -0.000000000000000000 ) ) ;
#473 = ORIENTED_EDGE ( 'NONE', *, *, #493, .T. ) ;
#474 = VERTEX_POINT ( 'NONE', #288 ) ;
#475 = VECTOR ( 'NONE', #304, 1000.000000000000000 ) ;
#476 = LOCAL_TIME ( 13, 25, 30.00000000000000000, #118 ) ;
#477 = FACE_OUTER_BOUND ( 'NONE', #490, .T. ) ;
#478 = EDGE_CURVE ( 'NONE', #305, #123, #300, .T. ) ;
#479 = LINE ( 'NONE', #439, #260 ) ;
#480 = CARTESIAN_POINT ( 'NONE',  ( -50.00000000000000000, 0.000000000000000000, 0.000000000000000000 ) ) ;
#481 = CIRCLE ( 'NONE', #236, 40.00000000000000000 ) ;
#482 = DIRECTION ( 'NONE',  ( 0.000000000000000000, 0.000000000000000000, -1.000000000000000000 ) ) ;
#483 = AXIS2_PLACEMENT_3D ( 'NONE', #55, #280, #165 ) ;
#484 = DIRECTION ( 'NONE',  ( -1.000000000000000000, -1.387778780781445676E-16, -0.000000000000000000 ) ) ;
#485 = ORIENTED_EDGE ( 'NONE', *, *, #158, .F. ) ;
#486 = APPROVAL_STATUS ( 'not_yet_approved' ) ;
#487 = DIRECTION ( 'NONE',  ( -0.000000000000000000, -0.000000000000000000, -1.000000000000000000 ) ) ;
#488 = APPROVAL_ROLE ( '' ) ;
#489 = LINE ( 'NONE', #449, #277 ) ;
#490 = EDGE_LOOP ( 'NONE', ( #273, #181, #193, #125, #113, #261, #467, #426 ) ) ;
#491 = DIRECTION ( 'NONE',  ( 0.000000000000000000, 0.000000000000000000, -1.000000000000000000 ) ) ;
#492 = PERSON_AND_ORGANIZATION ( #224, #84 ) ;
#493 = EDGE_CURVE ( 'NONE', #1, #315, #138, .T. ) ;
#494 = DIRECTION ( 'NONE',  ( -1.000000000000000000, -1.387778780781445676E-16, 0.000000000000000000 ) ) ;
#495 = PERSON_AND_ORGANIZATION ( #224, #84 ) ;
#496 = CARTESIAN_POINT ( 'NONE',  ( 44.00000000000002132, 68.99999999999995737, 138.2023151880890168 ) ) ;
#497 = VERTEX_POINT ( 'NONE', #370 ) ;
#498 = APPROVAL_PERSON_ORGANIZATION ( #495, #50, #464 ) ;
#499 = CARTESIAN_POINT ( 'NONE',  ( -50.00000000000000000, 40.00000000000000000, 0.000000000000000000 ) ) ;
ENDSEC;
END-ISO-10303-21;
