ISO-10303-21;
HEADER;
FILE_DESCRIPTION (( 'STEP AP203' ),
    '1' );
FILE_NAME ('Arm_long_Default_sldprt.STEP',
    '2026-01-28T12:25:32',
    ( '' ),
    ( '' ),
    'SwSTEP 2.0',
    'SolidWorks 2024',
    '' );
FILE_SCHEMA (( 'CONFIG_CONTROL_DESIGN' ));
ENDSEC;

DATA;
#1 = DIRECTION ( 'NONE',  ( 0.000000000000000000, 0.000000000000000000, -1.000000000000000000 ) ) ;
#2 = LINE ( 'NONE', #291, #230 ) ;
#3 = ORIENTED_EDGE ( 'NONE', *, *, #160, .T. ) ;
#4 = AXIS2_PLACEMENT_3D ( 'NONE', #20, #59, #252 ) ;
#5 = ORIENTED_EDGE ( 'NONE', *, *, #61, .T. ) ;
#6 = DIRECTION ( 'NONE',  ( -1.000000000000000000, 0.000000000000000000, -0.000000000000000000 ) ) ;
#7 = CALENDAR_DATE ( 2026, 28, 1 ) ;
#8 = APPROVAL_DATE_TIME ( #75, #158 ) ;
#9 = EDGE_CURVE ( 'NONE', #213, #136, #355, .T. ) ;
#10 = ORIENTED_EDGE ( 'NONE', *, *, #358, .T. ) ;
#11 = CARTESIAN_POINT ( 'NONE',  ( 44.00000000000002132, -69.00000000000004263, 609.4381478495287183 ) ) ;
#12 = VECTOR ( 'NONE', #87, 1000.000000000000000 ) ;
#13 = APPROVAL_ROLE ( '' ) ;
#14 = ORIENTED_EDGE ( 'NONE', *, *, #205, .F. ) ;
#15 = ORIENTED_EDGE ( 'NONE', *, *, #223, .F. ) ;
#16 = PRODUCT_DEFINITION_SHAPE ( 'NONE', 'NONE',  #34 ) ;
#17 = ORIENTED_EDGE ( 'NONE', *, *, #9, .F. ) ;
#18 = AXIS2_PLACEMENT_3D ( 'NONE', #73, #294, #347 ) ;
#19 = ORIENTED_EDGE ( 'NONE', *, *, #344, .F. ) ;
#20 = CARTESIAN_POINT ( 'NONE',  ( -44.00000000000000711, 68.99999999999995737, 609.4381478495287183 ) ) ;
#21 = VERTEX_POINT ( 'NONE', #50 ) ;
#22 = DIRECTION ( 'NONE',  ( -4.625929269271486407E-17, -1.000000000000000000, -0.000000000000000000 ) ) ;
#23 = CARTESIAN_POINT ( 'NONE',  ( 50.00000000000002842, -75.00000000000004263, 609.4381478495287183 ) ) ;
#24 = EDGE_CURVE ( 'NONE', #136, #21, #166, .T. ) ;
#25 = CARTESIAN_POINT ( 'NONE',  ( 0.000000000000000000, 0.000000000000000000, 609.4381478495287183 ) ) ;
#26 = APPROVAL_PERSON_ORGANIZATION ( #240, #107, #40 ) ;
#27 =( NAMED_UNIT ( * ) SI_UNIT ( $, .STERADIAN. ) SOLID_ANGLE_UNIT ( ) );
#28 = EDGE_CURVE ( 'NONE', #136, #125, #58, .T. ) ;
#29 = DIRECTION ( 'NONE',  ( 1.000000000000000000, 0.000000000000000000, 0.000000000000000000 ) ) ;
#30 = DIRECTION ( 'NONE',  ( 0.000000000000000000, 0.000000000000000000, 1.000000000000000000 ) ) ;
#31 = CC_DESIGN_APPROVAL ( #228, ( #34 ) ) ;
#32 = DIRECTION ( 'NONE',  ( -0.000000000000000000, -0.000000000000000000, -1.000000000000000000 ) ) ;
#33 = LINE ( 'NONE', #233, #198 ) ;
#34 = PRODUCT_DEFINITION ( 'UNKNOWN', '', #39, #231 ) ;
#35 = CARTESIAN_POINT ( 'NONE',  ( 0.000000000000000000, 0.000000000000000000, 0.000000000000000000 ) ) ;
#36 = PERSON_AND_ORGANIZATION ( #96, #314 ) ;
#37 = DIRECTION ( 'NONE',  ( -1.387778780781445676E-16, 1.000000000000000000, 0.000000000000000000 ) ) ;
#38 = CC_DESIGN_APPROVAL ( #107, ( #39 ) ) ;
#39 = PRODUCT_DEFINITION_FORMATION_WITH_SPECIFIED_SOURCE ( 'ANY', '', #280, .NOT_KNOWN. ) ;
#40 = APPROVAL_ROLE ( '' ) ;
#41 = CARTESIAN_POINT ( 'NONE',  ( 44.00000000000002132, 68.99999999999995737, 0.000000000000000000 ) ) ;
#42 = EDGE_CURVE ( 'NONE', #335, #131, #139, .T. ) ;
#43 = CC_DESIGN_PERSON_AND_ORGANIZATION_ASSIGNMENT ( #272, #277, ( #127 ) ) ;
#44 = PERSON_AND_ORGANIZATION_ROLE ( 'creator' ) ;
#45 = CARTESIAN_POINT ( 'NONE',  ( -44.00000000000000711, -69.00000000000004263, 0.000000000000000000 ) ) ;
#46 = COORDINATED_UNIVERSAL_TIME_OFFSET ( 1, 0, .AHEAD. ) ;
#47 = ORIENTED_EDGE ( 'NONE', *, *, #269, .F. ) ;
#48 = PERSON_AND_ORGANIZATION_ROLE ( 'design_owner' ) ;
#49 = EDGE_LOOP ( 'NONE', ( #97, #245, #17, #251 ) ) ;
#50 = CARTESIAN_POINT ( 'NONE',  ( -44.00000000000000711, 68.99999999999995737, 609.4381478495287183 ) ) ;
#51 = VERTEX_POINT ( 'NONE', #173 ) ;
#52 = CARTESIAN_POINT ( 'NONE',  ( 44.00000000000002132, -69.00000000000004263, 0.000000000000000000 ) ) ;
#53 = VECTOR ( 'NONE', #285, 1000.000000000000000 ) ;
#54 = EDGE_LOOP ( 'NONE', ( #19, #311, #103, #81 ) ) ;
#55 = DIRECTION ( 'NONE',  ( -1.000000000000000000, -0.000000000000000000, -0.000000000000000000 ) ) ;
#56 = EDGE_CURVE ( 'NONE', #326, #76, #225, .T. ) ;
#57 = CC_DESIGN_PERSON_AND_ORGANIZATION_ASSIGNMENT ( #238, #242, ( #39 ) ) ;
#58 = LINE ( 'NONE', #255, #66 ) ;
#59 = DIRECTION ( 'NONE',  ( 0.000000000000000000, -1.000000000000000000, 0.000000000000000000 ) ) ;
#60 = DIRECTION ( 'NONE',  ( -0.000000000000000000, -0.000000000000000000, -1.000000000000000000 ) ) ;
#61 = EDGE_CURVE ( 'NONE', #363, #131, #340, .T. ) ;
#62 = VECTOR ( 'NONE', #191, 1000.000000000000000 ) ;
#63 = PERSON_AND_ORGANIZATION ( #96, #314 ) ;
#64 = CARTESIAN_POINT ( 'NONE',  ( -49.99999999999999289, 74.99999999999994316, 0.000000000000000000 ) ) ;
#65 = LINE ( 'NONE', #370, #116 ) ;
#66 = VECTOR ( 'NONE', #364, 1000.000000000000000 ) ;
#67 = ADVANCED_BREP_SHAPE_REPRESENTATION ( 'Arm_long_Default_sldprt', ( #202, #250 ), #95 ) ;
#68 = ADVANCED_FACE ( 'NONE', ( #296, #94 ), #348, .T. ) ;
#69 = CARTESIAN_POINT ( 'NONE',  ( -49.99999999999999289, 74.99999999999994316, 609.4381478495287183 ) ) ;
#70 = DIRECTION ( 'NONE',  ( 0.000000000000000000, 0.000000000000000000, 1.000000000000000000 ) ) ;
#71 = COORDINATED_UNIVERSAL_TIME_OFFSET ( 1, 0, .AHEAD. ) ;
#72 = VERTEX_POINT ( 'NONE', #189 ) ;
#73 = CARTESIAN_POINT ( 'NONE',  ( -44.00000000000000711, -69.00000000000004263, 609.4381478495287183 ) ) ;
#74 = DATE_AND_TIME ( #246, #237 ) ;
#75 = DATE_AND_TIME ( #7, #323 ) ;
#76 = VERTEX_POINT ( 'NONE', #304 ) ;
#77 = LOCAL_TIME ( 13, 25, 32.00000000000000000, #92 ) ;
#78 = ORIENTED_EDGE ( 'NONE', *, *, #354, .T. ) ;
#79 = ORIENTED_EDGE ( 'NONE', *, *, #336, .F. ) ;
#80 = LINE ( 'NONE', #200, #299 ) ;
#81 = ORIENTED_EDGE ( 'NONE', *, *, #129, .T. ) ;
#82 = ADVANCED_FACE ( 'NONE', ( #212 ), #268, .T. ) ;
#83 = VERTEX_POINT ( 'NONE', #45 ) ;
#84 = PLANE ( 'NONE',  #182 ) ;
#85 = LINE ( 'NONE', #288, #322 ) ;
#86 = DIRECTION ( 'NONE',  ( -1.000000000000000000, 0.000000000000000000, -0.000000000000000000 ) ) ;
#87 = DIRECTION ( 'NONE',  ( 1.000000000000000000, 0.000000000000000000, 0.000000000000000000 ) ) ;
#88 = VECTOR ( 'NONE', #315, 1000.000000000000000 ) ;
#89 = EDGE_CURVE ( 'NONE', #326, #253, #91, .T. ) ;
#90 = LINE ( 'NONE', #184, #309 ) ;
#91 = LINE ( 'NONE', #157, #339 ) ;
#92 = COORDINATED_UNIVERSAL_TIME_OFFSET ( 1, 0, .AHEAD. ) ;
#93 = CC_DESIGN_PERSON_AND_ORGANIZATION_ASSIGNMENT ( #36, #44, ( #34 ) ) ;
#94 = FACE_BOUND ( 'NONE', #170, .T. ) ;
#95 =( GEOMETRIC_REPRESENTATION_CONTEXT ( 3 ) GLOBAL_UNCERTAINTY_ASSIGNED_CONTEXT ( ( #316 ) ) GLOBAL_UNIT_ASSIGNED_CONTEXT ( ( #236, #292, #27 ) ) REPRESENTATION_CONTEXT ( 'NONE', 'WORKASPACE' ) );
#96 = PERSON ( 'UNSPECIFIED', 'UNSPECIFIED', 'UNSPECIFIED', ('UNSPECIFIED'), ('UNSPECIFIED'), ('UNSPECIFIED') ) ;
#97 = ORIENTED_EDGE ( 'NONE', *, *, #118, .F. ) ;
#98 = LINE ( 'NONE', #271, #366 ) ;
#99 = EDGE_LOOP ( 'NONE', ( #218, #329, #187, #10 ) ) ;
#100 = EDGE_CURVE ( 'NONE', #51, #213, #274, .T. ) ;
#101 = CARTESIAN_POINT ( 'NONE',  ( 44.00000000000002132, -69.00000000000004263, 609.4381478495287183 ) ) ;
#102 = AXIS2_PLACEMENT_3D ( 'NONE', #25, #141, #86 ) ;
#103 = ORIENTED_EDGE ( 'NONE', *, *, #100, .T. ) ;
#104 = PLANE ( 'NONE',  #371 ) ;
#105 = VERTEX_POINT ( 'NONE', #351 ) ;
#106 = ADVANCED_FACE ( 'NONE', ( #209 ), #330, .T. ) ;
#107 = APPROVAL ( #350, 'UNSPECIFIED' ) ;
#108 = ORIENTED_EDGE ( 'NONE', *, *, #28, .F. ) ;
#109 = DIRECTION ( 'NONE',  ( 1.387778780781445922E-16, -1.000000000000000000, 0.000000000000000000 ) ) ;
#110 = VECTOR ( 'NONE', #286, 1000.000000000000000 ) ;
#111 = CARTESIAN_POINT ( 'NONE',  ( -50.00000000000000000, -75.00000000000004263, 609.4381478495287183 ) ) ;
#112 = DIRECTION ( 'NONE',  ( 0.000000000000000000, 1.000000000000000000, 0.000000000000000000 ) ) ;
#113 = PLANE ( 'NONE',  #4 ) ;
#114 = DIRECTION ( 'NONE',  ( 0.000000000000000000, -0.000000000000000000, 1.000000000000000000 ) ) ;
#115 = MECHANICAL_CONTEXT ( 'NONE', #172, 'mechanical' ) ;
#116 = VECTOR ( 'NONE', #372, 1000.000000000000000 ) ;
#117 = CARTESIAN_POINT ( 'NONE',  ( -44.00000000000000711, -69.00000000000004263, 0.000000000000000000 ) ) ;
#118 = EDGE_CURVE ( 'NONE', #21, #51, #98, .T. ) ;
#119 = LINE ( 'NONE', #69, #121 ) ;
#120 = CARTESIAN_POINT ( 'NONE',  ( -44.00000000000000711, -69.00000000000004263, 609.4381478495287183 ) ) ;
#121 = VECTOR ( 'NONE', #290, 1000.000000000000000 ) ;
#122 = APPROVAL_STATUS ( 'not_yet_approved' ) ;
#123 = APPROVAL_ROLE ( '' ) ;
#124 = LINE ( 'NONE', #126, #163 ) ;
#125 = VERTEX_POINT ( 'NONE', #41 ) ;
#126 = CARTESIAN_POINT ( 'NONE',  ( -44.00000000000000711, -69.00000000000004263, 609.4381478495287183 ) ) ;
#127 = SECURITY_CLASSIFICATION ( '', '', #356 ) ;
#128 = EDGE_LOOP ( 'NONE', ( #47, #151, #248, #222 ) ) ;
#129 = EDGE_CURVE ( 'NONE', #213, #72, #298, .T. ) ;
#130 = CALENDAR_DATE ( 2026, 28, 1 ) ;
#131 = VERTEX_POINT ( 'NONE', #153 ) ;
#132 = EDGE_LOOP ( 'NONE', ( #284, #301, #333, #337 ) ) ;
#133 = FACE_OUTER_BOUND ( 'NONE', #128, .T. ) ;
#134 = APPROVAL_PERSON_ORGANIZATION ( #156, #228, #123 ) ;
#135 = EDGE_CURVE ( 'NONE', #51, #83, #124, .T. ) ;
#136 = VERTEX_POINT ( 'NONE', #183 ) ;
#137 = EDGE_LOOP ( 'NONE', ( #216, #79, #15, #221 ) ) ;
#138 = CARTESIAN_POINT ( 'NONE',  ( -49.99999999999999289, 74.99999999999994316, 609.4381478495287183 ) ) ;
#139 = LINE ( 'NONE', #111, #88 ) ;
#140 = AXIS2_PLACEMENT_3D ( 'NONE', #180, #343, #114 ) ;
#141 = DIRECTION ( 'NONE',  ( 0.000000000000000000, 0.000000000000000000, -1.000000000000000000 ) ) ;
#142 = CARTESIAN_POINT ( 'NONE',  ( -49.99999999999999289, 74.99999999999994316, 609.4381478495287183 ) ) ;
#143 = DIRECTION ( 'NONE',  ( -0.000000000000000000, -1.000000000000000000, -0.000000000000000000 ) ) ;
#144 = CARTESIAN_POINT ( 'NONE',  ( 50.00000000000000711, 74.99999999999995737, 0.000000000000000000 ) ) ;
#145 = LOCAL_TIME ( 13, 25, 32.00000000000000000, #71 ) ;
#146 = CC_DESIGN_APPROVAL ( #158, ( #127 ) ) ;
#147 = CARTESIAN_POINT ( 'NONE',  ( 50.00000000000000711, 74.99999999999995737, 609.4381478495287183 ) ) ;
#148 = ORIENTED_EDGE ( 'NONE', *, *, #42, .F. ) ;
#149 = DIRECTION ( 'NONE',  ( 1.000000000000000000, 0.000000000000000000, 0.000000000000000000 ) ) ;
#150 = COORDINATED_UNIVERSAL_TIME_OFFSET ( 1, 0, .AHEAD. ) ;
#151 = ORIENTED_EDGE ( 'NONE', *, *, #307, .F. ) ;
#152 = VECTOR ( 'NONE', #60, 1000.000000000000000 ) ;
#153 = CARTESIAN_POINT ( 'NONE',  ( -50.00000000000000000, -75.00000000000004263, 0.000000000000000000 ) ) ;
#154 = PERSON_AND_ORGANIZATION ( #96, #314 ) ;
#155 = DIRECTION ( 'NONE',  ( -4.625929269271486407E-17, -1.000000000000000000, -0.000000000000000000 ) ) ;
#156 = PERSON_AND_ORGANIZATION ( #96, #314 ) ;
#157 = CARTESIAN_POINT ( 'NONE',  ( 50.00000000000002842, -75.00000000000004263, 609.4381478495287183 ) ) ;
#158 = APPROVAL ( #266, 'UNSPECIFIED' ) ;
#159 = DATE_TIME_ROLE ( 'creation_date' ) ;
#160 = EDGE_CURVE ( 'NONE', #125, #105, #85, .T. ) ;
#161 = CC_DESIGN_DATE_AND_TIME_ASSIGNMENT ( #215, #159, ( #34 ) ) ;
#162 = EDGE_LOOP ( 'NONE', ( #5, #148, #338, #279 ) ) ;
#163 = VECTOR ( 'NONE', #214, 1000.000000000000000 ) ;
#164 = PERSON_AND_ORGANIZATION_ROLE ( 'design_supplier' ) ;
#165 = EDGE_LOOP ( 'NONE', ( #192, #108, #276, #243 ) ) ;
#166 = LINE ( 'NONE', #219, #188 ) ;
#167 = ORIENTED_EDGE ( 'NONE', *, *, #321, .F. ) ;
#168 = DIRECTION ( 'NONE',  ( 1.000000000000000000, 1.387778780781445922E-16, 0.000000000000000000 ) ) ;
#169 = VECTOR ( 'NONE', #155, 1000.000000000000000 ) ;
#170 = EDGE_LOOP ( 'NONE', ( #3, #281, #361, #312 ) ) ;
#171 = LINE ( 'NONE', #362, #53 ) ;
#172 = APPLICATION_CONTEXT ( 'configuration controlled 3d designs of mechanical parts and assemblies' ) ;
#173 = CARTESIAN_POINT ( 'NONE',  ( -44.00000000000000711, -69.00000000000004263, 609.4381478495287183 ) ) ;
#174 = PLANE ( 'NONE',  #352 ) ;
#175 = CC_DESIGN_PERSON_AND_ORGANIZATION_ASSIGNMENT ( #63, #48, ( #280 ) ) ;
#176 = FACE_BOUND ( 'NONE', #49, .T. ) ;
#177 = CARTESIAN_POINT ( 'NONE',  ( -50.00000000000000000, -75.00000000000004263, 609.4381478495287183 ) ) ;
#178 = ADVANCED_FACE ( 'NONE', ( #197 ), #113, .T. ) ;
#179 = CC_DESIGN_PERSON_AND_ORGANIZATION_ASSIGNMENT ( #154, #164, ( #39 ) ) ;
#180 = CARTESIAN_POINT ( 'NONE',  ( -50.00000000000000000, -75.00000000000004263, 609.4381478495287183 ) ) ;
#181 = CARTESIAN_POINT ( 'NONE',  ( 0.000000000000000000, 0.000000000000000000, 0.000000000000000000 ) ) ;
#182 = AXIS2_PLACEMENT_3D ( 'NONE', #138, #109, #168 ) ;
#183 = CARTESIAN_POINT ( 'NONE',  ( 44.00000000000002132, 68.99999999999995737, 609.4381478495287183 ) ) ;
#184 = CARTESIAN_POINT ( 'NONE',  ( -44.00000000000000711, 68.99999999999995737, 609.4381478495287183 ) ) ;
#185 = DIRECTION ( 'NONE',  ( -0.000000000000000000, -1.000000000000000000, -0.000000000000000000 ) ) ;
#186 = CALENDAR_DATE ( 2026, 28, 1 ) ;
#187 = ORIENTED_EDGE ( 'NONE', *, *, #354, .F. ) ;
#188 = VECTOR ( 'NONE', #193, 1000.000000000000000 ) ;
#189 = CARTESIAN_POINT ( 'NONE',  ( 44.00000000000002132, -69.00000000000004263, 0.000000000000000000 ) ) ;
#190 = EDGE_CURVE ( 'NONE', #305, #363, #313, .T. ) ;
#191 = DIRECTION ( 'NONE',  ( 0.000000000000000000, 1.000000000000000000, 0.000000000000000000 ) ) ;
#192 = ORIENTED_EDGE ( 'NONE', *, *, #160, .F. ) ;
#193 = DIRECTION ( 'NONE',  ( -1.000000000000000000, -0.000000000000000000, -0.000000000000000000 ) ) ;
#194 = DIRECTION ( 'NONE',  ( 1.000000000000000000, 0.000000000000000000, 0.000000000000000000 ) ) ;
#195 = APPLICATION_CONTEXT ( 'configuration controlled 3d designs of mechanical parts and assemblies' ) ;
#196 = ORIENTED_EDGE ( 'NONE', *, *, #369, .T. ) ;
#197 = FACE_OUTER_BOUND ( 'NONE', #165, .T. ) ;
#198 = VECTOR ( 'NONE', #324, 1000.000000000000000 ) ;
#199 = CARTESIAN_POINT ( 'NONE',  ( -50.00000000000000000, -75.00000000000004263, 0.000000000000000000 ) ) ;
#200 = CARTESIAN_POINT ( 'NONE',  ( -50.00000000000000000, -75.00000000000004263, 609.4381478495287183 ) ) ;
#201 = ADVANCED_FACE ( 'NONE', ( #258 ), #84, .F. ) ;
#202 = MANIFOLD_SOLID_BREP ( 'Boss-Extrude1', #282 ) ;
#203 = LINE ( 'NONE', #52, #360 ) ;
#204 = FACE_OUTER_BOUND ( 'NONE', #247, .T. ) ;
#205 = EDGE_CURVE ( 'NONE', #72, #125, #203, .T. ) ;
#206 = APPLICATION_PROTOCOL_DEFINITION ( 'international standard', 'config_control_design', 1994, #172 ) ;
#207 = CARTESIAN_POINT ( 'NONE',  ( -44.00000000000000711, -69.00000000000004263, 0.000000000000000000 ) ) ;
#208 = CC_DESIGN_SECURITY_CLASSIFICATION ( #127, ( #39 ) ) ;
#209 = FACE_OUTER_BOUND ( 'NONE', #264, .T. ) ;
#210 = CC_DESIGN_DATE_AND_TIME_ASSIGNMENT ( #275, #244, ( #127 ) ) ;
#211 = VECTOR ( 'NONE', #143, 1000.000000000000000 ) ;
#212 = FACE_OUTER_BOUND ( 'NONE', #54, .T. ) ;
#213 = VERTEX_POINT ( 'NONE', #287 ) ;
#214 = DIRECTION ( 'NONE',  ( -0.000000000000000000, -0.000000000000000000, -1.000000000000000000 ) ) ;
#215 = DATE_AND_TIME ( #130, #293 ) ;
#216 = ORIENTED_EDGE ( 'NONE', *, *, #61, .F. ) ;
#217 = APPLICATION_PROTOCOL_DEFINITION ( 'international standard', 'config_control_design', 1994, #195 ) ;
#218 = ORIENTED_EDGE ( 'NONE', *, *, #336, .T. ) ;
#219 = CARTESIAN_POINT ( 'NONE',  ( -44.00000000000000711, 68.99999999999995737, 609.4381478495287183 ) ) ;
#220 = CARTESIAN_POINT ( 'NONE',  ( -44.00000000000000711, -69.00000000000004263, 609.4381478495287183 ) ) ;
#221 = ORIENTED_EDGE ( 'NONE', *, *, #369, .F. ) ;
#222 = ORIENTED_EDGE ( 'NONE', *, *, #135, .T. ) ;
#223 = EDGE_CURVE ( 'NONE', #76, #332, #171, .T. ) ;
#224 = AXIS2_PLACEMENT_3D ( 'NONE', #302, #235, #70 ) ;
#225 = LINE ( 'NONE', #23, #110 ) ;
#226 = CARTESIAN_POINT ( 'NONE',  ( 50.00000000000000711, 74.99999999999995737, 609.4381478495287183 ) ) ;
#227 = CARTESIAN_POINT ( 'NONE',  ( 50.00000000000002842, -75.00000000000004263, 609.4381478495287183 ) ) ;
#228 = APPROVAL ( #122, 'UNSPECIFIED' ) ;
#229 = DIRECTION ( 'NONE',  ( 0.000000000000000000, 0.000000000000000000, -1.000000000000000000 ) ) ;
#230 = VECTOR ( 'NONE', #29, 1000.000000000000000 ) ;
#231 = DESIGN_CONTEXT ( 'detailed design', #195, 'design' ) ;
#232 = LINE ( 'NONE', #147, #319 ) ;
#233 = CARTESIAN_POINT ( 'NONE',  ( -49.99999999999999289, 74.99999999999994316, 0.000000000000000000 ) ) ;
#234 = EDGE_CURVE ( 'NONE', #305, #335, #80, .T. ) ;
#235 = DIRECTION ( 'NONE',  ( -1.000000000000000000, 0.000000000000000000, 0.000000000000000000 ) ) ;
#236 =( LENGTH_UNIT ( ) NAMED_UNIT ( * ) SI_UNIT ( .MILLI., .METRE. ) );
#237 = LOCAL_TIME ( 13, 25, 32.00000000000000000, #46 ) ;
#238 = PERSON_AND_ORGANIZATION ( #96, #314 ) ;
#239 = ORIENTED_EDGE ( 'NONE', *, *, #129, .F. ) ;
#240 = PERSON_AND_ORGANIZATION ( #96, #314 ) ;
#241 = ADVANCED_FACE ( 'NONE', ( #317 ), #174, .F. ) ;
#242 = PERSON_AND_ORGANIZATION_ROLE ( 'creator' ) ;
#243 = ORIENTED_EDGE ( 'NONE', *, *, #307, .T. ) ;
#244 = DATE_TIME_ROLE ( 'classification_date' ) ;
#245 = ORIENTED_EDGE ( 'NONE', *, *, #24, .F. ) ;
#246 = CALENDAR_DATE ( 2026, 28, 1 ) ;
#247 = EDGE_LOOP ( 'NONE', ( #196, #346, #167, #308 ) ) ;
#248 = ORIENTED_EDGE ( 'NONE', *, *, #118, .T. ) ;
#249 = CARTESIAN_POINT ( 'NONE',  ( -49.99999999999999289, 74.99999999999994316, 609.4381478495287183 ) ) ;
#250 = AXIS2_PLACEMENT_3D ( 'NONE', #181, #30, #260 ) ;
#251 = ORIENTED_EDGE ( 'NONE', *, *, #100, .F. ) ;
#252 = DIRECTION ( 'NONE',  ( 0.000000000000000000, -0.000000000000000000, -1.000000000000000000 ) ) ;
#253 = VERTEX_POINT ( 'NONE', #226 ) ;
#254 = ADVANCED_FACE ( 'NONE', ( #341, #176 ), #318, .F. ) ;
#255 = CARTESIAN_POINT ( 'NONE',  ( 44.00000000000002132, 68.99999999999995737, 609.4381478495287183 ) ) ;
#256 = DIRECTION ( 'NONE',  ( -1.000000000000000000, -1.387778780781445922E-16, 0.000000000000000000 ) ) ;
#257 = AXIS2_PLACEMENT_3D ( 'NONE', #177, #368, #373 ) ;
#258 = FACE_OUTER_BOUND ( 'NONE', #99, .T. ) ;
#259 = PLANE ( 'NONE',  #257 ) ;
#260 = DIRECTION ( 'NONE',  ( 1.000000000000000000, 0.000000000000000000, 0.000000000000000000 ) ) ;
#261 = CARTESIAN_POINT ( 'NONE',  ( 50.00000000000002842, -75.00000000000004263, 609.4381478495287183 ) ) ;
#262 = ADVANCED_FACE ( 'NONE', ( #133 ), #104, .T. ) ;
#263 = PLANE ( 'NONE',  #140 ) ;
#264 = EDGE_LOOP ( 'NONE', ( #14, #239, #278, #273 ) ) ;
#265 = DIRECTION ( 'NONE',  ( -0.000000000000000000, -0.000000000000000000, -1.000000000000000000 ) ) ;
#266 = APPROVAL_STATUS ( 'not_yet_approved' ) ;
#267 = VECTOR ( 'NONE', #265, 1000.000000000000000 ) ;
#268 = PLANE ( 'NONE',  #18 ) ;
#269 = EDGE_CURVE ( 'NONE', #105, #83, #342, .T. ) ;
#270 = COORDINATED_UNIVERSAL_TIME_OFFSET ( 1, 0, .AHEAD. ) ;
#271 = CARTESIAN_POINT ( 'NONE',  ( -44.00000000000000711, -69.00000000000004263, 609.4381478495287183 ) ) ;
#272 = PERSON_AND_ORGANIZATION ( #96, #314 ) ;
#273 = ORIENTED_EDGE ( 'NONE', *, *, #28, .T. ) ;
#274 = LINE ( 'NONE', #120, #289 ) ;
#275 = DATE_AND_TIME ( #331, #77 ) ;
#276 = ORIENTED_EDGE ( 'NONE', *, *, #24, .T. ) ;
#277 = PERSON_AND_ORGANIZATION_ROLE ( 'classification_officer' ) ;
#278 = ORIENTED_EDGE ( 'NONE', *, *, #9, .T. ) ;
#279 = ORIENTED_EDGE ( 'NONE', *, *, #190, .T. ) ;
#280 = PRODUCT ( 'Arm_long_Default_sldprt', 'Arm_long_Default_sldprt', '', ( #115 ) ) ;
#281 = ORIENTED_EDGE ( 'NONE', *, *, #269, .T. ) ;
#282 = CLOSED_SHELL ( 'NONE', ( #254, #68, #297, #367, #241, #201, #262, #82, #106, #178 ) ) ;
#283 = PRODUCT_RELATED_PRODUCT_CATEGORY ( 'detail', '', ( #280 ) ) ;
#284 = ORIENTED_EDGE ( 'NONE', *, *, #223, .T. ) ;
#285 = DIRECTION ( 'NONE',  ( -1.387778780781445676E-16, 1.000000000000000000, 0.000000000000000000 ) ) ;
#286 = DIRECTION ( 'NONE',  ( -0.000000000000000000, -0.000000000000000000, -1.000000000000000000 ) ) ;
#287 = CARTESIAN_POINT ( 'NONE',  ( 44.00000000000002132, -69.00000000000004263, 609.4381478495287183 ) ) ;
#288 = CARTESIAN_POINT ( 'NONE',  ( -44.00000000000000711, 68.99999999999995737, 0.000000000000000000 ) ) ;
#289 = VECTOR ( 'NONE', #149, 1000.000000000000000 ) ;
#290 = DIRECTION ( 'NONE',  ( -1.000000000000000000, -1.387778780781445676E-16, -0.000000000000000000 ) ) ;
#291 = CARTESIAN_POINT ( 'NONE',  ( -50.00000000000000000, -75.00000000000004263, 0.000000000000000000 ) ) ;
#292 =( NAMED_UNIT ( * ) PLANE_ANGLE_UNIT ( ) SI_UNIT ( $, .RADIAN. ) );
#293 = LOCAL_TIME ( 13, 25, 32.00000000000000000, #150 ) ;
#294 = DIRECTION ( 'NONE',  ( 0.000000000000000000, 1.000000000000000000, 0.000000000000000000 ) ) ;
#295 = CARTESIAN_POINT ( 'NONE',  ( -50.00000000000000000, -75.00000000000004263, 609.4381478495287183 ) ) ;
#296 = FACE_OUTER_BOUND ( 'NONE', #137, .T. ) ;
#297 = ADVANCED_FACE ( 'NONE', ( #345 ), #259, .F. ) ;
#298 = LINE ( 'NONE', #11, #267 ) ;
#299 = VECTOR ( 'NONE', #22, 1000.000000000000000 ) ;
#300 = APPROVAL_DATE_TIME ( #306, #228 ) ;
#301 = ORIENTED_EDGE ( 'NONE', *, *, #358, .F. ) ;
#302 = CARTESIAN_POINT ( 'NONE',  ( 44.00000000000002132, -69.00000000000004263, 609.4381478495287183 ) ) ;
#303 = SHAPE_DEFINITION_REPRESENTATION ( #16, #67 ) ;
#304 = CARTESIAN_POINT ( 'NONE',  ( 50.00000000000002842, -75.00000000000004263, 0.000000000000000000 ) ) ;
#305 = VERTEX_POINT ( 'NONE', #142 ) ;
#306 = DATE_AND_TIME ( #186, #145 ) ;
#307 = EDGE_CURVE ( 'NONE', #21, #105, #90, .T. ) ;
#308 = ORIENTED_EDGE ( 'NONE', *, *, #42, .T. ) ;
#309 = VECTOR ( 'NONE', #320, 1000.000000000000000 ) ;
#310 = ORIENTED_EDGE ( 'NONE', *, *, #234, .T. ) ;
#311 = ORIENTED_EDGE ( 'NONE', *, *, #135, .F. ) ;
#312 = ORIENTED_EDGE ( 'NONE', *, *, #205, .T. ) ;
#313 = LINE ( 'NONE', #249, #152 ) ;
#314 = ORGANIZATION ( 'UNSPECIFIED', 'UNSPECIFIED', '' ) ;
#315 = DIRECTION ( 'NONE',  ( -0.000000000000000000, -0.000000000000000000, -1.000000000000000000 ) ) ;
#316 = UNCERTAINTY_MEASURE_WITH_UNIT (LENGTH_MEASURE( 1.000000000000000082E-05 ), #236, 'distance_accuracy_value', 'NONE');
#317 = FACE_OUTER_BOUND ( 'NONE', #132, .T. ) ;
#318 = PLANE ( 'NONE',  #102 ) ;
#319 = VECTOR ( 'NONE', #32, 1000.000000000000000 ) ;
#320 = DIRECTION ( 'NONE',  ( -0.000000000000000000, -0.000000000000000000, -1.000000000000000000 ) ) ;
#321 = EDGE_CURVE ( 'NONE', #335, #326, #65, .T. ) ;
#322 = VECTOR ( 'NONE', #55, 1000.000000000000000 ) ;
#323 = LOCAL_TIME ( 13, 25, 32.00000000000000000, #270 ) ;
#324 = DIRECTION ( 'NONE',  ( -1.000000000000000000, -1.387778780781445676E-16, -0.000000000000000000 ) ) ;
#325 = LINE ( 'NONE', #117, #12 ) ;
#326 = VERTEX_POINT ( 'NONE', #261 ) ;
#327 = AXIS2_PLACEMENT_3D ( 'NONE', #35, #1, #6 ) ;
#328 = APPROVAL_DATE_TIME ( #74, #107 ) ;
#329 = ORIENTED_EDGE ( 'NONE', *, *, #190, .F. ) ;
#330 = PLANE ( 'NONE',  #224 ) ;
#331 = CALENDAR_DATE ( 2026, 28, 1 ) ;
#332 = VERTEX_POINT ( 'NONE', #144 ) ;
#333 = ORIENTED_EDGE ( 'NONE', *, *, #89, .F. ) ;
#334 = APPROVAL_PERSON_ORGANIZATION ( #349, #158, #13 ) ;
#335 = VERTEX_POINT ( 'NONE', #295 ) ;
#336 = EDGE_CURVE ( 'NONE', #332, #363, #33, .T. ) ;
#337 = ORIENTED_EDGE ( 'NONE', *, *, #56, .T. ) ;
#338 = ORIENTED_EDGE ( 'NONE', *, *, #234, .F. ) ;
#339 = VECTOR ( 'NONE', #37, 1000.000000000000000 ) ;
#340 = LINE ( 'NONE', #199, #169 ) ;
#341 = FACE_OUTER_BOUND ( 'NONE', #359, .T. ) ;
#342 = LINE ( 'NONE', #207, #211 ) ;
#343 = DIRECTION ( 'NONE',  ( 0.000000000000000000, 1.000000000000000000, 0.000000000000000000 ) ) ;
#344 = EDGE_CURVE ( 'NONE', #83, #72, #325, .T. ) ;
#345 = FACE_OUTER_BOUND ( 'NONE', #162, .T. ) ;
#346 = ORIENTED_EDGE ( 'NONE', *, *, #56, .F. ) ;
#347 = DIRECTION ( 'NONE',  ( 0.000000000000000000, -0.000000000000000000, 1.000000000000000000 ) ) ;
#348 = PLANE ( 'NONE',  #327 ) ;
#349 = PERSON_AND_ORGANIZATION ( #96, #314 ) ;
#350 = APPROVAL_STATUS ( 'not_yet_approved' ) ;
#351 = CARTESIAN_POINT ( 'NONE',  ( -44.00000000000000711, 68.99999999999995737, 0.000000000000000000 ) ) ;
#352 = AXIS2_PLACEMENT_3D ( 'NONE', #227, #256, #365 ) ;
#353 = ORIENTED_EDGE ( 'NONE', *, *, #89, .T. ) ;
#354 = EDGE_CURVE ( 'NONE', #253, #305, #119, .T. ) ;
#355 = LINE ( 'NONE', #101, #62 ) ;
#356 = SECURITY_CLASSIFICATION_LEVEL ( 'unclassified' ) ;
#357 = ORIENTED_EDGE ( 'NONE', *, *, #321, .T. ) ;
#358 = EDGE_CURVE ( 'NONE', #253, #332, #232, .T. ) ;
#359 = EDGE_LOOP ( 'NONE', ( #310, #357, #353, #78 ) ) ;
#360 = VECTOR ( 'NONE', #112, 1000.000000000000000 ) ;
#361 = ORIENTED_EDGE ( 'NONE', *, *, #344, .T. ) ;
#362 = CARTESIAN_POINT ( 'NONE',  ( 50.00000000000002842, -75.00000000000004263, 0.000000000000000000 ) ) ;
#363 = VERTEX_POINT ( 'NONE', #64 ) ;
#364 = DIRECTION ( 'NONE',  ( -0.000000000000000000, -0.000000000000000000, -1.000000000000000000 ) ) ;
#365 = DIRECTION ( 'NONE',  ( 1.387778780781445922E-16, -1.000000000000000000, 0.000000000000000000 ) ) ;
#366 = VECTOR ( 'NONE', #185, 1000.000000000000000 ) ;
#367 = ADVANCED_FACE ( 'NONE', ( #204 ), #263, .F. ) ;
#368 = DIRECTION ( 'NONE',  ( 1.000000000000000000, -4.625929269271487023E-17, 0.000000000000000000 ) ) ;
#369 = EDGE_CURVE ( 'NONE', #131, #76, #2, .T. ) ;
#370 = CARTESIAN_POINT ( 'NONE',  ( -50.00000000000000000, -75.00000000000004263, 609.4381478495287183 ) ) ;
#371 = AXIS2_PLACEMENT_3D ( 'NONE', #220, #194, #229 ) ;
#372 = DIRECTION ( 'NONE',  ( 1.000000000000000000, 0.000000000000000000, 0.000000000000000000 ) ) ;
#373 = DIRECTION ( 'NONE',  ( 4.625929269271487023E-17, 1.000000000000000000, 0.000000000000000000 ) ) ;
ENDSEC;
END-ISO-10303-21;
