ISO-10303-21;
HEADER;
FILE_DESCRIPTION (( 'STEP AP203' ),
    '1' );
FILE_NAME ('Arm_short_Default_sldprt.STEP',
    '2026-01-28T12:25:35',
    ( '' ),
    ( '' ),
    'SwSTEP 2.0',
    'SolidWorks 2024',
    '' );
FILE_SCHEMA (( 'CONFIG_CONTROL_DESIGN' ));
ENDSEC;

DATA;
#1 = VERTEX_POINT ( 'NONE', #139 ) ;
#2 = MANIFOLD_SOLID_BREP ( 'Boss-Extrude1', #52 ) ;
#3 = ADVANCED_FACE ( 'NONE', ( #327, #190 ), #12, .T. ) ;
#4 = CARTESIAN_POINT ( 'NONE',  ( -44.00000000000000711, -69.00000000000004263, 0.000000000000000000 ) ) ;
#5 = EDGE_LOOP ( 'NONE', ( #203, #62, #208, #136 ) ) ;
#6 = CARTESIAN_POINT ( 'NONE',  ( -44.00000000000000711, -69.00000000000004263, 0.000000000000000000 ) ) ;
#7 = CARTESIAN_POINT ( 'NONE',  ( 50.00000000000000711, 74.99999999999995737, 138.2023151880890168 ) ) ;
#8 = LOCAL_TIME ( 13, 25, 35.00000000000000000, #56 ) ;
#9 = PLANE ( 'NONE',  #129 ) ;
#10 = DIRECTION ( 'NONE',  ( -4.625929269271486407E-17, -1.000000000000000000, -0.000000000000000000 ) ) ;
#11 = CALENDAR_DATE ( 2026, 28, 1 ) ;
#12 = PLANE ( 'NONE',  #267 ) ;
#13 = VECTOR ( 'NONE', #135, 1000.000000000000000 ) ;
#14 = EDGE_CURVE ( 'NONE', #352, #342, #183, .T. ) ;
#15 = CARTESIAN_POINT ( 'NONE',  ( 50.00000000000002842, -75.00000000000004263, 0.000000000000000000 ) ) ;
#16 = PLANE ( 'NONE',  #41 ) ;
#17 = CARTESIAN_POINT ( 'NONE',  ( -44.00000000000000711, -69.00000000000004263, 138.2023151880890168 ) ) ;
#18 = ADVANCED_FACE ( 'NONE', ( #182 ), #217, .T. ) ;
#19 = AXIS2_PLACEMENT_3D ( 'NONE', #50, #193, #304 ) ;
#20 = CARTESIAN_POINT ( 'NONE',  ( 44.00000000000002132, 68.99999999999995737, 0.000000000000000000 ) ) ;
#21 = EDGE_LOOP ( 'NONE', ( #286, #196, #236, #64 ) ) ;
#22 = CARTESIAN_POINT ( 'NONE',  ( -44.00000000000000711, -69.00000000000004263, 0.000000000000000000 ) ) ;
#23 = CARTESIAN_POINT ( 'NONE',  ( 44.00000000000002132, 68.99999999999995737, 138.2023151880890168 ) ) ;
#24 = ORIENTED_EDGE ( 'NONE', *, *, #328, .F. ) ;
#25 = CARTESIAN_POINT ( 'NONE',  ( 50.00000000000000711, 74.99999999999995737, 0.000000000000000000 ) ) ;
#26 = AXIS2_PLACEMENT_3D ( 'NONE', #37, #155, #270 ) ;
#27 = ORIENTED_EDGE ( 'NONE', *, *, #338, .F. ) ;
#28 = CALENDAR_DATE ( 2026, 28, 1 ) ;
#29 = VERTEX_POINT ( 'NONE', #101 ) ;
#30 = PRODUCT ( 'Arm_short_Default_sldprt', 'Arm_short_Default_sldprt', '', ( #31 ) ) ;
#31 = MECHANICAL_CONTEXT ( 'NONE', #300, 'mechanical' ) ;
#32 = ORIENTED_EDGE ( 'NONE', *, *, #353, .F. ) ;
#33 = EDGE_CURVE ( 'NONE', #179, #147, #213, .T. ) ;
#34 = ORIENTED_EDGE ( 'NONE', *, *, #185, .T. ) ;
#35 = VECTOR ( 'NONE', #366, 1000.000000000000000 ) ;
#36 = CC_DESIGN_APPROVAL ( #283, ( #205 ) ) ;
#37 = CARTESIAN_POINT ( 'NONE',  ( -50.00000000000000000, -75.00000000000004263, 138.2023151880890168 ) ) ;
#38 = CC_DESIGN_PERSON_AND_ORGANIZATION_ASSIGNMENT ( #260, #61, ( #205 ) ) ;
#39 = DIRECTION ( 'NONE',  ( 1.387778780781445676E-16, -1.000000000000000000, 0.000000000000000000 ) ) ;
#40 = PLANE ( 'NONE',  #81 ) ;
#41 = AXIS2_PLACEMENT_3D ( 'NONE', #76, #250, #362 ) ;
#42 = LOCAL_TIME ( 13, 25, 35.00000000000000000, #363 ) ;
#43 = DIRECTION ( 'NONE',  ( -1.000000000000000000, 0.000000000000000000, -0.000000000000000000 ) ) ;
#44 = CARTESIAN_POINT ( 'NONE',  ( -44.00000000000000711, -69.00000000000004263, 138.2023151880890168 ) ) ;
#45 = PLANE ( 'NONE',  #19 ) ;
#46 = APPROVAL_DATE_TIME ( #249, #283 ) ;
#47 = CARTESIAN_POINT ( 'NONE',  ( 50.00000000000002842, -75.00000000000004263, 138.2023151880890168 ) ) ;
#48 = FACE_OUTER_BOUND ( 'NONE', #21, .T. ) ;
#49 = EDGE_CURVE ( 'NONE', #342, #317, #94, .T. ) ;
#50 = CARTESIAN_POINT ( 'NONE',  ( 44.00000000000002132, -69.00000000000004263, 138.2023151880890168 ) ) ;
#51 = ORIENTED_EDGE ( 'NONE', *, *, #159, .T. ) ;
#52 = CLOSED_SHELL ( 'NONE', ( #143, #3, #212, #153, #87, #180, #83, #293, #275, #18 ) ) ;
#53 = CARTESIAN_POINT ( 'NONE',  ( 50.00000000000000711, 74.99999999999995737, 138.2023151880890168 ) ) ;
#54 = ORIENTED_EDGE ( 'NONE', *, *, #14, .T. ) ;
#55 = LINE ( 'NONE', #23, #278 ) ;
#56 = COORDINATED_UNIVERSAL_TIME_OFFSET ( 1, 0, .AHEAD. ) ;
#57 = ORIENTED_EDGE ( 'NONE', *, *, #245, .T. ) ;
#58 = VECTOR ( 'NONE', #169, 1000.000000000000000 ) ;
#59 = LOCAL_TIME ( 13, 25, 35.00000000000000000, #344 ) ;
#60 = ORIENTED_EDGE ( 'NONE', *, *, #218, .F. ) ;
#61 = PERSON_AND_ORGANIZATION_ROLE ( 'classification_officer' ) ;
#62 = ORIENTED_EDGE ( 'NONE', *, *, #280, .T. ) ;
#63 = DIRECTION ( 'NONE',  ( 0.000000000000000000, 0.000000000000000000, 1.000000000000000000 ) ) ;
#64 = ORIENTED_EDGE ( 'NONE', *, *, #109, .T. ) ;
#65 = EDGE_LOOP ( 'NONE', ( #54, #145, #289, #116 ) ) ;
#66 = VECTOR ( 'NONE', #146, 1000.000000000000000 ) ;
#67 = FACE_OUTER_BOUND ( 'NONE', #5, .T. ) ;
#68 = FACE_OUTER_BOUND ( 'NONE', #207, .T. ) ;
#69 = DIRECTION ( 'NONE',  ( 1.000000000000000000, 0.000000000000000000, 0.000000000000000000 ) ) ;
#70 = DIRECTION ( 'NONE',  ( -1.000000000000000000, 0.000000000000000000, -0.000000000000000000 ) ) ;
#71 = COORDINATED_UNIVERSAL_TIME_OFFSET ( 1, 0, .AHEAD. ) ;
#72 = DIRECTION ( 'NONE',  ( -0.000000000000000000, -0.000000000000000000, -1.000000000000000000 ) ) ;
#73 = DIRECTION ( 'NONE',  ( -0.000000000000000000, -0.000000000000000000, -1.000000000000000000 ) ) ;
#74 = CC_DESIGN_PERSON_AND_ORGANIZATION_ASSIGNMENT ( #346, #319, ( #158 ) ) ;
#75 = SHAPE_DEFINITION_REPRESENTATION ( #237, #361 ) ;
#76 = CARTESIAN_POINT ( 'NONE',  ( -50.00000000000000000, -75.00000000000004263, 138.2023151880890168 ) ) ;
#77 = VERTEX_POINT ( 'NONE', #329 ) ;
#78 = CARTESIAN_POINT ( 'NONE',  ( -49.99999999999999289, 74.99999999999994316, 138.2023151880890168 ) ) ;
#79 = PRODUCT_RELATED_PRODUCT_CATEGORY ( 'detail', '', ( #30 ) ) ;
#80 = DIRECTION ( 'NONE',  ( 1.387778780781445676E-16, -1.000000000000000000, 0.000000000000000000 ) ) ;
#81 = AXIS2_PLACEMENT_3D ( 'NONE', #97, #326, #157 ) ;
#82 = PERSON_AND_ORGANIZATION ( #341, #355 ) ;
#83 = ADVANCED_FACE ( 'NONE', ( #68 ), #40, .T. ) ;
#84 = COORDINATED_UNIVERSAL_TIME_OFFSET ( 1, 0, .AHEAD. ) ;
#85 = ORIENTED_EDGE ( 'NONE', *, *, #137, .T. ) ;
#86 = ORIENTED_EDGE ( 'NONE', *, *, #109, .F. ) ;
#87 = ADVANCED_FACE ( 'NONE', ( #125 ), #9, .F. ) ;
#88 = DIRECTION ( 'NONE',  ( 1.000000000000000000, 0.000000000000000000, 0.000000000000000000 ) ) ;
#89 = ORIENTED_EDGE ( 'NONE', *, *, #315, .F. ) ;
#90 = PERSON_AND_ORGANIZATION_ROLE ( 'design_owner' ) ;
#91 = ORIENTED_EDGE ( 'NONE', *, *, #14, .F. ) ;
#92 = ORIENTED_EDGE ( 'NONE', *, *, #209, .F. ) ;
#93 = DESIGN_CONTEXT ( 'detailed design', #192, 'design' ) ;
#94 = LINE ( 'NONE', #187, #330 ) ;
#95 = AXIS2_PLACEMENT_3D ( 'NONE', #288, #63, #88 ) ;
#96 = FACE_OUTER_BOUND ( 'NONE', #177, .T. ) ;
#97 = CARTESIAN_POINT ( 'NONE',  ( -44.00000000000000711, -69.00000000000004263, 138.2023151880890168 ) ) ;
#98 = EDGE_CURVE ( 'NONE', #77, #176, #160, .T. ) ;
#99 = DIRECTION ( 'NONE',  ( 0.000000000000000000, -0.000000000000000000, -1.000000000000000000 ) ) ;
#100 = AXIS2_PLACEMENT_3D ( 'NONE', #166, #80, #108 ) ;
#101 = CARTESIAN_POINT ( 'NONE',  ( 50.00000000000002842, -75.00000000000004263, 138.2023151880890168 ) ) ;
#102 = CARTESIAN_POINT ( 'NONE',  ( 50.00000000000002842, -75.00000000000004263, 138.2023151880890168 ) ) ;
#103 = CARTESIAN_POINT ( 'NONE',  ( -49.99999999999999289, 74.99999999999994316, 0.000000000000000000 ) ) ;
#104 = VECTOR ( 'NONE', #10, 1000.000000000000000 ) ;
#105 = APPROVAL_PERSON_ORGANIZATION ( #351, #283, #161 ) ;
#106 = CARTESIAN_POINT ( 'NONE',  ( -44.00000000000000711, -69.00000000000004263, 138.2023151880890168 ) ) ;
#107 = LINE ( 'NONE', #253, #359 ) ;
#108 = DIRECTION ( 'NONE',  ( 1.000000000000000000, 1.387778780781445676E-16, 0.000000000000000000 ) ) ;
#109 = EDGE_CURVE ( 'NONE', #176, #170, #301, .T. ) ;
#110 = PERSON_AND_ORGANIZATION ( #341, #355 ) ;
#111 = ORIENTED_EDGE ( 'NONE', *, *, #221, .F. ) ;
#112 = APPROVAL_STATUS ( 'not_yet_approved' ) ;
#113 = ORIENTED_EDGE ( 'NONE', *, *, #311, .F. ) ;
#114 = EDGE_CURVE ( 'NONE', #259, #269, #246, .T. ) ;
#115 = PERSON_AND_ORGANIZATION ( #341, #355 ) ;
#116 = ORIENTED_EDGE ( 'NONE', *, *, #315, .T. ) ;
#117 =( NAMED_UNIT ( * ) PLANE_ANGLE_UNIT ( ) SI_UNIT ( $, .RADIAN. ) );
#118 = ORIENTED_EDGE ( 'NONE', *, *, #343, .T. ) ;
#119 = CC_DESIGN_PERSON_AND_ORGANIZATION_ASSIGNMENT ( #82, #141, ( #158 ) ) ;
#120 = APPROVAL_DATE_TIME ( #268, #189 ) ;
#121 = ORIENTED_EDGE ( 'NONE', *, *, #252, .F. ) ;
#122 = PLANE ( 'NONE',  #26 ) ;
#123 = DIRECTION ( 'NONE',  ( 0.000000000000000000, 0.000000000000000000, -1.000000000000000000 ) ) ;
#124 = VECTOR ( 'NONE', #219, 1000.000000000000000 ) ;
#125 = FACE_OUTER_BOUND ( 'NONE', #313, .T. ) ;
#126 = DIRECTION ( 'NONE',  ( -0.000000000000000000, -0.000000000000000000, -1.000000000000000000 ) ) ;
#127 = DATE_AND_TIME ( #239, #42 ) ;
#128 = FACE_OUTER_BOUND ( 'NONE', #210, .T. ) ;
#129 = AXIS2_PLACEMENT_3D ( 'NONE', #358, #243, #39 ) ;
#130 = CARTESIAN_POINT ( 'NONE',  ( -44.00000000000000711, 68.99999999999995737, 138.2023151880890168 ) ) ;
#131 = ORIENTED_EDGE ( 'NONE', *, *, #311, .T. ) ;
#132 = LINE ( 'NONE', #251, #173 ) ;
#133 = DIRECTION ( 'NONE',  ( 0.000000000000000000, 1.000000000000000000, 0.000000000000000000 ) ) ;
#134 = VECTOR ( 'NONE', #255, 1000.000000000000000 ) ;
#135 = DIRECTION ( 'NONE',  ( -1.387778780781445676E-16, 1.000000000000000000, 0.000000000000000000 ) ) ;
#136 = ORIENTED_EDGE ( 'NONE', *, *, #252, .T. ) ;
#137 = EDGE_CURVE ( 'NONE', #259, #77, #244, .T. ) ;
#138 = FACE_OUTER_BOUND ( 'NONE', #65, .T. ) ;
#139 = CARTESIAN_POINT ( 'NONE',  ( 44.00000000000002132, 68.99999999999995737, 138.2023151880890168 ) ) ;
#140 = VECTOR ( 'NONE', #73, 1000.000000000000000 ) ;
#141 = PERSON_AND_ORGANIZATION_ROLE ( 'design_supplier' ) ;
#142 = ORIENTED_EDGE ( 'NONE', *, *, #221, .T. ) ;
#143 = ADVANCED_FACE ( 'NONE', ( #67, #298 ), #162, .F. ) ;
#144 = CARTESIAN_POINT ( 'NONE',  ( -50.00000000000000000, -75.00000000000004263, 138.2023151880890168 ) ) ;
#145 = ORIENTED_EDGE ( 'NONE', *, *, #343, .F. ) ;
#146 = DIRECTION ( 'NONE',  ( -0.000000000000000000, -0.000000000000000000, -1.000000000000000000 ) ) ;
#147 = VERTEX_POINT ( 'NONE', #156 ) ;
#148 = CC_DESIGN_DATE_AND_TIME_ASSIGNMENT ( #127, #154, ( #205 ) ) ;
#149 = APPROVAL_STATUS ( 'not_yet_approved' ) ;
#150 = VECTOR ( 'NONE', #195, 1000.000000000000000 ) ;
#151 = APPROVAL_PERSON_ORGANIZATION ( #202, #189, #291 ) ;
#152 = ORIENTED_EDGE ( 'NONE', *, *, #185, .F. ) ;
#153 = ADVANCED_FACE ( 'NONE', ( #128 ), #122, .F. ) ;
#154 = DATE_TIME_ROLE ( 'classification_date' ) ;
#155 = DIRECTION ( 'NONE',  ( 0.000000000000000000, 1.000000000000000000, 0.000000000000000000 ) ) ;
#156 = CARTESIAN_POINT ( 'NONE',  ( -50.00000000000000000, -75.00000000000004263, 138.2023151880890168 ) ) ;
#157 = DIRECTION ( 'NONE',  ( 0.000000000000000000, 0.000000000000000000, -1.000000000000000000 ) ) ;
#158 = PRODUCT_DEFINITION_FORMATION_WITH_SPECIFIED_SOURCE ( 'ANY', '', #30, .NOT_KNOWN. ) ;
#159 = EDGE_CURVE ( 'NONE', #347, #170, #240, .T. ) ;
#160 = LINE ( 'NONE', #357, #241 ) ;
#161 = APPROVAL_ROLE ( '' ) ;
#162 = PLANE ( 'NONE',  #325 ) ;
#163 = LINE ( 'NONE', #130, #134 ) ;
#164 = LINE ( 'NONE', #368, #226 ) ;
#165 = PLANE ( 'NONE',  #234 ) ;
#166 = CARTESIAN_POINT ( 'NONE',  ( -49.99999999999999289, 74.99999999999994316, 138.2023151880890168 ) ) ;
#167 = ORIENTED_EDGE ( 'NONE', *, *, #324, .T. ) ;
#168 = VECTOR ( 'NONE', #126, 1000.000000000000000 ) ;
#169 = DIRECTION ( 'NONE',  ( -0.000000000000000000, -0.000000000000000000, -1.000000000000000000 ) ) ;
#170 = VERTEX_POINT ( 'NONE', #271 ) ;
#171 = DATE_TIME_ROLE ( 'creation_date' ) ;
#172 = VERTEX_POINT ( 'NONE', #7 ) ;
#173 = VECTOR ( 'NONE', #220, 1000.000000000000000 ) ;
#174 = CC_DESIGN_APPROVAL ( #189, ( #158 ) ) ;
#175 = CARTESIAN_POINT ( 'NONE',  ( -50.00000000000000000, -75.00000000000004263, 0.000000000000000000 ) ) ;
#176 = VERTEX_POINT ( 'NONE', #242 ) ;
#177 = EDGE_LOOP ( 'NONE', ( #131, #89, #121, #345 ) ) ;
#178 = CALENDAR_DATE ( 2026, 28, 1 ) ;
#179 = VERTEX_POINT ( 'NONE', #356 ) ;
#180 = ADVANCED_FACE ( 'NONE', ( #96 ), #257, .F. ) ;
#181 = VECTOR ( 'NONE', #297, 1000.000000000000000 ) ;
#182 = FACE_OUTER_BOUND ( 'NONE', #294, .T. ) ;
#183 = LINE ( 'NONE', #214, #272 ) ;
#184 = CC_DESIGN_PERSON_AND_ORGANIZATION_ASSIGNMENT ( #115, #321, ( #215 ) ) ;
#185 = EDGE_CURVE ( 'NONE', #1, #259, #163, .T. ) ;
#186 = DIRECTION ( 'NONE',  ( -4.625929269271486407E-17, -1.000000000000000000, -0.000000000000000000 ) ) ;
#187 = CARTESIAN_POINT ( 'NONE',  ( -50.00000000000000000, -75.00000000000004263, 0.000000000000000000 ) ) ;
#188 = VECTOR ( 'NONE', #72, 1000.000000000000000 ) ;
#189 = APPROVAL ( #149, 'UNSPECIFIED' ) ;
#190 = FACE_BOUND ( 'NONE', #320, .T. ) ;
#191 = FACE_OUTER_BOUND ( 'NONE', #230, .T. ) ;
#192 = APPLICATION_CONTEXT ( 'configuration controlled 3d designs of mechanical parts and assemblies' ) ;
#193 = DIRECTION ( 'NONE',  ( -1.000000000000000000, 0.000000000000000000, 0.000000000000000000 ) ) ;
#194 = APPROVAL_PERSON_ORGANIZATION ( #227, #224, #231 ) ;
#195 = DIRECTION ( 'NONE',  ( -1.387778780781445676E-16, 1.000000000000000000, 0.000000000000000000 ) ) ;
#196 = ORIENTED_EDGE ( 'NONE', *, *, #264, .F. ) ;
#197 = LINE ( 'NONE', #47, #188 ) ;
#198 = EDGE_LOOP ( 'NONE', ( #91, #113, #92, #292 ) ) ;
#199 = LINE ( 'NONE', #53, #58 ) ;
#200 = VECTOR ( 'NONE', #367, 1000.000000000000000 ) ;
#201 = ORIENTED_EDGE ( 'NONE', *, *, #353, .T. ) ;
#202 = PERSON_AND_ORGANIZATION ( #341, #355 ) ;
#203 = ORIENTED_EDGE ( 'NONE', *, *, #33, .T. ) ;
#204 = LOCAL_TIME ( 13, 25, 35.00000000000000000, #84 ) ;
#205 = SECURITY_CLASSIFICATION ( '', '', #312 ) ;
#206 = APPLICATION_PROTOCOL_DEFINITION ( 'international standard', 'config_control_design', 1994, #300 ) ;
#207 = EDGE_LOOP ( 'NONE', ( #27, #261, #85, #290 ) ) ;
#208 = ORIENTED_EDGE ( 'NONE', *, *, #218, .T. ) ;
#209 = EDGE_CURVE ( 'NONE', #317, #373, #335, .T. ) ;
#210 = EDGE_LOOP ( 'NONE', ( #369, #111, #263, #118 ) ) ;
#211 = CARTESIAN_POINT ( 'NONE',  ( -50.00000000000000000, -75.00000000000004263, 138.2023151880890168 ) ) ;
#212 = ADVANCED_FACE ( 'NONE', ( #138 ), #16, .F. ) ;
#213 = LINE ( 'NONE', #211, #104 ) ;
#214 = CARTESIAN_POINT ( 'NONE',  ( -50.00000000000000000, -75.00000000000004263, 0.000000000000000000 ) ) ;
#215 = PRODUCT_DEFINITION ( 'UNKNOWN', '', #158, #93 ) ;
#216 = CARTESIAN_POINT ( 'NONE',  ( 44.00000000000002132, -69.00000000000004263, 138.2023151880890168 ) ) ;
#217 = PLANE ( 'NONE',  #348 ) ;
#218 = EDGE_CURVE ( 'NONE', #29, #172, #281, .T. ) ;
#219 = DIRECTION ( 'NONE',  ( 0.000000000000000000, 1.000000000000000000, 0.000000000000000000 ) ) ;
#220 = DIRECTION ( 'NONE',  ( 0.000000000000000000, 1.000000000000000000, 0.000000000000000000 ) ) ;
#221 = EDGE_CURVE ( 'NONE', #29, #317, #197, .T. ) ;
#222 = CARTESIAN_POINT ( 'NONE',  ( -44.00000000000000711, 68.99999999999995737, 0.000000000000000000 ) ) ;
#223 = DIRECTION ( 'NONE',  ( -0.000000000000000000, -0.000000000000000000, -1.000000000000000000 ) ) ;
#224 = APPROVAL ( #112, 'UNSPECIFIED' ) ;
#225 = CARTESIAN_POINT ( 'NONE',  ( -44.00000000000000711, 68.99999999999995737, 0.000000000000000000 ) ) ;
#226 = VECTOR ( 'NONE', #282, 1000.000000000000000 ) ;
#227 = PERSON_AND_ORGANIZATION ( #341, #355 ) ;
#228 = ORIENTED_EDGE ( 'NONE', *, *, #287, .T. ) ;
#229 = APPROVAL_DATE_TIME ( #316, #224 ) ;
#230 = EDGE_LOOP ( 'NONE', ( #232, #86, #228, #201 ) ) ;
#231 = APPROVAL_ROLE ( '' ) ;
#232 = ORIENTED_EDGE ( 'NONE', *, *, #245, .F. ) ;
#233 = UNCERTAINTY_MEASURE_WITH_UNIT (LENGTH_MEASURE( 1.000000000000000082E-05 ), #372, 'distance_accuracy_value', 'NONE');
#234 = AXIS2_PLACEMENT_3D ( 'NONE', #17, #133, #364 ) ;
#235 = LINE ( 'NONE', #144, #66 ) ;
#236 = ORIENTED_EDGE ( 'NONE', *, *, #98, .T. ) ;
#237 = PRODUCT_DEFINITION_SHAPE ( 'NONE', 'NONE',  #215 ) ;
#238 = ORIENTED_EDGE ( 'NONE', *, *, #137, .F. ) ;
#239 = CALENDAR_DATE ( 2026, 28, 1 ) ;
#240 = LINE ( 'NONE', #6, #308 ) ;
#241 = VECTOR ( 'NONE', #69, 1000.000000000000000 ) ;
#242 = CARTESIAN_POINT ( 'NONE',  ( 44.00000000000002132, -69.00000000000004263, 138.2023151880890168 ) ) ;
#243 = DIRECTION ( 'NONE',  ( -1.000000000000000000, -1.387778780781445676E-16, 0.000000000000000000 ) ) ;
#244 = LINE ( 'NONE', #44, #284 ) ;
#245 = EDGE_CURVE ( 'NONE', #170, #309, #307, .T. ) ;
#246 = LINE ( 'NONE', #302, #181 ) ;
#247 = VECTOR ( 'NONE', #258, 1000.000000000000000 ) ;
#248 = LOCAL_TIME ( 13, 25, 35.00000000000000000, #71 ) ;
#249 = DATE_AND_TIME ( #11, #248 ) ;
#250 = DIRECTION ( 'NONE',  ( 1.000000000000000000, -4.625929269271486407E-17, 0.000000000000000000 ) ) ;
#251 = CARTESIAN_POINT ( 'NONE',  ( 44.00000000000002132, -69.00000000000004263, 138.2023151880890168 ) ) ;
#252 = EDGE_CURVE ( 'NONE', #172, #179, #279, .T. ) ;
#253 = CARTESIAN_POINT ( 'NONE',  ( -49.99999999999999289, 74.99999999999994316, 138.2023151880890168 ) ) ;
#254 = CC_DESIGN_APPROVAL ( #224, ( #215 ) ) ;
#255 = DIRECTION ( 'NONE',  ( -1.000000000000000000, -0.000000000000000000, -0.000000000000000000 ) ) ;
#256 = CC_DESIGN_DATE_AND_TIME_ASSIGNMENT ( #295, #171, ( #215 ) ) ;
#257 = PLANE ( 'NONE',  #100 ) ;
#258 = DIRECTION ( 'NONE',  ( -0.000000000000000000, -1.000000000000000000, -0.000000000000000000 ) ) ;
#259 = VERTEX_POINT ( 'NONE', #277 ) ;
#260 = PERSON_AND_ORGANIZATION ( #341, #355 ) ;
#261 = ORIENTED_EDGE ( 'NONE', *, *, #114, .F. ) ;
#262 =( NAMED_UNIT ( * ) SI_UNIT ( $, .STERADIAN. ) SOLID_ANGLE_UNIT ( ) );
#263 = ORIENTED_EDGE ( 'NONE', *, *, #280, .F. ) ;
#264 = EDGE_CURVE ( 'NONE', #77, #347, #334, .T. ) ;
#265 = DIRECTION ( 'NONE',  ( -0.000000000000000000, -0.000000000000000000, -1.000000000000000000 ) ) ;
#266 = ORIENTED_EDGE ( 'NONE', *, *, #287, .F. ) ;
#267 = AXIS2_PLACEMENT_3D ( 'NONE', #273, #299, #43 ) ;
#268 = DATE_AND_TIME ( #28, #59 ) ;
#269 = VERTEX_POINT ( 'NONE', #225 ) ;
#270 = DIRECTION ( 'NONE',  ( 0.000000000000000000, -0.000000000000000000, 1.000000000000000000 ) ) ;
#271 = CARTESIAN_POINT ( 'NONE',  ( 44.00000000000002132, -69.00000000000004263, 0.000000000000000000 ) ) ;
#272 = VECTOR ( 'NONE', #186, 1000.000000000000000 ) ;
#273 = CARTESIAN_POINT ( 'NONE',  ( 0.000000000000000000, 0.000000000000000000, 0.000000000000000000 ) ) ;
#274 = DIRECTION ( 'NONE',  ( 0.000000000000000000, -1.000000000000000000, 0.000000000000000000 ) ) ;
#275 = ADVANCED_FACE ( 'NONE', ( #191 ), #45, .T. ) ;
#276 = DIRECTION ( 'NONE',  ( 1.000000000000000000, 0.000000000000000000, 0.000000000000000000 ) ) ;
#277 = CARTESIAN_POINT ( 'NONE',  ( -44.00000000000000711, 68.99999999999995737, 138.2023151880890168 ) ) ;
#278 = VECTOR ( 'NONE', #265, 1000.000000000000000 ) ;
#279 = LINE ( 'NONE', #78, #318 ) ;
#280 = EDGE_CURVE ( 'NONE', #147, #29, #164, .T. ) ;
#281 = LINE ( 'NONE', #102, #150 ) ;
#282 = DIRECTION ( 'NONE',  ( 1.000000000000000000, 0.000000000000000000, 0.000000000000000000 ) ) ;
#283 = APPROVAL ( #332, 'UNSPECIFIED' ) ;
#284 = VECTOR ( 'NONE', #360, 1000.000000000000000 ) ;
#285 = LINE ( 'NONE', #22, #247 ) ;
#286 = ORIENTED_EDGE ( 'NONE', *, *, #159, .F. ) ;
#287 = EDGE_CURVE ( 'NONE', #176, #1, #132, .T. ) ;
#288 = CARTESIAN_POINT ( 'NONE',  ( 0.000000000000000000, 0.000000000000000000, 0.000000000000000000 ) ) ;
#289 = ORIENTED_EDGE ( 'NONE', *, *, #33, .F. ) ;
#290 = ORIENTED_EDGE ( 'NONE', *, *, #264, .T. ) ;
#291 = APPROVAL_ROLE ( '' ) ;
#292 = ORIENTED_EDGE ( 'NONE', *, *, #49, .F. ) ;
#293 = ADVANCED_FACE ( 'NONE', ( #48 ), #165, .T. ) ;
#294 = EDGE_LOOP ( 'NONE', ( #322, #32, #34, #371 ) ) ;
#295 = DATE_AND_TIME ( #340, #8 ) ;
#296 = EDGE_LOOP ( 'NONE', ( #238, #152, #266, #339 ) ) ;
#297 = DIRECTION ( 'NONE',  ( -0.000000000000000000, -0.000000000000000000, -1.000000000000000000 ) ) ;
#298 = FACE_BOUND ( 'NONE', #296, .T. ) ;
#299 = DIRECTION ( 'NONE',  ( 0.000000000000000000, 0.000000000000000000, -1.000000000000000000 ) ) ;
#300 = APPLICATION_CONTEXT ( 'configuration controlled 3d designs of mechanical parts and assemblies' ) ;
#301 = LINE ( 'NONE', #216, #168 ) ;
#302 = CARTESIAN_POINT ( 'NONE',  ( -44.00000000000000711, 68.99999999999995737, 138.2023151880890168 ) ) ;
#303 = LINE ( 'NONE', #222, #35 ) ;
#304 = DIRECTION ( 'NONE',  ( 0.000000000000000000, 0.000000000000000000, 1.000000000000000000 ) ) ;
#305 = DIRECTION ( 'NONE',  ( -1.000000000000000000, -1.387778780781445676E-16, -0.000000000000000000 ) ) ;
#306 = CARTESIAN_POINT ( 'NONE',  ( 44.00000000000002132, -69.00000000000004263, 0.000000000000000000 ) ) ;
#307 = LINE ( 'NONE', #306, #124 ) ;
#308 = VECTOR ( 'NONE', #354, 1000.000000000000000 ) ;
#309 = VERTEX_POINT ( 'NONE', #20 ) ;
#310 = CC_DESIGN_SECURITY_CLASSIFICATION ( #205, ( #158 ) ) ;
#311 = EDGE_CURVE ( 'NONE', #373, #352, #336, .T. ) ;
#312 = SECURITY_CLASSIFICATION_LEVEL ( 'unclassified' ) ;
#313 = EDGE_LOOP ( 'NONE', ( #350, #24, #60, #142 ) ) ;
#314 = CC_DESIGN_PERSON_AND_ORGANIZATION_ASSIGNMENT ( #110, #90, ( #30 ) ) ;
#315 = EDGE_CURVE ( 'NONE', #179, #352, #107, .T. ) ;
#316 = DATE_AND_TIME ( #178, #204 ) ;
#317 = VERTEX_POINT ( 'NONE', #337 ) ;
#318 = VECTOR ( 'NONE', #305, 1000.000000000000000 ) ;
#319 = PERSON_AND_ORGANIZATION_ROLE ( 'creator' ) ;
#320 = EDGE_LOOP ( 'NONE', ( #167, #323, #51, #57 ) ) ;
#321 = PERSON_AND_ORGANIZATION_ROLE ( 'creator' ) ;
#322 = ORIENTED_EDGE ( 'NONE', *, *, #324, .F. ) ;
#323 = ORIENTED_EDGE ( 'NONE', *, *, #338, .T. ) ;
#324 = EDGE_CURVE ( 'NONE', #309, #269, #303, .T. ) ;
#325 = AXIS2_PLACEMENT_3D ( 'NONE', #331, #123, #70 ) ;
#326 = DIRECTION ( 'NONE',  ( 1.000000000000000000, 0.000000000000000000, 0.000000000000000000 ) ) ;
#327 = FACE_OUTER_BOUND ( 'NONE', #198, .T. ) ;
#328 = EDGE_CURVE ( 'NONE', #172, #373, #199, .T. ) ;
#329 = CARTESIAN_POINT ( 'NONE',  ( -44.00000000000000711, -69.00000000000004263, 138.2023151880890168 ) ) ;
#330 = VECTOR ( 'NONE', #276, 1000.000000000000000 ) ;
#331 = CARTESIAN_POINT ( 'NONE',  ( 0.000000000000000000, 0.000000000000000000, 138.2023151880890168 ) ) ;
#332 = APPROVAL_STATUS ( 'not_yet_approved' ) ;
#333 = CARTESIAN_POINT ( 'NONE',  ( -44.00000000000000711, 68.99999999999995737, 138.2023151880890168 ) ) ;
#334 = LINE ( 'NONE', #106, #140 ) ;
#335 = LINE ( 'NONE', #15, #13 ) ;
#336 = LINE ( 'NONE', #103, #200 ) ;
#337 = CARTESIAN_POINT ( 'NONE',  ( 50.00000000000002842, -75.00000000000004263, 0.000000000000000000 ) ) ;
#338 = EDGE_CURVE ( 'NONE', #269, #347, #285, .T. ) ;
#339 = ORIENTED_EDGE ( 'NONE', *, *, #98, .F. ) ;
#340 = CALENDAR_DATE ( 2026, 28, 1 ) ;
#341 = PERSON ( 'UNSPECIFIED', 'UNSPECIFIED', 'UNSPECIFIED', ('UNSPECIFIED'), ('UNSPECIFIED'), ('UNSPECIFIED') ) ;
#342 = VERTEX_POINT ( 'NONE', #175 ) ;
#343 = EDGE_CURVE ( 'NONE', #147, #342, #235, .T. ) ;
#344 = COORDINATED_UNIVERSAL_TIME_OFFSET ( 1, 0, .AHEAD. ) ;
#345 = ORIENTED_EDGE ( 'NONE', *, *, #328, .T. ) ;
#346 = PERSON_AND_ORGANIZATION ( #341, #355 ) ;
#347 = VERTEX_POINT ( 'NONE', #4 ) ;
#348 = AXIS2_PLACEMENT_3D ( 'NONE', #333, #274, #99 ) ;
#349 = CARTESIAN_POINT ( 'NONE',  ( -49.99999999999999289, 74.99999999999994316, 0.000000000000000000 ) ) ;
#350 = ORIENTED_EDGE ( 'NONE', *, *, #209, .T. ) ;
#351 = PERSON_AND_ORGANIZATION ( #341, #355 ) ;
#352 = VERTEX_POINT ( 'NONE', #349 ) ;
#353 = EDGE_CURVE ( 'NONE', #1, #309, #55, .T. ) ;
#354 = DIRECTION ( 'NONE',  ( 1.000000000000000000, 0.000000000000000000, 0.000000000000000000 ) ) ;
#355 = ORGANIZATION ( 'UNSPECIFIED', 'UNSPECIFIED', '' ) ;
#356 = CARTESIAN_POINT ( 'NONE',  ( -49.99999999999999289, 74.99999999999994316, 138.2023151880890168 ) ) ;
#357 = CARTESIAN_POINT ( 'NONE',  ( -44.00000000000000711, -69.00000000000004263, 138.2023151880890168 ) ) ;
#358 = CARTESIAN_POINT ( 'NONE',  ( 50.00000000000002842, -75.00000000000004263, 138.2023151880890168 ) ) ;
#359 = VECTOR ( 'NONE', #223, 1000.000000000000000 ) ;
#360 = DIRECTION ( 'NONE',  ( -0.000000000000000000, -1.000000000000000000, -0.000000000000000000 ) ) ;
#361 = ADVANCED_BREP_SHAPE_REPRESENTATION ( 'Arm_short_Default_sldprt', ( #2, #95 ), #365 ) ;
#362 = DIRECTION ( 'NONE',  ( 4.625929269271486407E-17, 1.000000000000000000, 0.000000000000000000 ) ) ;
#363 = COORDINATED_UNIVERSAL_TIME_OFFSET ( 1, 0, .AHEAD. ) ;
#364 = DIRECTION ( 'NONE',  ( 0.000000000000000000, -0.000000000000000000, 1.000000000000000000 ) ) ;
#365 =( GEOMETRIC_REPRESENTATION_CONTEXT ( 3 ) GLOBAL_UNCERTAINTY_ASSIGNED_CONTEXT ( ( #233 ) ) GLOBAL_UNIT_ASSIGNED_CONTEXT ( ( #372, #117, #262 ) ) REPRESENTATION_CONTEXT ( 'NONE', 'WORKASPACE' ) );
#366 = DIRECTION ( 'NONE',  ( -1.000000000000000000, -0.000000000000000000, -0.000000000000000000 ) ) ;
#367 = DIRECTION ( 'NONE',  ( -1.000000000000000000, -1.387778780781445676E-16, -0.000000000000000000 ) ) ;
#368 = CARTESIAN_POINT ( 'NONE',  ( -50.00000000000000000, -75.00000000000004263, 138.2023151880890168 ) ) ;
#369 = ORIENTED_EDGE ( 'NONE', *, *, #49, .T. ) ;
#370 = APPLICATION_PROTOCOL_DEFINITION ( 'international standard', 'config_control_design', 1994, #192 ) ;
#371 = ORIENTED_EDGE ( 'NONE', *, *, #114, .T. ) ;
#372 =( LENGTH_UNIT ( ) NAMED_UNIT ( * ) SI_UNIT ( .MILLI., .METRE. ) );
#373 = VERTEX_POINT ( 'NONE', #25 ) ;
ENDSEC;
END-ISO-10303-21;
