ISO-10303-21;
HEADER;
FILE_DESCRIPTION (( 'STEP AP203' ),
    '1' );
FILE_NAME ('Arm_shaft_Default_sldprt.STEP',
    '2026-01-28T12:25:34',
    ( '' ),
    ( '' ),
    'SwSTEP 2.0',
    'SolidWorks 2024',
    '' );
FILE_SCHEMA (( 'CONFIG_CONTROL_DESIGN' ));
ENDSEC;

DATA;
#1 = CARTESIAN_POINT ( 'NONE',  ( 29.72171699898571973, -4.081204987884377466, 66.30825345209504462 ) ) ;
#2 = ORIENTED_EDGE ( 'NONE', *, *, #173, .F. ) ;
#3 = CARTESIAN_POINT ( 'NONE',  ( -29.25844644331737143, -6.629330138208355372, 74.25934602029329312 ) ) ;
#4 = DIRECTION ( 'NONE',  ( 0.000000000000000000, 0.000000000000000000, -1.000000000000000000 ) ) ;
#5 = ORIENTED_EDGE ( 'NONE', *, *, #550, .T. ) ;
#6 = CARTESIAN_POINT ( 'NONE',  ( -29.18299114615944134, -6.954245544358259146, 71.07879780938415593 ) ) ;
#7 = CARTESIAN_POINT ( 'NONE',  ( 29.99738103571201009, -0.4581788014460312364, -65.01119782738808794 ) ) ;
#8 = CARTESIAN_POINT ( 'NONE',  ( 30.00000000000000000, 1.088116339016176744E-15, 64.99999999999998579 ) ) ;
#9 = ADVANCED_FACE ( 'NONE', ( #160 ), #215, .F. ) ;
#10 = CARTESIAN_POINT ( 'NONE',  ( -29.69655491097362798, 4.273365922960100427, -77.56305994418517002 ) ) ;
#11 = CARTESIAN_POINT ( 'NONE',  ( 29.69655491097362798, 4.273365922960099539, 77.56305994418517002 ) ) ;
#12 = APPROVAL_STATUS ( 'not_yet_approved' ) ;
#13 = DIRECTION ( 'NONE',  ( 1.000000000000000000, -0.000000000000000000, -0.000000000000000000 ) ) ;
#14 = B_SPLINE_CURVE_WITH_KNOTS ( 'NONE', 3,
 ( #8, #319, #593, #257, #214, #476, #423, #534, #119, #1, #485, #171, #31, #71, #184, #84, #446, #437, #174, #75, #179, #90, #383, #395, #334, #231, #551, #555, #287, #600, #596, #547, #135, #79, #505, #21, #503, #608, #649, #129, #277, #29, #386, #338, #490, #235 ),
 .UNSPECIFIED., .F., .F.,
 ( 4, 2, 2, 2, 2, 2, 2, 2, 2, 2, 2, 2, 2, 2, 2, 2, 2, 2, 2, 2, 2, 2, 4 ),
 ( 1.056901963775725558E-18, 0.001372568374600575394, 0.002058852561900866018, 0.002745136749201157293, 0.004117705123801723363, 0.004803989311101993821, 0.005490273498402264279, 0.006862841873002837288, 0.008235410247603412032, 0.008921694434903716317, 0.009607978622204024072, 0.01098054699680467601, 0.01235311537140532968, 0.01372568374600598162, 0.01441196793330628764, 0.01509825212060659540, 0.01578453630790689968, 0.01647082049520720570, 0.01784338886980784897, 0.01921595724440849223, 0.02058852561900913550, 0.02127480980630945887, 0.02196109399360977876 ),
 .UNSPECIFIED. ) ;
#15 = DIRECTION ( 'NONE',  ( 1.000000000000000000, 0.000000000000000000, 0.000000000000000000 ) ) ;
#16 = CARTESIAN_POINT ( 'NONE',  ( 30.00000000000000000, 3.673943889151709458E-15, -64.99999999999998579 ) ) ;
#17 = FACE_OUTER_BOUND ( 'NONE', #594, .T. ) ;
#18 = FACE_OUTER_BOUND ( 'NONE', #517, .T. ) ;
#19 = CARTESIAN_POINT ( 'NONE',  ( 0.000000000000000000, 0.000000000000000000, 225.0000000000000000 ) ) ;
#20 = MECHANICAL_CONTEXT ( 'NONE', #380, 'mechanical' ) ;
#21 = CARTESIAN_POINT ( 'NONE',  ( 29.64329748317490143, -4.624206176391263412, 77.27517611659088459 ) ) ;
#22 = CARTESIAN_POINT ( 'NONE',  ( -29.61522775578693611, 4.792159174452821802, -66.89247251343543610 ) ) ;
#23 = CARTESIAN_POINT ( 'NONE',  ( 29.25626186901913073, 6.641033478012849045, 69.74041136175249278 ) ) ;
#24 = CARTESIAN_POINT ( 'NONE',  ( 29.56184033702572833, -5.111231553905871472, -67.21168051837976520 ) ) ;
#25 = CARTESIAN_POINT ( 'NONE',  ( -29.89852106257611553, -2.474599957493585300, 78.55201834780007175 ) ) ;
#26 = PRODUCT_DEFINITION_FORMATION_WITH_SPECIFIED_SOURCE ( 'ANY', '', #647, .NOT_KNOWN. ) ;
#27 = CARTESIAN_POINT ( 'NONE',  ( 29.17192544664358422, 6.999911838273017217, -71.76641583539836233 ) ) ;
#28 = PLANE ( 'NONE',  #673 ) ;
#29 = CARTESIAN_POINT ( 'NONE',  ( 29.97888455654712914, -1.147745827230590043, 78.90908406604285119 ) ) ;
#30 = CARTESIAN_POINT ( 'NONE',  ( 29.18561386709547278, 6.942657455036948200, -71.07680206742158191 ) ) ;
#31 = CARTESIAN_POINT ( 'NONE',  ( 29.61551994538941557, -4.790360752189871008, 66.89077491766234118 ) ) ;
#32 = CARTESIAN_POINT ( 'NONE',  ( 29.22782118389334016, -6.763074389668102704, -73.82029868993751620 ) ) ;
#33 = CARTESIAN_POINT ( 'NONE',  ( -29.98923918208215866, 0.9217442404527246280, -65.04570723267302412 ) ) ;
#34 = ADVANCED_FACE ( 'NONE', ( #18 ), #529, .F. ) ;
#35 = CARTESIAN_POINT ( 'NONE',  ( -29.61551994538941557, -4.790360752189873672, 77.10922508233768724 ) ) ;
#36 = CARTESIAN_POINT ( 'NONE',  ( 29.64321055773967473, 4.624627979400987243, -66.72543583117608534 ) ) ;
#37 = VECTOR ( 'NONE', #669, 1000.000000000000000 ) ;
#38 = CARTESIAN_POINT ( 'NONE',  ( -29.86093203185780709, 2.893009618164716024, 65.62171288211764875 ) ) ;
#39 = VERTEX_POINT ( 'NONE', #268 ) ;
#40 = PERSON_AND_ORGANIZATION ( #274, #105 ) ;
#41 = CARTESIAN_POINT ( 'NONE',  ( -29.45499313990919887, 5.693876924881767998, 76.07827858558461287 ) ) ;
#42 = COORDINATED_UNIVERSAL_TIME_OFFSET ( 1, 0, .AHEAD. ) ;
#43 = PLANE ( 'NONE',  #316 ) ;
#44 = PRODUCT_RELATED_PRODUCT_CATEGORY ( 'detail', '', ( #647 ) ) ;
#45 = CARTESIAN_POINT ( 'NONE',  ( -29.94805444634058844, 1.822329002495006955, 65.22550875707908347 ) ) ;
#46 = DIRECTION ( 'NONE',  ( -0.000000000000000000, -0.000000000000000000, -1.000000000000000000 ) ) ;
#47 = CARTESIAN_POINT ( 'NONE',  ( -29.25828647065663546, 6.630034469863483437, 69.74275604100057535 ) ) ;
#48 = ORIENTED_EDGE ( 'NONE', *, *, #89, .T. ) ;
#49 = CARTESIAN_POINT ( 'NONE',  ( -29.84185730817031157, -3.105431204233715103, 65.70986695601085614 ) ) ;
#50 = CARTESIAN_POINT ( 'NONE',  ( 29.89804846492607027, 2.480198355113730990, -78.54985706396711009 ) ) ;
#51 = EDGE_CURVE ( 'NONE', #57, #172, #315, .T. ) ;
#52 = ORIENTED_EDGE ( 'NONE', *, *, #262, .T. ) ;
#53 = CARTESIAN_POINT ( 'NONE',  ( 29.18561386709547278, 6.942657455036948200, 72.92319793257843230 ) ) ;
#54 = CALENDAR_DATE ( 2026, 28, 1 ) ;
#55 = CC_DESIGN_DATE_AND_TIME_ASSIGNMENT ( #430, #488, ( #455 ) ) ;
#56 = CARTESIAN_POINT ( 'NONE',  ( -30.00000000000000000, -0.2288842376190424466, -78.99999999999998579 ) ) ;
#57 = VERTEX_POINT ( 'NONE', #163 ) ;
#58 = CARTESIAN_POINT ( 'NONE',  ( 29.64321055773967473, 4.624627979400987243, 77.27456416882392887 ) ) ;
#59 = AXIS2_PLACEMENT_3D ( 'NONE', #424, #577, #125 ) ;
#60 = CARTESIAN_POINT ( 'NONE',  ( -29.98684362019209715, -0.9176091291687731299, -78.94343410050571208 ) ) ;
#61 = CARTESIAN_POINT ( 'NONE',  ( -29.84013671920505217, 3.099634142265738301, -78.28052453108799114 ) ) ;
#62 = CYLINDRICAL_SURFACE ( 'NONE', #95, 30.00000000000000000 ) ;
#63 = CARTESIAN_POINT ( 'NONE',  ( -29.18280211529151558, -6.955044132045340000, -71.08349424401477279 ) ) ;
#64 = ORIENTED_EDGE ( 'NONE', *, *, #394, .T. ) ;
#65 = FACE_OUTER_BOUND ( 'NONE', #350, .T. ) ;
#66 =( NAMED_UNIT ( * ) PLANE_ANGLE_UNIT ( ) SI_UNIT ( $, .RADIAN. ) );
#67 = CARTESIAN_POINT ( 'NONE',  ( -30.00000000000000000, 3.491700314899934830E-21, -79.00000000000000000 ) ) ;
#68 = VERTEX_POINT ( 'NONE', #535 ) ;
#69 = LOCAL_TIME ( 13, 25, 34.00000000000000000, #42 ) ;
#70 = CARTESIAN_POINT ( 'NONE',  ( 29.69666554795253433, -4.272439526486151884, -66.43639732286379740 ) ) ;
#71 = CARTESIAN_POINT ( 'NONE',  ( 29.53480284501372566, -5.272734773690561205, 67.37342282905035518 ) ) ;
#72 = CARTESIAN_POINT ( 'NONE',  ( 0.000000000000000000, 0.000000000000000000, 225.0000000000000000 ) ) ;
#73 = CARTESIAN_POINT ( 'NONE',  ( 29.45499313990920243, 5.693876924881759116, 67.92172141441538713 ) ) ;
#74 = PERSON_AND_ORGANIZATION_ROLE ( 'design_owner' ) ;
#75 = CARTESIAN_POINT ( 'NONE',  ( 29.22782118389334016, -6.763074389668102704, 70.17970131006249801 ) ) ;
#76 = CARTESIAN_POINT ( 'NONE',  ( 29.94583722960371475, -1.815378435575234928, -78.76442365817619873 ) ) ;
#77 = CARTESIAN_POINT ( 'NONE',  ( -29.25626186901911652, 6.641033478012841051, -69.74041136175245015 ) ) ;
#78 = CARTESIAN_POINT ( 'NONE',  ( 29.33359325125220707, 6.290666989660176789, 68.89571662128203400 ) ) ;
#79 = CARTESIAN_POINT ( 'NONE',  ( 29.53454617951425831, -5.266143569644265554, 76.61734352013773730 ) ) ;
#80 = CARTESIAN_POINT ( 'NONE',  ( 29.25626186901913073, 6.641033478012849045, -74.25958863824753564 ) ) ;
#81 = DIRECTION ( 'NONE',  ( 1.000000000000000000, -0.000000000000000000, -0.000000000000000000 ) ) ;
#82 = PERSON_AND_ORGANIZATION ( #274, #105 ) ;
#83 = CIRCLE ( 'NONE', #417, 30.00000000000000000 ) ;
#84 = CARTESIAN_POINT ( 'NONE',  ( 29.37991682741333577, -6.073590668708181539, 68.48956466603172544 ) ) ;
#85 = CARTESIAN_POINT ( 'NONE',  ( 29.72171699898571973, -4.081204987884377466, -77.69174654790494117 ) ) ;
#86 = B_SPLINE_CURVE_WITH_KNOTS ( 'NONE', 3,
 ( #227, #142, #224, #441, #652, #499, #25, #655, #182, #392, #342, #285, #35, #291, #509, #239, #557, #92, #3, #161, #305, #118, #321, #207, #6, #363, #260, #582, #170, #472, #369, #468, #265, #209, #536, #366, #415, #478, #49, #633, #525, #527, #578, #115, #212, #422 ),
 .UNSPECIFIED., .F., .F.,
 ( 4, 2, 2, 2, 2, 2, 2, 2, 2, 2, 2, 2, 2, 2, 2, 2, 2, 2, 2, 2, 2, 2, 4 ),
 ( 6.054157389330979073E-18, 0.001372568374600575611, 0.002058852561900863850, 0.002745136749201152523, 0.004117705123801714689, 0.004803989311101986015, 0.005490273498402256473, 0.006862841873002827747, 0.008235410247603398154, 0.008921694434903702439, 0.009607978622204008459, 0.01098054699680465866, 0.01235311537140530887, 0.01372568374600595907, 0.01441196793330626509, 0.01509825212060657285, 0.01578453630790688234, 0.01647082049520718489, 0.01784338886980782468, 0.01921595724440846795, 0.02058852561900910774, 0.02127480980630942764, 0.02196109399360974754 ),
 .UNSPECIFIED. ) ;
#87 = CARTESIAN_POINT ( 'NONE',  ( -29.27596284319802322, 6.551808975670669888, -74.47524542511489187 ) ) ;
#88 = LINE ( 'NONE', #134, #332 ) ;
#89 = EDGE_CURVE ( 'NONE', #39, #320, #199, .T. ) ;
#90 = CARTESIAN_POINT ( 'NONE',  ( 29.18280211529150492, -6.955044132045336447, 71.08349424401477279 ) ) ;
#91 = CARTESIAN_POINT ( 'NONE',  ( -29.22473941005732812, 6.776651522873448741, -70.18707544220472982 ) ) ;
#92 = CARTESIAN_POINT ( 'NONE',  ( -29.27589544323971893, -6.552095380958706805, 74.47425936053110718 ) ) ;
#93 = CARTESIAN_POINT ( 'NONE',  ( 29.33449565364320222, 6.286506959063184574, -68.88680335883293537 ) ) ;
#94 = CARTESIAN_POINT ( 'NONE',  ( -30.00000000000000000, 3.491700314899934830E-21, 64.99999999999998579 ) ) ;
#95 = AXIS2_PLACEMENT_3D ( 'NONE', #106, #317, #642 ) ;
#96 = PERSON_AND_ORGANIZATION ( #274, #105 ) ;
#97 = LINE ( 'NONE', #296, #37 ) ;
#98 = CARTESIAN_POINT ( 'NONE',  ( -29.77119557252117943, 3.703062469860939121, 66.05528374034253147 ) ) ;
#99 = CARTESIAN_POINT ( 'NONE',  ( -29.84013671920505217, 3.099634142265740078, 65.71947546891198044 ) ) ;
#100 = UNCERTAINTY_MEASURE_WITH_UNIT (LENGTH_MEASURE( 1.000000000000000082E-05 ), #436, 'distance_accuracy_value', 'NONE');
#101 = ORIENTED_EDGE ( 'NONE', *, *, #293, .T. ) ;
#102 = DIRECTION ( 'NONE',  ( 1.000000000000000000, 0.000000000000000000, 0.000000000000000000 ) ) ;
#103 = CARTESIAN_POINT ( 'NONE',  ( -29.56224928715169398, 5.108835103415052536, 67.20919039557621488 ) ) ;
#104 = VERTEX_POINT ( 'NONE', #532 ) ;
#105 = ORGANIZATION ( 'UNSPECIFIED', 'UNSPECIFIED', '' ) ;
#106 = CARTESIAN_POINT ( 'NONE',  ( 0.000000000000000000, 0.000000000000000000, 225.0000000000000000 ) ) ;
#107 = CC_DESIGN_PERSON_AND_ORGANIZATION_ASSIGNMENT ( #516, #200, ( #591 ) ) ;
#108 = CARTESIAN_POINT ( 'NONE',  ( -29.72098680777660817, 4.086570380484011444, 77.68795230759916137 ) ) ;
#109 = ORIENTED_EDGE ( 'NONE', *, *, #347, .T. ) ;
#110 = CARTESIAN_POINT ( 'NONE',  ( -29.40542856034528185, -5.944527457668434600, -75.70329194623873548 ) ) ;
#111 = CARTESIAN_POINT ( 'NONE',  ( -30.00000000000000000, 0.000000000000000000, 64.99999999999998579 ) ) ;
#112 = CARTESIAN_POINT ( 'NONE',  ( 29.25828647065663546, 6.630034469863483437, 74.25724395899939623 ) ) ;
#113 = CARTESIAN_POINT ( 'NONE',  ( -29.53454617951426187, -5.266143569644276212, -76.61734352013772309 ) ) ;
#114 = CARTESIAN_POINT ( 'NONE',  ( -29.94805444634058844, 1.822329002495006289, -78.77449124292085969 ) ) ;
#115 = CARTESIAN_POINT ( 'NONE',  ( -29.99738103571201009, -0.4581788014460341230, 65.01119782738808794 ) ) ;
#116 = CARTESIAN_POINT ( 'NONE',  ( -30.00000000000000000, -3.275545941801647954E-15, -64.99999999999998579 ) ) ;
#117 = CARTESIAN_POINT ( 'NONE',  ( -29.79529565653303180, 3.504546757646893607, -78.06389909422678386 ) ) ;
#118 = CARTESIAN_POINT ( 'NONE',  ( -29.18280211529150492, -6.955044132045338223, 72.91650575598524142 ) ) ;
#119 = CARTESIAN_POINT ( 'NONE',  ( 29.79625831559249605, -3.511377574998152618, 65.92718523247408768 ) ) ;
#120 = CARTESIAN_POINT ( 'NONE',  ( -30.00000000000000000, 8.572527594031473190E-16, 79.00000000000000000 ) ) ;
#121 = ORIENTED_EDGE ( 'NONE', *, *, #202, .T. ) ;
#122 = CARTESIAN_POINT ( 'NONE',  ( 29.40542856034527830, -5.944527457668423054, -68.29670805376122189 ) ) ;
#123 = CARTESIAN_POINT ( 'NONE',  ( -29.37991682741334287, -6.073590668708180651, -68.48956466603172544 ) ) ;
#124 = CARTESIAN_POINT ( 'NONE',  ( 29.53480284501372566, -5.272734773690561205, -76.62657717094965903 ) ) ;
#125 = DIRECTION ( 'NONE',  ( 0.000000000000000000, 0.000000000000000000, -1.000000000000000000 ) ) ;
#126 = CARTESIAN_POINT ( 'NONE',  ( 29.94532507330369242, 1.823826519857446371, 65.23784062071975143 ) ) ;
#127 = APPROVAL_PERSON_ORGANIZATION ( #284, #522, #238 ) ;
#128 = CARTESIAN_POINT ( 'NONE',  ( 29.48142392475874729, -5.555837425143804964, -67.73563606332254494 ) ) ;
#129 = CARTESIAN_POINT ( 'NONE',  ( 29.91776697248830175, -2.259949102372529772, 78.64094170505946124 ) ) ;
#130 = CARTESIAN_POINT ( 'NONE',  ( 29.37941718395956769, 6.075958127082334848, -75.50615109019827287 ) ) ;
#131 = CARTESIAN_POINT ( 'NONE',  ( 29.18278964413910259, 6.955083610866863886, 71.08538900040980479 ) ) ;
#132 = CARTESIAN_POINT ( 'NONE',  ( 29.94792691651984384, -1.823467125453002602, -65.22607793780565544 ) ) ;
#133 = CARTESIAN_POINT ( 'NONE',  ( -29.20175390021751483, 6.874858826911776966, -73.37567152192534081 ) ) ;
#134 = CARTESIAN_POINT ( 'NONE',  ( -30.00000000000000000, 8.572527594031473190E-16, -64.99999999999998579 ) ) ;
#135 = CARTESIAN_POINT ( 'NONE',  ( 29.48142392475874729, -5.555837425143804964, 76.26436393667741243 ) ) ;
#136 = CARTESIAN_POINT ( 'NONE',  ( 29.79625831559249605, -3.511377574998152618, -78.07281476752592653 ) ) ;
#137 = CARTESIAN_POINT ( 'NONE',  ( -29.25828647065663191, 6.630034469863483437, -74.25724395899941044 ) ) ;
#138 = CARTESIAN_POINT ( 'NONE',  ( 29.37941718395956769, 6.075958127082334848, 68.49384890980171292 ) ) ;
#139 = EDGE_CURVE ( 'NONE', #524, #298, #356, .T. ) ;
#140 = DIRECTION ( 'NONE',  ( 1.000000000000000000, -0.000000000000000000, -0.000000000000000000 ) ) ;
#141 = CARTESIAN_POINT ( 'NONE',  ( 29.86093203185780709, 2.893009618164716024, -65.62171288211766296 ) ) ;
#142 = CARTESIAN_POINT ( 'NONE',  ( -30.00000000000000000, -0.4642298335292411315, 78.99999999999995737 ) ) ;
#143 = CARTESIAN_POINT ( 'NONE',  ( 29.56224928715169042, 5.108835103415050760, -67.20919039557622909 ) ) ;
#144 = DATE_AND_TIME ( #613, #653 ) ;
#145 = CARTESIAN_POINT ( 'NONE',  ( -30.00000000000000000, 0.000000000000000000, 225.0000000000000000 ) ) ;
#146 = CARTESIAN_POINT ( 'NONE',  ( -29.61522775578693967, 4.792159174452825354, 77.10752748656456390 ) ) ;
#147 = LINE ( 'NONE', #507, #674 ) ;
#148 = APPROVAL ( #397, 'UNSPECIFIED' ) ;
#149 = CARTESIAN_POINT ( 'NONE',  ( 29.56147340212218211, 5.113295891697255513, -76.78600372996685053 ) ) ;
#150 = CARTESIAN_POINT ( 'NONE',  ( 30.00000000000000000, 3.673940397442059178E-15, 225.0000000000000000 ) ) ;
#151 = CARTESIAN_POINT ( 'NONE',  ( -29.53497256772548951, 5.263776786568571175, 67.37989425745772110 ) ) ;
#152 = EDGE_LOOP ( 'NONE', ( #407, #618 ) ) ;
#153 = CARTESIAN_POINT ( 'NONE',  ( -29.48154198972151008, 5.555234697418578449, 67.73478129661714320 ) ) ;
#154 = ORIENTED_EDGE ( 'NONE', *, *, #398, .T. ) ;
#155 = DATE_AND_TIME ( #54, #664 ) ;
#156 = CARTESIAN_POINT ( 'NONE',  ( 29.94532507330369242, 1.823826519857446371, -78.76215937928024857 ) ) ;
#157 = AXIS2_PLACEMENT_3D ( 'NONE', #72, #368, #15 ) ;
#158 = CARTESIAN_POINT ( 'NONE',  ( 29.27596284319802677, 6.551808975670668111, 74.47524542511490608 ) ) ;
#159 = CARTESIAN_POINT ( 'NONE',  ( -29.98923849688061694, -0.9203879200270851380, -65.04572055312389978 ) ) ;
#160 = FACE_OUTER_BOUND ( 'NONE', #573, .T. ) ;
#161 = CARTESIAN_POINT ( 'NONE',  ( -29.22782118389332950, -6.763074389668098263, 73.82029868993750199 ) ) ;
#162 = CARTESIAN_POINT ( 'NONE',  ( -29.48142392475874729, -5.555837425143815622, -76.26436393667739821 ) ) ;
#163 = CARTESIAN_POINT ( 'NONE',  ( -30.00000000000000000, 3.491700314899934830E-21, 64.99999999999998579 ) ) ;
#164 = DIRECTION ( 'NONE',  ( -0.000000000000000000, -0.000000000000000000, -1.000000000000000000 ) ) ;
#165 = CARTESIAN_POINT ( 'NONE',  ( -29.25606111710761326, -6.641946052167150505, -74.25743588102071158 ) ) ;
#166 = ORIENTED_EDGE ( 'NONE', *, *, #614, .F. ) ;
#167 = CARTESIAN_POINT ( 'NONE',  ( 29.86093203185780709, 2.893009618164716024, 78.37828711788229441 ) ) ;
#168 = CARTESIAN_POINT ( 'NONE',  ( -29.91776697248829819, -2.259949102372535990, -78.64094170505944703 ) ) ;
#169 = ORIENTED_EDGE ( 'NONE', *, *, #514, .T. ) ;
#170 = CARTESIAN_POINT ( 'NONE',  ( -29.33590255762753429, -6.278299038924976649, 68.89590280308648573 ) ) ;
#171 = CARTESIAN_POINT ( 'NONE',  ( 29.64244960338861290, -4.621401892068654149, 66.73736200626208870 ) ) ;
#172 = VERTEX_POINT ( 'NONE', #500 ) ;
#173 = EDGE_CURVE ( 'NONE', #68, #203, #452, .T. ) ;
#174 = CARTESIAN_POINT ( 'NONE',  ( 29.25844644331737143, -6.629330138208355372, 69.74065397970669267 ) ) ;
#175 = CARTESIAN_POINT ( 'NONE',  ( 29.17473013807025950, 6.988252335738214249, -71.53404264921924494 ) ) ;
#176 = CARTESIAN_POINT ( 'NONE',  ( 29.56147340212218211, 5.113295891697255513, 67.21399627003312105 ) ) ;
#177 = VECTOR ( 'NONE', #601, 1000.000000000000000 ) ;
#178 = CARTESIAN_POINT ( 'NONE',  ( 29.25606111710760970, -6.641946052167150505, -69.74256411897927421 ) ) ;
#179 = CARTESIAN_POINT ( 'NONE',  ( 29.21459286030002289, -6.819802676884974879, 70.40518124283178736 ) ) ;
#180 = CARTESIAN_POINT ( 'NONE',  ( -29.53455008127246728, 5.266125606774985535, -67.38262488369718994 ) ) ;
#181 = DIRECTION ( 'NONE',  ( 1.000000000000000000, -0.000000000000000000, -0.000000000000000000 ) ) ;
#182 = CARTESIAN_POINT ( 'NONE',  ( -29.79625831559248539, -3.511377574998153950, 78.07281476752589811 ) ) ;
#183 = CARTESIAN_POINT ( 'NONE',  ( 29.45499313990920243, 5.693876924881759116, -76.07827858558462708 ) ) ;
#184 = CARTESIAN_POINT ( 'NONE',  ( 29.48106778824771723, -5.561893424139576325, 67.72483902250392873 ) ) ;
#185 = CARTESIAN_POINT ( 'NONE',  ( 29.17186234463823880, 7.000174810530241487, -72.45919695579064523 ) ) ;
#186 = CARTESIAN_POINT ( 'NONE',  ( 29.79603487614574675, 3.513511472903920740, 65.92820678526850031 ) ) ;
#187 = AXIS2_PLACEMENT_3D ( 'NONE', #479, #13, #4 ) ;
#188 = CARTESIAN_POINT ( 'NONE',  ( 30.00000000000000000, 3.673940397442059178E-15, 225.0000000000000000 ) ) ;
#189 = CARTESIAN_POINT ( 'NONE',  ( 29.33374606356879610, -6.289942242723668642, -75.10552405249511310 ) ) ;
#190 = CARTESIAN_POINT ( 'NONE',  ( 29.94805444634058489, 1.822329002495009842, -65.22550875707911189 ) ) ;
#191 = COORDINATED_UNIVERSAL_TIME_OFFSET ( 1, 0, .AHEAD. ) ;
#192 = CARTESIAN_POINT ( 'NONE',  ( -29.17186234463824590, 7.000174810530241487, 72.45919695579065944 ) ) ;
#193 = DIRECTION ( 'NONE',  ( 0.000000000000000000, 0.000000000000000000, 1.000000000000000000 ) ) ;
#194 = PRODUCT_DEFINITION_SHAPE ( 'NONE', 'NONE',  #591 ) ;
#195 = EDGE_CURVE ( 'NONE', #645, #104, #399, .T. ) ;
#196 = CARTESIAN_POINT ( 'NONE',  ( -29.98923918208215866, 0.9217442404527410593, 78.95429276732699009 ) ) ;
#197 = ORIENTED_EDGE ( 'NONE', *, *, #514, .F. ) ;
#198 = CARTESIAN_POINT ( 'NONE',  ( 29.84116887915851279, 3.111813537577497790, -78.28686426319069369 ) ) ;
#199 = CIRCLE ( 'NONE', #157, 30.00000000000000000 ) ;
#200 = PERSON_AND_ORGANIZATION_ROLE ( 'creator' ) ;
#201 = CARTESIAN_POINT ( 'NONE',  ( -29.37941718395957480, 6.075958127082346394, 75.50615109019828708 ) ) ;
#202 = EDGE_CURVE ( 'NONE', #57, #471, #548, .T. ) ;
#203 = VERTEX_POINT ( 'NONE', #640 ) ;
#204 = APPROVAL ( #638, 'UNSPECIFIED' ) ;
#205 = CARTESIAN_POINT ( 'NONE',  ( -29.18561386709547989, 6.942657455036947312, 71.07680206742156770 ) ) ;
#206 = ORIENTED_EDGE ( 'NONE', *, *, #202, .F. ) ;
#207 = CARTESIAN_POINT ( 'NONE',  ( -29.17185943173350537, -7.000186949816097126, 71.54452105779562032 ) ) ;
#208 = CARTESIAN_POINT ( 'NONE',  ( -29.56184033702572833, -5.111231553905870584, -76.78831948162016374 ) ) ;
#209 = CARTESIAN_POINT ( 'NONE',  ( -29.53454617951426187, -5.266143569644277989, 67.38265647986229112 ) ) ;
#210 = CARTESIAN_POINT ( 'NONE',  ( -29.38136968812098004, -6.061957847325403215, -75.50786620145390771 ) ) ;
#211 = CARTESIAN_POINT ( 'NONE',  ( -29.98953260958762357, 0.9136640371574782371, -78.95556127289171400 ) ) ;
#212 = CARTESIAN_POINT ( 'NONE',  ( -30.00000000000000355, -0.2288842376190403649, 65.00000000000000000 ) ) ;
#213 = CC_DESIGN_PERSON_AND_ORGANIZATION_ASSIGNMENT ( #318, #256, ( #26 ) ) ;
#214 = CARTESIAN_POINT ( 'NONE',  ( 29.94583722960371475, -1.815378435575234928, 65.23557634182380127 ) ) ;
#215 = CYLINDRICAL_SURFACE ( 'NONE', #59, 7.000000000000006217 ) ;
#216 = CARTESIAN_POINT ( 'NONE',  ( -29.48106778824772434, -5.561893424139577213, -67.72483902250395715 ) ) ;
#217 = CARTESIAN_POINT ( 'NONE',  ( -29.53497256772549662, 5.263776786568570287, -76.62010574254226469 ) ) ;
#218 = CARTESIAN_POINT ( 'NONE',  ( 29.48154198972151363, 5.555234697418578449, 76.26521870338281417 ) ) ;
#219 = AXIS2_PLACEMENT_3D ( 'NONE', #617, #512, #570 ) ;
#220 = CARTESIAN_POINT ( 'NONE',  ( 0.000000000000000000, 0.000000000000000000, 0.000000000000000000 ) ) ;
#221 = CARTESIAN_POINT ( 'NONE',  ( -29.89852106257612263, -2.474599957493586189, -65.44798165219992825 ) ) ;
#222 = ORIENTED_EDGE ( 'NONE', *, *, #293, .F. ) ;
#223 = CARTESIAN_POINT ( 'NONE',  ( 29.53454617951425831, -5.266143569644265554, -67.38265647986224849 ) ) ;
#224 = CARTESIAN_POINT ( 'NONE',  ( -29.98923849688061694, -0.9203879200270879135, 78.95427944687610022 ) ) ;
#225 = CARTESIAN_POINT ( 'NONE',  ( -29.77119557252117943, 3.703062469860937345, -77.94471625965748274 ) ) ;
#226 = DIRECTION ( 'NONE',  ( 0.000000000000000000, 0.000000000000000000, 1.000000000000000000 ) ) ;
#227 = CARTESIAN_POINT ( 'NONE',  ( -30.00000000000000000, 3.907319920744907716E-15, 79.00000000000000000 ) ) ;
#228 = CARTESIAN_POINT ( 'NONE',  ( 29.69655491097362798, 4.273365922960099539, -66.43694005581484419 ) ) ;
#229 = CARTESIAN_POINT ( 'NONE',  ( 29.53455008127246728, 5.266125606774986423, 67.38262488369718994 ) ) ;
#230 = LOCAL_TIME ( 13, 25, 34.00000000000000000, #511 ) ;
#231 = CARTESIAN_POINT ( 'NONE',  ( 29.22519098158571893, -6.774711463810649370, 73.82028271137608044 ) ) ;
#232 = CARTESIAN_POINT ( 'NONE',  ( 29.33359325125220707, 6.290666989660176789, -75.10428337871793758 ) ) ;
#233 = CYLINDRICAL_SURFACE ( 'NONE', #283, 7.000000000000006217 ) ;
#234 = CARTESIAN_POINT ( 'NONE',  ( 30.00000000000000000, 3.673943889151709458E-15, -64.99999999999998579 ) ) ;
#235 = CARTESIAN_POINT ( 'NONE',  ( 30.00000000000000000, 3.673943889151709458E-15, 79.00000000000000000 ) ) ;
#236 = CARTESIAN_POINT ( 'NONE',  ( 29.25844644331737143, -6.629330138208355372, -74.25934602029330733 ) ) ;
#237 = CARTESIAN_POINT ( 'NONE',  ( -29.95822596205804444, 1.598661001434173334, -65.18111203442090584 ) ) ;
#238 = APPROVAL_ROLE ( '' ) ;
#239 = CARTESIAN_POINT ( 'NONE',  ( -29.37991682741333932, -6.073590668708180651, 75.51043533396827456 ) ) ;
#240 = CARTESIAN_POINT ( 'NONE',  ( 29.48154198972151363, 5.555234697418578449, -67.73478129661714320 ) ) ;
#241 = CARTESIAN_POINT ( 'NONE',  ( -29.27596284319802677, 6.551808975670669000, 69.52475457488510813 ) ) ;
#242 = ORIENTED_EDGE ( 'NONE', *, *, #89, .F. ) ;
#243 = CARTESIAN_POINT ( 'NONE',  ( -29.69655491097362798, 4.273365922960099539, 66.43694005581484419 ) ) ;
#244 = DATE_AND_TIME ( #461, #230 ) ;
#245 = CARTESIAN_POINT ( 'NONE',  ( 0.000000000000000000, 0.000000000000000000, -225.0000000000000000 ) ) ;
#246 = CARTESIAN_POINT ( 'NONE',  ( -29.64206009829797495, 4.623852063455458072, 77.26042230090254748 ) ) ;
#247 = CYLINDRICAL_SURFACE ( 'NONE', #294, 30.00000000000000000 ) ;
#248 = DIRECTION ( 'NONE',  ( 1.000000000000000000, 0.000000000000000000, -0.000000000000000000 ) ) ;
#249 = CARTESIAN_POINT ( 'NONE',  ( 29.64206009829797139, 4.623852063455458961, -77.26042230090256169 ) ) ;
#250 = EDGE_LOOP ( 'NONE', ( #254, #620, #64, #357, #421, #565, #480, #513, #632, #197, #121, #477 ) ) ;
#251 = CARTESIAN_POINT ( 'NONE',  ( 29.56224928715169042, 5.108835103415050760, 76.79080960442375670 ) ) ;
#252 = APPROVAL_ROLE ( '' ) ;
#253 = CARTESIAN_POINT ( 'NONE',  ( -29.53480284501372211, -5.272734773690567422, -67.37342282905034097 ) ) ;
#254 = ORIENTED_EDGE ( 'NONE', *, *, #550, .F. ) ;
#255 = CARTESIAN_POINT ( 'NONE',  ( 29.17473013807025950, 6.988252335738214249, 72.46595735078075506 ) ) ;
#256 = PERSON_AND_ORGANIZATION_ROLE ( 'design_supplier' ) ;
#257 = CARTESIAN_POINT ( 'NONE',  ( 29.95851245565922483, -1.593083905712492587, 65.17985610074805436 ) ) ;
#258 = ORIENTED_EDGE ( 'NONE', *, *, #51, .F. ) ;
#259 = CIRCLE ( 'NONE', #302, 30.00000000000000000 ) ;
#260 = CARTESIAN_POINT ( 'NONE',  ( -29.25606111710760970, -6.641946052167150505, 69.74256411897927421 ) ) ;
#261 = PERSON_AND_ORGANIZATION ( #274, #105 ) ;
#262 = EDGE_CURVE ( 'NONE', #298, #524, #288, .T. ) ;
#263 = CARTESIAN_POINT ( 'NONE',  ( -29.95851245565923548, -1.593083905712493920, -65.17985610074806857 ) ) ;
#264 = DIRECTION ( 'NONE',  ( 1.000000000000000000, -0.000000000000000000, -0.000000000000000000 ) ) ;
#265 = CARTESIAN_POINT ( 'NONE',  ( -29.48142392475874729, -5.555837425143814734, 67.73563606332257336 ) ) ;
#266 = CALENDAR_DATE ( 2026, 28, 1 ) ;
#267 = CARTESIAN_POINT ( 'NONE',  ( -29.22519098158571893, -6.774711463810648482, -73.82028271137608044 ) ) ;
#268 = CARTESIAN_POINT ( 'NONE',  ( -30.00000000000000000, 0.000000000000000000, 225.0000000000000000 ) ) ;
#269 = CARTESIAN_POINT ( 'NONE',  ( 29.79529565653302825, 3.504546757646897159, 78.06389909422675544 ) ) ;
#270 = FACE_OUTER_BOUND ( 'NONE', #641, .T. ) ;
#271 = ADVANCED_FACE ( 'NONE', ( #270 ), #426, .F. ) ;
#272 = EDGE_LOOP ( 'NONE', ( #48, #5 ) ) ;
#273 = CARTESIAN_POINT ( 'NONE',  ( 29.84116887915851279, 3.111813537577497790, 65.71313573680927789 ) ) ;
#274 = PERSON ( 'UNSPECIFIED', 'UNSPECIFIED', 'UNSPECIFIED', ('UNSPECIFIED'), ('UNSPECIFIED'), ('UNSPECIFIED') ) ;
#275 = CARTESIAN_POINT ( 'NONE',  ( -30.00000000000000711, 0.4576465071674203355, -79.00000000000001421 ) ) ;
#276 = CARTESIAN_POINT ( 'NONE',  ( 29.99999999999999645, 0.4641061438909204195, 64.99999999999998579 ) ) ;
#277 = CARTESIAN_POINT ( 'NONE',  ( 29.94792691651984384, -1.823467125453002602, 78.77392206219437298 ) ) ;
#278 = CARTESIAN_POINT ( 'NONE',  ( 29.77119557252117943, 3.703062469860938233, -66.05528374034253147 ) ) ;
#279 = CARTESIAN_POINT ( 'NONE',  ( -30.00000000000000000, 0.000000000000000000, 72.00000000000000000 ) ) ;
#280 = CARTESIAN_POINT ( 'NONE',  ( -29.84116887915851635, 3.111813537577488020, -65.71313573680929210 ) ) ;
#281 = CARTESIAN_POINT ( 'NONE',  ( -30.00000000000000000, 0.000000000000000000, -79.00000000000000000 ) ) ;
#282 = CLOSED_SHELL ( 'NONE', ( #271, #9, #561, #388, #450, #630, #34, #311 ) ) ;
#283 = AXIS2_PLACEMENT_3D ( 'NONE', #279, #140, #345 ) ;
#284 = PERSON_AND_ORGANIZATION ( #274, #105 ) ;
#285 = CARTESIAN_POINT ( 'NONE',  ( -29.64244960338861290, -4.621401892068654149, 77.26263799373792551 ) ) ;
#286 = CARTESIAN_POINT ( 'NONE',  ( -30.00000000000000000, -3.275545941801647954E-15, -64.99999999999998579 ) ) ;
#287 = CARTESIAN_POINT ( 'NONE',  ( 29.33590255762754495, -6.278299038924978426, 75.10409719691351427 ) ) ;
#288 = B_SPLINE_CURVE_WITH_KNOTS ( 'NONE', 3,
 ( #116, #324, #159, #263, #541, #470, #221, #634, #631, #420, #310, #375, #580, #253, #216, #123, #588, #370, #328, #679, #537, #63, #432, #364, #367, #267, #165, #379, #576, #210, #110, #531, #162, #113, #208, #314, #418, #644, #628, #168, #481, #585, #60, #528, #56, #67 ),
 .UNSPECIFIED., .F., .F.,
 ( 4, 2, 2, 2, 2, 2, 2, 2, 2, 2, 2, 2, 2, 2, 2, 2, 2, 2, 2, 2, 2, 2, 4 ),
 ( 5.440506867723053945E-18, 0.001372568374600595343, 0.002058852561900894641, 0.002745136749201193289, 0.004117705123801774537, 0.004803989311102052802, 0.005490273498402330199, 0.006862841873002918820, 0.008235410247603505707, 0.008921694434903818666, 0.009607978622204131625, 0.01098054699680479744, 0.01235311537140546499, 0.01372568374600613081, 0.01441196793330644724, 0.01509825212060676193, 0.01578453630790707662, 0.01647082049520739305, 0.01784338886980798775, 0.01921595724440858591, 0.02058852561900918754, 0.02127480980630948662, 0.02196109399360978570 ),
 .UNSPECIFIED. ) ;
#289 = CARTESIAN_POINT ( 'NONE',  ( -30.00000000000000000, 0.4641061438909223069, -64.99999999999997158 ) ) ;
#290 = CARTESIAN_POINT ( 'NONE',  ( 0.000000000000000000, 0.000000000000000000, 225.0000000000000000 ) ) ;
#291 = CARTESIAN_POINT ( 'NONE',  ( -29.53480284501372566, -5.272734773690567422, 76.62657717094964482 ) ) ;
#292 = CARTESIAN_POINT ( 'NONE',  ( 29.25828647065663546, 6.630034469863483437, -69.74275604100057535 ) ) ;
#293 = EDGE_CURVE ( 'NONE', #172, #623, #14, .T. ) ;
#294 = AXIS2_PLACEMENT_3D ( 'NONE', #290, #46, #518 ) ;
#295 = CARTESIAN_POINT ( 'NONE',  ( -29.64321055773967828, 4.624627979400986355, 66.72543583117608534 ) ) ;
#296 = CARTESIAN_POINT ( 'NONE',  ( 30.00000000000000000, 3.673940397442059178E-15, 225.0000000000000000 ) ) ;
#297 = CARTESIAN_POINT ( 'NONE',  ( 29.95822596205804089, 1.598661001434176443, -78.81888796557909416 ) ) ;
#298 = VERTEX_POINT ( 'NONE', #662 ) ;
#299 = CARTESIAN_POINT ( 'NONE',  ( 29.72098680777660107, 4.086570380484011444, -77.68795230759914716 ) ) ;
#300 = CARTESIAN_POINT ( 'NONE',  ( -30.00000000000000000, 3.491700314899934830E-21, -79.00000000000000000 ) ) ;
#301 = CC_DESIGN_PERSON_AND_ORGANIZATION_ASSIGNMENT ( #261, #583, ( #455 ) ) ;
#302 = AXIS2_PLACEMENT_3D ( 'NONE', #457, #193, #102 ) ;
#303 = CARTESIAN_POINT ( 'NONE',  ( 29.69488148641821823, 4.271504217884735333, -77.55034254845114106 ) ) ;
#304 = ORIENTED_EDGE ( 'NONE', *, *, #51, .T. ) ;
#305 = CARTESIAN_POINT ( 'NONE',  ( -29.21459286030002289, -6.819802676884974879, 73.59481875716824106 ) ) ;
#306 = APPLICATION_CONTEXT ( 'configuration controlled 3d designs of mechanical parts and assemblies' ) ;
#307 = CARTESIAN_POINT ( 'NONE',  ( -29.89804846492607027, 2.480198355113734987, 78.54985706396709588 ) ) ;
#308 = CARTESIAN_POINT ( 'NONE',  ( 29.20175345616448581, 6.874859137870999781, 73.37567160612891826 ) ) ;
#309 = CARTESIAN_POINT ( 'NONE',  ( 29.95851245565922483, -1.593083905712492587, -78.82014389925190301 ) ) ;
#310 = CARTESIAN_POINT ( 'NONE',  ( -29.69559135477494394, -4.266617867546197651, -66.44584065105389925 ) ) ;
#311 = ADVANCED_FACE ( 'NONE', ( #17 ), #233, .F. ) ;
#312 = CARTESIAN_POINT ( 'NONE',  ( -29.64321055773966762, 4.624627979400973032, -77.27456416882391466 ) ) ;
#313 = CARTESIAN_POINT ( 'NONE',  ( 29.17192544664358422, 6.999911838273017217, 72.23358416460162346 ) ) ;
#314 = CARTESIAN_POINT ( 'NONE',  ( -29.64329748317490854, -4.624206176391266965, -77.27517611659085617 ) ) ;
#315 = LINE ( 'NONE', #111, #344 ) ;
#316 = AXIS2_PLACEMENT_3D ( 'NONE', #245, #463, #248 ) ;
#317 = DIRECTION ( 'NONE',  ( -0.000000000000000000, -0.000000000000000000, -1.000000000000000000 ) ) ;
#318 = PERSON_AND_ORGANIZATION ( #274, #105 ) ;
#319 = CARTESIAN_POINT ( 'NONE',  ( 30.00000000000000711, -0.4642298335292426859, 64.99999999999998579 ) ) ;
#320 = VERTEX_POINT ( 'NONE', #188 ) ;
#321 = CARTESIAN_POINT ( 'NONE',  ( -29.17194943272757257, -6.999811878299331269, 72.46120718509882863 ) ) ;
#322 = CC_DESIGN_PERSON_AND_ORGANIZATION_ASSIGNMENT ( #82, #74, ( #647 ) ) ;
#323 = CARTESIAN_POINT ( 'NONE',  ( 0.000000000000000000, 0.000000000000000000, -225.0000000000000000 ) ) ;
#324 = CARTESIAN_POINT ( 'NONE',  ( -30.00000000000000355, -0.4642298335292430189, -64.99999999999995737 ) ) ;
#325 = CARTESIAN_POINT ( 'NONE',  ( -30.00000000000000000, 0.000000000000000000, -72.00000000000000000 ) ) ;
#326 = CARTESIAN_POINT ( 'NONE',  ( 29.48137610991934210, 5.556094858351494636, 67.73595945188324663 ) ) ;
#327 = CARTESIAN_POINT ( 'NONE',  ( 29.17194943272756902, -6.999811878299330381, -72.46120718509885705 ) ) ;
#328 = CARTESIAN_POINT ( 'NONE',  ( -29.25844644331737143, -6.629330138208350043, -69.74065397970666424 ) ) ;
#329 = CARTESIAN_POINT ( 'NONE',  ( 29.69559135477495460, -4.266617867546201204, -77.55415934894608654 ) ) ;
#330 = DIRECTION ( 'NONE',  ( 0.000000000000000000, 0.000000000000000000, -1.000000000000000000 ) ) ;
#331 = CARTESIAN_POINT ( 'NONE',  ( 29.17186234463823880, 7.000174810530241487, 71.54080304420932634 ) ) ;
#332 = VECTOR ( 'NONE', #181, 1000.000000000000000 ) ;
#333 = APPLICATION_PROTOCOL_DEFINITION ( 'international standard', 'config_control_design', 1994, #380 ) ;
#334 = CARTESIAN_POINT ( 'NONE',  ( 29.18299114615944134, -6.954245544358260034, 72.92120219061584407 ) ) ;
#335 = CARTESIAN_POINT ( 'NONE',  ( 30.00000000000000000, 0.4576465071674268303, -64.99999999999998579 ) ) ;
#336 = CARTESIAN_POINT ( 'NONE',  ( 29.72098680777660107, 4.086570380484011444, 66.31204769240083863 ) ) ;
#337 =( NAMED_UNIT ( * ) SI_UNIT ( $, .STERADIAN. ) SOLID_ANGLE_UNIT ( ) );
#338 = CARTESIAN_POINT ( 'NONE',  ( 29.99738103571201009, -0.4581788014460312364, 78.98880217261191206 ) ) ;
#339 = CARTESIAN_POINT ( 'NONE',  ( -29.64206009829797139, 4.623852063455445638, -66.73957769909742410 ) ) ;
#340 = DIRECTION ( 'NONE',  ( -0.000000000000000000, -0.000000000000000000, -1.000000000000000000 ) ) ;
#341 = CARTESIAN_POINT ( 'NONE',  ( 29.17185943173350537, -7.000186949816097126, -71.54452105779562032 ) ) ;
#342 = CARTESIAN_POINT ( 'NONE',  ( -29.69559135477495104, -4.266617867546200316, 77.55415934894608654 ) ) ;
#343 = CARTESIAN_POINT ( 'NONE',  ( -29.33359325125220352, 6.290666989660169683, -68.89571662128203400 ) ) ;
#344 = VECTOR ( 'NONE', #487, 1000.000000000000000 ) ;
#345 = DIRECTION ( 'NONE',  ( 0.000000000000000000, 0.000000000000000000, -1.000000000000000000 ) ) ;
#346 = CARTESIAN_POINT ( 'NONE',  ( -29.18561386709546923, 6.942657455036947312, -72.92319793257841809 ) ) ;
#347 = EDGE_CURVE ( 'NONE', #471, #57, #86, .T. ) ;
#348 = CARTESIAN_POINT ( 'NONE',  ( -29.17192544664358422, 6.999911838273018105, -72.23358416460160925 ) ) ;
#349 = CARTESIAN_POINT ( 'NONE',  ( -29.79603487614574675, 3.513511472903920296, 78.07179321473147127 ) ) ;
#350 = EDGE_LOOP ( 'NONE', ( #462, #242, #562, #109, #169, #52, #492, #434, #672, #539, #166, #101 ) ) ;
#351 = DIRECTION ( 'NONE',  ( -0.000000000000000000, -0.000000000000000000, -1.000000000000000000 ) ) ;
#352 = CC_DESIGN_APPROVAL ( #148, ( #455 ) ) ;
#353 = CARTESIAN_POINT ( 'NONE',  ( -29.22473941005733167, 6.776651522873448741, 73.81292455779524175 ) ) ;
#354 = CARTESIAN_POINT ( 'NONE',  ( 30.00000000000000000, 3.673943889151709458E-15, 79.00000000000000000 ) ) ;
#355 = CARTESIAN_POINT ( 'NONE',  ( -29.20175390021751127, 6.874858826911777854, 70.62432847807464498 ) ) ;
#356 = B_SPLINE_CURVE_WITH_KNOTS ( 'NONE', 3,
 ( #482, #275, #211, #114, #581, #372, #61, #117, #225, #10, #312, #542, #217, #438, #428, #376, #590, #87, #137, #454, #133, #346, #663, #348, #556, #496, #91, #77, #343, #660, #401, #552, #180, #384, #22, #339, #549, #612, #396, #280, #610, #510, #598, #237, #33, #289, #286 ),
 .UNSPECIFIED., .F., .F.,
 ( 4, 2, 2, 2, 2, 2, 2, 2, 2, 2, 1, 2, 2, 2, 2, 2, 2, 2, 2, 2, 2, 2, 2, 4 ),
 ( 0.02196109399360978570, 0.02333329666037866484, 0.02470549932714754399, 0.02539160066053198356, 0.02607770199391642313, 0.02744990466068529880, 0.02813600599406975225, 0.02882210732745420570, 0.03019430999422314729, 0.03088041132760761809, 0.03156651266099208542, 0.03225261399437655968, 0.03293871532776103395, 0.03431091799452997554, 0.03568312066129891713, 0.03705532332806785872, 0.03774142466145233299, 0.03842752599483680032, 0.03911362732822126764, 0.03979972866160574191, 0.04117193132837468350, 0.04185803266175915083, 0.04254413399514361815, 0.04391633666191255281 ),
 .UNSPECIFIED. ) ;
#357 = ORIENTED_EDGE ( 'NONE', *, *, #614, .T. ) ;
#358 = COORDINATED_UNIVERSAL_TIME_OFFSET ( 1, 0, .AHEAD. ) ;
#359 = CARTESIAN_POINT ( 'NONE',  ( 29.98923918208215511, 0.9217442404527304012, -78.95429276732697588 ) ) ;
#360 = EDGE_CURVE ( 'NONE', #320, #623, #419, .T. ) ;
#361 = VECTOR ( 'NONE', #408, 1000.000000000000000 ) ;
#362 = CARTESIAN_POINT ( 'NONE',  ( -29.38044811834151915, 6.070900775625831081, 68.48555500467310253 ) ) ;
#363 = CARTESIAN_POINT ( 'NONE',  ( -29.22519098158572604, -6.774711463810651146, 70.17971728862389114 ) ) ;
#364 = CARTESIAN_POINT ( 'NONE',  ( -29.17185943173350182, -7.000186949816097126, -72.45547894220437968 ) ) ;
#365 = ORIENTED_EDGE ( 'NONE', *, *, #636, .F. ) ;
#366 = CARTESIAN_POINT ( 'NONE',  ( -29.64329748317490498, -4.624206176391266965, 66.72482388340912962 ) ) ;
#367 = CARTESIAN_POINT ( 'NONE',  ( -29.18299114615944134, -6.954245544358258257, -72.92120219061582986 ) ) ;
#368 = DIRECTION ( 'NONE',  ( 0.000000000000000000, 0.000000000000000000, 1.000000000000000000 ) ) ;
#369 = CARTESIAN_POINT ( 'NONE',  ( -29.40542856034527830, -5.944527457668423054, 68.29670805376122189 ) ) ;
#370 = CARTESIAN_POINT ( 'NONE',  ( -29.27589544323971538, -6.552095380958704141, -69.52574063946887861 ) ) ;
#371 = VECTOR ( 'NONE', #81, 1000.000000000000000 ) ;
#372 = CARTESIAN_POINT ( 'NONE',  ( -29.86093203185781775, 2.893009618164716024, -78.37828711788233704 ) ) ;
#373 = CARTESIAN_POINT ( 'NONE',  ( 29.84013671920504862, 3.099634142265741854, 78.28052453108800535 ) ) ;
#374 = CARTESIAN_POINT ( 'NONE',  ( 29.97888455654712914, -1.147745827230590043, -65.09091593395709197 ) ) ;
#375 = CARTESIAN_POINT ( 'NONE',  ( -29.64244960338861645, -4.621401892068654149, -66.73736200626208870 ) ) ;
#376 = CARTESIAN_POINT ( 'NONE',  ( -29.38044811834151915, 6.070900775625831969, -75.51444499532689747 ) ) ;
#377 = CARTESIAN_POINT ( 'NONE',  ( 29.91768386219365894, 2.260809184769926983, 78.64055318974318709 ) ) ;
#378 = DIRECTION ( 'NONE',  ( 0.000000000000000000, 0.000000000000000000, 1.000000000000000000 ) ) ;
#379 = CARTESIAN_POINT ( 'NONE',  ( -29.31439582811124822, -6.377643537763173498, -74.89456886849013983 ) ) ;
#380 = APPLICATION_CONTEXT ( 'configuration controlled 3d designs of mechanical parts and assemblies' ) ;
#381 = CARTESIAN_POINT ( 'NONE',  ( 29.48106778824771723, -5.561893424139576325, -76.27516097749607127 ) ) ;
#382 = ORIENTED_EDGE ( 'NONE', *, *, #439, .F. ) ;
#383 = CARTESIAN_POINT ( 'NONE',  ( 29.17194943272756902, -6.999811878299330381, 71.53879281490114295 ) ) ;
#384 = CARTESIAN_POINT ( 'NONE',  ( -29.56147340212218566, 5.113295891697257289, -67.21399627003313526 ) ) ;
#385 = LOCAL_TIME ( 13, 25, 34.00000000000000000, #358 ) ;
#386 = CARTESIAN_POINT ( 'NONE',  ( 29.98684362019209715, -0.9176091291687671347, 78.94343410050571208 ) ) ;
#387 = LINE ( 'NONE', #120, #177 ) ;
#388 = ADVANCED_FACE ( 'NONE', ( #65 ), #62, .T. ) ;
#389 = CARTESIAN_POINT ( 'NONE',  ( 29.91768386219365894, 2.260809184769926983, -65.35944681025682712 ) ) ;
#390 = LINE ( 'NONE', #451, #410 ) ;
#391 = CARTESIAN_POINT ( 'NONE',  ( 29.31439582811125177, -6.377643537763169945, -69.10543113150986017 ) ) ;
#392 = CARTESIAN_POINT ( 'NONE',  ( -29.72171699898571973, -4.081204987884381907, 77.69174654790495538 ) ) ;
#393 = CARTESIAN_POINT ( 'NONE',  ( 29.48137610991934210, 5.556094858351494636, -76.26404054811675337 ) ) ;
#394 = EDGE_CURVE ( 'NONE', #623, #172, #474, .T. ) ;
#395 = CARTESIAN_POINT ( 'NONE',  ( 29.17185943173350537, -7.000186949816097126, 72.45547894220436547 ) ) ;
#396 = CARTESIAN_POINT ( 'NONE',  ( -29.79603487614575386, 3.513511472903915411, -65.92820678526848610 ) ) ;
#397 = APPROVAL_STATUS ( 'not_yet_approved' ) ;
#398 = EDGE_CURVE ( 'NONE', #298, #68, #88, .T. ) ;
#399 = CIRCLE ( 'NONE', #219, 30.00000000000000000 ) ;
#400 = CARTESIAN_POINT ( 'NONE',  ( 29.27589544323971538, -6.552095380958703252, -74.47425936053110718 ) ) ;
#401 = CARTESIAN_POINT ( 'NONE',  ( -29.45499313990919177, 5.693876924881767998, -67.92172141441538713 ) ) ;
#402 = CARTESIAN_POINT ( 'NONE',  ( -29.98953260958762712, 0.9136640371574784592, 65.04443872710825758 ) ) ;
#403 = LINE ( 'NONE', #150, #639 ) ;
#404 = DATE_AND_TIME ( #508, #69 ) ;
#405 = CARTESIAN_POINT ( 'NONE',  ( -30.00000000000000711, 0.4641061438909188652, 78.99999999999998579 ) ) ;
#406 = MANIFOLD_SOLID_BREP ( 'Cut-Extrude1', #282 ) ;
#407 = ORIENTED_EDGE ( 'NONE', *, *, #195, .F. ) ;
#408 = DIRECTION ( 'NONE',  ( -0.000000000000000000, -0.000000000000000000, -1.000000000000000000 ) ) ;
#409 = DATE_TIME_ROLE ( 'creation_date' ) ;
#410 = VECTOR ( 'NONE', #340, 1000.000000000000000 ) ;
#411 = CARTESIAN_POINT ( 'NONE',  ( -29.79529565653302470, 3.504546757646895383, 65.93610090577323035 ) ) ;
#412 = CARTESIAN_POINT ( 'NONE',  ( -29.48137610991934210, 5.556094858351498189, 76.26404054811678179 ) ) ;
#413 = ORIENTED_EDGE ( 'NONE', *, *, #439, .T. ) ;
#414 = CARTESIAN_POINT ( 'NONE',  ( -29.33359325125221417, 6.290666989660175012, 75.10428337871795179 ) ) ;
#415 = CARTESIAN_POINT ( 'NONE',  ( -29.69666554795254143, -4.272439526486157213, 66.43639732286381161 ) ) ;
#416 = EDGE_CURVE ( 'NONE', #524, #645, #390, .T. ) ;
#417 = AXIS2_PLACEMENT_3D ( 'NONE', #323, #587, #643 ) ;
#418 = CARTESIAN_POINT ( 'NONE',  ( -29.69666554795254498, -4.272439526486166095, -77.56360267713618839 ) ) ;
#419 = LINE ( 'NONE', #429, #444 ) ;
#420 = CARTESIAN_POINT ( 'NONE',  ( -29.72171699898570552, -4.081204987884377466, -66.30825345209503041 ) ) ;
#421 = ORIENTED_EDGE ( 'NONE', *, *, #173, .T. ) ;
#422 = CARTESIAN_POINT ( 'NONE',  ( -30.00000000000000000, 3.491700314899934830E-21, 64.99999999999998579 ) ) ;
#423 = CARTESIAN_POINT ( 'NONE',  ( 29.89852106257611197, -2.474599957493583968, 65.44798165219991404 ) ) ;
#424 = CARTESIAN_POINT ( 'NONE',  ( -30.00000000000000000, 0.000000000000000000, -72.00000000000000000 ) ) ;
#425 = CARTESIAN_POINT ( 'NONE',  ( 29.98953260958762712, 0.9136640371574825670, 78.95556127289174242 ) ) ;
#426 = CYLINDRICAL_SURFACE ( 'NONE', #187, 7.000000000000006217 ) ;
#427 = AXIS2_PLACEMENT_3D ( 'NONE', #220, #378, #544 ) ;
#428 = CARTESIAN_POINT ( 'NONE',  ( -29.45549980305276350, 5.691236536805632795, -76.08186435900272215 ) ) ;
#429 = CARTESIAN_POINT ( 'NONE',  ( 30.00000000000000000, 3.673940397442059178E-15, 225.0000000000000000 ) ) ;
#430 = DATE_AND_TIME ( #266, #385 ) ;
#431 = CARTESIAN_POINT ( 'NONE',  ( 29.84185730817031157, -3.105431204233705333, -65.70986695601085614 ) ) ;
#432 = CARTESIAN_POINT ( 'NONE',  ( -29.17194943272757968, -6.999811878299332157, -71.53879281490117137 ) ) ;
#433 = CARTESIAN_POINT ( 'NONE',  ( 29.84140395181174554, -3.109893390541675462, -78.28799814071295771 ) ) ;
#434 = ORIENTED_EDGE ( 'NONE', *, *, #195, .T. ) ;
#435 = CARTESIAN_POINT ( 'NONE',  ( 29.69488148641821823, 4.271504217884735333, 66.44965745154884473 ) ) ;
#436 =( LENGTH_UNIT ( ) NAMED_UNIT ( * ) SI_UNIT ( .MILLI., .METRE. ) );
#437 = CARTESIAN_POINT ( 'NONE',  ( 29.27589544323971538, -6.552095380958703252, 69.52574063946886440 ) ) ;
#438 = CARTESIAN_POINT ( 'NONE',  ( -29.48154198972151008, 5.555234697418579337, -76.26521870338284259 ) ) ;
#439 = EDGE_CURVE ( 'NONE', #524, #203, #546, .T. ) ;
#440 = CARTESIAN_POINT ( 'NONE',  ( 29.91776697248830175, -2.259949102372529772, -65.35905829494055297 ) ) ;
#441 = CARTESIAN_POINT ( 'NONE',  ( -29.95851245565923193, -1.593083905712495474, 78.82014389925191722 ) ) ;
#442 = CARTESIAN_POINT ( 'NONE',  ( 29.38044811834151560, 6.070900775625831081, -68.48555500467310253 ) ) ;
#443 = CARTESIAN_POINT ( 'NONE',  ( 29.61522775578694322, 4.792159174452826242, 66.89247251343545031 ) ) ;
#444 = VECTOR ( 'NONE', #164, 1000.000000000000000 ) ;
#445 = CARTESIAN_POINT ( 'NONE',  ( 29.18280211529150492, -6.955044132045336447, -72.91650575598522721 ) ) ;
#446 = CARTESIAN_POINT ( 'NONE',  ( 29.33374606356879610, -6.289942242723668642, 68.89447594750491533 ) ) ;
#447 = CARTESIAN_POINT ( 'NONE',  ( 29.98953260958762712, 0.9136640371574825670, -65.04443872710825758 ) ) ;
#448 = DIRECTION ( 'NONE',  ( 1.000000000000000000, 0.000000000000000000, -0.000000000000000000 ) ) ;
#449 = CARTESIAN_POINT ( 'NONE',  ( 29.45549980305276705, 5.691236536805631019, -67.91813564099726364 ) ) ;
#450 = ADVANCED_FACE ( 'NONE', ( #501 ), #28, .T. ) ;
#451 = CARTESIAN_POINT ( 'NONE',  ( -30.00000000000000000, 0.000000000000000000, 225.0000000000000000 ) ) ;
#452 = B_SPLINE_CURVE_WITH_KNOTS ( 'NONE', 3,
 ( #234, #335, #447, #190, #389, #141, #506, #545, #278, #228, #36, #143, #558, #240, #449, #442, #93, #603, #292, #650, #504, #30, #175, #27, #185, #654, #657, #80, #232, #130, #183, #393, #607, #149, #675, #249, #303, #299, #521, #198, #50, #622, #156, #297, #359, #564, #467 ),
 .UNSPECIFIED., .F., .F.,
 ( 4, 2, 2, 2, 2, 2, 2, 2, 2, 2, 1, 2, 2, 2, 2, 2, 2, 2, 2, 2, 2, 2, 2, 4 ),
 ( 0.02196109399360977876, 0.02333329666037867872, 0.02470549932714757521, 0.02539160066053202519, 0.02607770199391647170, 0.02744990466068536819, 0.02813600599406981817, 0.02882210732745426468, 0.03019430999422319586, 0.03088041132760765972, 0.03156651266099212705, 0.03225261399437659438, 0.03293871532776106170, 0.03431091799452999636, 0.03568312066129892407, 0.03705532332806785872, 0.03774142466145232605, 0.03842752599483679338, 0.03911362732822125376, 0.03979972866160572109, 0.04117193132837465575, 0.04185803266175912307, 0.04254413399514359040, 0.04391633666191251811 ),
 .UNSPECIFIED. ) ;
#453 = CARTESIAN_POINT ( 'NONE',  ( 29.21459286030002289, -6.819802676884974879, -73.59481875716825527 ) ) ;
#454 = CARTESIAN_POINT ( 'NONE',  ( -29.22773066332087666, 6.763463945565133528, -73.81880807647694098 ) ) ;
#455 = SECURITY_CLASSIFICATION ( '', '', #621 ) ;
#456 = CARTESIAN_POINT ( 'NONE',  ( -29.94532507330369597, 1.823826519857451478, 78.76215937928024857 ) ) ;
#457 = CARTESIAN_POINT ( 'NONE',  ( 0.000000000000000000, 0.000000000000000000, 225.0000000000000000 ) ) ;
#458 = CARTESIAN_POINT ( 'NONE',  ( -29.18278964413909549, 6.955083610866861221, 72.91461099959016678 ) ) ;
#459 = ORIENTED_EDGE ( 'NONE', *, *, #347, .F. ) ;
#460 = CARTESIAN_POINT ( 'NONE',  ( -29.84116887915851635, 3.111813537577502231, 78.28686426319070790 ) ) ;
#461 = CALENDAR_DATE ( 2026, 28, 1 ) ;
#462 = ORIENTED_EDGE ( 'NONE', *, *, #360, .F. ) ;
#463 = DIRECTION ( 'NONE',  ( 0.000000000000000000, 0.000000000000000000, 1.000000000000000000 ) ) ;
#464 = SHAPE_DEFINITION_REPRESENTATION ( #194, #589 ) ;
#465 = CARTESIAN_POINT ( 'NONE',  ( -29.69488148641822178, 4.271504217884737997, 77.55034254845116948 ) ) ;
#466 = B_SPLINE_CURVE_WITH_KNOTS ( 'NONE', 3,
 ( #584, #519, #575, #309, #76, #602, #656, #433, #136, #85, #329, #659, #609, #124, #381, #491, #189, #400, #236, #32, #453, #445, #327, #341, #605, #484, #178, #391, #540, #599, #122, #498, #128, #223, #24, #648, #70, #595, #431, #440, #132, #374, #489, #7, #651, #16 ),
 .UNSPECIFIED., .F., .F.,
 ( 4, 2, 2, 2, 2, 2, 2, 2, 2, 2, 2, 2, 2, 2, 2, 2, 2, 2, 2, 2, 2, 2, 4 ),
 ( 1.056901963775725558E-18, 0.001372568374600575394, 0.002058852561900866018, 0.002745136749201157293, 0.004117705123801723363, 0.004803989311101993821, 0.005490273498402264279, 0.006862841873002837288, 0.008235410247603412032, 0.008921694434903716317, 0.009607978622204024072, 0.01098054699680467601, 0.01235311537140532968, 0.01372568374600598162, 0.01441196793330628764, 0.01509825212060659540, 0.01578453630790689968, 0.01647082049520720570, 0.01784338886980784897, 0.01921595724440849223, 0.02058852561900913550, 0.02127480980630945887, 0.02196109399360977876 ),
 .UNSPECIFIED. ) ;
#467 = CARTESIAN_POINT ( 'NONE',  ( 30.00000000000000000, 1.088116339016176744E-15, -79.00000000000000000 ) ) ;
#468 = CARTESIAN_POINT ( 'NONE',  ( -29.45545508790598532, -5.691467392237011147, 67.91845900949732595 ) ) ;
#469 = PERSON_AND_ORGANIZATION_ROLE ( 'creator' ) ;
#470 = CARTESIAN_POINT ( 'NONE',  ( -29.91586754075048660, -2.256022058966405286, -65.36951051873978713 ) ) ;
#471 = VERTEX_POINT ( 'NONE', #661 ) ;
#472 = CARTESIAN_POINT ( 'NONE',  ( -29.38136968812097294, -6.061957847325404991, 68.49213379854610650 ) ) ;
#473 = APPROVAL_DATE_TIME ( #155, #204 ) ;
#474 = B_SPLINE_CURVE_WITH_KNOTS ( 'NONE', 3,
 ( #637, #533, #425, #530, #377, #167, #373, #269, #483, #11, #58, #251, #682, #218, #678, #626, #629, #158, #112, #574, #308, #53, #255, #313, #331, #131, #604, #23, #78, #138, #73, #326, #229, #176, #443, #658, #435, #336, #186, #273, #553, #497, #126, #646, #543, #276, #493 ),
 .UNSPECIFIED., .F., .F.,
 ( 4, 2, 2, 2, 2, 2, 2, 2, 2, 2, 1, 2, 2, 2, 2, 2, 2, 2, 2, 2, 2, 2, 2, 4 ),
 ( 0.02196109399360977876, 0.02333329666037867872, 0.02470549932714757521, 0.02539160066053202519, 0.02607770199391647170, 0.02744990466068536819, 0.02813600599406981817, 0.02882210732745426468, 0.03019430999422319586, 0.03088041132760765972, 0.03156651266099212705, 0.03225261399437659438, 0.03293871532776106170, 0.03431091799452999636, 0.03568312066129892407, 0.03705532332806785872, 0.03774142466145232605, 0.03842752599483679338, 0.03911362732822125376, 0.03979972866160572109, 0.04117193132837465575, 0.04185803266175912307, 0.04254413399514359040, 0.04391633666191251811 ),
 .UNSPECIFIED. ) ;
#475 = APPROVAL_PERSON_ORGANIZATION ( #96, #148, #665 ) ;
#476 = CARTESIAN_POINT ( 'NONE',  ( 29.91586754075047949, -2.256022058966403954, 65.36951051873974450 ) ) ;
#477 = ORIENTED_EDGE ( 'NONE', *, *, #569, .F. ) ;
#478 = CARTESIAN_POINT ( 'NONE',  ( -29.79575077925399285, -3.515525519039482294, 65.92970391319333601 ) ) ;
#479 = CARTESIAN_POINT ( 'NONE',  ( -30.00000000000000000, 0.000000000000000000, 72.00000000000000000 ) ) ;
#480 = ORIENTED_EDGE ( 'NONE', *, *, #683, .T. ) ;
#481 = CARTESIAN_POINT ( 'NONE',  ( -29.94792691651984029, -1.823467125453012594, -78.77392206219434456 ) ) ;
#482 = CARTESIAN_POINT ( 'NONE',  ( -30.00000000000000000, 3.491700314899934830E-21, -79.00000000000000000 ) ) ;
#483 = CARTESIAN_POINT ( 'NONE',  ( 29.77119557252117943, 3.703062469860938233, 77.94471625965746853 ) ) ;
#484 = CARTESIAN_POINT ( 'NONE',  ( 29.22519098158571893, -6.774711463810649370, -70.17971728862389114 ) ) ;
#485 = CARTESIAN_POINT ( 'NONE',  ( 29.69559135477495460, -4.266617867546201204, 66.44584065105392767 ) ) ;
#486 = CC_DESIGN_APPROVAL ( #204, ( #26 ) ) ;
#487 = DIRECTION ( 'NONE',  ( 1.000000000000000000, -0.000000000000000000, -0.000000000000000000 ) ) ;
#488 = DATE_TIME_ROLE ( 'classification_date' ) ;
#489 = CARTESIAN_POINT ( 'NONE',  ( 29.98684362019209715, -0.9176091291687671347, -65.05656589949430213 ) ) ;
#490 = CARTESIAN_POINT ( 'NONE',  ( 30.00000000000000355, -0.2288842376190350358, 79.00000000000000000 ) ) ;
#491 = CARTESIAN_POINT ( 'NONE',  ( 29.37991682741333577, -6.073590668708181539, -75.51043533396830298 ) ) ;
#492 = ORIENTED_EDGE ( 'NONE', *, *, #416, .T. ) ;
#493 = CARTESIAN_POINT ( 'NONE',  ( 30.00000000000000000, 1.088116339016176744E-15, 64.99999999999998579 ) ) ;
#494 = EDGE_CURVE ( 'NONE', #471, #623, #387, .T. ) ;
#495 = APPLICATION_PROTOCOL_DEFINITION ( 'international standard', 'config_control_design', 1994, #306 ) ;
#496 = CARTESIAN_POINT ( 'NONE',  ( -29.18278964413909904, 6.955083610866862998, -71.08538900040981900 ) ) ;
#497 = CARTESIAN_POINT ( 'NONE',  ( 29.91520692481732979, 2.264780688218484883, 65.37248831916564029 ) ) ;
#498 = CARTESIAN_POINT ( 'NONE',  ( 29.45545508790598888, -5.691467392237012923, -67.91845900949732595 ) ) ;
#499 = CARTESIAN_POINT ( 'NONE',  ( -29.91586754075047949, -2.256022058966404398, 78.63048948126019866 ) ) ;
#500 = CARTESIAN_POINT ( 'NONE',  ( 30.00000000000000000, 1.088116339016176744E-15, 64.99999999999998579 ) ) ;
#501 = FACE_OUTER_BOUND ( 'NONE', #272, .T. ) ;
#502 = CC_DESIGN_SECURITY_CLASSIFICATION ( #455, ( #26 ) ) ;
#503 = CARTESIAN_POINT ( 'NONE',  ( 29.69666554795253433, -4.272439526486151884, 77.56360267713615997 ) ) ;
#504 = CARTESIAN_POINT ( 'NONE',  ( 29.20175345616448581, 6.874859137870999781, -70.62432839387108174 ) ) ;
#505 = CARTESIAN_POINT ( 'NONE',  ( 29.56184033702572833, -5.111231553905871472, 76.78831948162019216 ) ) ;
#506 = CARTESIAN_POINT ( 'NONE',  ( 29.84013671920504862, 3.099634142265741854, -65.71947546891199465 ) ) ;
#507 = CARTESIAN_POINT ( 'NONE',  ( -30.00000000000000000, 0.000000000000000000, 225.0000000000000000 ) ) ;
#508 = CALENDAR_DATE ( 2026, 28, 1 ) ;
#509 = CARTESIAN_POINT ( 'NONE',  ( -29.48106778824771013, -5.561893424139574549, 76.27516097749605706 ) ) ;
#510 = CARTESIAN_POINT ( 'NONE',  ( -29.91520692481732979, 2.264780688218479110, -65.37248831916564029 ) ) ;
#511 = COORDINATED_UNIVERSAL_TIME_OFFSET ( 1, 0, .AHEAD. ) ;
#512 = DIRECTION ( 'NONE',  ( 0.000000000000000000, 0.000000000000000000, 1.000000000000000000 ) ) ;
#513 = ORIENTED_EDGE ( 'NONE', *, *, #416, .F. ) ;
#514 = EDGE_CURVE ( 'NONE', #57, #298, #538, .T. ) ;
#515 = CARTESIAN_POINT ( 'NONE',  ( -29.25626186901912007, 6.641033478012848157, 74.25958863824753564 ) ) ;
#516 = PERSON_AND_ORGANIZATION ( #274, #105 ) ;
#517 = EDGE_LOOP ( 'NONE', ( #571, #681, #413, #2 ) ) ;
#518 = DIRECTION ( 'NONE',  ( -1.000000000000000000, 0.000000000000000000, 0.000000000000000000 ) ) ;
#519 = CARTESIAN_POINT ( 'NONE',  ( 30.00000000000000711, -0.4642298335292426859, -79.00000000000001421 ) ) ;
#520 = EDGE_CURVE ( 'NONE', #203, #104, #403, .T. ) ;
#521 = CARTESIAN_POINT ( 'NONE',  ( 29.79603487614574675, 3.513511472903920740, -78.07179321473147127 ) ) ;
#522 = APPROVAL ( #12, 'UNSPECIFIED' ) ;
#523 = CARTESIAN_POINT ( 'NONE',  ( -29.33449565364320222, 6.286506959063186351, 68.88680335883293537 ) ) ;
#524 = VERTEX_POINT ( 'NONE', #300 ) ;
#525 = CARTESIAN_POINT ( 'NONE',  ( -29.94792691651984384, -1.823467125453009707, 65.22607793780565544 ) ) ;
#526 = CARTESIAN_POINT ( 'NONE',  ( -29.91520692481732979, 2.264780688218487992, 78.62751168083434550 ) ) ;
#527 = CARTESIAN_POINT ( 'NONE',  ( -29.97888455654712914, -1.147745827230597815, 65.09091593395709197 ) ) ;
#528 = CARTESIAN_POINT ( 'NONE',  ( -29.99738103571200654, -0.4581788014460370095, -78.98880217261189784 ) ) ;
#529 = CYLINDRICAL_SURFACE ( 'NONE', #627, 7.000000000000006217 ) ;
#530 = CARTESIAN_POINT ( 'NONE',  ( 29.94805444634058489, 1.822329002495009842, 78.77449124292087390 ) ) ;
#531 = CARTESIAN_POINT ( 'NONE',  ( -29.45545508790598532, -5.691467392237023581, -76.08154099050265984 ) ) ;
#532 = CARTESIAN_POINT ( 'NONE',  ( 30.00000000000000000, 3.673940397442059178E-15, -225.0000000000000000 ) ) ;
#533 = CARTESIAN_POINT ( 'NONE',  ( 30.00000000000000000, 0.4576465071674268303, 79.00000000000002842 ) ) ;
#534 = CARTESIAN_POINT ( 'NONE',  ( 29.84140395181174554, -3.109893390541675462, 65.71200185928704229 ) ) ;
#535 = CARTESIAN_POINT ( 'NONE',  ( 30.00000000000000000, 3.673943889151709458E-15, -64.99999999999998579 ) ) ;
#536 = CARTESIAN_POINT ( 'NONE',  ( -29.56184033702572833, -5.111231553905871472, 67.21168051837976520 ) ) ;
#537 = CARTESIAN_POINT ( 'NONE',  ( -29.21459286030001579, -6.819802676884973103, -70.40518124283177315 ) ) ;
#538 = LINE ( 'NONE', #145, #361 ) ;
#539 = ORIENTED_EDGE ( 'NONE', *, *, #636, .T. ) ;
#540 = CARTESIAN_POINT ( 'NONE',  ( 29.33590255762754495, -6.278299038924978426, -68.89590280308649994 ) ) ;
#541 = CARTESIAN_POINT ( 'NONE',  ( -29.94583722960371830, -1.815378435575236482, -65.23557634182380127 ) ) ;
#542 = CARTESIAN_POINT ( 'NONE',  ( -29.56224928715169398, 5.108835103415040102, -76.79080960442377091 ) ) ;
#543 = CARTESIAN_POINT ( 'NONE',  ( 29.98923918208215511, 0.9217442404527304012, 65.04570723267302412 ) ) ;
#544 = DIRECTION ( 'NONE',  ( 1.000000000000000000, 0.000000000000000000, 0.000000000000000000 ) ) ;
#545 = CARTESIAN_POINT ( 'NONE',  ( 29.79529565653302825, 3.504546757646897159, -65.93610090577323035 ) ) ;
#546 = LINE ( 'NONE', #281, #371 ) ;
#547 = CARTESIAN_POINT ( 'NONE',  ( 29.45545508790598888, -5.691467392237012923, 76.08154099050268826 ) ) ;
#548 = B_SPLINE_CURVE_WITH_KNOTS ( 'NONE', 3,
 ( #94, #619, #402, #45, #667, #38, #99, #411, #98, #243, #295, #103, #151, #153, #676, #362, #523, #241, #47, #560, #355, #205, #567, #668, #192, #458, #353, #515, #414, #201, #41, #412, #625, #572, #146, #246, #465, #108, #349, #460, #307, #526, #456, #615, #196, #405, #670 ),
 .UNSPECIFIED., .F., .F.,
 ( 4, 2, 2, 2, 2, 2, 2, 2, 2, 2, 1, 2, 2, 2, 2, 2, 2, 2, 2, 2, 2, 2, 2, 4 ),
 ( 0.02196109399360974754, 0.02333329666037864750, 0.02470549932714754746, 0.02539160066053199744, 0.02607770199391644741, 0.02744990466068534390, 0.02813600599406979388, 0.02882210732745424386, 0.03019430999422317158, 0.03088041132760763890, 0.03156651266099209929, 0.03225261399437656662, 0.03293871532776103395, 0.03431091799452996860, 0.03568312066129888938, 0.03705532332806782403, 0.03774142466145229136, 0.03842752599483675174, 0.03911362732822121907, 0.03979972866160567946, 0.04117193132837461411, 0.04185803266175908144, 0.04254413399514354877, 0.04391633666191247648 ),
 .UNSPECIFIED. ) ;
#549 = CARTESIAN_POINT ( 'NONE',  ( -29.69488148641821113, 4.271504217884720234, -66.44965745154883052 ) ) ;
#550 = EDGE_CURVE ( 'NONE', #320, #39, #259, .T. ) ;
#551 = CARTESIAN_POINT ( 'NONE',  ( 29.25606111710760970, -6.641946052167150505, 74.25743588102071158 ) ) ;
#552 = CARTESIAN_POINT ( 'NONE',  ( -29.48137610991933499, 5.556094858351494636, -67.73595945188323242 ) ) ;
#553 = CARTESIAN_POINT ( 'NONE',  ( 29.89804846492607027, 2.480198355113730990, 65.45014293603287570 ) ) ;
#554 =( GEOMETRIC_REPRESENTATION_CONTEXT ( 3 ) GLOBAL_UNCERTAINTY_ASSIGNED_CONTEXT ( ( #100 ) ) GLOBAL_UNIT_ASSIGNED_CONTEXT ( ( #436, #66, #337 ) ) REPRESENTATION_CONTEXT ( 'NONE', 'WORKASPACE' ) );
#555 = CARTESIAN_POINT ( 'NONE',  ( 29.31439582811125177, -6.377643537763169945, 74.89456886849015405 ) ) ;
#556 = CARTESIAN_POINT ( 'NONE',  ( -29.17186234463824945, 7.000174810530241487, -71.54080304420934056 ) ) ;
#557 = CARTESIAN_POINT ( 'NONE',  ( -29.33374606356879610, -6.289942242723669530, 75.10552405249512731 ) ) ;
#558 = CARTESIAN_POINT ( 'NONE',  ( 29.53497256772548596, 5.263776786568568511, -67.37989425745772110 ) ) ;
#559 = APPROVAL_DATE_TIME ( #144, #148 ) ;
#560 = CARTESIAN_POINT ( 'NONE',  ( -29.22773066332088376, 6.763463945565137081, 70.18119192352305902 ) ) ;
#561 = ADVANCED_FACE ( 'NONE', ( #616 ), #247, .T. ) ;
#562 = ORIENTED_EDGE ( 'NONE', *, *, #569, .T. ) ;
#563 = DIRECTION ( 'NONE',  ( -0.000000000000000000, -0.000000000000000000, -1.000000000000000000 ) ) ;
#564 = CARTESIAN_POINT ( 'NONE',  ( 29.99999999999999645, 0.4641061438909204195, -78.99999999999997158 ) ) ;
#565 = ORIENTED_EDGE ( 'NONE', *, *, #520, .T. ) ;
#566 = FACE_OUTER_BOUND ( 'NONE', #152, .T. ) ;
#567 = CARTESIAN_POINT ( 'NONE',  ( -29.17473013807026661, 6.988252335738212473, 71.53404264921921651 ) ) ;
#568 = ORIENTED_EDGE ( 'NONE', *, *, #494, .F. ) ;
#569 = EDGE_CURVE ( 'NONE', #39, #471, #147, .T. ) ;
#570 = DIRECTION ( 'NONE',  ( 1.000000000000000000, 0.000000000000000000, 0.000000000000000000 ) ) ;
#571 = ORIENTED_EDGE ( 'NONE', *, *, #398, .F. ) ;
#572 = CARTESIAN_POINT ( 'NONE',  ( -29.56147340212218211, 5.113295891697256401, 76.78600372996685053 ) ) ;
#573 = EDGE_LOOP ( 'NONE', ( #635, #154, #365, #382 ) ) ;
#574 = CARTESIAN_POINT ( 'NONE',  ( 29.22773066332088021, 6.763463945565137081, 73.81880807647696940 ) ) ;
#575 = CARTESIAN_POINT ( 'NONE',  ( 29.98923849688061338, -0.9203879200270844718, -78.95427944687608601 ) ) ;
#576 = CARTESIAN_POINT ( 'NONE',  ( -29.33590255762753429, -6.278299038924976649, -75.10409719691350006 ) ) ;
#577 = DIRECTION ( 'NONE',  ( 1.000000000000000000, -0.000000000000000000, -0.000000000000000000 ) ) ;
#578 = CARTESIAN_POINT ( 'NONE',  ( -29.98684362019209715, -0.9176091291687700213, 65.05656589949430213 ) ) ;
#579 = PERSON_AND_ORGANIZATION ( #274, #105 ) ;
#580 = CARTESIAN_POINT ( 'NONE',  ( -29.61551994538941202, -4.790360752189871896, -66.89077491766232697 ) ) ;
#581 = CARTESIAN_POINT ( 'NONE',  ( -29.91768386219365539, 2.260809184769923430, -78.64055318974318709 ) ) ;
#582 = CARTESIAN_POINT ( 'NONE',  ( -29.31439582811124112, -6.377643537763169945, 69.10543113150981753 ) ) ;
#583 = PERSON_AND_ORGANIZATION_ROLE ( 'classification_officer' ) ;
#584 = CARTESIAN_POINT ( 'NONE',  ( 30.00000000000000000, 1.088116339016176744E-15, -79.00000000000000000 ) ) ;
#585 = CARTESIAN_POINT ( 'NONE',  ( -29.97888455654713269, -1.147745827230600701, -78.90908406604287961 ) ) ;
#586 = ORIENTED_EDGE ( 'NONE', *, *, #394, .F. ) ;
#587 = DIRECTION ( 'NONE',  ( 0.000000000000000000, 0.000000000000000000, 1.000000000000000000 ) ) ;
#588 = CARTESIAN_POINT ( 'NONE',  ( -29.33374606356878900, -6.289942242723666865, -68.89447594750488690 ) ) ;
#589 = ADVANCED_BREP_SHAPE_REPRESENTATION ( 'Arm_shaft_Default_sldprt', ( #406, #427 ), #554 ) ;
#590 = CARTESIAN_POINT ( 'NONE',  ( -29.33449565364321288, 6.286506959063187239, -75.11319664116707884 ) ) ;
#591 = PRODUCT_DEFINITION ( 'UNKNOWN', '', #26, #680 ) ;
#592 = CARTESIAN_POINT ( 'NONE',  ( -30.00000000000000000, 0.000000000000000000, -225.0000000000000000 ) ) ;
#593 = CARTESIAN_POINT ( 'NONE',  ( 29.98923849688061338, -0.9203879200270844718, 65.04572055312391399 ) ) ;
#594 = EDGE_LOOP ( 'NONE', ( #568, #206, #304, #586 ) ) ;
#595 = CARTESIAN_POINT ( 'NONE',  ( 29.79575077925399285, -3.515525519039476521, -65.92970391319333601 ) ) ;
#596 = CARTESIAN_POINT ( 'NONE',  ( 29.40542856034527830, -5.944527457668423054, 75.70329194623874969 ) ) ;
#597 = CC_DESIGN_APPROVAL ( #522, ( #591 ) ) ;
#598 = CARTESIAN_POINT ( 'NONE',  ( -29.94532507330370308, 1.823826519857440376, -65.23784062071975143 ) ) ;
#599 = CARTESIAN_POINT ( 'NONE',  ( 29.38136968812097294, -6.061957847325402327, -68.49213379854609229 ) ) ;
#600 = CARTESIAN_POINT ( 'NONE',  ( 29.38136968812097294, -6.061957847325402327, 75.50786620145386507 ) ) ;
#601 = DIRECTION ( 'NONE',  ( 1.000000000000000000, -0.000000000000000000, -0.000000000000000000 ) ) ;
#602 = CARTESIAN_POINT ( 'NONE',  ( 29.91586754075047949, -2.256022058966403954, -78.63048948126018445 ) ) ;
#603 = CARTESIAN_POINT ( 'NONE',  ( 29.27596284319802677, 6.551808975670668111, -69.52475457488509392 ) ) ;
#604 = CARTESIAN_POINT ( 'NONE',  ( 29.22473941005734233, 6.776651522873452294, 70.18707544220475825 ) ) ;
#605 = CARTESIAN_POINT ( 'NONE',  ( 29.18299114615944134, -6.954245544358260034, -71.07879780938414171 ) ) ;
#606 = CC_DESIGN_PERSON_AND_ORGANIZATION_ASSIGNMENT ( #579, #469, ( #26 ) ) ;
#607 = CARTESIAN_POINT ( 'NONE',  ( 29.53455008127246728, 5.266125606774986423, -76.61737511630281006 ) ) ;
#608 = CARTESIAN_POINT ( 'NONE',  ( 29.79575077925399285, -3.515525519039476521, 78.07029608680669241 ) ) ;
#609 = CARTESIAN_POINT ( 'NONE',  ( 29.61551994538941557, -4.790360752189871008, -77.10922508233768724 ) ) ;
#610 = CARTESIAN_POINT ( 'NONE',  ( -29.89804846492606671, 2.480198355113722997, -65.45014293603286148 ) ) ;
#611 = APPROVAL_PERSON_ORGANIZATION ( #40, #204, #252 ) ;
#612 = CARTESIAN_POINT ( 'NONE',  ( -29.72098680777660817, 4.086570380484008780, -66.31204769240083863 ) ) ;
#613 = CALENDAR_DATE ( 2026, 28, 1 ) ;
#614 = EDGE_CURVE ( 'NONE', #172, #68, #97, .T. ) ;
#615 = CARTESIAN_POINT ( 'NONE',  ( -29.95822596205804089, 1.598661001434185547, 78.81888796557910837 ) ) ;
#616 = FACE_OUTER_BOUND ( 'NONE', #250, .T. ) ;
#617 = CARTESIAN_POINT ( 'NONE',  ( 0.000000000000000000, 0.000000000000000000, -225.0000000000000000 ) ) ;
#618 = ORIENTED_EDGE ( 'NONE', *, *, #683, .F. ) ;
#619 = CARTESIAN_POINT ( 'NONE',  ( -29.99999999999999645, 0.4576465071674214458, 64.99999999999998579 ) ) ;
#620 = ORIENTED_EDGE ( 'NONE', *, *, #360, .T. ) ;
#621 = SECURITY_CLASSIFICATION_LEVEL ( 'unclassified' ) ;
#622 = CARTESIAN_POINT ( 'NONE',  ( 29.91520692481732979, 2.264780688218484883, -78.62751168083434550 ) ) ;
#623 = VERTEX_POINT ( 'NONE', #354 ) ;
#624 = COORDINATED_UNIVERSAL_TIME_OFFSET ( 1, 0, .AHEAD. ) ;
#625 = CARTESIAN_POINT ( 'NONE',  ( -29.53455008127245662, 5.266125606774987311, 76.61737511630283848 ) ) ;
#626 = CARTESIAN_POINT ( 'NONE',  ( 29.38044811834151560, 6.070900775625831081, 75.51444499532689747 ) ) ;
#627 = AXIS2_PLACEMENT_3D ( 'NONE', #325, #264, #330 ) ;
#628 = CARTESIAN_POINT ( 'NONE',  ( -29.84185730817031157, -3.105431204233716880, -78.29013304398912965 ) ) ;
#629 = CARTESIAN_POINT ( 'NONE',  ( 29.33449565364320222, 6.286506959063184574, 75.11319664116703620 ) ) ;
#630 = ADVANCED_FACE ( 'NONE', ( #566 ), #43, .F. ) ;
#631 = CARTESIAN_POINT ( 'NONE',  ( -29.79625831559249249, -3.511377574998153950, -65.92718523247408768 ) ) ;
#632 = ORIENTED_EDGE ( 'NONE', *, *, #139, .T. ) ;
#633 = CARTESIAN_POINT ( 'NONE',  ( -29.91776697248830175, -2.259949102372539542, 65.35905829494055297 ) ) ;
#634 = CARTESIAN_POINT ( 'NONE',  ( -29.84140395181173488, -3.109893390541674574, -65.71200185928702808 ) ) ;
#635 = ORIENTED_EDGE ( 'NONE', *, *, #262, .F. ) ;
#636 = EDGE_CURVE ( 'NONE', #203, #68, #466, .T. ) ;
#637 = CARTESIAN_POINT ( 'NONE',  ( 30.00000000000000000, 3.673943889151709458E-15, 79.00000000000000000 ) ) ;
#638 = APPROVAL_STATUS ( 'not_yet_approved' ) ;
#639 = VECTOR ( 'NONE', #351, 1000.000000000000000 ) ;
#640 = CARTESIAN_POINT ( 'NONE',  ( 30.00000000000000000, 1.088116339016176744E-15, -79.00000000000000000 ) ) ;
#641 = EDGE_LOOP ( 'NONE', ( #459, #677, #222, #258 ) ) ;
#642 = DIRECTION ( 'NONE',  ( -1.000000000000000000, 0.000000000000000000, 0.000000000000000000 ) ) ;
#643 = DIRECTION ( 'NONE',  ( 1.000000000000000000, 0.000000000000000000, 0.000000000000000000 ) ) ;
#644 = CARTESIAN_POINT ( 'NONE',  ( -29.79575077925398929, -3.515525519039486291, -78.07029608680664978 ) ) ;
#645 = VERTEX_POINT ( 'NONE', #592 ) ;
#646 = CARTESIAN_POINT ( 'NONE',  ( 29.95822596205804089, 1.598661001434176443, 65.18111203442090584 ) ) ;
#647 = PRODUCT ( 'Arm_shaft_Default_sldprt', 'Arm_shaft_Default_sldprt', '', ( #20 ) ) ;
#648 = CARTESIAN_POINT ( 'NONE',  ( 29.64329748317490143, -4.624206176391263412, -66.72482388340910120 ) ) ;
#649 = CARTESIAN_POINT ( 'NONE',  ( 29.84185730817031157, -3.105431204233705333, 78.29013304398914386 ) ) ;
#650 = CARTESIAN_POINT ( 'NONE',  ( 29.22773066332088021, 6.763463945565137081, -70.18119192352305902 ) ) ;
#651 = CARTESIAN_POINT ( 'NONE',  ( 30.00000000000000355, -0.2288842376190350358, -65.00000000000000000 ) ) ;
#652 = CARTESIAN_POINT ( 'NONE',  ( -29.94583722960371830, -1.815378435575236926, 78.76442365817621294 ) ) ;
#653 = LOCAL_TIME ( 13, 25, 34.00000000000000000, #191 ) ;
#654 = CARTESIAN_POINT ( 'NONE',  ( 29.18278964413910259, 6.955083610866863886, -72.91461099959019521 ) ) ;
#655 = CARTESIAN_POINT ( 'NONE',  ( -29.84140395181173844, -3.109893390541675906, 78.28799814071292928 ) ) ;
#656 = CARTESIAN_POINT ( 'NONE',  ( 29.89852106257611197, -2.474599957493583968, -78.55201834780007175 ) ) ;
#657 = CARTESIAN_POINT ( 'NONE',  ( 29.22473941005734233, 6.776651522873452294, -73.81292455779529860 ) ) ;
#658 = CARTESIAN_POINT ( 'NONE',  ( 29.64206009829797139, 4.623852063455458961, 66.73957769909743831 ) ) ;
#659 = CARTESIAN_POINT ( 'NONE',  ( 29.64244960338861290, -4.621401892068654149, -77.26263799373792551 ) ) ;
#660 = CARTESIAN_POINT ( 'NONE',  ( -29.37941718395956059, 6.075958127082343729, -68.49384890980171292 ) ) ;
#661 = CARTESIAN_POINT ( 'NONE',  ( -30.00000000000000000, 3.907319920744907716E-15, 79.00000000000000000 ) ) ;
#662 = CARTESIAN_POINT ( 'NONE',  ( -30.00000000000000000, -3.275545941801647954E-15, -64.99999999999998579 ) ) ;
#663 = CARTESIAN_POINT ( 'NONE',  ( -29.17473013807026661, 6.988252335738213361, -72.46595735078079770 ) ) ;
#664 = LOCAL_TIME ( 13, 25, 34.00000000000000000, #624 ) ;
#665 = APPROVAL_ROLE ( '' ) ;
#666 = CC_DESIGN_DATE_AND_TIME_ASSIGNMENT ( #404, #409, ( #591 ) ) ;
#667 = CARTESIAN_POINT ( 'NONE',  ( -29.91768386219364473, 2.260809184769923874, 65.35944681025681291 ) ) ;
#668 = CARTESIAN_POINT ( 'NONE',  ( -29.17192544664358778, 6.999911838273019882, 71.76641583539839075 ) ) ;
#669 = DIRECTION ( 'NONE',  ( -0.000000000000000000, -0.000000000000000000, -1.000000000000000000 ) ) ;
#670 = CARTESIAN_POINT ( 'NONE',  ( -30.00000000000000000, 3.907319920744907716E-15, 79.00000000000000000 ) ) ;
#671 = APPROVAL_DATE_TIME ( #244, #522 ) ;
#672 = ORIENTED_EDGE ( 'NONE', *, *, #520, .F. ) ;
#673 = AXIS2_PLACEMENT_3D ( 'NONE', #19, #226, #448 ) ;
#674 = VECTOR ( 'NONE', #563, 1000.000000000000000 ) ;
#675 = CARTESIAN_POINT ( 'NONE',  ( 29.61522775578694322, 4.792159174452826242, -77.10752748656457811 ) ) ;
#676 = CARTESIAN_POINT ( 'NONE',  ( -29.45549980305276350, 5.691236536805631907, 67.91813564099727785 ) ) ;
#677 = ORIENTED_EDGE ( 'NONE', *, *, #494, .T. ) ;
#678 = CARTESIAN_POINT ( 'NONE',  ( 29.45549980305276705, 5.691236536805631019, 76.08186435900272215 ) ) ;
#679 = CARTESIAN_POINT ( 'NONE',  ( -29.22782118389332950, -6.763074389668097375, -70.17970131006246959 ) ) ;
#680 = DESIGN_CONTEXT ( 'detailed design', #306, 'design' ) ;
#681 = ORIENTED_EDGE ( 'NONE', *, *, #139, .F. ) ;
#682 = CARTESIAN_POINT ( 'NONE',  ( 29.53497256772548596, 5.263776786568568511, 76.62010574254226469 ) ) ;
#683 = EDGE_CURVE ( 'NONE', #104, #645, #83, .T. ) ;
ENDSEC;
END-ISO-10303-21;
