ISO-10303-21;
HEADER;
FILE_DESCRIPTION (( 'STEP AP203' ),
    '1' );
FILE_NAME ('Arm_ballast_big_Default_sldprt.STEP',
    '2026-01-28T12:25:31',
    ( '' ),
    ( '' ),
    'SwSTEP 2.0',
    'SolidWorks 2024',
    '' );
FILE_SCHEMA (( 'CONFIG_CONTROL_DESIGN' ));
ENDSEC;

DATA;
#1 = ORIENTED_EDGE ( 'NONE', *, *, #49, .T. ) ;
#2 = CARTESIAN_POINT ( 'NONE',  ( 0.000000000000000000, 172.4213924734459340, -105.0000000000000000 ) ) ;
#3 = EDGE_LOOP ( 'NONE', ( #202, #68, #30, #191, #352, #365, #355, #235, #480, #201 ) ) ;
#4 = PRODUCT_RELATED_PRODUCT_CATEGORY ( 'detail', '', ( #386 ) ) ;
#5 = DIRECTION ( 'NONE',  ( 2.496005001405476614E-16, -1.000000000000000000, -0.000000000000000000 ) ) ;
#6 = VERTEX_POINT ( 'NONE', #15 ) ;
#7 = VECTOR ( 'NONE', #218, 1000.000000000000000 ) ;
#8 = DIRECTION ( 'NONE',  ( -0.000000000000000000, -0.000000000000000000, -1.000000000000000000 ) ) ;
#9 = FACE_OUTER_BOUND ( 'NONE', #363, .T. ) ;
#10 = EDGE_CURVE ( 'NONE', #194, #347, #279, .T. ) ;
#11 = CARTESIAN_POINT ( 'NONE',  ( 349.9999999999998863, 232.4213924734459340, 105.0000000000000000 ) ) ;
#12 = CARTESIAN_POINT ( 'NONE',  ( 54.99999999999996447, 81.42139247344594821, 105.0000000000000000 ) ) ;
#13 = APPROVAL ( #489, 'UNSPECIFIED' ) ;
#14 = CARTESIAN_POINT ( 'NONE',  ( -11.00000000000000711, 172.4213924734459340, -105.0000000000000000 ) ) ;
#15 = CARTESIAN_POINT ( 'NONE',  ( -349.9999999999999432, -67.57860752655409442, 105.0000000000000000 ) ) ;
#16 = CARTESIAN_POINT ( 'NONE',  ( 0.000000000000000000, 0.000000000000000000, 0.000000000000000000 ) ) ;
#17 = CC_DESIGN_APPROVAL ( #112, ( #171 ) ) ;
#18 = CARTESIAN_POINT ( 'NONE',  ( 55.00000000000000000, -57.57860752655412995, -105.0000000000000000 ) ) ;
#19 = PERSON_AND_ORGANIZATION_ROLE ( 'creator' ) ;
#20 = CARTESIAN_POINT ( 'NONE',  ( 65.00000000000000000, -67.57860752655409442, -105.0000000000000000 ) ) ;
#21 = LINE ( 'NONE', #338, #226 ) ;
#22 = PERSON ( 'UNSPECIFIED', 'UNSPECIFIED', 'UNSPECIFIED', ('UNSPECIFIED'), ('UNSPECIFIED'), ('UNSPECIFIED') ) ;
#23 = EDGE_CURVE ( 'NONE', #347, #231, #43, .T. ) ;
#24 = LINE ( 'NONE', #59, #494 ) ;
#25 = CIRCLE ( 'NONE', #47, 11.00000000000000711 ) ;
#26 = FACE_OUTER_BOUND ( 'NONE', #119, .T. ) ;
#27 = CARTESIAN_POINT ( 'NONE',  ( 65.00000000000000000, -67.57860752655409442, 105.0000000000000000 ) ) ;
#28 = PLANE ( 'NONE',  #197 ) ;
#29 = VECTOR ( 'NONE', #433, 1000.000000000000000 ) ;
#30 = ORIENTED_EDGE ( 'NONE', *, *, #135, .F. ) ;
#31 = APPROVAL_DATE_TIME ( #382, #504 ) ;
#32 = CC_DESIGN_PERSON_AND_ORGANIZATION_ASSIGNMENT ( #372, #172, ( #386 ) ) ;
#33 = PLANE ( 'NONE',  #327 ) ;
#34 = ORIENTED_EDGE ( 'NONE', *, *, #427, .T. ) ;
#35 = FACE_OUTER_BOUND ( 'NONE', #464, .T. ) ;
#36 = ORIENTED_EDGE ( 'NONE', *, *, #397, .T. ) ;
#37 = DIRECTION ( 'NONE',  ( 1.000000000000000000, 0.000000000000000000, 0.000000000000000000 ) ) ;
#38 = ORIENTED_EDGE ( 'NONE', *, *, #281, .F. ) ;
#39 = AXIS2_PLACEMENT_3D ( 'NONE', #16, #246, #149 ) ;
#40 = CARTESIAN_POINT ( 'NONE',  ( 55.00000000000000000, -57.57860752655412995, -105.0000000000000000 ) ) ;
#41 = ORIENTED_EDGE ( 'NONE', *, *, #274, .F. ) ;
#42 = ADVANCED_FACE ( 'NONE', ( #170 ), #326, .F. ) ;
#43 = LINE ( 'NONE', #275, #443 ) ;
#44 = ADVANCED_BREP_SHAPE_REPRESENTATION ( 'Arm_ballast_big_Default_sldprt', ( #256, #39 ), #155 ) ;
#45 = CARTESIAN_POINT ( 'NONE',  ( -55.00000000000003553, -57.57860752655408021, -105.0000000000000000 ) ) ;
#46 = VECTOR ( 'NONE', #445, 1000.000000000000000 ) ;
#47 = AXIS2_PLACEMENT_3D ( 'NONE', #413, #140, #456 ) ;
#48 = DIRECTION ( 'NONE',  ( 0.7071067811865489050, 0.7071067811865461294, 0.000000000000000000 ) ) ;
#49 = EDGE_CURVE ( 'NONE', #78, #500, #239, .T. ) ;
#50 = DIRECTION ( 'NONE',  ( 1.000000000000000000, 0.000000000000000000, 0.000000000000000000 ) ) ;
#51 = PLANE ( 'NONE',  #487 ) ;
#52 = ORIENTED_EDGE ( 'NONE', *, *, #178, .F. ) ;
#53 = EDGE_LOOP ( 'NONE', ( #436, #506, #198, #349 ) ) ;
#54 = COORDINATED_UNIVERSAL_TIME_OFFSET ( 1, 0, .AHEAD. ) ;
#55 = VECTOR ( 'NONE', #8, 1000.000000000000000 ) ;
#56 = CARTESIAN_POINT ( 'NONE',  ( 349.9999999999998863, 232.4213924734459340, -105.0000000000000000 ) ) ;
#57 = ADVANCED_FACE ( 'NONE', ( #9 ), #321, .F. ) ;
#58 = CALENDAR_DATE ( 2026, 28, 1 ) ;
#59 = CARTESIAN_POINT ( 'NONE',  ( -65.00000000000004263, -67.57860752655405179, -105.0000000000000000 ) ) ;
#60 = PERSON_AND_ORGANIZATION_ROLE ( 'creator' ) ;
#61 = DIRECTION ( 'NONE',  ( -1.850371707708594070E-16, 1.000000000000000000, -0.000000000000000000 ) ) ;
#62 = LINE ( 'NONE', #374, #292 ) ;
#63 = AXIS2_PLACEMENT_3D ( 'NONE', #168, #88, #243 ) ;
#64 = VECTOR ( 'NONE', #346, 1000.000000000000000 ) ;
#65 = EDGE_LOOP ( 'NONE', ( #315, #210, #163, #461 ) ) ;
#66 = LINE ( 'NONE', #297, #452 ) ;
#67 = DIRECTION ( 'NONE',  ( 0.000000000000000000, 1.000000000000000000, 0.000000000000000000 ) ) ;
#68 = ORIENTED_EDGE ( 'NONE', *, *, #10, .F. ) ;
#69 = EDGE_CURVE ( 'NONE', #431, #423, #208, .T. ) ;
#70 = PLANE ( 'NONE',  #507 ) ;
#71 = APPLICATION_CONTEXT ( 'configuration controlled 3d designs of mechanical parts and assemblies' ) ;
#72 = ORIENTED_EDGE ( 'NONE', *, *, #153, .T. ) ;
#73 = VECTOR ( 'NONE', #450, 1000.000000000000000 ) ;
#74 = PRODUCT_DEFINITION_SHAPE ( 'NONE', 'NONE',  #125 ) ;
#75 = DIRECTION ( 'NONE',  ( 0.000000000000000000, -0.000000000000000000, 1.000000000000000000 ) ) ;
#76 = VERTEX_POINT ( 'NONE', #324 ) ;
#77 = FACE_OUTER_BOUND ( 'NONE', #109, .T. ) ;
#78 = VERTEX_POINT ( 'NONE', #485 ) ;
#79 = DIRECTION ( 'NONE',  ( -1.000000000000000000, -1.460819769243627377E-16, 0.000000000000000000 ) ) ;
#80 = ORIENTED_EDGE ( 'NONE', *, *, #153, .F. ) ;
#81 = CARTESIAN_POINT ( 'NONE',  ( 11.00000000000000711, 172.4213924734459340, -105.0000000000000000 ) ) ;
#82 = ORIENTED_EDGE ( 'NONE', *, *, #84, .F. ) ;
#83 = DIRECTION ( 'NONE',  ( 1.850371707708594070E-16, -1.000000000000000000, 0.000000000000000000 ) ) ;
#84 = EDGE_CURVE ( 'NONE', #271, #273, #249, .T. ) ;
#85 = DIRECTION ( 'NONE',  ( -1.000000000000000000, 0.000000000000000000, 0.000000000000000000 ) ) ;
#86 = DIRECTION ( 'NONE',  ( -0.000000000000000000, -0.000000000000000000, 1.000000000000000000 ) ) ;
#87 = AXIS2_PLACEMENT_3D ( 'NONE', #183, #333, #497 ) ;
#88 = DIRECTION ( 'NONE',  ( 0.000000000000000000, 0.000000000000000000, 1.000000000000000000 ) ) ;
#89 = ORIENTED_EDGE ( 'NONE', *, *, #214, .F. ) ;
#90 = PERSON_AND_ORGANIZATION ( #22, #138 ) ;
#91 = ORIENTED_EDGE ( 'NONE', *, *, #397, .F. ) ;
#92 = COORDINATED_UNIVERSAL_TIME_OFFSET ( 1, 0, .AHEAD. ) ;
#93 = LINE ( 'NONE', #175, #73 ) ;
#94 = CC_DESIGN_DATE_AND_TIME_ASSIGNMENT ( #305, #405, ( #171 ) ) ;
#95 = EDGE_CURVE ( 'NONE', #395, #503, #25, .T. ) ;
#96 = VECTOR ( 'NONE', #499, 1000.000000000000000 ) ;
#97 = VECTOR ( 'NONE', #151, 1000.000000000000000 ) ;
#98 = LINE ( 'NONE', #414, #416 ) ;
#99 = ORIENTED_EDGE ( 'NONE', *, *, #242, .T. ) ;
#100 = APPROVAL_STATUS ( 'not_yet_approved' ) ;
#101 = DIRECTION ( 'NONE',  ( -1.850371707708594070E-16, 1.000000000000000000, -0.000000000000000000 ) ) ;
#102 = ORIENTED_EDGE ( 'NONE', *, *, #263, .T. ) ;
#103 = DATE_AND_TIME ( #212, #334 ) ;
#104 = EDGE_CURVE ( 'NONE', #76, #399, #66, .T. ) ;
#105 = DIRECTION ( 'NONE',  ( -2.496005001405476614E-16, 1.000000000000000000, 0.000000000000000000 ) ) ;
#106 = CARTESIAN_POINT ( 'NONE',  ( -55.00000000000003553, 81.42139247344594821, 105.0000000000000000 ) ) ;
#107 = CIRCLE ( 'NONE', #284, 11.00000000000000711 ) ;
#108 = DIRECTION ( 'NONE',  ( 0.7071067811865460184, 0.7071067811865490160, -0.000000000000000000 ) ) ;
#109 = EDGE_LOOP ( 'NONE', ( #41, #482, #387, #185 ) ) ;
#110 = FACE_OUTER_BOUND ( 'NONE', #313, .T. ) ;
#111 = ORIENTED_EDGE ( 'NONE', *, *, #229, .F. ) ;
#112 = APPROVAL ( #409, 'UNSPECIFIED' ) ;
#113 = DIRECTION ( 'NONE',  ( -0.000000000000000000, 0.000000000000000000, 1.000000000000000000 ) ) ;
#114 = EDGE_CURVE ( 'NONE', #121, #500, #328, .T. ) ;
#115 = VERTEX_POINT ( 'NONE', #18 ) ;
#116 = CARTESIAN_POINT ( 'NONE',  ( -65.00000000000004263, -67.57860752655405179, -105.0000000000000000 ) ) ;
#117 = ORIENTED_EDGE ( 'NONE', *, *, #465, .F. ) ;
#118 = CARTESIAN_POINT ( 'NONE',  ( -349.9999999999999432, -67.57860752655409442, 105.0000000000000000 ) ) ;
#119 = EDGE_LOOP ( 'NONE', ( #233, #478, #52, #459 ) ) ;
#120 = LINE ( 'NONE', #325, #424 ) ;
#121 = VERTEX_POINT ( 'NONE', #106 ) ;
#122 = CARTESIAN_POINT ( 'NONE',  ( -55.00000000000003553, 81.42139247344594821, -105.0000000000000000 ) ) ;
#123 = EDGE_CURVE ( 'NONE', #500, #423, #21, .T. ) ;
#124 = ORIENTED_EDGE ( 'NONE', *, *, #214, .T. ) ;
#125 = PRODUCT_DEFINITION ( 'UNKNOWN', '', #308, #276 ) ;
#126 = FACE_OUTER_BOUND ( 'NONE', #428, .T. ) ;
#127 = CARTESIAN_POINT ( 'NONE',  ( 0.000000000000000000, 172.4213924734459340, -105.0000000000000000 ) ) ;
#128 = DIRECTION ( 'NONE',  ( 0.000000000000000000, -1.000000000000000000, 0.000000000000000000 ) ) ;
#129 = ORIENTED_EDGE ( 'NONE', *, *, #483, .F. ) ;
#130 = AXIS2_PLACEMENT_3D ( 'NONE', #473, #341, #498 ) ;
#131 = DIRECTION ( 'NONE',  ( 0.000000000000000000, 0.000000000000000000, 1.000000000000000000 ) ) ;
#132 = CARTESIAN_POINT ( 'NONE',  ( 349.9999999999998863, 232.4213924734459340, 105.0000000000000000 ) ) ;
#133 = APPLICATION_PROTOCOL_DEFINITION ( 'international standard', 'config_control_design', 1994, #71 ) ;
#134 = LINE ( 'NONE', #370, #310 ) ;
#135 = EDGE_CURVE ( 'NONE', #161, #194, #62, .T. ) ;
#136 = APPROVAL_ROLE ( '' ) ;
#137 = DIRECTION ( 'NONE',  ( -0.000000000000000000, -0.000000000000000000, -1.000000000000000000 ) ) ;
#138 = ORGANIZATION ( 'UNSPECIFIED', 'UNSPECIFIED', '' ) ;
#139 = VECTOR ( 'NONE', #488, 1000.000000000000000 ) ;
#140 = DIRECTION ( 'NONE',  ( 0.000000000000000000, 0.000000000000000000, 1.000000000000000000 ) ) ;
#141 = ADVANCED_FACE ( 'NONE', ( #458 ), #496, .F. ) ;
#142 = PERSON_AND_ORGANIZATION_ROLE ( 'design_supplier' ) ;
#143 = DIRECTION ( 'NONE',  ( -0.000000000000000000, -0.000000000000000000, 1.000000000000000000 ) ) ;
#144 = CARTESIAN_POINT ( 'NONE',  ( 55.00000000000000000, -57.57860752655412995, 105.0000000000000000 ) ) ;
#145 = CARTESIAN_POINT ( 'NONE',  ( -55.00000000000003553, -57.57860752655408021, 105.0000000000000000 ) ) ;
#146 = FACE_OUTER_BOUND ( 'NONE', #53, .T. ) ;
#147 = ORIENTED_EDGE ( 'NONE', *, *, #411, .F. ) ;
#148 = EDGE_CURVE ( 'NONE', #267, #392, #134, .T. ) ;
#149 = DIRECTION ( 'NONE',  ( 1.000000000000000000, 0.000000000000000000, 0.000000000000000000 ) ) ;
#150 = EDGE_CURVE ( 'NONE', #392, #161, #93, .T. ) ;
#151 = DIRECTION ( 'NONE',  ( 1.850371707708594070E-16, -1.000000000000000000, 0.000000000000000000 ) ) ;
#152 = ORIENTED_EDGE ( 'NONE', *, *, #195, .F. ) ;
#153 = EDGE_CURVE ( 'NONE', #431, #219, #408, .T. ) ;
#154 = CARTESIAN_POINT ( 'NONE',  ( -11.00000000000000711, 172.4213924734459340, 105.0000000000000000 ) ) ;
#155 =( GEOMETRIC_REPRESENTATION_CONTEXT ( 3 ) GLOBAL_UNCERTAINTY_ASSIGNED_CONTEXT ( ( #432 ) ) GLOBAL_UNIT_ASSIGNED_CONTEXT ( ( #398, #394, #477 ) ) REPRESENTATION_CONTEXT ( 'NONE', 'WORKASPACE' ) );
#156 = ORIENTED_EDGE ( 'NONE', *, *, #339, .F. ) ;
#157 = AXIS2_PLACEMENT_3D ( 'NONE', #491, #291, #177 ) ;
#158 = LINE ( 'NONE', #379, #29 ) ;
#159 = EDGE_LOOP ( 'NONE', ( #344, #254 ) ) ;
#160 = CARTESIAN_POINT ( 'NONE',  ( -55.00000000000003553, -57.57860752655408021, 105.0000000000000000 ) ) ;
#161 = VERTEX_POINT ( 'NONE', #340 ) ;
#162 = LINE ( 'NONE', #40, #358 ) ;
#163 = ORIENTED_EDGE ( 'NONE', *, *, #104, .F. ) ;
#164 = LOCAL_TIME ( 13, 25, 31.00000000000000000, #345 ) ;
#165 = AXIS2_PLACEMENT_3D ( 'NONE', #430, #380, #468 ) ;
#166 = CARTESIAN_POINT ( 'NONE',  ( 349.9999999999998863, 232.4213924734459340, 105.0000000000000000 ) ) ;
#167 = ORIENTED_EDGE ( 'NONE', *, *, #280, .T. ) ;
#168 = CARTESIAN_POINT ( 'NONE',  ( 0.000000000000000000, 172.4213924734459340, 105.0000000000000000 ) ) ;
#169 = DIRECTION ( 'NONE',  ( -0.000000000000000000, -0.000000000000000000, -1.000000000000000000 ) ) ;
#170 = FACE_OUTER_BOUND ( 'NONE', #65, .T. ) ;
#171 = SECURITY_CLASSIFICATION ( '', '', #449 ) ;
#172 = PERSON_AND_ORGANIZATION_ROLE ( 'design_owner' ) ;
#173 = LINE ( 'NONE', #255, #7 ) ;
#174 = PERSON_AND_ORGANIZATION ( #22, #138 ) ;
#175 = CARTESIAN_POINT ( 'NONE',  ( 349.9999999999999432, -67.57860752655409442, -105.0000000000000000 ) ) ;
#176 = SHAPE_DEFINITION_REPRESENTATION ( #74, #44 ) ;
#177 = DIRECTION ( 'NONE',  ( 1.000000000000000000, 0.000000000000000000, 0.000000000000000000 ) ) ;
#178 = EDGE_CURVE ( 'NONE', #267, #76, #173, .T. ) ;
#179 = VECTOR ( 'NONE', #360, 1000.000000000000000 ) ;
#180 = APPLICATION_PROTOCOL_DEFINITION ( 'international standard', 'config_control_design', 1994, #244 ) ;
#181 = VECTOR ( 'NONE', #204, 1000.000000000000000 ) ;
#182 = DIRECTION ( 'NONE',  ( 1.000000000000000000, 0.000000000000000000, 0.000000000000000000 ) ) ;
#183 = CARTESIAN_POINT ( 'NONE',  ( 349.9999999999999432, -67.57860752655409442, 105.0000000000000000 ) ) ;
#184 = CARTESIAN_POINT ( 'NONE',  ( -349.9999999999999432, -67.57860752655409442, 105.0000000000000000 ) ) ;
#185 = ORIENTED_EDGE ( 'NONE', *, *, #229, .T. ) ;
#186 = LINE ( 'NONE', #300, #199 ) ;
#187 = LOCAL_TIME ( 13, 25, 31.00000000000000000, #92 ) ;
#188 = EDGE_LOOP ( 'NONE', ( #353, #446, #156, #440 ) ) ;
#189 = PERSON_AND_ORGANIZATION_ROLE ( 'classification_officer' ) ;
#190 = CARTESIAN_POINT ( 'NONE',  ( -55.00000000000003553, 81.42139247344594821, 105.0000000000000000 ) ) ;
#191 = ORIENTED_EDGE ( 'NONE', *, *, #150, .F. ) ;
#192 = EDGE_CURVE ( 'NONE', #273, #78, #24, .T. ) ;
#193 = PLANE ( 'NONE',  #165 ) ;
#194 = VERTEX_POINT ( 'NONE', #56 ) ;
#195 = EDGE_CURVE ( 'NONE', #395, #453, #98, .T. ) ;
#196 = CYLINDRICAL_SURFACE ( 'NONE', #415, 11.00000000000000711 ) ;
#197 = AXIS2_PLACEMENT_3D ( 'NONE', #505, #113, #37 ) ;
#198 = ORIENTED_EDGE ( 'NONE', *, *, #263, .F. ) ;
#199 = VECTOR ( 'NONE', #67, 1000.000000000000000 ) ;
#200 = DIRECTION ( 'NONE',  ( -0.000000000000000000, -0.000000000000000000, -1.000000000000000000 ) ) ;
#201 = ORIENTED_EDGE ( 'NONE', *, *, #371, .F. ) ;
#202 = ORIENTED_EDGE ( 'NONE', *, *, #23, .F. ) ;
#203 = FACE_BOUND ( 'NONE', #294, .T. ) ;
#204 = DIRECTION ( 'NONE',  ( 0.000000000000000000, 1.000000000000000000, 0.000000000000000000 ) ) ;
#205 = CIRCLE ( 'NONE', #63, 11.00000000000000711 ) ;
#206 = VECTOR ( 'NONE', #253, 1000.000000000000000 ) ;
#207 = LINE ( 'NONE', #320, #46 ) ;
#208 = LINE ( 'NONE', #12, #318 ) ;
#209 = CARTESIAN_POINT ( 'NONE',  ( -65.00000000000004263, -67.57860752655405179, 105.0000000000000000 ) ) ;
#210 = ORIENTED_EDGE ( 'NONE', *, *, #421, .F. ) ;
#211 = EDGE_LOOP ( 'NONE', ( #1, #301, #245, #287 ) ) ;
#212 = CALENDAR_DATE ( 2026, 28, 1 ) ;
#213 = CARTESIAN_POINT ( 'NONE',  ( -55.00000000000003553, -57.57860752655408021, 105.0000000000000000 ) ) ;
#214 = EDGE_CURVE ( 'NONE', #6, #271, #221, .T. ) ;
#215 = CALENDAR_DATE ( 2026, 28, 1 ) ;
#216 = ADVANCED_FACE ( 'NONE', ( #26 ), #460, .F. ) ;
#217 = LINE ( 'NONE', #184, #285 ) ;
#218 = DIRECTION ( 'NONE',  ( 1.000000000000000000, -0.000000000000000000, -0.000000000000000000 ) ) ;
#219 = VERTEX_POINT ( 'NONE', #144 ) ;
#220 = AXIS2_PLACEMENT_3D ( 'NONE', #127, #86, #50 ) ;
#221 = LINE ( 'NONE', #492, #472 ) ;
#222 = DIRECTION ( 'NONE',  ( -0.000000000000000000, -0.000000000000000000, -1.000000000000000000 ) ) ;
#223 = DIRECTION ( 'NONE',  ( 1.000000000000000000, 0.000000000000000000, 0.000000000000000000 ) ) ;
#224 = VERTEX_POINT ( 'NONE', #213 ) ;
#225 = DIRECTION ( 'NONE',  ( 1.000000000000000000, 0.000000000000000000, 0.000000000000000000 ) ) ;
#226 = VECTOR ( 'NONE', #182, 1000.000000000000000 ) ;
#227 = EDGE_LOOP ( 'NONE', ( #102, #124, #283, #167, #307, #72, #36, #467, #260, #304 ) ) ;
#228 = EDGE_CURVE ( 'NONE', #115, #392, #368, .T. ) ;
#229 = EDGE_CURVE ( 'NONE', #453, #269, #377, .T. ) ;
#230 = DIRECTION ( 'NONE',  ( -0.000000000000000000, -0.000000000000000000, -1.000000000000000000 ) ) ;
#231 = VERTEX_POINT ( 'NONE', #252 ) ;
#232 = FACE_BOUND ( 'NONE', #159, .T. ) ;
#233 = ORIENTED_EDGE ( 'NONE', *, *, #150, .T. ) ;
#234 = AXIS2_PLACEMENT_3D ( 'NONE', #11, #128, #238 ) ;
#235 = ORIENTED_EDGE ( 'NONE', *, *, #49, .F. ) ;
#236 = DIRECTION ( 'NONE',  ( 0.7071067811865489050, -0.7071067811865460184, -0.000000000000000000 ) ) ;
#237 = VERTEX_POINT ( 'NONE', #410 ) ;
#238 = DIRECTION ( 'NONE',  ( 0.000000000000000000, -0.000000000000000000, -1.000000000000000000 ) ) ;
#239 = LINE ( 'NONE', #45, #181 ) ;
#240 = CARTESIAN_POINT ( 'NONE',  ( 11.00000000000000711, 172.4213924734459340, 105.0000000000000000 ) ) ;
#241 = ORIENTED_EDGE ( 'NONE', *, *, #274, .T. ) ;
#242 = EDGE_CURVE ( 'NONE', #6, #231, #217, .T. ) ;
#243 = DIRECTION ( 'NONE',  ( 1.000000000000000000, 0.000000000000000000, 0.000000000000000000 ) ) ;
#244 = APPLICATION_CONTEXT ( 'configuration controlled 3d designs of mechanical parts and assemblies' ) ;
#245 = ORIENTED_EDGE ( 'NONE', *, *, #280, .F. ) ;
#246 = DIRECTION ( 'NONE',  ( 0.000000000000000000, 0.000000000000000000, 1.000000000000000000 ) ) ;
#247 = ORIENTED_EDGE ( 'NONE', *, *, #10, .T. ) ;
#248 = APPROVAL_ROLE ( '' ) ;
#249 = LINE ( 'NONE', #448, #335 ) ;
#250 = LOCAL_TIME ( 13, 25, 31.00000000000000000, #54 ) ;
#251 = CALENDAR_DATE ( 2026, 28, 1 ) ;
#252 = CARTESIAN_POINT ( 'NONE',  ( -349.9999999999999432, -67.57860752655409442, -105.0000000000000000 ) ) ;
#253 = DIRECTION ( 'NONE',  ( 2.496005001405476614E-16, -1.000000000000000000, -0.000000000000000000 ) ) ;
#254 = ORIENTED_EDGE ( 'NONE', *, *, #412, .T. ) ;
#255 = CARTESIAN_POINT ( 'NONE',  ( 349.9999999999999432, -67.57860752655409442, 105.0000000000000000 ) ) ;
#256 = MANIFOLD_SOLID_BREP ( 'Cut-Extrude1', #351 ) ;
#257 = VECTOR ( 'NONE', #48, 1000.000000000000114 ) ;
#258 = DIRECTION ( 'NONE',  ( 1.000000000000000000, 2.496005001405476614E-16, -0.000000000000000000 ) ) ;
#259 = LINE ( 'NONE', #418, #96 ) ;
#260 = ORIENTED_EDGE ( 'NONE', *, *, #104, .T. ) ;
#261 = DIRECTION ( 'NONE',  ( -0.7071067811865490160, 0.7071067811865460184, 0.000000000000000000 ) ) ;
#262 = ORIENTED_EDGE ( 'NONE', *, *, #148, .F. ) ;
#263 = EDGE_CURVE ( 'NONE', #237, #6, #475, .T. ) ;
#264 = CC_DESIGN_APPROVAL ( #504, ( #308 ) ) ;
#265 = CARTESIAN_POINT ( 'NONE',  ( -55.00000000000003553, 81.42139247344594821, 105.0000000000000000 ) ) ;
#266 = VECTOR ( 'NONE', #330, 1000.000000000000114 ) ;
#267 = VERTEX_POINT ( 'NONE', #509 ) ;
#268 = CARTESIAN_POINT ( 'NONE',  ( -11.00000000000000711, 172.4213924734459340, -105.0000000000000000 ) ) ;
#269 = VERTEX_POINT ( 'NONE', #154 ) ;
#270 = DIRECTION ( 'NONE',  ( -1.460819769243627377E-16, 1.000000000000000000, 0.000000000000000000 ) ) ;
#271 = VERTEX_POINT ( 'NONE', #388 ) ;
#272 = FACE_OUTER_BOUND ( 'NONE', #211, .T. ) ;
#273 = VERTEX_POINT ( 'NONE', #116 ) ;
#274 = EDGE_CURVE ( 'NONE', #503, #269, #391, .T. ) ;
#275 = CARTESIAN_POINT ( 'NONE',  ( -350.0000000000000000, 232.4213924734459340, -105.0000000000000000 ) ) ;
#276 = DESIGN_CONTEXT ( 'detailed design', #71, 'design' ) ;
#277 = ADVANCED_FACE ( 'NONE', ( #35 ), #466, .F. ) ;
#278 = CARTESIAN_POINT ( 'NONE',  ( 54.99999999999996447, 81.42139247344594821, -105.0000000000000000 ) ) ;
#279 = LINE ( 'NONE', #396, #139 ) ;
#280 = EDGE_CURVE ( 'NONE', #224, #121, #186, .T. ) ;
#281 = EDGE_CURVE ( 'NONE', #224, #78, #350, .T. ) ;
#282 = DIRECTION ( 'NONE',  ( 1.000000000000000000, 0.000000000000000000, 0.000000000000000000 ) ) ;
#283 = ORIENTED_EDGE ( 'NONE', *, *, #411, .T. ) ;
#284 = AXIS2_PLACEMENT_3D ( 'NONE', #2, #131, #354 ) ;
#285 = VECTOR ( 'NONE', #230, 1000.000000000000000 ) ;
#286 = FACE_OUTER_BOUND ( 'NONE', #227, .T. ) ;
#287 = ORIENTED_EDGE ( 'NONE', *, *, #281, .T. ) ;
#288 = COORDINATED_UNIVERSAL_TIME_OFFSET ( 1, 0, .AHEAD. ) ;
#289 = DIRECTION ( 'NONE',  ( -0.000000000000000000, -0.000000000000000000, -1.000000000000000000 ) ) ;
#290 = PERSON_AND_ORGANIZATION ( #22, #138 ) ;
#291 = DIRECTION ( 'NONE',  ( 0.000000000000000000, 0.000000000000000000, 1.000000000000000000 ) ) ;
#292 = VECTOR ( 'NONE', #101, 1000.000000000000000 ) ;
#293 = CARTESIAN_POINT ( 'NONE',  ( 55.00000000000000000, -57.57860752655412995, 105.0000000000000000 ) ) ;
#294 = EDGE_LOOP ( 'NONE', ( #111, #129 ) ) ;
#295 = PERSON_AND_ORGANIZATION ( #22, #138 ) ;
#296 = ADVANCED_FACE ( 'NONE', ( #146 ), #193, .F. ) ;
#297 = CARTESIAN_POINT ( 'NONE',  ( 349.9999999999998863, 232.4213924734459340, 105.0000000000000000 ) ) ;
#298 = CARTESIAN_POINT ( 'NONE',  ( -55.00000000000003553, 81.42139247344594821, 105.0000000000000000 ) ) ;
#299 = VECTOR ( 'NONE', #200, 1000.000000000000000 ) ;
#300 = CARTESIAN_POINT ( 'NONE',  ( -55.00000000000003553, -57.57860752655408021, 105.0000000000000000 ) ) ;
#301 = ORIENTED_EDGE ( 'NONE', *, *, #114, .F. ) ;
#302 = CARTESIAN_POINT ( 'NONE',  ( -350.0000000000000000, 232.4213924734459340, 105.0000000000000000 ) ) ;
#303 = ADVANCED_FACE ( 'NONE', ( #77 ), #196, .F. ) ;
#304 = ORIENTED_EDGE ( 'NONE', *, *, #471, .T. ) ;
#305 = DATE_AND_TIME ( #332, #164 ) ;
#306 = FACE_OUTER_BOUND ( 'NONE', #3, .T. ) ;
#307 = ORIENTED_EDGE ( 'NONE', *, *, #339, .T. ) ;
#308 = PRODUCT_DEFINITION_FORMATION_WITH_SPECIFIED_SOURCE ( 'ANY', '', #386, .NOT_KNOWN. ) ;
#309 = DIRECTION ( 'NONE',  ( -0.000000000000000000, -0.000000000000000000, -1.000000000000000000 ) ) ;
#310 = VECTOR ( 'NONE', #289, 1000.000000000000000 ) ;
#311 = ORIENTED_EDGE ( 'NONE', *, *, #412, .F. ) ;
#312 = PLANE ( 'NONE',  #376 ) ;
#313 = EDGE_LOOP ( 'NONE', ( #474, #82, #89, #99 ) ) ;
#314 = LINE ( 'NONE', #357, #299 ) ;
#315 = ORIENTED_EDGE ( 'NONE', *, *, #135, .T. ) ;
#316 = CARTESIAN_POINT ( 'NONE',  ( 54.99999999999996447, 81.42139247344594821, 105.0000000000000000 ) ) ;
#317 = VECTOR ( 'NONE', #225, 1000.000000000000000 ) ;
#318 = VECTOR ( 'NONE', #169, 1000.000000000000000 ) ;
#319 = ORIENTED_EDGE ( 'NONE', *, *, #84, .T. ) ;
#320 = CARTESIAN_POINT ( 'NONE',  ( 349.9999999999999432, -67.57860752655409442, 105.0000000000000000 ) ) ;
#321 = CYLINDRICAL_SURFACE ( 'NONE', #220, 11.00000000000000711 ) ;
#322 = CC_DESIGN_PERSON_AND_ORGANIZATION_ASSIGNMENT ( #174, #142, ( #308 ) ) ;
#323 = LINE ( 'NONE', #209, #257 ) ;
#324 = CARTESIAN_POINT ( 'NONE',  ( 349.9999999999999432, -67.57860752655409442, 105.0000000000000000 ) ) ;
#325 = CARTESIAN_POINT ( 'NONE',  ( 65.00000000000000000, -67.57860752655409442, 105.0000000000000000 ) ) ;
#326 = PLANE ( 'NONE',  #401 ) ;
#327 = AXIS2_PLACEMENT_3D ( 'NONE', #27, #108, #261 ) ;
#328 = LINE ( 'NONE', #298, #508 ) ;
#329 = COORDINATED_UNIVERSAL_TIME_OFFSET ( 1, 0, .AHEAD. ) ;
#330 = DIRECTION ( 'NONE',  ( 0.7071067811865489050, -0.7071067811865460184, -0.000000000000000000 ) ) ;
#331 = EDGE_CURVE ( 'NONE', #237, #347, #158, .T. ) ;
#332 = CALENDAR_DATE ( 2026, 28, 1 ) ;
#333 = DIRECTION ( 'NONE',  ( 0.000000000000000000, 1.000000000000000000, -0.000000000000000000 ) ) ;
#334 = LOCAL_TIME ( 13, 25, 31.00000000000000000, #288 ) ;
#335 = VECTOR ( 'NONE', #137, 1000.000000000000000 ) ;
#336 = ADVANCED_FACE ( 'NONE', ( #232, #306 ), #28, .F. ) ;
#337 = APPROVAL_DATE_TIME ( #455, #13 ) ;
#338 = CARTESIAN_POINT ( 'NONE',  ( -55.00000000000003553, 81.42139247344594821, -105.0000000000000000 ) ) ;
#339 = EDGE_CURVE ( 'NONE', #121, #431, #502, .T. ) ;
#340 = CARTESIAN_POINT ( 'NONE',  ( 349.9999999999999432, -67.57860752655409442, -105.0000000000000000 ) ) ;
#341 = DIRECTION ( 'NONE',  ( -0.7071067811865461294, 0.7071067811865490160, 0.000000000000000000 ) ) ;
#342 = CC_DESIGN_SECURITY_CLASSIFICATION ( #171, ( #308 ) ) ;
#343 = CARTESIAN_POINT ( 'NONE',  ( -350.0000000000000000, 232.4213924734459340, -105.0000000000000000 ) ) ;
#344 = ORIENTED_EDGE ( 'NONE', *, *, #95, .T. ) ;
#345 = COORDINATED_UNIVERSAL_TIME_OFFSET ( 1, 0, .AHEAD. ) ;
#346 = DIRECTION ( 'NONE',  ( -0.000000000000000000, -0.000000000000000000, 1.000000000000000000 ) ) ;
#347 = VERTEX_POINT ( 'NONE', #343 ) ;
#348 = DIRECTION ( 'NONE',  ( -0.000000000000000000, -0.000000000000000000, 1.000000000000000000 ) ) ;
#349 = ORIENTED_EDGE ( 'NONE', *, *, #331, .T. ) ;
#350 = LINE ( 'NONE', #145, #384 ) ;
#351 = CLOSED_SHELL ( 'NONE', ( #57, #296, #356, #277, #390, #373, #141, #366, #216, #42, #375, #439, #336, #303 ) ) ;
#352 = ORIENTED_EDGE ( 'NONE', *, *, #228, .F. ) ;
#353 = ORIENTED_EDGE ( 'NONE', *, *, #123, .T. ) ;
#354 = DIRECTION ( 'NONE',  ( 1.000000000000000000, 0.000000000000000000, 0.000000000000000000 ) ) ;
#355 = ORIENTED_EDGE ( 'NONE', *, *, #123, .F. ) ;
#356 = ADVANCED_FACE ( 'NONE', ( #110 ), #312, .F. ) ;
#357 = CARTESIAN_POINT ( 'NONE',  ( 55.00000000000000000, -57.57860752655412995, 105.0000000000000000 ) ) ;
#358 = VECTOR ( 'NONE', #5, 1000.000000000000000 ) ;
#359 = CC_DESIGN_PERSON_AND_ORGANIZATION_ASSIGNMENT ( #367, #19, ( #308 ) ) ;
#360 = DIRECTION ( 'NONE',  ( -1.000000000000000000, 0.000000000000000000, 0.000000000000000000 ) ) ;
#361 = DIRECTION ( 'NONE',  ( -1.000000000000000000, -1.850371707708594070E-16, 0.000000000000000000 ) ) ;
#362 = CARTESIAN_POINT ( 'NONE',  ( 349.9999999999998863, 232.4213924734459340, 105.0000000000000000 ) ) ;
#363 = EDGE_LOOP ( 'NONE', ( #311, #241, #381, #152 ) ) ;
#364 = MECHANICAL_CONTEXT ( 'NONE', #244, 'mechanical' ) ;
#365 = ORIENTED_EDGE ( 'NONE', *, *, #427, .F. ) ;
#366 = ADVANCED_FACE ( 'NONE', ( #385 ), #33, .F. ) ;
#367 = PERSON_AND_ORGANIZATION ( #22, #138 ) ;
#368 = LINE ( 'NONE', #20, #266 ) ;
#369 = APPROVAL_DATE_TIME ( #501, #112 ) ;
#370 = CARTESIAN_POINT ( 'NONE',  ( 65.00000000000000000, -67.57860752655409442, 105.0000000000000000 ) ) ;
#371 = EDGE_CURVE ( 'NONE', #231, #273, #259, .T. ) ;
#372 = PERSON_AND_ORGANIZATION ( #22, #138 ) ;
#373 = ADVANCED_FACE ( 'NONE', ( #422 ), #70, .F. ) ;
#374 = CARTESIAN_POINT ( 'NONE',  ( 349.9999999999998863, 232.4213924734459340, -105.0000000000000000 ) ) ;
#375 = ADVANCED_FACE ( 'NONE', ( #126 ), #484, .F. ) ;
#376 = AXIS2_PLACEMENT_3D ( 'NONE', #118, #270, #79 ) ;
#377 = CIRCLE ( 'NONE', #157, 11.00000000000000711 ) ;
#378 = DIRECTION ( 'NONE',  ( 1.000000000000000000, 1.460819769243627624E-16, 0.000000000000000000 ) ) ;
#379 = CARTESIAN_POINT ( 'NONE',  ( -350.0000000000000000, 232.4213924734459340, 105.0000000000000000 ) ) ;
#380 = DIRECTION ( 'NONE',  ( 1.000000000000000000, 1.850371707708594070E-16, -0.000000000000000000 ) ) ;
#381 = ORIENTED_EDGE ( 'NONE', *, *, #483, .T. ) ;
#382 = DATE_AND_TIME ( #215, #250 ) ;
#383 = CC_DESIGN_APPROVAL ( #13, ( #125 ) ) ;
#384 = VECTOR ( 'NONE', #309, 1000.000000000000000 ) ;
#385 = FACE_OUTER_BOUND ( 'NONE', #476, .T. ) ;
#386 = PRODUCT ( 'Arm_ballast_big_Default_sldprt', 'Arm_ballast_big_Default_sldprt', '', ( #364 ) ) ;
#387 = ORIENTED_EDGE ( 'NONE', *, *, #195, .T. ) ;
#388 = CARTESIAN_POINT ( 'NONE',  ( -65.00000000000004263, -67.57860752655405179, 105.0000000000000000 ) ) ;
#389 = ORIENTED_EDGE ( 'NONE', *, *, #465, .T. ) ;
#390 = ADVANCED_FACE ( 'NONE', ( #272 ), #51, .F. ) ;
#391 = LINE ( 'NONE', #268, #64 ) ;
#392 = VERTEX_POINT ( 'NONE', #441 ) ;
#393 = AXIS2_PLACEMENT_3D ( 'NONE', #486, #479, #282 ) ;
#394 =( NAMED_UNIT ( * ) PLANE_ANGLE_UNIT ( ) SI_UNIT ( $, .RADIAN. ) );
#395 = VERTEX_POINT ( 'NONE', #81 ) ;
#396 = CARTESIAN_POINT ( 'NONE',  ( 349.9999999999998863, 232.4213924734459340, -105.0000000000000000 ) ) ;
#397 = EDGE_CURVE ( 'NONE', #219, #267, #120, .T. ) ;
#398 =( LENGTH_UNIT ( ) NAMED_UNIT ( * ) SI_UNIT ( .MILLI., .METRE. ) );
#399 = VERTEX_POINT ( 'NONE', #166 ) ;
#400 = CARTESIAN_POINT ( 'NONE',  ( 349.9999999999998863, 232.4213924734459340, 105.0000000000000000 ) ) ;
#401 = AXIS2_PLACEMENT_3D ( 'NONE', #132, #361, #83 ) ;
#402 = ORIENTED_EDGE ( 'NONE', *, *, #471, .F. ) ;
#403 = LINE ( 'NONE', #362, #55 ) ;
#404 = ORIENTED_EDGE ( 'NONE', *, *, #228, .T. ) ;
#405 = DATE_TIME_ROLE ( 'classification_date' ) ;
#406 = ORIENTED_EDGE ( 'NONE', *, *, #421, .T. ) ;
#407 = PERSON_AND_ORGANIZATION ( #22, #138 ) ;
#408 = LINE ( 'NONE', #293, #206 ) ;
#409 = APPROVAL_STATUS ( 'not_yet_approved' ) ;
#410 = CARTESIAN_POINT ( 'NONE',  ( -350.0000000000000000, 232.4213924734459340, 105.0000000000000000 ) ) ;
#411 = EDGE_CURVE ( 'NONE', #271, #224, #323, .T. ) ;
#412 = EDGE_CURVE ( 'NONE', #503, #395, #107, .T. ) ;
#413 = CARTESIAN_POINT ( 'NONE',  ( 0.000000000000000000, 172.4213924734459340, -105.0000000000000000 ) ) ;
#414 = CARTESIAN_POINT ( 'NONE',  ( 11.00000000000000711, 172.4213924734459340, -105.0000000000000000 ) ) ;
#415 = AXIS2_PLACEMENT_3D ( 'NONE', #463, #348, #223 ) ;
#416 = VECTOR ( 'NONE', #143, 1000.000000000000000 ) ;
#417 = DIRECTION ( 'NONE',  ( 0.7071067811865489050, 0.7071067811865461294, 0.000000000000000000 ) ) ;
#418 = CARTESIAN_POINT ( 'NONE',  ( -349.9999999999999432, -67.57860752655409442, -105.0000000000000000 ) ) ;
#419 = ORIENTED_EDGE ( 'NONE', *, *, #69, .T. ) ;
#420 = CC_DESIGN_PERSON_AND_ORGANIZATION_ASSIGNMENT ( #295, #189, ( #171 ) ) ;
#421 = EDGE_CURVE ( 'NONE', #399, #194, #403, .T. ) ;
#422 = FACE_OUTER_BOUND ( 'NONE', #188, .T. ) ;
#423 = VERTEX_POINT ( 'NONE', #278 ) ;
#424 = VECTOR ( 'NONE', #236, 1000.000000000000114 ) ;
#425 = AXIS2_PLACEMENT_3D ( 'NONE', #490, #258, #105 ) ;
#426 = DIRECTION ( 'NONE',  ( 0.000000000000000000, 1.000000000000000000, 0.000000000000000000 ) ) ;
#427 = EDGE_CURVE ( 'NONE', #423, #115, #162, .T. ) ;
#428 = EDGE_LOOP ( 'NONE', ( #247, #469, #402, #406 ) ) ;
#429 = CC_DESIGN_PERSON_AND_ORGANIZATION_ASSIGNMENT ( #495, #60, ( #125 ) ) ;
#430 = CARTESIAN_POINT ( 'NONE',  ( -350.0000000000000000, 232.4213924734459340, 105.0000000000000000 ) ) ;
#431 = VERTEX_POINT ( 'NONE', #316 ) ;
#432 = UNCERTAINTY_MEASURE_WITH_UNIT (LENGTH_MEASURE( 1.000000000000000082E-05 ), #398, 'distance_accuracy_value', 'NONE');
#433 = DIRECTION ( 'NONE',  ( -0.000000000000000000, -0.000000000000000000, -1.000000000000000000 ) ) ;
#434 = ORIENTED_EDGE ( 'NONE', *, *, #192, .T. ) ;
#435 = DIRECTION ( 'NONE',  ( 0.000000000000000000, 0.000000000000000000, 1.000000000000000000 ) ) ;
#436 = ORIENTED_EDGE ( 'NONE', *, *, #23, .T. ) ;
#437 = DIRECTION ( 'NONE',  ( 1.850371707708594070E-16, -1.000000000000000000, 0.000000000000000000 ) ) ;
#438 = PLANE ( 'NONE',  #393 ) ;
#439 = ADVANCED_FACE ( 'NONE', ( #203, #286 ), #438, .T. ) ;
#440 = ORIENTED_EDGE ( 'NONE', *, *, #114, .T. ) ;
#441 = CARTESIAN_POINT ( 'NONE',  ( 65.00000000000000000, -67.57860752655409442, -105.0000000000000000 ) ) ;
#442 = APPROVAL_PERSON_ORGANIZATION ( #290, #504, #248 ) ;
#443 = VECTOR ( 'NONE', #437, 1000.000000000000000 ) ;
#444 = EDGE_LOOP ( 'NONE', ( #34, #117, #80, #419 ) ) ;
#445 = DIRECTION ( 'NONE',  ( -0.000000000000000000, -0.000000000000000000, -1.000000000000000000 ) ) ;
#446 = ORIENTED_EDGE ( 'NONE', *, *, #69, .F. ) ;
#447 = DATE_TIME_ROLE ( 'creation_date' ) ;
#448 = CARTESIAN_POINT ( 'NONE',  ( -65.00000000000004263, -67.57860752655405179, 105.0000000000000000 ) ) ;
#449 = SECURITY_CLASSIFICATION_LEVEL ( 'unclassified' ) ;
#450 = DIRECTION ( 'NONE',  ( 1.000000000000000000, -0.000000000000000000, -0.000000000000000000 ) ) ;
#451 = LOCAL_TIME ( 13, 25, 31.00000000000000000, #329 ) ;
#452 = VECTOR ( 'NONE', #61, 1000.000000000000000 ) ;
#453 = VERTEX_POINT ( 'NONE', #240 ) ;
#454 = CC_DESIGN_DATE_AND_TIME_ASSIGNMENT ( #103, #447, ( #125 ) ) ;
#455 = DATE_AND_TIME ( #251, #187 ) ;
#456 = DIRECTION ( 'NONE',  ( 1.000000000000000000, 0.000000000000000000, 0.000000000000000000 ) ) ;
#457 = APPROVAL_ROLE ( '' ) ;
#458 = FACE_OUTER_BOUND ( 'NONE', #444, .T. ) ;
#459 = ORIENTED_EDGE ( 'NONE', *, *, #148, .T. ) ;
#460 = PLANE ( 'NONE',  #87 ) ;
#461 = ORIENTED_EDGE ( 'NONE', *, *, #470, .T. ) ;
#462 = APPROVAL_PERSON_ORGANIZATION ( #90, #112, #457 ) ;
#463 = CARTESIAN_POINT ( 'NONE',  ( 0.000000000000000000, 172.4213924734459340, -105.0000000000000000 ) ) ;
#464 = EDGE_LOOP ( 'NONE', ( #434, #38, #147, #319 ) ) ;
#465 = EDGE_CURVE ( 'NONE', #219, #115, #314, .T. ) ;
#466 = PLANE ( 'NONE',  #130 ) ;
#467 = ORIENTED_EDGE ( 'NONE', *, *, #178, .T. ) ;
#468 = DIRECTION ( 'NONE',  ( -1.850371707708594070E-16, 1.000000000000000000, 0.000000000000000000 ) ) ;
#469 = ORIENTED_EDGE ( 'NONE', *, *, #331, .F. ) ;
#470 = EDGE_CURVE ( 'NONE', #76, #161, #207, .T. ) ;
#471 = EDGE_CURVE ( 'NONE', #399, #237, #481, .T. ) ;
#472 = VECTOR ( 'NONE', #378, 1000.000000000000000 ) ;
#473 = CARTESIAN_POINT ( 'NONE',  ( -65.00000000000004263, -67.57860752655405179, 105.0000000000000000 ) ) ;
#474 = ORIENTED_EDGE ( 'NONE', *, *, #371, .T. ) ;
#475 = LINE ( 'NONE', #302, #97 ) ;
#476 = EDGE_LOOP ( 'NONE', ( #404, #262, #91, #389 ) ) ;
#477 =( NAMED_UNIT ( * ) SI_UNIT ( $, .STERADIAN. ) SOLID_ANGLE_UNIT ( ) );
#478 = ORIENTED_EDGE ( 'NONE', *, *, #470, .F. ) ;
#479 = DIRECTION ( 'NONE',  ( -0.000000000000000000, 0.000000000000000000, 1.000000000000000000 ) ) ;
#480 = ORIENTED_EDGE ( 'NONE', *, *, #192, .F. ) ;
#481 = LINE ( 'NONE', #400, #179 ) ;
#482 = ORIENTED_EDGE ( 'NONE', *, *, #95, .F. ) ;
#483 = EDGE_CURVE ( 'NONE', #269, #453, #205, .T. ) ;
#484 = PLANE ( 'NONE',  #234 ) ;
#485 = CARTESIAN_POINT ( 'NONE',  ( -55.00000000000003553, -57.57860752655408021, -105.0000000000000000 ) ) ;
#486 = CARTESIAN_POINT ( 'NONE',  ( 0.000000000000000000, 0.000000000000000000, 105.0000000000000000 ) ) ;
#487 = AXIS2_PLACEMENT_3D ( 'NONE', #160, #85, #435 ) ;
#488 = DIRECTION ( 'NONE',  ( -1.000000000000000000, 0.000000000000000000, 0.000000000000000000 ) ) ;
#489 = APPROVAL_STATUS ( 'not_yet_approved' ) ;
#490 = CARTESIAN_POINT ( 'NONE',  ( 55.00000000000000000, -57.57860752655412995, 105.0000000000000000 ) ) ;
#491 = CARTESIAN_POINT ( 'NONE',  ( 0.000000000000000000, 172.4213924734459340, 105.0000000000000000 ) ) ;
#492 = CARTESIAN_POINT ( 'NONE',  ( -349.9999999999999432, -67.57860752655409442, 105.0000000000000000 ) ) ;
#493 = APPROVAL_PERSON_ORGANIZATION ( #407, #13, #136 ) ;
#494 = VECTOR ( 'NONE', #417, 1000.000000000000114 ) ;
#495 = PERSON_AND_ORGANIZATION ( #22, #138 ) ;
#496 = PLANE ( 'NONE',  #425 ) ;
#497 = DIRECTION ( 'NONE',  ( 0.000000000000000000, 0.000000000000000000, 1.000000000000000000 ) ) ;
#498 = DIRECTION ( 'NONE',  ( -0.7071067811865489050, -0.7071067811865460184, 0.000000000000000000 ) ) ;
#499 = DIRECTION ( 'NONE',  ( 1.000000000000000000, 1.460819769243627624E-16, 0.000000000000000000 ) ) ;
#500 = VERTEX_POINT ( 'NONE', #122 ) ;
#501 = DATE_AND_TIME ( #58, #451 ) ;
#502 = LINE ( 'NONE', #265, #317 ) ;
#503 = VERTEX_POINT ( 'NONE', #14 ) ;
#504 = APPROVAL ( #100, 'UNSPECIFIED' ) ;
#505 = CARTESIAN_POINT ( 'NONE',  ( 0.000000000000000000, 0.000000000000000000, -105.0000000000000000 ) ) ;
#506 = ORIENTED_EDGE ( 'NONE', *, *, #242, .F. ) ;
#507 = AXIS2_PLACEMENT_3D ( 'NONE', #190, #426, #75 ) ;
#508 = VECTOR ( 'NONE', #222, 1000.000000000000000 ) ;
#509 = CARTESIAN_POINT ( 'NONE',  ( 65.00000000000000000, -67.57860752655409442, 105.0000000000000000 ) ) ;
ENDSEC;
END-ISO-10303-21;
