ISO-10303-21;
HEADER;
FILE_DESCRIPTION (( 'STEP AP203' ),
    '1' );
FILE_NAME ('Base_profil_base_support_Default_sldprt.STEP',
    '2026-01-28T12:25:41',
    ( '' ),
    ( '' ),
    'SwSTEP 2.0',
    'SolidWorks 2024',
    '' );
FILE_SCHEMA (( 'CONFIG_CONTROL_DESIGN' ));
ENDSEC;

DATA;
#1 = LINE ( 'NONE', #195, #266 ) ;
#2 = VERTEX_POINT ( 'NONE', #183 ) ;
#3 = CARTESIAN_POINT ( 'NONE',  ( 45.00000000000001421, -45.00000000000004263, -225.0000000000000000 ) ) ;
#4 = VECTOR ( 'NONE', #148, 1000.000000000000000 ) ;
#5 = EDGE_LOOP ( 'NONE', ( #125, #147, #58, #337 ) ) ;
#6 = FACE_BOUND ( 'NONE', #361, .T. ) ;
#7 = EDGE_CURVE ( 'NONE', #308, #305, #358, .T. ) ;
#8 = PLANE ( 'NONE',  #200 ) ;
#9 = CARTESIAN_POINT ( 'NONE',  ( -50.00000000000004263, -50.00000000000004263, 225.0000000000000000 ) ) ;
#10 = LINE ( 'NONE', #149, #34 ) ;
#11 = ORIENTED_EDGE ( 'NONE', *, *, #211, .T. ) ;
#12 = DIRECTION ( 'NONE',  ( -2.775557561562891844E-16, 1.000000000000000000, 0.000000000000000000 ) ) ;
#13 = ORIENTED_EDGE ( 'NONE', *, *, #265, .F. ) ;
#14 = VECTOR ( 'NONE', #88, 1000.000000000000000 ) ;
#15 = CARTESIAN_POINT ( 'NONE',  ( -50.00000000000004263, -50.00000000000004263, -225.0000000000000000 ) ) ;
#16 = EDGE_CURVE ( 'NONE', #247, #117, #303, .T. ) ;
#17 = CARTESIAN_POINT ( 'NONE',  ( -50.00000000000004263, -50.00000000000004263, -225.0000000000000000 ) ) ;
#18 = ORIENTED_EDGE ( 'NONE', *, *, #218, .T. ) ;
#19 = FACE_OUTER_BOUND ( 'NONE', #26, .T. ) ;
#20 = CARTESIAN_POINT ( 'NONE',  ( -50.00000000000004263, 49.99999999999993605, -225.0000000000000000 ) ) ;
#21 = VECTOR ( 'NONE', #261, 1000.000000000000000 ) ;
#22 = DATE_AND_TIME ( #366, #244 ) ;
#23 = PLANE ( 'NONE',  #243 ) ;
#24 = VECTOR ( 'NONE', #49, 1000.000000000000000 ) ;
#25 = DIRECTION ( 'NONE',  ( -1.000000000000000000, 0.000000000000000000, -0.000000000000000000 ) ) ;
#26 = EDGE_LOOP ( 'NONE', ( #222, #82, #238, #95 ) ) ;
#27 = CARTESIAN_POINT ( 'NONE',  ( -50.00000000000004263, 49.99999999999993605, 225.0000000000000000 ) ) ;
#28 = CARTESIAN_POINT ( 'NONE',  ( -50.00000000000004263, -50.00000000000004263, 225.0000000000000000 ) ) ;
#29 = VECTOR ( 'NONE', #76, 1000.000000000000000 ) ;
#30 = CARTESIAN_POINT ( 'NONE',  ( 45.00000000000001421, -45.00000000000004263, 225.0000000000000000 ) ) ;
#31 = ADVANCED_FACE ( 'NONE', ( #103 ), #339, .T. ) ;
#32 = LINE ( 'NONE', #140, #193 ) ;
#33 = EDGE_CURVE ( 'NONE', #212, #308, #191, .T. ) ;
#34 = VECTOR ( 'NONE', #12, 1000.000000000000000 ) ;
#35 = LINE ( 'NONE', #329, #274 ) ;
#36 = VECTOR ( 'NONE', #119, 1000.000000000000000 ) ;
#37 = SECURITY_CLASSIFICATION ( '', '', #131 ) ;
#38 = EDGE_LOOP ( 'NONE', ( #249, #179, #184, #320 ) ) ;
#39 = CARTESIAN_POINT ( 'NONE',  ( -45.00000000000001421, -45.00000000000004263, 225.0000000000000000 ) ) ;
#40 = VERTEX_POINT ( 'NONE', #80 ) ;
#41 = CARTESIAN_POINT ( 'NONE',  ( -45.00000000000001421, -45.00000000000004263, 225.0000000000000000 ) ) ;
#42 = ORIENTED_EDGE ( 'NONE', *, *, #133, .F. ) ;
#43 = VERTEX_POINT ( 'NONE', #44 ) ;
#44 = CARTESIAN_POINT ( 'NONE',  ( 49.99999999999993605, 49.99999999999993605, 225.0000000000000000 ) ) ;
#45 = ORIENTED_EDGE ( 'NONE', *, *, #79, .F. ) ;
#46 = EDGE_CURVE ( 'NONE', #2, #278, #283, .T. ) ;
#47 = APPROVAL_DATE_TIME ( #202, #138 ) ;
#48 = LINE ( 'NONE', #280, #129 ) ;
#49 = DIRECTION ( 'NONE',  ( -0.000000000000000000, -0.000000000000000000, -1.000000000000000000 ) ) ;
#50 = DIRECTION ( 'NONE',  ( -1.000000000000000000, 0.000000000000000000, -0.000000000000000000 ) ) ;
#51 = CARTESIAN_POINT ( 'NONE',  ( -50.00000000000004263, -50.00000000000004263, 225.0000000000000000 ) ) ;
#52 = PERSON_AND_ORGANIZATION_ROLE ( 'creator' ) ;
#53 = APPROVAL_STATUS ( 'not_yet_approved' ) ;
#54 = DIRECTION ( 'NONE',  ( 1.000000000000000000, 0.000000000000000000, 0.000000000000000000 ) ) ;
#55 = EDGE_CURVE ( 'NONE', #43, #212, #159, .T. ) ;
#56 = LINE ( 'NONE', #28, #21 ) ;
#57 = VECTOR ( 'NONE', #151, 1000.000000000000000 ) ;
#58 = ORIENTED_EDGE ( 'NONE', *, *, #228, .T. ) ;
#59 = DIRECTION ( 'NONE',  ( -0.000000000000000000, -0.000000000000000000, -1.000000000000000000 ) ) ;
#60 = CARTESIAN_POINT ( 'NONE',  ( -50.00000000000004263, 49.99999999999993605, 225.0000000000000000 ) ) ;
#61 = EDGE_CURVE ( 'NONE', #2, #308, #277, .T. ) ;
#62 = DIRECTION ( 'NONE',  ( 0.000000000000000000, 0.000000000000000000, 1.000000000000000000 ) ) ;
#63 = ORIENTED_EDGE ( 'NONE', *, *, #373, .F. ) ;
#64 = DIRECTION ( 'NONE',  ( 0.000000000000000000, -1.000000000000000000, 0.000000000000000000 ) ) ;
#65 = ORIENTED_EDGE ( 'NONE', *, *, #124, .F. ) ;
#66 = ADVANCED_FACE ( 'NONE', ( #19, #317 ), #344, .T. ) ;
#67 = CARTESIAN_POINT ( 'NONE',  ( 49.99999999999996447, -50.00000000000004263, 225.0000000000000000 ) ) ;
#68 = ORIENTED_EDGE ( 'NONE', *, *, #163, .F. ) ;
#69 = CARTESIAN_POINT ( 'NONE',  ( 0.000000000000000000, 0.000000000000000000, 0.000000000000000000 ) ) ;
#70 = CARTESIAN_POINT ( 'NONE',  ( -45.00000000000001421, -45.00000000000004263, 225.0000000000000000 ) ) ;
#71 = APPROVAL_PERSON_ORGANIZATION ( #75, #165, #190 ) ;
#72 = ORIENTED_EDGE ( 'NONE', *, *, #16, .T. ) ;
#73 = CALENDAR_DATE ( 2026, 28, 1 ) ;
#74 = CARTESIAN_POINT ( 'NONE',  ( 0.000000000000000000, 0.000000000000000000, -225.0000000000000000 ) ) ;
#75 = PERSON_AND_ORGANIZATION ( #210, #313 ) ;
#76 = DIRECTION ( 'NONE',  ( -0.000000000000000000, -0.000000000000000000, -1.000000000000000000 ) ) ;
#77 = AXIS2_PLACEMENT_3D ( 'NONE', #74, #188, #50 ) ;
#78 = CC_DESIGN_APPROVAL ( #206, ( #37 ) ) ;
#79 = EDGE_CURVE ( 'NONE', #122, #342, #227, .T. ) ;
#80 = CARTESIAN_POINT ( 'NONE',  ( 49.99999999999996447, -50.00000000000004263, -225.0000000000000000 ) ) ;
#81 = PERSON_AND_ORGANIZATION_ROLE ( 'design_owner' ) ;
#82 = ORIENTED_EDGE ( 'NONE', *, *, #33, .F. ) ;
#83 = FACE_OUTER_BOUND ( 'NONE', #177, .T. ) ;
#84 = VECTOR ( 'NONE', #173, 1000.000000000000000 ) ;
#85 = DIRECTION ( 'NONE',  ( 1.000000000000000000, 0.000000000000000000, 0.000000000000000000 ) ) ;
#86 = LOCAL_TIME ( 13, 25, 41.00000000000000000, #168 ) ;
#87 = EDGE_LOOP ( 'NONE', ( #128, #42, #365, #297 ) ) ;
#88 = DIRECTION ( 'NONE',  ( -1.000000000000000000, -0.000000000000000000, -0.000000000000000000 ) ) ;
#89 = CARTESIAN_POINT ( 'NONE',  ( 45.00000000000001421, -45.00000000000004263, 225.0000000000000000 ) ) ;
#90 = CARTESIAN_POINT ( 'NONE',  ( 49.99999999999996447, -50.00000000000004263, 225.0000000000000000 ) ) ;
#91 = DIRECTION ( 'NONE',  ( 0.000000000000000000, -0.000000000000000000, -1.000000000000000000 ) ) ;
#92 = UNCERTAINTY_MEASURE_WITH_UNIT (LENGTH_MEASURE( 1.000000000000000082E-05 ), #153, 'distance_accuracy_value', 'NONE');
#93 = VERTEX_POINT ( 'NONE', #137 ) ;
#94 = PLANE ( 'NONE',  #97 ) ;
#95 = ORIENTED_EDGE ( 'NONE', *, *, #96, .F. ) ;
#96 = EDGE_CURVE ( 'NONE', #305, #40, #48, .T. ) ;
#97 = AXIS2_PLACEMENT_3D ( 'NONE', #60, #64, #91 ) ;
#98 = CARTESIAN_POINT ( 'NONE',  ( -45.00000000000001421, -45.00000000000004263, -225.0000000000000000 ) ) ;
#99 = ORIENTED_EDGE ( 'NONE', *, *, #373, .T. ) ;
#100 = CC_DESIGN_PERSON_AND_ORGANIZATION_ASSIGNMENT ( #105, #52, ( #356 ) ) ;
#101 = ORIENTED_EDGE ( 'NONE', *, *, #189, .T. ) ;
#102 = PRODUCT ( 'Base_profil_base_support_Default_sldprt', 'Base_profil_base_support_Default_sldprt', '', ( #224 ) ) ;
#103 = FACE_OUTER_BOUND ( 'NONE', #38, .T. ) ;
#104 = APPROVAL_ROLE ( '' ) ;
#105 = PERSON_AND_ORGANIZATION ( #210, #313 ) ;
#106 = VECTOR ( 'NONE', #194, 1000.000000000000000 ) ;
#107 = EDGE_CURVE ( 'NONE', #342, #117, #371, .T. ) ;
#108 = DATE_TIME_ROLE ( 'classification_date' ) ;
#109 = PERSON_AND_ORGANIZATION ( #210, #313 ) ;
#110 = ADVANCED_FACE ( 'NONE', ( #282 ), #23, .T. ) ;
#111 = CARTESIAN_POINT ( 'NONE',  ( -50.00000000000004263, 49.99999999999993605, 225.0000000000000000 ) ) ;
#112 = AXIS2_PLACEMENT_3D ( 'NONE', #67, #269, #209 ) ;
#113 = CARTESIAN_POINT ( 'NONE',  ( 45.00000000000001421, -45.00000000000004263, -225.0000000000000000 ) ) ;
#114 = CARTESIAN_POINT ( 'NONE',  ( 0.000000000000000000, 0.000000000000000000, 225.0000000000000000 ) ) ;
#115 = CC_DESIGN_PERSON_AND_ORGANIZATION_ASSIGNMENT ( #171, #248, ( #356 ) ) ;
#116 = VECTOR ( 'NONE', #59, 1000.000000000000000 ) ;
#117 = VERTEX_POINT ( 'NONE', #295 ) ;
#118 = CARTESIAN_POINT ( 'NONE',  ( -45.00000000000001421, 44.99999999999992895, 225.0000000000000000 ) ) ;
#119 = DIRECTION ( 'NONE',  ( -0.000000000000000000, -0.000000000000000000, -1.000000000000000000 ) ) ;
#120 = DIRECTION ( 'NONE',  ( 1.000000000000000000, 0.000000000000000000, 0.000000000000000000 ) ) ;
#121 = CC_DESIGN_APPROVAL ( #165, ( #356 ) ) ;
#122 = VERTEX_POINT ( 'NONE', #318 ) ;
#123 = CARTESIAN_POINT ( 'NONE',  ( 45.00000000000001421, -45.00000000000004263, 225.0000000000000000 ) ) ;
#124 = EDGE_CURVE ( 'NONE', #198, #214, #352, .T. ) ;
#125 = ORIENTED_EDGE ( 'NONE', *, *, #316, .F. ) ;
#126 = APPLICATION_CONTEXT ( 'configuration controlled 3d designs of mechanical parts and assemblies' ) ;
#127 = DIRECTION ( 'NONE',  ( 0.000000000000000000, 1.000000000000000000, 0.000000000000000000 ) ) ;
#128 = ORIENTED_EDGE ( 'NONE', *, *, #7, .T. ) ;
#129 = VECTOR ( 'NONE', #252, 1000.000000000000000 ) ;
#130 = EDGE_LOOP ( 'NONE', ( #18, #351, #325, #150 ) ) ;
#131 = SECURITY_CLASSIFICATION_LEVEL ( 'unclassified' ) ;
#132 = VERTEX_POINT ( 'NONE', #89 ) ;
#133 = EDGE_CURVE ( 'NONE', #278, #305, #56, .T. ) ;
#134 = CALENDAR_DATE ( 2026, 28, 1 ) ;
#135 = DIRECTION ( 'NONE',  ( -0.000000000000000000, -1.000000000000000000, -0.000000000000000000 ) ) ;
#136 = CALENDAR_DATE ( 2026, 28, 1 ) ;
#137 = CARTESIAN_POINT ( 'NONE',  ( 44.99999999999995737, 44.99999999999992895, 225.0000000000000000 ) ) ;
#138 = APPROVAL ( #197, 'UNSPECIFIED' ) ;
#139 = CLOSED_SHELL ( 'NONE', ( #141, #66, #270, #181, #331, #341, #31, #353, #110, #174 ) ) ;
#140 = CARTESIAN_POINT ( 'NONE',  ( -45.00000000000001421, -45.00000000000004263, 225.0000000000000000 ) ) ;
#141 = ADVANCED_FACE ( 'NONE', ( #236, #6 ), #203, .F. ) ;
#142 = CARTESIAN_POINT ( 'NONE',  ( 49.99999999999996447, -50.00000000000004263, 225.0000000000000000 ) ) ;
#143 = EDGE_LOOP ( 'NONE', ( #233, #300, #367, #217 ) ) ;
#144 = APPROVAL_PERSON_ORGANIZATION ( #286, #138, #104 ) ;
#145 = FACE_OUTER_BOUND ( 'NONE', #87, .T. ) ;
#146 = EDGE_CURVE ( 'NONE', #93, #214, #170, .T. ) ;
#147 = ORIENTED_EDGE ( 'NONE', *, *, #146, .F. ) ;
#148 = DIRECTION ( 'NONE',  ( -1.000000000000000000, -0.000000000000000000, -0.000000000000000000 ) ) ;
#149 = CARTESIAN_POINT ( 'NONE',  ( 49.99999999999996447, -50.00000000000004263, 225.0000000000000000 ) ) ;
#150 = ORIENTED_EDGE ( 'NONE', *, *, #163, .T. ) ;
#151 = DIRECTION ( 'NONE',  ( -0.000000000000000000, -0.000000000000000000, -1.000000000000000000 ) ) ;
#152 = ORIENTED_EDGE ( 'NONE', *, *, #228, .F. ) ;
#153 =( LENGTH_UNIT ( ) NAMED_UNIT ( * ) SI_UNIT ( .MILLI., .METRE. ) );
#154 = CARTESIAN_POINT ( 'NONE',  ( -45.00000000000001421, -45.00000000000004263, -225.0000000000000000 ) ) ;
#155 = VECTOR ( 'NONE', #164, 1000.000000000000000 ) ;
#156 = LINE ( 'NONE', #123, #208 ) ;
#157 = ORIENTED_EDGE ( 'NONE', *, *, #265, .T. ) ;
#158 = COORDINATED_UNIVERSAL_TIME_OFFSET ( 1, 0, .AHEAD. ) ;
#159 = LINE ( 'NONE', #225, #29 ) ;
#160 = ORIENTED_EDGE ( 'NONE', *, *, #302, .T. ) ;
#161 = APPROVAL_ROLE ( '' ) ;
#162 = AXIS2_PLACEMENT_3D ( 'NONE', #51, #263, #292 ) ;
#163 = EDGE_CURVE ( 'NONE', #363, #40, #324, .T. ) ;
#164 = DIRECTION ( 'NONE',  ( -1.000000000000000000, -0.000000000000000000, -0.000000000000000000 ) ) ;
#165 = APPROVAL ( #53, 'UNSPECIFIED' ) ;
#166 = CARTESIAN_POINT ( 'NONE',  ( -45.00000000000001421, -45.00000000000004263, 225.0000000000000000 ) ) ;
#167 = DIRECTION ( 'NONE',  ( -6.167905692361983519E-16, 1.000000000000000000, 0.000000000000000000 ) ) ;
#168 = COORDINATED_UNIVERSAL_TIME_OFFSET ( 1, 0, .AHEAD. ) ;
#169 = ORIENTED_EDGE ( 'NONE', *, *, #107, .F. ) ;
#170 = LINE ( 'NONE', #259, #36 ) ;
#171 = PERSON_AND_ORGANIZATION ( #210, #313 ) ;
#172 = CARTESIAN_POINT ( 'NONE',  ( 49.99999999999993605, 49.99999999999993605, -225.0000000000000000 ) ) ;
#173 = DIRECTION ( 'NONE',  ( -6.167905692361983519E-16, 1.000000000000000000, 0.000000000000000000 ) ) ;
#174 = ADVANCED_FACE ( 'NONE', ( #231 ), #285, .T. ) ;
#175 = VECTOR ( 'NONE', #167, 1000.000000000000000 ) ;
#176 = PLANE ( 'NONE',  #162 ) ;
#177 = EDGE_LOOP ( 'NONE', ( #187, #68, #298, #334 ) ) ;
#178 = DIRECTION ( 'NONE',  ( 0.000000000000000000, 0.000000000000000000, -1.000000000000000000 ) ) ;
#179 = ORIENTED_EDGE ( 'NONE', *, *, #296, .F. ) ;
#180 = VECTOR ( 'NONE', #310, 1000.000000000000000 ) ;
#181 = ADVANCED_FACE ( 'NONE', ( #83 ), #176, .F. ) ;
#182 = ORIENTED_EDGE ( 'NONE', *, *, #346, .T. ) ;
#183 = CARTESIAN_POINT ( 'NONE',  ( -50.00000000000004263, 49.99999999999993605, 225.0000000000000000 ) ) ;
#184 = ORIENTED_EDGE ( 'NONE', *, *, #79, .T. ) ;
#185 = AXIS2_PLACEMENT_3D ( 'NONE', #118, #234, #347 ) ;
#186 = DIRECTION ( 'NONE',  ( 0.000000000000000000, 0.000000000000000000, -1.000000000000000000 ) ) ;
#187 = ORIENTED_EDGE ( 'NONE', *, *, #96, .T. ) ;
#188 = DIRECTION ( 'NONE',  ( 0.000000000000000000, 0.000000000000000000, -1.000000000000000000 ) ) ;
#189 = EDGE_CURVE ( 'NONE', #342, #132, #32, .T. ) ;
#190 = APPROVAL_ROLE ( '' ) ;
#191 = LINE ( 'NONE', #20, #155 ) ;
#192 = CC_DESIGN_PERSON_AND_ORGANIZATION_ASSIGNMENT ( #109, #81, ( #102 ) ) ;
#193 = VECTOR ( 'NONE', #288, 1000.000000000000000 ) ;
#194 = DIRECTION ( 'NONE',  ( -0.000000000000000000, -0.000000000000000000, -1.000000000000000000 ) ) ;
#195 = CARTESIAN_POINT ( 'NONE',  ( -50.00000000000004263, -50.00000000000004263, 225.0000000000000000 ) ) ;
#196 = EDGE_CURVE ( 'NONE', #278, #363, #1, .T. ) ;
#197 = APPROVAL_STATUS ( 'not_yet_approved' ) ;
#198 = VERTEX_POINT ( 'NONE', #113 ) ;
#199 = LINE ( 'NONE', #207, #14 ) ;
#200 = AXIS2_PLACEMENT_3D ( 'NONE', #9, #120, #178 ) ;
#201 = AXIS2_PLACEMENT_3D ( 'NONE', #70, #275, #186 ) ;
#202 = DATE_AND_TIME ( #134, #237 ) ;
#203 = PLANE ( 'NONE',  #232 ) ;
#204 = EDGE_LOOP ( 'NONE', ( #65, #63, #157, #287 ) ) ;
#205 = DIRECTION ( 'NONE',  ( -2.775557561562891844E-16, 1.000000000000000000, 0.000000000000000000 ) ) ;
#206 = APPROVAL ( #309, 'UNSPECIFIED' ) ;
#207 = CARTESIAN_POINT ( 'NONE',  ( -45.00000000000001421, 44.99999999999992895, 225.0000000000000000 ) ) ;
#208 = VECTOR ( 'NONE', #338, 1000.000000000000000 ) ;
#209 = DIRECTION ( 'NONE',  ( 2.775557561562891844E-16, -1.000000000000000000, 0.000000000000000000 ) ) ;
#210 = PERSON ( 'UNSPECIFIED', 'UNSPECIFIED', 'UNSPECIFIED', ('UNSPECIFIED'), ('UNSPECIFIED'), ('UNSPECIFIED') ) ;
#211 = EDGE_CURVE ( 'NONE', #43, #2, #348, .T. ) ;
#212 = VERTEX_POINT ( 'NONE', #172 ) ;
#213 = PLANE ( 'NONE',  #328 ) ;
#214 = VERTEX_POINT ( 'NONE', #354 ) ;
#215 = VECTOR ( 'NONE', #239, 1000.000000000000000 ) ;
#216 = CARTESIAN_POINT ( 'NONE',  ( -50.00000000000004263, -50.00000000000004263, 225.0000000000000000 ) ) ;
#217 = ORIENTED_EDGE ( 'NONE', *, *, #55, .T. ) ;
#218 = EDGE_CURVE ( 'NONE', #40, #212, #291, .T. ) ;
#219 = APPLICATION_PROTOCOL_DEFINITION ( 'international standard', 'config_control_design', 1994, #246 ) ;
#220 = ORIENTED_EDGE ( 'NONE', *, *, #124, .T. ) ;
#221 = PERSON_AND_ORGANIZATION ( #210, #313 ) ;
#222 = ORIENTED_EDGE ( 'NONE', *, *, #7, .F. ) ;
#223 = VECTOR ( 'NONE', #273, 1000.000000000000000 ) ;
#224 = MECHANICAL_CONTEXT ( 'NONE', #246, 'mechanical' ) ;
#225 = CARTESIAN_POINT ( 'NONE',  ( 49.99999999999993605, 49.99999999999993605, 225.0000000000000000 ) ) ;
#226 = DATE_AND_TIME ( #73, #86 ) ;
#227 = LINE ( 'NONE', #166, #180 ) ;
#228 = EDGE_CURVE ( 'NONE', #93, #122, #199, .T. ) ;
#229 = DIRECTION ( 'NONE',  ( 6.167905692361983519E-16, -1.000000000000000000, 0.000000000000000000 ) ) ;
#230 = EDGE_LOOP ( 'NONE', ( #242, #169, #101, #99 ) ) ;
#231 = FACE_OUTER_BOUND ( 'NONE', #5, .T. ) ;
#232 = AXIS2_PLACEMENT_3D ( 'NONE', #114, #321, #25 ) ;
#233 = ORIENTED_EDGE ( 'NONE', *, *, #33, .T. ) ;
#234 = DIRECTION ( 'NONE',  ( 0.000000000000000000, -1.000000000000000000, 0.000000000000000000 ) ) ;
#235 = CC_DESIGN_DATE_AND_TIME_ASSIGNMENT ( #257, #322, ( #360 ) ) ;
#236 = FACE_OUTER_BOUND ( 'NONE', #271, .T. ) ;
#237 = LOCAL_TIME ( 13, 25, 41.00000000000000000, #253 ) ;
#238 = ORIENTED_EDGE ( 'NONE', *, *, #218, .F. ) ;
#239 = DIRECTION ( 'NONE',  ( 1.000000000000000000, 0.000000000000000000, 0.000000000000000000 ) ) ;
#240 = DIRECTION ( 'NONE',  ( -0.000000000000000000, -1.000000000000000000, -0.000000000000000000 ) ) ;
#241 = FACE_OUTER_BOUND ( 'NONE', #143, .T. ) ;
#242 = ORIENTED_EDGE ( 'NONE', *, *, #302, .F. ) ;
#243 = AXIS2_PLACEMENT_3D ( 'NONE', #254, #350, #229 ) ;
#244 = LOCAL_TIME ( 13, 25, 41.00000000000000000, #311 ) ;
#245 =( NAMED_UNIT ( * ) SI_UNIT ( $, .STERADIAN. ) SOLID_ANGLE_UNIT ( ) );
#246 = APPLICATION_CONTEXT ( 'configuration controlled 3d designs of mechanical parts and assemblies' ) ;
#247 = VERTEX_POINT ( 'NONE', #326 ) ;
#248 = PERSON_AND_ORGANIZATION_ROLE ( 'design_supplier' ) ;
#249 = ORIENTED_EDGE ( 'NONE', *, *, #16, .F. ) ;
#250 = CC_DESIGN_APPROVAL ( #138, ( #360 ) ) ;
#251 = APPROVAL_PERSON_ORGANIZATION ( #319, #206, #161 ) ;
#252 = DIRECTION ( 'NONE',  ( 1.000000000000000000, 0.000000000000000000, 0.000000000000000000 ) ) ;
#253 = COORDINATED_UNIVERSAL_TIME_OFFSET ( 1, 0, .AHEAD. ) ;
#254 = CARTESIAN_POINT ( 'NONE',  ( 45.00000000000001421, -45.00000000000004263, 225.0000000000000000 ) ) ;
#255 = DESIGN_CONTEXT ( 'detailed design', #126, 'design' ) ;
#256 =( GEOMETRIC_REPRESENTATION_CONTEXT ( 3 ) GLOBAL_UNCERTAINTY_ASSIGNED_CONTEXT ( ( #92 ) ) GLOBAL_UNIT_ASSIGNED_CONTEXT ( ( #153, #362, #245 ) ) REPRESENTATION_CONTEXT ( 'NONE', 'WORKASPACE' ) );
#257 = DATE_AND_TIME ( #136, #306 ) ;
#258 = EDGE_LOOP ( 'NONE', ( #268, #72, #160, #220 ) ) ;
#259 = CARTESIAN_POINT ( 'NONE',  ( 44.99999999999995737, 44.99999999999992895, 225.0000000000000000 ) ) ;
#260 = ORIENTED_EDGE ( 'NONE', *, *, #46, .T. ) ;
#261 = DIRECTION ( 'NONE',  ( -0.000000000000000000, -0.000000000000000000, -1.000000000000000000 ) ) ;
#262 = AXIS2_PLACEMENT_3D ( 'NONE', #69, #62, #85 ) ;
#263 = DIRECTION ( 'NONE',  ( 0.000000000000000000, 1.000000000000000000, 0.000000000000000000 ) ) ;
#264 = CARTESIAN_POINT ( 'NONE',  ( 49.99999999999996447, -50.00000000000004263, -225.0000000000000000 ) ) ;
#265 = EDGE_CURVE ( 'NONE', #132, #93, #327, .T. ) ;
#266 = VECTOR ( 'NONE', #54, 1000.000000000000000 ) ;
#267 = DIRECTION ( 'NONE',  ( -1.000000000000000000, -0.000000000000000000, -0.000000000000000000 ) ) ;
#268 = ORIENTED_EDGE ( 'NONE', *, *, #316, .T. ) ;
#269 = DIRECTION ( 'NONE',  ( -1.000000000000000000, -2.775557561562891844E-16, 0.000000000000000000 ) ) ;
#270 = ADVANCED_FACE ( 'NONE', ( #145 ), #8, .F. ) ;
#271 = EDGE_LOOP ( 'NONE', ( #260, #330, #182, #11 ) ) ;
#272 = CC_DESIGN_PERSON_AND_ORGANIZATION_ASSIGNMENT ( #289, #372, ( #37 ) ) ;
#273 = DIRECTION ( 'NONE',  ( -0.000000000000000000, -1.000000000000000000, -0.000000000000000000 ) ) ;
#274 = VECTOR ( 'NONE', #267, 1000.000000000000000 ) ;
#275 = DIRECTION ( 'NONE',  ( 1.000000000000000000, 0.000000000000000000, 0.000000000000000000 ) ) ;
#276 = APPROVAL_DATE_TIME ( #340, #165 ) ;
#277 = LINE ( 'NONE', #111, #106 ) ;
#278 = VERTEX_POINT ( 'NONE', #216 ) ;
#279 = CALENDAR_DATE ( 2026, 28, 1 ) ;
#280 = CARTESIAN_POINT ( 'NONE',  ( -50.00000000000004263, -50.00000000000004263, -225.0000000000000000 ) ) ;
#281 = PERSON_AND_ORGANIZATION_ROLE ( 'creator' ) ;
#282 = FACE_OUTER_BOUND ( 'NONE', #204, .T. ) ;
#283 = LINE ( 'NONE', #307, #369 ) ;
#284 = LOCAL_TIME ( 13, 25, 41.00000000000000000, #343 ) ;
#285 = PLANE ( 'NONE',  #185 ) ;
#286 = PERSON_AND_ORGANIZATION ( #210, #313 ) ;
#287 = ORIENTED_EDGE ( 'NONE', *, *, #146, .T. ) ;
#288 = DIRECTION ( 'NONE',  ( 1.000000000000000000, 0.000000000000000000, 0.000000000000000000 ) ) ;
#289 = PERSON_AND_ORGANIZATION ( #210, #313 ) ;
#290 = PRODUCT_RELATED_PRODUCT_CATEGORY ( 'detail', '', ( #102 ) ) ;
#291 = LINE ( 'NONE', #264, #293 ) ;
#292 = DIRECTION ( 'NONE',  ( 0.000000000000000000, -0.000000000000000000, 1.000000000000000000 ) ) ;
#293 = VECTOR ( 'NONE', #205, 1000.000000000000000 ) ;
#294 = ORIENTED_EDGE ( 'NONE', *, *, #189, .F. ) ;
#295 = CARTESIAN_POINT ( 'NONE',  ( -45.00000000000001421, -45.00000000000004263, -225.0000000000000000 ) ) ;
#296 = EDGE_CURVE ( 'NONE', #122, #247, #359, .T. ) ;
#297 = ORIENTED_EDGE ( 'NONE', *, *, #61, .T. ) ;
#298 = ORIENTED_EDGE ( 'NONE', *, *, #196, .F. ) ;
#299 = CARTESIAN_POINT ( 'NONE',  ( -45.00000000000001421, 44.99999999999992895, 225.0000000000000000 ) ) ;
#300 = ORIENTED_EDGE ( 'NONE', *, *, #61, .F. ) ;
#301 = LINE ( 'NONE', #98, #215 ) ;
#302 = EDGE_CURVE ( 'NONE', #117, #198, #301, .T. ) ;
#303 = LINE ( 'NONE', #154, #223 ) ;
#304 = FACE_OUTER_BOUND ( 'NONE', #130, .T. ) ;
#305 = VERTEX_POINT ( 'NONE', #17 ) ;
#306 = LOCAL_TIME ( 13, 25, 41.00000000000000000, #158 ) ;
#307 = CARTESIAN_POINT ( 'NONE',  ( -50.00000000000004263, -50.00000000000004263, 225.0000000000000000 ) ) ;
#308 = VERTEX_POINT ( 'NONE', #333 ) ;
#309 = APPROVAL_STATUS ( 'not_yet_approved' ) ;
#310 = DIRECTION ( 'NONE',  ( -0.000000000000000000, -1.000000000000000000, -0.000000000000000000 ) ) ;
#311 = COORDINATED_UNIVERSAL_TIME_OFFSET ( 1, 0, .AHEAD. ) ;
#312 = CARTESIAN_POINT ( 'NONE',  ( -45.00000000000001421, -45.00000000000004263, 225.0000000000000000 ) ) ;
#313 = ORGANIZATION ( 'UNSPECIFIED', 'UNSPECIFIED', '' ) ;
#314 = ADVANCED_BREP_SHAPE_REPRESENTATION ( 'Base_profil_base_support_Default_sldprt', ( #357, #262 ), #256 ) ;
#315 = CC_DESIGN_SECURITY_CLASSIFICATION ( #37, ( #356 ) ) ;
#316 = EDGE_CURVE ( 'NONE', #214, #247, #35, .T. ) ;
#317 = FACE_BOUND ( 'NONE', #258, .T. ) ;
#318 = CARTESIAN_POINT ( 'NONE',  ( -45.00000000000001421, 44.99999999999992895, 225.0000000000000000 ) ) ;
#319 = PERSON_AND_ORGANIZATION ( #210, #313 ) ;
#320 = ORIENTED_EDGE ( 'NONE', *, *, #107, .T. ) ;
#321 = DIRECTION ( 'NONE',  ( 0.000000000000000000, 0.000000000000000000, -1.000000000000000000 ) ) ;
#322 = DATE_TIME_ROLE ( 'creation_date' ) ;
#323 = CC_DESIGN_DATE_AND_TIME_ASSIGNMENT ( #22, #108, ( #37 ) ) ;
#324 = LINE ( 'NONE', #142, #116 ) ;
#325 = ORIENTED_EDGE ( 'NONE', *, *, #346, .F. ) ;
#326 = CARTESIAN_POINT ( 'NONE',  ( -45.00000000000001421, 44.99999999999992895, -225.0000000000000000 ) ) ;
#327 = LINE ( 'NONE', #30, #84 ) ;
#328 = AXIS2_PLACEMENT_3D ( 'NONE', #41, #127, #364 ) ;
#329 = CARTESIAN_POINT ( 'NONE',  ( -45.00000000000001421, 44.99999999999992895, -225.0000000000000000 ) ) ;
#330 = ORIENTED_EDGE ( 'NONE', *, *, #196, .T. ) ;
#331 = ADVANCED_FACE ( 'NONE', ( #304 ), #336, .F. ) ;
#332 = PRODUCT_DEFINITION_SHAPE ( 'NONE', 'NONE',  #360 ) ;
#333 = CARTESIAN_POINT ( 'NONE',  ( -50.00000000000004263, 49.99999999999993605, -225.0000000000000000 ) ) ;
#334 = ORIENTED_EDGE ( 'NONE', *, *, #133, .T. ) ;
#335 = CC_DESIGN_PERSON_AND_ORGANIZATION_ASSIGNMENT ( #221, #281, ( #360 ) ) ;
#336 = PLANE ( 'NONE',  #112 ) ;
#337 = ORIENTED_EDGE ( 'NONE', *, *, #296, .T. ) ;
#338 = DIRECTION ( 'NONE',  ( -0.000000000000000000, -0.000000000000000000, -1.000000000000000000 ) ) ;
#339 = PLANE ( 'NONE',  #201 ) ;
#340 = DATE_AND_TIME ( #279, #284 ) ;
#341 = ADVANCED_FACE ( 'NONE', ( #241 ), #94, .F. ) ;
#342 = VERTEX_POINT ( 'NONE', #39 ) ;
#343 = COORDINATED_UNIVERSAL_TIME_OFFSET ( 1, 0, .AHEAD. ) ;
#344 = PLANE ( 'NONE',  #77 ) ;
#345 = SHAPE_DEFINITION_REPRESENTATION ( #332, #314 ) ;
#346 = EDGE_CURVE ( 'NONE', #363, #43, #10, .T. ) ;
#347 = DIRECTION ( 'NONE',  ( 0.000000000000000000, -0.000000000000000000, -1.000000000000000000 ) ) ;
#348 = LINE ( 'NONE', #27, #4 ) ;
#349 = VECTOR ( 'NONE', #240, 1000.000000000000000 ) ;
#350 = DIRECTION ( 'NONE',  ( -1.000000000000000000, -6.167905692361983519E-16, 0.000000000000000000 ) ) ;
#351 = ORIENTED_EDGE ( 'NONE', *, *, #55, .F. ) ;
#352 = LINE ( 'NONE', #3, #175 ) ;
#353 = ADVANCED_FACE ( 'NONE', ( #355 ), #213, .T. ) ;
#354 = CARTESIAN_POINT ( 'NONE',  ( 44.99999999999995737, 44.99999999999992895, -225.0000000000000000 ) ) ;
#355 = FACE_OUTER_BOUND ( 'NONE', #230, .T. ) ;
#356 = PRODUCT_DEFINITION_FORMATION_WITH_SPECIFIED_SOURCE ( 'ANY', '', #102, .NOT_KNOWN. ) ;
#357 = MANIFOLD_SOLID_BREP ( 'Boss-Extrude1', #139 ) ;
#358 = LINE ( 'NONE', #15, #349 ) ;
#359 = LINE ( 'NONE', #299, #57 ) ;
#360 = PRODUCT_DEFINITION ( 'UNKNOWN', '', #356, #255 ) ;
#361 = EDGE_LOOP ( 'NONE', ( #45, #152, #13, #294 ) ) ;
#362 =( NAMED_UNIT ( * ) PLANE_ANGLE_UNIT ( ) SI_UNIT ( $, .RADIAN. ) );
#363 = VERTEX_POINT ( 'NONE', #90 ) ;
#364 = DIRECTION ( 'NONE',  ( 0.000000000000000000, -0.000000000000000000, 1.000000000000000000 ) ) ;
#365 = ORIENTED_EDGE ( 'NONE', *, *, #46, .F. ) ;
#366 = CALENDAR_DATE ( 2026, 28, 1 ) ;
#367 = ORIENTED_EDGE ( 'NONE', *, *, #211, .F. ) ;
#368 = APPLICATION_PROTOCOL_DEFINITION ( 'international standard', 'config_control_design', 1994, #126 ) ;
#369 = VECTOR ( 'NONE', #135, 1000.000000000000000 ) ;
#370 = APPROVAL_DATE_TIME ( #226, #206 ) ;
#371 = LINE ( 'NONE', #312, #24 ) ;
#372 = PERSON_AND_ORGANIZATION_ROLE ( 'classification_officer' ) ;
#373 = EDGE_CURVE ( 'NONE', #132, #198, #156, .T. ) ;
ENDSEC;
END-ISO-10303-21;
