ISO-10303-21;
HEADER;
FILE_DESCRIPTION (( 'STEP AP203' ),
    '1' );
FILE_NAME ('Base_bearing_mount_sideways_Default_sldprt.STEP',
    '2026-01-28T12:25:36',
    ( '' ),
    ( '' ),
    'SwSTEP 2.0',
    'SolidWorks 2024',
    '' );
FILE_SCHEMA (( 'CONFIG_CONTROL_DESIGN' ));
ENDSEC;

DATA;
#1 = ORIENTED_EDGE ( 'NONE', *, *, #159, .F. ) ;
#2 = CALENDAR_DATE ( 2026, 28, 1 ) ;
#3 = ORIENTED_EDGE ( 'NONE', *, *, #123, .F. ) ;
#4 = APPROVAL_DATE_TIME ( #58, #149 ) ;
#5 = ADVANCED_FACE ( 'NONE', ( #68 ), #8, .F. ) ;
#6 = DIRECTION ( 'NONE',  ( -1.000000000000000000, 0.000000000000000000, -0.000000000000000000 ) ) ;
#7 = DATE_TIME_ROLE ( 'classification_date' ) ;
#8 = PLANE ( 'NONE',  #216 ) ;
#9 = FACE_OUTER_BOUND ( 'NONE', #217, .T. ) ;
#10 = LOCAL_TIME ( 13, 25, 36.00000000000000000, #235 ) ;
#11 = CARTESIAN_POINT ( 'NONE',  ( 0.000000000000000000, 0.000000000000000000, 30.00000000000000000 ) ) ;
#12 = CARTESIAN_POINT ( 'NONE',  ( -325.0000000000000000, -39.99999999999999289, 30.00000000000000000 ) ) ;
#13 = EDGE_CURVE ( 'NONE', #133, #204, #28, .T. ) ;
#14 = DATE_AND_TIME ( #128, #10 ) ;
#15 = CC_DESIGN_APPROVAL ( #56, ( #59 ) ) ;
#16 = CC_DESIGN_PERSON_AND_ORGANIZATION_ASSIGNMENT ( #86, #71, ( #232 ) ) ;
#17 = VECTOR ( 'NONE', #108, 1000.000000000000000 ) ;
#18 =( LENGTH_UNIT ( ) NAMED_UNIT ( * ) SI_UNIT ( .MILLI., .METRE. ) );
#19 = APPROVAL_ROLE ( '' ) ;
#20 = LINE ( 'NONE', #195, #107 ) ;
#21 = ORIENTED_EDGE ( 'NONE', *, *, #231, .F. ) ;
#22 = EDGE_LOOP ( 'NONE', ( #91, #187, #40, #61 ) ) ;
#23 = DIRECTION ( 'NONE',  ( 0.000000000000000000, -0.000000000000000000, 1.000000000000000000 ) ) ;
#24 = SHAPE_DEFINITION_REPRESENTATION ( #124, #45 ) ;
#25 = VECTOR ( 'NONE', #69, 1000.000000000000000 ) ;
#26 = CARTESIAN_POINT ( 'NONE',  ( -325.0000000000000000, -39.99999999999999289, 30.00000000000000000 ) ) ;
#27 = CARTESIAN_POINT ( 'NONE',  ( -325.0000000000000000, -39.99999999999999289, 30.00000000000000000 ) ) ;
#28 = LINE ( 'NONE', #189, #203 ) ;
#29 = DIRECTION ( 'NONE',  ( 0.000000000000000000, -0.000000000000000000, -1.000000000000000000 ) ) ;
#30 = CARTESIAN_POINT ( 'NONE',  ( -325.0000000000000000, -39.99999999999999289, 30.00000000000000000 ) ) ;
#31 =( NAMED_UNIT ( * ) SI_UNIT ( $, .STERADIAN. ) SOLID_ANGLE_UNIT ( ) );
#32 = CC_DESIGN_DATE_AND_TIME_ASSIGNMENT ( #179, #164, ( #74 ) ) ;
#33 = LOCAL_TIME ( 13, 25, 36.00000000000000000, #214 ) ;
#34 = PERSON_AND_ORGANIZATION_ROLE ( 'creator' ) ;
#35 =( GEOMETRIC_REPRESENTATION_CONTEXT ( 3 ) GLOBAL_UNCERTAINTY_ASSIGNED_CONTEXT ( ( #62 ) ) GLOBAL_UNIT_ASSIGNED_CONTEXT ( ( #18, #89, #31 ) ) REPRESENTATION_CONTEXT ( 'NONE', 'WORKASPACE' ) );
#36 = EDGE_CURVE ( 'NONE', #93, #220, #100, .T. ) ;
#37 = DIRECTION ( 'NONE',  ( 1.000000000000000000, 0.000000000000000000, 0.000000000000000000 ) ) ;
#38 = ORIENTED_EDGE ( 'NONE', *, *, #66, .T. ) ;
#39 = PERSON_AND_ORGANIZATION_ROLE ( 'design_supplier' ) ;
#40 = ORIENTED_EDGE ( 'NONE', *, *, #206, .T. ) ;
#41 = VERTEX_POINT ( 'NONE', #209 ) ;
#42 = CARTESIAN_POINT ( 'NONE',  ( -325.0000000000000000, -39.99999999999999289, 30.00000000000000000 ) ) ;
#43 = FACE_OUTER_BOUND ( 'NONE', #129, .T. ) ;
#44 = CLOSED_SHELL ( 'NONE', ( #114, #105, #5, #79, #54, #147 ) ) ;
#45 = ADVANCED_BREP_SHAPE_REPRESENTATION ( 'Base_bearing_mount_sideways_Default_sldprt', ( #228, #116 ), #35 ) ;
#46 = DIRECTION ( 'NONE',  ( 0.000000000000000000, 0.000000000000000000, -1.000000000000000000 ) ) ;
#47 = DIRECTION ( 'NONE',  ( -1.000000000000000000, 0.000000000000000000, -0.000000000000000000 ) ) ;
#48 = PLANE ( 'NONE',  #73 ) ;
#49 = VECTOR ( 'NONE', #190, 1000.000000000000000 ) ;
#50 = APPROVAL_ROLE ( '' ) ;
#51 = DIRECTION ( 'NONE',  ( 1.000000000000000000, 0.000000000000000000, 0.000000000000000000 ) ) ;
#52 = LINE ( 'NONE', #30, #171 ) ;
#53 = APPROVAL_STATUS ( 'not_yet_approved' ) ;
#54 = ADVANCED_FACE ( 'NONE', ( #80 ), #223, .F. ) ;
#55 = COORDINATED_UNIVERSAL_TIME_OFFSET ( 1, 0, .AHEAD. ) ;
#56 = APPROVAL ( #53, 'UNSPECIFIED' ) ;
#57 = ORIENTED_EDGE ( 'NONE', *, *, #123, .T. ) ;
#58 = DATE_AND_TIME ( #130, #230 ) ;
#59 = PRODUCT_DEFINITION_FORMATION_WITH_SPECIFIED_SOURCE ( 'ANY', '', #232, .NOT_KNOWN. ) ;
#60 = DATE_AND_TIME ( #2, #151 ) ;
#61 = ORIENTED_EDGE ( 'NONE', *, *, #97, .T. ) ;
#62 = UNCERTAINTY_MEASURE_WITH_UNIT (LENGTH_MEASURE( 1.000000000000000082E-05 ), #18, 'distance_accuracy_value', 'NONE');
#63 = CARTESIAN_POINT ( 'NONE',  ( 325.0000000000000000, 40.00000000000000711, 0.000000000000000000 ) ) ;
#64 = APPLICATION_CONTEXT ( 'configuration controlled 3d designs of mechanical parts and assemblies' ) ;
#65 = CARTESIAN_POINT ( 'NONE',  ( -325.0000000000000000, 40.00000000000000711, 0.000000000000000000 ) ) ;
#66 = EDGE_CURVE ( 'NONE', #204, #166, #177, .T. ) ;
#67 = LOCAL_TIME ( 13, 25, 36.00000000000000000, #55 ) ;
#68 = FACE_OUTER_BOUND ( 'NONE', #70, .T. ) ;
#69 = DIRECTION ( 'NONE',  ( -1.000000000000000000, -0.000000000000000000, -0.000000000000000000 ) ) ;
#70 = EDGE_LOOP ( 'NONE', ( #57, #174, #219, #135 ) ) ;
#71 = PERSON_AND_ORGANIZATION_ROLE ( 'design_owner' ) ;
#72 = CARTESIAN_POINT ( 'NONE',  ( 0.000000000000000000, 0.000000000000000000, 0.000000000000000000 ) ) ;
#73 = AXIS2_PLACEMENT_3D ( 'NONE', #155, #119, #29 ) ;
#74 = PRODUCT_DEFINITION ( 'UNKNOWN', '', #59, #180 ) ;
#75 = ORIENTED_EDGE ( 'NONE', *, *, #13, .T. ) ;
#76 = COORDINATED_UNIVERSAL_TIME_OFFSET ( 1, 0, .AHEAD. ) ;
#77 = CC_DESIGN_APPROVAL ( #169, ( #74 ) ) ;
#78 = DIRECTION ( 'NONE',  ( 1.000000000000000000, 0.000000000000000000, 0.000000000000000000 ) ) ;
#79 = ADVANCED_FACE ( 'NONE', ( #9 ), #48, .F. ) ;
#80 = FACE_OUTER_BOUND ( 'NONE', #22, .T. ) ;
#81 = PLANE ( 'NONE',  #176 ) ;
#82 = CC_DESIGN_PERSON_AND_ORGANIZATION_ASSIGNMENT ( #201, #34, ( #59 ) ) ;
#83 = PLANE ( 'NONE',  #200 ) ;
#84 = LINE ( 'NONE', #158, #234 ) ;
#85 = DIRECTION ( 'NONE',  ( -0.000000000000000000, -0.000000000000000000, -1.000000000000000000 ) ) ;
#86 = PERSON_AND_ORGANIZATION ( #183, #197 ) ;
#87 = CALENDAR_DATE ( 2026, 28, 1 ) ;
#88 = PERSON_AND_ORGANIZATION ( #183, #197 ) ;
#89 =( NAMED_UNIT ( * ) PLANE_ANGLE_UNIT ( ) SI_UNIT ( $, .RADIAN. ) );
#90 = ORIENTED_EDGE ( 'NONE', *, *, #97, .F. ) ;
#91 = ORIENTED_EDGE ( 'NONE', *, *, #159, .T. ) ;
#92 = SECURITY_CLASSIFICATION_LEVEL ( 'unclassified' ) ;
#93 = VERTEX_POINT ( 'NONE', #98 ) ;
#94 = PERSON_AND_ORGANIZATION ( #183, #197 ) ;
#95 = DIRECTION ( 'NONE',  ( -0.000000000000000000, -0.000000000000000000, -1.000000000000000000 ) ) ;
#96 = APPROVAL_PERSON_ORGANIZATION ( #153, #149, #221 ) ;
#97 = EDGE_CURVE ( 'NONE', #41, #93, #193, .T. ) ;
#98 = CARTESIAN_POINT ( 'NONE',  ( -325.0000000000000000, 40.00000000000000711, 30.00000000000000000 ) ) ;
#99 = VERTEX_POINT ( 'NONE', #63 ) ;
#100 = LINE ( 'NONE', #175, #49 ) ;
#101 = VECTOR ( 'NONE', #157, 1000.000000000000000 ) ;
#102 = CARTESIAN_POINT ( 'NONE',  ( 324.9999999999999432, -39.99999999999999289, 0.000000000000000000 ) ) ;
#103 = CALENDAR_DATE ( 2026, 28, 1 ) ;
#104 = SECURITY_CLASSIFICATION ( '', '', #92 ) ;
#105 = ADVANCED_FACE ( 'NONE', ( #43 ), #227, .F. ) ;
#106 = CARTESIAN_POINT ( 'NONE',  ( -325.0000000000000000, 40.00000000000000711, 0.000000000000000000 ) ) ;
#107 = VECTOR ( 'NONE', #85, 1000.000000000000000 ) ;
#108 = DIRECTION ( 'NONE',  ( -1.000000000000000000, -0.000000000000000000, -0.000000000000000000 ) ) ;
#109 = DIRECTION ( 'NONE',  ( -0.000000000000000000, -1.000000000000000000, -0.000000000000000000 ) ) ;
#110 = EDGE_LOOP ( 'NONE', ( #172, #112, #3, #148 ) ) ;
#111 = ORIENTED_EDGE ( 'NONE', *, *, #144, .T. ) ;
#112 = ORIENTED_EDGE ( 'NONE', *, *, #165, .F. ) ;
#113 = DIRECTION ( 'NONE',  ( -0.000000000000000000, -0.000000000000000000, -1.000000000000000000 ) ) ;
#114 = ADVANCED_FACE ( 'NONE', ( #229 ), #81, .F. ) ;
#115 = LINE ( 'NONE', #102, #194 ) ;
#116 = AXIS2_PLACEMENT_3D ( 'NONE', #72, #167, #51 ) ;
#117 = DIRECTION ( 'NONE',  ( 0.000000000000000000, 0.000000000000000000, -1.000000000000000000 ) ) ;
#118 = CARTESIAN_POINT ( 'NONE',  ( 324.9999999999999432, -39.99999999999999289, 30.00000000000000000 ) ) ;
#119 = DIRECTION ( 'NONE',  ( 0.000000000000000000, -1.000000000000000000, 0.000000000000000000 ) ) ;
#120 = AXIS2_PLACEMENT_3D ( 'NONE', #27, #141, #23 ) ;
#121 = DIRECTION ( 'NONE',  ( 6.938893903907228378E-16, 1.000000000000000000, 0.000000000000000000 ) ) ;
#122 = APPROVAL_STATUS ( 'not_yet_approved' ) ;
#123 = EDGE_CURVE ( 'NONE', #166, #99, #115, .T. ) ;
#124 = PRODUCT_DEFINITION_SHAPE ( 'NONE', 'NONE',  #74 ) ;
#125 = CC_DESIGN_PERSON_AND_ORGANIZATION_ASSIGNMENT ( #88, #211, ( #74 ) ) ;
#126 = APPROVAL_DATE_TIME ( #14, #56 ) ;
#127 = CC_DESIGN_APPROVAL ( #149, ( #104 ) ) ;
#128 = CALENDAR_DATE ( 2026, 28, 1 ) ;
#129 = EDGE_LOOP ( 'NONE', ( #38, #21, #191, #75 ) ) ;
#130 = CALENDAR_DATE ( 2026, 28, 1 ) ;
#131 = ORIENTED_EDGE ( 'NONE', *, *, #165, .T. ) ;
#132 = APPROVAL_PERSON_ORGANIZATION ( #215, #56, #50 ) ;
#133 = VERTEX_POINT ( 'NONE', #12 ) ;
#134 = COORDINATED_UNIVERSAL_TIME_OFFSET ( 1, 0, .AHEAD. ) ;
#135 = ORIENTED_EDGE ( 'NONE', *, *, #231, .T. ) ;
#136 = ORIENTED_EDGE ( 'NONE', *, *, #13, .F. ) ;
#137 = APPROVAL_STATUS ( 'not_yet_approved' ) ;
#138 = DIRECTION ( 'NONE',  ( -1.000000000000000000, 6.938893903907228378E-16, 0.000000000000000000 ) ) ;
#139 = DIRECTION ( 'NONE',  ( 6.938893903907228378E-16, 1.000000000000000000, 0.000000000000000000 ) ) ;
#140 = DIRECTION ( 'NONE',  ( -6.938893903907228378E-16, -1.000000000000000000, 0.000000000000000000 ) ) ;
#141 = DIRECTION ( 'NONE',  ( 0.000000000000000000, 1.000000000000000000, 0.000000000000000000 ) ) ;
#142 = VECTOR ( 'NONE', #205, 1000.000000000000000 ) ;
#143 = APPLICATION_PROTOCOL_DEFINITION ( 'international standard', 'config_control_design', 1994, #64 ) ;
#144 = EDGE_CURVE ( 'NONE', #41, #99, #84, .T. ) ;
#145 = CARTESIAN_POINT ( 'NONE',  ( -325.0000000000000000, -39.99999999999999289, 0.000000000000000000 ) ) ;
#146 = ORIENTED_EDGE ( 'NONE', *, *, #36, .F. ) ;
#147 = ADVANCED_FACE ( 'NONE', ( #188 ), #83, .T. ) ;
#148 = ORIENTED_EDGE ( 'NONE', *, *, #66, .F. ) ;
#149 = APPROVAL ( #137, 'UNSPECIFIED' ) ;
#150 = PERSON_AND_ORGANIZATION_ROLE ( 'classification_officer' ) ;
#151 = LOCAL_TIME ( 13, 25, 36.00000000000000000, #76 ) ;
#152 = VERTEX_POINT ( 'NONE', #118 ) ;
#153 = PERSON_AND_ORGANIZATION ( #183, #197 ) ;
#154 = LINE ( 'NONE', #26, #101 ) ;
#155 = CARTESIAN_POINT ( 'NONE',  ( -325.0000000000000000, 40.00000000000000711, 30.00000000000000000 ) ) ;
#156 = CARTESIAN_POINT ( 'NONE',  ( -325.0000000000000000, 40.00000000000000711, 30.00000000000000000 ) ) ;
#157 = DIRECTION ( 'NONE',  ( -0.000000000000000000, -1.000000000000000000, -0.000000000000000000 ) ) ;
#158 = CARTESIAN_POINT ( 'NONE',  ( 325.0000000000000000, 40.00000000000000711, 30.00000000000000000 ) ) ;
#159 = EDGE_CURVE ( 'NONE', #93, #133, #154, .T. ) ;
#160 = LINE ( 'NONE', #145, #161 ) ;
#161 = VECTOR ( 'NONE', #109, 1000.000000000000000 ) ;
#162 = LINE ( 'NONE', #213, #168 ) ;
#163 = APPROVAL_DATE_TIME ( #196, #169 ) ;
#164 = DATE_TIME_ROLE ( 'creation_date' ) ;
#165 = EDGE_CURVE ( 'NONE', #99, #220, #173, .T. ) ;
#166 = VERTEX_POINT ( 'NONE', #178 ) ;
#167 = DIRECTION ( 'NONE',  ( 0.000000000000000000, 0.000000000000000000, 1.000000000000000000 ) ) ;
#168 = VECTOR ( 'NONE', #121, 1000.000000000000000 ) ;
#169 = APPROVAL ( #122, 'UNSPECIFIED' ) ;
#170 = ORIENTED_EDGE ( 'NONE', *, *, #36, .T. ) ;
#171 = VECTOR ( 'NONE', #37, 1000.000000000000000 ) ;
#172 = ORIENTED_EDGE ( 'NONE', *, *, #199, .F. ) ;
#173 = LINE ( 'NONE', #65, #17 ) ;
#174 = ORIENTED_EDGE ( 'NONE', *, *, #144, .F. ) ;
#175 = CARTESIAN_POINT ( 'NONE',  ( -325.0000000000000000, 40.00000000000000711, 30.00000000000000000 ) ) ;
#176 = AXIS2_PLACEMENT_3D ( 'NONE', #42, #78, #46 ) ;
#177 = LINE ( 'NONE', #226, #142 ) ;
#178 = CARTESIAN_POINT ( 'NONE',  ( 324.9999999999999432, -39.99999999999999289, 0.000000000000000000 ) ) ;
#179 = DATE_AND_TIME ( #103, #67 ) ;
#180 = DESIGN_CONTEXT ( 'detailed design', #64, 'design' ) ;
#181 = PERSON_AND_ORGANIZATION ( #183, #197 ) ;
#182 = CARTESIAN_POINT ( 'NONE',  ( -325.0000000000000000, -39.99999999999999289, 0.000000000000000000 ) ) ;
#183 = PERSON ( 'UNSPECIFIED', 'UNSPECIFIED', 'UNSPECIFIED', ('UNSPECIFIED'), ('UNSPECIFIED'), ('UNSPECIFIED') ) ;
#184 = CC_DESIGN_PERSON_AND_ORGANIZATION_ASSIGNMENT ( #218, #39, ( #59 ) ) ;
#185 = ORIENTED_EDGE ( 'NONE', *, *, #199, .T. ) ;
#186 = AXIS2_PLACEMENT_3D ( 'NONE', #11, #210, #6 ) ;
#187 = ORIENTED_EDGE ( 'NONE', *, *, #222, .T. ) ;
#188 = FACE_OUTER_BOUND ( 'NONE', #110, .T. ) ;
#189 = CARTESIAN_POINT ( 'NONE',  ( -325.0000000000000000, -39.99999999999999289, 30.00000000000000000 ) ) ;
#190 = DIRECTION ( 'NONE',  ( -0.000000000000000000, -0.000000000000000000, -1.000000000000000000 ) ) ;
#191 = ORIENTED_EDGE ( 'NONE', *, *, #222, .F. ) ;
#192 = PRODUCT_RELATED_PRODUCT_CATEGORY ( 'detail', '', ( #232 ) ) ;
#193 = LINE ( 'NONE', #156, #25 ) ;
#194 = VECTOR ( 'NONE', #139, 1000.000000000000000 ) ;
#195 = CARTESIAN_POINT ( 'NONE',  ( 324.9999999999999432, -39.99999999999999289, 30.00000000000000000 ) ) ;
#196 = DATE_AND_TIME ( #87, #33 ) ;
#197 = ORGANIZATION ( 'UNSPECIFIED', 'UNSPECIFIED', '' ) ;
#198 = APPLICATION_PROTOCOL_DEFINITION ( 'international standard', 'config_control_design', 1994, #224 ) ;
#199 = EDGE_CURVE ( 'NONE', #220, #204, #160, .T. ) ;
#200 = AXIS2_PLACEMENT_3D ( 'NONE', #225, #117, #47 ) ;
#201 = PERSON_AND_ORGANIZATION ( #183, #197 ) ;
#202 = EDGE_LOOP ( 'NONE', ( #185, #136, #1, #170 ) ) ;
#203 = VECTOR ( 'NONE', #95, 1000.000000000000000 ) ;
#204 = VERTEX_POINT ( 'NONE', #182 ) ;
#205 = DIRECTION ( 'NONE',  ( 1.000000000000000000, 0.000000000000000000, 0.000000000000000000 ) ) ;
#206 = EDGE_CURVE ( 'NONE', #152, #41, #162, .T. ) ;
#207 = CARTESIAN_POINT ( 'NONE',  ( 324.9999999999999432, -39.99999999999999289, 30.00000000000000000 ) ) ;
#208 = CC_DESIGN_PERSON_AND_ORGANIZATION_ASSIGNMENT ( #94, #150, ( #104 ) ) ;
#209 = CARTESIAN_POINT ( 'NONE',  ( 325.0000000000000000, 40.00000000000000711, 30.00000000000000000 ) ) ;
#210 = DIRECTION ( 'NONE',  ( 0.000000000000000000, 0.000000000000000000, -1.000000000000000000 ) ) ;
#211 = PERSON_AND_ORGANIZATION_ROLE ( 'creator' ) ;
#212 = CC_DESIGN_SECURITY_CLASSIFICATION ( #104, ( #59 ) ) ;
#213 = CARTESIAN_POINT ( 'NONE',  ( 324.9999999999999432, -39.99999999999999289, 30.00000000000000000 ) ) ;
#214 = COORDINATED_UNIVERSAL_TIME_OFFSET ( 1, 0, .AHEAD. ) ;
#215 = PERSON_AND_ORGANIZATION ( #183, #197 ) ;
#216 = AXIS2_PLACEMENT_3D ( 'NONE', #207, #138, #140 ) ;
#217 = EDGE_LOOP ( 'NONE', ( #131, #146, #90, #111 ) ) ;
#218 = PERSON_AND_ORGANIZATION ( #183, #197 ) ;
#219 = ORIENTED_EDGE ( 'NONE', *, *, #206, .F. ) ;
#220 = VERTEX_POINT ( 'NONE', #106 ) ;
#221 = APPROVAL_ROLE ( '' ) ;
#222 = EDGE_CURVE ( 'NONE', #133, #152, #52, .T. ) ;
#223 = PLANE ( 'NONE',  #186 ) ;
#224 = APPLICATION_CONTEXT ( 'configuration controlled 3d designs of mechanical parts and assemblies' ) ;
#225 = CARTESIAN_POINT ( 'NONE',  ( 0.000000000000000000, 0.000000000000000000, 0.000000000000000000 ) ) ;
#226 = CARTESIAN_POINT ( 'NONE',  ( -325.0000000000000000, -39.99999999999999289, 0.000000000000000000 ) ) ;
#227 = PLANE ( 'NONE',  #120 ) ;
#228 = MANIFOLD_SOLID_BREP ( 'Boss-Extrude1', #44 ) ;
#229 = FACE_OUTER_BOUND ( 'NONE', #202, .T. ) ;
#230 = LOCAL_TIME ( 13, 25, 36.00000000000000000, #134 ) ;
#231 = EDGE_CURVE ( 'NONE', #152, #166, #20, .T. ) ;
#232 = PRODUCT ( 'Base_bearing_mount_sideways_Default_sldprt', 'Base_bearing_mount_sideways_Default_sldprt', '', ( #237 ) ) ;
#233 = CC_DESIGN_DATE_AND_TIME_ASSIGNMENT ( #60, #7, ( #104 ) ) ;
#234 = VECTOR ( 'NONE', #113, 1000.000000000000000 ) ;
#235 = COORDINATED_UNIVERSAL_TIME_OFFSET ( 1, 0, .AHEAD. ) ;
#236 = APPROVAL_PERSON_ORGANIZATION ( #181, #169, #19 ) ;
#237 = MECHANICAL_CONTEXT ( 'NONE', #224, 'mechanical' ) ;
ENDSEC;
END-ISO-10303-21;
