ISO-10303-21;
HEADER;
FILE_DESCRIPTION (( 'STEP AP203' ),
    '1' );
FILE_NAME ('Base_profil_tower_Default_sldprt.STEP',
    '2026-01-28T12:25:46',
    ( '' ),
    ( '' ),
    'SwSTEP 2.0',
    'SolidWorks 2024',
    '' );
FILE_SCHEMA (( 'CONFIG_CONTROL_DESIGN' ));
ENDSEC;

DATA;
#1 = ORGANIZATION ( 'UNSPECIFIED', 'UNSPECIFIED', '' ) ;
#2 = CARTESIAN_POINT ( 'NONE',  ( -50.00000000000004263, -50.00000000000004263, 920.0000000000000000 ) ) ;
#3 = ORIENTED_EDGE ( 'NONE', *, *, #311, .T. ) ;
#4 = APPROVAL_DATE_TIME ( #140, #93 ) ;
#5 = PRODUCT_RELATED_PRODUCT_CATEGORY ( 'detail', '', ( #185 ) ) ;
#6 = DIRECTION ( 'NONE',  ( -0.000000000000000000, -1.000000000000000000, -0.000000000000000000 ) ) ;
#7 = CC_DESIGN_PERSON_AND_ORGANIZATION_ASSIGNMENT ( #183, #357, ( #185 ) ) ;
#8 = VERTEX_POINT ( 'NONE', #280 ) ;
#9 = DIRECTION ( 'NONE',  ( 0.000000000000000000, 0.000000000000000000, -1.000000000000000000 ) ) ;
#10 = VERTEX_POINT ( 'NONE', #11 ) ;
#11 = CARTESIAN_POINT ( 'NONE',  ( 49.99999999999996447, -50.00000000000004263, 920.0000000000000000 ) ) ;
#12 = ORIENTED_EDGE ( 'NONE', *, *, #362, .F. ) ;
#13 =( LENGTH_UNIT ( ) NAMED_UNIT ( * ) SI_UNIT ( .MILLI., .METRE. ) );
#14 = ORIENTED_EDGE ( 'NONE', *, *, #252, .F. ) ;
#15 = AXIS2_PLACEMENT_3D ( 'NONE', #83, #112, #77 ) ;
#16 = ORIENTED_EDGE ( 'NONE', *, *, #271, .F. ) ;
#17 = EDGE_CURVE ( 'NONE', #115, #127, #334, .T. ) ;
#18 = DIRECTION ( 'NONE',  ( -1.000000000000000000, -0.000000000000000000, -0.000000000000000000 ) ) ;
#19 = LINE ( 'NONE', #193, #73 ) ;
#20 = LOCAL_TIME ( 13, 25, 46.00000000000000000, #111 ) ;
#21 = VECTOR ( 'NONE', #158, 1000.000000000000000 ) ;
#22 = DIRECTION ( 'NONE',  ( -0.000000000000000000, -0.000000000000000000, -1.000000000000000000 ) ) ;
#23 = CARTESIAN_POINT ( 'NONE',  ( -45.00000000000001421, 44.99999999999992895, 920.0000000000000000 ) ) ;
#24 = FACE_OUTER_BOUND ( 'NONE', #45, .T. ) ;
#25 = AXIS2_PLACEMENT_3D ( 'NONE', #233, #57, #258 ) ;
#26 = DIRECTION ( 'NONE',  ( 0.000000000000000000, -1.000000000000000000, 0.000000000000000000 ) ) ;
#27 = EDGE_CURVE ( 'NONE', #127, #216, #239, .T. ) ;
#28 = DIRECTION ( 'NONE',  ( -6.167905692361983519E-16, 1.000000000000000000, 0.000000000000000000 ) ) ;
#29 = ORIENTED_EDGE ( 'NONE', *, *, #219, .T. ) ;
#30 = CARTESIAN_POINT ( 'NONE',  ( -50.00000000000004263, -50.00000000000004263, -920.0000000000000000 ) ) ;
#31 = DATE_TIME_ROLE ( 'classification_date' ) ;
#32 = AXIS2_PLACEMENT_3D ( 'NONE', #228, #137, #166 ) ;
#33 = FACE_OUTER_BOUND ( 'NONE', #261, .T. ) ;
#34 = FACE_OUTER_BOUND ( 'NONE', #292, .T. ) ;
#35 = ORIENTED_EDGE ( 'NONE', *, *, #299, .T. ) ;
#36 = COORDINATED_UNIVERSAL_TIME_OFFSET ( 1, 0, .AHEAD. ) ;
#37 = CARTESIAN_POINT ( 'NONE',  ( 0.000000000000000000, 0.000000000000000000, 0.000000000000000000 ) ) ;
#38 = ORIENTED_EDGE ( 'NONE', *, *, #71, .T. ) ;
#39 = EDGE_CURVE ( 'NONE', #216, #91, #304, .T. ) ;
#40 = ORIENTED_EDGE ( 'NONE', *, *, #65, .F. ) ;
#41 = ORIENTED_EDGE ( 'NONE', *, *, #219, .F. ) ;
#42 = ORIENTED_EDGE ( 'NONE', *, *, #198, .T. ) ;
#43 = SECURITY_CLASSIFICATION ( '', '', #300 ) ;
#44 = VECTOR ( 'NONE', #181, 1000.000000000000000 ) ;
#45 = EDGE_LOOP ( 'NONE', ( #175, #358, #89, #94 ) ) ;
#46 = DIRECTION ( 'NONE',  ( -0.000000000000000000, -0.000000000000000000, -1.000000000000000000 ) ) ;
#47 = DIRECTION ( 'NONE',  ( 0.000000000000000000, -0.000000000000000000, 1.000000000000000000 ) ) ;
#48 = VECTOR ( 'NONE', #153, 1000.000000000000000 ) ;
#49 = DIRECTION ( 'NONE',  ( -2.775557561562891844E-16, 1.000000000000000000, 0.000000000000000000 ) ) ;
#50 = CARTESIAN_POINT ( 'NONE',  ( 49.99999999999993605, 49.99999999999993605, -920.0000000000000000 ) ) ;
#51 = LINE ( 'NONE', #72, #207 ) ;
#52 = FACE_OUTER_BOUND ( 'NONE', #350, .T. ) ;
#53 = DIRECTION ( 'NONE',  ( -0.000000000000000000, -1.000000000000000000, -0.000000000000000000 ) ) ;
#54 = PERSON_AND_ORGANIZATION ( #353, #1 ) ;
#55 = PLANE ( 'NONE',  #56 ) ;
#56 = AXIS2_PLACEMENT_3D ( 'NONE', #205, #349, #259 ) ;
#57 = DIRECTION ( 'NONE',  ( 0.000000000000000000, 0.000000000000000000, -1.000000000000000000 ) ) ;
#58 = DIRECTION ( 'NONE',  ( -2.775557561562891844E-16, 1.000000000000000000, 0.000000000000000000 ) ) ;
#59 = CALENDAR_DATE ( 2026, 28, 1 ) ;
#60 = ORIENTED_EDGE ( 'NONE', *, *, #284, .T. ) ;
#61 = EDGE_CURVE ( 'NONE', #10, #97, #242, .T. ) ;
#62 = PERSON_AND_ORGANIZATION ( #353, #1 ) ;
#63 = VERTEX_POINT ( 'NONE', #162 ) ;
#64 = VERTEX_POINT ( 'NONE', #339 ) ;
#65 = EDGE_CURVE ( 'NONE', #127, #126, #338, .T. ) ;
#66 = CARTESIAN_POINT ( 'NONE',  ( -45.00000000000001421, -45.00000000000004263, 920.0000000000000000 ) ) ;
#67 = ORIENTED_EDGE ( 'NONE', *, *, #182, .T. ) ;
#68 = LOCAL_TIME ( 13, 25, 46.00000000000000000, #275 ) ;
#69 = CARTESIAN_POINT ( 'NONE',  ( -45.00000000000001421, 44.99999999999992895, 920.0000000000000000 ) ) ;
#70 = PLANE ( 'NONE',  #141 ) ;
#71 = EDGE_CURVE ( 'NONE', #8, #360, #19, .T. ) ;
#72 = CARTESIAN_POINT ( 'NONE',  ( 49.99999999999996447, -50.00000000000004263, -920.0000000000000000 ) ) ;
#73 = VECTOR ( 'NONE', #100, 1000.000000000000000 ) ;
#74 = ADVANCED_BREP_SHAPE_REPRESENTATION ( 'Base_profil_tower_Default_sldprt', ( #370, #277 ), #283 ) ;
#75 = DIRECTION ( 'NONE',  ( 0.000000000000000000, -1.000000000000000000, 0.000000000000000000 ) ) ;
#76 = CARTESIAN_POINT ( 'NONE',  ( 0.000000000000000000, 0.000000000000000000, -920.0000000000000000 ) ) ;
#77 = DIRECTION ( 'NONE',  ( 2.775557561562891844E-16, -1.000000000000000000, 0.000000000000000000 ) ) ;
#78 = APPROVAL_ROLE ( '' ) ;
#79 = DIRECTION ( 'NONE',  ( -1.000000000000000000, -0.000000000000000000, -0.000000000000000000 ) ) ;
#80 = ORIENTED_EDGE ( 'NONE', *, *, #65, .T. ) ;
#81 = DATE_AND_TIME ( #170, #20 ) ;
#82 = DIRECTION ( 'NONE',  ( -0.000000000000000000, -0.000000000000000000, -1.000000000000000000 ) ) ;
#83 = CARTESIAN_POINT ( 'NONE',  ( 49.99999999999996447, -50.00000000000004263, 920.0000000000000000 ) ) ;
#84 = AXIS2_PLACEMENT_3D ( 'NONE', #264, #172, #351 ) ;
#85 = CARTESIAN_POINT ( 'NONE',  ( 49.99999999999996447, -50.00000000000004263, 920.0000000000000000 ) ) ;
#86 = EDGE_LOOP ( 'NONE', ( #67, #42, #247, #35 ) ) ;
#87 = PERSON_AND_ORGANIZATION_ROLE ( 'creator' ) ;
#88 = EDGE_CURVE ( 'NONE', #91, #273, #157, .T. ) ;
#89 = ORIENTED_EDGE ( 'NONE', *, *, #199, .F. ) ;
#90 = APPLICATION_PROTOCOL_DEFINITION ( 'international standard', 'config_control_design', 1994, #333 ) ;
#91 = VERTEX_POINT ( 'NONE', #69 ) ;
#92 = APPLICATION_PROTOCOL_DEFINITION ( 'international standard', 'config_control_design', 1994, #323 ) ;
#93 = APPROVAL ( #234, 'UNSPECIFIED' ) ;
#94 = ORIENTED_EDGE ( 'NONE', *, *, #227, .F. ) ;
#95 = CALENDAR_DATE ( 2026, 28, 1 ) ;
#96 = EDGE_LOOP ( 'NONE', ( #276, #41, #121, #80 ) ) ;
#97 = VERTEX_POINT ( 'NONE', #287 ) ;
#98 = UNCERTAINTY_MEASURE_WITH_UNIT (LENGTH_MEASURE( 1.000000000000000082E-05 ), #13, 'distance_accuracy_value', 'NONE');
#99 = DIRECTION ( 'NONE',  ( -0.000000000000000000, -1.000000000000000000, -0.000000000000000000 ) ) ;
#100 = DIRECTION ( 'NONE',  ( -1.000000000000000000, -0.000000000000000000, -0.000000000000000000 ) ) ;
#101 = EDGE_CURVE ( 'NONE', #63, #126, #369, .T. ) ;
#102 = CARTESIAN_POINT ( 'NONE',  ( -45.00000000000001421, 44.99999999999992895, 920.0000000000000000 ) ) ;
#103 = DIRECTION ( 'NONE',  ( -0.000000000000000000, -1.000000000000000000, -0.000000000000000000 ) ) ;
#104 = VECTOR ( 'NONE', #190, 1000.000000000000000 ) ;
#105 = VECTOR ( 'NONE', #22, 1000.000000000000000 ) ;
#106 = DIRECTION ( 'NONE',  ( -0.000000000000000000, -0.000000000000000000, -1.000000000000000000 ) ) ;
#107 = PLANE ( 'NONE',  #32 ) ;
#108 = LINE ( 'NONE', #293, #159 ) ;
#109 = EDGE_LOOP ( 'NONE', ( #123, #306, #149, #38 ) ) ;
#110 = VECTOR ( 'NONE', #28, 1000.000000000000000 ) ;
#111 = COORDINATED_UNIVERSAL_TIME_OFFSET ( 1, 0, .AHEAD. ) ;
#112 = DIRECTION ( 'NONE',  ( -1.000000000000000000, -2.775557561562891844E-16, 0.000000000000000000 ) ) ;
#113 = ADVANCED_FACE ( 'NONE', ( #24, #314 ), #70, .T. ) ;
#114 = CARTESIAN_POINT ( 'NONE',  ( -50.00000000000004263, -50.00000000000004263, 920.0000000000000000 ) ) ;
#115 = VERTEX_POINT ( 'NONE', #250 ) ;
#116 = LINE ( 'NONE', #114, #178 ) ;
#117 = PERSON_AND_ORGANIZATION ( #353, #1 ) ;
#118 = ADVANCED_FACE ( 'NONE', ( #310 ), #363, .T. ) ;
#119 = APPROVAL_DATE_TIME ( #267, #246 ) ;
#120 = ORIENTED_EDGE ( 'NONE', *, *, #198, .F. ) ;
#121 = ORIENTED_EDGE ( 'NONE', *, *, #17, .T. ) ;
#122 = CC_DESIGN_DATE_AND_TIME_ASSIGNMENT ( #81, #31, ( #43 ) ) ;
#123 = ORIENTED_EDGE ( 'NONE', *, *, #288, .T. ) ;
#124 = PERSON_AND_ORGANIZATION ( #353, #1 ) ;
#125 = AXIS2_PLACEMENT_3D ( 'NONE', #326, #226, #9 ) ;
#126 = VERTEX_POINT ( 'NONE', #285 ) ;
#127 = VERTEX_POINT ( 'NONE', #343 ) ;
#128 = EDGE_LOOP ( 'NONE', ( #354, #321, #16, #245 ) ) ;
#129 = DIRECTION ( 'NONE',  ( 0.000000000000000000, -0.000000000000000000, -1.000000000000000000 ) ) ;
#130 = VECTOR ( 'NONE', #53, 1000.000000000000000 ) ;
#131 = DIRECTION ( 'NONE',  ( -1.000000000000000000, -0.000000000000000000, -0.000000000000000000 ) ) ;
#132 = LINE ( 'NONE', #254, #105 ) ;
#133 = CARTESIAN_POINT ( 'NONE',  ( -45.00000000000001421, -45.00000000000004263, 920.0000000000000000 ) ) ;
#134 = CC_DESIGN_APPROVAL ( #93, ( #43 ) ) ;
#135 = CARTESIAN_POINT ( 'NONE',  ( 45.00000000000001421, -45.00000000000004263, -920.0000000000000000 ) ) ;
#136 = CARTESIAN_POINT ( 'NONE',  ( -50.00000000000004263, 49.99999999999993605, -920.0000000000000000 ) ) ;
#137 = DIRECTION ( 'NONE',  ( 1.000000000000000000, 0.000000000000000000, 0.000000000000000000 ) ) ;
#138 = EDGE_CURVE ( 'NONE', #91, #115, #224, .T. ) ;
#139 = EDGE_LOOP ( 'NONE', ( #155, #335, #266, #147 ) ) ;
#140 = DATE_AND_TIME ( #263, #255 ) ;
#141 = AXIS2_PLACEMENT_3D ( 'NONE', #76, #282, #196 ) ;
#142 = PLANE ( 'NONE',  #84 ) ;
#143 = DIRECTION ( 'NONE',  ( 1.000000000000000000, 0.000000000000000000, 0.000000000000000000 ) ) ;
#144 = ORIENTED_EDGE ( 'NONE', *, *, #145, .F. ) ;
#145 = EDGE_CURVE ( 'NONE', #360, #64, #248, .T. ) ;
#146 =( NAMED_UNIT ( * ) SI_UNIT ( $, .STERADIAN. ) SOLID_ANGLE_UNIT ( ) );
#147 = ORIENTED_EDGE ( 'NONE', *, *, #88, .T. ) ;
#148 = DIRECTION ( 'NONE',  ( 1.000000000000000000, 0.000000000000000000, 0.000000000000000000 ) ) ;
#149 = ORIENTED_EDGE ( 'NONE', *, *, #271, .T. ) ;
#150 = ORIENTED_EDGE ( 'NONE', *, *, #288, .F. ) ;
#151 = ORIENTED_EDGE ( 'NONE', *, *, #27, .T. ) ;
#152 = CC_DESIGN_APPROVAL ( #246, ( #315 ) ) ;
#153 = DIRECTION ( 'NONE',  ( 1.000000000000000000, 0.000000000000000000, 0.000000000000000000 ) ) ;
#154 = VECTOR ( 'NONE', #99, 1000.000000000000000 ) ;
#155 = ORIENTED_EDGE ( 'NONE', *, *, #182, .F. ) ;
#156 = EDGE_CURVE ( 'NONE', #8, #218, #132, .T. ) ;
#157 = LINE ( 'NONE', #23, #243 ) ;
#158 = DIRECTION ( 'NONE',  ( 1.000000000000000000, 0.000000000000000000, 0.000000000000000000 ) ) ;
#159 = VECTOR ( 'NONE', #345, 1000.000000000000000 ) ;
#160 = APPROVAL ( #244, 'UNSPECIFIED' ) ;
#161 = DIRECTION ( 'NONE',  ( -0.000000000000000000, -0.000000000000000000, -1.000000000000000000 ) ) ;
#162 = CARTESIAN_POINT ( 'NONE',  ( -45.00000000000001421, -45.00000000000004263, -920.0000000000000000 ) ) ;
#163 = FACE_OUTER_BOUND ( 'NONE', #232, .T. ) ;
#164 = APPROVAL_PERSON_ORGANIZATION ( #237, #160, #355 ) ;
#165 = CARTESIAN_POINT ( 'NONE',  ( -50.00000000000004263, -50.00000000000004263, -920.0000000000000000 ) ) ;
#166 = DIRECTION ( 'NONE',  ( 0.000000000000000000, 0.000000000000000000, -1.000000000000000000 ) ) ;
#167 = CARTESIAN_POINT ( 'NONE',  ( -50.00000000000004263, 49.99999999999993605, 920.0000000000000000 ) ) ;
#168 = VECTOR ( 'NONE', #79, 1000.000000000000000 ) ;
#169 = CC_DESIGN_PERSON_AND_ORGANIZATION_ASSIGNMENT ( #117, #236, ( #43 ) ) ;
#170 = CALENDAR_DATE ( 2026, 28, 1 ) ;
#171 = CC_DESIGN_PERSON_AND_ORGANIZATION_ASSIGNMENT ( #330, #87, ( #315 ) ) ;
#172 = DIRECTION ( 'NONE',  ( 0.000000000000000000, 1.000000000000000000, 0.000000000000000000 ) ) ;
#173 = ORIENTED_EDGE ( 'NONE', *, *, #27, .F. ) ;
#174 = FACE_BOUND ( 'NONE', #177, .T. ) ;
#175 = ORIENTED_EDGE ( 'NONE', *, *, #257, .F. ) ;
#176 = CALENDAR_DATE ( 2026, 28, 1 ) ;
#177 = EDGE_LOOP ( 'NONE', ( #184, #356, #173, #212 ) ) ;
#178 = VECTOR ( 'NONE', #344, 1000.000000000000000 ) ;
#179 = VECTOR ( 'NONE', #18, 1000.000000000000000 ) ;
#180 = PERSON_AND_ORGANIZATION_ROLE ( 'creator' ) ;
#181 = DIRECTION ( 'NONE',  ( -6.167905692361983519E-16, 1.000000000000000000, 0.000000000000000000 ) ) ;
#182 = EDGE_CURVE ( 'NONE', #268, #273, #317, .T. ) ;
#183 = PERSON_AND_ORGANIZATION ( #353, #1 ) ;
#184 = ORIENTED_EDGE ( 'NONE', *, *, #138, .F. ) ;
#185 = PRODUCT ( 'Base_profil_tower_Default_sldprt', 'Base_profil_tower_Default_sldprt', '', ( #241 ) ) ;
#186 = ORIENTED_EDGE ( 'NONE', *, *, #227, .T. ) ;
#187 = CC_DESIGN_SECURITY_CLASSIFICATION ( #43, ( #269 ) ) ;
#188 = EDGE_LOOP ( 'NONE', ( #120, #361, #202, #29 ) ) ;
#189 = ADVANCED_FACE ( 'NONE', ( #365 ), #342, .T. ) ;
#190 = DIRECTION ( 'NONE',  ( -0.000000000000000000, -0.000000000000000000, -1.000000000000000000 ) ) ;
#191 = CARTESIAN_POINT ( 'NONE',  ( -45.00000000000001421, -45.00000000000004263, 920.0000000000000000 ) ) ;
#192 = CC_DESIGN_PERSON_AND_ORGANIZATION_ASSIGNMENT ( #62, #180, ( #269 ) ) ;
#193 = CARTESIAN_POINT ( 'NONE',  ( -50.00000000000004263, 49.99999999999993605, 920.0000000000000000 ) ) ;
#194 = VECTOR ( 'NONE', #58, 1000.000000000000000 ) ;
#195 = LINE ( 'NONE', #223, #154 ) ;
#196 = DIRECTION ( 'NONE',  ( -1.000000000000000000, 0.000000000000000000, -0.000000000000000000 ) ) ;
#197 = LINE ( 'NONE', #165, #294 ) ;
#198 = EDGE_CURVE ( 'NONE', #273, #63, #195, .T. ) ;
#199 = EDGE_CURVE ( 'NONE', #97, #218, #51, .T. ) ;
#200 = PERSON_AND_ORGANIZATION_ROLE ( 'design_supplier' ) ;
#201 = CARTESIAN_POINT ( 'NONE',  ( 44.99999999999995737, 44.99999999999992895, -920.0000000000000000 ) ) ;
#202 = ORIENTED_EDGE ( 'NONE', *, *, #138, .T. ) ;
#203 = SHAPE_DEFINITION_REPRESENTATION ( #281, #74 ) ;
#204 = LINE ( 'NONE', #260, #341 ) ;
#205 = CARTESIAN_POINT ( 'NONE',  ( 45.00000000000001421, -45.00000000000004263, 920.0000000000000000 ) ) ;
#206 = LOCAL_TIME ( 13, 25, 46.00000000000000000, #36 ) ;
#207 = VECTOR ( 'NONE', #49, 1000.000000000000000 ) ;
#208 = FACE_OUTER_BOUND ( 'NONE', #109, .T. ) ;
#209 = DATE_TIME_ROLE ( 'creation_date' ) ;
#210 = ORIENTED_EDGE ( 'NONE', *, *, #156, .T. ) ;
#211 = APPROVAL_DATE_TIME ( #301, #160 ) ;
#212 = ORIENTED_EDGE ( 'NONE', *, *, #17, .F. ) ;
#213 = ADVANCED_FACE ( 'NONE', ( #163 ), #316, .F. ) ;
#214 = VECTOR ( 'NONE', #82, 1000.000000000000000 ) ;
#215 = APPROVAL_STATUS ( 'not_yet_approved' ) ;
#216 = VERTEX_POINT ( 'NONE', #286 ) ;
#217 =( NAMED_UNIT ( * ) PLANE_ANGLE_UNIT ( ) SI_UNIT ( $, .RADIAN. ) );
#218 = VERTEX_POINT ( 'NONE', #50 ) ;
#219 = EDGE_CURVE ( 'NONE', #115, #63, #221, .T. ) ;
#220 = ORIENTED_EDGE ( 'NONE', *, *, #257, .T. ) ;
#221 = LINE ( 'NONE', #336, #104 ) ;
#222 = DIRECTION ( 'NONE',  ( 0.000000000000000000, 1.000000000000000000, 0.000000000000000000 ) ) ;
#223 = CARTESIAN_POINT ( 'NONE',  ( -45.00000000000001421, -45.00000000000004263, -920.0000000000000000 ) ) ;
#224 = LINE ( 'NONE', #133, #308 ) ;
#225 = CARTESIAN_POINT ( 'NONE',  ( -45.00000000000001421, -45.00000000000004263, -920.0000000000000000 ) ) ;
#226 = DIRECTION ( 'NONE',  ( 1.000000000000000000, 0.000000000000000000, 0.000000000000000000 ) ) ;
#227 = EDGE_CURVE ( 'NONE', #309, #97, #197, .T. ) ;
#228 = CARTESIAN_POINT ( 'NONE',  ( -45.00000000000001421, -45.00000000000004263, 920.0000000000000000 ) ) ;
#229 = VECTOR ( 'NONE', #131, 1000.000000000000000 ) ;
#230 = CC_DESIGN_DATE_AND_TIME_ASSIGNMENT ( #305, #209, ( #315 ) ) ;
#231 = LINE ( 'NONE', #372, #214 ) ;
#232 = EDGE_LOOP ( 'NONE', ( #3, #144, #332, #210 ) ) ;
#233 = CARTESIAN_POINT ( 'NONE',  ( 0.000000000000000000, 0.000000000000000000, 920.0000000000000000 ) ) ;
#234 = APPROVAL_STATUS ( 'not_yet_approved' ) ;
#235 = PLANE ( 'NONE',  #125 ) ;
#236 = PERSON_AND_ORGANIZATION_ROLE ( 'classification_officer' ) ;
#237 = PERSON_AND_ORGANIZATION ( #353, #1 ) ;
#238 = DIRECTION ( 'NONE',  ( 0.000000000000000000, 0.000000000000000000, 1.000000000000000000 ) ) ;
#239 = LINE ( 'NONE', #331, #44 ) ;
#240 = ADVANCED_FACE ( 'NONE', ( #52 ), #235, .F. ) ;
#241 = MECHANICAL_CONTEXT ( 'NONE', #333, 'mechanical' ) ;
#242 = LINE ( 'NONE', #279, #278 ) ;
#243 = VECTOR ( 'NONE', #161, 1000.000000000000000 ) ;
#244 = APPROVAL_STATUS ( 'not_yet_approved' ) ;
#245 = ORIENTED_EDGE ( 'NONE', *, *, #61, .T. ) ;
#246 = APPROVAL ( #215, 'UNSPECIFIED' ) ;
#247 = ORIENTED_EDGE ( 'NONE', *, *, #101, .T. ) ;
#248 = LINE ( 'NONE', #366, #359 ) ;
#249 = APPROVAL_PERSON_ORGANIZATION ( #54, #93, #78 ) ;
#250 = CARTESIAN_POINT ( 'NONE',  ( -45.00000000000001421, -45.00000000000004263, 920.0000000000000000 ) ) ;
#251 = CARTESIAN_POINT ( 'NONE',  ( -45.00000000000001421, 44.99999999999992895, -920.0000000000000000 ) ) ;
#252 = EDGE_CURVE ( 'NONE', #346, #10, #116, .T. ) ;
#253 = DIRECTION ( 'NONE',  ( 0.000000000000000000, -0.000000000000000000, -1.000000000000000000 ) ) ;
#254 = CARTESIAN_POINT ( 'NONE',  ( 49.99999999999993605, 49.99999999999993605, 920.0000000000000000 ) ) ;
#255 = LOCAL_TIME ( 13, 25, 46.00000000000000000, #348 ) ;
#256 = AXIS2_PLACEMENT_3D ( 'NONE', #289, #26, #253 ) ;
#257 = EDGE_CURVE ( 'NONE', #64, #309, #265, .T. ) ;
#258 = DIRECTION ( 'NONE',  ( -1.000000000000000000, 0.000000000000000000, -0.000000000000000000 ) ) ;
#259 = DIRECTION ( 'NONE',  ( 6.167905692361983519E-16, -1.000000000000000000, 0.000000000000000000 ) ) ;
#260 = CARTESIAN_POINT ( 'NONE',  ( -50.00000000000004263, -50.00000000000004263, 920.0000000000000000 ) ) ;
#261 = EDGE_LOOP ( 'NONE', ( #186, #329, #14, #307 ) ) ;
#262 = APPROVAL_PERSON_ORGANIZATION ( #124, #246, #328 ) ;
#263 = CALENDAR_DATE ( 2026, 28, 1 ) ;
#264 = CARTESIAN_POINT ( 'NONE',  ( -50.00000000000004263, -50.00000000000004263, 920.0000000000000000 ) ) ;
#265 = LINE ( 'NONE', #352, #130 ) ;
#266 = ORIENTED_EDGE ( 'NONE', *, *, #39, .T. ) ;
#267 = DATE_AND_TIME ( #59, #68 ) ;
#268 = VERTEX_POINT ( 'NONE', #201 ) ;
#269 = PRODUCT_DEFINITION_FORMATION_WITH_SPECIFIED_SOURCE ( 'ANY', '', #185, .NOT_KNOWN. ) ;
#270 = ADVANCED_FACE ( 'NONE', ( #296 ), #324, .F. ) ;
#271 = EDGE_CURVE ( 'NONE', #10, #8, #298, .T. ) ;
#272 = COORDINATED_UNIVERSAL_TIME_OFFSET ( 1, 0, .AHEAD. ) ;
#273 = VERTEX_POINT ( 'NONE', #318 ) ;
#274 = CARTESIAN_POINT ( 'NONE',  ( -45.00000000000001421, 44.99999999999992895, 920.0000000000000000 ) ) ;
#275 = COORDINATED_UNIVERSAL_TIME_OFFSET ( 1, 0, .AHEAD. ) ;
#276 = ORIENTED_EDGE ( 'NONE', *, *, #101, .F. ) ;
#277 = AXIS2_PLACEMENT_3D ( 'NONE', #37, #238, #148 ) ;
#278 = VECTOR ( 'NONE', #106, 1000.000000000000000 ) ;
#279 = CARTESIAN_POINT ( 'NONE',  ( 49.99999999999996447, -50.00000000000004263, 920.0000000000000000 ) ) ;
#280 = CARTESIAN_POINT ( 'NONE',  ( 49.99999999999993605, 49.99999999999993605, 920.0000000000000000 ) ) ;
#281 = PRODUCT_DEFINITION_SHAPE ( 'NONE', 'NONE',  #315 ) ;
#282 = DIRECTION ( 'NONE',  ( 0.000000000000000000, 0.000000000000000000, -1.000000000000000000 ) ) ;
#283 =( GEOMETRIC_REPRESENTATION_CONTEXT ( 3 ) GLOBAL_UNCERTAINTY_ASSIGNED_CONTEXT ( ( #98 ) ) GLOBAL_UNIT_ASSIGNED_CONTEXT ( ( #13, #217, #146 ) ) REPRESENTATION_CONTEXT ( 'NONE', 'WORKASPACE' ) );
#284 = EDGE_CURVE ( 'NONE', #216, #268, #231, .T. ) ;
#285 = CARTESIAN_POINT ( 'NONE',  ( 45.00000000000001421, -45.00000000000004263, -920.0000000000000000 ) ) ;
#286 = CARTESIAN_POINT ( 'NONE',  ( 44.99999999999995737, 44.99999999999992895, 920.0000000000000000 ) ) ;
#287 = CARTESIAN_POINT ( 'NONE',  ( 49.99999999999996447, -50.00000000000004263, -920.0000000000000000 ) ) ;
#288 = EDGE_CURVE ( 'NONE', #360, #346, #204, .T. ) ;
#289 = CARTESIAN_POINT ( 'NONE',  ( -50.00000000000004263, 49.99999999999993605, 920.0000000000000000 ) ) ;
#290 = LINE ( 'NONE', #135, #110 ) ;
#291 = PLANE ( 'NONE',  #25 ) ;
#292 = EDGE_LOOP ( 'NONE', ( #297, #40, #151, #60 ) ) ;
#293 = CARTESIAN_POINT ( 'NONE',  ( -50.00000000000004263, -50.00000000000004263, 920.0000000000000000 ) ) ;
#294 = VECTOR ( 'NONE', #143, 1000.000000000000000 ) ;
#295 = AXIS2_PLACEMENT_3D ( 'NONE', #191, #222, #47 ) ;
#296 = FACE_OUTER_BOUND ( 'NONE', #128, .T. ) ;
#297 = ORIENTED_EDGE ( 'NONE', *, *, #299, .F. ) ;
#298 = LINE ( 'NONE', #85, #194 ) ;
#299 = EDGE_CURVE ( 'NONE', #126, #268, #290, .T. ) ;
#300 = SECURITY_CLASSIFICATION_LEVEL ( 'unclassified' ) ;
#301 = DATE_AND_TIME ( #176, #206 ) ;
#302 = ORIENTED_EDGE ( 'NONE', *, *, #145, .T. ) ;
#303 = PERSON_AND_ORGANIZATION ( #353, #1 ) ;
#304 = LINE ( 'NONE', #274, #179 ) ;
#305 = DATE_AND_TIME ( #95, #367 ) ;
#306 = ORIENTED_EDGE ( 'NONE', *, *, #252, .T. ) ;
#307 = ORIENTED_EDGE ( 'NONE', *, *, #362, .T. ) ;
#308 = VECTOR ( 'NONE', #103, 1000.000000000000000 ) ;
#309 = VERTEX_POINT ( 'NONE', #30 ) ;
#310 = FACE_OUTER_BOUND ( 'NONE', #96, .T. ) ;
#311 = EDGE_CURVE ( 'NONE', #218, #64, #320, .T. ) ;
#312 = DIRECTION ( 'NONE',  ( -0.000000000000000000, -0.000000000000000000, -1.000000000000000000 ) ) ;
#313 = VECTOR ( 'NONE', #46, 1000.000000000000000 ) ;
#314 = FACE_BOUND ( 'NONE', #86, .T. ) ;
#315 = PRODUCT_DEFINITION ( 'UNKNOWN', '', #269, #322 ) ;
#316 = PLANE ( 'NONE',  #256 ) ;
#317 = LINE ( 'NONE', #251, #229 ) ;
#318 = CARTESIAN_POINT ( 'NONE',  ( -45.00000000000001421, 44.99999999999992895, -920.0000000000000000 ) ) ;
#319 = CC_DESIGN_APPROVAL ( #160, ( #269 ) ) ;
#320 = LINE ( 'NONE', #136, #168 ) ;
#321 = ORIENTED_EDGE ( 'NONE', *, *, #156, .F. ) ;
#322 = DESIGN_CONTEXT ( 'detailed design', #323, 'design' ) ;
#323 = APPLICATION_CONTEXT ( 'configuration controlled 3d designs of mechanical parts and assemblies' ) ;
#324 = PLANE ( 'NONE',  #15 ) ;
#325 = AXIS2_PLACEMENT_3D ( 'NONE', #102, #75, #129 ) ;
#326 = CARTESIAN_POINT ( 'NONE',  ( -50.00000000000004263, -50.00000000000004263, 920.0000000000000000 ) ) ;
#327 = ADVANCED_FACE ( 'NONE', ( #208, #174 ), #291, .F. ) ;
#328 = APPROVAL_ROLE ( '' ) ;
#329 = ORIENTED_EDGE ( 'NONE', *, *, #61, .F. ) ;
#330 = PERSON_AND_ORGANIZATION ( #353, #1 ) ;
#331 = CARTESIAN_POINT ( 'NONE',  ( 45.00000000000001421, -45.00000000000004263, 920.0000000000000000 ) ) ;
#332 = ORIENTED_EDGE ( 'NONE', *, *, #71, .F. ) ;
#333 = APPLICATION_CONTEXT ( 'configuration controlled 3d designs of mechanical parts and assemblies' ) ;
#334 = LINE ( 'NONE', #66, #48 ) ;
#335 = ORIENTED_EDGE ( 'NONE', *, *, #284, .F. ) ;
#336 = CARTESIAN_POINT ( 'NONE',  ( -45.00000000000001421, -45.00000000000004263, 920.0000000000000000 ) ) ;
#337 = ADVANCED_FACE ( 'NONE', ( #371 ), #107, .T. ) ;
#338 = LINE ( 'NONE', #364, #313 ) ;
#339 = CARTESIAN_POINT ( 'NONE',  ( -50.00000000000004263, 49.99999999999993605, -920.0000000000000000 ) ) ;
#340 = CC_DESIGN_PERSON_AND_ORGANIZATION_ASSIGNMENT ( #303, #200, ( #269 ) ) ;
#341 = VECTOR ( 'NONE', #6, 1000.000000000000000 ) ;
#342 = PLANE ( 'NONE',  #325 ) ;
#343 = CARTESIAN_POINT ( 'NONE',  ( 45.00000000000001421, -45.00000000000004263, 920.0000000000000000 ) ) ;
#344 = DIRECTION ( 'NONE',  ( 1.000000000000000000, 0.000000000000000000, 0.000000000000000000 ) ) ;
#345 = DIRECTION ( 'NONE',  ( -0.000000000000000000, -0.000000000000000000, -1.000000000000000000 ) ) ;
#346 = VERTEX_POINT ( 'NONE', #2 ) ;
#347 = ADVANCED_FACE ( 'NONE', ( #34 ), #55, .T. ) ;
#348 = COORDINATED_UNIVERSAL_TIME_OFFSET ( 1, 0, .AHEAD. ) ;
#349 = DIRECTION ( 'NONE',  ( -1.000000000000000000, -6.167905692361983519E-16, 0.000000000000000000 ) ) ;
#350 = EDGE_LOOP ( 'NONE', ( #220, #12, #150, #302 ) ) ;
#351 = DIRECTION ( 'NONE',  ( 0.000000000000000000, -0.000000000000000000, 1.000000000000000000 ) ) ;
#352 = CARTESIAN_POINT ( 'NONE',  ( -50.00000000000004263, -50.00000000000004263, -920.0000000000000000 ) ) ;
#353 = PERSON ( 'UNSPECIFIED', 'UNSPECIFIED', 'UNSPECIFIED', ('UNSPECIFIED'), ('UNSPECIFIED'), ('UNSPECIFIED') ) ;
#354 = ORIENTED_EDGE ( 'NONE', *, *, #199, .T. ) ;
#355 = APPROVAL_ROLE ( '' ) ;
#356 = ORIENTED_EDGE ( 'NONE', *, *, #39, .F. ) ;
#357 = PERSON_AND_ORGANIZATION_ROLE ( 'design_owner' ) ;
#358 = ORIENTED_EDGE ( 'NONE', *, *, #311, .F. ) ;
#359 = VECTOR ( 'NONE', #312, 1000.000000000000000 ) ;
#360 = VERTEX_POINT ( 'NONE', #167 ) ;
#361 = ORIENTED_EDGE ( 'NONE', *, *, #88, .F. ) ;
#362 = EDGE_CURVE ( 'NONE', #346, #309, #108, .T. ) ;
#363 = PLANE ( 'NONE',  #295 ) ;
#364 = CARTESIAN_POINT ( 'NONE',  ( 45.00000000000001421, -45.00000000000004263, 920.0000000000000000 ) ) ;
#365 = FACE_OUTER_BOUND ( 'NONE', #139, .T. ) ;
#366 = CARTESIAN_POINT ( 'NONE',  ( -50.00000000000004263, 49.99999999999993605, 920.0000000000000000 ) ) ;
#367 = LOCAL_TIME ( 13, 25, 46.00000000000000000, #272 ) ;
#368 = CLOSED_SHELL ( 'NONE', ( #327, #113, #240, #373, #270, #213, #337, #118, #347, #189 ) ) ;
#369 = LINE ( 'NONE', #225, #21 ) ;
#370 = MANIFOLD_SOLID_BREP ( 'Boss-Extrude1', #368 ) ;
#371 = FACE_OUTER_BOUND ( 'NONE', #188, .T. ) ;
#372 = CARTESIAN_POINT ( 'NONE',  ( 44.99999999999995737, 44.99999999999992895, 920.0000000000000000 ) ) ;
#373 = ADVANCED_FACE ( 'NONE', ( #33 ), #142, .F. ) ;
ENDSEC;
END-ISO-10303-21;
