ISO-10303-21;
HEADER;
FILE_DESCRIPTION (( 'STEP AP203' ),
    '1' );
FILE_NAME ('Base_profil_base_support_2_Default_sldprt.STEP',
    '2026-01-28T12:25:42',
    ( '' ),
    ( '' ),
    'SwSTEP 2.0',
    'SolidWorks 2024',
    '' );
FILE_SCHEMA (( 'CONFIG_CONTROL_DESIGN' ));
ENDSEC;

DATA;
#1 = CC_DESIGN_APPROVAL ( #332, ( #41 ) ) ;
#2 = APPROVAL_DATE_TIME ( #30, #332 ) ;
#3 = CARTESIAN_POINT ( 'NONE',  ( -45.00000000000001421, 44.99999999999992895, -187.5000000000000000 ) ) ;
#4 = APPROVAL_STATUS ( 'not_yet_approved' ) ;
#5 = CARTESIAN_POINT ( 'NONE',  ( 45.00000000000001421, -45.00000000000004263, -187.5000000000000000 ) ) ;
#6 = VECTOR ( 'NONE', #99, 1000.000000000000000 ) ;
#7 = ORIENTED_EDGE ( 'NONE', *, *, #169, .T. ) ;
#8 = ORIENTED_EDGE ( 'NONE', *, *, #222, .T. ) ;
#9 = DIRECTION ( 'NONE',  ( 0.000000000000000000, 1.000000000000000000, 0.000000000000000000 ) ) ;
#10 = VECTOR ( 'NONE', #53, 1000.000000000000000 ) ;
#11 = PLANE ( 'NONE',  #16 ) ;
#12 = CC_DESIGN_PERSON_AND_ORGANIZATION_ASSIGNMENT ( #232, #88, ( #206 ) ) ;
#13 = DIRECTION ( 'NONE',  ( 0.000000000000000000, -0.000000000000000000, 1.000000000000000000 ) ) ;
#14 = DIRECTION ( 'NONE',  ( -1.000000000000000000, -0.000000000000000000, -0.000000000000000000 ) ) ;
#15 = CARTESIAN_POINT ( 'NONE',  ( 45.00000000000001421, -45.00000000000004263, -187.5000000000000000 ) ) ;
#16 = AXIS2_PLACEMENT_3D ( 'NONE', #17, #72, #104 ) ;
#17 = CARTESIAN_POINT ( 'NONE',  ( 49.99999999999996447, -50.00000000000004263, 187.5000000000000000 ) ) ;
#18 = FACE_BOUND ( 'NONE', #313, .T. ) ;
#19 = CARTESIAN_POINT ( 'NONE',  ( 0.000000000000000000, 0.000000000000000000, -187.5000000000000000 ) ) ;
#20 = ORIENTED_EDGE ( 'NONE', *, *, #183, .T. ) ;
#21 = DIRECTION ( 'NONE',  ( 1.000000000000000000, 0.000000000000000000, 0.000000000000000000 ) ) ;
#22 = DIRECTION ( 'NONE',  ( -1.000000000000000000, 0.000000000000000000, -0.000000000000000000 ) ) ;
#23 = COORDINATED_UNIVERSAL_TIME_OFFSET ( 1, 0, .AHEAD. ) ;
#24 = ORIENTED_EDGE ( 'NONE', *, *, #248, .F. ) ;
#25 = DIRECTION ( 'NONE',  ( 1.000000000000000000, 0.000000000000000000, 0.000000000000000000 ) ) ;
#26 = VECTOR ( 'NONE', #51, 1000.000000000000000 ) ;
#27 = APPLICATION_CONTEXT ( 'configuration controlled 3d designs of mechanical parts and assemblies' ) ;
#28 = APPROVAL_STATUS ( 'not_yet_approved' ) ;
#29 = VERTEX_POINT ( 'NONE', #5 ) ;
#30 = DATE_AND_TIME ( #299, #123 ) ;
#31 = VERTEX_POINT ( 'NONE', #3 ) ;
#32 = PERSON_AND_ORGANIZATION ( #328, #128 ) ;
#33 = ORIENTED_EDGE ( 'NONE', *, *, #80, .T. ) ;
#34 = DESIGN_CONTEXT ( 'detailed design', #100, 'design' ) ;
#35 = SHAPE_DEFINITION_REPRESENTATION ( #103, #159 ) ;
#36 = VERTEX_POINT ( 'NONE', #238 ) ;
#37 = EDGE_CURVE ( 'NONE', #152, #97, #352, .T. ) ;
#38 = CC_DESIGN_PERSON_AND_ORGANIZATION_ASSIGNMENT ( #59, #179, ( #206 ) ) ;
#39 = APPROVAL_PERSON_ORGANIZATION ( #147, #107, #296 ) ;
#40 = LINE ( 'NONE', #155, #237 ) ;
#41 = SECURITY_CLASSIFICATION ( '', '', #348 ) ;
#42 = LINE ( 'NONE', #157, #336 ) ;
#43 = ADVANCED_FACE ( 'NONE', ( #213 ), #181, .T. ) ;
#44 = CARTESIAN_POINT ( 'NONE',  ( -50.00000000000004263, -50.00000000000004263, 187.5000000000000000 ) ) ;
#45 = EDGE_CURVE ( 'NONE', #148, #166, #269, .T. ) ;
#46 = DIRECTION ( 'NONE',  ( 0.000000000000000000, -0.000000000000000000, -1.000000000000000000 ) ) ;
#47 = APPROVAL_PERSON_ORGANIZATION ( #209, #347, #64 ) ;
#48 = CARTESIAN_POINT ( 'NONE',  ( -45.00000000000001421, 44.99999999999992895, 187.5000000000000000 ) ) ;
#49 = CARTESIAN_POINT ( 'NONE',  ( -50.00000000000004263, 49.99999999999993605, 187.5000000000000000 ) ) ;
#50 = CARTESIAN_POINT ( 'NONE',  ( -45.00000000000001421, -45.00000000000004263, -187.5000000000000000 ) ) ;
#51 = DIRECTION ( 'NONE',  ( -1.000000000000000000, -0.000000000000000000, -0.000000000000000000 ) ) ;
#52 = ADVANCED_FACE ( 'NONE', ( #323 ), #153, .T. ) ;
#53 = DIRECTION ( 'NONE',  ( -0.000000000000000000, -0.000000000000000000, -1.000000000000000000 ) ) ;
#54 = ORIENTED_EDGE ( 'NONE', *, *, #96, .T. ) ;
#55 = CARTESIAN_POINT ( 'NONE',  ( -50.00000000000004263, -50.00000000000004263, 187.5000000000000000 ) ) ;
#56 = ORIENTED_EDGE ( 'NONE', *, *, #80, .F. ) ;
#57 = ORIENTED_EDGE ( 'NONE', *, *, #183, .F. ) ;
#58 = DIRECTION ( 'NONE',  ( -0.000000000000000000, -0.000000000000000000, -1.000000000000000000 ) ) ;
#59 = PERSON_AND_ORGANIZATION ( #328, #128 ) ;
#60 = ORIENTED_EDGE ( 'NONE', *, *, #45, .T. ) ;
#61 = PERSON_AND_ORGANIZATION ( #328, #128 ) ;
#62 = ORIENTED_EDGE ( 'NONE', *, *, #187, .T. ) ;
#63 = VECTOR ( 'NONE', #302, 1000.000000000000000 ) ;
#64 = APPROVAL_ROLE ( '' ) ;
#65 = CARTESIAN_POINT ( 'NONE',  ( -50.00000000000004263, -50.00000000000004263, -187.5000000000000000 ) ) ;
#66 = COORDINATED_UNIVERSAL_TIME_OFFSET ( 1, 0, .AHEAD. ) ;
#67 = DIRECTION ( 'NONE',  ( -2.775557561562891844E-16, 1.000000000000000000, 0.000000000000000000 ) ) ;
#68 = CARTESIAN_POINT ( 'NONE',  ( -45.00000000000001421, -45.00000000000004263, 187.5000000000000000 ) ) ;
#69 = VECTOR ( 'NONE', #279, 1000.000000000000000 ) ;
#70 = DIRECTION ( 'NONE',  ( -0.000000000000000000, -1.000000000000000000, -0.000000000000000000 ) ) ;
#71 = CARTESIAN_POINT ( 'NONE',  ( 49.99999999999996447, -50.00000000000004263, 187.5000000000000000 ) ) ;
#72 = DIRECTION ( 'NONE',  ( -1.000000000000000000, -2.775557561562891844E-16, 0.000000000000000000 ) ) ;
#73 = LINE ( 'NONE', #48, #262 ) ;
#74 = EDGE_CURVE ( 'NONE', #152, #256, #300, .T. ) ;
#75 = LINE ( 'NONE', #15, #160 ) ;
#76 = FACE_OUTER_BOUND ( 'NONE', #235, .T. ) ;
#77 = VECTOR ( 'NONE', #70, 1000.000000000000000 ) ;
#78 = PLANE ( 'NONE',  #267 ) ;
#79 = CARTESIAN_POINT ( 'NONE',  ( -50.00000000000004263, 49.99999999999993605, 187.5000000000000000 ) ) ;
#80 = EDGE_CURVE ( 'NONE', #166, #241, #40, .T. ) ;
#81 = ORIENTED_EDGE ( 'NONE', *, *, #314, .F. ) ;
#82 = LINE ( 'NONE', #226, #293 ) ;
#83 = ORIENTED_EDGE ( 'NONE', *, *, #222, .F. ) ;
#84 = LINE ( 'NONE', #192, #319 ) ;
#85 = ORIENTED_EDGE ( 'NONE', *, *, #314, .T. ) ;
#86 = LOCAL_TIME ( 13, 25, 42.00000000000000000, #23 ) ;
#87 = DIRECTION ( 'NONE',  ( 0.000000000000000000, 0.000000000000000000, 1.000000000000000000 ) ) ;
#88 = PERSON_AND_ORGANIZATION_ROLE ( 'creator' ) ;
#89 = ORIENTED_EDGE ( 'NONE', *, *, #37, .F. ) ;
#90 = PRODUCT_DEFINITION ( 'UNKNOWN', '', #206, #34 ) ;
#91 = APPLICATION_PROTOCOL_DEFINITION ( 'international standard', 'config_control_design', 1994, #100 ) ;
#92 = EDGE_LOOP ( 'NONE', ( #292, #171, #89, #318 ) ) ;
#93 = CALENDAR_DATE ( 2026, 28, 1 ) ;
#94 = CARTESIAN_POINT ( 'NONE',  ( 49.99999999999996447, -50.00000000000004263, 187.5000000000000000 ) ) ;
#95 = VECTOR ( 'NONE', #329, 1000.000000000000000 ) ;
#96 = EDGE_CURVE ( 'NONE', #284, #130, #355, .T. ) ;
#97 = VERTEX_POINT ( 'NONE', #301 ) ;
#98 = DATE_AND_TIME ( #93, #244 ) ;
#99 = DIRECTION ( 'NONE',  ( 1.000000000000000000, 0.000000000000000000, 0.000000000000000000 ) ) ;
#100 = APPLICATION_CONTEXT ( 'configuration controlled 3d designs of mechanical parts and assemblies' ) ;
#101 = EDGE_LOOP ( 'NONE', ( #205, #366, #194, #145 ) ) ;
#102 = DIRECTION ( 'NONE',  ( 1.000000000000000000, 0.000000000000000000, 0.000000000000000000 ) ) ;
#103 = PRODUCT_DEFINITION_SHAPE ( 'NONE', 'NONE',  #90 ) ;
#104 = DIRECTION ( 'NONE',  ( 2.775557561562891844E-16, -1.000000000000000000, 0.000000000000000000 ) ) ;
#105 = LINE ( 'NONE', #49, #118 ) ;
#106 = LINE ( 'NONE', #333, #176 ) ;
#107 = APPROVAL ( #316, 'UNSPECIFIED' ) ;
#108 = PRODUCT ( 'Base_profil_base_support_2_Default_sldprt', 'Base_profil_base_support_2_Default_sldprt', '', ( #373 ) ) ;
#109 = LINE ( 'NONE', #245, #218 ) ;
#110 = DIRECTION ( 'NONE',  ( 0.000000000000000000, 0.000000000000000000, -1.000000000000000000 ) ) ;
#111 = EDGE_CURVE ( 'NONE', #353, #29, #42, .T. ) ;
#112 = ADVANCED_FACE ( 'NONE', ( #132 ), #243, .F. ) ;
#113 = DIRECTION ( 'NONE',  ( -1.000000000000000000, -0.000000000000000000, -0.000000000000000000 ) ) ;
#114 = CLOSED_SHELL ( 'NONE', ( #150, #282, #112, #250, #168, #356, #52, #43, #253, #125 ) ) ;
#115 = EDGE_LOOP ( 'NONE', ( #266, #81, #60, #297 ) ) ;
#116 = LINE ( 'NONE', #167, #26 ) ;
#117 = DIRECTION ( 'NONE',  ( 0.000000000000000000, 0.000000000000000000, -1.000000000000000000 ) ) ;
#118 = VECTOR ( 'NONE', #188, 1000.000000000000000 ) ;
#119 = ORIENTED_EDGE ( 'NONE', *, *, #320, .T. ) ;
#120 = LOCAL_TIME ( 13, 25, 42.00000000000000000, #294 ) ;
#121 = PERSON_AND_ORGANIZATION ( #328, #128 ) ;
#122 = EDGE_LOOP ( 'NONE', ( #325, #326, #124, #254 ) ) ;
#123 = LOCAL_TIME ( 13, 25, 42.00000000000000000, #66 ) ;
#124 = ORIENTED_EDGE ( 'NONE', *, *, #367, .F. ) ;
#125 = ADVANCED_FACE ( 'NONE', ( #76 ), #309, .T. ) ;
#126 = ORIENTED_EDGE ( 'NONE', *, *, #74, .F. ) ;
#127 = VECTOR ( 'NONE', #251, 1000.000000000000000 ) ;
#128 = ORGANIZATION ( 'UNSPECIFIED', 'UNSPECIFIED', '' ) ;
#129 = APPROVAL_DATE_TIME ( #201, #107 ) ;
#130 = VERTEX_POINT ( 'NONE', #364 ) ;
#131 = DIRECTION ( 'NONE',  ( 0.000000000000000000, 0.000000000000000000, -1.000000000000000000 ) ) ;
#132 = FACE_OUTER_BOUND ( 'NONE', #315, .T. ) ;
#133 = AXIS2_PLACEMENT_3D ( 'NONE', #358, #102, #214 ) ;
#134 = DIRECTION ( 'NONE',  ( -6.167905692361983519E-16, 1.000000000000000000, 0.000000000000000000 ) ) ;
#135 = CC_DESIGN_SECURITY_CLASSIFICATION ( #41, ( #206 ) ) ;
#136 = CARTESIAN_POINT ( 'NONE',  ( 0.000000000000000000, 0.000000000000000000, 187.5000000000000000 ) ) ;
#137 = PLANE ( 'NONE',  #138 ) ;
#138 = AXIS2_PLACEMENT_3D ( 'NONE', #136, #110, #363 ) ;
#139 = CARTESIAN_POINT ( 'NONE',  ( 45.00000000000001421, -45.00000000000004263, 187.5000000000000000 ) ) ;
#140 = LINE ( 'NONE', #274, #63 ) ;
#141 = DIRECTION ( 'NONE',  ( 1.000000000000000000, 0.000000000000000000, 0.000000000000000000 ) ) ;
#142 = ORIENTED_EDGE ( 'NONE', *, *, #360, .T. ) ;
#143 = VECTOR ( 'NONE', #67, 1000.000000000000000 ) ;
#144 = LINE ( 'NONE', #55, #212 ) ;
#145 = ORIENTED_EDGE ( 'NONE', *, *, #367, .T. ) ;
#146 = COORDINATED_UNIVERSAL_TIME_OFFSET ( 1, 0, .AHEAD. ) ;
#147 = PERSON_AND_ORGANIZATION ( #328, #128 ) ;
#148 = VERTEX_POINT ( 'NONE', #164 ) ;
#149 = EDGE_LOOP ( 'NONE', ( #119, #126, #184, #180 ) ) ;
#150 = ADVANCED_FACE ( 'NONE', ( #305, #221 ), #137, .F. ) ;
#151 = PERSON_AND_ORGANIZATION_ROLE ( 'classification_officer' ) ;
#152 = VERTEX_POINT ( 'NONE', #217 ) ;
#153 = PLANE ( 'NONE',  #154 ) ;
#154 = AXIS2_PLACEMENT_3D ( 'NONE', #68, #182, #131 ) ;
#155 = CARTESIAN_POINT ( 'NONE',  ( 45.00000000000001421, -45.00000000000004263, 187.5000000000000000 ) ) ;
#156 = CC_DESIGN_PERSON_AND_ORGANIZATION_ASSIGNMENT ( #121, #234, ( #108 ) ) ;
#157 = CARTESIAN_POINT ( 'NONE',  ( -45.00000000000001421, -45.00000000000004263, -187.5000000000000000 ) ) ;
#158 = CARTESIAN_POINT ( 'NONE',  ( 45.00000000000001421, -45.00000000000004263, 187.5000000000000000 ) ) ;
#159 = ADVANCED_BREP_SHAPE_REPRESENTATION ( 'Base_profil_base_support_2_Default_sldprt', ( #189, #337 ), #219 ) ;
#160 = VECTOR ( 'NONE', #134, 1000.000000000000000 ) ;
#161 = CARTESIAN_POINT ( 'NONE',  ( -50.00000000000004263, 49.99999999999993605, 187.5000000000000000 ) ) ;
#162 = DIRECTION ( 'NONE',  ( -0.000000000000000000, -1.000000000000000000, -0.000000000000000000 ) ) ;
#163 = LINE ( 'NONE', #249, #127 ) ;
#164 = CARTESIAN_POINT ( 'NONE',  ( -45.00000000000001421, -45.00000000000004263, 187.5000000000000000 ) ) ;
#165 = LINE ( 'NONE', #172, #225 ) ;
#166 = VERTEX_POINT ( 'NONE', #139 ) ;
#167 = CARTESIAN_POINT ( 'NONE',  ( -45.00000000000001421, 44.99999999999992895, -187.5000000000000000 ) ) ;
#168 = ADVANCED_FACE ( 'NONE', ( #362 ), #11, .F. ) ;
#169 = EDGE_CURVE ( 'NONE', #241, #346, #303, .T. ) ;
#170 = PLANE ( 'NONE',  #357 ) ;
#171 = ORIENTED_EDGE ( 'NONE', *, *, #290, .F. ) ;
#172 = CARTESIAN_POINT ( 'NONE',  ( -50.00000000000004263, -50.00000000000004263, 187.5000000000000000 ) ) ;
#173 = CALENDAR_DATE ( 2026, 28, 1 ) ;
#174 = ORIENTED_EDGE ( 'NONE', *, *, #187, .F. ) ;
#175 = AXIS2_PLACEMENT_3D ( 'NONE', #158, #361, #330 ) ;
#176 = VECTOR ( 'NONE', #162, 1000.000000000000000 ) ;
#177 = APPROVAL_ROLE ( '' ) ;
#178 = VERTEX_POINT ( 'NONE', #161 ) ;
#179 = PERSON_AND_ORGANIZATION_ROLE ( 'design_supplier' ) ;
#180 = ORIENTED_EDGE ( 'NONE', *, *, #342, .T. ) ;
#181 = PLANE ( 'NONE',  #350 ) ;
#182 = DIRECTION ( 'NONE',  ( 1.000000000000000000, 0.000000000000000000, 0.000000000000000000 ) ) ;
#183 = EDGE_CURVE ( 'NONE', #31, #353, #224, .T. ) ;
#184 = ORIENTED_EDGE ( 'NONE', *, *, #354, .F. ) ;
#185 = DIRECTION ( 'NONE',  ( 0.000000000000000000, -0.000000000000000000, 1.000000000000000000 ) ) ;
#186 = DIRECTION ( 'NONE',  ( 0.000000000000000000, -1.000000000000000000, 0.000000000000000000 ) ) ;
#187 = EDGE_CURVE ( 'NONE', #341, #148, #106, .T. ) ;
#188 = DIRECTION ( 'NONE',  ( -0.000000000000000000, -0.000000000000000000, -1.000000000000000000 ) ) ;
#189 = MANIFOLD_SOLID_BREP ( 'Boss-Extrude1', #114 ) ;
#190 = CARTESIAN_POINT ( 'NONE',  ( 44.99999999999995737, 44.99999999999992895, 187.5000000000000000 ) ) ;
#191 = PLANE ( 'NONE',  #175 ) ;
#192 = CARTESIAN_POINT ( 'NONE',  ( -50.00000000000004263, -50.00000000000004263, -187.5000000000000000 ) ) ;
#193 = FACE_OUTER_BOUND ( 'NONE', #196, .T. ) ;
#194 = ORIENTED_EDGE ( 'NONE', *, *, #37, .T. ) ;
#195 = CARTESIAN_POINT ( 'NONE',  ( 49.99999999999993605, 49.99999999999993605, 187.5000000000000000 ) ) ;
#196 = EDGE_LOOP ( 'NONE', ( #258, #263, #339, #345 ) ) ;
#197 = LINE ( 'NONE', #195, #10 ) ;
#198 = CARTESIAN_POINT ( 'NONE',  ( -50.00000000000004263, 49.99999999999993605, 187.5000000000000000 ) ) ;
#199 = CALENDAR_DATE ( 2026, 28, 1 ) ;
#200 = ORIENTED_EDGE ( 'NONE', *, *, #215, .F. ) ;
#201 = DATE_AND_TIME ( #199, #86 ) ;
#202 = ORIENTED_EDGE ( 'NONE', *, *, #342, .F. ) ;
#203 = VECTOR ( 'NONE', #272, 1000.000000000000000 ) ;
#204 = PERSON_AND_ORGANIZATION ( #328, #128 ) ;
#205 = ORIENTED_EDGE ( 'NONE', *, *, #239, .T. ) ;
#206 = PRODUCT_DEFINITION_FORMATION_WITH_SPECIFIED_SOURCE ( 'ANY', '', #108, .NOT_KNOWN. ) ;
#207 = ORIENTED_EDGE ( 'NONE', *, *, #45, .F. ) ;
#208 = EDGE_CURVE ( 'NONE', #178, #284, #105, .T. ) ;
#209 = PERSON_AND_ORGANIZATION ( #328, #128 ) ;
#210 = ORIENTED_EDGE ( 'NONE', *, *, #248, .T. ) ;
#211 = CC_DESIGN_DATE_AND_TIME_ASSIGNMENT ( #265, #291, ( #41 ) ) ;
#212 = VECTOR ( 'NONE', #141, 1000.000000000000000 ) ;
#213 = FACE_OUTER_BOUND ( 'NONE', #115, .T. ) ;
#214 = DIRECTION ( 'NONE',  ( 0.000000000000000000, 0.000000000000000000, -1.000000000000000000 ) ) ;
#215 = EDGE_CURVE ( 'NONE', #166, #29, #140, .T. ) ;
#216 = FACE_OUTER_BOUND ( 'NONE', #261, .T. ) ;
#217 = CARTESIAN_POINT ( 'NONE',  ( 49.99999999999996447, -50.00000000000004263, 187.5000000000000000 ) ) ;
#218 = VECTOR ( 'NONE', #223, 1000.000000000000000 ) ;
#219 =( GEOMETRIC_REPRESENTATION_CONTEXT ( 3 ) GLOBAL_UNCERTAINTY_ASSIGNED_CONTEXT ( ( #372 ) ) GLOBAL_UNIT_ASSIGNED_CONTEXT ( ( #283, #257, #255 ) ) REPRESENTATION_CONTEXT ( 'NONE', 'WORKASPACE' ) );
#220 = CC_DESIGN_APPROVAL ( #347, ( #206 ) ) ;
#221 = FACE_BOUND ( 'NONE', #287, .T. ) ;
#222 = EDGE_CURVE ( 'NONE', #29, #346, #75, .T. ) ;
#223 = DIRECTION ( 'NONE',  ( -0.000000000000000000, -0.000000000000000000, -1.000000000000000000 ) ) ;
#224 = LINE ( 'NONE', #50, #277 ) ;
#225 = VECTOR ( 'NONE', #285, 1000.000000000000000 ) ;
#226 = CARTESIAN_POINT ( 'NONE',  ( 49.99999999999996447, -50.00000000000004263, -187.5000000000000000 ) ) ;
#227 = ORIENTED_EDGE ( 'NONE', *, *, #239, .F. ) ;
#228 = CC_DESIGN_PERSON_AND_ORGANIZATION_ASSIGNMENT ( #204, #344, ( #90 ) ) ;
#229 = VERTEX_POINT ( 'NONE', #44 ) ;
#230 = CARTESIAN_POINT ( 'NONE',  ( -45.00000000000001421, 44.99999999999992895, 187.5000000000000000 ) ) ;
#231 = CARTESIAN_POINT ( 'NONE',  ( 0.000000000000000000, 0.000000000000000000, 0.000000000000000000 ) ) ;
#232 = PERSON_AND_ORGANIZATION ( #328, #128 ) ;
#233 = ORIENTED_EDGE ( 'NONE', *, *, #360, .F. ) ;
#234 = PERSON_AND_ORGANIZATION_ROLE ( 'design_owner' ) ;
#235 = EDGE_LOOP ( 'NONE', ( #233, #371, #327, #210 ) ) ;
#236 = CARTESIAN_POINT ( 'NONE',  ( -45.00000000000001421, -45.00000000000004263, 187.5000000000000000 ) ) ;
#237 = VECTOR ( 'NONE', #242, 1000.000000000000000 ) ;
#238 = CARTESIAN_POINT ( 'NONE',  ( 49.99999999999993605, 49.99999999999993605, -187.5000000000000000 ) ) ;
#239 = EDGE_CURVE ( 'NONE', #178, #229, #276, .T. ) ;
#240 = EDGE_CURVE ( 'NONE', #36, #284, #163, .T. ) ;
#241 = VERTEX_POINT ( 'NONE', #335 ) ;
#242 = DIRECTION ( 'NONE',  ( -6.167905692361983519E-16, 1.000000000000000000, 0.000000000000000000 ) ) ;
#243 = PLANE ( 'NONE',  #133 ) ;
#244 = LOCAL_TIME ( 13, 25, 42.00000000000000000, #351 ) ;
#245 = CARTESIAN_POINT ( 'NONE',  ( -45.00000000000001421, 44.99999999999992895, 187.5000000000000000 ) ) ;
#246 = DIRECTION ( 'NONE',  ( 0.000000000000000000, 1.000000000000000000, 0.000000000000000000 ) ) ;
#247 = CARTESIAN_POINT ( 'NONE',  ( -50.00000000000004263, -50.00000000000004263, 187.5000000000000000 ) ) ;
#248 = EDGE_CURVE ( 'NONE', #341, #31, #109, .T. ) ;
#249 = CARTESIAN_POINT ( 'NONE',  ( -50.00000000000004263, 49.99999999999993605, -187.5000000000000000 ) ) ;
#250 = ADVANCED_FACE ( 'NONE', ( #334 ), #78, .F. ) ;
#251 = DIRECTION ( 'NONE',  ( -1.000000000000000000, -0.000000000000000000, -0.000000000000000000 ) ) ;
#252 = DIRECTION ( 'NONE',  ( 0.000000000000000000, -1.000000000000000000, 0.000000000000000000 ) ) ;
#253 = ADVANCED_FACE ( 'NONE', ( #216 ), #191, .T. ) ;
#254 = ORIENTED_EDGE ( 'NONE', *, *, #290, .T. ) ;
#255 =( NAMED_UNIT ( * ) SI_UNIT ( $, .STERADIAN. ) SOLID_ANGLE_UNIT ( ) );
#256 = VERTEX_POINT ( 'NONE', #331 ) ;
#257 =( NAMED_UNIT ( * ) PLANE_ANGLE_UNIT ( ) SI_UNIT ( $, .RADIAN. ) );
#258 = ORIENTED_EDGE ( 'NONE', *, *, #96, .F. ) ;
#259 = LINE ( 'NONE', #198, #271 ) ;
#260 = DATE_AND_TIME ( #317, #278 ) ;
#261 = EDGE_LOOP ( 'NONE', ( #83, #200, #33, #7 ) ) ;
#262 = VECTOR ( 'NONE', #14, 1000.000000000000000 ) ;
#263 = ORIENTED_EDGE ( 'NONE', *, *, #240, .F. ) ;
#264 = ORIENTED_EDGE ( 'NONE', *, *, #111, .T. ) ;
#265 = DATE_AND_TIME ( #173, #120 ) ;
#266 = ORIENTED_EDGE ( 'NONE', *, *, #111, .F. ) ;
#267 = AXIS2_PLACEMENT_3D ( 'NONE', #247, #246, #13 ) ;
#268 = EDGE_LOOP ( 'NONE', ( #57, #24, #62, #85 ) ) ;
#269 = LINE ( 'NONE', #236, #6 ) ;
#270 = DIRECTION ( 'NONE',  ( 1.000000000000000000, 0.000000000000000000, 0.000000000000000000 ) ) ;
#271 = VECTOR ( 'NONE', #113, 1000.000000000000000 ) ;
#272 = DIRECTION ( 'NONE',  ( -0.000000000000000000, -1.000000000000000000, -0.000000000000000000 ) ) ;
#273 = CARTESIAN_POINT ( 'NONE',  ( -50.00000000000004263, -50.00000000000004263, 187.5000000000000000 ) ) ;
#274 = CARTESIAN_POINT ( 'NONE',  ( 45.00000000000001421, -45.00000000000004263, 187.5000000000000000 ) ) ;
#275 = EDGE_CURVE ( 'NONE', #241, #341, #73, .T. ) ;
#276 = LINE ( 'NONE', #273, #203 ) ;
#277 = VECTOR ( 'NONE', #307, 1000.000000000000000 ) ;
#278 = LOCAL_TIME ( 13, 25, 42.00000000000000000, #146 ) ;
#279 = DIRECTION ( 'NONE',  ( -0.000000000000000000, -0.000000000000000000, -1.000000000000000000 ) ) ;
#280 = APPROVAL_PERSON_ORGANIZATION ( #61, #332, #177 ) ;
#281 = CARTESIAN_POINT ( 'NONE',  ( -45.00000000000001421, -45.00000000000004263, -187.5000000000000000 ) ) ;
#282 = ADVANCED_FACE ( 'NONE', ( #193, #18 ), #368, .T. ) ;
#283 =( LENGTH_UNIT ( ) NAMED_UNIT ( * ) SI_UNIT ( .MILLI., .METRE. ) );
#284 = VERTEX_POINT ( 'NONE', #369 ) ;
#285 = DIRECTION ( 'NONE',  ( -0.000000000000000000, -0.000000000000000000, -1.000000000000000000 ) ) ;
#286 = APPLICATION_PROTOCOL_DEFINITION ( 'international standard', 'config_control_design', 1994, #27 ) ;
#287 = EDGE_LOOP ( 'NONE', ( #174, #311, #56, #207 ) ) ;
#288 = EDGE_CURVE ( 'NONE', #256, #36, #82, .T. ) ;
#289 = DIRECTION ( 'NONE',  ( -2.775557561562891844E-16, 1.000000000000000000, 0.000000000000000000 ) ) ;
#290 = EDGE_CURVE ( 'NONE', #97, #36, #197, .T. ) ;
#291 = DATE_TIME_ROLE ( 'classification_date' ) ;
#292 = ORIENTED_EDGE ( 'NONE', *, *, #288, .T. ) ;
#293 = VECTOR ( 'NONE', #289, 1000.000000000000000 ) ;
#294 = COORDINATED_UNIVERSAL_TIME_OFFSET ( 1, 0, .AHEAD. ) ;
#295 = ORIENTED_EDGE ( 'NONE', *, *, #208, .T. ) ;
#296 = APPROVAL_ROLE ( '' ) ;
#297 = ORIENTED_EDGE ( 'NONE', *, *, #215, .T. ) ;
#298 = CC_DESIGN_DATE_AND_TIME_ASSIGNMENT ( #98, #321, ( #90 ) ) ;
#299 = CALENDAR_DATE ( 2026, 28, 1 ) ;
#300 = LINE ( 'NONE', #94, #95 ) ;
#301 = CARTESIAN_POINT ( 'NONE',  ( 49.99999999999993605, 49.99999999999993605, 187.5000000000000000 ) ) ;
#302 = DIRECTION ( 'NONE',  ( -0.000000000000000000, -0.000000000000000000, -1.000000000000000000 ) ) ;
#303 = LINE ( 'NONE', #190, #69 ) ;
#304 = AXIS2_PLACEMENT_3D ( 'NONE', #359, #186, #46 ) ;
#305 = FACE_OUTER_BOUND ( 'NONE', #101, .T. ) ;
#306 = CC_DESIGN_PERSON_AND_ORGANIZATION_ASSIGNMENT ( #32, #151, ( #41 ) ) ;
#307 = DIRECTION ( 'NONE',  ( -0.000000000000000000, -1.000000000000000000, -0.000000000000000000 ) ) ;
#308 = VECTOR ( 'NONE', #58, 1000.000000000000000 ) ;
#309 = PLANE ( 'NONE',  #304 ) ;
#310 = DIRECTION ( 'NONE',  ( 0.000000000000000000, -0.000000000000000000, -1.000000000000000000 ) ) ;
#311 = ORIENTED_EDGE ( 'NONE', *, *, #275, .F. ) ;
#312 = CARTESIAN_POINT ( 'NONE',  ( 44.99999999999995737, 44.99999999999992895, -187.5000000000000000 ) ) ;
#313 = EDGE_LOOP ( 'NONE', ( #142, #20, #264, #8 ) ) ;
#314 = EDGE_CURVE ( 'NONE', #148, #353, #338, .T. ) ;
#315 = EDGE_LOOP ( 'NONE', ( #54, #202, #227, #295 ) ) ;
#316 = APPROVAL_STATUS ( 'not_yet_approved' ) ;
#317 = CALENDAR_DATE ( 2026, 28, 1 ) ;
#318 = ORIENTED_EDGE ( 'NONE', *, *, #74, .T. ) ;
#319 = VECTOR ( 'NONE', #21, 1000.000000000000000 ) ;
#320 = EDGE_CURVE ( 'NONE', #130, #256, #84, .T. ) ;
#321 = DATE_TIME_ROLE ( 'creation_date' ) ;
#322 = PRODUCT_RELATED_PRODUCT_CATEGORY ( 'detail', '', ( #108 ) ) ;
#323 = FACE_OUTER_BOUND ( 'NONE', #268, .T. ) ;
#324 = APPROVAL_DATE_TIME ( #260, #347 ) ;
#325 = ORIENTED_EDGE ( 'NONE', *, *, #240, .T. ) ;
#326 = ORIENTED_EDGE ( 'NONE', *, *, #208, .F. ) ;
#327 = ORIENTED_EDGE ( 'NONE', *, *, #275, .T. ) ;
#328 = PERSON ( 'UNSPECIFIED', 'UNSPECIFIED', 'UNSPECIFIED', ('UNSPECIFIED'), ('UNSPECIFIED'), ('UNSPECIFIED') ) ;
#329 = DIRECTION ( 'NONE',  ( -0.000000000000000000, -0.000000000000000000, -1.000000000000000000 ) ) ;
#330 = DIRECTION ( 'NONE',  ( 6.167905692361983519E-16, -1.000000000000000000, 0.000000000000000000 ) ) ;
#331 = CARTESIAN_POINT ( 'NONE',  ( 49.99999999999996447, -50.00000000000004263, -187.5000000000000000 ) ) ;
#332 = APPROVAL ( #4, 'UNSPECIFIED' ) ;
#333 = CARTESIAN_POINT ( 'NONE',  ( -45.00000000000001421, -45.00000000000004263, 187.5000000000000000 ) ) ;
#334 = FACE_OUTER_BOUND ( 'NONE', #149, .T. ) ;
#335 = CARTESIAN_POINT ( 'NONE',  ( 44.99999999999995737, 44.99999999999992895, 187.5000000000000000 ) ) ;
#336 = VECTOR ( 'NONE', #270, 1000.000000000000000 ) ;
#337 = AXIS2_PLACEMENT_3D ( 'NONE', #231, #87, #25 ) ;
#338 = LINE ( 'NONE', #365, #308 ) ;
#339 = ORIENTED_EDGE ( 'NONE', *, *, #288, .F. ) ;
#340 = FACE_OUTER_BOUND ( 'NONE', #122, .T. ) ;
#341 = VERTEX_POINT ( 'NONE', #230 ) ;
#342 = EDGE_CURVE ( 'NONE', #229, #130, #165, .T. ) ;
#343 = CC_DESIGN_APPROVAL ( #107, ( #90 ) ) ;
#344 = PERSON_AND_ORGANIZATION_ROLE ( 'creator' ) ;
#345 = ORIENTED_EDGE ( 'NONE', *, *, #320, .F. ) ;
#346 = VERTEX_POINT ( 'NONE', #312 ) ;
#347 = APPROVAL ( #28, 'UNSPECIFIED' ) ;
#348 = SECURITY_CLASSIFICATION_LEVEL ( 'unclassified' ) ;
#349 = CARTESIAN_POINT ( 'NONE',  ( -45.00000000000001421, -45.00000000000004263, 187.5000000000000000 ) ) ;
#350 = AXIS2_PLACEMENT_3D ( 'NONE', #349, #9, #185 ) ;
#351 = COORDINATED_UNIVERSAL_TIME_OFFSET ( 1, 0, .AHEAD. ) ;
#352 = LINE ( 'NONE', #71, #143 ) ;
#353 = VERTEX_POINT ( 'NONE', #281 ) ;
#354 = EDGE_CURVE ( 'NONE', #229, #152, #144, .T. ) ;
#355 = LINE ( 'NONE', #65, #77 ) ;
#356 = ADVANCED_FACE ( 'NONE', ( #340 ), #170, .F. ) ;
#357 = AXIS2_PLACEMENT_3D ( 'NONE', #79, #252, #310 ) ;
#358 = CARTESIAN_POINT ( 'NONE',  ( -50.00000000000004263, -50.00000000000004263, 187.5000000000000000 ) ) ;
#359 = CARTESIAN_POINT ( 'NONE',  ( -45.00000000000001421, 44.99999999999992895, 187.5000000000000000 ) ) ;
#360 = EDGE_CURVE ( 'NONE', #346, #31, #116, .T. ) ;
#361 = DIRECTION ( 'NONE',  ( -1.000000000000000000, -6.167905692361983519E-16, 0.000000000000000000 ) ) ;
#362 = FACE_OUTER_BOUND ( 'NONE', #92, .T. ) ;
#363 = DIRECTION ( 'NONE',  ( -1.000000000000000000, 0.000000000000000000, -0.000000000000000000 ) ) ;
#364 = CARTESIAN_POINT ( 'NONE',  ( -50.00000000000004263, -50.00000000000004263, -187.5000000000000000 ) ) ;
#365 = CARTESIAN_POINT ( 'NONE',  ( -45.00000000000001421, -45.00000000000004263, 187.5000000000000000 ) ) ;
#366 = ORIENTED_EDGE ( 'NONE', *, *, #354, .T. ) ;
#367 = EDGE_CURVE ( 'NONE', #97, #178, #259, .T. ) ;
#368 = PLANE ( 'NONE',  #370 ) ;
#369 = CARTESIAN_POINT ( 'NONE',  ( -50.00000000000004263, 49.99999999999993605, -187.5000000000000000 ) ) ;
#370 = AXIS2_PLACEMENT_3D ( 'NONE', #19, #117, #22 ) ;
#371 = ORIENTED_EDGE ( 'NONE', *, *, #169, .F. ) ;
#372 = UNCERTAINTY_MEASURE_WITH_UNIT (LENGTH_MEASURE( 1.000000000000000082E-05 ), #283, 'distance_accuracy_value', 'NONE');
#373 = MECHANICAL_CONTEXT ( 'NONE', #27, 'mechanical' ) ;
ENDSEC;
END-ISO-10303-21;
