ISO-10303-21;
HEADER;
FILE_DESCRIPTION (( 'STEP AP203' ),
    '1' );
FILE_NAME ('Base_profil_cyl_mount1_Default_sldprt.STEP',
    '2026-01-28T12:25:43',
    ( '' ),
    ( '' ),
    'SwSTEP 2.0',
    'SolidWorks 2024',
    '' );
FILE_SCHEMA (( 'CONFIG_CONTROL_DESIGN' ));
ENDSEC;

DATA;
#1 = APPLICATION_PROTOCOL_DEFINITION ( 'international standard', 'config_control_design', 1994, #366 ) ;
#2 = DIRECTION ( 'NONE',  ( 1.000000000000000000, 0.000000000000000000, 0.000000000000000000 ) ) ;
#3 = VECTOR ( 'NONE', #36, 1000.000000000000000 ) ;
#4 = ORIENTED_EDGE ( 'NONE', *, *, #221, .F. ) ;
#5 = FACE_OUTER_BOUND ( 'NONE', #214, .T. ) ;
#6 = ORIENTED_EDGE ( 'NONE', *, *, #188, .F. ) ;
#7 = DIRECTION ( 'NONE',  ( 0.000000000000000000, 0.000000000000000000, -1.000000000000000000 ) ) ;
#8 = CARTESIAN_POINT ( 'NONE',  ( -44.00000000000000711, -69.00000000000004263, 420.0000000000000000 ) ) ;
#9 = CARTESIAN_POINT ( 'NONE',  ( -44.00000000000000711, -69.00000000000004263, 420.0000000000000000 ) ) ;
#10 = PLANE ( 'NONE',  #128 ) ;
#11 = CARTESIAN_POINT ( 'NONE',  ( 50.00000000000000711, 74.99999999999995737, -420.0000000000000000 ) ) ;
#12 = EDGE_CURVE ( 'NONE', #227, #207, #106, .T. ) ;
#13 = DIRECTION ( 'NONE',  ( 0.000000000000000000, -0.000000000000000000, -1.000000000000000000 ) ) ;
#14 = ORIENTED_EDGE ( 'NONE', *, *, #186, .T. ) ;
#15 = LINE ( 'NONE', #189, #269 ) ;
#16 = EDGE_LOOP ( 'NONE', ( #117, #301, #194, #278 ) ) ;
#17 = LOCAL_TIME ( 13, 25, 43.00000000000000000, #256 ) ;
#18 = DIRECTION ( 'NONE',  ( 0.000000000000000000, 0.000000000000000000, -1.000000000000000000 ) ) ;
#19 = PRODUCT ( 'Base_profil_cyl_mount1_Default_sldprt', 'Base_profil_cyl_mount1_Default_sldprt', '', ( #195 ) ) ;
#20 = PERSON_AND_ORGANIZATION ( #311, #344 ) ;
#21 = PERSON_AND_ORGANIZATION ( #311, #344 ) ;
#22 = LOCAL_TIME ( 13, 25, 43.00000000000000000, #313 ) ;
#23 = DIRECTION ( 'NONE',  ( 1.000000000000000000, -4.625929269271485791E-17, 0.000000000000000000 ) ) ;
#24 = CALENDAR_DATE ( 2026, 28, 1 ) ;
#25 = ORIENTED_EDGE ( 'NONE', *, *, #335, .T. ) ;
#26 = APPROVAL_STATUS ( 'not_yet_approved' ) ;
#27 = ORIENTED_EDGE ( 'NONE', *, *, #160, .F. ) ;
#28 = APPROVAL_DATE_TIME ( #51, #346 ) ;
#29 = PRODUCT_DEFINITION_FORMATION_WITH_SPECIFIED_SOURCE ( 'ANY', '', #19, .NOT_KNOWN. ) ;
#30 = LINE ( 'NONE', #314, #46 ) ;
#31 = ORIENTED_EDGE ( 'NONE', *, *, #61, .T. ) ;
#32 = CC_DESIGN_PERSON_AND_ORGANIZATION_ASSIGNMENT ( #108, #341, ( #235 ) ) ;
#33 = DIRECTION ( 'NONE',  ( -4.625929269271486407E-17, -1.000000000000000000, -0.000000000000000000 ) ) ;
#34 = DIRECTION ( 'NONE',  ( -1.000000000000000000, -0.000000000000000000, -0.000000000000000000 ) ) ;
#35 = VECTOR ( 'NONE', #34, 1000.000000000000000 ) ;
#36 = DIRECTION ( 'NONE',  ( -0.000000000000000000, -0.000000000000000000, -1.000000000000000000 ) ) ;
#37 = EDGE_CURVE ( 'NONE', #225, #145, #81, .T. ) ;
#38 = CC_DESIGN_PERSON_AND_ORGANIZATION_ASSIGNMENT ( #105, #200, ( #19 ) ) ;
#39 = ORIENTED_EDGE ( 'NONE', *, *, #160, .T. ) ;
#40 = FACE_BOUND ( 'NONE', #138, .T. ) ;
#41 = VECTOR ( 'NONE', #261, 1000.000000000000000 ) ;
#42 = PLANE ( 'NONE',  #199 ) ;
#43 = EDGE_LOOP ( 'NONE', ( #31, #219, #331, #201 ) ) ;
#44 = PLANE ( 'NONE',  #223 ) ;
#45 = DIRECTION ( 'NONE',  ( 0.000000000000000000, -1.000000000000000000, 0.000000000000000000 ) ) ;
#46 = VECTOR ( 'NONE', #88, 1000.000000000000000 ) ;
#47 = CARTESIAN_POINT ( 'NONE',  ( -50.00000000000000000, -75.00000000000004263, 420.0000000000000000 ) ) ;
#48 = CC_DESIGN_PERSON_AND_ORGANIZATION_ASSIGNMENT ( #21, #57, ( #29 ) ) ;
#49 = DATE_TIME_ROLE ( 'creation_date' ) ;
#50 = DESIGN_CONTEXT ( 'detailed design', #366, 'design' ) ;
#51 = DATE_AND_TIME ( #308, #163 ) ;
#52 = ORIENTED_EDGE ( 'NONE', *, *, #71, .T. ) ;
#53 = COORDINATED_UNIVERSAL_TIME_OFFSET ( 1, 0, .AHEAD. ) ;
#54 = AXIS2_PLACEMENT_3D ( 'NONE', #67, #120, #65 ) ;
#55 = EDGE_LOOP ( 'NONE', ( #6, #242, #251, #14 ) ) ;
#56 = CARTESIAN_POINT ( 'NONE',  ( -44.00000000000000711, -69.00000000000004263, -420.0000000000000000 ) ) ;
#57 = PERSON_AND_ORGANIZATION_ROLE ( 'design_supplier' ) ;
#58 = DIRECTION ( 'NONE',  ( -1.000000000000000000, -1.387778780781445676E-16, -0.000000000000000000 ) ) ;
#59 = PLANE ( 'NONE',  #212 ) ;
#60 = ADVANCED_FACE ( 'NONE', ( #309 ), #59, .F. ) ;
#61 = EDGE_CURVE ( 'NONE', #340, #209, #312, .T. ) ;
#62 = CARTESIAN_POINT ( 'NONE',  ( -49.99999999999999289, 74.99999999999994316, -420.0000000000000000 ) ) ;
#63 = ORIENTED_EDGE ( 'NONE', *, *, #37, .T. ) ;
#64 = FACE_OUTER_BOUND ( 'NONE', #43, .T. ) ;
#65 = DIRECTION ( 'NONE',  ( 1.387778780781445676E-16, -1.000000000000000000, 0.000000000000000000 ) ) ;
#66 = LOCAL_TIME ( 13, 25, 43.00000000000000000, #79 ) ;
#67 = CARTESIAN_POINT ( 'NONE',  ( 50.00000000000002842, -75.00000000000004263, 420.0000000000000000 ) ) ;
#68 = DIRECTION ( 'NONE',  ( 0.000000000000000000, 0.000000000000000000, -1.000000000000000000 ) ) ;
#69 = EDGE_CURVE ( 'NONE', #207, #78, #373, .T. ) ;
#70 = CARTESIAN_POINT ( 'NONE',  ( -44.00000000000000711, 68.99999999999995737, 420.0000000000000000 ) ) ;
#71 = EDGE_CURVE ( 'NONE', #104, #297, #203, .T. ) ;
#72 = DIRECTION ( 'NONE',  ( 0.000000000000000000, 1.000000000000000000, 0.000000000000000000 ) ) ;
#73 = CARTESIAN_POINT ( 'NONE',  ( 0.000000000000000000, 0.000000000000000000, 420.0000000000000000 ) ) ;
#74 = VECTOR ( 'NONE', #365, 1000.000000000000000 ) ;
#75 =( NAMED_UNIT ( * ) SI_UNIT ( $, .STERADIAN. ) SOLID_ANGLE_UNIT ( ) );
#76 = APPROVAL_DATE_TIME ( #226, #85 ) ;
#77 = DATE_TIME_ROLE ( 'classification_date' ) ;
#78 = VERTEX_POINT ( 'NONE', #232 ) ;
#79 = COORDINATED_UNIVERSAL_TIME_OFFSET ( 1, 0, .AHEAD. ) ;
#80 = LINE ( 'NONE', #202, #162 ) ;
#81 = LINE ( 'NONE', #134, #248 ) ;
#82 = VECTOR ( 'NONE', #83, 1000.000000000000000 ) ;
#83 = DIRECTION ( 'NONE',  ( -0.000000000000000000, -0.000000000000000000, -1.000000000000000000 ) ) ;
#84 = FACE_OUTER_BOUND ( 'NONE', #170, .T. ) ;
#85 = APPROVAL ( #111, 'UNSPECIFIED' ) ;
#86 = DIRECTION ( 'NONE',  ( -1.387778780781445676E-16, 1.000000000000000000, 0.000000000000000000 ) ) ;
#87 = ORIENTED_EDGE ( 'NONE', *, *, #239, .T. ) ;
#88 = DIRECTION ( 'NONE',  ( -0.000000000000000000, -1.000000000000000000, -0.000000000000000000 ) ) ;
#89 = ORIENTED_EDGE ( 'NONE', *, *, #12, .F. ) ;
#90 = DIRECTION ( 'NONE',  ( 1.000000000000000000, 0.000000000000000000, 0.000000000000000000 ) ) ;
#91 = PLANE ( 'NONE',  #185 ) ;
#92 = EDGE_CURVE ( 'NONE', #297, #362, #80, .T. ) ;
#93 = ORIENTED_EDGE ( 'NONE', *, *, #284, .T. ) ;
#94 = DIRECTION ( 'NONE',  ( 1.000000000000000000, 0.000000000000000000, 0.000000000000000000 ) ) ;
#95 = CC_DESIGN_SECURITY_CLASSIFICATION ( #263, ( #29 ) ) ;
#96 = DIRECTION ( 'NONE',  ( 0.000000000000000000, -0.000000000000000000, 1.000000000000000000 ) ) ;
#97 = EDGE_CURVE ( 'NONE', #220, #207, #30, .T. ) ;
#98 = LINE ( 'NONE', #126, #351 ) ;
#99 =( NAMED_UNIT ( * ) PLANE_ANGLE_UNIT ( ) SI_UNIT ( $, .RADIAN. ) );
#100 = VECTOR ( 'NONE', #238, 1000.000000000000000 ) ;
#101 = VECTOR ( 'NONE', #2, 1000.000000000000000 ) ;
#102 = AXIS2_PLACEMENT_3D ( 'NONE', #136, #130, #252 ) ;
#103 = APPROVAL_DATE_TIME ( #339, #122 ) ;
#104 = VERTEX_POINT ( 'NONE', #116 ) ;
#105 = PERSON_AND_ORGANIZATION ( #311, #344 ) ;
#106 = LINE ( 'NONE', #283, #262 ) ;
#107 = VERTEX_POINT ( 'NONE', #146 ) ;
#108 = PERSON_AND_ORGANIZATION ( #311, #344 ) ;
#109 = VECTOR ( 'NONE', #275, 1000.000000000000000 ) ;
#110 = CARTESIAN_POINT ( 'NONE',  ( 44.00000000000002132, -69.00000000000004263, 420.0000000000000000 ) ) ;
#111 = APPROVAL_STATUS ( 'not_yet_approved' ) ;
#112 = ORIENTED_EDGE ( 'NONE', *, *, #135, .F. ) ;
#113 = DIRECTION ( 'NONE',  ( -0.000000000000000000, -0.000000000000000000, -1.000000000000000000 ) ) ;
#114 = LINE ( 'NONE', #143, #3 ) ;
#115 = EDGE_CURVE ( 'NONE', #343, #340, #353, .T. ) ;
#116 = CARTESIAN_POINT ( 'NONE',  ( 44.00000000000002132, -69.00000000000004263, 420.0000000000000000 ) ) ;
#117 = ORIENTED_EDGE ( 'NONE', *, *, #228, .F. ) ;
#118 = ADVANCED_FACE ( 'NONE', ( #84 ), #206, .F. ) ;
#119 = DIRECTION ( 'NONE',  ( -0.000000000000000000, -1.000000000000000000, -0.000000000000000000 ) ) ;
#120 = DIRECTION ( 'NONE',  ( -1.000000000000000000, -1.387778780781445676E-16, 0.000000000000000000 ) ) ;
#121 = FACE_BOUND ( 'NONE', #16, .T. ) ;
#122 = APPROVAL ( #26, 'UNSPECIFIED' ) ;
#123 = DIRECTION ( 'NONE',  ( 0.000000000000000000, 1.000000000000000000, 0.000000000000000000 ) ) ;
#124 = DIRECTION ( 'NONE',  ( 0.000000000000000000, 0.000000000000000000, 1.000000000000000000 ) ) ;
#125 = CC_DESIGN_APPROVAL ( #85, ( #235 ) ) ;
#126 = CARTESIAN_POINT ( 'NONE',  ( 44.00000000000002132, -69.00000000000004263, 420.0000000000000000 ) ) ;
#127 = PERSON_AND_ORGANIZATION ( #311, #344 ) ;
#128 = AXIS2_PLACEMENT_3D ( 'NONE', #240, #288, #175 ) ;
#129 = APPROVAL_PERSON_ORGANIZATION ( #20, #85, #254 ) ;
#130 = DIRECTION ( 'NONE',  ( 0.000000000000000000, 0.000000000000000000, 1.000000000000000000 ) ) ;
#131 = ORIENTED_EDGE ( 'NONE', *, *, #197, .T. ) ;
#132 = APPROVAL_ROLE ( '' ) ;
#133 = VERTEX_POINT ( 'NONE', #294 ) ;
#134 = CARTESIAN_POINT ( 'NONE',  ( -50.00000000000000000, -75.00000000000004263, 420.0000000000000000 ) ) ;
#135 = EDGE_CURVE ( 'NONE', #145, #343, #259, .T. ) ;
#136 = CARTESIAN_POINT ( 'NONE',  ( 0.000000000000000000, 0.000000000000000000, 0.000000000000000000 ) ) ;
#137 = VECTOR ( 'NONE', #58, 1000.000000000000000 ) ;
#138 = EDGE_LOOP ( 'NONE', ( #229, #140, #293, #168 ) ) ;
#139 = LINE ( 'NONE', #291, #41 ) ;
#140 = ORIENTED_EDGE ( 'NONE', *, *, #97, .T. ) ;
#141 = CARTESIAN_POINT ( 'NONE',  ( -44.00000000000000711, 68.99999999999995737, -420.0000000000000000 ) ) ;
#142 = ORIENTED_EDGE ( 'NONE', *, *, #228, .T. ) ;
#143 = CARTESIAN_POINT ( 'NONE',  ( -50.00000000000000000, -75.00000000000004263, 420.0000000000000000 ) ) ;
#144 = LINE ( 'NONE', #9, #299 ) ;
#145 = VERTEX_POINT ( 'NONE', #267 ) ;
#146 = CARTESIAN_POINT ( 'NONE',  ( -50.00000000000000000, -75.00000000000004263, -420.0000000000000000 ) ) ;
#147 = LINE ( 'NONE', #328, #74 ) ;
#148 = AXIS2_PLACEMENT_3D ( 'NONE', #289, #90, #68 ) ;
#149 = LINE ( 'NONE', #332, #184 ) ;
#150 = CARTESIAN_POINT ( 'NONE',  ( -44.00000000000000711, -69.00000000000004263, 420.0000000000000000 ) ) ;
#151 = ORIENTED_EDGE ( 'NONE', *, *, #37, .F. ) ;
#152 = CARTESIAN_POINT ( 'NONE',  ( 50.00000000000000711, 74.99999999999995737, 420.0000000000000000 ) ) ;
#153 = AXIS2_PLACEMENT_3D ( 'NONE', #265, #7, #215 ) ;
#154 = APPROVAL_PERSON_ORGANIZATION ( #224, #346, #132 ) ;
#155 = DIRECTION ( 'NONE',  ( 0.000000000000000000, -0.000000000000000000, 1.000000000000000000 ) ) ;
#156 = ADVANCED_BREP_SHAPE_REPRESENTATION ( 'Base_profil_cyl_mount1_Default_sldprt', ( #204, #102 ), #205 ) ;
#157 = DATE_AND_TIME ( #307, #17 ) ;
#158 = ADVANCED_FACE ( 'NONE', ( #5, #40 ), #357, .T. ) ;
#159 = ADVANCED_FACE ( 'NONE', ( #64 ), #10, .F. ) ;
#160 = EDGE_CURVE ( 'NONE', #233, #340, #177, .T. ) ;
#161 = CARTESIAN_POINT ( 'NONE',  ( -50.00000000000000000, -75.00000000000004263, 420.0000000000000000 ) ) ;
#162 = VECTOR ( 'NONE', #286, 1000.000000000000000 ) ;
#163 = LOCAL_TIME ( 13, 25, 43.00000000000000000, #53 ) ;
#164 = APPLICATION_CONTEXT ( 'configuration controlled 3d designs of mechanical parts and assemblies' ) ;
#165 = ORIENTED_EDGE ( 'NONE', *, *, #186, .F. ) ;
#166 = CALENDAR_DATE ( 2026, 28, 1 ) ;
#167 = ADVANCED_FACE ( 'NONE', ( #244 ), #179, .T. ) ;
#168 = ORIENTED_EDGE ( 'NONE', *, *, #190, .T. ) ;
#169 = PERSON_AND_ORGANIZATION_ROLE ( 'creator' ) ;
#170 = EDGE_LOOP ( 'NONE', ( #39, #279, #112, #352 ) ) ;
#171 = APPROVAL_PERSON_ORGANIZATION ( #127, #122, #231 ) ;
#172 = DIRECTION ( 'NONE',  ( 0.000000000000000000, 1.000000000000000000, 0.000000000000000000 ) ) ;
#173 = EDGE_CURVE ( 'NONE', #133, #225, #181, .T. ) ;
#174 = CARTESIAN_POINT ( 'NONE',  ( -44.00000000000000711, 68.99999999999995737, -420.0000000000000000 ) ) ;
#175 = DIRECTION ( 'NONE',  ( 1.000000000000000000, 1.387778780781445676E-16, 0.000000000000000000 ) ) ;
#176 = EDGE_LOOP ( 'NONE', ( #337, #318, #151, #295 ) ) ;
#177 = LINE ( 'NONE', #325, #100 ) ;
#178 = ORIENTED_EDGE ( 'NONE', *, *, #190, .F. ) ;
#179 = PLANE ( 'NONE',  #148 ) ;
#180 = ORIENTED_EDGE ( 'NONE', *, *, #292, .T. ) ;
#181 = LINE ( 'NONE', #354, #368 ) ;
#182 = ORIENTED_EDGE ( 'NONE', *, *, #69, .F. ) ;
#183 = FACE_OUTER_BOUND ( 'NONE', #253, .T. ) ;
#184 = VECTOR ( 'NONE', #94, 1000.000000000000000 ) ;
#185 = AXIS2_PLACEMENT_3D ( 'NONE', #247, #45, #13 ) ;
#186 = EDGE_CURVE ( 'NONE', #362, #220, #296, .T. ) ;
#187 = CARTESIAN_POINT ( 'NONE',  ( 44.00000000000002132, -69.00000000000004263, 420.0000000000000000 ) ) ;
#188 = EDGE_CURVE ( 'NONE', #290, #220, #319, .T. ) ;
#189 = CARTESIAN_POINT ( 'NONE',  ( 50.00000000000002842, -75.00000000000004263, 420.0000000000000000 ) ) ;
#190 = EDGE_CURVE ( 'NONE', #78, #290, #139, .T. ) ;
#191 = CARTESIAN_POINT ( 'NONE',  ( 44.00000000000002132, 68.99999999999995737, 420.0000000000000000 ) ) ;
#192 = PRODUCT_RELATED_PRODUCT_CATEGORY ( 'detail', '', ( #19 ) ) ;
#193 = APPROVAL_STATUS ( 'not_yet_approved' ) ;
#194 = ORIENTED_EDGE ( 'NONE', *, *, #71, .F. ) ;
#195 = MECHANICAL_CONTEXT ( 'NONE', #164, 'mechanical' ) ;
#196 = ORIENTED_EDGE ( 'NONE', *, *, #363, .T. ) ;
#197 = EDGE_CURVE ( 'NONE', #297, #290, #234, .T. ) ;
#198 = VECTOR ( 'NONE', #321, 1000.000000000000000 ) ;
#199 = AXIS2_PLACEMENT_3D ( 'NONE', #187, #272, #124 ) ;
#200 = PERSON_AND_ORGANIZATION_ROLE ( 'design_owner' ) ;
#201 = ORIENTED_EDGE ( 'NONE', *, *, #115, .T. ) ;
#202 = CARTESIAN_POINT ( 'NONE',  ( -44.00000000000000711, 68.99999999999995737, 420.0000000000000000 ) ) ;
#203 = LINE ( 'NONE', #110, #316 ) ;
#204 = MANIFOLD_SOLID_BREP ( 'Boss-Extrude1', #323 ) ;
#205 =( GEOMETRIC_REPRESENTATION_CONTEXT ( 3 ) GLOBAL_UNCERTAINTY_ASSIGNED_CONTEXT ( ( #327 ) ) GLOBAL_UNIT_ASSIGNED_CONTEXT ( ( #246, #99, #75 ) ) REPRESENTATION_CONTEXT ( 'NONE', 'WORKASPACE' ) );
#206 = PLANE ( 'NONE',  #54 ) ;
#207 = VERTEX_POINT ( 'NONE', #317 ) ;
#208 = CARTESIAN_POINT ( 'NONE',  ( -44.00000000000000711, 68.99999999999995737, 420.0000000000000000 ) ) ;
#209 = VERTEX_POINT ( 'NONE', #62 ) ;
#210 = CARTESIAN_POINT ( 'NONE',  ( 50.00000000000000711, 74.99999999999995737, 420.0000000000000000 ) ) ;
#211 = ORIENTED_EDGE ( 'NONE', *, *, #342, .F. ) ;
#212 = AXIS2_PLACEMENT_3D ( 'NONE', #161, #23, #347 ) ;
#213 = CARTESIAN_POINT ( 'NONE',  ( -49.99999999999999289, 74.99999999999994316, 420.0000000000000000 ) ) ;
#214 = EDGE_LOOP ( 'NONE', ( #322, #270, #27, #211 ) ) ;
#215 = DIRECTION ( 'NONE',  ( -1.000000000000000000, 0.000000000000000000, -0.000000000000000000 ) ) ;
#216 = CARTESIAN_POINT ( 'NONE',  ( -49.99999999999999289, 74.99999999999994316, 420.0000000000000000 ) ) ;
#217 = DIRECTION ( 'NONE',  ( -0.000000000000000000, -0.000000000000000000, -1.000000000000000000 ) ) ;
#218 = VECTOR ( 'NONE', #300, 1000.000000000000000 ) ;
#219 = ORIENTED_EDGE ( 'NONE', *, *, #239, .F. ) ;
#220 = VERTEX_POINT ( 'NONE', #174 ) ;
#221 = EDGE_CURVE ( 'NONE', #225, #107, #114, .T. ) ;
#222 = FACE_OUTER_BOUND ( 'NONE', #176, .T. ) ;
#223 = AXIS2_PLACEMENT_3D ( 'NONE', #150, #72, #155 ) ;
#224 = PERSON_AND_ORGANIZATION ( #311, #344 ) ;
#225 = VERTEX_POINT ( 'NONE', #264 ) ;
#226 = DATE_AND_TIME ( #24, #22 ) ;
#227 = VERTEX_POINT ( 'NONE', #8 ) ;
#228 = EDGE_CURVE ( 'NONE', #362, #227, #144, .T. ) ;
#229 = ORIENTED_EDGE ( 'NONE', *, *, #188, .T. ) ;
#230 = VECTOR ( 'NONE', #86, 1000.000000000000000 ) ;
#231 = APPROVAL_ROLE ( '' ) ;
#232 = CARTESIAN_POINT ( 'NONE',  ( 44.00000000000002132, -69.00000000000004263, -420.0000000000000000 ) ) ;
#233 = VERTEX_POINT ( 'NONE', #243 ) ;
#234 = LINE ( 'NONE', #349, #82 ) ;
#235 = PRODUCT_DEFINITION ( 'UNKNOWN', '', #29, #50 ) ;
#236 = EDGE_LOOP ( 'NONE', ( #196, #4, #315, #87 ) ) ;
#237 = LOCAL_TIME ( 13, 25, 43.00000000000000000, #367 ) ;
#238 = DIRECTION ( 'NONE',  ( -1.387778780781445676E-16, 1.000000000000000000, 0.000000000000000000 ) ) ;
#239 = EDGE_CURVE ( 'NONE', #133, #209, #355, .T. ) ;
#240 = CARTESIAN_POINT ( 'NONE',  ( -49.99999999999999289, 74.99999999999994316, 420.0000000000000000 ) ) ;
#241 = ADVANCED_FACE ( 'NONE', ( #222 ), #330, .F. ) ;
#242 = ORIENTED_EDGE ( 'NONE', *, *, #197, .F. ) ;
#243 = CARTESIAN_POINT ( 'NONE',  ( 50.00000000000002842, -75.00000000000004263, -420.0000000000000000 ) ) ;
#244 = FACE_OUTER_BOUND ( 'NONE', #281, .T. ) ;
#245 = CC_DESIGN_APPROVAL ( #346, ( #263 ) ) ;
#246 =( LENGTH_UNIT ( ) NAMED_UNIT ( * ) SI_UNIT ( .MILLI., .METRE. ) );
#247 = CARTESIAN_POINT ( 'NONE',  ( -44.00000000000000711, 68.99999999999995737, 420.0000000000000000 ) ) ;
#248 = VECTOR ( 'NONE', #257, 1000.000000000000000 ) ;
#249 = CC_DESIGN_DATE_AND_TIME_ASSIGNMENT ( #157, #49, ( #235 ) ) ;
#250 = LINE ( 'NONE', #360, #218 ) ;
#251 = ORIENTED_EDGE ( 'NONE', *, *, #92, .T. ) ;
#252 = DIRECTION ( 'NONE',  ( 1.000000000000000000, 0.000000000000000000, 0.000000000000000000 ) ) ;
#253 = EDGE_LOOP ( 'NONE', ( #182, #89, #93, #180 ) ) ;
#254 = APPROVAL_ROLE ( '' ) ;
#255 = CARTESIAN_POINT ( 'NONE',  ( -49.99999999999999289, 74.99999999999994316, -420.0000000000000000 ) ) ;
#256 = COORDINATED_UNIVERSAL_TIME_OFFSET ( 1, 0, .AHEAD. ) ;
#257 = DIRECTION ( 'NONE',  ( 1.000000000000000000, 0.000000000000000000, 0.000000000000000000 ) ) ;
#258 = VECTOR ( 'NONE', #359, 1000.000000000000000 ) ;
#259 = LINE ( 'NONE', #324, #230 ) ;
#260 = ORIENTED_EDGE ( 'NONE', *, *, #292, .F. ) ;
#261 = DIRECTION ( 'NONE',  ( 0.000000000000000000, 1.000000000000000000, 0.000000000000000000 ) ) ;
#262 = VECTOR ( 'NONE', #369, 1000.000000000000000 ) ;
#263 = SECURITY_CLASSIFICATION ( '', '', #336 ) ;
#264 = CARTESIAN_POINT ( 'NONE',  ( -50.00000000000000000, -75.00000000000004263, 420.0000000000000000 ) ) ;
#265 = CARTESIAN_POINT ( 'NONE',  ( 0.000000000000000000, 0.000000000000000000, -420.0000000000000000 ) ) ;
#266 = ORIENTED_EDGE ( 'NONE', *, *, #173, .T. ) ;
#267 = CARTESIAN_POINT ( 'NONE',  ( 50.00000000000002842, -75.00000000000004263, 420.0000000000000000 ) ) ;
#268 = DIRECTION ( 'NONE',  ( -1.000000000000000000, 0.000000000000000000, -0.000000000000000000 ) ) ;
#269 = VECTOR ( 'NONE', #302, 1000.000000000000000 ) ;
#270 = ORIENTED_EDGE ( 'NONE', *, *, #61, .F. ) ;
#271 = LINE ( 'NONE', #216, #109 ) ;
#272 = DIRECTION ( 'NONE',  ( -1.000000000000000000, 0.000000000000000000, 0.000000000000000000 ) ) ;
#273 = CC_DESIGN_APPROVAL ( #122, ( #29 ) ) ;
#274 = CC_DESIGN_DATE_AND_TIME_ASSIGNMENT ( #371, #77, ( #263 ) ) ;
#275 = DIRECTION ( 'NONE',  ( -1.000000000000000000, -1.387778780781445676E-16, -0.000000000000000000 ) ) ;
#276 = APPLICATION_PROTOCOL_DEFINITION ( 'international standard', 'config_control_design', 1994, #164 ) ;
#277 = SHAPE_DEFINITION_REPRESENTATION ( #334, #156 ) ;
#278 = ORIENTED_EDGE ( 'NONE', *, *, #284, .F. ) ;
#279 = ORIENTED_EDGE ( 'NONE', *, *, #115, .F. ) ;
#280 = PERSON_AND_ORGANIZATION ( #311, #344 ) ;
#281 = EDGE_LOOP ( 'NONE', ( #305, #165, #142, #287 ) ) ;
#282 = PERSON_AND_ORGANIZATION_ROLE ( 'classification_officer' ) ;
#283 = CARTESIAN_POINT ( 'NONE',  ( -44.00000000000000711, -69.00000000000004263, 420.0000000000000000 ) ) ;
#284 = EDGE_CURVE ( 'NONE', #227, #104, #149, .T. ) ;
#285 = AXIS2_PLACEMENT_3D ( 'NONE', #73, #18, #268 ) ;
#286 = DIRECTION ( 'NONE',  ( -1.000000000000000000, -0.000000000000000000, -0.000000000000000000 ) ) ;
#287 = ORIENTED_EDGE ( 'NONE', *, *, #12, .T. ) ;
#288 = DIRECTION ( 'NONE',  ( 1.387778780781445676E-16, -1.000000000000000000, 0.000000000000000000 ) ) ;
#289 = CARTESIAN_POINT ( 'NONE',  ( -44.00000000000000711, -69.00000000000004263, 420.0000000000000000 ) ) ;
#290 = VERTEX_POINT ( 'NONE', #364 ) ;
#291 = CARTESIAN_POINT ( 'NONE',  ( 44.00000000000002132, -69.00000000000004263, -420.0000000000000000 ) ) ;
#292 = EDGE_CURVE ( 'NONE', #104, #78, #98, .T. ) ;
#293 = ORIENTED_EDGE ( 'NONE', *, *, #69, .T. ) ;
#294 = CARTESIAN_POINT ( 'NONE',  ( -49.99999999999999289, 74.99999999999994316, 420.0000000000000000 ) ) ;
#295 = ORIENTED_EDGE ( 'NONE', *, *, #221, .T. ) ;
#296 = LINE ( 'NONE', #208, #198 ) ;
#297 = VERTEX_POINT ( 'NONE', #191 ) ;
#298 = ADVANCED_FACE ( 'NONE', ( #304 ), #91, .T. ) ;
#299 = VECTOR ( 'NONE', #119, 1000.000000000000000 ) ;
#300 = DIRECTION ( 'NONE',  ( 1.000000000000000000, 0.000000000000000000, 0.000000000000000000 ) ) ;
#301 = ORIENTED_EDGE ( 'NONE', *, *, #92, .F. ) ;
#302 = DIRECTION ( 'NONE',  ( -0.000000000000000000, -0.000000000000000000, -1.000000000000000000 ) ) ;
#303 = ORIENTED_EDGE ( 'NONE', *, *, #135, .T. ) ;
#304 = FACE_OUTER_BOUND ( 'NONE', #55, .T. ) ;
#305 = ORIENTED_EDGE ( 'NONE', *, *, #97, .F. ) ;
#306 = FACE_OUTER_BOUND ( 'NONE', #372, .T. ) ;
#307 = CALENDAR_DATE ( 2026, 28, 1 ) ;
#308 = CALENDAR_DATE ( 2026, 28, 1 ) ;
#309 = FACE_OUTER_BOUND ( 'NONE', #236, .T. ) ;
#310 = PERSON_AND_ORGANIZATION ( #311, #344 ) ;
#311 = PERSON ( 'UNSPECIFIED', 'UNSPECIFIED', 'UNSPECIFIED', ('UNSPECIFIED'), ('UNSPECIFIED'), ('UNSPECIFIED') ) ;
#312 = LINE ( 'NONE', #255, #137 ) ;
#313 = COORDINATED_UNIVERSAL_TIME_OFFSET ( 1, 0, .AHEAD. ) ;
#314 = CARTESIAN_POINT ( 'NONE',  ( -44.00000000000000711, -69.00000000000004263, -420.0000000000000000 ) ) ;
#315 = ORIENTED_EDGE ( 'NONE', *, *, #173, .F. ) ;
#316 = VECTOR ( 'NONE', #172, 1000.000000000000000 ) ;
#317 = CARTESIAN_POINT ( 'NONE',  ( -44.00000000000000711, -69.00000000000004263, -420.0000000000000000 ) ) ;
#318 = ORIENTED_EDGE ( 'NONE', *, *, #320, .F. ) ;
#319 = LINE ( 'NONE', #141, #35 ) ;
#320 = EDGE_CURVE ( 'NONE', #145, #233, #15, .T. ) ;
#321 = DIRECTION ( 'NONE',  ( -0.000000000000000000, -0.000000000000000000, -1.000000000000000000 ) ) ;
#322 = ORIENTED_EDGE ( 'NONE', *, *, #363, .F. ) ;
#323 = CLOSED_SHELL ( 'NONE', ( #361, #158, #60, #241, #118, #159, #167, #329, #370, #298 ) ) ;
#324 = CARTESIAN_POINT ( 'NONE',  ( 50.00000000000002842, -75.00000000000004263, 420.0000000000000000 ) ) ;
#325 = CARTESIAN_POINT ( 'NONE',  ( 50.00000000000002842, -75.00000000000004263, -420.0000000000000000 ) ) ;
#326 = FACE_OUTER_BOUND ( 'NONE', #348, .T. ) ;
#327 = UNCERTAINTY_MEASURE_WITH_UNIT (LENGTH_MEASURE( 1.000000000000000082E-05 ), #246, 'distance_accuracy_value', 'NONE');
#328 = CARTESIAN_POINT ( 'NONE',  ( -50.00000000000000000, -75.00000000000004263, -420.0000000000000000 ) ) ;
#329 = ADVANCED_FACE ( 'NONE', ( #183 ), #44, .T. ) ;
#330 = PLANE ( 'NONE',  #350 ) ;
#331 = ORIENTED_EDGE ( 'NONE', *, *, #335, .F. ) ;
#332 = CARTESIAN_POINT ( 'NONE',  ( -44.00000000000000711, -69.00000000000004263, 420.0000000000000000 ) ) ;
#333 = PLANE ( 'NONE',  #285 ) ;
#334 = PRODUCT_DEFINITION_SHAPE ( 'NONE', 'NONE',  #235 ) ;
#335 = EDGE_CURVE ( 'NONE', #343, #133, #271, .T. ) ;
#336 = SECURITY_CLASSIFICATION_LEVEL ( 'unclassified' ) ;
#337 = ORIENTED_EDGE ( 'NONE', *, *, #342, .T. ) ;
#338 = CC_DESIGN_PERSON_AND_ORGANIZATION_ASSIGNMENT ( #280, #282, ( #263 ) ) ;
#339 = DATE_AND_TIME ( #166, #237 ) ;
#340 = VERTEX_POINT ( 'NONE', #11 ) ;
#341 = PERSON_AND_ORGANIZATION_ROLE ( 'creator' ) ;
#342 = EDGE_CURVE ( 'NONE', #107, #233, #250, .T. ) ;
#343 = VERTEX_POINT ( 'NONE', #152 ) ;
#344 = ORGANIZATION ( 'UNSPECIFIED', 'UNSPECIFIED', '' ) ;
#345 = CALENDAR_DATE ( 2026, 28, 1 ) ;
#346 = APPROVAL ( #193, 'UNSPECIFIED' ) ;
#347 = DIRECTION ( 'NONE',  ( 4.625929269271485791E-17, 1.000000000000000000, 0.000000000000000000 ) ) ;
#348 = EDGE_LOOP ( 'NONE', ( #266, #63, #303, #25 ) ) ;
#349 = CARTESIAN_POINT ( 'NONE',  ( 44.00000000000002132, 68.99999999999995737, 420.0000000000000000 ) ) ;
#350 = AXIS2_PLACEMENT_3D ( 'NONE', #47, #123, #96 ) ;
#351 = VECTOR ( 'NONE', #217, 1000.000000000000000 ) ;
#352 = ORIENTED_EDGE ( 'NONE', *, *, #320, .T. ) ;
#353 = LINE ( 'NONE', #210, #356 ) ;
#354 = CARTESIAN_POINT ( 'NONE',  ( -50.00000000000000000, -75.00000000000004263, 420.0000000000000000 ) ) ;
#355 = LINE ( 'NONE', #213, #258 ) ;
#356 = VECTOR ( 'NONE', #113, 1000.000000000000000 ) ;
#357 = PLANE ( 'NONE',  #153 ) ;
#358 = CC_DESIGN_PERSON_AND_ORGANIZATION_ASSIGNMENT ( #310, #169, ( #29 ) ) ;
#359 = DIRECTION ( 'NONE',  ( -0.000000000000000000, -0.000000000000000000, -1.000000000000000000 ) ) ;
#360 = CARTESIAN_POINT ( 'NONE',  ( -50.00000000000000000, -75.00000000000004263, -420.0000000000000000 ) ) ;
#361 = ADVANCED_FACE ( 'NONE', ( #326, #121 ), #333, .F. ) ;
#362 = VERTEX_POINT ( 'NONE', #70 ) ;
#363 = EDGE_CURVE ( 'NONE', #209, #107, #147, .T. ) ;
#364 = CARTESIAN_POINT ( 'NONE',  ( 44.00000000000002132, 68.99999999999995737, -420.0000000000000000 ) ) ;
#365 = DIRECTION ( 'NONE',  ( -4.625929269271486407E-17, -1.000000000000000000, -0.000000000000000000 ) ) ;
#366 = APPLICATION_CONTEXT ( 'configuration controlled 3d designs of mechanical parts and assemblies' ) ;
#367 = COORDINATED_UNIVERSAL_TIME_OFFSET ( 1, 0, .AHEAD. ) ;
#368 = VECTOR ( 'NONE', #33, 1000.000000000000000 ) ;
#369 = DIRECTION ( 'NONE',  ( -0.000000000000000000, -0.000000000000000000, -1.000000000000000000 ) ) ;
#370 = ADVANCED_FACE ( 'NONE', ( #306 ), #42, .T. ) ;
#371 = DATE_AND_TIME ( #345, #66 ) ;
#372 = EDGE_LOOP ( 'NONE', ( #178, #260, #52, #131 ) ) ;
#373 = LINE ( 'NONE', #56, #101 ) ;
ENDSEC;
END-ISO-10303-21;
