ISO-10303-21;
HEADER;
FILE_DESCRIPTION (( 'STEP AP203' ),
    '1' );
FILE_NAME ('Base_profil_cyl_mount_support_sideways_Default_sldprt.STEP',
    '2026-01-28T12:25:44',
    ( '' ),
    ( '' ),
    'SwSTEP 2.0',
    'SolidWorks 2024',
    '' );
FILE_SCHEMA (( 'CONFIG_CONTROL_DESIGN' ));
ENDSEC;

DATA;
#1 = ORIENTED_EDGE ( 'NONE', *, *, #364, .T. ) ;
#2 = VECTOR ( 'NONE', #152, 1000.000000000000000 ) ;
#3 = DIRECTION ( 'NONE',  ( 0.000000000000000000, 0.000000000000000000, 1.000000000000000000 ) ) ;
#4 = DIRECTION ( 'NONE',  ( 1.000000000000000000, 0.000000000000000000, 0.000000000000000000 ) ) ;
#5 = DESIGN_CONTEXT ( 'detailed design', #95, 'design' ) ;
#6 = CARTESIAN_POINT ( 'NONE',  ( -45.00000000000001421, -45.00000000000004263, 325.0000000000000000 ) ) ;
#7 = EDGE_CURVE ( 'NONE', #189, #341, #88, .T. ) ;
#8 = DIRECTION ( 'NONE',  ( -1.000000000000000000, 0.000000000000000000, -0.000000000000000000 ) ) ;
#9 = ORGANIZATION ( 'UNSPECIFIED', 'UNSPECIFIED', '' ) ;
#10 = DIRECTION ( 'NONE',  ( 1.000000000000000000, 0.000000000000000000, 0.000000000000000000 ) ) ;
#11 = CARTESIAN_POINT ( 'NONE',  ( -50.00000000000004263, -50.00000000000004263, 325.0000000000000000 ) ) ;
#12 = PLANE ( 'NONE',  #133 ) ;
#13 = AXIS2_PLACEMENT_3D ( 'NONE', #154, #348, #243 ) ;
#14 = LINE ( 'NONE', #158, #242 ) ;
#15 = ORIENTED_EDGE ( 'NONE', *, *, #61, .F. ) ;
#16 = PLANE ( 'NONE',  #72 ) ;
#17 = VERTEX_POINT ( 'NONE', #314 ) ;
#18 = CARTESIAN_POINT ( 'NONE',  ( -45.00000000000001421, 44.99999999999992895, 325.0000000000000000 ) ) ;
#19 = ORIENTED_EDGE ( 'NONE', *, *, #174, .T. ) ;
#20 = CARTESIAN_POINT ( 'NONE',  ( -45.00000000000001421, -45.00000000000004263, 325.0000000000000000 ) ) ;
#21 = ORIENTED_EDGE ( 'NONE', *, *, #76, .T. ) ;
#22 = CALENDAR_DATE ( 2026, 28, 1 ) ;
#23 = ORIENTED_EDGE ( 'NONE', *, *, #364, .F. ) ;
#24 = PERSON_AND_ORGANIZATION ( #50, #9 ) ;
#25 = APPROVAL_PERSON_ORGANIZATION ( #109, #64, #31 ) ;
#26 = ORIENTED_EDGE ( 'NONE', *, *, #97, .F. ) ;
#27 = EDGE_CURVE ( 'NONE', #309, #334, #173, .T. ) ;
#28 = VERTEX_POINT ( 'NONE', #320 ) ;
#29 = CALENDAR_DATE ( 2026, 28, 1 ) ;
#30 = ORIENTED_EDGE ( 'NONE', *, *, #240, .T. ) ;
#31 = APPROVAL_ROLE ( '' ) ;
#32 = DIRECTION ( 'NONE',  ( 6.167905692361983519E-16, -1.000000000000000000, 0.000000000000000000 ) ) ;
#33 = VECTOR ( 'NONE', #82, 1000.000000000000000 ) ;
#34 = SECURITY_CLASSIFICATION ( '', '', #199 ) ;
#35 = CARTESIAN_POINT ( 'NONE',  ( -50.00000000000004263, -50.00000000000004263, 325.0000000000000000 ) ) ;
#36 = ADVANCED_FACE ( 'NONE', ( #176 ), #207, .T. ) ;
#37 = LINE ( 'NONE', #6, #108 ) ;
#38 = CARTESIAN_POINT ( 'NONE',  ( 44.99999999999995737, 44.99999999999992895, 325.0000000000000000 ) ) ;
#39 = VECTOR ( 'NONE', #307, 1000.000000000000000 ) ;
#40 = DIRECTION ( 'NONE',  ( 1.000000000000000000, 0.000000000000000000, 0.000000000000000000 ) ) ;
#41 = DIRECTION ( 'NONE',  ( 1.000000000000000000, 0.000000000000000000, 0.000000000000000000 ) ) ;
#42 = PLANE ( 'NONE',  #79 ) ;
#43 = CARTESIAN_POINT ( 'NONE',  ( -50.00000000000004263, 49.99999999999993605, 325.0000000000000000 ) ) ;
#44 = ORIENTED_EDGE ( 'NONE', *, *, #128, .F. ) ;
#45 = EDGE_CURVE ( 'NONE', #357, #346, #149, .T. ) ;
#46 = DIRECTION ( 'NONE',  ( 0.000000000000000000, 0.000000000000000000, -1.000000000000000000 ) ) ;
#47 = VERTEX_POINT ( 'NONE', #235 ) ;
#48 = FACE_OUTER_BOUND ( 'NONE', #227, .T. ) ;
#49 = ORIENTED_EDGE ( 'NONE', *, *, #372, .T. ) ;
#50 = PERSON ( 'UNSPECIFIED', 'UNSPECIFIED', 'UNSPECIFIED', ('UNSPECIFIED'), ('UNSPECIFIED'), ('UNSPECIFIED') ) ;
#51 = EDGE_LOOP ( 'NONE', ( #142, #217, #204, #49 ) ) ;
#52 = DATE_TIME_ROLE ( 'creation_date' ) ;
#53 = DIRECTION ( 'NONE',  ( -1.000000000000000000, -0.000000000000000000, -0.000000000000000000 ) ) ;
#54 = DATE_AND_TIME ( #29, #250 ) ;
#55 = AXIS2_PLACEMENT_3D ( 'NONE', #291, #280, #32 ) ;
#56 = ORIENTED_EDGE ( 'NONE', *, *, #146, .F. ) ;
#57 = PERSON_AND_ORGANIZATION ( #50, #9 ) ;
#58 = ORIENTED_EDGE ( 'NONE', *, *, #128, .T. ) ;
#59 = CARTESIAN_POINT ( 'NONE',  ( 0.000000000000000000, 0.000000000000000000, 0.000000000000000000 ) ) ;
#60 = ORIENTED_EDGE ( 'NONE', *, *, #61, .T. ) ;
#61 = EDGE_CURVE ( 'NONE', #370, #362, #347, .T. ) ;
#62 = FACE_OUTER_BOUND ( 'NONE', #161, .T. ) ;
#63 = CC_DESIGN_APPROVAL ( #248, ( #34 ) ) ;
#64 = APPROVAL ( #114, 'UNSPECIFIED' ) ;
#65 = DIRECTION ( 'NONE',  ( 1.000000000000000000, 0.000000000000000000, 0.000000000000000000 ) ) ;
#66 = FACE_OUTER_BOUND ( 'NONE', #201, .T. ) ;
#67 = CARTESIAN_POINT ( 'NONE',  ( -45.00000000000001421, 44.99999999999992895, 325.0000000000000000 ) ) ;
#68 = VECTOR ( 'NONE', #214, 1000.000000000000000 ) ;
#69 = DIRECTION ( 'NONE',  ( 0.000000000000000000, 1.000000000000000000, 0.000000000000000000 ) ) ;
#70 = PRODUCT_DEFINITION ( 'UNKNOWN', '', #85, #5 ) ;
#71 = LINE ( 'NONE', #306, #208 ) ;
#72 = AXIS2_PLACEMENT_3D ( 'NONE', #273, #271, #46 ) ;
#73 = CC_DESIGN_PERSON_AND_ORGANIZATION_ASSIGNMENT ( #24, #112, ( #85 ) ) ;
#74 = EDGE_LOOP ( 'NONE', ( #135, #26, #1, #234 ) ) ;
#75 = DIRECTION ( 'NONE',  ( -2.775557561562891844E-16, 1.000000000000000000, 0.000000000000000000 ) ) ;
#76 = EDGE_CURVE ( 'NONE', #334, #17, #339, .T. ) ;
#77 = FACE_BOUND ( 'NONE', #288, .T. ) ;
#78 = ORIENTED_EDGE ( 'NONE', *, *, #337, .F. ) ;
#79 = AXIS2_PLACEMENT_3D ( 'NONE', #333, #130, #251 ) ;
#80 = ORIENTED_EDGE ( 'NONE', *, *, #27, .F. ) ;
#81 = PERSON_AND_ORGANIZATION_ROLE ( 'classification_officer' ) ;
#82 = DIRECTION ( 'NONE',  ( -0.000000000000000000, -1.000000000000000000, -0.000000000000000000 ) ) ;
#83 = APPLICATION_PROTOCOL_DEFINITION ( 'international standard', 'config_control_design', 1994, #198 ) ;
#84 = VERTEX_POINT ( 'NONE', #171 ) ;
#85 = PRODUCT_DEFINITION_FORMATION_WITH_SPECIFIED_SOURCE ( 'ANY', '', #190, .NOT_KNOWN. ) ;
#86 = EDGE_LOOP ( 'NONE', ( #342, #80, #321, #145 ) ) ;
#87 = PERSON_AND_ORGANIZATION ( #50, #9 ) ;
#88 = LINE ( 'NONE', #175, #157 ) ;
#89 = ORIENTED_EDGE ( 'NONE', *, *, #45, .T. ) ;
#90 = LINE ( 'NONE', #210, #326 ) ;
#91 = DIRECTION ( 'NONE',  ( -0.000000000000000000, -0.000000000000000000, -1.000000000000000000 ) ) ;
#92 = CARTESIAN_POINT ( 'NONE',  ( -50.00000000000004263, -50.00000000000004263, 325.0000000000000000 ) ) ;
#93 = CARTESIAN_POINT ( 'NONE',  ( -50.00000000000004263, -50.00000000000004263, 325.0000000000000000 ) ) ;
#94 = VECTOR ( 'NONE', #355, 1000.000000000000000 ) ;
#95 = APPLICATION_CONTEXT ( 'configuration controlled 3d designs of mechanical parts and assemblies' ) ;
#96 = LINE ( 'NONE', #11, #308 ) ;
#97 = EDGE_CURVE ( 'NONE', #362, #230, #200, .T. ) ;
#98 = CARTESIAN_POINT ( 'NONE',  ( -45.00000000000001421, -45.00000000000004263, 325.0000000000000000 ) ) ;
#99 = ORIENTED_EDGE ( 'NONE', *, *, #203, .T. ) ;
#100 = CARTESIAN_POINT ( 'NONE',  ( -45.00000000000001421, -45.00000000000004263, 325.0000000000000000 ) ) ;
#101 = ORIENTED_EDGE ( 'NONE', *, *, #272, .T. ) ;
#102 = AXIS2_PLACEMENT_3D ( 'NONE', #295, #184, #8 ) ;
#103 = CARTESIAN_POINT ( 'NONE',  ( 49.99999999999993605, 49.99999999999993605, -325.0000000000000000 ) ) ;
#104 = EDGE_LOOP ( 'NONE', ( #19, #144, #336, #107 ) ) ;
#105 = EDGE_CURVE ( 'NONE', #252, #282, #96, .T. ) ;
#106 = LINE ( 'NONE', #20, #127 ) ;
#107 = ORIENTED_EDGE ( 'NONE', *, *, #146, .T. ) ;
#108 = VECTOR ( 'NONE', #65, 1000.000000000000000 ) ;
#109 = PERSON_AND_ORGANIZATION ( #50, #9 ) ;
#110 = EDGE_LOOP ( 'NONE', ( #302, #23, #15, #44 ) ) ;
#111 = ADVANCED_FACE ( 'NONE', ( #241 ), #238, .F. ) ;
#112 = PERSON_AND_ORGANIZATION_ROLE ( 'creator' ) ;
#113 = EDGE_LOOP ( 'NONE', ( #260, #232, #60, #304 ) ) ;
#114 = APPROVAL_STATUS ( 'not_yet_approved' ) ;
#115 = ORIENTED_EDGE ( 'NONE', *, *, #350, .T. ) ;
#116 = VECTOR ( 'NONE', #352, 1000.000000000000000 ) ;
#117 = PERSON_AND_ORGANIZATION_ROLE ( 'creator' ) ;
#118 = ORIENTED_EDGE ( 'NONE', *, *, #337, .T. ) ;
#119 = ADVANCED_FACE ( 'NONE', ( #297, #215 ), #265, .F. ) ;
#120 = DIRECTION ( 'NONE',  ( -0.000000000000000000, -1.000000000000000000, -0.000000000000000000 ) ) ;
#121 = DIRECTION ( 'NONE',  ( -1.000000000000000000, -0.000000000000000000, -0.000000000000000000 ) ) ;
#122 = CARTESIAN_POINT ( 'NONE',  ( -50.00000000000004263, -50.00000000000004263, -325.0000000000000000 ) ) ;
#123 = CARTESIAN_POINT ( 'NONE',  ( 49.99999999999996447, -50.00000000000004263, 325.0000000000000000 ) ) ;
#124 = PRODUCT_DEFINITION_SHAPE ( 'NONE', 'NONE',  #70 ) ;
#125 = CARTESIAN_POINT ( 'NONE',  ( -45.00000000000001421, 44.99999999999992895, 325.0000000000000000 ) ) ;
#126 = DIRECTION ( 'NONE',  ( -0.000000000000000000, -1.000000000000000000, -0.000000000000000000 ) ) ;
#127 = VECTOR ( 'NONE', #193, 1000.000000000000000 ) ;
#128 = EDGE_CURVE ( 'NONE', #341, #370, #37, .T. ) ;
#129 = CARTESIAN_POINT ( 'NONE',  ( 49.99999999999996447, -50.00000000000004263, 325.0000000000000000 ) ) ;
#130 = DIRECTION ( 'NONE',  ( -1.000000000000000000, -2.775557561562891844E-16, 0.000000000000000000 ) ) ;
#131 = CARTESIAN_POINT ( 'NONE',  ( 45.00000000000001421, -45.00000000000004263, 325.0000000000000000 ) ) ;
#132 = EDGE_CURVE ( 'NONE', #189, #28, #178, .T. ) ;
#133 = AXIS2_PLACEMENT_3D ( 'NONE', #92, #40, #150 ) ;
#134 = CARTESIAN_POINT ( 'NONE',  ( 49.99999999999996447, -50.00000000000004263, 325.0000000000000000 ) ) ;
#135 = ORIENTED_EDGE ( 'NONE', *, *, #272, .F. ) ;
#136 =( LENGTH_UNIT ( ) NAMED_UNIT ( * ) SI_UNIT ( .MILLI., .METRE. ) );
#137 = ORIENTED_EDGE ( 'NONE', *, *, #236, .T. ) ;
#138 = PERSON_AND_ORGANIZATION ( #50, #9 ) ;
#139 = CARTESIAN_POINT ( 'NONE',  ( 45.00000000000001421, -45.00000000000004263, 325.0000000000000000 ) ) ;
#140 = CC_DESIGN_PERSON_AND_ORGANIZATION_ASSIGNMENT ( #170, #345, ( #190 ) ) ;
#141 = APPROVAL_ROLE ( '' ) ;
#142 = ORIENTED_EDGE ( 'NONE', *, *, #240, .F. ) ;
#143 = CC_DESIGN_PERSON_AND_ORGANIZATION_ASSIGNMENT ( #87, #81, ( #34 ) ) ;
#144 = ORIENTED_EDGE ( 'NONE', *, *, #105, .T. ) ;
#145 = ORIENTED_EDGE ( 'NONE', *, *, #185, .F. ) ;
#146 = EDGE_CURVE ( 'NONE', #47, #313, #90, .T. ) ;
#147 = VECTOR ( 'NONE', #41, 1000.000000000000000 ) ;
#148 = COORDINATED_UNIVERSAL_TIME_OFFSET ( 1, 0, .AHEAD. ) ;
#149 = LINE ( 'NONE', #262, #202 ) ;
#150 = DIRECTION ( 'NONE',  ( 0.000000000000000000, 0.000000000000000000, -1.000000000000000000 ) ) ;
#151 = DIRECTION ( 'NONE',  ( 0.000000000000000000, -0.000000000000000000, -1.000000000000000000 ) ) ;
#152 = DIRECTION ( 'NONE',  ( -0.000000000000000000, -0.000000000000000000, -1.000000000000000000 ) ) ;
#153 = LOCAL_TIME ( 13, 25, 44.00000000000000000, #335 ) ;
#154 = CARTESIAN_POINT ( 'NONE',  ( -50.00000000000004263, 49.99999999999993605, 325.0000000000000000 ) ) ;
#155 = CARTESIAN_POINT ( 'NONE',  ( -45.00000000000001421, 44.99999999999992895, 325.0000000000000000 ) ) ;
#156 = CARTESIAN_POINT ( 'NONE',  ( -50.00000000000004263, 49.99999999999993605, -325.0000000000000000 ) ) ;
#157 = VECTOR ( 'NONE', #120, 1000.000000000000000 ) ;
#158 = CARTESIAN_POINT ( 'NONE',  ( 49.99999999999996447, -50.00000000000004263, -325.0000000000000000 ) ) ;
#159 = ORIENTED_EDGE ( 'NONE', *, *, #236, .F. ) ;
#160 = LINE ( 'NONE', #131, #39 ) ;
#161 = EDGE_LOOP ( 'NONE', ( #21, #259, #245, #118 ) ) ;
#162 = LINE ( 'NONE', #278, #163 ) ;
#163 = VECTOR ( 'NONE', #356, 1000.000000000000000 ) ;
#164 = CC_DESIGN_APPROVAL ( #64, ( #85 ) ) ;
#165 = LINE ( 'NONE', #134, #283 ) ;
#166 = ORIENTED_EDGE ( 'NONE', *, *, #45, .F. ) ;
#167 = COORDINATED_UNIVERSAL_TIME_OFFSET ( 1, 0, .AHEAD. ) ;
#168 = ADVANCED_FACE ( 'NONE', ( #62 ), #12, .F. ) ;
#169 = ORIENTED_EDGE ( 'NONE', *, *, #209, .T. ) ;
#170 = PERSON_AND_ORGANIZATION ( #50, #9 ) ;
#171 = CARTESIAN_POINT ( 'NONE',  ( 49.99999999999996447, -50.00000000000004263, -325.0000000000000000 ) ) ;
#172 = APPLICATION_PROTOCOL_DEFINITION ( 'international standard', 'config_control_design', 1994, #95 ) ;
#173 = LINE ( 'NONE', #286, #225 ) ;
#174 = EDGE_CURVE ( 'NONE', #313, #252, #324, .T. ) ;
#175 = CARTESIAN_POINT ( 'NONE',  ( -45.00000000000001421, -45.00000000000004263, 325.0000000000000000 ) ) ;
#176 = FACE_OUTER_BOUND ( 'NONE', #113, .T. ) ;
#177 = FACE_OUTER_BOUND ( 'NONE', #74, .T. ) ;
#178 = LINE ( 'NONE', #125, #116 ) ;
#179 = CC_DESIGN_PERSON_AND_ORGANIZATION_ASSIGNMENT ( #287, #117, ( #70 ) ) ;
#180 = LINE ( 'NONE', #123, #68 ) ;
#181 = CC_DESIGN_PERSON_AND_ORGANIZATION_ASSIGNMENT ( #138, #254, ( #85 ) ) ;
#182 = VECTOR ( 'NONE', #351, 1000.000000000000000 ) ;
#183 = LINE ( 'NONE', #35, #366 ) ;
#184 = DIRECTION ( 'NONE',  ( 0.000000000000000000, 0.000000000000000000, -1.000000000000000000 ) ) ;
#185 = EDGE_CURVE ( 'NONE', #17, #84, #294, .T. ) ;
#186 = FACE_OUTER_BOUND ( 'NONE', #51, .T. ) ;
#187 = CC_DESIGN_APPROVAL ( #246, ( #70 ) ) ;
#188 = CARTESIAN_POINT ( 'NONE',  ( 0.000000000000000000, 0.000000000000000000, -325.0000000000000000 ) ) ;
#189 = VERTEX_POINT ( 'NONE', #67 ) ;
#190 = PRODUCT ( 'Base_profil_cyl_mount_support_sideways_Default_sldprt', 'Base_profil_cyl_mount_support_sideways_Default_sldprt', '', ( #290 ) ) ;
#191 = DIRECTION ( 'NONE',  ( 0.000000000000000000, 0.000000000000000000, -1.000000000000000000 ) ) ;
#192 = ORIENTED_EDGE ( 'NONE', *, *, #27, .T. ) ;
#193 = DIRECTION ( 'NONE',  ( -0.000000000000000000, -0.000000000000000000, -1.000000000000000000 ) ) ;
#194 = AXIS2_PLACEMENT_3D ( 'NONE', #155, #293, #151 ) ;
#195 = CC_DESIGN_SECURITY_CLASSIFICATION ( #34, ( #85 ) ) ;
#196 = ADVANCED_FACE ( 'NONE', ( #177 ), #269, .T. ) ;
#197 = CALENDAR_DATE ( 2026, 28, 1 ) ;
#198 = APPLICATION_CONTEXT ( 'configuration controlled 3d designs of mechanical parts and assemblies' ) ;
#199 = SECURITY_CLASSIFICATION_LEVEL ( 'unclassified' ) ;
#200 = LINE ( 'NONE', #38, #182 ) ;
#201 = EDGE_LOOP ( 'NONE', ( #192, #78, #56, #169 ) ) ;
#202 = VECTOR ( 'NONE', #4, 1000.000000000000000 ) ;
#203 = EDGE_CURVE ( 'NONE', #252, #17, #183, .T. ) ;
#204 = ORIENTED_EDGE ( 'NONE', *, *, #7, .T. ) ;
#205 = DATE_TIME_ROLE ( 'classification_date' ) ;
#206 = ORIENTED_EDGE ( 'NONE', *, *, #105, .F. ) ;
#207 = PLANE ( 'NONE',  #55 ) ;
#208 = VECTOR ( 'NONE', #358, 1000.000000000000000 ) ;
#209 = EDGE_CURVE ( 'NONE', #47, #309, #211, .T. ) ;
#210 = CARTESIAN_POINT ( 'NONE',  ( -50.00000000000004263, 49.99999999999993605, 325.0000000000000000 ) ) ;
#211 = LINE ( 'NONE', #263, #2 ) ;
#212 = DIRECTION ( 'NONE',  ( -0.000000000000000000, -1.000000000000000000, -0.000000000000000000 ) ) ;
#213 = VECTOR ( 'NONE', #212, 1000.000000000000000 ) ;
#214 = DIRECTION ( 'NONE',  ( -0.000000000000000000, -0.000000000000000000, -1.000000000000000000 ) ) ;
#215 = FACE_BOUND ( 'NONE', #110, .T. ) ;
#216 = DIRECTION ( 'NONE',  ( -1.000000000000000000, -0.000000000000000000, -0.000000000000000000 ) ) ;
#217 = ORIENTED_EDGE ( 'NONE', *, *, #132, .F. ) ;
#218 = DIRECTION ( 'NONE',  ( -2.775557561562891844E-16, 1.000000000000000000, 0.000000000000000000 ) ) ;
#219 = ORIENTED_EDGE ( 'NONE', *, *, #277, .T. ) ;
#220 = LOCAL_TIME ( 13, 25, 44.00000000000000000, #167 ) ;
#221 = FACE_OUTER_BOUND ( 'NONE', #279, .T. ) ;
#222 = ORIENTED_EDGE ( 'NONE', *, *, #305, .T. ) ;
#223 = PLANE ( 'NONE',  #315 ) ;
#224 = DIRECTION ( 'NONE',  ( 1.000000000000000000, 0.000000000000000000, 0.000000000000000000 ) ) ;
#225 = VECTOR ( 'NONE', #53, 1000.000000000000000 ) ;
#226 = DATE_AND_TIME ( #197, #153 ) ;
#227 = EDGE_LOOP ( 'NONE', ( #166, #257, #58, #115 ) ) ;
#228 = ADVANCED_FACE ( 'NONE', ( #66 ), #237, .F. ) ;
#229 = APPROVAL_DATE_TIME ( #318, #248 ) ;
#230 = VERTEX_POINT ( 'NONE', #267 ) ;
#231 = APPROVAL_STATUS ( 'not_yet_approved' ) ;
#232 = ORIENTED_EDGE ( 'NONE', *, *, #350, .F. ) ;
#233 = COORDINATED_UNIVERSAL_TIME_OFFSET ( 1, 0, .AHEAD. ) ;
#234 = ORIENTED_EDGE ( 'NONE', *, *, #132, .T. ) ;
#235 = CARTESIAN_POINT ( 'NONE',  ( 49.99999999999993605, 49.99999999999993605, 325.0000000000000000 ) ) ;
#236 = EDGE_CURVE ( 'NONE', #282, #84, #180, .T. ) ;
#237 = PLANE ( 'NONE',  #13 ) ;
#238 = PLANE ( 'NONE',  #343 ) ;
#239 = CARTESIAN_POINT ( 'NONE',  ( -45.00000000000001421, -45.00000000000004263, -325.0000000000000000 ) ) ;
#240 = EDGE_CURVE ( 'NONE', #28, #357, #323, .T. ) ;
#241 = FACE_OUTER_BOUND ( 'NONE', #253, .T. ) ;
#242 = VECTOR ( 'NONE', #75, 1000.000000000000000 ) ;
#243 = DIRECTION ( 'NONE',  ( 0.000000000000000000, -0.000000000000000000, -1.000000000000000000 ) ) ;
#244 = DIRECTION ( 'NONE',  ( 0.000000000000000000, 1.000000000000000000, 0.000000000000000000 ) ) ;
#245 = ORIENTED_EDGE ( 'NONE', *, *, #174, .F. ) ;
#246 = APPROVAL ( #231, 'UNSPECIFIED' ) ;
#247 = FACE_OUTER_BOUND ( 'NONE', #86, .T. ) ;
#248 = APPROVAL ( #261, 'UNSPECIFIED' ) ;
#249 = CARTESIAN_POINT ( 'NONE',  ( -45.00000000000001421, -45.00000000000004263, -325.0000000000000000 ) ) ;
#250 = LOCAL_TIME ( 13, 25, 44.00000000000000000, #256 ) ;
#251 = DIRECTION ( 'NONE',  ( 2.775557561562891844E-16, -1.000000000000000000, 0.000000000000000000 ) ) ;
#252 = VERTEX_POINT ( 'NONE', #296 ) ;
#253 = EDGE_LOOP ( 'NONE', ( #317, #159, #206, #99 ) ) ;
#254 = PERSON_AND_ORGANIZATION_ROLE ( 'design_supplier' ) ;
#255 = DIRECTION ( 'NONE',  ( -6.167905692361983519E-16, 1.000000000000000000, 0.000000000000000000 ) ) ;
#256 = COORDINATED_UNIVERSAL_TIME_OFFSET ( 1, 0, .AHEAD. ) ;
#257 = ORIENTED_EDGE ( 'NONE', *, *, #372, .F. ) ;
#258 = PERSON_AND_ORGANIZATION ( #50, #9 ) ;
#259 = ORIENTED_EDGE ( 'NONE', *, *, #203, .F. ) ;
#260 = ORIENTED_EDGE ( 'NONE', *, *, #305, .F. ) ;
#261 = APPROVAL_STATUS ( 'not_yet_approved' ) ;
#262 = CARTESIAN_POINT ( 'NONE',  ( -45.00000000000001421, -45.00000000000004263, -325.0000000000000000 ) ) ;
#263 = CARTESIAN_POINT ( 'NONE',  ( 49.99999999999993605, 49.99999999999993605, 325.0000000000000000 ) ) ;
#264 = CC_DESIGN_DATE_AND_TIME_ASSIGNMENT ( #311, #205, ( #34 ) ) ;
#265 = PLANE ( 'NONE',  #102 ) ;
#266 = AXIS2_PLACEMENT_3D ( 'NONE', #188, #191, #303 ) ;
#267 = CARTESIAN_POINT ( 'NONE',  ( 44.99999999999995737, 44.99999999999992895, -325.0000000000000000 ) ) ;
#268 = LINE ( 'NONE', #327, #94 ) ;
#269 = PLANE ( 'NONE',  #194 ) ;
#270 = VECTOR ( 'NONE', #255, 1000.000000000000000 ) ;
#271 = DIRECTION ( 'NONE',  ( 1.000000000000000000, 0.000000000000000000, 0.000000000000000000 ) ) ;
#272 = EDGE_CURVE ( 'NONE', #230, #28, #268, .T. ) ;
#273 = CARTESIAN_POINT ( 'NONE',  ( -45.00000000000001421, -45.00000000000004263, 325.0000000000000000 ) ) ;
#274 = ORIENTED_EDGE ( 'NONE', *, *, #332, .F. ) ;
#275 = CARTESIAN_POINT ( 'NONE',  ( 45.00000000000001421, -45.00000000000004263, -325.0000000000000000 ) ) ;
#276 = APPROVAL_PERSON_ORGANIZATION ( #57, #248, #141 ) ;
#277 = EDGE_CURVE ( 'NONE', #84, #309, #14, .T. ) ;
#278 = CARTESIAN_POINT ( 'NONE',  ( -50.00000000000004263, 49.99999999999993605, 325.0000000000000000 ) ) ;
#279 = EDGE_LOOP ( 'NONE', ( #219, #371, #274, #137 ) ) ;
#280 = DIRECTION ( 'NONE',  ( -1.000000000000000000, -6.167905692361983519E-16, 0.000000000000000000 ) ) ;
#281 = DATE_AND_TIME ( #22, #220 ) ;
#282 = VERTEX_POINT ( 'NONE', #129 ) ;
#283 = VECTOR ( 'NONE', #218, 1000.000000000000000 ) ;
#284 = CC_DESIGN_DATE_AND_TIME_ASSIGNMENT ( #226, #52, ( #70 ) ) ;
#285 = APPROVAL_DATE_TIME ( #281, #64 ) ;
#286 = CARTESIAN_POINT ( 'NONE',  ( -50.00000000000004263, 49.99999999999993605, -325.0000000000000000 ) ) ;
#287 = PERSON_AND_ORGANIZATION ( #50, #9 ) ;
#288 = EDGE_LOOP ( 'NONE', ( #101, #30, #89, #222 ) ) ;
#289 = ADVANCED_BREP_SHAPE_REPRESENTATION ( 'Base_profil_cyl_mount_support_sideways_Default_sldprt', ( #361, #330 ), #300 ) ;
#290 = MECHANICAL_CONTEXT ( 'NONE', #198, 'mechanical' ) ;
#291 = CARTESIAN_POINT ( 'NONE',  ( 45.00000000000001421, -45.00000000000004263, 325.0000000000000000 ) ) ;
#292 = VECTOR ( 'NONE', #216, 1000.000000000000000 ) ;
#293 = DIRECTION ( 'NONE',  ( 0.000000000000000000, -1.000000000000000000, 0.000000000000000000 ) ) ;
#294 = LINE ( 'NONE', #122, #147 ) ;
#295 = CARTESIAN_POINT ( 'NONE',  ( 0.000000000000000000, 0.000000000000000000, 325.0000000000000000 ) ) ;
#296 = CARTESIAN_POINT ( 'NONE',  ( -50.00000000000004263, -50.00000000000004263, 325.0000000000000000 ) ) ;
#297 = FACE_OUTER_BOUND ( 'NONE', #104, .T. ) ;
#298 = ADVANCED_FACE ( 'NONE', ( #247, #77 ), #329, .T. ) ;
#299 = DIRECTION ( 'NONE',  ( 0.000000000000000000, -0.000000000000000000, 1.000000000000000000 ) ) ;
#300 =( GEOMETRIC_REPRESENTATION_CONTEXT ( 3 ) GLOBAL_UNCERTAINTY_ASSIGNED_CONTEXT ( ( #373 ) ) GLOBAL_UNIT_ASSIGNED_CONTEXT ( ( #136, #363, #328 ) ) REPRESENTATION_CONTEXT ( 'NONE', 'WORKASPACE' ) );
#301 = LOCAL_TIME ( 13, 25, 44.00000000000000000, #148 ) ;
#302 = ORIENTED_EDGE ( 'NONE', *, *, #7, .F. ) ;
#303 = DIRECTION ( 'NONE',  ( -1.000000000000000000, 0.000000000000000000, -0.000000000000000000 ) ) ;
#304 = ORIENTED_EDGE ( 'NONE', *, *, #97, .T. ) ;
#305 = EDGE_CURVE ( 'NONE', #346, #230, #71, .T. ) ;
#306 = CARTESIAN_POINT ( 'NONE',  ( 45.00000000000001421, -45.00000000000004263, -325.0000000000000000 ) ) ;
#307 = DIRECTION ( 'NONE',  ( -0.000000000000000000, -0.000000000000000000, -1.000000000000000000 ) ) ;
#308 = VECTOR ( 'NONE', #10, 1000.000000000000000 ) ;
#309 = VERTEX_POINT ( 'NONE', #103 ) ;
#310 = LOCAL_TIME ( 13, 25, 44.00000000000000000, #233 ) ;
#311 = DATE_AND_TIME ( #365, #301 ) ;
#312 = ADVANCED_FACE ( 'NONE', ( #186 ), #16, .T. ) ;
#313 = VERTEX_POINT ( 'NONE', #43 ) ;
#314 = CARTESIAN_POINT ( 'NONE',  ( -50.00000000000004263, -50.00000000000004263, -325.0000000000000000 ) ) ;
#315 = AXIS2_PLACEMENT_3D ( 'NONE', #100, #244, #299 ) ;
#316 = APPROVAL_DATE_TIME ( #54, #246 ) ;
#317 = ORIENTED_EDGE ( 'NONE', *, *, #185, .T. ) ;
#318 = DATE_AND_TIME ( #369, #310 ) ;
#319 = ADVANCED_FACE ( 'NONE', ( #48 ), #223, .T. ) ;
#320 = CARTESIAN_POINT ( 'NONE',  ( -45.00000000000001421, 44.99999999999992895, -325.0000000000000000 ) ) ;
#321 = ORIENTED_EDGE ( 'NONE', *, *, #277, .F. ) ;
#322 = VECTOR ( 'NONE', #126, 1000.000000000000000 ) ;
#323 = LINE ( 'NONE', #239, #213 ) ;
#324 = LINE ( 'NONE', #93, #322 ) ;
#325 = DIRECTION ( 'NONE',  ( 0.000000000000000000, -0.000000000000000000, 1.000000000000000000 ) ) ;
#326 = VECTOR ( 'NONE', #121, 1000.000000000000000 ) ;
#327 = CARTESIAN_POINT ( 'NONE',  ( -45.00000000000001421, 44.99999999999992895, -325.0000000000000000 ) ) ;
#328 =( NAMED_UNIT ( * ) SI_UNIT ( $, .STERADIAN. ) SOLID_ANGLE_UNIT ( ) );
#329 = PLANE ( 'NONE',  #266 ) ;
#330 = AXIS2_PLACEMENT_3D ( 'NONE', #59, #3, #224 ) ;
#331 = LINE ( 'NONE', #18, #292 ) ;
#332 = EDGE_CURVE ( 'NONE', #282, #47, #165, .T. ) ;
#333 = CARTESIAN_POINT ( 'NONE',  ( 49.99999999999996447, -50.00000000000004263, 325.0000000000000000 ) ) ;
#334 = VERTEX_POINT ( 'NONE', #156 ) ;
#335 = COORDINATED_UNIVERSAL_TIME_OFFSET ( 1, 0, .AHEAD. ) ;
#336 = ORIENTED_EDGE ( 'NONE', *, *, #332, .T. ) ;
#337 = EDGE_CURVE ( 'NONE', #313, #334, #162, .T. ) ;
#338 = APPROVAL_ROLE ( '' ) ;
#339 = LINE ( 'NONE', #367, #33 ) ;
#340 = SHAPE_DEFINITION_REPRESENTATION ( #124, #289 ) ;
#341 = VERTEX_POINT ( 'NONE', #98 ) ;
#342 = ORIENTED_EDGE ( 'NONE', *, *, #76, .F. ) ;
#343 = AXIS2_PLACEMENT_3D ( 'NONE', #353, #69, #325 ) ;
#344 = ADVANCED_FACE ( 'NONE', ( #221 ), #42, .F. ) ;
#345 = PERSON_AND_ORGANIZATION_ROLE ( 'design_owner' ) ;
#346 = VERTEX_POINT ( 'NONE', #275 ) ;
#347 = LINE ( 'NONE', #139, #270 ) ;
#348 = DIRECTION ( 'NONE',  ( 0.000000000000000000, -1.000000000000000000, 0.000000000000000000 ) ) ;
#349 = APPROVAL_PERSON_ORGANIZATION ( #258, #246, #338 ) ;
#350 = EDGE_CURVE ( 'NONE', #370, #346, #160, .T. ) ;
#351 = DIRECTION ( 'NONE',  ( -0.000000000000000000, -0.000000000000000000, -1.000000000000000000 ) ) ;
#352 = DIRECTION ( 'NONE',  ( -0.000000000000000000, -0.000000000000000000, -1.000000000000000000 ) ) ;
#353 = CARTESIAN_POINT ( 'NONE',  ( -50.00000000000004263, -50.00000000000004263, 325.0000000000000000 ) ) ;
#354 = CLOSED_SHELL ( 'NONE', ( #119, #298, #168, #111, #344, #228, #312, #319, #36, #196 ) ) ;
#355 = DIRECTION ( 'NONE',  ( -1.000000000000000000, -0.000000000000000000, -0.000000000000000000 ) ) ;
#356 = DIRECTION ( 'NONE',  ( -0.000000000000000000, -0.000000000000000000, -1.000000000000000000 ) ) ;
#357 = VERTEX_POINT ( 'NONE', #249 ) ;
#358 = DIRECTION ( 'NONE',  ( -6.167905692361983519E-16, 1.000000000000000000, 0.000000000000000000 ) ) ;
#359 = CARTESIAN_POINT ( 'NONE',  ( 44.99999999999995737, 44.99999999999992895, 325.0000000000000000 ) ) ;
#360 = CARTESIAN_POINT ( 'NONE',  ( 45.00000000000001421, -45.00000000000004263, 325.0000000000000000 ) ) ;
#361 = MANIFOLD_SOLID_BREP ( 'Boss-Extrude1', #354 ) ;
#362 = VERTEX_POINT ( 'NONE', #359 ) ;
#363 =( NAMED_UNIT ( * ) PLANE_ANGLE_UNIT ( ) SI_UNIT ( $, .RADIAN. ) );
#364 = EDGE_CURVE ( 'NONE', #362, #189, #331, .T. ) ;
#365 = CALENDAR_DATE ( 2026, 28, 1 ) ;
#366 = VECTOR ( 'NONE', #91, 1000.000000000000000 ) ;
#367 = CARTESIAN_POINT ( 'NONE',  ( -50.00000000000004263, -50.00000000000004263, -325.0000000000000000 ) ) ;
#368 = PRODUCT_RELATED_PRODUCT_CATEGORY ( 'detail', '', ( #190 ) ) ;
#369 = CALENDAR_DATE ( 2026, 28, 1 ) ;
#370 = VERTEX_POINT ( 'NONE', #360 ) ;
#371 = ORIENTED_EDGE ( 'NONE', *, *, #209, .F. ) ;
#372 = EDGE_CURVE ( 'NONE', #341, #357, #106, .T. ) ;
#373 = UNCERTAINTY_MEASURE_WITH_UNIT (LENGTH_MEASURE( 1.000000000000000082E-05 ), #136, 'distance_accuracy_value', 'NONE');
ENDSEC;
END-ISO-10303-21;
