ISO-10303-21;
HEADER;
FILE_DESCRIPTION (( 'STEP AP203' ),
    '1' );
FILE_NAME ('Base_profil_base_sideways_Default_sldprt.STEP',
    '2026-01-28T12:25:40',
    ( '' ),
    ( '' ),
    'SwSTEP 2.0',
    'SolidWorks 2024',
    '' );
FILE_SCHEMA (( 'CONFIG_CONTROL_DESIGN' ));
ENDSEC;

DATA;
#1 =( NAMED_UNIT ( * ) PLANE_ANGLE_UNIT ( ) SI_UNIT ( $, .RADIAN. ) );
#2 = ORIENTED_EDGE ( 'NONE', *, *, #222, .T. ) ;
#3 = PERSON_AND_ORGANIZATION ( #82, #118 ) ;
#4 = VECTOR ( 'NONE', #173, 1000.000000000000000 ) ;
#5 = ADVANCED_FACE ( 'NONE', ( #28 ), #373, .F. ) ;
#6 = ORIENTED_EDGE ( 'NONE', *, *, #364, .T. ) ;
#7 = ORIENTED_EDGE ( 'NONE', *, *, #294, .F. ) ;
#8 = ORIENTED_EDGE ( 'NONE', *, *, #291, .F. ) ;
#9 = CALENDAR_DATE ( 2026, 28, 1 ) ;
#10 = CARTESIAN_POINT ( 'NONE',  ( -45.00000000000001421, 44.99999999999992895, 500.0000000000000000 ) ) ;
#11 = CARTESIAN_POINT ( 'NONE',  ( 49.99999999999993605, 49.99999999999993605, -500.0000000000000000 ) ) ;
#12 = DIRECTION ( 'NONE',  ( -0.000000000000000000, -1.000000000000000000, -0.000000000000000000 ) ) ;
#13 = DIRECTION ( 'NONE',  ( -2.775557561562891844E-16, 1.000000000000000000, 0.000000000000000000 ) ) ;
#14 = VECTOR ( 'NONE', #40, 1000.000000000000000 ) ;
#15 = CARTESIAN_POINT ( 'NONE',  ( 45.00000000000001421, -45.00000000000004263, -500.0000000000000000 ) ) ;
#16 = DIRECTION ( 'NONE',  ( 0.000000000000000000, -0.000000000000000000, 1.000000000000000000 ) ) ;
#17 = CARTESIAN_POINT ( 'NONE',  ( 49.99999999999996447, -50.00000000000004263, 500.0000000000000000 ) ) ;
#18 = AXIS2_PLACEMENT_3D ( 'NONE', #112, #37, #293 ) ;
#19 = ADVANCED_FACE ( 'NONE', ( #345, #84 ), #193, .T. ) ;
#20 = CARTESIAN_POINT ( 'NONE',  ( -45.00000000000001421, -45.00000000000004263, -500.0000000000000000 ) ) ;
#21 = CARTESIAN_POINT ( 'NONE',  ( -50.00000000000004263, -50.00000000000004263, 500.0000000000000000 ) ) ;
#22 = DIRECTION ( 'NONE',  ( -0.000000000000000000, -0.000000000000000000, -1.000000000000000000 ) ) ;
#23 = EDGE_LOOP ( 'NONE', ( #59, #314, #255, #7 ) ) ;
#24 = LOCAL_TIME ( 13, 25, 40.00000000000000000, #190 ) ;
#25 = ORIENTED_EDGE ( 'NONE', *, *, #160, .T. ) ;
#26 = ADVANCED_FACE ( 'NONE', ( #297 ), #60, .T. ) ;
#27 = CALENDAR_DATE ( 2026, 28, 1 ) ;
#28 = FACE_OUTER_BOUND ( 'NONE', #183, .T. ) ;
#29 = APPROVAL_PERSON_ORGANIZATION ( #279, #281, #341 ) ;
#30 = DIRECTION ( 'NONE',  ( 0.000000000000000000, 0.000000000000000000, 1.000000000000000000 ) ) ;
#31 = AXIS2_PLACEMENT_3D ( 'NONE', #62, #296, #197 ) ;
#32 = EDGE_LOOP ( 'NONE', ( #110, #130, #337, #78 ) ) ;
#33 = ORIENTED_EDGE ( 'NONE', *, *, #222, .F. ) ;
#34 = CARTESIAN_POINT ( 'NONE',  ( -50.00000000000004263, -50.00000000000004263, -500.0000000000000000 ) ) ;
#35 = FACE_OUTER_BOUND ( 'NONE', #211, .T. ) ;
#36 = CARTESIAN_POINT ( 'NONE',  ( -50.00000000000004263, -50.00000000000004263, 500.0000000000000000 ) ) ;
#37 = DIRECTION ( 'NONE',  ( 0.000000000000000000, 1.000000000000000000, 0.000000000000000000 ) ) ;
#38 = DIRECTION ( 'NONE',  ( -0.000000000000000000, -0.000000000000000000, -1.000000000000000000 ) ) ;
#39 = LINE ( 'NONE', #365, #326 ) ;
#40 = DIRECTION ( 'NONE',  ( 1.000000000000000000, 0.000000000000000000, 0.000000000000000000 ) ) ;
#41 = DIRECTION ( 'NONE',  ( 2.775557561562891844E-16, -1.000000000000000000, 0.000000000000000000 ) ) ;
#42 = CLOSED_SHELL ( 'NONE', ( #89, #19, #5, #247, #316, #116, #236, #114, #26, #177 ) ) ;
#43 = LINE ( 'NONE', #182, #334 ) ;
#44 = CARTESIAN_POINT ( 'NONE',  ( -45.00000000000001421, 44.99999999999992895, 500.0000000000000000 ) ) ;
#45 = EDGE_CURVE ( 'NONE', #129, #55, #233, .T. ) ;
#46 = CC_DESIGN_DATE_AND_TIME_ASSIGNMENT ( #52, #105, ( #67 ) ) ;
#47 = DIRECTION ( 'NONE',  ( -1.000000000000000000, -0.000000000000000000, -0.000000000000000000 ) ) ;
#48 = VERTEX_POINT ( 'NONE', #145 ) ;
#49 = DIRECTION ( 'NONE',  ( 1.000000000000000000, 0.000000000000000000, 0.000000000000000000 ) ) ;
#50 = ORIENTED_EDGE ( 'NONE', *, *, #174, .T. ) ;
#51 = EDGE_CURVE ( 'NONE', #55, #137, #320, .T. ) ;
#52 = DATE_AND_TIME ( #312, #24 ) ;
#53 = ORIENTED_EDGE ( 'NONE', *, *, #51, .F. ) ;
#54 = CC_DESIGN_DATE_AND_TIME_ASSIGNMENT ( #289, #194, ( #322 ) ) ;
#55 = VERTEX_POINT ( 'NONE', #64 ) ;
#56 = LOCAL_TIME ( 13, 25, 40.00000000000000000, #248 ) ;
#57 = VECTOR ( 'NONE', #47, 1000.000000000000000 ) ;
#58 = COORDINATED_UNIVERSAL_TIME_OFFSET ( 1, 0, .AHEAD. ) ;
#59 = ORIENTED_EDGE ( 'NONE', *, *, #208, .F. ) ;
#60 = PLANE ( 'NONE',  #31 ) ;
#61 = CARTESIAN_POINT ( 'NONE',  ( 0.000000000000000000, 0.000000000000000000, 500.0000000000000000 ) ) ;
#62 = CARTESIAN_POINT ( 'NONE',  ( 45.00000000000001421, -45.00000000000004263, 500.0000000000000000 ) ) ;
#63 = EDGE_CURVE ( 'NONE', #317, #276, #140, .T. ) ;
#64 = CARTESIAN_POINT ( 'NONE',  ( 45.00000000000001421, -45.00000000000004263, -500.0000000000000000 ) ) ;
#65 = CARTESIAN_POINT ( 'NONE',  ( 45.00000000000001421, -45.00000000000004263, 500.0000000000000000 ) ) ;
#66 = FACE_OUTER_BOUND ( 'NONE', #96, .T. ) ;
#67 = SECURITY_CLASSIFICATION ( '', '', #77 ) ;
#68 = DIRECTION ( 'NONE',  ( -0.000000000000000000, -0.000000000000000000, -1.000000000000000000 ) ) ;
#69 = PLANE ( 'NONE',  #119 ) ;
#70 = CC_DESIGN_APPROVAL ( #281, ( #352 ) ) ;
#71 = CARTESIAN_POINT ( 'NONE',  ( -45.00000000000001421, -45.00000000000004263, 500.0000000000000000 ) ) ;
#72 = VECTOR ( 'NONE', #83, 1000.000000000000000 ) ;
#73 = CARTESIAN_POINT ( 'NONE',  ( 49.99999999999996447, -50.00000000000004263, 500.0000000000000000 ) ) ;
#74 = ORIENTED_EDGE ( 'NONE', *, *, #63, .T. ) ;
#75 = LINE ( 'NONE', #128, #72 ) ;
#76 = ORIENTED_EDGE ( 'NONE', *, *, #303, .F. ) ;
#77 = SECURITY_CLASSIFICATION_LEVEL ( 'unclassified' ) ;
#78 = ORIENTED_EDGE ( 'NONE', *, *, #372, .T. ) ;
#79 = PERSON_AND_ORGANIZATION_ROLE ( 'classification_officer' ) ;
#80 = ORIENTED_EDGE ( 'NONE', *, *, #109, .T. ) ;
#81 = EDGE_CURVE ( 'NONE', #191, #108, #120, .T. ) ;
#82 = PERSON ( 'UNSPECIFIED', 'UNSPECIFIED', 'UNSPECIFIED', ('UNSPECIFIED'), ('UNSPECIFIED'), ('UNSPECIFIED') ) ;
#83 = DIRECTION ( 'NONE',  ( -0.000000000000000000, -0.000000000000000000, -1.000000000000000000 ) ) ;
#84 = FACE_BOUND ( 'NONE', #189, .T. ) ;
#85 = COORDINATED_UNIVERSAL_TIME_OFFSET ( 1, 0, .AHEAD. ) ;
#86 = VERTEX_POINT ( 'NONE', #117 ) ;
#87 = CARTESIAN_POINT ( 'NONE',  ( -50.00000000000004263, 49.99999999999993605, 500.0000000000000000 ) ) ;
#88 = DIRECTION ( 'NONE',  ( 0.000000000000000000, 0.000000000000000000, -1.000000000000000000 ) ) ;
#89 = ADVANCED_FACE ( 'NONE', ( #35, #259 ), #356, .F. ) ;
#90 = CARTESIAN_POINT ( 'NONE',  ( 44.99999999999995737, 44.99999999999992895, -500.0000000000000000 ) ) ;
#91 = CARTESIAN_POINT ( 'NONE',  ( 0.000000000000000000, 0.000000000000000000, -500.0000000000000000 ) ) ;
#92 = VECTOR ( 'NONE', #350, 1000.000000000000000 ) ;
#93 = DIRECTION ( 'NONE',  ( -1.000000000000000000, 0.000000000000000000, -0.000000000000000000 ) ) ;
#94 = CARTESIAN_POINT ( 'NONE',  ( 44.99999999999995737, 44.99999999999992895, 500.0000000000000000 ) ) ;
#95 = LINE ( 'NONE', #332, #163 ) ;
#96 = EDGE_LOOP ( 'NONE', ( #215, #76, #80, #347 ) ) ;
#97 = CC_DESIGN_APPROVAL ( #361, ( #67 ) ) ;
#98 = DIRECTION ( 'NONE',  ( 1.000000000000000000, 0.000000000000000000, 0.000000000000000000 ) ) ;
#99 = DIRECTION ( 'NONE',  ( 1.000000000000000000, 0.000000000000000000, 0.000000000000000000 ) ) ;
#100 = CARTESIAN_POINT ( 'NONE',  ( -50.00000000000004263, 49.99999999999993605, 500.0000000000000000 ) ) ;
#101 = PERSON_AND_ORGANIZATION_ROLE ( 'creator' ) ;
#102 = DATE_AND_TIME ( #164, #234 ) ;
#103 = ORIENTED_EDGE ( 'NONE', *, *, #174, .F. ) ;
#104 = ORIENTED_EDGE ( 'NONE', *, *, #51, .T. ) ;
#105 = DATE_TIME_ROLE ( 'classification_date' ) ;
#106 = DIRECTION ( 'NONE',  ( 1.000000000000000000, 0.000000000000000000, 0.000000000000000000 ) ) ;
#107 = PERSON_AND_ORGANIZATION ( #82, #118 ) ;
#108 = VERTEX_POINT ( 'NONE', #121 ) ;
#109 = EDGE_CURVE ( 'NONE', #206, #132, #349, .T. ) ;
#110 = ORIENTED_EDGE ( 'NONE', *, *, #201, .T. ) ;
#111 = CC_DESIGN_PERSON_AND_ORGANIZATION_ASSIGNMENT ( #338, #339, ( #352 ) ) ;
#112 = CARTESIAN_POINT ( 'NONE',  ( -45.00000000000001421, -45.00000000000004263, 500.0000000000000000 ) ) ;
#113 = CC_DESIGN_SECURITY_CLASSIFICATION ( #67, ( #352 ) ) ;
#114 = ADVANCED_FACE ( 'NONE', ( #238 ), #292, .T. ) ;
#115 = LINE ( 'NONE', #321, #199 ) ;
#116 = ADVANCED_FACE ( 'NONE', ( #262 ), #351, .F. ) ;
#117 = CARTESIAN_POINT ( 'NONE',  ( 49.99999999999996447, -50.00000000000004263, -500.0000000000000000 ) ) ;
#118 = ORGANIZATION ( 'UNSPECIFIED', 'UNSPECIFIED', '' ) ;
#119 = AXIS2_PLACEMENT_3D ( 'NONE', #17, #179, #41 ) ;
#120 = LINE ( 'NONE', #34, #342 ) ;
#121 = CARTESIAN_POINT ( 'NONE',  ( -50.00000000000004263, -50.00000000000004263, -500.0000000000000000 ) ) ;
#122 = DIRECTION ( 'NONE',  ( 0.000000000000000000, 0.000000000000000000, -1.000000000000000000 ) ) ;
#123 = VERTEX_POINT ( 'NONE', #11 ) ;
#124 = LINE ( 'NONE', #307, #256 ) ;
#125 = CARTESIAN_POINT ( 'NONE',  ( -45.00000000000001421, 44.99999999999992895, -500.0000000000000000 ) ) ;
#126 = VERTEX_POINT ( 'NONE', #196 ) ;
#127 = LINE ( 'NONE', #329, #360 ) ;
#128 = CARTESIAN_POINT ( 'NONE',  ( 49.99999999999993605, 49.99999999999993605, 500.0000000000000000 ) ) ;
#129 = VERTEX_POINT ( 'NONE', #200 ) ;
#130 = ORIENTED_EDGE ( 'NONE', *, *, #141, .F. ) ;
#131 = ORIENTED_EDGE ( 'NONE', *, *, #201, .F. ) ;
#132 = VERTEX_POINT ( 'NONE', #10 ) ;
#133 = AXIS2_PLACEMENT_3D ( 'NONE', #44, #175, #242 ) ;
#134 = MECHANICAL_CONTEXT ( 'NONE', #348, 'mechanical' ) ;
#135 = ORIENTED_EDGE ( 'NONE', *, *, #319, .F. ) ;
#136 = EDGE_CURVE ( 'NONE', #155, #108, #115, .T. ) ;
#137 = VERTEX_POINT ( 'NONE', #90 ) ;
#138 = AXIS2_PLACEMENT_3D ( 'NONE', #153, #367, #16 ) ;
#139 = LINE ( 'NONE', #166, #304 ) ;
#140 = LINE ( 'NONE', #263, #323 ) ;
#141 = EDGE_CURVE ( 'NONE', #126, #191, #139, .T. ) ;
#142 = LINE ( 'NONE', #235, #151 ) ;
#143 = ADVANCED_BREP_SHAPE_REPRESENTATION ( 'Base_profil_base_sideways_Default_sldprt', ( #271, #333 ), #284 ) ;
#144 = DIRECTION ( 'NONE',  ( 0.000000000000000000, -1.000000000000000000, 0.000000000000000000 ) ) ;
#145 = CARTESIAN_POINT ( 'NONE',  ( 49.99999999999993605, 49.99999999999993605, 500.0000000000000000 ) ) ;
#146 = DIRECTION ( 'NONE',  ( -6.167905692361983519E-16, 1.000000000000000000, 0.000000000000000000 ) ) ;
#147 = ORIENTED_EDGE ( 'NONE', *, *, #136, .T. ) ;
#148 = LINE ( 'NONE', #94, #286 ) ;
#149 = EDGE_CURVE ( 'NONE', #137, #317, #232, .T. ) ;
#150 = LINE ( 'NONE', #298, #154 ) ;
#151 = VECTOR ( 'NONE', #264, 1000.000000000000000 ) ;
#152 = FACE_OUTER_BOUND ( 'NONE', #162, .T. ) ;
#153 = CARTESIAN_POINT ( 'NONE',  ( -50.00000000000004263, -50.00000000000004263, 500.0000000000000000 ) ) ;
#154 = VECTOR ( 'NONE', #185, 1000.000000000000000 ) ;
#155 = VERTEX_POINT ( 'NONE', #36 ) ;
#156 = PERSON_AND_ORGANIZATION ( #82, #118 ) ;
#157 = ORIENTED_EDGE ( 'NONE', *, *, #257, .T. ) ;
#158 = APPLICATION_PROTOCOL_DEFINITION ( 'international standard', 'config_control_design', 1994, #168 ) ;
#159 = EDGE_LOOP ( 'NONE', ( #53, #363, #283, #252 ) ) ;
#160 = EDGE_CURVE ( 'NONE', #108, #86, #142, .T. ) ;
#161 = LOCAL_TIME ( 13, 25, 40.00000000000000000, #85 ) ;
#162 = EDGE_LOOP ( 'NONE', ( #306, #8, #300, #229 ) ) ;
#163 = VECTOR ( 'NONE', #68, 1000.000000000000000 ) ;
#164 = CALENDAR_DATE ( 2026, 28, 1 ) ;
#165 = EDGE_LOOP ( 'NONE', ( #135, #302, #366, #290 ) ) ;
#166 = CARTESIAN_POINT ( 'NONE',  ( -50.00000000000004263, 49.99999999999993605, 500.0000000000000000 ) ) ;
#167 = CARTESIAN_POINT ( 'NONE',  ( -45.00000000000001421, 44.99999999999992895, 500.0000000000000000 ) ) ;
#168 = APPLICATION_CONTEXT ( 'configuration controlled 3d designs of mechanical parts and assemblies' ) ;
#169 = AXIS2_PLACEMENT_3D ( 'NONE', #61, #202, #318 ) ;
#170 = CARTESIAN_POINT ( 'NONE',  ( -45.00000000000001421, 44.99999999999992895, -500.0000000000000000 ) ) ;
#171 = PRODUCT ( 'Base_profil_base_sideways_Default_sldprt', 'Base_profil_base_sideways_Default_sldprt', '', ( #134 ) ) ;
#172 = CARTESIAN_POINT ( 'NONE',  ( 49.99999999999996447, -50.00000000000004263, -500.0000000000000000 ) ) ;
#173 = DIRECTION ( 'NONE',  ( -0.000000000000000000, -0.000000000000000000, -1.000000000000000000 ) ) ;
#174 = EDGE_CURVE ( 'NONE', #86, #123, #354, .T. ) ;
#175 = DIRECTION ( 'NONE',  ( 0.000000000000000000, -1.000000000000000000, 0.000000000000000000 ) ) ;
#176 = CARTESIAN_POINT ( 'NONE',  ( -45.00000000000001421, 44.99999999999992895, 500.0000000000000000 ) ) ;
#177 = ADVANCED_FACE ( 'NONE', ( #66 ), #241, .T. ) ;
#178 = EDGE_LOOP ( 'NONE', ( #50, #309, #209, #340 ) ) ;
#179 = DIRECTION ( 'NONE',  ( -1.000000000000000000, -2.775557561562891844E-16, 0.000000000000000000 ) ) ;
#180 = APPROVAL_PERSON_ORGANIZATION ( #186, #251, #346 ) ;
#181 = CC_DESIGN_PERSON_AND_ORGANIZATION_ASSIGNMENT ( #3, #219, ( #322 ) ) ;
#182 = CARTESIAN_POINT ( 'NONE',  ( -45.00000000000001421, -45.00000000000004263, -500.0000000000000000 ) ) ;
#183 = EDGE_LOOP ( 'NONE', ( #311, #278, #253, #249 ) ) ;
#184 = AXIS2_PLACEMENT_3D ( 'NONE', #87, #144, #325 ) ;
#185 = DIRECTION ( 'NONE',  ( -0.000000000000000000, -1.000000000000000000, -0.000000000000000000 ) ) ;
#186 = PERSON_AND_ORGANIZATION ( #82, #118 ) ;
#187 = VECTOR ( 'NONE', #210, 1000.000000000000000 ) ;
#188 = ORIENTED_EDGE ( 'NONE', *, *, #149, .T. ) ;
#189 = EDGE_LOOP ( 'NONE', ( #188, #74, #228, #104 ) ) ;
#190 = COORDINATED_UNIVERSAL_TIME_OFFSET ( 1, 0, .AHEAD. ) ;
#191 = VERTEX_POINT ( 'NONE', #336 ) ;
#192 = APPROVAL_ROLE ( '' ) ;
#193 = PLANE ( 'NONE',  #335 ) ;
#194 = DATE_TIME_ROLE ( 'creation_date' ) ;
#195 = VERTEX_POINT ( 'NONE', #73 ) ;
#196 = CARTESIAN_POINT ( 'NONE',  ( -50.00000000000004263, 49.99999999999993605, 500.0000000000000000 ) ) ;
#197 = DIRECTION ( 'NONE',  ( 6.167905692361983519E-16, -1.000000000000000000, 0.000000000000000000 ) ) ;
#198 = DIRECTION ( 'NONE',  ( -0.000000000000000000, -0.000000000000000000, -1.000000000000000000 ) ) ;
#199 = VECTOR ( 'NONE', #38, 1000.000000000000000 ) ;
#200 = CARTESIAN_POINT ( 'NONE',  ( 45.00000000000001421, -45.00000000000004263, 500.0000000000000000 ) ) ;
#201 = EDGE_CURVE ( 'NONE', #123, #191, #205, .T. ) ;
#202 = DIRECTION ( 'NONE',  ( 0.000000000000000000, 0.000000000000000000, -1.000000000000000000 ) ) ;
#203 = AXIS2_PLACEMENT_3D ( 'NONE', #270, #98, #122 ) ;
#204 = PLANE ( 'NONE',  #203 ) ;
#205 = LINE ( 'NONE', #301, #237 ) ;
#206 = VERTEX_POINT ( 'NONE', #214 ) ;
#207 = LINE ( 'NONE', #362, #187 ) ;
#208 = EDGE_CURVE ( 'NONE', #132, #287, #150, .T. ) ;
#209 = ORIENTED_EDGE ( 'NONE', *, *, #257, .F. ) ;
#210 = DIRECTION ( 'NONE',  ( -2.775557561562891844E-16, 1.000000000000000000, 0.000000000000000000 ) ) ;
#211 = EDGE_LOOP ( 'NONE', ( #343, #2, #157, #6 ) ) ;
#212 = CC_DESIGN_APPROVAL ( #251, ( #322 ) ) ;
#213 = VECTOR ( 'NONE', #22, 1000.000000000000000 ) ;
#214 = CARTESIAN_POINT ( 'NONE',  ( 44.99999999999995737, 44.99999999999992895, 500.0000000000000000 ) ) ;
#215 = ORIENTED_EDGE ( 'NONE', *, *, #149, .F. ) ;
#216 =( NAMED_UNIT ( * ) SI_UNIT ( $, .STERADIAN. ) SOLID_ANGLE_UNIT ( ) );
#217 = EDGE_CURVE ( 'NONE', #129, #206, #39, .T. ) ;
#218 = CC_DESIGN_PERSON_AND_ORGANIZATION_ASSIGNMENT ( #156, #79, ( #67 ) ) ;
#219 = PERSON_AND_ORGANIZATION_ROLE ( 'creator' ) ;
#220 = CARTESIAN_POINT ( 'NONE',  ( -50.00000000000004263, -50.00000000000004263, 500.0000000000000000 ) ) ;
#221 = APPROVAL_STATUS ( 'not_yet_approved' ) ;
#222 = EDGE_CURVE ( 'NONE', #155, #195, #127, .T. ) ;
#223 = EDGE_LOOP ( 'NONE', ( #25, #280, #33, #147 ) ) ;
#224 = VECTOR ( 'NONE', #295, 1000.000000000000000 ) ;
#225 = PERSON_AND_ORGANIZATION ( #82, #118 ) ;
#226 = DIRECTION ( 'NONE',  ( 0.000000000000000000, 0.000000000000000000, -1.000000000000000000 ) ) ;
#227 = UNCERTAINTY_MEASURE_WITH_UNIT (LENGTH_MEASURE( 1.000000000000000082E-05 ), #277, 'distance_accuracy_value', 'NONE');
#228 = ORIENTED_EDGE ( 'NONE', *, *, #319, .T. ) ;
#229 = ORIENTED_EDGE ( 'NONE', *, *, #244, .T. ) ;
#230 = SHAPE_DEFINITION_REPRESENTATION ( #357, #143 ) ;
#231 = APPROVAL_PERSON_ORGANIZATION ( #225, #361, #192 ) ;
#232 = LINE ( 'NONE', #170, #224 ) ;
#233 = LINE ( 'NONE', #65, #4 ) ;
#234 = LOCAL_TIME ( 13, 25, 40.00000000000000000, #58 ) ;
#235 = CARTESIAN_POINT ( 'NONE',  ( -50.00000000000004263, -50.00000000000004263, -500.0000000000000000 ) ) ;
#236 = ADVANCED_FACE ( 'NONE', ( #152 ), #204, .T. ) ;
#237 = VECTOR ( 'NONE', #240, 1000.000000000000000 ) ;
#238 = FACE_OUTER_BOUND ( 'NONE', #165, .T. ) ;
#239 = FACE_OUTER_BOUND ( 'NONE', #223, .T. ) ;
#240 = DIRECTION ( 'NONE',  ( -1.000000000000000000, -0.000000000000000000, -0.000000000000000000 ) ) ;
#241 = PLANE ( 'NONE',  #133 ) ;
#242 = DIRECTION ( 'NONE',  ( 0.000000000000000000, -0.000000000000000000, -1.000000000000000000 ) ) ;
#243 = DIRECTION ( 'NONE',  ( -0.000000000000000000, -1.000000000000000000, -0.000000000000000000 ) ) ;
#244 = EDGE_CURVE ( 'NONE', #287, #276, #124, .T. ) ;
#245 = APPROVAL_DATE_TIME ( #102, #281 ) ;
#246 = ORIENTED_EDGE ( 'NONE', *, *, #160, .F. ) ;
#247 = ADVANCED_FACE ( 'NONE', ( #239 ), #267, .F. ) ;
#248 = COORDINATED_UNIVERSAL_TIME_OFFSET ( 1, 0, .AHEAD. ) ;
#249 = ORIENTED_EDGE ( 'NONE', *, *, #141, .T. ) ;
#250 = APPLICATION_PROTOCOL_DEFINITION ( 'international standard', 'config_control_design', 1994, #348 ) ;
#251 = APPROVAL ( #371, 'UNSPECIFIED' ) ;
#252 = ORIENTED_EDGE ( 'NONE', *, *, #303, .T. ) ;
#253 = ORIENTED_EDGE ( 'NONE', *, *, #358, .F. ) ;
#254 = COORDINATED_UNIVERSAL_TIME_OFFSET ( 1, 0, .AHEAD. ) ;
#255 = ORIENTED_EDGE ( 'NONE', *, *, #217, .F. ) ;
#256 = VECTOR ( 'NONE', #327, 1000.000000000000000 ) ;
#257 = EDGE_CURVE ( 'NONE', #195, #48, #207, .T. ) ;
#258 = DATE_AND_TIME ( #9, #261 ) ;
#259 = FACE_BOUND ( 'NONE', #23, .T. ) ;
#260 = CC_DESIGN_PERSON_AND_ORGANIZATION_ASSIGNMENT ( #370, #101, ( #352 ) ) ;
#261 = LOCAL_TIME ( 13, 25, 40.00000000000000000, #254 ) ;
#262 = FACE_OUTER_BOUND ( 'NONE', #32, .T. ) ;
#263 = CARTESIAN_POINT ( 'NONE',  ( -45.00000000000001421, -45.00000000000004263, -500.0000000000000000 ) ) ;
#264 = DIRECTION ( 'NONE',  ( 1.000000000000000000, 0.000000000000000000, 0.000000000000000000 ) ) ;
#265 = VECTOR ( 'NONE', #243, 1000.000000000000000 ) ;
#266 = DIRECTION ( 'NONE',  ( -0.000000000000000000, -1.000000000000000000, -0.000000000000000000 ) ) ;
#267 = PLANE ( 'NONE',  #138 ) ;
#268 = FACE_OUTER_BOUND ( 'NONE', #178, .T. ) ;
#269 = VECTOR ( 'NONE', #324, 1000.000000000000000 ) ;
#270 = CARTESIAN_POINT ( 'NONE',  ( -45.00000000000001421, -45.00000000000004263, 500.0000000000000000 ) ) ;
#271 = MANIFOLD_SOLID_BREP ( 'Boss-Extrude1', #42 ) ;
#272 = LINE ( 'NONE', #21, #265 ) ;
#273 = EDGE_CURVE ( 'NONE', #195, #86, #95, .T. ) ;
#274 = DESIGN_CONTEXT ( 'detailed design', #168, 'design' ) ;
#275 = LINE ( 'NONE', #176, #213 ) ;
#276 = VERTEX_POINT ( 'NONE', #20 ) ;
#277 =( LENGTH_UNIT ( ) NAMED_UNIT ( * ) SI_UNIT ( .MILLI., .METRE. ) );
#278 = ORIENTED_EDGE ( 'NONE', *, *, #136, .F. ) ;
#279 = PERSON_AND_ORGANIZATION ( #82, #118 ) ;
#280 = ORIENTED_EDGE ( 'NONE', *, *, #273, .F. ) ;
#281 = APPROVAL ( #221, 'UNSPECIFIED' ) ;
#282 = PERSON_AND_ORGANIZATION_ROLE ( 'design_owner' ) ;
#283 = ORIENTED_EDGE ( 'NONE', *, *, #217, .T. ) ;
#284 =( GEOMETRIC_REPRESENTATION_CONTEXT ( 3 ) GLOBAL_UNCERTAINTY_ASSIGNED_CONTEXT ( ( #227 ) ) GLOBAL_UNIT_ASSIGNED_CONTEXT ( ( #277, #1, #216 ) ) REPRESENTATION_CONTEXT ( 'NONE', 'WORKASPACE' ) );
#285 = CARTESIAN_POINT ( 'NONE',  ( 0.000000000000000000, 0.000000000000000000, 0.000000000000000000 ) ) ;
#286 = VECTOR ( 'NONE', #331, 1000.000000000000000 ) ;
#287 = VERTEX_POINT ( 'NONE', #71 ) ;
#288 = VECTOR ( 'NONE', #13, 1000.000000000000000 ) ;
#289 = DATE_AND_TIME ( #27, #161 ) ;
#290 = ORIENTED_EDGE ( 'NONE', *, *, #45, .T. ) ;
#291 = EDGE_CURVE ( 'NONE', #132, #317, #275, .T. ) ;
#292 = PLANE ( 'NONE',  #18 ) ;
#293 = DIRECTION ( 'NONE',  ( 0.000000000000000000, -0.000000000000000000, 1.000000000000000000 ) ) ;
#294 = EDGE_CURVE ( 'NONE', #287, #129, #299, .T. ) ;
#295 = DIRECTION ( 'NONE',  ( -1.000000000000000000, -0.000000000000000000, -0.000000000000000000 ) ) ;
#296 = DIRECTION ( 'NONE',  ( -1.000000000000000000, -6.167905692361983519E-16, 0.000000000000000000 ) ) ;
#297 = FACE_OUTER_BOUND ( 'NONE', #159, .T. ) ;
#298 = CARTESIAN_POINT ( 'NONE',  ( -45.00000000000001421, -45.00000000000004263, 500.0000000000000000 ) ) ;
#299 = LINE ( 'NONE', #359, #14 ) ;
#300 = ORIENTED_EDGE ( 'NONE', *, *, #208, .T. ) ;
#301 = CARTESIAN_POINT ( 'NONE',  ( -50.00000000000004263, 49.99999999999993605, -500.0000000000000000 ) ) ;
#302 = ORIENTED_EDGE ( 'NONE', *, *, #244, .F. ) ;
#303 = EDGE_CURVE ( 'NONE', #206, #137, #148, .T. ) ;
#304 = VECTOR ( 'NONE', #198, 1000.000000000000000 ) ;
#305 = DIRECTION ( 'NONE',  ( 1.000000000000000000, 0.000000000000000000, 0.000000000000000000 ) ) ;
#306 = ORIENTED_EDGE ( 'NONE', *, *, #63, .F. ) ;
#307 = CARTESIAN_POINT ( 'NONE',  ( -45.00000000000001421, -45.00000000000004263, 500.0000000000000000 ) ) ;
#308 = DATE_AND_TIME ( #315, #56 ) ;
#309 = ORIENTED_EDGE ( 'NONE', *, *, #372, .F. ) ;
#310 = APPROVAL_DATE_TIME ( #308, #251 ) ;
#311 = ORIENTED_EDGE ( 'NONE', *, *, #81, .T. ) ;
#312 = CALENDAR_DATE ( 2026, 28, 1 ) ;
#313 = EDGE_LOOP ( 'NONE', ( #330, #131, #103, #246 ) ) ;
#314 = ORIENTED_EDGE ( 'NONE', *, *, #109, .F. ) ;
#315 = CALENDAR_DATE ( 2026, 28, 1 ) ;
#316 = ADVANCED_FACE ( 'NONE', ( #268 ), #69, .F. ) ;
#317 = VERTEX_POINT ( 'NONE', #125 ) ;
#318 = DIRECTION ( 'NONE',  ( -1.000000000000000000, 0.000000000000000000, -0.000000000000000000 ) ) ;
#319 = EDGE_CURVE ( 'NONE', #276, #55, #43, .T. ) ;
#320 = LINE ( 'NONE', #15, #269 ) ;
#321 = CARTESIAN_POINT ( 'NONE',  ( -50.00000000000004263, -50.00000000000004263, 500.0000000000000000 ) ) ;
#322 = PRODUCT_DEFINITION ( 'UNKNOWN', '', #352, #274 ) ;
#323 = VECTOR ( 'NONE', #12, 1000.000000000000000 ) ;
#324 = DIRECTION ( 'NONE',  ( -6.167905692361983519E-16, 1.000000000000000000, 0.000000000000000000 ) ) ;
#325 = DIRECTION ( 'NONE',  ( 0.000000000000000000, -0.000000000000000000, -1.000000000000000000 ) ) ;
#326 = VECTOR ( 'NONE', #146, 1000.000000000000000 ) ;
#327 = DIRECTION ( 'NONE',  ( -0.000000000000000000, -0.000000000000000000, -1.000000000000000000 ) ) ;
#328 = PRODUCT_RELATED_PRODUCT_CATEGORY ( 'detail', '', ( #171 ) ) ;
#329 = CARTESIAN_POINT ( 'NONE',  ( -50.00000000000004263, -50.00000000000004263, 500.0000000000000000 ) ) ;
#330 = ORIENTED_EDGE ( 'NONE', *, *, #81, .F. ) ;
#331 = DIRECTION ( 'NONE',  ( -0.000000000000000000, -0.000000000000000000, -1.000000000000000000 ) ) ;
#332 = CARTESIAN_POINT ( 'NONE',  ( 49.99999999999996447, -50.00000000000004263, 500.0000000000000000 ) ) ;
#333 = AXIS2_PLACEMENT_3D ( 'NONE', #285, #30, #49 ) ;
#334 = VECTOR ( 'NONE', #305, 1000.000000000000000 ) ;
#335 = AXIS2_PLACEMENT_3D ( 'NONE', #91, #88, #93 ) ;
#336 = CARTESIAN_POINT ( 'NONE',  ( -50.00000000000004263, 49.99999999999993605, -500.0000000000000000 ) ) ;
#337 = ORIENTED_EDGE ( 'NONE', *, *, #364, .F. ) ;
#338 = PERSON_AND_ORGANIZATION ( #82, #118 ) ;
#339 = PERSON_AND_ORGANIZATION_ROLE ( 'design_supplier' ) ;
#340 = ORIENTED_EDGE ( 'NONE', *, *, #273, .T. ) ;
#341 = APPROVAL_ROLE ( '' ) ;
#342 = VECTOR ( 'NONE', #266, 1000.000000000000000 ) ;
#343 = ORIENTED_EDGE ( 'NONE', *, *, #358, .T. ) ;
#344 = APPROVAL_STATUS ( 'not_yet_approved' ) ;
#345 = FACE_OUTER_BOUND ( 'NONE', #313, .T. ) ;
#346 = APPROVAL_ROLE ( '' ) ;
#347 = ORIENTED_EDGE ( 'NONE', *, *, #291, .T. ) ;
#348 = APPLICATION_CONTEXT ( 'configuration controlled 3d designs of mechanical parts and assemblies' ) ;
#349 = LINE ( 'NONE', #167, #92 ) ;
#350 = DIRECTION ( 'NONE',  ( -1.000000000000000000, -0.000000000000000000, -0.000000000000000000 ) ) ;
#351 = PLANE ( 'NONE',  #184 ) ;
#352 = PRODUCT_DEFINITION_FORMATION_WITH_SPECIFIED_SOURCE ( 'ANY', '', #171, .NOT_KNOWN. ) ;
#353 = APPROVAL_DATE_TIME ( #258, #361 ) ;
#354 = LINE ( 'NONE', #172, #288 ) ;
#355 = AXIS2_PLACEMENT_3D ( 'NONE', #220, #106, #226 ) ;
#356 = PLANE ( 'NONE',  #169 ) ;
#357 = PRODUCT_DEFINITION_SHAPE ( 'NONE', 'NONE',  #322 ) ;
#358 = EDGE_CURVE ( 'NONE', #126, #155, #272, .T. ) ;
#359 = CARTESIAN_POINT ( 'NONE',  ( -45.00000000000001421, -45.00000000000004263, 500.0000000000000000 ) ) ;
#360 = VECTOR ( 'NONE', #99, 1000.000000000000000 ) ;
#361 = APPROVAL ( #344, 'UNSPECIFIED' ) ;
#362 = CARTESIAN_POINT ( 'NONE',  ( 49.99999999999996447, -50.00000000000004263, 500.0000000000000000 ) ) ;
#363 = ORIENTED_EDGE ( 'NONE', *, *, #45, .F. ) ;
#364 = EDGE_CURVE ( 'NONE', #48, #126, #369, .T. ) ;
#365 = CARTESIAN_POINT ( 'NONE',  ( 45.00000000000001421, -45.00000000000004263, 500.0000000000000000 ) ) ;
#366 = ORIENTED_EDGE ( 'NONE', *, *, #294, .T. ) ;
#367 = DIRECTION ( 'NONE',  ( 0.000000000000000000, 1.000000000000000000, 0.000000000000000000 ) ) ;
#368 = CC_DESIGN_PERSON_AND_ORGANIZATION_ASSIGNMENT ( #107, #282, ( #171 ) ) ;
#369 = LINE ( 'NONE', #100, #57 ) ;
#370 = PERSON_AND_ORGANIZATION ( #82, #118 ) ;
#371 = APPROVAL_STATUS ( 'not_yet_approved' ) ;
#372 = EDGE_CURVE ( 'NONE', #48, #123, #75, .T. ) ;
#373 = PLANE ( 'NONE',  #355 ) ;
ENDSEC;
END-ISO-10303-21;
