ISO-10303-21;
HEADER;
FILE_DESCRIPTION (( 'STEP AP203' ),
    '1' );
FILE_NAME ('Base_profil_incline_Default_sldprt.STEP',
    '2026-01-28T12:25:45',
    ( '' ),
    ( '' ),
    'SwSTEP 2.0',
    'SolidWorks 2024',
    '' );
FILE_SCHEMA (( 'CONFIG_CONTROL_DESIGN' ));
ENDSEC;

DATA;
#1 = APPROVAL_STATUS ( 'not_yet_approved' ) ;
#2 = CARTESIAN_POINT ( 'NONE',  ( -50.00000000000004263, 49.99999999999993605, -1125.000000000000000 ) ) ;
#3 = APPROVAL_DATE_TIME ( #351, #348 ) ;
#4 = DIRECTION ( 'NONE',  ( -0.000000000000000000, -0.000000000000000000, -1.000000000000000000 ) ) ;
#5 = SECURITY_CLASSIFICATION ( '', '', #118 ) ;
#6 = EDGE_CURVE ( 'NONE', #304, #181, #139, .T. ) ;
#7 = PERSON_AND_ORGANIZATION_ROLE ( 'classification_officer' ) ;
#8 = CARTESIAN_POINT ( 'NONE',  ( -50.00000000000004263, -50.00000000000004263, 1125.000000000000000 ) ) ;
#9 = CARTESIAN_POINT ( 'NONE',  ( -45.00000000000001421, 44.99999999999992895, 1119.999999999999773 ) ) ;
#10 = CARTESIAN_POINT ( 'NONE',  ( 49.99999999999996447, 49.99999999999993605, -1125.000000000000000 ) ) ;
#11 = CARTESIAN_POINT ( 'NONE',  ( 49.99999999999996447, -50.00000000000004263, 1125.000000000000000 ) ) ;
#12 = PLANE ( 'NONE',  #28 ) ;
#13 = EDGE_LOOP ( 'NONE', ( #106, #306, #127, #187 ) ) ;
#14 = DIRECTION ( 'NONE',  ( -1.000000000000000000, 0.000000000000000000, 0.000000000000000000 ) ) ;
#15 = ORIENTED_EDGE ( 'NONE', *, *, #149, .T. ) ;
#16 = ORIENTED_EDGE ( 'NONE', *, *, #322, .T. ) ;
#17 =( LENGTH_UNIT ( ) NAMED_UNIT ( * ) SI_UNIT ( .MILLI., .METRE. ) );
#18 = ORIENTED_EDGE ( 'NONE', *, *, #220, .F. ) ;
#19 = VECTOR ( 'NONE', #95, 1000.000000000000000 ) ;
#20 = CC_DESIGN_DATE_AND_TIME_ASSIGNMENT ( #346, #317, ( #5 ) ) ;
#21 = DIRECTION ( 'NONE',  ( -0.000000000000000000, -0.000000000000000000, -1.000000000000000000 ) ) ;
#22 = CARTESIAN_POINT ( 'NONE',  ( 44.99999999999995737, 44.99999999999992895, -1120.000000000000000 ) ) ;
#23 = APPROVAL_DATE_TIME ( #80, #55 ) ;
#24 = VERTEX_POINT ( 'NONE', #22 ) ;
#25 = CARTESIAN_POINT ( 'NONE',  ( 0.000000000000000000, 0.000000000000000000, 0.000000000000000000 ) ) ;
#26 = CARTESIAN_POINT ( 'NONE',  ( 49.99999999999993605, 49.99999999999993605, 1125.000000000000000 ) ) ;
#27 = PERSON_AND_ORGANIZATION_ROLE ( 'creator' ) ;
#28 = AXIS2_PLACEMENT_3D ( 'NONE', #157, #36, #178 ) ;
#29 = CC_DESIGN_PERSON_AND_ORGANIZATION_ASSIGNMENT ( #75, #302, ( #123 ) ) ;
#30 = CARTESIAN_POINT ( 'NONE',  ( -50.00000000000004263, -50.00000000000004263, 1125.000000000000000 ) ) ;
#31 = CARTESIAN_POINT ( 'NONE',  ( -50.00000000000004263, 49.99999999999993605, -1125.000000000000000 ) ) ;
#32 = PERSON_AND_ORGANIZATION ( #287, #107 ) ;
#33 = VECTOR ( 'NONE', #4, 1000.000000000000000 ) ;
#34 = PERSON_AND_ORGANIZATION_ROLE ( 'design_supplier' ) ;
#35 = EDGE_CURVE ( 'NONE', #296, #181, #195, .T. ) ;
#36 = DIRECTION ( 'NONE',  ( 0.000000000000000000, -0.7071067811865557884, 0.7071067811865392461 ) ) ;
#37 = PLANE ( 'NONE',  #233 ) ;
#38 = LOCAL_TIME ( 13, 25, 45.00000000000000000, #350 ) ;
#39 = LINE ( 'NONE', #265, #321 ) ;
#40 = CARTESIAN_POINT ( 'NONE',  ( -45.00000000000001421, 44.99999999999992895, 1125.000000000000000 ) ) ;
#41 = VERTEX_POINT ( 'NONE', #282 ) ;
#42 = CARTESIAN_POINT ( 'NONE',  ( 44.99999999999995737, 44.99999999999992895, 1125.000000000000000 ) ) ;
#43 = ORIENTED_EDGE ( 'NONE', *, *, #202, .T. ) ;
#44 = VECTOR ( 'NONE', #14, 1000.000000000000000 ) ;
#45 = PLANE ( 'NONE',  #50 ) ;
#46 = ORIENTED_EDGE ( 'NONE', *, *, #254, .T. ) ;
#47 = DIRECTION ( 'NONE',  ( -1.000000000000000000, -2.775557561562891844E-16, 0.000000000000000000 ) ) ;
#48 = ORIENTED_EDGE ( 'NONE', *, *, #166, .F. ) ;
#49 = ORIENTED_EDGE ( 'NONE', *, *, #329, .T. ) ;
#50 = AXIS2_PLACEMENT_3D ( 'NONE', #141, #47, #53 ) ;
#51 = DATE_TIME_ROLE ( 'creation_date' ) ;
#52 = EDGE_LOOP ( 'NONE', ( #16, #245, #330, #43 ) ) ;
#53 = DIRECTION ( 'NONE',  ( 2.775557561562891844E-16, -1.000000000000000000, 0.000000000000000000 ) ) ;
#54 = CARTESIAN_POINT ( 'NONE',  ( -45.00000000000001421, -45.00000000000004263, 1125.000000000000000 ) ) ;
#55 = APPROVAL ( #1, 'UNSPECIFIED' ) ;
#56 = FACE_OUTER_BOUND ( 'NONE', #69, .T. ) ;
#57 = COORDINATED_UNIVERSAL_TIME_OFFSET ( 1, 0, .AHEAD. ) ;
#58 = AXIS2_PLACEMENT_3D ( 'NONE', #25, #270, #310 ) ;
#59 = DIRECTION ( 'NONE',  ( 0.000000000000000000, 1.000000000000000000, 0.000000000000000000 ) ) ;
#60 = APPROVAL_DATE_TIME ( #196, #135 ) ;
#61 = EDGE_CURVE ( 'NONE', #266, #181, #277, .T. ) ;
#62 = SHAPE_DEFINITION_REPRESENTATION ( #175, #112 ) ;
#63 = APPLICATION_CONTEXT ( 'configuration controlled 3d designs of mechanical parts and assemblies' ) ;
#64 = PLANE ( 'NONE',  #74 ) ;
#65 = LINE ( 'NONE', #328, #262 ) ;
#66 = DIRECTION ( 'NONE',  ( -0.000000000000000000, -0.000000000000000000, -1.000000000000000000 ) ) ;
#67 = VECTOR ( 'NONE', #66, 1000.000000000000000 ) ;
#68 = FACE_OUTER_BOUND ( 'NONE', #52, .T. ) ;
#69 = EDGE_LOOP ( 'NONE', ( #15, #368, #77, #359 ) ) ;
#70 = CARTESIAN_POINT ( 'NONE',  ( -50.00000000000004263, 49.99999999999993605, 1125.000000000000000 ) ) ;
#71 = ORIENTED_EDGE ( 'NONE', *, *, #352, .F. ) ;
#72 = CARTESIAN_POINT ( 'NONE',  ( 49.99999999999996447, 49.99999999999993605, -1125.000000000000000 ) ) ;
#73 = VERTEX_POINT ( 'NONE', #117 ) ;
#74 = AXIS2_PLACEMENT_3D ( 'NONE', #370, #113, #221 ) ;
#75 = PERSON_AND_ORGANIZATION ( #287, #107 ) ;
#76 = MANIFOLD_SOLID_BREP ( 'Cut-Extrude1', #360 ) ;
#77 = ORIENTED_EDGE ( 'NONE', *, *, #322, .F. ) ;
#78 = EDGE_CURVE ( 'NONE', #241, #159, #249, .T. ) ;
#79 = ORIENTED_EDGE ( 'NONE', *, *, #303, .F. ) ;
#80 = DATE_AND_TIME ( #219, #247 ) ;
#81 = DIRECTION ( 'NONE',  ( -0.000000000000000000, -0.000000000000000000, -1.000000000000000000 ) ) ;
#82 = VECTOR ( 'NONE', #155, 1000.000000000000114 ) ;
#83 =( NAMED_UNIT ( * ) SI_UNIT ( $, .STERADIAN. ) SOLID_ANGLE_UNIT ( ) );
#84 = CARTESIAN_POINT ( 'NONE',  ( 49.99999999999996447, 49.99999999999993605, 1125.000000000000000 ) ) ;
#85 = EDGE_CURVE ( 'NONE', #364, #41, #257, .T. ) ;
#86 = CARTESIAN_POINT ( 'NONE',  ( 45.00000000000001421, -45.00000000000004263, 1125.000000000000000 ) ) ;
#87 = CARTESIAN_POINT ( 'NONE',  ( 45.00000000000067502, -1122.500000000001364, 47.49999999997611866 ) ) ;
#88 = APPROVAL_PERSON_ORGANIZATION ( #89, #135, #288 ) ;
#89 = PERSON_AND_ORGANIZATION ( #287, #107 ) ;
#90 = PERSON_AND_ORGANIZATION ( #287, #107 ) ;
#91 = PLANE ( 'NONE',  #223 ) ;
#92 = AXIS2_PLACEMENT_3D ( 'NONE', #40, #237, #264 ) ;
#93 = ADVANCED_FACE ( 'NONE', ( #316 ), #91, .F. ) ;
#94 = DIRECTION ( 'NONE',  ( -0.000000000000000000, -0.000000000000000000, -1.000000000000000000 ) ) ;
#95 = DIRECTION ( 'NONE',  ( -1.000000000000000000, -0.000000000000000000, -0.000000000000000000 ) ) ;
#96 = CARTESIAN_POINT ( 'NONE',  ( 44.99999999999998579, 2.500000000001049827, 1077.500000000000227 ) ) ;
#97 = LOCAL_TIME ( 13, 25, 45.00000000000000000, #190 ) ;
#98 = VERTEX_POINT ( 'NONE', #256 ) ;
#99 = PLANE ( 'NONE',  #343 ) ;
#100 = ADVANCED_FACE ( 'NONE', ( #56 ), #283, .T. ) ;
#101 = ORIENTED_EDGE ( 'NONE', *, *, #120, .T. ) ;
#102 = FACE_BOUND ( 'NONE', #312, .T. ) ;
#103 = EDGE_LOOP ( 'NONE', ( #353, #362, #216, #213 ) ) ;
#104 = PERSON_AND_ORGANIZATION_ROLE ( 'design_owner' ) ;
#105 = CC_DESIGN_APPROVAL ( #55, ( #123 ) ) ;
#106 = ORIENTED_EDGE ( 'NONE', *, *, #285, .F. ) ;
#107 = ORGANIZATION ( 'UNSPECIFIED', 'UNSPECIFIED', '' ) ;
#108 = PRODUCT_RELATED_PRODUCT_CATEGORY ( 'detail', '', ( #236 ) ) ;
#109 = DIRECTION ( 'NONE',  ( -1.000000000000000000, 0.000000000000000000, 0.000000000000000000 ) ) ;
#110 = ORIENTED_EDGE ( 'NONE', *, *, #177, .F. ) ;
#111 = LINE ( 'NONE', #340, #171 ) ;
#112 = ADVANCED_BREP_SHAPE_REPRESENTATION ( 'Base_profil_incline_Default_sldprt', ( #76, #58 ), #215 ) ;
#113 = DIRECTION ( 'NONE',  ( 1.000000000000000000, 0.000000000000000000, 0.000000000000000000 ) ) ;
#114 = FACE_OUTER_BOUND ( 'NONE', #103, .T. ) ;
#115 = AXIS2_PLACEMENT_3D ( 'NONE', #305, #250, #244 ) ;
#116 =( NAMED_UNIT ( * ) PLANE_ANGLE_UNIT ( ) SI_UNIT ( $, .RADIAN. ) );
#117 = CARTESIAN_POINT ( 'NONE',  ( 45.00000000000001421, -44.99999999999992895, -1030.000000000002728 ) ) ;
#118 = SECURITY_CLASSIFICATION_LEVEL ( 'unclassified' ) ;
#119 = DIRECTION ( 'NONE',  ( 0.000000000000000000, -0.7071067811865550112, 0.7071067811865401342 ) ) ;
#120 = EDGE_CURVE ( 'NONE', #24, #73, #347, .T. ) ;
#121 = EDGE_CURVE ( 'NONE', #241, #266, #198, .T. ) ;
#122 = ORIENTED_EDGE ( 'NONE', *, *, #121, .F. ) ;
#123 = PRODUCT_DEFINITION ( 'UNKNOWN', '', #292, #311 ) ;
#124 = DIRECTION ( 'NONE',  ( 0.000000000000000000, -1.000000000000000000, 0.000000000000000000 ) ) ;
#125 = LINE ( 'NONE', #291, #228 ) ;
#126 = CARTESIAN_POINT ( 'NONE',  ( -50.00000000000004263, 49.99999999999993605, 1125.000000000000000 ) ) ;
#127 = ORIENTED_EDGE ( 'NONE', *, *, #78, .F. ) ;
#128 = DIRECTION ( 'NONE',  ( 0.000000000000000000, -0.000000000000000000, -1.000000000000000000 ) ) ;
#129 = VECTOR ( 'NONE', #119, 1000.000000000000114 ) ;
#130 = ORIENTED_EDGE ( 'NONE', *, *, #35, .F. ) ;
#131 = CARTESIAN_POINT ( 'NONE',  ( -50.00000000000004263, -50.00000000000004263, -1025.000000000002046 ) ) ;
#132 = VERTEX_POINT ( 'NONE', #170 ) ;
#133 = FACE_OUTER_BOUND ( 'NONE', #13, .T. ) ;
#134 = VERTEX_POINT ( 'NONE', #204 ) ;
#135 = APPROVAL ( #319, 'UNSPECIFIED' ) ;
#136 = LOCAL_TIME ( 13, 25, 45.00000000000000000, #148 ) ;
#137 = ORIENTED_EDGE ( 'NONE', *, *, #6, .F. ) ;
#138 = CARTESIAN_POINT ( 'NONE',  ( -45.00000000000001421, -45.00000000000004263, -1030.000000000002046 ) ) ;
#139 = LINE ( 'NONE', #344, #158 ) ;
#140 = DIRECTION ( 'NONE',  ( 0.000000000000000000, 1.000000000000000000, 0.000000000000000000 ) ) ;
#141 = CARTESIAN_POINT ( 'NONE',  ( 49.99999999999996447, -50.00000000000004263, 1125.000000000000000 ) ) ;
#142 = ADVANCED_FACE ( 'NONE', ( #114 ), #64, .F. ) ;
#143 = CARTESIAN_POINT ( 'NONE',  ( 44.99999999999995737, 44.99999999999992895, 1119.999999999999773 ) ) ;
#144 = VECTOR ( 'NONE', #208, 1000.000000000000000 ) ;
#145 = ORIENTED_EDGE ( 'NONE', *, *, #254, .F. ) ;
#146 = EDGE_LOOP ( 'NONE', ( #137, #79, #179, #230 ) ) ;
#147 = VECTOR ( 'NONE', #260, 1000.000000000000114 ) ;
#148 = COORDINATED_UNIVERSAL_TIME_OFFSET ( 1, 0, .AHEAD. ) ;
#149 = EDGE_CURVE ( 'NONE', #134, #73, #341, .T. ) ;
#150 = DIRECTION ( 'NONE',  ( 0.000000000000000000, -0.7071067811865392461, -0.7071067811865557884 ) ) ;
#151 = VECTOR ( 'NONE', #109, 1000.000000000000000 ) ;
#152 = PLANE ( 'NONE',  #281 ) ;
#153 = EDGE_CURVE ( 'NONE', #132, #41, #191, .T. ) ;
#154 = LINE ( 'NONE', #240, #253 ) ;
#155 = DIRECTION ( 'NONE',  ( 0.000000000000000000, -0.7071067811865550112, 0.7071067811865401342 ) ) ;
#156 = ORIENTED_EDGE ( 'NONE', *, *, #177, .T. ) ;
#157 = CARTESIAN_POINT ( 'NONE',  ( 49.99999999999996447, 49.99999999999993605, 1125.000000000000000 ) ) ;
#158 = VECTOR ( 'NONE', #173, 1000.000000000000000 ) ;
#159 = VERTEX_POINT ( 'NONE', #26 ) ;
#160 = ORIENTED_EDGE ( 'NONE', *, *, #220, .T. ) ;
#161 = DIRECTION ( 'NONE',  ( -0.000000000000000000, -0.000000000000000000, -1.000000000000000000 ) ) ;
#162 = VERTEX_POINT ( 'NONE', #279 ) ;
#163 = CC_DESIGN_APPROVAL ( #135, ( #5 ) ) ;
#164 = VERTEX_POINT ( 'NONE', #143 ) ;
#165 = CARTESIAN_POINT ( 'NONE',  ( -45.00000000000001421, 44.99999999999992895, 1125.000000000000000 ) ) ;
#166 = EDGE_CURVE ( 'NONE', #251, #296, #255, .T. ) ;
#167 = MECHANICAL_CONTEXT ( 'NONE', #289, 'mechanical' ) ;
#168 = DIRECTION ( 'NONE',  ( 4.361367940788311547E-16, -0.7071067811865550112, 0.7071067811865401342 ) ) ;
#169 = ORIENTED_EDGE ( 'NONE', *, *, #120, .F. ) ;
#170 = CARTESIAN_POINT ( 'NONE',  ( -45.00000000000001421, 44.99999999999992895, 1119.999999999999773 ) ) ;
#171 = VECTOR ( 'NONE', #225, 1000.000000000000000 ) ;
#172 = CC_DESIGN_PERSON_AND_ORGANIZATION_ASSIGNMENT ( #90, #34, ( #292 ) ) ;
#173 = DIRECTION ( 'NONE',  ( -1.000000000000000000, 0.000000000000000000, 0.000000000000000000 ) ) ;
#174 = DIRECTION ( 'NONE',  ( 1.000000000000000000, 0.000000000000000000, -0.000000000000000000 ) ) ;
#175 = PRODUCT_DEFINITION_SHAPE ( 'NONE', 'NONE',  #123 ) ;
#176 = CARTESIAN_POINT ( 'NONE',  ( -50.00000000000004263, -50.00000000000004263, 1024.999999999997726 ) ) ;
#177 = EDGE_CURVE ( 'NONE', #41, #24, #65, .T. ) ;
#178 = DIRECTION ( 'NONE',  ( 0.000000000000000000, -0.7071067811865392461, -0.7071067811865557884 ) ) ;
#179 = ORIENTED_EDGE ( 'NONE', *, *, #121, .T. ) ;
#180 = CARTESIAN_POINT ( 'NONE',  ( -45.00000000000001421, -45.00000000000004263, 1125.000000000000000 ) ) ;
#181 = VERTEX_POINT ( 'NONE', #131 ) ;
#182 = ADVANCED_FACE ( 'NONE', ( #212, #356 ), #12, .T. ) ;
#183 = CARTESIAN_POINT ( 'NONE',  ( -45.00000000000001421, -45.00000000000004263, 1125.000000000000000 ) ) ;
#184 = VECTOR ( 'NONE', #81, 1000.000000000000000 ) ;
#185 = ORIENTED_EDGE ( 'NONE', *, *, #6, .T. ) ;
#186 = APPLICATION_PROTOCOL_DEFINITION ( 'international standard', 'config_control_design', 1994, #289 ) ;
#187 = ORIENTED_EDGE ( 'NONE', *, *, #303, .T. ) ;
#188 = CARTESIAN_POINT ( 'NONE',  ( -45.00000000000001421, -45.00000000000004263, -1030.000000000002046 ) ) ;
#189 = EDGE_LOOP ( 'NONE', ( #48, #332, #185, #130 ) ) ;
#190 = COORDINATED_UNIVERSAL_TIME_OFFSET ( 1, 0, .AHEAD. ) ;
#191 = LINE ( 'NONE', #165, #300 ) ;
#192 = EDGE_CURVE ( 'NONE', #266, #162, #234, .T. ) ;
#193 = LINE ( 'NONE', #246, #354 ) ;
#194 = CARTESIAN_POINT ( 'NONE',  ( -45.00000000000001421, -1122.500000000001364, 47.49999999997611866 ) ) ;
#195 = LINE ( 'NONE', #31, #129 ) ;
#196 = DATE_AND_TIME ( #229, #136 ) ;
#197 = CC_DESIGN_PERSON_AND_ORGANIZATION_ASSIGNMENT ( #200, #7, ( #5 ) ) ;
#198 = LINE ( 'NONE', #313, #207 ) ;
#199 = CC_DESIGN_APPROVAL ( #348, ( #292 ) ) ;
#200 = PERSON_AND_ORGANIZATION ( #287, #107 ) ;
#201 = CALENDAR_DATE ( 2026, 28, 1 ) ;
#202 = EDGE_CURVE ( 'NONE', #132, #98, #39, .T. ) ;
#203 = VECTOR ( 'NONE', #373, 1000.000000000000114 ) ;
#204 = CARTESIAN_POINT ( 'NONE',  ( 45.00000000000001421, -45.00000000000004263, 1029.999999999997954 ) ) ;
#205 = CARTESIAN_POINT ( 'NONE',  ( 49.99999999999996447, -50.00000000000004263, 1024.999999999997726 ) ) ;
#206 = DIRECTION ( 'NONE',  ( 1.000000000000000000, 0.000000000000000000, 0.000000000000000000 ) ) ;
#207 = VECTOR ( 'NONE', #345, 1000.000000000000000 ) ;
#208 = DIRECTION ( 'NONE',  ( -4.361367940788214911E-16, 0.7071067811865392461, 0.7071067811865557884 ) ) ;
#209 = ORIENTED_EDGE ( 'NONE', *, *, #278, .F. ) ;
#210 = CARTESIAN_POINT ( 'NONE',  ( -50.00000000000004263, 49.99999999999993605, -1125.000000000000000 ) ) ;
#211 = EDGE_LOOP ( 'NONE', ( #269, #71, #145, #49 ) ) ;
#212 = FACE_BOUND ( 'NONE', #273, .T. ) ;
#213 = ORIENTED_EDGE ( 'NONE', *, *, #352, .T. ) ;
#214 = PERSON_AND_ORGANIZATION ( #287, #107 ) ;
#215 =( GEOMETRIC_REPRESENTATION_CONTEXT ( 3 ) GLOBAL_UNCERTAINTY_ASSIGNED_CONTEXT ( ( #326 ) ) GLOBAL_UNIT_ASSIGNED_CONTEXT ( ( #17, #116, #83 ) ) REPRESENTATION_CONTEXT ( 'NONE', 'WORKASPACE' ) );
#216 = ORIENTED_EDGE ( 'NONE', *, *, #192, .T. ) ;
#217 = CC_DESIGN_PERSON_AND_ORGANIZATION_ASSIGNMENT ( #369, #104, ( #236 ) ) ;
#218 = EDGE_LOOP ( 'NONE', ( #275, #101, #365, #334 ) ) ;
#219 = CALENDAR_DATE ( 2026, 28, 1 ) ;
#220 = EDGE_CURVE ( 'NONE', #164, #132, #361, .T. ) ;
#221 = DIRECTION ( 'NONE',  ( 0.000000000000000000, 0.000000000000000000, -1.000000000000000000 ) ) ;
#222 = APPROVAL_STATUS ( 'not_yet_approved' ) ;
#223 = AXIS2_PLACEMENT_3D ( 'NONE', #8, #140, #226 ) ;
#224 = DIRECTION ( 'NONE',  ( -0.000000000000000000, -0.000000000000000000, -1.000000000000000000 ) ) ;
#225 = DIRECTION ( 'NONE',  ( -0.000000000000000000, -0.000000000000000000, -1.000000000000000000 ) ) ;
#226 = DIRECTION ( 'NONE',  ( 0.000000000000000000, -0.000000000000000000, 1.000000000000000000 ) ) ;
#227 = DIRECTION ( 'NONE',  ( 0.000000000000000000, -0.000000000000000000, 1.000000000000000000 ) ) ;
#228 = VECTOR ( 'NONE', #324, 1000.000000000000000 ) ;
#229 = CALENDAR_DATE ( 2026, 28, 1 ) ;
#230 = ORIENTED_EDGE ( 'NONE', *, *, #61, .T. ) ;
#231 = ADVANCED_FACE ( 'NONE', ( #68 ), #99, .T. ) ;
#232 = EDGE_LOOP ( 'NONE', ( #248, #156, #209, #160 ) ) ;
#233 = AXIS2_PLACEMENT_3D ( 'NONE', #72, #263, #290 ) ;
#234 = LINE ( 'NONE', #70, #147 ) ;
#235 = LINE ( 'NONE', #11, #67 ) ;
#236 = PRODUCT ( 'Base_profil_incline_Default_sldprt', 'Base_profil_incline_Default_sldprt', '', ( #167 ) ) ;
#237 = DIRECTION ( 'NONE',  ( 0.000000000000000000, -1.000000000000000000, 0.000000000000000000 ) ) ;
#238 = ORIENTED_EDGE ( 'NONE', *, *, #85, .F. ) ;
#239 = VECTOR ( 'NONE', #94, 1000.000000000000000 ) ;
#240 = CARTESIAN_POINT ( 'NONE',  ( -45.00000000000001421, -45.00000000000004263, 1029.999999999997726 ) ) ;
#241 = VERTEX_POINT ( 'NONE', #205 ) ;
#242 = FACE_OUTER_BOUND ( 'NONE', #232, .T. ) ;
#243 = ORIENTED_EDGE ( 'NONE', *, *, #192, .F. ) ;
#244 = DIRECTION ( 'NONE',  ( 6.167905692361983519E-16, -1.000000000000000000, 0.000000000000000000 ) ) ;
#245 = ORIENTED_EDGE ( 'NONE', *, *, #85, .T. ) ;
#246 = CARTESIAN_POINT ( 'NONE',  ( 49.99999999999993605, 49.99999999999993605, 1125.000000000000000 ) ) ;
#247 = LOCAL_TIME ( 13, 25, 45.00000000000000000, #336 ) ;
#248 = ORIENTED_EDGE ( 'NONE', *, *, #153, .T. ) ;
#249 = LINE ( 'NONE', #84, #286 ) ;
#250 = DIRECTION ( 'NONE',  ( -1.000000000000000000, -6.167905692361983519E-16, 0.000000000000000000 ) ) ;
#251 = VERTEX_POINT ( 'NONE', #267 ) ;
#252 = APPROVAL_ROLE ( '' ) ;
#253 = VECTOR ( 'NONE', #174, 1000.000000000000000 ) ;
#254 = EDGE_CURVE ( 'NONE', #159, #162, #125, .T. ) ;
#255 = LINE ( 'NONE', #2, #19 ) ;
#256 = CARTESIAN_POINT ( 'NONE',  ( -45.00000000000001421, -45.00000000000004263, 1029.999999999997726 ) ) ;
#257 = LINE ( 'NONE', #194, #203 ) ;
#258 = CC_DESIGN_DATE_AND_TIME_ASSIGNMENT ( #276, #51, ( #123 ) ) ;
#259 = VECTOR ( 'NONE', #21, 1000.000000000000000 ) ;
#260 = DIRECTION ( 'NONE',  ( -0.000000000000000000, 0.7071067811865392461, 0.7071067811865556774 ) ) ;
#261 = CC_DESIGN_PERSON_AND_ORGANIZATION_ASSIGNMENT ( #32, #27, ( #292 ) ) ;
#262 = VECTOR ( 'NONE', #206, 1000.000000000000000 ) ;
#263 = DIRECTION ( 'NONE',  ( 0.000000000000000000, -0.7071067811865401342, -0.7071067811865550112 ) ) ;
#264 = DIRECTION ( 'NONE',  ( 0.000000000000000000, -0.000000000000000000, -1.000000000000000000 ) ) ;
#265 = CARTESIAN_POINT ( 'NONE',  ( -45.00000000000001421, 2.500000000001049827, 1077.500000000000227 ) ) ;
#266 = VERTEX_POINT ( 'NONE', #176 ) ;
#267 = CARTESIAN_POINT ( 'NONE',  ( 49.99999999999996447, 49.99999999999993605, -1125.000000000000000 ) ) ;
#268 = ADVANCED_FACE ( 'NONE', ( #298 ), #152, .F. ) ;
#269 = ORIENTED_EDGE ( 'NONE', *, *, #166, .T. ) ;
#270 = DIRECTION ( 'NONE',  ( 0.000000000000000000, 0.000000000000000000, 1.000000000000000000 ) ) ;
#271 = ORIENTED_EDGE ( 'NONE', *, *, #318, .F. ) ;
#272 = PLANE ( 'NONE',  #115 ) ;
#273 = EDGE_LOOP ( 'NONE', ( #18, #271, #337, #299 ) ) ;
#274 = LINE ( 'NONE', #188, #151 ) ;
#275 = ORIENTED_EDGE ( 'NONE', *, *, #278, .T. ) ;
#276 = DATE_AND_TIME ( #307, #97 ) ;
#277 = LINE ( 'NONE', #30, #33 ) ;
#278 = EDGE_CURVE ( 'NONE', #164, #24, #355, .T. ) ;
#279 = CARTESIAN_POINT ( 'NONE',  ( -50.00000000000004263, 49.99999999999993605, 1125.000000000000000 ) ) ;
#280 = APPROVAL_ROLE ( '' ) ;
#281 = AXIS2_PLACEMENT_3D ( 'NONE', #126, #124, #128 ) ;
#282 = CARTESIAN_POINT ( 'NONE',  ( -45.00000000000001421, 44.99999999999992895, -1120.000000000000000 ) ) ;
#283 = PLANE ( 'NONE',  #327 ) ;
#284 = EDGE_CURVE ( 'NONE', #98, #134, #154, .T. ) ;
#285 = EDGE_CURVE ( 'NONE', #251, #304, #295, .T. ) ;
#286 = VECTOR ( 'NONE', #309, 1000.000000000000114 ) ;
#287 = PERSON ( 'UNSPECIFIED', 'UNSPECIFIED', 'UNSPECIFIED', ('UNSPECIFIED'), ('UNSPECIFIED'), ('UNSPECIFIED') ) ;
#288 = APPROVAL_ROLE ( '' ) ;
#289 = APPLICATION_CONTEXT ( 'configuration controlled 3d designs of mechanical parts and assemblies' ) ;
#290 = DIRECTION ( 'NONE',  ( 0.000000000000000000, 0.7071067811865550112, -0.7071067811865401342 ) ) ;
#291 = CARTESIAN_POINT ( 'NONE',  ( -50.00000000000004263, 49.99999999999993605, 1125.000000000000000 ) ) ;
#292 = PRODUCT_DEFINITION_FORMATION_WITH_SPECIFIED_SOURCE ( 'ANY', '', #236, .NOT_KNOWN. ) ;
#293 = CARTESIAN_POINT ( 'NONE',  ( 49.99999999999996447, -50.00000000000004263, -1025.000000000002046 ) ) ;
#294 = ADVANCED_FACE ( 'NONE', ( #242 ), #363, .T. ) ;
#295 = LINE ( 'NONE', #10, #82 ) ;
#296 = VERTEX_POINT ( 'NONE', #210 ) ;
#297 = ADVANCED_FACE ( 'NONE', ( #102, #333 ), #37, .T. ) ;
#298 = FACE_OUTER_BOUND ( 'NONE', #211, .T. ) ;
#299 = ORIENTED_EDGE ( 'NONE', *, *, #202, .F. ) ;
#300 = VECTOR ( 'NONE', #224, 1000.000000000000000 ) ;
#301 = ORIENTED_EDGE ( 'NONE', *, *, #358, .F. ) ;
#302 = PERSON_AND_ORGANIZATION_ROLE ( 'creator' ) ;
#303 = EDGE_CURVE ( 'NONE', #241, #304, #235, .T. ) ;
#304 = VERTEX_POINT ( 'NONE', #293 ) ;
#305 = CARTESIAN_POINT ( 'NONE',  ( 45.00000000000001421, -45.00000000000004263, 1125.000000000000000 ) ) ;
#306 = ORIENTED_EDGE ( 'NONE', *, *, #329, .F. ) ;
#307 = CALENDAR_DATE ( 2026, 28, 1 ) ;
#308 = CC_DESIGN_SECURITY_CLASSIFICATION ( #5, ( #292 ) ) ;
#309 = DIRECTION ( 'NONE',  ( -0.000000000000000000, 0.7071067811865392461, 0.7071067811865556774 ) ) ;
#310 = DIRECTION ( 'NONE',  ( 1.000000000000000000, 0.000000000000000000, 0.000000000000000000 ) ) ;
#311 = DESIGN_CONTEXT ( 'detailed design', #63, 'design' ) ;
#312 = EDGE_LOOP ( 'NONE', ( #301, #169, #110, #238 ) ) ;
#313 = CARTESIAN_POINT ( 'NONE',  ( 49.99999999999996447, -50.00000000000004263, 1024.999999999997726 ) ) ;
#314 = APPROVAL_PERSON_ORGANIZATION ( #371, #348, #280 ) ;
#315 = APPROVAL_PERSON_ORGANIZATION ( #214, #55, #252 ) ;
#316 = FACE_OUTER_BOUND ( 'NONE', #146, .T. ) ;
#317 = DATE_TIME_ROLE ( 'classification_date' ) ;
#318 = EDGE_CURVE ( 'NONE', #134, #164, #357, .T. ) ;
#319 = APPROVAL_STATUS ( 'not_yet_approved' ) ;
#320 = CALENDAR_DATE ( 2026, 28, 1 ) ;
#321 = VECTOR ( 'NONE', #150, 1000.000000000000000 ) ;
#322 = EDGE_CURVE ( 'NONE', #98, #364, #367, .T. ) ;
#323 = ORIENTED_EDGE ( 'NONE', *, *, #78, .T. ) ;
#324 = DIRECTION ( 'NONE',  ( -1.000000000000000000, -0.000000000000000000, -0.000000000000000000 ) ) ;
#325 = DIRECTION ( 'NONE',  ( 1.000000000000000000, 0.000000000000000000, 0.000000000000000000 ) ) ;
#326 = UNCERTAINTY_MEASURE_WITH_UNIT (LENGTH_MEASURE( 1.000000000000000082E-05 ), #17, 'distance_accuracy_value', 'NONE');
#327 = AXIS2_PLACEMENT_3D ( 'NONE', #54, #59, #227 ) ;
#328 = CARTESIAN_POINT ( 'NONE',  ( -45.00000000000001421, 44.99999999999992895, -1120.000000000000000 ) ) ;
#329 = EDGE_CURVE ( 'NONE', #159, #251, #193, .T. ) ;
#330 = ORIENTED_EDGE ( 'NONE', *, *, #153, .F. ) ;
#331 = DIRECTION ( 'NONE',  ( 0.000000000000000000, 0.000000000000000000, -1.000000000000000000 ) ) ;
#332 = ORIENTED_EDGE ( 'NONE', *, *, #285, .T. ) ;
#333 = FACE_OUTER_BOUND ( 'NONE', #189, .T. ) ;
#334 = ORIENTED_EDGE ( 'NONE', *, *, #318, .T. ) ;
#335 = ADVANCED_FACE ( 'NONE', ( #133 ), #45, .F. ) ;
#336 = COORDINATED_UNIVERSAL_TIME_OFFSET ( 1, 0, .AHEAD. ) ;
#337 = ORIENTED_EDGE ( 'NONE', *, *, #284, .F. ) ;
#338 = APPLICATION_PROTOCOL_DEFINITION ( 'international standard', 'config_control_design', 1994, #63 ) ;
#339 = EDGE_LOOP ( 'NONE', ( #122, #323, #46, #243 ) ) ;
#340 = CARTESIAN_POINT ( 'NONE',  ( -50.00000000000004263, 49.99999999999993605, 1125.000000000000000 ) ) ;
#341 = LINE ( 'NONE', #86, #184 ) ;
#342 = FACE_OUTER_BOUND ( 'NONE', #218, .T. ) ;
#343 = AXIS2_PLACEMENT_3D ( 'NONE', #180, #325, #331 ) ;
#344 = CARTESIAN_POINT ( 'NONE',  ( 49.99999999999996447, -50.00000000000004263, -1025.000000000002046 ) ) ;
#345 = DIRECTION ( 'NONE',  ( -1.000000000000000000, 0.000000000000000000, 0.000000000000000000 ) ) ;
#346 = DATE_AND_TIME ( #201, #38 ) ;
#347 = LINE ( 'NONE', #87, #349 ) ;
#348 = APPROVAL ( #222, 'UNSPECIFIED' ) ;
#349 = VECTOR ( 'NONE', #168, 1000.000000000000114 ) ;
#350 = COORDINATED_UNIVERSAL_TIME_OFFSET ( 1, 0, .AHEAD. ) ;
#351 = DATE_AND_TIME ( #320, #366 ) ;
#352 = EDGE_CURVE ( 'NONE', #162, #296, #111, .T. ) ;
#353 = ORIENTED_EDGE ( 'NONE', *, *, #35, .T. ) ;
#354 = VECTOR ( 'NONE', #161, 1000.000000000000000 ) ;
#355 = LINE ( 'NONE', #42, #239 ) ;
#356 = FACE_OUTER_BOUND ( 'NONE', #339, .T. ) ;
#357 = LINE ( 'NONE', #96, #144 ) ;
#358 = EDGE_CURVE ( 'NONE', #73, #364, #274, .T. ) ;
#359 = ORIENTED_EDGE ( 'NONE', *, *, #284, .T. ) ;
#360 = CLOSED_SHELL ( 'NONE', ( #142, #93, #335, #231, #100, #372, #294, #268, #182, #297 ) ) ;
#361 = LINE ( 'NONE', #9, #44 ) ;
#362 = ORIENTED_EDGE ( 'NONE', *, *, #61, .F. ) ;
#363 = PLANE ( 'NONE',  #92 ) ;
#364 = VERTEX_POINT ( 'NONE', #138 ) ;
#365 = ORIENTED_EDGE ( 'NONE', *, *, #149, .F. ) ;
#366 = LOCAL_TIME ( 13, 25, 45.00000000000000000, #57 ) ;
#367 = LINE ( 'NONE', #183, #259 ) ;
#368 = ORIENTED_EDGE ( 'NONE', *, *, #358, .T. ) ;
#369 = PERSON_AND_ORGANIZATION ( #287, #107 ) ;
#370 = CARTESIAN_POINT ( 'NONE',  ( -50.00000000000004263, -50.00000000000004263, 1125.000000000000000 ) ) ;
#371 = PERSON_AND_ORGANIZATION ( #287, #107 ) ;
#372 = ADVANCED_FACE ( 'NONE', ( #342 ), #272, .T. ) ;
#373 = DIRECTION ( 'NONE',  ( 0.000000000000000000, 0.7071067811865550112, -0.7071067811865401342 ) ) ;
ENDSEC;
END-ISO-10303-21;
