ISO-10303-21;
HEADER;
FILE_DESCRIPTION (( 'STEP AP203' ),
    '1' );
FILE_NAME ('Base_profil_base_along_arm_Default_sldprt.STEP',
    '2026-01-28T12:25:39',
    ( '' ),
    ( '' ),
    'SwSTEP 2.0',
    'SolidWorks 2024',
    '' );
FILE_SCHEMA (( 'CONFIG_CONTROL_DESIGN' ));
ENDSEC;

DATA;
#1 = PERSON_AND_ORGANIZATION ( #148, #243 ) ;
#2 = VECTOR ( 'NONE', #224, 1000.000000000000000 ) ;
#3 = VERTEX_POINT ( 'NONE', #302 ) ;
#4 = DIRECTION ( 'NONE',  ( 0.000000000000000000, -0.000000000000000000, -1.000000000000000000 ) ) ;
#5 = DIRECTION ( 'NONE',  ( 0.000000000000000000, 0.000000000000000000, -1.000000000000000000 ) ) ;
#6 = LINE ( 'NONE', #65, #360 ) ;
#7 = VECTOR ( 'NONE', #209, 1000.000000000000000 ) ;
#8 = DIRECTION ( 'NONE',  ( 1.000000000000000000, 0.000000000000000000, 0.000000000000000000 ) ) ;
#9 = DIRECTION ( 'NONE',  ( -0.000000000000000000, -0.000000000000000000, -1.000000000000000000 ) ) ;
#10 = CARTESIAN_POINT ( 'NONE',  ( 49.99999999999993605, 49.99999999999993605, -940.0000000000000000 ) ) ;
#11 = DATE_AND_TIME ( #246, #281 ) ;
#12 = VECTOR ( 'NONE', #159, 1000.000000000000000 ) ;
#13 = CC_DESIGN_SECURITY_CLASSIFICATION ( #114, ( #136 ) ) ;
#14 = CARTESIAN_POINT ( 'NONE',  ( 49.99999999999993605, 49.99999999999993605, 940.0000000000000000 ) ) ;
#15 = ORIENTED_EDGE ( 'NONE', *, *, #239, .T. ) ;
#16 = VECTOR ( 'NONE', #307, 1000.000000000000000 ) ;
#17 = LINE ( 'NONE', #170, #359 ) ;
#18 = EDGE_CURVE ( 'NONE', #29, #198, #40, .T. ) ;
#19 = LINE ( 'NONE', #140, #228 ) ;
#20 = ORIENTED_EDGE ( 'NONE', *, *, #292, .F. ) ;
#21 = CARTESIAN_POINT ( 'NONE',  ( -45.00000000000001421, -45.00000000000004263, 940.0000000000000000 ) ) ;
#22 = ORIENTED_EDGE ( 'NONE', *, *, #52, .T. ) ;
#23 = EDGE_CURVE ( 'NONE', #229, #339, #272, .T. ) ;
#24 =( GEOMETRIC_REPRESENTATION_CONTEXT ( 3 ) GLOBAL_UNCERTAINTY_ASSIGNED_CONTEXT ( ( #99 ) ) GLOBAL_UNIT_ASSIGNED_CONTEXT ( ( #117, #183, #85 ) ) REPRESENTATION_CONTEXT ( 'NONE', 'WORKASPACE' ) );
#25 = CARTESIAN_POINT ( 'NONE',  ( 0.000000000000000000, 0.000000000000000000, 940.0000000000000000 ) ) ;
#26 = VERTEX_POINT ( 'NONE', #269 ) ;
#27 = VERTEX_POINT ( 'NONE', #10 ) ;
#28 = DATE_AND_TIME ( #291, #57 ) ;
#29 = VERTEX_POINT ( 'NONE', #131 ) ;
#30 = DATE_TIME_ROLE ( 'creation_date' ) ;
#31 = APPROVAL_PERSON_ORGANIZATION ( #173, #195, #93 ) ;
#32 = CC_DESIGN_PERSON_AND_ORGANIZATION_ASSIGNMENT ( #150, #152, ( #136 ) ) ;
#33 = CARTESIAN_POINT ( 'NONE',  ( 49.99999999999996447, -50.00000000000004263, 940.0000000000000000 ) ) ;
#34 = FACE_OUTER_BOUND ( 'NONE', #123, .T. ) ;
#35 = PERSON_AND_ORGANIZATION ( #148, #243 ) ;
#36 = DIRECTION ( 'NONE',  ( 0.000000000000000000, -0.000000000000000000, -1.000000000000000000 ) ) ;
#37 = PRODUCT ( 'Base_profil_base_along_arm_Default_sldprt', 'Base_profil_base_along_arm_Default_sldprt', '', ( #181 ) ) ;
#38 = VECTOR ( 'NONE', #240, 1000.000000000000000 ) ;
#39 = CARTESIAN_POINT ( 'NONE',  ( -45.00000000000001421, -45.00000000000004263, -940.0000000000000000 ) ) ;
#40 = LINE ( 'NONE', #330, #346 ) ;
#41 = DIRECTION ( 'NONE',  ( -1.000000000000000000, 0.000000000000000000, -0.000000000000000000 ) ) ;
#42 = PERSON_AND_ORGANIZATION ( #148, #243 ) ;
#43 = PRODUCT_DEFINITION_SHAPE ( 'NONE', 'NONE',  #62 ) ;
#44 = ORIENTED_EDGE ( 'NONE', *, *, #146, .F. ) ;
#45 = EDGE_CURVE ( 'NONE', #315, #27, #271, .T. ) ;
#46 = CARTESIAN_POINT ( 'NONE',  ( -45.00000000000001421, 44.99999999999992895, -940.0000000000000000 ) ) ;
#47 = ORIENTED_EDGE ( 'NONE', *, *, #239, .F. ) ;
#48 = AXIS2_PLACEMENT_3D ( 'NONE', #61, #325, #4 ) ;
#49 = LINE ( 'NONE', #78, #368 ) ;
#50 = ORIENTED_EDGE ( 'NONE', *, *, #225, .F. ) ;
#51 = LINE ( 'NONE', #81, #16 ) ;
#52 = EDGE_CURVE ( 'NONE', #347, #171, #100, .T. ) ;
#53 = ORIENTED_EDGE ( 'NONE', *, *, #332, .F. ) ;
#54 = CARTESIAN_POINT ( 'NONE',  ( -50.00000000000004263, 49.99999999999993605, 940.0000000000000000 ) ) ;
#55 = ORIENTED_EDGE ( 'NONE', *, *, #133, .F. ) ;
#56 = VECTOR ( 'NONE', #267, 1000.000000000000000 ) ;
#57 = LOCAL_TIME ( 13, 25, 39.00000000000000000, #177 ) ;
#58 = ORIENTED_EDGE ( 'NONE', *, *, #161, .F. ) ;
#59 = APPROVAL_STATUS ( 'not_yet_approved' ) ;
#60 = VERTEX_POINT ( 'NONE', #215 ) ;
#61 = CARTESIAN_POINT ( 'NONE',  ( -50.00000000000004263, 49.99999999999993605, 940.0000000000000000 ) ) ;
#62 = PRODUCT_DEFINITION ( 'UNKNOWN', '', #136, #319 ) ;
#63 = CARTESIAN_POINT ( 'NONE',  ( 45.00000000000001421, -45.00000000000004263, 940.0000000000000000 ) ) ;
#64 = FACE_OUTER_BOUND ( 'NONE', #139, .T. ) ;
#65 = CARTESIAN_POINT ( 'NONE',  ( 44.99999999999995737, 44.99999999999992895, 940.0000000000000000 ) ) ;
#66 = CARTESIAN_POINT ( 'NONE',  ( -45.00000000000001421, 44.99999999999992895, -940.0000000000000000 ) ) ;
#67 = EDGE_CURVE ( 'NONE', #315, #203, #185, .T. ) ;
#68 = PLANE ( 'NONE',  #288 ) ;
#69 = APPLICATION_CONTEXT ( 'configuration controlled 3d designs of mechanical parts and assemblies' ) ;
#70 = PRODUCT_RELATED_PRODUCT_CATEGORY ( 'detail', '', ( #37 ) ) ;
#71 = DIRECTION ( 'NONE',  ( -1.000000000000000000, -2.775557561562891844E-16, 0.000000000000000000 ) ) ;
#72 = APPROVAL_PERSON_ORGANIZATION ( #318, #166, #175 ) ;
#73 = DIRECTION ( 'NONE',  ( -1.000000000000000000, 0.000000000000000000, -0.000000000000000000 ) ) ;
#74 = APPROVAL_DATE_TIME ( #11, #299 ) ;
#75 = LOCAL_TIME ( 13, 25, 39.00000000000000000, #357 ) ;
#76 = ORIENTED_EDGE ( 'NONE', *, *, #306, .F. ) ;
#77 = CC_DESIGN_PERSON_AND_ORGANIZATION_ASSIGNMENT ( #119, #345, ( #62 ) ) ;
#78 = CARTESIAN_POINT ( 'NONE',  ( -45.00000000000001421, 44.99999999999992895, 940.0000000000000000 ) ) ;
#79 = EDGE_LOOP ( 'NONE', ( #344, #349, #254, #308 ) ) ;
#80 = DIRECTION ( 'NONE',  ( -0.000000000000000000, -1.000000000000000000, -0.000000000000000000 ) ) ;
#81 = CARTESIAN_POINT ( 'NONE',  ( 49.99999999999996447, -50.00000000000004263, -940.0000000000000000 ) ) ;
#82 = VERTEX_POINT ( 'NONE', #92 ) ;
#83 = DIRECTION ( 'NONE',  ( -0.000000000000000000, -0.000000000000000000, -1.000000000000000000 ) ) ;
#84 = ORIENTED_EDGE ( 'NONE', *, *, #306, .T. ) ;
#85 =( NAMED_UNIT ( * ) SI_UNIT ( $, .STERADIAN. ) SOLID_ANGLE_UNIT ( ) );
#86 = ORIENTED_EDGE ( 'NONE', *, *, #217, .T. ) ;
#87 = VECTOR ( 'NONE', #83, 1000.000000000000000 ) ;
#88 = CALENDAR_DATE ( 2026, 28, 1 ) ;
#89 = ORIENTED_EDGE ( 'NONE', *, *, #225, .T. ) ;
#90 = EDGE_CURVE ( 'NONE', #229, #3, #322, .T. ) ;
#91 = COORDINATED_UNIVERSAL_TIME_OFFSET ( 1, 0, .AHEAD. ) ;
#92 = CARTESIAN_POINT ( 'NONE',  ( 44.99999999999995737, 44.99999999999992895, -940.0000000000000000 ) ) ;
#93 = APPROVAL_ROLE ( '' ) ;
#94 = PLANE ( 'NONE',  #280 ) ;
#95 = DIRECTION ( 'NONE',  ( -1.000000000000000000, -0.000000000000000000, -0.000000000000000000 ) ) ;
#96 = VECTOR ( 'NONE', #8, 1000.000000000000000 ) ;
#97 = ADVANCED_FACE ( 'NONE', ( #130 ), #94, .T. ) ;
#98 = DIRECTION ( 'NONE',  ( -1.000000000000000000, -0.000000000000000000, -0.000000000000000000 ) ) ;
#99 = UNCERTAINTY_MEASURE_WITH_UNIT (LENGTH_MEASURE( 1.000000000000000082E-05 ), #117, 'distance_accuracy_value', 'NONE');
#100 = LINE ( 'NONE', #154, #220 ) ;
#101 = CARTESIAN_POINT ( 'NONE',  ( -50.00000000000004263, -50.00000000000004263, -940.0000000000000000 ) ) ;
#102 = FACE_OUTER_BOUND ( 'NONE', #169, .T. ) ;
#103 = CC_DESIGN_PERSON_AND_ORGANIZATION_ASSIGNMENT ( #1, #321, ( #136 ) ) ;
#104 = APPROVAL_ROLE ( '' ) ;
#105 = APPROVAL_STATUS ( 'not_yet_approved' ) ;
#106 = ADVANCED_FACE ( 'NONE', ( #184 ), #128, .F. ) ;
#107 = VECTOR ( 'NONE', #230, 1000.000000000000000 ) ;
#108 = CARTESIAN_POINT ( 'NONE',  ( -50.00000000000004263, -50.00000000000004263, 940.0000000000000000 ) ) ;
#109 = FACE_OUTER_BOUND ( 'NONE', #120, .T. ) ;
#110 = CARTESIAN_POINT ( 'NONE',  ( -50.00000000000004263, -50.00000000000004263, 940.0000000000000000 ) ) ;
#111 = ORIENTED_EDGE ( 'NONE', *, *, #90, .F. ) ;
#112 = APPLICATION_CONTEXT ( 'configuration controlled 3d designs of mechanical parts and assemblies' ) ;
#113 = AXIS2_PLACEMENT_3D ( 'NONE', #168, #361, #73 ) ;
#114 = SECURITY_CLASSIFICATION ( '', '', #266 ) ;
#115 = LINE ( 'NONE', #340, #316 ) ;
#116 = ORIENTED_EDGE ( 'NONE', *, *, #67, .F. ) ;
#117 =( LENGTH_UNIT ( ) NAMED_UNIT ( * ) SI_UNIT ( .MILLI., .METRE. ) );
#118 = ORIENTED_EDGE ( 'NONE', *, *, #297, .F. ) ;
#119 = PERSON_AND_ORGANIZATION ( #148, #243 ) ;
#120 = EDGE_LOOP ( 'NONE', ( #84, #194, #118, #232 ) ) ;
#121 = AXIS2_PLACEMENT_3D ( 'NONE', #33, #71, #151 ) ;
#122 = LOCAL_TIME ( 13, 25, 39.00000000000000000, #241 ) ;
#123 = EDGE_LOOP ( 'NONE', ( #149, #341, #22, #89 ) ) ;
#124 = DIRECTION ( 'NONE',  ( 0.000000000000000000, 0.000000000000000000, 1.000000000000000000 ) ) ;
#125 = CARTESIAN_POINT ( 'NONE',  ( 49.99999999999996447, -50.00000000000004263, 940.0000000000000000 ) ) ;
#126 = EDGE_CURVE ( 'NONE', #3, #347, #247, .T. ) ;
#127 = MANIFOLD_SOLID_BREP ( 'Boss-Extrude1', #172 ) ;
#128 = PLANE ( 'NONE',  #121 ) ;
#129 = DIRECTION ( 'NONE',  ( -1.000000000000000000, -6.167905692361983519E-16, 0.000000000000000000 ) ) ;
#130 = FACE_OUTER_BOUND ( 'NONE', #176, .T. ) ;
#131 = CARTESIAN_POINT ( 'NONE',  ( -50.00000000000004263, -50.00000000000004263, 940.0000000000000000 ) ) ;
#132 = ADVANCED_FACE ( 'NONE', ( #328 ), #68, .F. ) ;
#133 = EDGE_CURVE ( 'NONE', #261, #315, #354, .T. ) ;
#134 = LINE ( 'NONE', #108, #2 ) ;
#135 = VERTEX_POINT ( 'NONE', #66 ) ;
#136 = PRODUCT_DEFINITION_FORMATION_WITH_SPECIFIED_SOURCE ( 'ANY', '', #37, .NOT_KNOWN. ) ;
#137 = LINE ( 'NONE', #221, #87 ) ;
#138 = DIRECTION ( 'NONE',  ( -0.000000000000000000, -0.000000000000000000, -1.000000000000000000 ) ) ;
#139 = EDGE_LOOP ( 'NONE', ( #44, #313, #373, #207 ) ) ;
#140 = CARTESIAN_POINT ( 'NONE',  ( -50.00000000000004263, -50.00000000000004263, 940.0000000000000000 ) ) ;
#141 = ORIENTED_EDGE ( 'NONE', *, *, #297, .T. ) ;
#142 = VECTOR ( 'NONE', #9, 1000.000000000000000 ) ;
#143 = CARTESIAN_POINT ( 'NONE',  ( -45.00000000000001421, -45.00000000000004263, -940.0000000000000000 ) ) ;
#144 = EDGE_LOOP ( 'NONE', ( #20, #147, #277, #111 ) ) ;
#145 = CARTESIAN_POINT ( 'NONE',  ( -45.00000000000001421, -45.00000000000004263, 940.0000000000000000 ) ) ;
#146 = EDGE_CURVE ( 'NONE', #339, #192, #212, .T. ) ;
#147 = ORIENTED_EDGE ( 'NONE', *, *, #52, .F. ) ;
#148 = PERSON ( 'UNSPECIFIED', 'UNSPECIFIED', 'UNSPECIFIED', ('UNSPECIFIED'), ('UNSPECIFIED'), ('UNSPECIFIED') ) ;
#149 = ORIENTED_EDGE ( 'NONE', *, *, #335, .F. ) ;
#150 = PERSON_AND_ORGANIZATION ( #148, #243 ) ;
#151 = DIRECTION ( 'NONE',  ( 2.775557561562891844E-16, -1.000000000000000000, 0.000000000000000000 ) ) ;
#152 = PERSON_AND_ORGANIZATION_ROLE ( 'design_supplier' ) ;
#153 = CARTESIAN_POINT ( 'NONE',  ( -50.00000000000004263, -50.00000000000004263, -940.0000000000000000 ) ) ;
#154 = CARTESIAN_POINT ( 'NONE',  ( -45.00000000000001421, 44.99999999999992895, 940.0000000000000000 ) ) ;
#155 = AXIS2_PLACEMENT_3D ( 'NONE', #298, #156, #36 ) ;
#156 = DIRECTION ( 'NONE',  ( 0.000000000000000000, -1.000000000000000000, 0.000000000000000000 ) ) ;
#157 = DIRECTION ( 'NONE',  ( -0.000000000000000000, -0.000000000000000000, -1.000000000000000000 ) ) ;
#158 = COORDINATED_UNIVERSAL_TIME_OFFSET ( 1, 0, .AHEAD. ) ;
#159 = DIRECTION ( 'NONE',  ( -0.000000000000000000, -1.000000000000000000, -0.000000000000000000 ) ) ;
#160 = AXIS2_PLACEMENT_3D ( 'NONE', #145, #235, #323 ) ;
#161 = EDGE_CURVE ( 'NONE', #26, #198, #351, .T. ) ;
#162 = CARTESIAN_POINT ( 'NONE',  ( -45.00000000000001421, -45.00000000000004263, 940.0000000000000000 ) ) ;
#163 = VECTOR ( 'NONE', #98, 1000.000000000000000 ) ;
#164 = CC_DESIGN_APPROVAL ( #299, ( #114 ) ) ;
#165 = CARTESIAN_POINT ( 'NONE',  ( 49.99999999999996447, -50.00000000000004263, 940.0000000000000000 ) ) ;
#166 = APPROVAL ( #59, 'UNSPECIFIED' ) ;
#167 = ORIENTED_EDGE ( 'NONE', *, *, #186, .T. ) ;
#168 = CARTESIAN_POINT ( 'NONE',  ( 0.000000000000000000, 0.000000000000000000, -940.0000000000000000 ) ) ;
#169 = EDGE_LOOP ( 'NONE', ( #320, #50, #290, #371 ) ) ;
#170 = CARTESIAN_POINT ( 'NONE',  ( 45.00000000000001421, -45.00000000000004263, -940.0000000000000000 ) ) ;
#171 = VERTEX_POINT ( 'NONE', #324 ) ;
#172 = CLOSED_SHELL ( 'NONE', ( #231, #278, #132, #268, #106, #356, #263, #343, #97, #190 ) ) ;
#173 = PERSON_AND_ORGANIZATION ( #148, #243 ) ;
#174 = ORIENTED_EDGE ( 'NONE', *, *, #286, .F. ) ;
#175 = APPROVAL_ROLE ( '' ) ;
#176 = EDGE_LOOP ( 'NONE', ( #234, #174, #200, #167 ) ) ;
#177 = COORDINATED_UNIVERSAL_TIME_OFFSET ( 1, 0, .AHEAD. ) ;
#178 = DIRECTION ( 'NONE',  ( 6.167905692361983519E-16, -1.000000000000000000, 0.000000000000000000 ) ) ;
#179 = ADVANCED_BREP_SHAPE_REPRESENTATION ( 'Base_profil_base_along_arm_Default_sldprt', ( #127, #191 ), #24 ) ;
#180 = VECTOR ( 'NONE', #301, 1000.000000000000000 ) ;
#181 = MECHANICAL_CONTEXT ( 'NONE', #112, 'mechanical' ) ;
#182 = DIRECTION ( 'NONE',  ( -0.000000000000000000, -0.000000000000000000, -1.000000000000000000 ) ) ;
#183 =( NAMED_UNIT ( * ) PLANE_ANGLE_UNIT ( ) SI_UNIT ( $, .RADIAN. ) );
#184 = FACE_OUTER_BOUND ( 'NONE', #236, .T. ) ;
#185 = LINE ( 'NONE', #294, #163 ) ;
#186 = EDGE_CURVE ( 'NONE', #347, #82, #6, .T. ) ;
#187 = VECTOR ( 'NONE', #80, 1000.000000000000000 ) ;
#188 = ORIENTED_EDGE ( 'NONE', *, *, #202, .T. ) ;
#189 = DIRECTION ( 'NONE',  ( -6.167905692361983519E-16, 1.000000000000000000, 0.000000000000000000 ) ) ;
#190 = ADVANCED_FACE ( 'NONE', ( #34 ), #242, .T. ) ;
#191 = AXIS2_PLACEMENT_3D ( 'NONE', #352, #124, #210 ) ;
#192 = VERTEX_POINT ( 'NONE', #355 ) ;
#193 = PLANE ( 'NONE',  #197 ) ;
#194 = ORIENTED_EDGE ( 'NONE', *, *, #202, .F. ) ;
#195 = APPROVAL ( #237, 'UNSPECIFIED' ) ;
#196 = CARTESIAN_POINT ( 'NONE',  ( -50.00000000000004263, 49.99999999999993605, 940.0000000000000000 ) ) ;
#197 = AXIS2_PLACEMENT_3D ( 'NONE', #25, #358, #41 ) ;
#198 = VERTEX_POINT ( 'NONE', #101 ) ;
#199 = PLANE ( 'NONE',  #270 ) ;
#200 = ORIENTED_EDGE ( 'NONE', *, *, #126, .T. ) ;
#201 = DIRECTION ( 'NONE',  ( -1.000000000000000000, -0.000000000000000000, -0.000000000000000000 ) ) ;
#202 = EDGE_CURVE ( 'NONE', #261, #60, #137, .T. ) ;
#203 = VERTEX_POINT ( 'NONE', #54 ) ;
#204 = ORIENTED_EDGE ( 'NONE', *, *, #332, .T. ) ;
#205 = CC_DESIGN_DATE_AND_TIME_ASSIGNMENT ( #274, #300, ( #114 ) ) ;
#206 = DATE_AND_TIME ( #88, #213 ) ;
#207 = ORIENTED_EDGE ( 'NONE', *, *, #286, .T. ) ;
#208 = APPLICATION_PROTOCOL_DEFINITION ( 'international standard', 'config_control_design', 1994, #112 ) ;
#209 = DIRECTION ( 'NONE',  ( -0.000000000000000000, -0.000000000000000000, -1.000000000000000000 ) ) ;
#210 = DIRECTION ( 'NONE',  ( 1.000000000000000000, 0.000000000000000000, 0.000000000000000000 ) ) ;
#211 = EDGE_CURVE ( 'NONE', #192, #82, #17, .T. ) ;
#212 = LINE ( 'NONE', #39, #38 ) ;
#213 = LOCAL_TIME ( 13, 25, 39.00000000000000000, #91 ) ;
#214 = PLANE ( 'NONE',  #160 ) ;
#215 = CARTESIAN_POINT ( 'NONE',  ( 49.99999999999996447, -50.00000000000004263, -940.0000000000000000 ) ) ;
#216 = CARTESIAN_POINT ( 'NONE',  ( -45.00000000000001421, -45.00000000000004263, 940.0000000000000000 ) ) ;
#217 = EDGE_CURVE ( 'NONE', #203, #26, #314, .T. ) ;
#218 = CARTESIAN_POINT ( 'NONE',  ( 49.99999999999993605, 49.99999999999993605, 940.0000000000000000 ) ) ;
#219 = CC_DESIGN_PERSON_AND_ORGANIZATION_ASSIGNMENT ( #222, #333, ( #114 ) ) ;
#220 = VECTOR ( 'NONE', #248, 1000.000000000000000 ) ;
#221 = CARTESIAN_POINT ( 'NONE',  ( 49.99999999999996447, -50.00000000000004263, 940.0000000000000000 ) ) ;
#222 = PERSON_AND_ORGANIZATION ( #148, #243 ) ;
#223 = ORIENTED_EDGE ( 'NONE', *, *, #133, .T. ) ;
#224 = DIRECTION ( 'NONE',  ( -0.000000000000000000, -1.000000000000000000, -0.000000000000000000 ) ) ;
#225 = EDGE_CURVE ( 'NONE', #171, #135, #49, .T. ) ;
#226 = CARTESIAN_POINT ( 'NONE',  ( -50.00000000000004263, 49.99999999999993605, -940.0000000000000000 ) ) ;
#227 = LINE ( 'NONE', #284, #107 ) ;
#228 = VECTOR ( 'NONE', #367, 1000.000000000000000 ) ;
#229 = VERTEX_POINT ( 'NONE', #312 ) ;
#230 = DIRECTION ( 'NONE',  ( -0.000000000000000000, -0.000000000000000000, -1.000000000000000000 ) ) ;
#231 = ADVANCED_FACE ( 'NONE', ( #287, #279 ), #193, .F. ) ;
#232 = ORIENTED_EDGE ( 'NONE', *, *, #18, .T. ) ;
#233 = APPLICATION_PROTOCOL_DEFINITION ( 'international standard', 'config_control_design', 1994, #69 ) ;
#234 = ORIENTED_EDGE ( 'NONE', *, *, #211, .F. ) ;
#235 = DIRECTION ( 'NONE',  ( 0.000000000000000000, 1.000000000000000000, 0.000000000000000000 ) ) ;
#236 = EDGE_LOOP ( 'NONE', ( #15, #311, #55, #188 ) ) ;
#237 = APPROVAL_STATUS ( 'not_yet_approved' ) ;
#238 = ORIENTED_EDGE ( 'NONE', *, *, #67, .T. ) ;
#239 = EDGE_CURVE ( 'NONE', #60, #27, #51, .T. ) ;
#240 = DIRECTION ( 'NONE',  ( 1.000000000000000000, 0.000000000000000000, 0.000000000000000000 ) ) ;
#241 = COORDINATED_UNIVERSAL_TIME_OFFSET ( 1, 0, .AHEAD. ) ;
#242 = PLANE ( 'NONE',  #155 ) ;
#243 = ORGANIZATION ( 'UNSPECIFIED', 'UNSPECIFIED', '' ) ;
#244 = EDGE_CURVE ( 'NONE', #27, #26, #362, .T. ) ;
#245 = DIRECTION ( 'NONE',  ( -6.167905692361983519E-16, 1.000000000000000000, 0.000000000000000000 ) ) ;
#246 = CALENDAR_DATE ( 2026, 28, 1 ) ;
#247 = LINE ( 'NONE', #353, #305 ) ;
#248 = DIRECTION ( 'NONE',  ( -1.000000000000000000, -0.000000000000000000, -0.000000000000000000 ) ) ;
#249 = VECTOR ( 'NONE', #201, 1000.000000000000000 ) ;
#250 = DIRECTION ( 'NONE',  ( 1.000000000000000000, 0.000000000000000000, 0.000000000000000000 ) ) ;
#251 = AXIS2_PLACEMENT_3D ( 'NONE', #162, #250, #253 ) ;
#252 = DIRECTION ( 'NONE',  ( 0.000000000000000000, 1.000000000000000000, 0.000000000000000000 ) ) ;
#253 = DIRECTION ( 'NONE',  ( 0.000000000000000000, 0.000000000000000000, -1.000000000000000000 ) ) ;
#254 = ORIENTED_EDGE ( 'NONE', *, *, #146, .T. ) ;
#255 = EDGE_CURVE ( 'NONE', #135, #339, #364, .T. ) ;
#256 = DIRECTION ( 'NONE',  ( 0.000000000000000000, -0.000000000000000000, 1.000000000000000000 ) ) ;
#257 = ORIENTED_EDGE ( 'NONE', *, *, #217, .F. ) ;
#258 = PERSON_AND_ORGANIZATION_ROLE ( 'design_owner' ) ;
#259 = ORIENTED_EDGE ( 'NONE', *, *, #18, .F. ) ;
#260 = CALENDAR_DATE ( 2026, 28, 1 ) ;
#261 = VERTEX_POINT ( 'NONE', #165 ) ;
#262 = APPROVAL_DATE_TIME ( #28, #166 ) ;
#263 = ADVANCED_FACE ( 'NONE', ( #102 ), #338, .T. ) ;
#264 = ORIENTED_EDGE ( 'NONE', *, *, #244, .F. ) ;
#265 = CARTESIAN_POINT ( 'NONE',  ( -50.00000000000004263, -50.00000000000004263, 940.0000000000000000 ) ) ;
#266 = SECURITY_CLASSIFICATION_LEVEL ( 'unclassified' ) ;
#267 = DIRECTION ( 'NONE',  ( -0.000000000000000000, -1.000000000000000000, -0.000000000000000000 ) ) ;
#268 = ADVANCED_FACE ( 'NONE', ( #109 ), #199, .F. ) ;
#269 = CARTESIAN_POINT ( 'NONE',  ( -50.00000000000004263, 49.99999999999993605, -940.0000000000000000 ) ) ;
#270 = AXIS2_PLACEMENT_3D ( 'NONE', #110, #252, #256 ) ;
#271 = LINE ( 'NONE', #218, #142 ) ;
#272 = LINE ( 'NONE', #216, #7 ) ;
#273 = DIRECTION ( 'NONE',  ( 1.000000000000000000, 0.000000000000000000, 0.000000000000000000 ) ) ;
#274 = DATE_AND_TIME ( #327, #75 ) ;
#275 = VECTOR ( 'NONE', #95, 1000.000000000000000 ) ;
#276 = CC_DESIGN_APPROVAL ( #195, ( #62 ) ) ;
#277 = ORIENTED_EDGE ( 'NONE', *, *, #126, .F. ) ;
#278 = ADVANCED_FACE ( 'NONE', ( #309, #337 ), #334, .T. ) ;
#279 = FACE_BOUND ( 'NONE', #144, .T. ) ;
#280 = AXIS2_PLACEMENT_3D ( 'NONE', #63, #129, #178 ) ;
#281 = LOCAL_TIME ( 13, 25, 39.00000000000000000, #158 ) ;
#282 = LINE ( 'NONE', #21, #187 ) ;
#283 = ORIENTED_EDGE ( 'NONE', *, *, #244, .T. ) ;
#284 = CARTESIAN_POINT ( 'NONE',  ( 45.00000000000001421, -45.00000000000004263, 940.0000000000000000 ) ) ;
#285 = ORIENTED_EDGE ( 'NONE', *, *, #45, .T. ) ;
#286 = EDGE_CURVE ( 'NONE', #3, #192, #227, .T. ) ;
#287 = FACE_OUTER_BOUND ( 'NONE', #369, .T. ) ;
#288 = AXIS2_PLACEMENT_3D ( 'NONE', #265, #296, #5 ) ;
#289 = EDGE_LOOP ( 'NONE', ( #317, #259, #53, #86 ) ) ;
#290 = ORIENTED_EDGE ( 'NONE', *, *, #292, .T. ) ;
#291 = CALENDAR_DATE ( 2026, 28, 1 ) ;
#292 = EDGE_CURVE ( 'NONE', #171, #229, #282, .T. ) ;
#293 = EDGE_LOOP ( 'NONE', ( #58, #264, #47, #76 ) ) ;
#294 = CARTESIAN_POINT ( 'NONE',  ( -50.00000000000004263, 49.99999999999993605, 940.0000000000000000 ) ) ;
#295 = DATE_AND_TIME ( #260, #122 ) ;
#296 = DIRECTION ( 'NONE',  ( 1.000000000000000000, 0.000000000000000000, 0.000000000000000000 ) ) ;
#297 = EDGE_CURVE ( 'NONE', #29, #261, #19, .T. ) ;
#298 = CARTESIAN_POINT ( 'NONE',  ( -45.00000000000001421, 44.99999999999992895, 940.0000000000000000 ) ) ;
#299 = APPROVAL ( #105, 'UNSPECIFIED' ) ;
#300 = DATE_TIME_ROLE ( 'classification_date' ) ;
#301 = DIRECTION ( 'NONE',  ( -2.775557561562891844E-16, 1.000000000000000000, 0.000000000000000000 ) ) ;
#302 = CARTESIAN_POINT ( 'NONE',  ( 45.00000000000001421, -45.00000000000004263, 940.0000000000000000 ) ) ;
#303 = CC_DESIGN_PERSON_AND_ORGANIZATION_ASSIGNMENT ( #35, #258, ( #37 ) ) ;
#304 = DIRECTION ( 'NONE',  ( -0.000000000000000000, -0.000000000000000000, -1.000000000000000000 ) ) ;
#305 = VECTOR ( 'NONE', #245, 1000.000000000000000 ) ;
#306 = EDGE_CURVE ( 'NONE', #198, #60, #115, .T. ) ;
#307 = DIRECTION ( 'NONE',  ( -2.775557561562891844E-16, 1.000000000000000000, 0.000000000000000000 ) ) ;
#308 = ORIENTED_EDGE ( 'NONE', *, *, #211, .T. ) ;
#309 = FACE_OUTER_BOUND ( 'NONE', #293, .T. ) ;
#310 = APPROVAL_PERSON_ORGANIZATION ( #42, #299, #104 ) ;
#311 = ORIENTED_EDGE ( 'NONE', *, *, #45, .F. ) ;
#312 = CARTESIAN_POINT ( 'NONE',  ( -45.00000000000001421, -45.00000000000004263, 940.0000000000000000 ) ) ;
#313 = ORIENTED_EDGE ( 'NONE', *, *, #23, .F. ) ;
#314 = LINE ( 'NONE', #196, #366 ) ;
#315 = VERTEX_POINT ( 'NONE', #14 ) ;
#316 = VECTOR ( 'NONE', #273, 1000.000000000000000 ) ;
#317 = ORIENTED_EDGE ( 'NONE', *, *, #161, .T. ) ;
#318 = PERSON_AND_ORGANIZATION ( #148, #243 ) ;
#319 = DESIGN_CONTEXT ( 'detailed design', #69, 'design' ) ;
#320 = ORIENTED_EDGE ( 'NONE', *, *, #255, .F. ) ;
#321 = PERSON_AND_ORGANIZATION_ROLE ( 'creator' ) ;
#322 = LINE ( 'NONE', #326, #96 ) ;
#323 = DIRECTION ( 'NONE',  ( 0.000000000000000000, -0.000000000000000000, 1.000000000000000000 ) ) ;
#324 = CARTESIAN_POINT ( 'NONE',  ( -45.00000000000001421, 44.99999999999992895, 940.0000000000000000 ) ) ;
#325 = DIRECTION ( 'NONE',  ( 0.000000000000000000, -1.000000000000000000, 0.000000000000000000 ) ) ;
#326 = CARTESIAN_POINT ( 'NONE',  ( -45.00000000000001421, -45.00000000000004263, 940.0000000000000000 ) ) ;
#327 = CALENDAR_DATE ( 2026, 28, 1 ) ;
#328 = FACE_OUTER_BOUND ( 'NONE', #289, .T. ) ;
#329 = SHAPE_DEFINITION_REPRESENTATION ( #43, #179 ) ;
#330 = CARTESIAN_POINT ( 'NONE',  ( -50.00000000000004263, -50.00000000000004263, 940.0000000000000000 ) ) ;
#331 = CC_DESIGN_APPROVAL ( #166, ( #136 ) ) ;
#332 = EDGE_CURVE ( 'NONE', #203, #29, #134, .T. ) ;
#333 = PERSON_AND_ORGANIZATION_ROLE ( 'classification_officer' ) ;
#334 = PLANE ( 'NONE',  #113 ) ;
#335 = EDGE_CURVE ( 'NONE', #82, #135, #336, .T. ) ;
#336 = LINE ( 'NONE', #46, #275 ) ;
#337 = FACE_BOUND ( 'NONE', #79, .T. ) ;
#338 = PLANE ( 'NONE',  #251 ) ;
#339 = VERTEX_POINT ( 'NONE', #342 ) ;
#340 = CARTESIAN_POINT ( 'NONE',  ( -50.00000000000004263, -50.00000000000004263, -940.0000000000000000 ) ) ;
#341 = ORIENTED_EDGE ( 'NONE', *, *, #186, .F. ) ;
#342 = CARTESIAN_POINT ( 'NONE',  ( -45.00000000000001421, -45.00000000000004263, -940.0000000000000000 ) ) ;
#343 = ADVANCED_FACE ( 'NONE', ( #64 ), #214, .T. ) ;
#344 = ORIENTED_EDGE ( 'NONE', *, *, #335, .T. ) ;
#345 = PERSON_AND_ORGANIZATION_ROLE ( 'creator' ) ;
#346 = VECTOR ( 'NONE', #157, 1000.000000000000000 ) ;
#347 = VERTEX_POINT ( 'NONE', #348 ) ;
#348 = CARTESIAN_POINT ( 'NONE',  ( 44.99999999999995737, 44.99999999999992895, 940.0000000000000000 ) ) ;
#349 = ORIENTED_EDGE ( 'NONE', *, *, #255, .T. ) ;
#350 = PLANE ( 'NONE',  #48 ) ;
#351 = LINE ( 'NONE', #153, #56 ) ;
#352 = CARTESIAN_POINT ( 'NONE',  ( 0.000000000000000000, 0.000000000000000000, 0.000000000000000000 ) ) ;
#353 = CARTESIAN_POINT ( 'NONE',  ( 45.00000000000001421, -45.00000000000004263, 940.0000000000000000 ) ) ;
#354 = LINE ( 'NONE', #125, #180 ) ;
#355 = CARTESIAN_POINT ( 'NONE',  ( 45.00000000000001421, -45.00000000000004263, -940.0000000000000000 ) ) ;
#356 = ADVANCED_FACE ( 'NONE', ( #370 ), #350, .F. ) ;
#357 = COORDINATED_UNIVERSAL_TIME_OFFSET ( 1, 0, .AHEAD. ) ;
#358 = DIRECTION ( 'NONE',  ( 0.000000000000000000, 0.000000000000000000, -1.000000000000000000 ) ) ;
#359 = VECTOR ( 'NONE', #189, 1000.000000000000000 ) ;
#360 = VECTOR ( 'NONE', #182, 1000.000000000000000 ) ;
#361 = DIRECTION ( 'NONE',  ( 0.000000000000000000, 0.000000000000000000, -1.000000000000000000 ) ) ;
#362 = LINE ( 'NONE', #226, #249 ) ;
#363 = CC_DESIGN_DATE_AND_TIME_ASSIGNMENT ( #206, #30, ( #62 ) ) ;
#364 = LINE ( 'NONE', #143, #12 ) ;
#365 = EDGE_LOOP ( 'NONE', ( #283, #257, #116, #285 ) ) ;
#366 = VECTOR ( 'NONE', #304, 1000.000000000000000 ) ;
#367 = DIRECTION ( 'NONE',  ( 1.000000000000000000, 0.000000000000000000, 0.000000000000000000 ) ) ;
#368 = VECTOR ( 'NONE', #138, 1000.000000000000000 ) ;
#369 = EDGE_LOOP ( 'NONE', ( #204, #141, #223, #238 ) ) ;
#370 = FACE_OUTER_BOUND ( 'NONE', #365, .T. ) ;
#371 = ORIENTED_EDGE ( 'NONE', *, *, #23, .T. ) ;
#372 = APPROVAL_DATE_TIME ( #295, #195 ) ;
#373 = ORIENTED_EDGE ( 'NONE', *, *, #90, .T. ) ;
ENDSEC;
END-ISO-10303-21;
