ISO-10303-21;
HEADER;
FILE_DESCRIPTION (( 'STEP AP203' ),
    '1' );
FILE_NAME ('Base_bearing_mount_support_Default_sldprt.STEP',
    '2026-01-28T12:25:37',
    ( '' ),
    ( '' ),
    'SwSTEP 2.0',
    'SolidWorks 2024',
    '' );
FILE_SCHEMA (( 'CONFIG_CONTROL_DESIGN' ));
ENDSEC;

DATA;
#1 = AXIS2_PLACEMENT_3D ( 'NONE', #85, #204, #325 ) ;
#2 = LINE ( 'NONE', #82, #171 ) ;
#3 = DIRECTION ( 'NONE',  ( 0.000000000000000000, 0.000000000000000000, 1.000000000000000000 ) ) ;
#4 = PRODUCT_DEFINITION ( 'UNKNOWN', '', #23, #287 ) ;
#5 = CARTESIAN_POINT ( 'NONE',  ( -115.0000000000000000, -39.99999999999999289, -10.00000000000000178 ) ) ;
#6 = CIRCLE ( 'NONE', #92, 8.999999999999996447 ) ;
#7 = DIRECTION ( 'NONE',  ( 0.000000000000000000, 1.000000000000000000, 0.000000000000000000 ) ) ;
#8 = EDGE_CURVE ( 'NONE', #309, #341, #166, .T. ) ;
#9 = DIRECTION ( 'NONE',  ( -0.000000000000000000, -1.000000000000000000, -0.000000000000000000 ) ) ;
#10 = CARTESIAN_POINT ( 'NONE',  ( -149.9999999999999716, 39.99999999999999289, 50.00000000000000000 ) ) ;
#11 = CIRCLE ( 'NONE', #41, 8.999999999999996447 ) ;
#12 = ORIENTED_EDGE ( 'NONE', *, *, #185, .F. ) ;
#13 = ORIENTED_EDGE ( 'NONE', *, *, #60, .F. ) ;
#14 = ORIENTED_EDGE ( 'NONE', *, *, #153, .T. ) ;
#15 =( NAMED_UNIT ( * ) PLANE_ANGLE_UNIT ( ) SI_UNIT ( $, .RADIAN. ) );
#16 = AXIS2_PLACEMENT_3D ( 'NONE', #152, #151, #270 ) ;
#17 = VERTEX_POINT ( 'NONE', #348 ) ;
#18 = APPLICATION_PROTOCOL_DEFINITION ( 'international standard', 'config_control_design', 1994, #56 ) ;
#19 = ORIENTED_EDGE ( 'NONE', *, *, #139, .F. ) ;
#20 = CARTESIAN_POINT ( 'NONE',  ( -149.9999999999999716, 39.99999999999999289, -50.00000000000000000 ) ) ;
#21 = PLANE ( 'NONE',  #334 ) ;
#22 = CARTESIAN_POINT ( 'NONE',  ( 114.9999999999999858, 40.00000000000000711, -1.000000000000005995 ) ) ;
#23 = PRODUCT_DEFINITION_FORMATION_WITH_SPECIFIED_SOURCE ( 'ANY', '', #167, .NOT_KNOWN. ) ;
#24 = PERSON_AND_ORGANIZATION ( #374, #208 ) ;
#25 = PLANE ( 'NONE',  #29 ) ;
#26 = DIRECTION ( 'NONE',  ( -1.000000000000000000, 0.000000000000000000, -0.000000000000000000 ) ) ;
#27 = DATE_TIME_ROLE ( 'creation_date' ) ;
#28 = ORIENTED_EDGE ( 'NONE', *, *, #131, .F. ) ;
#29 = AXIS2_PLACEMENT_3D ( 'NONE', #146, #140, #142 ) ;
#30 = ADVANCED_FACE ( 'NONE', ( #261 ), #196, .F. ) ;
#31 = DIRECTION ( 'NONE',  ( 0.000000000000000000, 0.000000000000000000, 1.000000000000000000 ) ) ;
#32 = CARTESIAN_POINT ( 'NONE',  ( 114.9999999999999858, 40.00000000000000711, -10.00000000000000178 ) ) ;
#33 = CARTESIAN_POINT ( 'NONE',  ( -149.9999999999999716, 39.99999999999999289, 50.00000000000000000 ) ) ;
#34 = CC_DESIGN_PERSON_AND_ORGANIZATION_ASSIGNMENT ( #327, #121, ( #23 ) ) ;
#35 = AXIS2_PLACEMENT_3D ( 'NONE', #328, #64, #361 ) ;
#36 = LOCAL_TIME ( 13, 25, 37.00000000000000000, #181 ) ;
#37 = FACE_BOUND ( 'NONE', #316, .T. ) ;
#38 = LINE ( 'NONE', #10, #223 ) ;
#39 = DIRECTION ( 'NONE',  ( 0.000000000000000000, 0.000000000000000000, -1.000000000000000000 ) ) ;
#40 = ORIENTED_EDGE ( 'NONE', *, *, #294, .F. ) ;
#41 = AXIS2_PLACEMENT_3D ( 'NONE', #211, #7, #124 ) ;
#42 = EDGE_CURVE ( 'NONE', #17, #220, #134, .T. ) ;
#43 = ORIENTED_EDGE ( 'NONE', *, *, #8, .F. ) ;
#44 = ORIENTED_EDGE ( 'NONE', *, *, #165, .T. ) ;
#45 = ORIENTED_EDGE ( 'NONE', *, *, #200, .F. ) ;
#46 = EDGE_CURVE ( 'NONE', #73, #309, #2, .T. ) ;
#47 = AXIS2_PLACEMENT_3D ( 'NONE', #324, #383, #353 ) ;
#48 = ORIENTED_EDGE ( 'NONE', *, *, #46, .F. ) ;
#49 = DIRECTION ( 'NONE',  ( 0.000000000000000000, 0.000000000000000000, -1.000000000000000000 ) ) ;
#50 =( LENGTH_UNIT ( ) NAMED_UNIT ( * ) SI_UNIT ( .MILLI., .METRE. ) );
#51 = VERTEX_POINT ( 'NONE', #22 ) ;
#52 = DIRECTION ( 'NONE',  ( 0.000000000000000000, 0.000000000000000000, 1.000000000000000000 ) ) ;
#53 = FACE_OUTER_BOUND ( 'NONE', #283, .T. ) ;
#54 = APPROVAL_STATUS ( 'not_yet_approved' ) ;
#55 = FACE_BOUND ( 'NONE', #381, .T. ) ;
#56 = APPLICATION_CONTEXT ( 'configuration controlled 3d designs of mechanical parts and assemblies' ) ;
#57 = DATE_AND_TIME ( #65, #289 ) ;
#58 = LINE ( 'NONE', #198, #118 ) ;
#59 = CALENDAR_DATE ( 2026, 28, 1 ) ;
#60 = EDGE_CURVE ( 'NONE', #355, #155, #205, .T. ) ;
#61 = DIRECTION ( 'NONE',  ( -0.000000000000000000, 1.000000000000000000, -0.000000000000000000 ) ) ;
#62 = VECTOR ( 'NONE', #182, 1000.000000000000000 ) ;
#63 = SECURITY_CLASSIFICATION_LEVEL ( 'unclassified' ) ;
#64 = DIRECTION ( 'NONE',  ( -0.000000000000000000, 1.000000000000000000, -0.000000000000000000 ) ) ;
#65 = CALENDAR_DATE ( 2026, 28, 1 ) ;
#66 = FACE_BOUND ( 'NONE', #313, .T. ) ;
#67 = EDGE_CURVE ( 'NONE', #155, #73, #58, .T. ) ;
#68 = CARTESIAN_POINT ( 'NONE',  ( -149.9999999999999716, -39.99999999999999289, -50.00000000000000000 ) ) ;
#69 = VECTOR ( 'NONE', #380, 1000.000000000000000 ) ;
#70 = DIRECTION ( 'NONE',  ( 0.000000000000000000, 0.000000000000000000, 1.000000000000000000 ) ) ;
#71 = PERSON_AND_ORGANIZATION_ROLE ( 'creator' ) ;
#72 = ADVANCED_FACE ( 'NONE', ( #320 ), #25, .F. ) ;
#73 = VERTEX_POINT ( 'NONE', #115 ) ;
#74 = APPROVAL_PERSON_ORGANIZATION ( #234, #99, #202 ) ;
#75 = ORIENTED_EDGE ( 'NONE', *, *, #158, .F. ) ;
#76 = ORIENTED_EDGE ( 'NONE', *, *, #67, .T. ) ;
#77 = LINE ( 'NONE', #133, #69 ) ;
#78 = ORIENTED_EDGE ( 'NONE', *, *, #60, .T. ) ;
#79 = VECTOR ( 'NONE', #333, 1000.000000000000000 ) ;
#80 = ORIENTED_EDGE ( 'NONE', *, *, #116, .T. ) ;
#81 = CARTESIAN_POINT ( 'NONE',  ( -149.9999999999999716, -39.99999999999999289, 50.00000000000000000 ) ) ;
#82 = CARTESIAN_POINT ( 'NONE',  ( 150.0000000000000284, 40.00000000000000711, 50.00000000000000000 ) ) ;
#83 = CARTESIAN_POINT ( 'NONE',  ( -149.9999999999999716, 39.99999999999999289, 50.00000000000000000 ) ) ;
#84 = MANIFOLD_SOLID_BREP ( 'Cut-Extrude1', #86 ) ;
#85 = CARTESIAN_POINT ( 'NONE',  ( -115.0000000000000000, -39.99999999999999289, -10.00000000000000178 ) ) ;
#86 = CLOSED_SHELL ( 'NONE', ( #221, #150, #307, #227, #72, #111, #103, #346, #30, #173 ) ) ;
#87 = DIRECTION ( 'NONE',  ( -0.000000000000000000, -0.000000000000000000, -1.000000000000000000 ) ) ;
#88 = PERSON_AND_ORGANIZATION ( #374, #208 ) ;
#89 = CYLINDRICAL_SURFACE ( 'NONE', #35, 8.999999999999996447 ) ;
#90 = COORDINATED_UNIVERSAL_TIME_OFFSET ( 1, 0, .AHEAD. ) ;
#91 = DIRECTION ( 'NONE',  ( -0.000000000000000000, -0.000000000000000000, -1.000000000000000000 ) ) ;
#92 = AXIS2_PLACEMENT_3D ( 'NONE', #170, #141, #308 ) ;
#93 = DATE_AND_TIME ( #59, #36 ) ;
#94 = EDGE_CURVE ( 'NONE', #288, #17, #263, .T. ) ;
#95 = LINE ( 'NONE', #332, #339 ) ;
#96 = CARTESIAN_POINT ( 'NONE',  ( 150.0000000000000568, -39.99999999999999289, 50.00000000000000000 ) ) ;
#97 = DIRECTION ( 'NONE',  ( 0.000000000000000000, 1.000000000000000000, 0.000000000000000000 ) ) ;
#98 = DATE_AND_TIME ( #254, #240 ) ;
#99 = APPROVAL ( #54, 'UNSPECIFIED' ) ;
#100 = ORIENTED_EDGE ( 'NONE', *, *, #185, .T. ) ;
#101 = ORIENTED_EDGE ( 'NONE', *, *, #294, .T. ) ;
#102 = AXIS2_PLACEMENT_3D ( 'NONE', #284, #52, #349 ) ;
#103 = ADVANCED_FACE ( 'NONE', ( #53 ), #113, .F. ) ;
#104 = ORIENTED_EDGE ( 'NONE', *, *, #67, .F. ) ;
#105 = DIRECTION ( 'NONE',  ( 1.000000000000000000, 0.000000000000000000, 0.000000000000000000 ) ) ;
#106 = ORIENTED_EDGE ( 'NONE', *, *, #236, .F. ) ;
#107 = ORIENTED_EDGE ( 'NONE', *, *, #165, .F. ) ;
#108 = COORDINATED_UNIVERSAL_TIME_OFFSET ( 1, 0, .AHEAD. ) ;
#109 = AXIS2_PLACEMENT_3D ( 'NONE', #207, #61, #210 ) ;
#110 = DIRECTION ( 'NONE',  ( 0.000000000000000000, 0.000000000000000000, 1.000000000000000000 ) ) ;
#111 = ADVANCED_FACE ( 'NONE', ( #356, #55, #292 ), #350, .F. ) ;
#112 = APPLICATION_PROTOCOL_DEFINITION ( 'international standard', 'config_control_design', 1994, #312 ) ;
#113 = PLANE ( 'NONE',  #304 ) ;
#114 = UNCERTAINTY_MEASURE_WITH_UNIT (LENGTH_MEASURE( 1.000000000000000082E-05 ), #50, 'distance_accuracy_value', 'NONE');
#115 = CARTESIAN_POINT ( 'NONE',  ( 150.0000000000000284, 40.00000000000000711, 50.00000000000000000 ) ) ;
#116 = EDGE_CURVE ( 'NONE', #51, #169, #330, .T. ) ;
#117 = DIRECTION ( 'NONE',  ( -1.000000000000000000, -4.625929269271485791E-17, -0.000000000000000000 ) ) ;
#118 = VECTOR ( 'NONE', #175, 1000.000000000000000 ) ;
#119 = PERSON_AND_ORGANIZATION_ROLE ( 'creator' ) ;
#120 = CARTESIAN_POINT ( 'NONE',  ( -149.9999999999999716, -39.99999999999999289, 50.00000000000000000 ) ) ;
#121 = PERSON_AND_ORGANIZATION_ROLE ( 'design_supplier' ) ;
#122 = DIRECTION ( 'NONE',  ( 0.000000000000000000, 1.000000000000000000, 0.000000000000000000 ) ) ;
#123 = CYLINDRICAL_SURFACE ( 'NONE', #365, 8.999999999999996447 ) ;
#124 = DIRECTION ( 'NONE',  ( 0.000000000000000000, 0.000000000000000000, 1.000000000000000000 ) ) ;
#125 = CARTESIAN_POINT ( 'NONE',  ( -149.9999999999999716, -39.99999999999999289, -50.00000000000000000 ) ) ;
#126 = CARTESIAN_POINT ( 'NONE',  ( -115.0000000000000000, -39.99999999999999289, -10.00000000000000178 ) ) ;
#127 = EDGE_CURVE ( 'NONE', #288, #249, #203, .T. ) ;
#128 = VECTOR ( 'NONE', #199, 1000.000000000000000 ) ;
#129 = EDGE_LOOP ( 'NONE', ( #265, #45, #13, #233 ) ) ;
#130 = ORIENTED_EDGE ( 'NONE', *, *, #338, .F. ) ;
#131 = EDGE_CURVE ( 'NONE', #215, #309, #385, .T. ) ;
#132 = ORIENTED_EDGE ( 'NONE', *, *, #116, .F. ) ;
#133 = CARTESIAN_POINT ( 'NONE',  ( 114.9999999999999858, -39.99999999999999289, -1.000000000000005995 ) ) ;
#134 = CIRCLE ( 'NONE', #145, 8.999999999999996447 ) ;
#135 = EDGE_LOOP ( 'NONE', ( #217, #255, #19, #280 ) ) ;
#136 = LINE ( 'NONE', #226, #269 ) ;
#137 = ORIENTED_EDGE ( 'NONE', *, *, #258, .F. ) ;
#138 = VERTEX_POINT ( 'NONE', #33 ) ;
#139 = EDGE_CURVE ( 'NONE', #73, #138, #38, .T. ) ;
#140 = DIRECTION ( 'NONE',  ( -1.000000000000000000, -3.469446951953614189E-16, 0.000000000000000000 ) ) ;
#141 = DIRECTION ( 'NONE',  ( 0.000000000000000000, 1.000000000000000000, 0.000000000000000000 ) ) ;
#142 = DIRECTION ( 'NONE',  ( 3.469446951953614189E-16, -1.000000000000000000, 0.000000000000000000 ) ) ;
#143 = DIRECTION ( 'NONE',  ( 1.000000000000000000, 4.625929269271486407E-17, 0.000000000000000000 ) ) ;
#144 = DATE_TIME_ROLE ( 'classification_date' ) ;
#145 = AXIS2_PLACEMENT_3D ( 'NONE', #257, #378, #110 ) ;
#146 = CARTESIAN_POINT ( 'NONE',  ( 150.0000000000000568, -39.99999999999999289, 50.00000000000000000 ) ) ;
#147 = CC_DESIGN_APPROVAL ( #274, ( #232 ) ) ;
#148 = CARTESIAN_POINT ( 'NONE',  ( 150.0000000000000568, -39.99999999999999289, -50.00000000000000000 ) ) ;
#149 = FACE_OUTER_BOUND ( 'NONE', #343, .T. ) ;
#150 = ADVANCED_FACE ( 'NONE', ( #331 ), #123, .F. ) ;
#151 = DIRECTION ( 'NONE',  ( 0.000000000000000000, 1.000000000000000000, 0.000000000000000000 ) ) ;
#152 = CARTESIAN_POINT ( 'NONE',  ( -149.9999999999999716, -39.99999999999999289, 50.00000000000000000 ) ) ;
#153 = EDGE_CURVE ( 'NONE', #249, #220, #238, .T. ) ;
#154 = CARTESIAN_POINT ( 'NONE',  ( -115.0000000000000000, -39.99999999999999289, -1.000000000000005995 ) ) ;
#155 = VERTEX_POINT ( 'NONE', #209 ) ;
#156 = CIRCLE ( 'NONE', #184, 8.999999999999996447 ) ;
#157 = EDGE_LOOP ( 'NONE', ( #277, #48, #104, #218 ) ) ;
#158 = EDGE_CURVE ( 'NONE', #373, #169, #357, .T. ) ;
#159 = ORIENTED_EDGE ( 'NONE', *, *, #127, .T. ) ;
#160 = EDGE_LOOP ( 'NONE', ( #132, #12 ) ) ;
#161 = AXIS2_PLACEMENT_3D ( 'NONE', #347, #105, #195 ) ;
#162 = APPROVAL_PERSON_ORGANIZATION ( #229, #274, #293 ) ;
#163 = EDGE_LOOP ( 'NONE', ( #345, #315, #340, #262 ) ) ;
#164 = CARTESIAN_POINT ( 'NONE',  ( 114.9999999999999858, -39.99999999999999289, -18.99999999999999645 ) ) ;
#165 = EDGE_CURVE ( 'NONE', #249, #288, #189, .T. ) ;
#166 = LINE ( 'NONE', #20, #370 ) ;
#167 = PRODUCT ( 'Base_bearing_mount_support_Default_sldprt', 'Base_bearing_mount_support_Default_sldprt', '', ( #252 ) ) ;
#168 = FACE_OUTER_BOUND ( 'NONE', #163, .T. ) ;
#169 = VERTEX_POINT ( 'NONE', #180 ) ;
#170 = CARTESIAN_POINT ( 'NONE',  ( 114.9999999999999858, -39.99999999999999289, -10.00000000000000178 ) ) ;
#171 = VECTOR ( 'NONE', #87, 1000.000000000000000 ) ;
#172 = EDGE_LOOP ( 'NONE', ( #137, #43, #28, #276 ) ) ;
#173 = ADVANCED_FACE ( 'NONE', ( #241 ), #89, .F. ) ;
#174 = DIRECTION ( 'NONE',  ( 0.000000000000000000, 0.000000000000000000, 1.000000000000000000 ) ) ;
#175 = DIRECTION ( 'NONE',  ( -3.469446951953614189E-16, 1.000000000000000000, 0.000000000000000000 ) ) ;
#176 = CC_DESIGN_APPROVAL ( #314, ( #4 ) ) ;
#177 = LINE ( 'NONE', #96, #79 ) ;
#178 = ADVANCED_BREP_SHAPE_REPRESENTATION ( 'Base_bearing_mount_support_Default_sldprt', ( #84, #102 ), #379 ) ;
#179 = APPROVAL_DATE_TIME ( #329, #274 ) ;
#180 = CARTESIAN_POINT ( 'NONE',  ( 114.9999999999999858, 40.00000000000000711, -18.99999999999999645 ) ) ;
#181 = COORDINATED_UNIVERSAL_TIME_OFFSET ( 1, 0, .AHEAD. ) ;
#182 = DIRECTION ( 'NONE',  ( -0.000000000000000000, 1.000000000000000000, -0.000000000000000000 ) ) ;
#183 = CARTESIAN_POINT ( 'NONE',  ( -149.9999999999999716, -39.99999999999999289, 50.00000000000000000 ) ) ;
#184 = AXIS2_PLACEMENT_3D ( 'NONE', #32, #97, #70 ) ;
#185 = EDGE_CURVE ( 'NONE', #169, #51, #156, .T. ) ;
#186 = DIRECTION ( 'NONE',  ( -0.000000000000000000, -0.000000000000000000, -1.000000000000000000 ) ) ;
#187 = COORDINATED_UNIVERSAL_TIME_OFFSET ( 1, 0, .AHEAD. ) ;
#188 = VERTEX_POINT ( 'NONE', #362 ) ;
#189 = CIRCLE ( 'NONE', #281, 8.999999999999996447 ) ;
#190 = ORIENTED_EDGE ( 'NONE', *, *, #127, .F. ) ;
#191 = ORIENTED_EDGE ( 'NONE', *, *, #236, .T. ) ;
#192 =( NAMED_UNIT ( * ) SI_UNIT ( $, .STERADIAN. ) SOLID_ANGLE_UNIT ( ) );
#193 = VERTEX_POINT ( 'NONE', #125 ) ;
#194 = VECTOR ( 'NONE', #230, 1000.000000000000000 ) ;
#195 = DIRECTION ( 'NONE',  ( 0.000000000000000000, 0.000000000000000000, -1.000000000000000000 ) ) ;
#196 = CYLINDRICAL_SURFACE ( 'NONE', #251, 8.999999999999996447 ) ;
#197 = CARTESIAN_POINT ( 'NONE',  ( 0.000000000000000000, 0.000000000000000000, -50.00000000000000000 ) ) ;
#198 = CARTESIAN_POINT ( 'NONE',  ( 150.0000000000000568, -39.99999999999999289, 50.00000000000000000 ) ) ;
#199 = DIRECTION ( 'NONE',  ( -0.000000000000000000, -1.000000000000000000, -0.000000000000000000 ) ) ;
#200 = EDGE_CURVE ( 'NONE', #155, #215, #177, .T. ) ;
#201 = DIRECTION ( 'NONE',  ( -0.000000000000000000, 1.000000000000000000, -0.000000000000000000 ) ) ;
#202 = APPROVAL_ROLE ( '' ) ;
#203 = CIRCLE ( 'NONE', #1, 8.999999999999996447 ) ;
#204 = DIRECTION ( 'NONE',  ( 0.000000000000000000, 1.000000000000000000, 0.000000000000000000 ) ) ;
#205 = LINE ( 'NONE', #120, #194 ) ;
#206 = APPROVAL_DATE_TIME ( #57, #99 ) ;
#207 = CARTESIAN_POINT ( 'NONE',  ( 114.9999999999999858, -39.99999999999999289, -10.00000000000000178 ) ) ;
#208 = ORGANIZATION ( 'UNSPECIFIED', 'UNSPECIFIED', '' ) ;
#209 = CARTESIAN_POINT ( 'NONE',  ( 150.0000000000000568, -39.99999999999999289, 50.00000000000000000 ) ) ;
#210 = DIRECTION ( 'NONE',  ( 0.000000000000000000, 0.000000000000000000, 1.000000000000000000 ) ) ;
#211 = CARTESIAN_POINT ( 'NONE',  ( -115.0000000000000000, 40.00000000000000711, -10.00000000000000178 ) ) ;
#212 = CYLINDRICAL_SURFACE ( 'NONE', #109, 8.999999999999996447 ) ;
#213 = VECTOR ( 'NONE', #186, 1000.000000000000000 ) ;
#214 = APPROVAL_DATE_TIME ( #98, #314 ) ;
#215 = VERTEX_POINT ( 'NONE', #148 ) ;
#216 = EDGE_CURVE ( 'NONE', #138, #341, #95, .T. ) ;
#217 = ORIENTED_EDGE ( 'NONE', *, *, #8, .T. ) ;
#218 = ORIENTED_EDGE ( 'NONE', *, *, #200, .T. ) ;
#219 = LINE ( 'NONE', #342, #128 ) ;
#220 = VERTEX_POINT ( 'NONE', #300 ) ;
#221 = ADVANCED_FACE ( 'NONE', ( #149 ), #212, .F. ) ;
#222 = EDGE_LOOP ( 'NONE', ( #247, #107, #14, #191 ) ) ;
#223 = VECTOR ( 'NONE', #335, 1000.000000000000000 ) ;
#224 = DIRECTION ( 'NONE',  ( 0.000000000000000000, 0.000000000000000000, 1.000000000000000000 ) ) ;
#225 = CARTESIAN_POINT ( 'NONE',  ( -115.0000000000000000, -39.99999999999999289, -10.00000000000000178 ) ) ;
#226 = CARTESIAN_POINT ( 'NONE',  ( -149.9999999999999716, -39.99999999999999289, -50.00000000000000000 ) ) ;
#227 = ADVANCED_FACE ( 'NONE', ( #37, #66, #303 ), #298, .F. ) ;
#228 = CARTESIAN_POINT ( 'NONE',  ( 0.000000000000000000, 0.000000000000000000, 50.00000000000000000 ) ) ;
#229 = PERSON_AND_ORGANIZATION ( #374, #208 ) ;
#230 = DIRECTION ( 'NONE',  ( 1.000000000000000000, 0.000000000000000000, 0.000000000000000000 ) ) ;
#231 = AXIS2_PLACEMENT_3D ( 'NONE', #245, #372, #224 ) ;
#232 = SECURITY_CLASSIFICATION ( '', '', #63 ) ;
#233 = ORIENTED_EDGE ( 'NONE', *, *, #268, .T. ) ;
#234 = PERSON_AND_ORGANIZATION ( #374, #208 ) ;
#235 = ORIENTED_EDGE ( 'NONE', *, *, #338, .T. ) ;
#236 = EDGE_CURVE ( 'NONE', #220, #17, #11, .T. ) ;
#237 = PERSON_AND_ORGANIZATION ( #374, #208 ) ;
#238 = LINE ( 'NONE', #154, #62 ) ;
#239 = DATE_AND_TIME ( #384, #360 ) ;
#240 = LOCAL_TIME ( 13, 25, 37.00000000000000000, #108 ) ;
#241 = FACE_OUTER_BOUND ( 'NONE', #278, .T. ) ;
#242 = CC_DESIGN_DATE_AND_TIME_ASSIGNMENT ( #239, #27, ( #4 ) ) ;
#243 = CARTESIAN_POINT ( 'NONE',  ( -115.0000000000000000, -39.99999999999999289, -1.000000000000005995 ) ) ;
#244 = LINE ( 'NONE', #183, #213 ) ;
#245 = CARTESIAN_POINT ( 'NONE',  ( 114.9999999999999858, -39.99999999999999289, -10.00000000000000178 ) ) ;
#246 = CC_DESIGN_APPROVAL ( #99, ( #23 ) ) ;
#247 = ORIENTED_EDGE ( 'NONE', *, *, #94, .F. ) ;
#248 = CC_DESIGN_DATE_AND_TIME_ASSIGNMENT ( #93, #144, ( #232 ) ) ;
#249 = VERTEX_POINT ( 'NONE', #243 ) ;
#250 = ORIENTED_EDGE ( 'NONE', *, *, #94, .T. ) ;
#251 = AXIS2_PLACEMENT_3D ( 'NONE', #225, #201, #174 ) ;
#252 = MECHANICAL_CONTEXT ( 'NONE', #312, 'mechanical' ) ;
#253 = ORIENTED_EDGE ( 'NONE', *, *, #368, .F. ) ;
#254 = CALENDAR_DATE ( 2026, 28, 1 ) ;
#255 = ORIENTED_EDGE ( 'NONE', *, *, #216, .F. ) ;
#256 = PERSON_AND_ORGANIZATION ( #374, #208 ) ;
#257 = CARTESIAN_POINT ( 'NONE',  ( -115.0000000000000000, 40.00000000000000711, -10.00000000000000178 ) ) ;
#258 = EDGE_CURVE ( 'NONE', #341, #193, #272, .T. ) ;
#259 = CIRCLE ( 'NONE', #231, 8.999999999999996447 ) ;
#260 = DIRECTION ( 'NONE',  ( 1.000000000000000000, 0.000000000000000000, 0.000000000000000000 ) ) ;
#261 = FACE_OUTER_BOUND ( 'NONE', #222, .T. ) ;
#262 = ORIENTED_EDGE ( 'NONE', *, *, #216, .T. ) ;
#263 = LINE ( 'NONE', #295, #317 ) ;
#264 = VECTOR ( 'NONE', #363, 1000.000000000000000 ) ;
#265 = ORIENTED_EDGE ( 'NONE', *, *, #364, .T. ) ;
#266 = DIRECTION ( 'NONE',  ( -0.000000000000000000, 1.000000000000000000, -0.000000000000000000 ) ) ;
#267 = CARTESIAN_POINT ( 'NONE',  ( 114.9999999999999858, -39.99999999999999289, -18.99999999999999645 ) ) ;
#268 = EDGE_CURVE ( 'NONE', #355, #193, #244, .T. ) ;
#269 = VECTOR ( 'NONE', #260, 1000.000000000000000 ) ;
#270 = DIRECTION ( 'NONE',  ( 0.000000000000000000, -0.000000000000000000, 1.000000000000000000 ) ) ;
#271 = CARTESIAN_POINT ( 'NONE',  ( 150.0000000000000568, -39.99999999999999289, -50.00000000000000000 ) ) ;
#272 = LINE ( 'NONE', #68, #297 ) ;
#273 = DIRECTION ( 'NONE',  ( -1.000000000000000000, 0.000000000000000000, -0.000000000000000000 ) ) ;
#274 = APPROVAL ( #358, 'UNSPECIFIED' ) ;
#275 = AXIS2_PLACEMENT_3D ( 'NONE', #83, #291, #143 ) ;
#276 = ORIENTED_EDGE ( 'NONE', *, *, #364, .F. ) ;
#277 = ORIENTED_EDGE ( 'NONE', *, *, #131, .T. ) ;
#278 = EDGE_LOOP ( 'NONE', ( #75, #40, #235, #80 ) ) ;
#279 = CC_DESIGN_PERSON_AND_ORGANIZATION_ASSIGNMENT ( #88, #302, ( #232 ) ) ;
#280 = ORIENTED_EDGE ( 'NONE', *, *, #46, .T. ) ;
#281 = AXIS2_PLACEMENT_3D ( 'NONE', #5, #122, #31 ) ;
#282 = PERSON_AND_ORGANIZATION_ROLE ( 'design_owner' ) ;
#283 = EDGE_LOOP ( 'NONE', ( #326, #78, #76, #371 ) ) ;
#284 = CARTESIAN_POINT ( 'NONE',  ( 0.000000000000000000, 0.000000000000000000, 0.000000000000000000 ) ) ;
#285 = ORIENTED_EDGE ( 'NONE', *, *, #158, .T. ) ;
#286 = CARTESIAN_POINT ( 'NONE',  ( -149.9999999999999716, 39.99999999999999289, -50.00000000000000000 ) ) ;
#287 = DESIGN_CONTEXT ( 'detailed design', #56, 'design' ) ;
#288 = VERTEX_POINT ( 'NONE', #306 ) ;
#289 = LOCAL_TIME ( 13, 25, 37.00000000000000000, #90 ) ;
#290 = CC_DESIGN_SECURITY_CLASSIFICATION ( #232, ( #23 ) ) ;
#291 = DIRECTION ( 'NONE',  ( 4.625929269271486407E-17, -1.000000000000000000, 0.000000000000000000 ) ) ;
#292 = FACE_OUTER_BOUND ( 'NONE', #135, .T. ) ;
#293 = APPROVAL_ROLE ( '' ) ;
#294 = EDGE_CURVE ( 'NONE', #188, #373, #259, .T. ) ;
#295 = CARTESIAN_POINT ( 'NONE',  ( -115.0000000000000000, -39.99999999999999289, -18.99999999999999645 ) ) ;
#296 = CALENDAR_DATE ( 2026, 28, 1 ) ;
#297 = VECTOR ( 'NONE', #9, 1000.000000000000000 ) ;
#298 = PLANE ( 'NONE',  #16 ) ;
#299 = SHAPE_DEFINITION_REPRESENTATION ( #318, #178 ) ;
#300 = CARTESIAN_POINT ( 'NONE',  ( -115.0000000000000000, 40.00000000000000711, -1.000000000000005995 ) ) ;
#301 = PRODUCT_RELATED_PRODUCT_CATEGORY ( 'detail', '', ( #167 ) ) ;
#302 = PERSON_AND_ORGANIZATION_ROLE ( 'classification_officer' ) ;
#303 = FACE_OUTER_BOUND ( 'NONE', #129, .T. ) ;
#304 = AXIS2_PLACEMENT_3D ( 'NONE', #228, #49, #26 ) ;
#305 = DIRECTION ( 'NONE',  ( -0.000000000000000000, 1.000000000000000000, -0.000000000000000000 ) ) ;
#306 = CARTESIAN_POINT ( 'NONE',  ( -115.0000000000000000, -39.99999999999999289, -18.99999999999999645 ) ) ;
#307 = ADVANCED_FACE ( 'NONE', ( #168 ), #375, .F. ) ;
#308 = DIRECTION ( 'NONE',  ( 0.000000000000000000, 0.000000000000000000, 1.000000000000000000 ) ) ;
#309 = VERTEX_POINT ( 'NONE', #344 ) ;
#310 = APPROVAL_PERSON_ORGANIZATION ( #24, #314, #377 ) ;
#311 = ORIENTED_EDGE ( 'NONE', *, *, #42, .T. ) ;
#312 = APPLICATION_CONTEXT ( 'configuration controlled 3d designs of mechanical parts and assemblies' ) ;
#313 = EDGE_LOOP ( 'NONE', ( #44, #159 ) ) ;
#314 = APPROVAL ( #366, 'UNSPECIFIED' ) ;
#315 = ORIENTED_EDGE ( 'NONE', *, *, #268, .F. ) ;
#316 = EDGE_LOOP ( 'NONE', ( #101, #369 ) ) ;
#317 = VECTOR ( 'NONE', #323, 1000.000000000000000 ) ;
#318 = PRODUCT_DEFINITION_SHAPE ( 'NONE', 'NONE',  #4 ) ;
#319 = LOCAL_TIME ( 13, 25, 37.00000000000000000, #351 ) ;
#320 = FACE_OUTER_BOUND ( 'NONE', #157, .T. ) ;
#321 = FACE_OUTER_BOUND ( 'NONE', #172, .T. ) ;
#322 = CC_DESIGN_PERSON_AND_ORGANIZATION_ASSIGNMENT ( #336, #71, ( #4 ) ) ;
#323 = DIRECTION ( 'NONE',  ( -0.000000000000000000, 1.000000000000000000, -0.000000000000000000 ) ) ;
#324 = CARTESIAN_POINT ( 'NONE',  ( 114.9999999999999858, 40.00000000000000711, -10.00000000000000178 ) ) ;
#325 = DIRECTION ( 'NONE',  ( 0.000000000000000000, 0.000000000000000000, 1.000000000000000000 ) ) ;
#326 = ORIENTED_EDGE ( 'NONE', *, *, #352, .T. ) ;
#327 = PERSON_AND_ORGANIZATION ( #374, #208 ) ;
#328 = CARTESIAN_POINT ( 'NONE',  ( 114.9999999999999858, -39.99999999999999289, -10.00000000000000178 ) ) ;
#329 = DATE_AND_TIME ( #296, #319 ) ;
#330 = CIRCLE ( 'NONE', #47, 8.999999999999996447 ) ;
#331 = FACE_OUTER_BOUND ( 'NONE', #367, .T. ) ;
#332 = CARTESIAN_POINT ( 'NONE',  ( -149.9999999999999716, 39.99999999999999289, 50.00000000000000000 ) ) ;
#333 = DIRECTION ( 'NONE',  ( -0.000000000000000000, -0.000000000000000000, -1.000000000000000000 ) ) ;
#334 = AXIS2_PLACEMENT_3D ( 'NONE', #197, #39, #273 ) ;
#335 = DIRECTION ( 'NONE',  ( -1.000000000000000000, -4.625929269271485791E-17, -0.000000000000000000 ) ) ;
#336 = PERSON_AND_ORGANIZATION ( #374, #208 ) ;
#337 = ORIENTED_EDGE ( 'NONE', *, *, #153, .F. ) ;
#338 = EDGE_CURVE ( 'NONE', #188, #51, #77, .T. ) ;
#339 = VECTOR ( 'NONE', #91, 1000.000000000000000 ) ;
#340 = ORIENTED_EDGE ( 'NONE', *, *, #352, .F. ) ;
#341 = VERTEX_POINT ( 'NONE', #286 ) ;
#342 = CARTESIAN_POINT ( 'NONE',  ( -149.9999999999999716, -39.99999999999999289, 50.00000000000000000 ) ) ;
#343 = EDGE_LOOP ( 'NONE', ( #253, #285, #100, #130 ) ) ;
#344 = CARTESIAN_POINT ( 'NONE',  ( 150.0000000000000284, 40.00000000000000711, -50.00000000000000000 ) ) ;
#345 = ORIENTED_EDGE ( 'NONE', *, *, #258, .T. ) ;
#346 = ADVANCED_FACE ( 'NONE', ( #321 ), #21, .T. ) ;
#347 = CARTESIAN_POINT ( 'NONE',  ( -149.9999999999999716, -39.99999999999999289, 50.00000000000000000 ) ) ;
#348 = CARTESIAN_POINT ( 'NONE',  ( -115.0000000000000000, 40.00000000000000711, -18.99999999999999645 ) ) ;
#349 = DIRECTION ( 'NONE',  ( 1.000000000000000000, 0.000000000000000000, 0.000000000000000000 ) ) ;
#350 = PLANE ( 'NONE',  #275 ) ;
#351 = COORDINATED_UNIVERSAL_TIME_OFFSET ( 1, 0, .AHEAD. ) ;
#352 = EDGE_CURVE ( 'NONE', #138, #355, #219, .T. ) ;
#353 = DIRECTION ( 'NONE',  ( 0.000000000000000000, 0.000000000000000000, 1.000000000000000000 ) ) ;
#354 = VECTOR ( 'NONE', #305, 1000.000000000000000 ) ;
#355 = VERTEX_POINT ( 'NONE', #81 ) ;
#356 = FACE_BOUND ( 'NONE', #160, .T. ) ;
#357 = LINE ( 'NONE', #267, #354 ) ;
#358 = APPROVAL_STATUS ( 'not_yet_approved' ) ;
#359 = CC_DESIGN_PERSON_AND_ORGANIZATION_ASSIGNMENT ( #237, #119, ( #23 ) ) ;
#360 = LOCAL_TIME ( 13, 25, 37.00000000000000000, #187 ) ;
#361 = DIRECTION ( 'NONE',  ( 0.000000000000000000, 0.000000000000000000, 1.000000000000000000 ) ) ;
#362 = CARTESIAN_POINT ( 'NONE',  ( 114.9999999999999858, -39.99999999999999289, -1.000000000000005995 ) ) ;
#363 = DIRECTION ( 'NONE',  ( -3.469446951953614189E-16, 1.000000000000000000, 0.000000000000000000 ) ) ;
#364 = EDGE_CURVE ( 'NONE', #193, #215, #136, .T. ) ;
#365 = AXIS2_PLACEMENT_3D ( 'NONE', #126, #266, #3 ) ;
#366 = APPROVAL_STATUS ( 'not_yet_approved' ) ;
#367 = EDGE_LOOP ( 'NONE', ( #190, #250, #311, #337 ) ) ;
#368 = EDGE_CURVE ( 'NONE', #373, #188, #6, .T. ) ;
#369 = ORIENTED_EDGE ( 'NONE', *, *, #368, .T. ) ;
#370 = VECTOR ( 'NONE', #117, 1000.000000000000000 ) ;
#371 = ORIENTED_EDGE ( 'NONE', *, *, #139, .T. ) ;
#372 = DIRECTION ( 'NONE',  ( 0.000000000000000000, 1.000000000000000000, 0.000000000000000000 ) ) ;
#373 = VERTEX_POINT ( 'NONE', #164 ) ;
#374 = PERSON ( 'UNSPECIFIED', 'UNSPECIFIED', 'UNSPECIFIED', ('UNSPECIFIED'), ('UNSPECIFIED'), ('UNSPECIFIED') ) ;
#375 = PLANE ( 'NONE',  #161 ) ;
#376 = ORIENTED_EDGE ( 'NONE', *, *, #42, .F. ) ;
#377 = APPROVAL_ROLE ( '' ) ;
#378 = DIRECTION ( 'NONE',  ( 0.000000000000000000, 1.000000000000000000, 0.000000000000000000 ) ) ;
#379 =( GEOMETRIC_REPRESENTATION_CONTEXT ( 3 ) GLOBAL_UNCERTAINTY_ASSIGNED_CONTEXT ( ( #114 ) ) GLOBAL_UNIT_ASSIGNED_CONTEXT ( ( #50, #15, #192 ) ) REPRESENTATION_CONTEXT ( 'NONE', 'WORKASPACE' ) );
#380 = DIRECTION ( 'NONE',  ( -0.000000000000000000, 1.000000000000000000, -0.000000000000000000 ) ) ;
#381 = EDGE_LOOP ( 'NONE', ( #106, #376 ) ) ;
#382 = CC_DESIGN_PERSON_AND_ORGANIZATION_ASSIGNMENT ( #256, #282, ( #167 ) ) ;
#383 = DIRECTION ( 'NONE',  ( 0.000000000000000000, 1.000000000000000000, 0.000000000000000000 ) ) ;
#384 = CALENDAR_DATE ( 2026, 28, 1 ) ;
#385 = LINE ( 'NONE', #271, #264 ) ;
ENDSEC;
END-ISO-10303-21;
