ISO-10303-21;
HEADER;
FILE_DESCRIPTION (( 'STEP AP203' ),
    '1' );
FILE_NAME ('CB_850_Default_sldprt.STEP',
    '2026-01-28T12:25:48',
    ( '' ),
    ( '' ),
    'SwSTEP 2.0',
    'SolidWorks 2024',
    '' );
FILE_SCHEMA (( 'CONFIG_CONTROL_DESIGN' ));
ENDSEC;

DATA;
#1 = CARTESIAN_POINT ( 'NONE',  ( 55.00000000000000000, 24.99999999999997868, -11.00000000000000000 ) ) ;
#2 = DIRECTION ( 'NONE',  ( 1.000000000000000000, 0.000000000000000000, 0.000000000000000000 ) ) ;
#3 = VECTOR ( 'NONE', #332, 1000.000000000000000 ) ;
#4 = DIRECTION ( 'NONE',  ( -0.000000000000000000, -0.000000000000000000, -1.000000000000000000 ) ) ;
#5 = ORIENTED_EDGE ( 'NONE', *, *, #306, .T. ) ;
#6 = PERSON_AND_ORGANIZATION ( #322, #74 ) ;
#7 = DIRECTION ( 'NONE',  ( -0.000000000000000000, -0.000000000000000000, -1.000000000000000000 ) ) ;
#8 = CC_DESIGN_APPROVAL ( #281, ( #146 ) ) ;
#9 = COORDINATED_UNIVERSAL_TIME_OFFSET ( 1, 0, .AHEAD. ) ;
#10 = CARTESIAN_POINT ( 'NONE',  ( 0.000000000000000000, 38.00000000000000711, -11.00000000000000000 ) ) ;
#11 = VECTOR ( 'NONE', #434, 1000.000000000000000 ) ;
#12 = VECTOR ( 'NONE', #174, 1000.000000000000000 ) ;
#13 = DATE_AND_TIME ( #218, #212 ) ;
#14 = DIRECTION ( 'NONE',  ( -2.668805347656628157E-16, 1.000000000000000000, 0.000000000000000000 ) ) ;
#15 = DIRECTION ( 'NONE',  ( -1.000000000000000000, -6.424901762877063495E-16, -0.000000000000000000 ) ) ;
#16 = FACE_OUTER_BOUND ( 'NONE', #279, .T. ) ;
#17 = DESIGN_CONTEXT ( 'detailed design', #220, 'design' ) ;
#18 = DIRECTION ( 'NONE',  ( -0.000000000000000000, -0.000000000000000000, -1.000000000000000000 ) ) ;
#19 = ORIENTED_EDGE ( 'NONE', *, *, #143, .F. ) ;
#20 = FACE_OUTER_BOUND ( 'NONE', #271, .T. ) ;
#21 = DIRECTION ( 'NONE',  ( 2.668805347656628157E-16, -1.000000000000000000, 0.000000000000000000 ) ) ;
#22 = ORIENTED_EDGE ( 'NONE', *, *, #177, .T. ) ;
#23 = CARTESIAN_POINT ( 'NONE',  ( 55.00000000000001421, -2.387945564648172149E-14, 11.00000000000000000 ) ) ;
#24 = VERTEX_POINT ( 'NONE', #1 ) ;
#25 = LINE ( 'NONE', #94, #11 ) ;
#26 = ORIENTED_EDGE ( 'NONE', *, *, #155, .T. ) ;
#27 = APPLICATION_PROTOCOL_DEFINITION ( 'international standard', 'config_control_design', 1994, #220 ) ;
#28 = EDGE_CURVE ( 'NONE', #119, #429, #65, .T. ) ;
#29 = DIRECTION ( 'NONE',  ( -1.000000000000000000, 0.000000000000000000, 0.000000000000000000 ) ) ;
#30 = VECTOR ( 'NONE', #2, 1000.000000000000000 ) ;
#31 = DIRECTION ( 'NONE',  ( -0.000000000000000000, -0.000000000000000000, -1.000000000000000000 ) ) ;
#32 = EDGE_LOOP ( 'NONE', ( #58, #54, #157, #105 ) ) ;
#33 = FACE_OUTER_BOUND ( 'NONE', #246, .T. ) ;
#34 = DIRECTION ( 'NONE',  ( -1.000000000000000000, 8.994862468027889879E-16, -0.000000000000000000 ) ) ;
#35 = DIRECTION ( 'NONE',  ( -0.000000000000000000, 0.000000000000000000, -1.000000000000000000 ) ) ;
#36 = ORIENTED_EDGE ( 'NONE', *, *, #177, .F. ) ;
#37 = ORIENTED_EDGE ( 'NONE', *, *, #435, .T. ) ;
#38 = CARTESIAN_POINT ( 'NONE',  ( 28.00000000000000711, 25.00000000000000000, -11.00000000000000000 ) ) ;
#39 = CARTESIAN_POINT ( 'NONE',  ( -12.50000000000000000, 38.00000000000000711, -11.00000000000000000 ) ) ;
#40 = ADVANCED_FACE ( 'NONE', ( #345 ), #142, .F. ) ;
#41 = DIRECTION ( 'NONE',  ( -0.000000000000000000, 0.000000000000000000, -1.000000000000000000 ) ) ;
#42 = AXIS2_PLACEMENT_3D ( 'NONE', #180, #427, #386 ) ;
#43 = VECTOR ( 'NONE', #18, 1000.000000000000000 ) ;
#44 = PERSON_AND_ORGANIZATION_ROLE ( 'design_supplier' ) ;
#45 = CARTESIAN_POINT ( 'NONE',  ( -28.00000000000001421, 24.99999999999999289, -11.00000000000000000 ) ) ;
#46 = PERSON_AND_ORGANIZATION ( #322, #74 ) ;
#47 = CARTESIAN_POINT ( 'NONE',  ( 0.000000000000000000, 38.00000000000000711, 11.00000000000000000 ) ) ;
#48 = EDGE_CURVE ( 'NONE', #88, #372, #277, .T. ) ;
#49 = DIRECTION ( 'NONE',  ( 1.000000000000000000, 0.000000000000000000, 0.000000000000000000 ) ) ;
#50 = ORIENTED_EDGE ( 'NONE', *, *, #286, .F. ) ;
#51 = VECTOR ( 'NONE', #227, 1000.000000000000000 ) ;
#52 = CARTESIAN_POINT ( 'NONE',  ( -55.00000000000001421, -2.387945564648172149E-14, 11.00000000000000000 ) ) ;
#53 = PRODUCT ( 'CB_850_Default_sldprt', 'CB_850_Default_sldprt', '', ( #373 ) ) ;
#54 = ORIENTED_EDGE ( 'NONE', *, *, #315, .F. ) ;
#55 = DIRECTION ( 'NONE',  ( 1.000000000000000000, -8.994862468027889879E-16, 0.000000000000000000 ) ) ;
#56 = ORIENTED_EDGE ( 'NONE', *, *, #190, .T. ) ;
#57 = CARTESIAN_POINT ( 'NONE',  ( -28.00000000000001421, 24.99999999999999289, -11.00000000000000000 ) ) ;
#58 = ORIENTED_EDGE ( 'NONE', *, *, #129, .T. ) ;
#59 = DIRECTION ( 'NONE',  ( 1.000000000000000000, -8.006416042969897784E-16, 0.000000000000000000 ) ) ;
#60 = EDGE_CURVE ( 'NONE', #196, #303, #245, .T. ) ;
#61 = LINE ( 'NONE', #240, #396 ) ;
#62 = ORIENTED_EDGE ( 'NONE', *, *, #143, .T. ) ;
#63 = CARTESIAN_POINT ( 'NONE',  ( 28.00000000000000355, 37.99999999999999289, 11.00000000000000000 ) ) ;
#64 = ORIENTED_EDGE ( 'NONE', *, *, #48, .T. ) ;
#65 = CIRCLE ( 'NONE', #236, 28.00000000000000355 ) ;
#66 = VECTOR ( 'NONE', #117, 1000.000000000000000 ) ;
#67 = CARTESIAN_POINT ( 'NONE',  ( 0.000000000000000000, 38.00000000000000711, -11.00000000000000000 ) ) ;
#68 = VERTEX_POINT ( 'NONE', #72 ) ;
#69 = VERTEX_POINT ( 'NONE', #45 ) ;
#70 = CC_DESIGN_DATE_AND_TIME_ASSIGNMENT ( #13, #417, ( #146 ) ) ;
#71 = PERSON_AND_ORGANIZATION ( #322, #74 ) ;
#72 = CARTESIAN_POINT ( 'NONE',  ( 12.50000000000000000, 38.00000000000000711, 11.00000000000000000 ) ) ;
#73 = VECTOR ( 'NONE', #144, 1000.000000000000000 ) ;
#74 = ORGANIZATION ( 'UNSPECIFIED', 'UNSPECIFIED', '' ) ;
#75 = CARTESIAN_POINT ( 'NONE',  ( -55.00000000000001421, 24.99999999999997868, -11.00000000000000000 ) ) ;
#76 = SHAPE_DEFINITION_REPRESENTATION ( #257, #92 ) ;
#77 = CYLINDRICAL_SURFACE ( 'NONE', #42, 12.50000000000000000 ) ;
#78 = COORDINATED_UNIVERSAL_TIME_OFFSET ( 1, 0, .AHEAD. ) ;
#79 = LINE ( 'NONE', #187, #73 ) ;
#80 = SECURITY_CLASSIFICATION_LEVEL ( 'unclassified' ) ;
#81 = CARTESIAN_POINT ( 'NONE',  ( 12.50000000000000000, 38.00000000000000711, -11.00000000000000000 ) ) ;
#82 = FACE_OUTER_BOUND ( 'NONE', #441, .T. ) ;
#83 = UNCERTAINTY_MEASURE_WITH_UNIT (LENGTH_MEASURE( 1.000000000000000082E-05 ), #128, 'distance_accuracy_value', 'NONE');
#84 = APPROVAL ( #352, 'UNSPECIFIED' ) ;
#85 = CARTESIAN_POINT ( 'NONE',  ( 55.00000000000001421, -2.387945564648172149E-14, 11.00000000000000000 ) ) ;
#86 = CC_DESIGN_SECURITY_CLASSIFICATION ( #146, ( #252 ) ) ;
#87 = DIRECTION ( 'NONE',  ( -5.551115123125782702E-16, 1.000000000000000000, 0.000000000000000000 ) ) ;
#88 = VERTEX_POINT ( 'NONE', #225 ) ;
#89 = PLANE ( 'NONE',  #302 ) ;
#90 = EDGE_CURVE ( 'NONE', #68, #95, #261, .T. ) ;
#91 = ORIENTED_EDGE ( 'NONE', *, *, #239, .F. ) ;
#92 = ADVANCED_BREP_SHAPE_REPRESENTATION ( 'CB_850_Default_sldprt', ( #167, #272 ), #330 ) ;
#93 = LINE ( 'NONE', #401, #361 ) ;
#94 = CARTESIAN_POINT ( 'NONE',  ( -28.00000000000000355, 37.99999999999995737, 11.00000000000000000 ) ) ;
#95 = VERTEX_POINT ( 'NONE', #81 ) ;
#96 = VERTEX_POINT ( 'NONE', #38 ) ;
#97 = ORIENTED_EDGE ( 'NONE', *, *, #423, .F. ) ;
#98 = APPROVAL_DATE_TIME ( #132, #320 ) ;
#99 = EDGE_LOOP ( 'NONE', ( #317, #168, #135, #64, #348, #163, #192, #298 ) ) ;
#100 = AXIS2_PLACEMENT_3D ( 'NONE', #114, #291, #255 ) ;
#101 = VECTOR ( 'NONE', #125, 1000.000000000000000 ) ;
#102 = CC_DESIGN_DATE_AND_TIME_ASSIGNMENT ( #288, #283, ( #357 ) ) ;
#103 = ORIENTED_EDGE ( 'NONE', *, *, #349, .F. ) ;
#104 =( NAMED_UNIT ( * ) PLANE_ANGLE_UNIT ( ) SI_UNIT ( $, .RADIAN. ) );
#105 = ORIENTED_EDGE ( 'NONE', *, *, #390, .T. ) ;
#106 = ORIENTED_EDGE ( 'NONE', *, *, #442, .F. ) ;
#107 = ADVANCED_FACE ( 'NONE', ( #152 ), #387, .F. ) ;
#108 = AXIS2_PLACEMENT_3D ( 'NONE', #118, #195, #397 ) ;
#109 = APPROVAL_PERSON_ORGANIZATION ( #71, #320, #311 ) ;
#110 = CARTESIAN_POINT ( 'NONE',  ( 28.00000000000000355, 37.99999999999999289, 11.00000000000000000 ) ) ;
#111 = DATE_AND_TIME ( #385, #242 ) ;
#112 = PLANE ( 'NONE',  #100 ) ;
#113 = PLANE ( 'NONE',  #214 ) ;
#114 = CARTESIAN_POINT ( 'NONE',  ( -55.00000000000001421, 24.99999999999997868, 11.00000000000000000 ) ) ;
#115 = VECTOR ( 'NONE', #15, 1000.000000000000000 ) ;
#116 = ADVANCED_FACE ( 'NONE', ( #82 ), #219, .T. ) ;
#117 = DIRECTION ( 'NONE',  ( -8.006416042969897784E-16, -1.000000000000000000, -0.000000000000000000 ) ) ;
#118 = CARTESIAN_POINT ( 'NONE',  ( 0.000000000000000000, 38.00000000000000711, 11.00000000000000000 ) ) ;
#119 = VERTEX_POINT ( 'NONE', #110 ) ;
#120 = ADVANCED_FACE ( 'NONE', ( #424, #389 ), #359, .F. ) ;
#121 = DIRECTION ( 'NONE',  ( -8.006416042969897784E-16, -1.000000000000000000, -0.000000000000000000 ) ) ;
#122 = ORIENTED_EDGE ( 'NONE', *, *, #315, .T. ) ;
#123 = AXIS2_PLACEMENT_3D ( 'NONE', #141, #314, #412 ) ;
#124 = VECTOR ( 'NONE', #31, 1000.000000000000000 ) ;
#125 = DIRECTION ( 'NONE',  ( -0.000000000000000000, -1.000000000000000000, -0.000000000000000000 ) ) ;
#126 = ORIENTED_EDGE ( 'NONE', *, *, #435, .F. ) ;
#127 = DIRECTION ( 'NONE',  ( -1.000000000000000000, -5.551115123125782702E-16, 0.000000000000000000 ) ) ;
#128 =( LENGTH_UNIT ( ) NAMED_UNIT ( * ) SI_UNIT ( .MILLI., .METRE. ) );
#129 = EDGE_CURVE ( 'NONE', #431, #398, #79, .T. ) ;
#130 = CIRCLE ( 'NONE', #139, 12.50000000000000000 ) ;
#131 = VECTOR ( 'NONE', #410, 1000.000000000000000 ) ;
#132 = DATE_AND_TIME ( #408, #384 ) ;
#133 = ORIENTED_EDGE ( 'NONE', *, *, #340, .F. ) ;
#134 = CARTESIAN_POINT ( 'NONE',  ( -55.00000000000001421, 24.99999999999997868, 11.00000000000000000 ) ) ;
#135 = ORIENTED_EDGE ( 'NONE', *, *, #226, .T. ) ;
#136 = EDGE_CURVE ( 'NONE', #173, #231, #418, .T. ) ;
#137 = CARTESIAN_POINT ( 'NONE',  ( -55.00000000000001421, -2.387945564648172149E-14, 11.00000000000000000 ) ) ;
#138 = ORIENTED_EDGE ( 'NONE', *, *, #28, .F. ) ;
#139 = AXIS2_PLACEMENT_3D ( 'NONE', #326, #253, #151 ) ;
#140 = DIRECTION ( 'NONE',  ( 0.000000000000000000, 0.000000000000000000, 1.000000000000000000 ) ) ;
#141 = CARTESIAN_POINT ( 'NONE',  ( 0.000000000000000000, 38.00000000000000711, -11.00000000000000000 ) ) ;
#142 = CYLINDRICAL_SURFACE ( 'NONE', #411, 12.50000000000000000 ) ;
#143 = EDGE_CURVE ( 'NONE', #333, #431, #148, .T. ) ;
#144 = DIRECTION ( 'NONE',  ( 1.000000000000000000, 0.000000000000000000, 0.000000000000000000 ) ) ;
#145 = VECTOR ( 'NONE', #14, 1000.000000000000000 ) ;
#146 = SECURITY_CLASSIFICATION ( '', '', #80 ) ;
#147 = DIRECTION ( 'NONE',  ( 0.000000000000000000, 0.000000000000000000, 1.000000000000000000 ) ) ;
#148 = LINE ( 'NONE', #328, #419 ) ;
#149 = CALENDAR_DATE ( 2026, 28, 1 ) ;
#150 = CC_DESIGN_PERSON_AND_ORGANIZATION_ASSIGNMENT ( #256, #44, ( #252 ) ) ;
#151 = DIRECTION ( 'NONE',  ( 1.000000000000000000, 0.000000000000000000, 0.000000000000000000 ) ) ;
#152 = FACE_OUTER_BOUND ( 'NONE', #32, .T. ) ;
#153 = DIRECTION ( 'NONE',  ( -0.000000000000000000, -0.000000000000000000, -1.000000000000000000 ) ) ;
#154 = ORIENTED_EDGE ( 'NONE', *, *, #239, .T. ) ;
#155 = EDGE_CURVE ( 'NONE', #96, #196, #392, .T. ) ;
#156 = DIRECTION ( 'NONE',  ( 0.000000000000000000, 0.000000000000000000, -1.000000000000000000 ) ) ;
#157 = ORIENTED_EDGE ( 'NONE', *, *, #394, .F. ) ;
#158 = LINE ( 'NONE', #162, #12 ) ;
#159 = ORIENTED_EDGE ( 'NONE', *, *, #190, .F. ) ;
#160 = VECTOR ( 'NONE', #34, 1000.000000000000000 ) ;
#161 = VECTOR ( 'NONE', #443, 1000.000000000000000 ) ;
#162 = CARTESIAN_POINT ( 'NONE',  ( 55.00000000000000000, 24.99999999999997868, 11.00000000000000000 ) ) ;
#163 = ORIENTED_EDGE ( 'NONE', *, *, #28, .T. ) ;
#164 = CARTESIAN_POINT ( 'NONE',  ( -28.00000000000001421, 24.99999999999999289, 11.00000000000000000 ) ) ;
#165 = EDGE_CURVE ( 'NONE', #95, #170, #130, .T. ) ;
#166 = ORIENTED_EDGE ( 'NONE', *, *, #60, .T. ) ;
#167 = MANIFOLD_SOLID_BREP ( 'Boss-Extrude1', #169 ) ;
#168 = ORIENTED_EDGE ( 'NONE', *, *, #394, .T. ) ;
#169 = CLOSED_SHELL ( 'NONE', ( #171, #120, #407, #363, #107, #249, #222, #370, #116, #273, #204, #40 ) ) ;
#170 = VERTEX_POINT ( 'NONE', #39 ) ;
#171 = ADVANCED_FACE ( 'NONE', ( #16 ), #77, .F. ) ;
#172 = COORDINATED_UNIVERSAL_TIME_OFFSET ( 1, 0, .AHEAD. ) ;
#173 = VERTEX_POINT ( 'NONE', #250 ) ;
#174 = DIRECTION ( 'NONE',  ( -0.000000000000000000, -0.000000000000000000, -1.000000000000000000 ) ) ;
#175 = ORIENTED_EDGE ( 'NONE', *, *, #136, .F. ) ;
#176 = ORIENTED_EDGE ( 'NONE', *, *, #90, .F. ) ;
#177 = EDGE_CURVE ( 'NONE', #69, #333, #383, .T. ) ;
#178 = CARTESIAN_POINT ( 'NONE',  ( -55.00000000000001421, -2.387945564648172149E-14, 11.00000000000000000 ) ) ;
#179 = DATE_AND_TIME ( #149, #287 ) ;
#180 = CARTESIAN_POINT ( 'NONE',  ( 0.000000000000000000, 38.00000000000000711, 11.00000000000000000 ) ) ;
#181 = APPROVAL_ROLE ( '' ) ;
#182 = AXIS2_PLACEMENT_3D ( 'NONE', #395, #331, #156 ) ;
#183 = FACE_OUTER_BOUND ( 'NONE', #339, .T. ) ;
#184 = CC_DESIGN_PERSON_AND_ORGANIZATION_ASSIGNMENT ( #6, #414, ( #252 ) ) ;
#185 = CALENDAR_DATE ( 2026, 28, 1 ) ;
#186 = DIRECTION ( 'NONE',  ( -1.000000000000000000, -6.424901762877063495E-16, -0.000000000000000000 ) ) ;
#187 = CARTESIAN_POINT ( 'NONE',  ( -55.00000000000001421, -2.387945564648172149E-14, -11.00000000000000000 ) ) ;
#188 = VECTOR ( 'NONE', #87, 1000.000000000000000 ) ;
#189 = LINE ( 'NONE', #197, #51 ) ;
#190 = EDGE_CURVE ( 'NONE', #170, #95, #300, .T. ) ;
#191 = CC_DESIGN_APPROVAL ( #320, ( #357 ) ) ;
#192 = ORIENTED_EDGE ( 'NONE', *, *, #340, .T. ) ;
#193 = DIRECTION ( 'NONE',  ( 8.006416042969897784E-16, 1.000000000000000000, 0.000000000000000000 ) ) ;
#194 = ORIENTED_EDGE ( 'NONE', *, *, #129, .F. ) ;
#195 = DIRECTION ( 'NONE',  ( 0.000000000000000000, 0.000000000000000000, 1.000000000000000000 ) ) ;
#196 = VERTEX_POINT ( 'NONE', #426 ) ;
#197 = CARTESIAN_POINT ( 'NONE',  ( -12.50000000000000000, 38.00000000000000711, 11.00000000000000000 ) ) ;
#198 = AXIS2_PLACEMENT_3D ( 'NONE', #164, #59, #193 ) ;
#199 = PRODUCT_RELATED_PRODUCT_CATEGORY ( 'detail', '', ( #53 ) ) ;
#200 = CARTESIAN_POINT ( 'NONE',  ( -12.50000000000000000, 38.00000000000000711, 11.00000000000000000 ) ) ;
#201 = CARTESIAN_POINT ( 'NONE',  ( 0.000000000000000000, 0.000000000000000000, 0.000000000000000000 ) ) ;
#202 = ORIENTED_EDGE ( 'NONE', *, *, #165, .F. ) ;
#203 = APPROVAL_PERSON_ORGANIZATION ( #388, #281, #358 ) ;
#204 = ADVANCED_FACE ( 'NONE', ( #217 ), #112, .F. ) ;
#205 = ORIENTED_EDGE ( 'NONE', *, *, #416, .T. ) ;
#206 = AXIS2_PLACEMENT_3D ( 'NONE', #350, #7, #258 ) ;
#207 =( NAMED_UNIT ( * ) SI_UNIT ( $, .STERADIAN. ) SOLID_ANGLE_UNIT ( ) );
#208 = DIRECTION ( 'NONE',  ( -1.000000000000000000, 0.000000000000000000, 0.000000000000000000 ) ) ;
#209 = CARTESIAN_POINT ( 'NONE',  ( -55.00000000000001421, -2.387945564648172149E-14, -11.00000000000000000 ) ) ;
#210 = ORIENTED_EDGE ( 'NONE', *, *, #60, .F. ) ;
#211 = DIRECTION ( 'NONE',  ( -2.668805347656628157E-16, 1.000000000000000000, 0.000000000000000000 ) ) ;
#212 = LOCAL_TIME ( 13, 25, 48.00000000000000000, #78 ) ;
#213 = ORIENTED_EDGE ( 'NONE', *, *, #155, .F. ) ;
#214 = AXIS2_PLACEMENT_3D ( 'NONE', #356, #234, #55 ) ;
#215 = VECTOR ( 'NONE', #290, 1000.000000000000000 ) ;
#216 = EDGE_CURVE ( 'NONE', #398, #24, #223, .T. ) ;
#217 = FACE_OUTER_BOUND ( 'NONE', #346, .T. ) ;
#218 = CALENDAR_DATE ( 2026, 28, 1 ) ;
#219 = CYLINDRICAL_SURFACE ( 'NONE', #206, 28.00000000000000355 ) ;
#220 = APPLICATION_CONTEXT ( 'configuration controlled 3d designs of mechanical parts and assemblies' ) ;
#221 = CARTESIAN_POINT ( 'NONE',  ( 55.00000000000001421, -2.387945564648172149E-14, -11.00000000000000000 ) ) ;
#222 = ADVANCED_FACE ( 'NONE', ( #183 ), #113, .F. ) ;
#223 = LINE ( 'NONE', #221, #354 ) ;
#224 = APPROVAL_DATE_TIME ( #179, #84 ) ;
#225 = CARTESIAN_POINT ( 'NONE',  ( 55.00000000000000000, 24.99999999999997868, 11.00000000000000000 ) ) ;
#226 = EDGE_CURVE ( 'NONE', #369, #88, #366, .T. ) ;
#227 = DIRECTION ( 'NONE',  ( -0.000000000000000000, -0.000000000000000000, -1.000000000000000000 ) ) ;
#228 = CARTESIAN_POINT ( 'NONE',  ( -55.00000000000001421, 24.99999999999997868, -11.00000000000000000 ) ) ;
#229 = ORIENTED_EDGE ( 'NONE', *, *, #294, .T. ) ;
#230 = CARTESIAN_POINT ( 'NONE',  ( 28.00000000000000711, 25.00000000000000000, 11.00000000000000000 ) ) ;
#231 = VERTEX_POINT ( 'NONE', #428 ) ;
#232 = LINE ( 'NONE', #57, #66 ) ;
#233 = CC_DESIGN_PERSON_AND_ORGANIZATION_ASSIGNMENT ( #421, #260, ( #146 ) ) ;
#234 = DIRECTION ( 'NONE',  ( -8.994862468027889879E-16, -1.000000000000000000, 0.000000000000000000 ) ) ;
#235 = EDGE_LOOP ( 'NONE', ( #56, #318 ) ) ;
#236 = AXIS2_PLACEMENT_3D ( 'NONE', #312, #444, #208 ) ;
#237 = CARTESIAN_POINT ( 'NONE',  ( -28.00000000000000355, 37.99999999999995737, 11.00000000000000000 ) ) ;
#238 = ORIENTED_EDGE ( 'NONE', *, *, #306, .F. ) ;
#239 = EDGE_CURVE ( 'NONE', #429, #303, #25, .T. ) ;
#240 = CARTESIAN_POINT ( 'NONE',  ( 28.00000000000000711, 25.00000000000000000, 11.00000000000000000 ) ) ;
#241 = VERTEX_POINT ( 'NONE', #368 ) ;
#242 = LOCAL_TIME ( 13, 25, 48.00000000000000000, #425 ) ;
#243 = PERSON_AND_ORGANIZATION ( #322, #74 ) ;
#244 = ORIENTED_EDGE ( 'NONE', *, *, #299, .F. ) ;
#245 = CIRCLE ( 'NONE', #123, 28.00000000000000355 ) ;
#246 = EDGE_LOOP ( 'NONE', ( #19, #36, #374, #210, #213, #364, #275, #194 ) ) ;
#247 = PERSON_AND_ORGANIZATION ( #322, #74 ) ;
#248 = ORIENTED_EDGE ( 'NONE', *, *, #376, .F. ) ;
#249 = ADVANCED_FACE ( 'NONE', ( #301 ), #262, .F. ) ;
#250 = CARTESIAN_POINT ( 'NONE',  ( -28.00000000000001421, 24.99999999999999289, 11.00000000000000000 ) ) ;
#251 = AXIS2_PLACEMENT_3D ( 'NONE', #399, #295, #49 ) ;
#252 = PRODUCT_DEFINITION_FORMATION_WITH_SPECIFIED_SOURCE ( 'ANY', '', #53, .NOT_KNOWN. ) ;
#253 = DIRECTION ( 'NONE',  ( 0.000000000000000000, 0.000000000000000000, 1.000000000000000000 ) ) ;
#254 = CC_DESIGN_PERSON_AND_ORGANIZATION_ASSIGNMENT ( #247, #381, ( #53 ) ) ;
#255 = DIRECTION ( 'NONE',  ( 1.000000000000000000, 6.424901762877063495E-16, 0.000000000000000000 ) ) ;
#256 = PERSON_AND_ORGANIZATION ( #322, #74 ) ;
#257 = PRODUCT_DEFINITION_SHAPE ( 'NONE', 'NONE',  #357 ) ;
#258 = DIRECTION ( 'NONE',  ( -1.000000000000000000, 0.000000000000000000, 0.000000000000000000 ) ) ;
#259 = CIRCLE ( 'NONE', #108, 12.50000000000000000 ) ;
#260 = PERSON_AND_ORGANIZATION_ROLE ( 'classification_officer' ) ;
#261 = LINE ( 'NONE', #285, #215 ) ;
#262 = PLANE ( 'NONE',  #265 ) ;
#263 = CARTESIAN_POINT ( 'NONE',  ( -28.00000000000000355, 37.99999999999995737, -11.00000000000000000 ) ) ;
#264 = ORIENTED_EDGE ( 'NONE', *, *, #216, .T. ) ;
#265 = AXIS2_PLACEMENT_3D ( 'NONE', #23, #127, #267 ) ;
#266 = FACE_OUTER_BOUND ( 'NONE', #309, .T. ) ;
#267 = DIRECTION ( 'NONE',  ( 5.551115123125782702E-16, -1.000000000000000000, 0.000000000000000000 ) ) ;
#268 = CC_DESIGN_PERSON_AND_ORGANIZATION_ASSIGNMENT ( #243, #375, ( #357 ) ) ;
#269 = ORIENTED_EDGE ( 'NONE', *, *, #294, .F. ) ;
#270 = PLANE ( 'NONE',  #198 ) ;
#271 = EDGE_LOOP ( 'NONE', ( #62, #433, #400, #282 ) ) ;
#272 = AXIS2_PLACEMENT_3D ( 'NONE', #201, #140, #280 ) ;
#273 = ADVANCED_FACE ( 'NONE', ( #266 ), #270, .F. ) ;
#274 = FACE_BOUND ( 'NONE', #235, .T. ) ;
#275 = ORIENTED_EDGE ( 'NONE', *, *, #216, .F. ) ;
#276 = COORDINATED_UNIVERSAL_TIME_OFFSET ( 1, 0, .AHEAD. ) ;
#277 = LINE ( 'NONE', #409, #160 ) ;
#278 = CARTESIAN_POINT ( 'NONE',  ( 28.00000000000000711, 25.00000000000000000, -11.00000000000000000 ) ) ;
#279 = EDGE_LOOP ( 'NONE', ( #413, #402, #159, #103 ) ) ;
#280 = DIRECTION ( 'NONE',  ( 1.000000000000000000, 0.000000000000000000, 0.000000000000000000 ) ) ;
#281 = APPROVAL ( #325, 'UNSPECIFIED' ) ;
#282 = ORIENTED_EDGE ( 'NONE', *, *, #442, .T. ) ;
#283 = DATE_TIME_ROLE ( 'creation_date' ) ;
#284 = ORIENTED_EDGE ( 'NONE', *, *, #349, .T. ) ;
#285 = CARTESIAN_POINT ( 'NONE',  ( 12.50000000000000000, 38.00000000000000711, 11.00000000000000000 ) ) ;
#286 = EDGE_CURVE ( 'NONE', #68, #307, #438, .T. ) ;
#287 = LOCAL_TIME ( 13, 25, 48.00000000000000000, #9 ) ;
#288 = DATE_AND_TIME ( #185, #439 ) ;
#289 = DIRECTION ( 'NONE',  ( 1.000000000000000000, 0.000000000000000000, 0.000000000000000000 ) ) ;
#290 = DIRECTION ( 'NONE',  ( -0.000000000000000000, -0.000000000000000000, -1.000000000000000000 ) ) ;
#291 = DIRECTION ( 'NONE',  ( 6.424901762877063495E-16, -1.000000000000000000, 0.000000000000000000 ) ) ;
#292 = AXIS2_PLACEMENT_3D ( 'NONE', #178, #319, #422 ) ;
#293 = DIRECTION ( 'NONE',  ( -1.000000000000000000, 0.000000000000000000, 0.000000000000000000 ) ) ;
#294 = EDGE_CURVE ( 'NONE', #372, #96, #305, .T. ) ;
#295 = DIRECTION ( 'NONE',  ( 0.000000000000000000, 0.000000000000000000, 1.000000000000000000 ) ) ;
#296 = ORIENTED_EDGE ( 'NONE', *, *, #286, .T. ) ;
#297 = FACE_OUTER_BOUND ( 'NONE', #380, .T. ) ;
#298 = ORIENTED_EDGE ( 'NONE', *, *, #136, .T. ) ;
#299 = EDGE_CURVE ( 'NONE', #307, #68, #259, .T. ) ;
#300 = CIRCLE ( 'NONE', #367, 12.50000000000000000 ) ;
#301 = FACE_OUTER_BOUND ( 'NONE', #336, .T. ) ;
#302 = AXIS2_PLACEMENT_3D ( 'NONE', #230, #365, #21 ) ;
#303 = VERTEX_POINT ( 'NONE', #263 ) ;
#304 = CARTESIAN_POINT ( 'NONE',  ( 55.00000000000001421, -2.387945564648172149E-14, 11.00000000000000000 ) ) ;
#305 = LINE ( 'NONE', #432, #3 ) ;
#306 = EDGE_CURVE ( 'NONE', #173, #69, #93, .T. ) ;
#307 = VERTEX_POINT ( 'NONE', #200 ) ;
#308 = APPROVAL_STATUS ( 'not_yet_approved' ) ;
#309 = EDGE_LOOP ( 'NONE', ( #382, #238, #133, #154 ) ) ;
#310 = AXIS2_PLACEMENT_3D ( 'NONE', #67, #35, #445 ) ;
#311 = APPROVAL_ROLE ( '' ) ;
#312 = CARTESIAN_POINT ( 'NONE',  ( 0.000000000000000000, 38.00000000000000711, 11.00000000000000000 ) ) ;
#313 = CARTESIAN_POINT ( 'NONE',  ( -55.00000000000001421, -2.387945564648172149E-14, 11.00000000000000000 ) ) ;
#314 = DIRECTION ( 'NONE',  ( 0.000000000000000000, 0.000000000000000000, 1.000000000000000000 ) ) ;
#315 = EDGE_CURVE ( 'NONE', #369, #398, #338, .T. ) ;
#316 = LINE ( 'NONE', #313, #30 ) ;
#317 = ORIENTED_EDGE ( 'NONE', *, *, #334, .T. ) ;
#318 = ORIENTED_EDGE ( 'NONE', *, *, #165, .T. ) ;
#319 = DIRECTION ( 'NONE',  ( 0.000000000000000000, 1.000000000000000000, 0.000000000000000000 ) ) ;
#320 = APPROVAL ( #308, 'UNSPECIFIED' ) ;
#321 = CARTESIAN_POINT ( 'NONE',  ( 28.00000000000000711, 25.00000000000000000, -11.00000000000000000 ) ) ;
#322 = PERSON ( 'UNSPECIFIED', 'UNSPECIFIED', 'UNSPECIFIED', ('UNSPECIFIED'), ('UNSPECIFIED'), ('UNSPECIFIED') ) ;
#323 = DIRECTION ( 'NONE',  ( -0.000000000000000000, -1.000000000000000000, -0.000000000000000000 ) ) ;
#324 = APPLICATION_CONTEXT ( 'configuration controlled 3d designs of mechanical parts and assemblies' ) ;
#325 = APPROVAL_STATUS ( 'not_yet_approved' ) ;
#326 = CARTESIAN_POINT ( 'NONE',  ( 0.000000000000000000, 38.00000000000000711, -11.00000000000000000 ) ) ;
#327 = EDGE_CURVE ( 'NONE', #303, #69, #232, .T. ) ;
#328 = CARTESIAN_POINT ( 'NONE',  ( -55.00000000000001421, -2.387945564648172149E-14, -11.00000000000000000 ) ) ;
#329 = VECTOR ( 'NONE', #186, 1000.000000000000000 ) ;
#330 =( GEOMETRIC_REPRESENTATION_CONTEXT ( 3 ) GLOBAL_UNCERTAINTY_ASSIGNED_CONTEXT ( ( #83 ) ) GLOBAL_UNIT_ASSIGNED_CONTEXT ( ( #128, #104, #207 ) ) REPRESENTATION_CONTEXT ( 'NONE', 'WORKASPACE' ) );
#331 = DIRECTION ( 'NONE',  ( 1.000000000000000000, 0.000000000000000000, 0.000000000000000000 ) ) ;
#332 = DIRECTION ( 'NONE',  ( -0.000000000000000000, -0.000000000000000000, -1.000000000000000000 ) ) ;
#333 = VERTEX_POINT ( 'NONE', #228 ) ;
#334 = EDGE_CURVE ( 'NONE', #231, #241, #362, .T. ) ;
#335 = PLANE ( 'NONE',  #182 ) ;
#336 = EDGE_LOOP ( 'NONE', ( #264, #248, #343, #122 ) ) ;
#337 = CARTESIAN_POINT ( 'NONE',  ( 28.00000000000000711, 25.00000000000000000, 11.00000000000000000 ) ) ;
#338 = LINE ( 'NONE', #360, #43 ) ;
#339 = EDGE_LOOP ( 'NONE', ( #205, #269, #406, #377 ) ) ;
#340 = EDGE_CURVE ( 'NONE', #429, #173, #393, .T. ) ;
#341 = CARTESIAN_POINT ( 'NONE',  ( 0.000000000000000000, 38.00000000000000711, 11.00000000000000000 ) ) ;
#342 = LINE ( 'NONE', #137, #124 ) ;
#343 = ORIENTED_EDGE ( 'NONE', *, *, #226, .F. ) ;
#344 = CC_DESIGN_APPROVAL ( #84, ( #252 ) ) ;
#345 = FACE_OUTER_BOUND ( 'NONE', #415, .T. ) ;
#346 = EDGE_LOOP ( 'NONE', ( #22, #106, #175, #5 ) ) ;
#347 = CARTESIAN_POINT ( 'NONE',  ( 55.00000000000001421, -2.387945564648172149E-14, -11.00000000000000000 ) ) ;
#348 = ORIENTED_EDGE ( 'NONE', *, *, #423, .T. ) ;
#349 = EDGE_CURVE ( 'NONE', #307, #170, #189, .T. ) ;
#350 = CARTESIAN_POINT ( 'NONE',  ( 0.000000000000000000, 38.00000000000000711, 11.00000000000000000 ) ) ;
#351 = CARTESIAN_POINT ( 'NONE',  ( -55.00000000000001421, 24.99999999999997868, 11.00000000000000000 ) ) ;
#352 = APPROVAL_STATUS ( 'not_yet_approved' ) ;
#353 = DIRECTION ( 'NONE',  ( -5.551115123125782702E-16, 1.000000000000000000, 0.000000000000000000 ) ) ;
#354 = VECTOR ( 'NONE', #353, 1000.000000000000000 ) ;
#355 = VECTOR ( 'NONE', #121, 1000.000000000000000 ) ;
#356 = CARTESIAN_POINT ( 'NONE',  ( 28.00000000000000711, 25.00000000000000000, 11.00000000000000000 ) ) ;
#357 = PRODUCT_DEFINITION ( 'UNKNOWN', '', #252, #17 ) ;
#358 = APPROVAL_ROLE ( '' ) ;
#359 = PLANE ( 'NONE',  #403 ) ;
#360 = CARTESIAN_POINT ( 'NONE',  ( 55.00000000000001421, -2.387945564648172149E-14, 11.00000000000000000 ) ) ;
#361 = VECTOR ( 'NONE', #153, 1000.000000000000000 ) ;
#362 = LINE ( 'NONE', #52, #101 ) ;
#363 = ADVANCED_FACE ( 'NONE', ( #20 ), #335, .F. ) ;
#364 = ORIENTED_EDGE ( 'NONE', *, *, #416, .F. ) ;
#365 = DIRECTION ( 'NONE',  ( -1.000000000000000000, -2.668805347656628157E-16, 0.000000000000000000 ) ) ;
#366 = LINE ( 'NONE', #304, #188 ) ;
#367 = AXIS2_PLACEMENT_3D ( 'NONE', #10, #147, #289 ) ;
#368 = CARTESIAN_POINT ( 'NONE',  ( -55.00000000000001421, -2.387945564648172149E-14, 11.00000000000000000 ) ) ;
#369 = VERTEX_POINT ( 'NONE', #85 ) ;
#370 = ADVANCED_FACE ( 'NONE', ( #297 ), #89, .F. ) ;
#371 = LINE ( 'NONE', #63, #378 ) ;
#372 = VERTEX_POINT ( 'NONE', #337 ) ;
#373 = MECHANICAL_CONTEXT ( 'NONE', #324, 'mechanical' ) ;
#374 = ORIENTED_EDGE ( 'NONE', *, *, #327, .F. ) ;
#375 = PERSON_AND_ORGANIZATION_ROLE ( 'creator' ) ;
#376 = EDGE_CURVE ( 'NONE', #88, #24, #158, .T. ) ;
#377 = ORIENTED_EDGE ( 'NONE', *, *, #376, .T. ) ;
#378 = VECTOR ( 'NONE', #440, 1000.000000000000000 ) ;
#379 = LINE ( 'NONE', #278, #131 ) ;
#380 = EDGE_LOOP ( 'NONE', ( #26, #126, #97, #229 ) ) ;
#381 = PERSON_AND_ORGANIZATION_ROLE ( 'design_owner' ) ;
#382 = ORIENTED_EDGE ( 'NONE', *, *, #327, .T. ) ;
#383 = LINE ( 'NONE', #75, #115 ) ;
#384 = LOCAL_TIME ( 13, 25, 48.00000000000000000, #276 ) ;
#385 = CALENDAR_DATE ( 2026, 28, 1 ) ;
#386 = DIRECTION ( 'NONE',  ( -1.000000000000000000, 0.000000000000000000, 0.000000000000000000 ) ) ;
#387 = PLANE ( 'NONE',  #292 ) ;
#388 = PERSON_AND_ORGANIZATION ( #322, #74 ) ;
#389 = FACE_BOUND ( 'NONE', #437, .T. ) ;
#390 = EDGE_CURVE ( 'NONE', #241, #431, #342, .T. ) ;
#391 = APPROVAL_DATE_TIME ( #111, #281 ) ;
#392 = LINE ( 'NONE', #321, #145 ) ;
#393 = LINE ( 'NONE', #430, #355 ) ;
#394 = EDGE_CURVE ( 'NONE', #241, #369, #316, .T. ) ;
#395 = CARTESIAN_POINT ( 'NONE',  ( -55.00000000000001421, -2.387945564648172149E-14, 11.00000000000000000 ) ) ;
#396 = VECTOR ( 'NONE', #211, 1000.000000000000000 ) ;
#397 = DIRECTION ( 'NONE',  ( 1.000000000000000000, 0.000000000000000000, 0.000000000000000000 ) ) ;
#398 = VERTEX_POINT ( 'NONE', #347 ) ;
#399 = CARTESIAN_POINT ( 'NONE',  ( 0.000000000000000000, 38.00000000000000711, 11.00000000000000000 ) ) ;
#400 = ORIENTED_EDGE ( 'NONE', *, *, #334, .F. ) ;
#401 = CARTESIAN_POINT ( 'NONE',  ( -28.00000000000001421, 24.99999999999999289, 11.00000000000000000 ) ) ;
#402 = ORIENTED_EDGE ( 'NONE', *, *, #90, .T. ) ;
#403 = AXIS2_PLACEMENT_3D ( 'NONE', #47, #41, #293 ) ;
#404 = APPLICATION_PROTOCOL_DEFINITION ( 'international standard', 'config_control_design', 1994, #324 ) ;
#405 = LINE ( 'NONE', #134, #161 ) ;
#406 = ORIENTED_EDGE ( 'NONE', *, *, #48, .F. ) ;
#407 = ADVANCED_FACE ( 'NONE', ( #33, #274 ), #436, .T. ) ;
#408 = CALENDAR_DATE ( 2026, 28, 1 ) ;
#409 = CARTESIAN_POINT ( 'NONE',  ( 28.00000000000000711, 25.00000000000000000, 11.00000000000000000 ) ) ;
#410 = DIRECTION ( 'NONE',  ( -1.000000000000000000, 8.994862468027889879E-16, -0.000000000000000000 ) ) ;
#411 = AXIS2_PLACEMENT_3D ( 'NONE', #341, #4, #29 ) ;
#412 = DIRECTION ( 'NONE',  ( -1.000000000000000000, 0.000000000000000000, 0.000000000000000000 ) ) ;
#413 = ORIENTED_EDGE ( 'NONE', *, *, #299, .T. ) ;
#414 = PERSON_AND_ORGANIZATION_ROLE ( 'creator' ) ;
#415 = EDGE_LOOP ( 'NONE', ( #176, #296, #284, #202 ) ) ;
#416 = EDGE_CURVE ( 'NONE', #24, #96, #379, .T. ) ;
#417 = DATE_TIME_ROLE ( 'classification_date' ) ;
#418 = LINE ( 'NONE', #351, #329 ) ;
#419 = VECTOR ( 'NONE', #323, 1000.000000000000000 ) ;
#420 = APPROVAL_PERSON_ORGANIZATION ( #46, #84, #181 ) ;
#421 = PERSON_AND_ORGANIZATION ( #322, #74 ) ;
#422 = DIRECTION ( 'NONE',  ( 0.000000000000000000, -0.000000000000000000, 1.000000000000000000 ) ) ;
#423 = EDGE_CURVE ( 'NONE', #372, #119, #61, .T. ) ;
#424 = FACE_OUTER_BOUND ( 'NONE', #99, .T. ) ;
#425 = COORDINATED_UNIVERSAL_TIME_OFFSET ( 1, 0, .AHEAD. ) ;
#426 = CARTESIAN_POINT ( 'NONE',  ( 28.00000000000000355, 37.99999999999999289, -11.00000000000000000 ) ) ;
#427 = DIRECTION ( 'NONE',  ( -0.000000000000000000, -0.000000000000000000, -1.000000000000000000 ) ) ;
#428 = CARTESIAN_POINT ( 'NONE',  ( -55.00000000000001421, 24.99999999999997868, 11.00000000000000000 ) ) ;
#429 = VERTEX_POINT ( 'NONE', #237 ) ;
#430 = CARTESIAN_POINT ( 'NONE',  ( -28.00000000000001421, 24.99999999999999289, 11.00000000000000000 ) ) ;
#431 = VERTEX_POINT ( 'NONE', #209 ) ;
#432 = CARTESIAN_POINT ( 'NONE',  ( 28.00000000000000711, 25.00000000000000000, 11.00000000000000000 ) ) ;
#433 = ORIENTED_EDGE ( 'NONE', *, *, #390, .F. ) ;
#434 = DIRECTION ( 'NONE',  ( -0.000000000000000000, -0.000000000000000000, -1.000000000000000000 ) ) ;
#435 = EDGE_CURVE ( 'NONE', #119, #196, #371, .T. ) ;
#436 = PLANE ( 'NONE',  #310 ) ;
#437 = EDGE_LOOP ( 'NONE', ( #244, #50 ) ) ;
#438 = CIRCLE ( 'NONE', #251, 12.50000000000000000 ) ;
#439 = LOCAL_TIME ( 13, 25, 48.00000000000000000, #172 ) ;
#440 = DIRECTION ( 'NONE',  ( -0.000000000000000000, -0.000000000000000000, -1.000000000000000000 ) ) ;
#441 = EDGE_LOOP ( 'NONE', ( #166, #91, #138, #37 ) ) ;
#442 = EDGE_CURVE ( 'NONE', #231, #333, #405, .T. ) ;
#443 = DIRECTION ( 'NONE',  ( -0.000000000000000000, -0.000000000000000000, -1.000000000000000000 ) ) ;
#444 = DIRECTION ( 'NONE',  ( 0.000000000000000000, 0.000000000000000000, 1.000000000000000000 ) ) ;
#445 = DIRECTION ( 'NONE',  ( -1.000000000000000000, 0.000000000000000000, 0.000000000000000000 ) ) ;
ENDSEC;
END-ISO-10303-21;
