ISO-10303-21;
HEADER;
FILE_DESCRIPTION (( 'STEP AP203' ),
    '1' );
FILE_NAME ('CB_plate_Default_sldprt.STEP',
    '2026-01-28T12:25:50',
    ( '' ),
    ( '' ),
    'SwSTEP 2.0',
    'SolidWorks 2024',
    '' );
FILE_SCHEMA (( 'CONFIG_CONTROL_DESIGN' ));
ENDSEC;

DATA;
#1 = CARTESIAN_POINT ( 'NONE',  ( 54.50000000000002132, 61.00000000000001421, 10.00000000000000000 ) ) ;
#2 = EDGE_LOOP ( 'NONE', ( #248, #180, #454, #421 ) ) ;
#3 = CC_DESIGN_PERSON_AND_ORGANIZATION_ASSIGNMENT ( #155, #109, ( #352 ) ) ;
#4 = VECTOR ( 'NONE', #507, 1000.000000000000000 ) ;
#5 = LINE ( 'NONE', #200, #528 ) ;
#6 = VERTEX_POINT ( 'NONE', #217 ) ;
#7 = DIRECTION ( 'NONE',  ( -1.000000000000000000, 0.000000000000000000, 0.000000000000000000 ) ) ;
#8 = FACE_OUTER_BOUND ( 'NONE', #533, .T. ) ;
#9 = FACE_OUTER_BOUND ( 'NONE', #124, .T. ) ;
#10 = PRODUCT_DEFINITION_FORMATION_WITH_SPECIFIED_SOURCE ( 'ANY', '', #352, .NOT_KNOWN. ) ;
#11 = VERTEX_POINT ( 'NONE', #132 ) ;
#12 = DIRECTION ( 'NONE',  ( -0.000000000000000000, -0.000000000000000000, -1.000000000000000000 ) ) ;
#13 = AXIS2_PLACEMENT_3D ( 'NONE', #14, #177, #339 ) ;
#14 = CARTESIAN_POINT ( 'NONE',  ( 61.00000000000002842, -61.00000000000001421, -10.00000000000000000 ) ) ;
#15 = VECTOR ( 'NONE', #142, 1000.000000000000000 ) ;
#16 = LINE ( 'NONE', #429, #4 ) ;
#17 = CIRCLE ( 'NONE', #43, 6.500000000000019540 ) ;
#18 = FACE_BOUND ( 'NONE', #140, .T. ) ;
#19 = EDGE_CURVE ( 'NONE', #447, #113, #451, .T. ) ;
#20 = EDGE_CURVE ( 'NONE', #238, #222, #16, .T. ) ;
#21 = FACE_OUTER_BOUND ( 'NONE', #2, .T. ) ;
#22 = EDGE_CURVE ( 'NONE', #290, #113, #381, .T. ) ;
#23 = DIRECTION ( 'NONE',  ( -0.000000000000000000, -0.000000000000000000, -1.000000000000000000 ) ) ;
#24 = DIRECTION ( 'NONE',  ( 0.000000000000000000, 0.000000000000000000, -1.000000000000000000 ) ) ;
#25 = ORIENTED_EDGE ( 'NONE', *, *, #94, .T. ) ;
#26 = CARTESIAN_POINT ( 'NONE',  ( -61.00000000000002842, 61.00000000000000000, 10.00000000000000000 ) ) ;
#27 = LINE ( 'NONE', #191, #64 ) ;
#28 = DIRECTION ( 'NONE',  ( 0.000000000000000000, -1.000000000000000000, 0.000000000000000000 ) ) ;
#29 = SECURITY_CLASSIFICATION_LEVEL ( 'unclassified' ) ;
#30 = CARTESIAN_POINT ( 'NONE',  ( -77.00000000000000000, -77.00000000000000000, -10.00000000000000000 ) ) ;
#31 = APPROVAL_ROLE ( '' ) ;
#32 = CARTESIAN_POINT ( 'NONE',  ( 77.00000000000000000, -77.00000000000000000, 10.00000000000000000 ) ) ;
#33 = EDGE_LOOP ( 'NONE', ( #78, #346, #56, #375 ) ) ;
#34 = VECTOR ( 'NONE', #435, 1000.000000000000000 ) ;
#35 = PERSON_AND_ORGANIZATION ( #303, #143 ) ;
#36 = CARTESIAN_POINT ( 'NONE',  ( -54.49999999999997868, -61.00000000000002842, 10.00000000000000000 ) ) ;
#37 = ORIENTED_EDGE ( 'NONE', *, *, #152, .T. ) ;
#38 = VECTOR ( 'NONE', #512, 1000.000000000000000 ) ;
#39 = FACE_OUTER_BOUND ( 'NONE', #262, .T. ) ;
#40 = ORIENTED_EDGE ( 'NONE', *, *, #90, .T. ) ;
#41 = DIRECTION ( 'NONE',  ( -0.000000000000000000, -0.000000000000000000, -1.000000000000000000 ) ) ;
#42 = VERTEX_POINT ( 'NONE', #216 ) ;
#43 = AXIS2_PLACEMENT_3D ( 'NONE', #182, #423, #504 ) ;
#44 = CARTESIAN_POINT ( 'NONE',  ( -77.00000000000000000, -77.00000000000000000, 10.00000000000000000 ) ) ;
#45 = ORIENTED_EDGE ( 'NONE', *, *, #285, .T. ) ;
#46 = DIRECTION ( 'NONE',  ( -0.000000000000000000, -0.000000000000000000, -1.000000000000000000 ) ) ;
#47 = ORIENTED_EDGE ( 'NONE', *, *, #308, .T. ) ;
#48 = CARTESIAN_POINT ( 'NONE',  ( -54.50000000000000000, 61.00000000000000000, 10.00000000000000000 ) ) ;
#49 = CARTESIAN_POINT ( 'NONE',  ( 67.50000000000002842, -61.00000000000001421, 10.00000000000000000 ) ) ;
#50 = CARTESIAN_POINT ( 'NONE',  ( 77.00000000000000000, -77.00000000000000000, -10.00000000000000000 ) ) ;
#51 = ORIENTED_EDGE ( 'NONE', *, *, #103, .T. ) ;
#52 = DIRECTION ( 'NONE',  ( 0.000000000000000000, 0.000000000000000000, -1.000000000000000000 ) ) ;
#53 = AXIS2_PLACEMENT_3D ( 'NONE', #181, #24, #475 ) ;
#54 = DIRECTION ( 'NONE',  ( -0.000000000000000000, -0.000000000000000000, -1.000000000000000000 ) ) ;
#55 = ADVANCED_BREP_SHAPE_REPRESENTATION ( 'CB_plate_Default_sldprt', ( #231, #367 ), #154 ) ;
#56 = ORIENTED_EDGE ( 'NONE', *, *, #152, .F. ) ;
#57 = APPROVAL ( #448, 'UNSPECIFIED' ) ;
#58 = CC_DESIGN_PERSON_AND_ORGANIZATION_ASSIGNMENT ( #485, #185, ( #267 ) ) ;
#59 = AXIS2_PLACEMENT_3D ( 'NONE', #300, #354, #134 ) ;
#60 = FACE_OUTER_BOUND ( 'NONE', #169, .T. ) ;
#61 = CARTESIAN_POINT ( 'NONE',  ( 67.50000000000002842, -61.00000000000001421, -10.00000000000000000 ) ) ;
#62 = CIRCLE ( 'NONE', #117, 6.500000000000005329 ) ;
#63 = ORIENTED_EDGE ( 'NONE', *, *, #467, .T. ) ;
#64 = VECTOR ( 'NONE', #184, 1000.000000000000000 ) ;
#65 = FACE_BOUND ( 'NONE', #299, .T. ) ;
#66 = DIRECTION ( 'NONE',  ( 0.000000000000000000, -0.000000000000000000, 1.000000000000000000 ) ) ;
#67 = COORDINATED_UNIVERSAL_TIME_OFFSET ( 1, 0, .AHEAD. ) ;
#68 = AXIS2_PLACEMENT_3D ( 'NONE', #408, #280, #193 ) ;
#69 = CARTESIAN_POINT ( 'NONE',  ( -54.49999999999997868, -61.00000000000002842, -10.00000000000000000 ) ) ;
#70 = PRODUCT_DEFINITION_SHAPE ( 'NONE', 'NONE',  #266 ) ;
#71 = APPLICATION_PROTOCOL_DEFINITION ( 'international standard', 'config_control_design', 1994, #521 ) ;
#72 = DIRECTION ( 'NONE',  ( 0.000000000000000000, 0.000000000000000000, 1.000000000000000000 ) ) ;
#73 = AXIS2_PLACEMENT_3D ( 'NONE', #304, #463, #470 ) ;
#74 = CARTESIAN_POINT ( 'NONE',  ( -61.00000000000002842, 61.00000000000000000, 10.00000000000000000 ) ) ;
#75 = APPROVAL_STATUS ( 'not_yet_approved' ) ;
#76 = CC_DESIGN_PERSON_AND_ORGANIZATION_ASSIGNMENT ( #35, #321, ( #10 ) ) ;
#77 = DIRECTION ( 'NONE',  ( 0.000000000000000000, 0.000000000000000000, 1.000000000000000000 ) ) ;
#78 = ORIENTED_EDGE ( 'NONE', *, *, #343, .T. ) ;
#79 = MECHANICAL_CONTEXT ( 'NONE', #521, 'mechanical' ) ;
#80 = DIRECTION ( 'NONE',  ( 1.000000000000000000, 0.000000000000000000, 0.000000000000000000 ) ) ;
#81 = VERTEX_POINT ( 'NONE', #179 ) ;
#82 = VECTOR ( 'NONE', #160, 1000.000000000000000 ) ;
#83 = PLANE ( 'NONE',  #313 ) ;
#84 = ORIENTED_EDGE ( 'NONE', *, *, #252, .F. ) ;
#85 = FACE_OUTER_BOUND ( 'NONE', #329, .T. ) ;
#86 = ORIENTED_EDGE ( 'NONE', *, *, #491, .F. ) ;
#87 = AXIS2_PLACEMENT_3D ( 'NONE', #26, #336, #7 ) ;
#88 = CARTESIAN_POINT ( 'NONE',  ( -77.00000000000000000, 77.00000000000000000, -10.00000000000000000 ) ) ;
#89 = ORIENTED_EDGE ( 'NONE', *, *, #497, .F. ) ;
#90 = EDGE_CURVE ( 'NONE', #277, #81, #312, .T. ) ;
#91 = VECTOR ( 'NONE', #268, 1000.000000000000000 ) ;
#92 = CARTESIAN_POINT ( 'NONE',  ( -54.50000000000000000, 61.00000000000000000, -10.00000000000000000 ) ) ;
#93 = FACE_BOUND ( 'NONE', #379, .T. ) ;
#94 = EDGE_CURVE ( 'NONE', #81, #277, #351, .T. ) ;
#95 = CARTESIAN_POINT ( 'NONE',  ( -77.00000000000000000, 77.00000000000000000, -10.00000000000000000 ) ) ;
#96 = ORIENTED_EDGE ( 'NONE', *, *, #461, .T. ) ;
#97 = AXIS2_PLACEMENT_3D ( 'NONE', #486, #77, #236 ) ;
#98 = ORIENTED_EDGE ( 'NONE', *, *, #178, .F. ) ;
#99 = ADVANCED_FACE ( 'NONE', ( #8, #100, #18, #141, #93 ), #307, .F. ) ;
#100 = FACE_BOUND ( 'NONE', #255, .T. ) ;
#101 = DESIGN_CONTEXT ( 'detailed design', #204, 'design' ) ;
#102 = CARTESIAN_POINT ( 'NONE',  ( -77.00000000000000000, 77.00000000000000000, 10.00000000000000000 ) ) ;
#103 = EDGE_CURVE ( 'NONE', #471, #42, #335, .T. ) ;
#104 = VECTOR ( 'NONE', #46, 1000.000000000000000 ) ;
#105 = CARTESIAN_POINT ( 'NONE',  ( -67.50000000000005684, 61.00000000000000000, -10.00000000000000000 ) ) ;
#106 = ADVANCED_FACE ( 'NONE', ( #229 ), #147, .F. ) ;
#107 = CYLINDRICAL_SURFACE ( 'NONE', #87, 6.500000000000033751 ) ;
#108 = CARTESIAN_POINT ( 'NONE',  ( 54.50000000000002132, -61.00000000000001421, 10.00000000000000000 ) ) ;
#109 = PERSON_AND_ORGANIZATION_ROLE ( 'design_owner' ) ;
#110 = CARTESIAN_POINT ( 'NONE',  ( 61.00000000000002842, 61.00000000000001421, 10.00000000000000000 ) ) ;
#111 = PERSON_AND_ORGANIZATION ( #303, #143 ) ;
#112 = PLANE ( 'NONE',  #189 ) ;
#113 = VERTEX_POINT ( 'NONE', #61 ) ;
#114 = APPROVAL ( #271, 'UNSPECIFIED' ) ;
#115 = CARTESIAN_POINT ( 'NONE',  ( -61.00000000000002842, 61.00000000000000000, -10.00000000000000000 ) ) ;
#116 = EDGE_CURVE ( 'NONE', #290, #281, #62, .T. ) ;
#117 = AXIS2_PLACEMENT_3D ( 'NONE', #153, #432, #314 ) ;
#118 = DIRECTION ( 'NONE',  ( -1.000000000000000000, 0.000000000000000000, 0.000000000000000000 ) ) ;
#119 = ORIENTED_EDGE ( 'NONE', *, *, #499, .T. ) ;
#120 = DIRECTION ( 'NONE',  ( 0.000000000000000000, 0.000000000000000000, 1.000000000000000000 ) ) ;
#121 = EDGE_LOOP ( 'NONE', ( #426, #385, #157, #388 ) ) ;
#122 = VECTOR ( 'NONE', #283, 1000.000000000000000 ) ;
#123 = DIRECTION ( 'NONE',  ( 0.000000000000000000, 0.000000000000000000, -1.000000000000000000 ) ) ;
#124 = EDGE_LOOP ( 'NONE', ( #145, #417, #63, #84 ) ) ;
#125 = VECTOR ( 'NONE', #41, 1000.000000000000000 ) ;
#126 = CARTESIAN_POINT ( 'NONE',  ( 67.50000000000002842, -61.00000000000001421, 10.00000000000000000 ) ) ;
#127 = VERTEX_POINT ( 'NONE', #477 ) ;
#128 = DIRECTION ( 'NONE',  ( -0.000000000000000000, -0.000000000000000000, -1.000000000000000000 ) ) ;
#129 = EDGE_LOOP ( 'NONE', ( #194, #350 ) ) ;
#130 = APPROVAL_PERSON_ORGANIZATION ( #478, #114, #31 ) ;
#131 = CARTESIAN_POINT ( 'NONE',  ( 54.50000000000002132, 61.00000000000001421, 10.00000000000000000 ) ) ;
#132 = CARTESIAN_POINT ( 'NONE',  ( 54.50000000000002132, 61.00000000000001421, -10.00000000000000000 ) ) ;
#133 = CIRCLE ( 'NONE', #436, 6.500000000000005329 ) ;
#134 = DIRECTION ( 'NONE',  ( -1.000000000000000000, 0.000000000000000000, 0.000000000000000000 ) ) ;
#135 = ORIENTED_EDGE ( 'NONE', *, *, #233, .F. ) ;
#136 =( LENGTH_UNIT ( ) NAMED_UNIT ( * ) SI_UNIT ( .MILLI., .METRE. ) );
#137 = VERTEX_POINT ( 'NONE', #30 ) ;
#138 = VECTOR ( 'NONE', #462, 1000.000000000000000 ) ;
#139 = LOCAL_TIME ( 13, 25, 50.00000000000000000, #146 ) ;
#140 = EDGE_LOOP ( 'NONE', ( #450, #301 ) ) ;
#141 = FACE_BOUND ( 'NONE', #129, .T. ) ;
#142 = DIRECTION ( 'NONE',  ( -0.000000000000000000, -1.000000000000000000, -0.000000000000000000 ) ) ;
#143 = ORGANIZATION ( 'UNSPECIFIED', 'UNSPECIFIED', '' ) ;
#144 = PLANE ( 'NONE',  #158 ) ;
#145 = ORIENTED_EDGE ( 'NONE', *, *, #368, .F. ) ;
#146 = COORDINATED_UNIVERSAL_TIME_OFFSET ( 1, 0, .AHEAD. ) ;
#147 = CYLINDRICAL_SURFACE ( 'NONE', #527, 6.500000000000005329 ) ;
#148 = AXIS2_PLACEMENT_3D ( 'NONE', #442, #403, #449 ) ;
#149 = PERSON_AND_ORGANIZATION ( #303, #143 ) ;
#150 = LINE ( 'NONE', #108, #91 ) ;
#151 = EDGE_CURVE ( 'NONE', #277, #199, #27, .T. ) ;
#152 = EDGE_CURVE ( 'NONE', #127, #295, #187, .T. ) ;
#153 = CARTESIAN_POINT ( 'NONE',  ( 61.00000000000002842, -61.00000000000001421, 10.00000000000000000 ) ) ;
#154 =( GEOMETRIC_REPRESENTATION_CONTEXT ( 3 ) GLOBAL_UNCERTAINTY_ASSIGNED_CONTEXT ( ( #256 ) ) GLOBAL_UNIT_ASSIGNED_CONTEXT ( ( #136, #511, #526 ) ) REPRESENTATION_CONTEXT ( 'NONE', 'WORKASPACE' ) );
#155 = PERSON_AND_ORGANIZATION ( #303, #143 ) ;
#156 = DIRECTION ( 'NONE',  ( 0.000000000000000000, 0.000000000000000000, 1.000000000000000000 ) ) ;
#157 = ORIENTED_EDGE ( 'NONE', *, *, #243, .T. ) ;
#158 = AXIS2_PLACEMENT_3D ( 'NONE', #515, #28, #472 ) ;
#159 = COORDINATED_UNIVERSAL_TIME_OFFSET ( 1, 0, .AHEAD. ) ;
#160 = DIRECTION ( 'NONE',  ( -0.000000000000000000, -1.000000000000000000, -0.000000000000000000 ) ) ;
#161 = ORIENTED_EDGE ( 'NONE', *, *, #499, .F. ) ;
#162 = FACE_OUTER_BOUND ( 'NONE', #258, .T. ) ;
#163 = AXIS2_PLACEMENT_3D ( 'NONE', #380, #52, #257 ) ;
#164 = ORIENTED_EDGE ( 'NONE', *, *, #345, .T. ) ;
#165 = CC_DESIGN_APPROVAL ( #57, ( #266 ) ) ;
#166 = DIRECTION ( 'NONE',  ( 0.000000000000000000, 0.000000000000000000, 1.000000000000000000 ) ) ;
#167 = EDGE_LOOP ( 'NONE', ( #480, #377 ) ) ;
#168 = LINE ( 'NONE', #483, #122 ) ;
#169 = EDGE_LOOP ( 'NONE', ( #51, #332, #326, #213 ) ) ;
#170 = ADVANCED_FACE ( 'NONE', ( #21 ), #397, .F. ) ;
#171 = CARTESIAN_POINT ( 'NONE',  ( -67.50000000000001421, -61.00000000000002842, 10.00000000000000000 ) ) ;
#172 = EDGE_CURVE ( 'NONE', #42, #471, #133, .T. ) ;
#173 = EDGE_LOOP ( 'NONE', ( #490, #40, #334, #210 ) ) ;
#174 = LINE ( 'NONE', #95, #275 ) ;
#175 = VERTEX_POINT ( 'NONE', #105 ) ;
#176 = DIRECTION ( 'NONE',  ( 0.000000000000000000, 0.000000000000000000, 1.000000000000000000 ) ) ;
#177 = DIRECTION ( 'NONE',  ( 0.000000000000000000, 0.000000000000000000, 1.000000000000000000 ) ) ;
#178 = EDGE_CURVE ( 'NONE', #42, #320, #319, .T. ) ;
#179 = CARTESIAN_POINT ( 'NONE',  ( -67.50000000000001421, -61.00000000000002842, 10.00000000000000000 ) ) ;
#180 = ORIENTED_EDGE ( 'NONE', *, *, #22, .T. ) ;
#181 = CARTESIAN_POINT ( 'NONE',  ( 0.000000000000000000, 0.000000000000000000, 10.00000000000000000 ) ) ;
#182 = CARTESIAN_POINT ( 'NONE',  ( -61.00000000000000000, -61.00000000000002842, -10.00000000000000000 ) ) ;
#183 = ADVANCED_FACE ( 'NONE', ( #60 ), #276, .F. ) ;
#184 = DIRECTION ( 'NONE',  ( -0.000000000000000000, -0.000000000000000000, -1.000000000000000000 ) ) ;
#185 = PERSON_AND_ORGANIZATION_ROLE ( 'classification_officer' ) ;
#186 = CIRCLE ( 'NONE', #259, 6.500000000000005329 ) ;
#187 = LINE ( 'NONE', #221, #38 ) ;
#188 = CARTESIAN_POINT ( 'NONE',  ( 61.00000000000002842, 61.00000000000001421, 10.00000000000000000 ) ) ;
#189 = AXIS2_PLACEMENT_3D ( 'NONE', #270, #437, #66 ) ;
#190 = PERSON_AND_ORGANIZATION ( #303, #143 ) ;
#191 = CARTESIAN_POINT ( 'NONE',  ( -54.49999999999997868, -61.00000000000002842, 10.00000000000000000 ) ) ;
#192 = DATE_AND_TIME ( #401, #139 ) ;
#193 = DIRECTION ( 'NONE',  ( 1.000000000000000000, 0.000000000000000000, 0.000000000000000000 ) ) ;
#194 = ORIENTED_EDGE ( 'NONE', *, *, #94, .F. ) ;
#195 = DATE_AND_TIME ( #410, #513 ) ;
#196 = CARTESIAN_POINT ( 'NONE',  ( 77.00000000000000000, -77.00000000000000000, 10.00000000000000000 ) ) ;
#197 = ORIENTED_EDGE ( 'NONE', *, *, #205, .T. ) ;
#198 = DIRECTION ( 'NONE',  ( -0.000000000000000000, -0.000000000000000000, -1.000000000000000000 ) ) ;
#199 = VERTEX_POINT ( 'NONE', #69 ) ;
#200 = CARTESIAN_POINT ( 'NONE',  ( -77.00000000000000000, 77.00000000000000000, 10.00000000000000000 ) ) ;
#201 = ORIENTED_EDGE ( 'NONE', *, *, #467, .F. ) ;
#202 = CARTESIAN_POINT ( 'NONE',  ( -77.00000000000000000, -77.00000000000000000, -10.00000000000000000 ) ) ;
#203 = ORIENTED_EDGE ( 'NONE', *, *, #497, .T. ) ;
#204 = APPLICATION_CONTEXT ( 'configuration controlled 3d designs of mechanical parts and assemblies' ) ;
#205 = EDGE_CURVE ( 'NONE', #238, #391, #395, .T. ) ;
#206 = CC_DESIGN_PERSON_AND_ORGANIZATION_ASSIGNMENT ( #360, #406, ( #266 ) ) ;
#207 = FACE_BOUND ( 'NONE', #415, .T. ) ;
#208 = ORIENTED_EDGE ( 'NONE', *, *, #116, .F. ) ;
#209 = DIRECTION ( 'NONE',  ( -0.000000000000000000, -0.000000000000000000, -1.000000000000000000 ) ) ;
#210 = ORIENTED_EDGE ( 'NONE', *, *, #249, .F. ) ;
#211 = APPROVAL_PERSON_ORGANIZATION ( #190, #366, #234 ) ;
#212 = CARTESIAN_POINT ( 'NONE',  ( -67.50000000000001421, -61.00000000000002842, -10.00000000000000000 ) ) ;
#213 = ORIENTED_EDGE ( 'NONE', *, *, #308, .F. ) ;
#214 = CIRCLE ( 'NONE', #519, 6.500000000000005329 ) ;
#215 = CARTESIAN_POINT ( 'NONE',  ( 61.00000000000002842, -61.00000000000001421, -10.00000000000000000 ) ) ;
#216 = CARTESIAN_POINT ( 'NONE',  ( 67.50000000000002842, 61.00000000000001421, 10.00000000000000000 ) ) ;
#217 = CARTESIAN_POINT ( 'NONE',  ( -67.50000000000005684, 61.00000000000000000, 10.00000000000000000 ) ) ;
#218 = DIRECTION ( 'NONE',  ( -0.000000000000000000, -0.000000000000000000, -1.000000000000000000 ) ) ;
#219 = CC_DESIGN_DATE_AND_TIME_ASSIGNMENT ( #444, #518, ( #266 ) ) ;
#220 = VECTOR ( 'NONE', #294, 1000.000000000000000 ) ;
#221 = CARTESIAN_POINT ( 'NONE',  ( -77.00000000000000000, -77.00000000000000000, 10.00000000000000000 ) ) ;
#222 = VERTEX_POINT ( 'NONE', #359 ) ;
#223 = FACE_OUTER_BOUND ( 'NONE', #443, .T. ) ;
#224 = CARTESIAN_POINT ( 'NONE',  ( 61.00000000000002842, -61.00000000000001421, 10.00000000000000000 ) ) ;
#225 = CIRCLE ( 'NONE', #68, 6.500000000000026645 ) ;
#226 = DIRECTION ( 'NONE',  ( -1.000000000000000000, 0.000000000000000000, 0.000000000000000000 ) ) ;
#227 = LOCAL_TIME ( 13, 25, 50.00000000000000000, #365 ) ;
#228 = DATE_AND_TIME ( #438, #386 ) ;
#229 = FACE_OUTER_BOUND ( 'NONE', #121, .T. ) ;
#230 = ORIENTED_EDGE ( 'NONE', *, *, #382, .F. ) ;
#231 = MANIFOLD_SOLID_BREP ( 'Boss-Extrude1', #305 ) ;
#232 = CARTESIAN_POINT ( 'NONE',  ( 61.00000000000002842, 61.00000000000001421, -10.00000000000000000 ) ) ;
#233 = EDGE_CURVE ( 'NONE', #487, #137, #402, .T. ) ;
#234 = APPROVAL_ROLE ( '' ) ;
#235 = ADVANCED_FACE ( 'NONE', ( #309 ), #144, .F. ) ;
#236 = DIRECTION ( 'NONE',  ( 1.000000000000000000, 0.000000000000000000, 0.000000000000000000 ) ) ;
#237 = VECTOR ( 'NONE', #12, 1000.000000000000000 ) ;
#238 = VERTEX_POINT ( 'NONE', #311 ) ;
#239 = APPROVAL_DATE_TIME ( #514, #57 ) ;
#240 = DIRECTION ( 'NONE',  ( -0.000000000000000000, -0.000000000000000000, -1.000000000000000000 ) ) ;
#241 = ORIENTED_EDGE ( 'NONE', *, *, #407, .T. ) ;
#242 = VECTOR ( 'NONE', #353, 1000.000000000000000 ) ;
#243 = EDGE_CURVE ( 'NONE', #281, #447, #150, .T. ) ;
#244 = LINE ( 'NONE', #1, #125 ) ;
#245 = ORIENTED_EDGE ( 'NONE', *, *, #20, .F. ) ;
#246 = DIRECTION ( 'NONE',  ( -1.000000000000000000, 0.000000000000000000, 0.000000000000000000 ) ) ;
#247 = ADVANCED_FACE ( 'NONE', ( #433 ), #112, .F. ) ;
#248 = ORIENTED_EDGE ( 'NONE', *, *, #422, .T. ) ;
#249 = EDGE_CURVE ( 'NONE', #199, #531, #506, .T. ) ;
#250 = CC_DESIGN_APPROVAL ( #114, ( #10 ) ) ;
#251 = LINE ( 'NONE', #502, #34 ) ;
#252 = EDGE_CURVE ( 'NONE', #460, #175, #342, .T. ) ;
#253 = ORIENTED_EDGE ( 'NONE', *, *, #484, .F. ) ;
#254 = CARTESIAN_POINT ( 'NONE',  ( -61.00000000000000000, -61.00000000000002842, 10.00000000000000000 ) ) ;
#255 = EDGE_LOOP ( 'NONE', ( #404, #230 ) ) ;
#256 = UNCERTAINTY_MEASURE_WITH_UNIT (LENGTH_MEASURE( 1.000000000000000082E-05 ), #136, 'distance_accuracy_value', 'NONE');
#257 = DIRECTION ( 'NONE',  ( -1.000000000000000000, 0.000000000000000000, -0.000000000000000000 ) ) ;
#258 = EDGE_LOOP ( 'NONE', ( #370, #341, #373, #164 ) ) ;
#259 = AXIS2_PLACEMENT_3D ( 'NONE', #524, #156, #324 ) ;
#260 = CIRCLE ( 'NONE', #394, 6.500000000000005329 ) ;
#261 = DIRECTION ( 'NONE',  ( 1.000000000000000000, 0.000000000000000000, 0.000000000000000000 ) ) ;
#262 = EDGE_LOOP ( 'NONE', ( #98, #284, #47, #505 ) ) ;
#263 = ORIENTED_EDGE ( 'NONE', *, *, #368, .T. ) ;
#264 = DIRECTION ( 'NONE',  ( -0.000000000000000000, -0.000000000000000000, -1.000000000000000000 ) ) ;
#265 = PRODUCT_RELATED_PRODUCT_CATEGORY ( 'detail', '', ( #352 ) ) ;
#266 = PRODUCT_DEFINITION ( 'UNKNOWN', '', #10, #101 ) ;
#267 = SECURITY_CLASSIFICATION ( '', '', #29 ) ;
#268 = DIRECTION ( 'NONE',  ( -0.000000000000000000, -0.000000000000000000, -1.000000000000000000 ) ) ;
#269 = DIRECTION ( 'NONE',  ( -1.000000000000000000, 0.000000000000000000, 0.000000000000000000 ) ) ;
#270 = CARTESIAN_POINT ( 'NONE',  ( -77.00000000000000000, -77.00000000000000000, 10.00000000000000000 ) ) ;
#271 = APPROVAL_STATUS ( 'not_yet_approved' ) ;
#272 = ADVANCED_FACE ( 'NONE', ( #85 ), #369, .F. ) ;
#273 = DIRECTION ( 'NONE',  ( -1.000000000000000000, 0.000000000000000000, 0.000000000000000000 ) ) ;
#274 = PERSON_AND_ORGANIZATION_ROLE ( 'creator' ) ;
#275 = VECTOR ( 'NONE', #399, 1000.000000000000000 ) ;
#276 = CYLINDRICAL_SURFACE ( 'NONE', #430, 6.500000000000005329 ) ;
#277 = VERTEX_POINT ( 'NONE', #36 ) ;
#278 = ADVANCED_FACE ( 'NONE', ( #418 ), #83, .F. ) ;
#279 = APPLICATION_PROTOCOL_DEFINITION ( 'international standard', 'config_control_design', 1994, #204 ) ;
#280 = DIRECTION ( 'NONE',  ( 0.000000000000000000, 0.000000000000000000, 1.000000000000000000 ) ) ;
#281 = VERTEX_POINT ( 'NONE', #492 ) ;
#282 = DATE_TIME_ROLE ( 'classification_date' ) ;
#283 = DIRECTION ( 'NONE',  ( -0.000000000000000000, -0.000000000000000000, -1.000000000000000000 ) ) ;
#284 = ORIENTED_EDGE ( 'NONE', *, *, #172, .T. ) ;
#285 = EDGE_CURVE ( 'NONE', #6, #500, #396, .T. ) ;
#286 = APPROVAL_DATE_TIME ( #195, #366 ) ;
#287 = EDGE_CURVE ( 'NONE', #391, #127, #414, .T. ) ;
#288 = DIRECTION ( 'NONE',  ( -1.000000000000000000, 0.000000000000000000, 0.000000000000000000 ) ) ;
#289 = APPROVAL_PERSON_ORGANIZATION ( #149, #57, #315 ) ;
#290 = VERTEX_POINT ( 'NONE', #126 ) ;
#291 = DIRECTION ( 'NONE',  ( -0.000000000000000000, -0.000000000000000000, -1.000000000000000000 ) ) ;
#292 = ORIENTED_EDGE ( 'NONE', *, *, #343, .F. ) ;
#293 = AXIS2_PLACEMENT_3D ( 'NONE', #347, #503, #508 ) ;
#294 = DIRECTION ( 'NONE',  ( 1.000000000000000000, 0.000000000000000000, 0.000000000000000000 ) ) ;
#295 = VERTEX_POINT ( 'NONE', #32 ) ;
#296 = CYLINDRICAL_SURFACE ( 'NONE', #501, 6.500000000000019540 ) ;
#297 = ORIENTED_EDGE ( 'NONE', *, *, #252, .T. ) ;
#298 = LINE ( 'NONE', #50, #138 ) ;
#299 = EDGE_LOOP ( 'NONE', ( #398, #424 ) ) ;
#300 = CARTESIAN_POINT ( 'NONE',  ( -61.00000000000002842, 61.00000000000000000, 10.00000000000000000 ) ) ;
#301 = ORIENTED_EDGE ( 'NONE', *, *, #172, .F. ) ;
#302 = VERTEX_POINT ( 'NONE', #333 ) ;
#303 = PERSON ( 'UNSPECIFIED', 'UNSPECIFIED', 'UNSPECIFIED', ('UNSPECIFIED'), ('UNSPECIFIED'), ('UNSPECIFIED') ) ;
#304 = CARTESIAN_POINT ( 'NONE',  ( -61.00000000000000000, -61.00000000000002842, 10.00000000000000000 ) ) ;
#305 = CLOSED_SHELL ( 'NONE', ( #170, #272, #183, #441, #99, #428, #323, #247, #278, #235, #516, #317, #459, #106 ) ) ;
#306 = EDGE_CURVE ( 'NONE', #11, #320, #214, .T. ) ;
#307 = PLANE ( 'NONE',  #53 ) ;
#308 = EDGE_CURVE ( 'NONE', #471, #11, #244, .T. ) ;
#309 = FACE_OUTER_BOUND ( 'NONE', #392, .T. ) ;
#310 = FACE_BOUND ( 'NONE', #167, .T. ) ;
#311 = CARTESIAN_POINT ( 'NONE',  ( 77.00000000000000000, 77.00000000000000000, 10.00000000000000000 ) ) ;
#312 = CIRCLE ( 'NONE', #293, 6.500000000000019540 ) ;
#313 = AXIS2_PLACEMENT_3D ( 'NONE', #196, #288, #445 ) ;
#314 = DIRECTION ( 'NONE',  ( 1.000000000000000000, 0.000000000000000000, 0.000000000000000000 ) ) ;
#315 = APPROVAL_ROLE ( '' ) ;
#316 = DIRECTION ( 'NONE',  ( -1.000000000000000000, 0.000000000000000000, 0.000000000000000000 ) ) ;
#317 = ADVANCED_FACE ( 'NONE', ( #39 ), #455, .F. ) ;
#318 = ORIENTED_EDGE ( 'NONE', *, *, #348, .F. ) ;
#319 = LINE ( 'NONE', #400, #389 ) ;
#320 = VERTEX_POINT ( 'NONE', #532 ) ;
#321 = PERSON_AND_ORGANIZATION_ROLE ( 'design_supplier' ) ;
#322 = AXIS2_PLACEMENT_3D ( 'NONE', #355, #72, #522 ) ;
#323 = ADVANCED_FACE ( 'NONE', ( #162 ), #328, .F. ) ;
#324 = DIRECTION ( 'NONE',  ( -1.000000000000000000, 0.000000000000000000, 0.000000000000000000 ) ) ;
#325 = AXIS2_PLACEMENT_3D ( 'NONE', #331, #416, #123 ) ;
#326 = ORIENTED_EDGE ( 'NONE', *, *, #306, .F. ) ;
#327 = CALENDAR_DATE ( 2026, 28, 1 ) ;
#328 = PLANE ( 'NONE',  #325 ) ;
#329 = EDGE_LOOP ( 'NONE', ( #25, #496, #86, #253 ) ) ;
#330 = CIRCLE ( 'NONE', #97, 6.500000000000005329 ) ;
#331 = CARTESIAN_POINT ( 'NONE',  ( -77.00000000000000000, -77.00000000000000000, 10.00000000000000000 ) ) ;
#332 = ORIENTED_EDGE ( 'NONE', *, *, #178, .T. ) ;
#333 = CARTESIAN_POINT ( 'NONE',  ( 77.00000000000000000, -77.00000000000000000, -10.00000000000000000 ) ) ;
#334 = ORIENTED_EDGE ( 'NONE', *, *, #484, .T. ) ;
#335 = CIRCLE ( 'NONE', #322, 6.500000000000005329 ) ;
#336 = DIRECTION ( 'NONE',  ( -0.000000000000000000, -0.000000000000000000, -1.000000000000000000 ) ) ;
#337 = EDGE_LOOP ( 'NONE', ( #119, #245, #89, #96 ) ) ;
#338 = FACE_BOUND ( 'NONE', #412, .T. ) ;
#339 = DIRECTION ( 'NONE',  ( 1.000000000000000000, 0.000000000000000000, 0.000000000000000000 ) ) ;
#340 = CYLINDRICAL_SURFACE ( 'NONE', #59, 6.500000000000033751 ) ;
#341 = ORIENTED_EDGE ( 'NONE', *, *, #473, .F. ) ;
#342 = CIRCLE ( 'NONE', #453, 6.500000000000026645 ) ;
#343 = EDGE_CURVE ( 'NONE', #137, #302, #489, .T. ) ;
#344 = CARTESIAN_POINT ( 'NONE',  ( -67.50000000000005684, 61.00000000000000000, 10.00000000000000000 ) ) ;
#345 = EDGE_CURVE ( 'NONE', #391, #487, #5, .T. ) ;
#346 = ORIENTED_EDGE ( 'NONE', *, *, #461, .F. ) ;
#347 = CARTESIAN_POINT ( 'NONE',  ( -61.00000000000000000, -61.00000000000002842, 10.00000000000000000 ) ) ;
#348 = EDGE_CURVE ( 'NONE', #175, #460, #457, .T. ) ;
#349 = CC_DESIGN_PERSON_AND_ORGANIZATION_ASSIGNMENT ( #111, #274, ( #10 ) ) ;
#350 = ORIENTED_EDGE ( 'NONE', *, *, #90, .F. ) ;
#351 = CIRCLE ( 'NONE', #73, 6.500000000000019540 ) ;
#352 = PRODUCT ( 'CB_plate_Default_sldprt', 'CB_plate_Default_sldprt', '', ( #79 ) ) ;
#353 = DIRECTION ( 'NONE',  ( -1.000000000000000000, -0.000000000000000000, -0.000000000000000000 ) ) ;
#354 = DIRECTION ( 'NONE',  ( -0.000000000000000000, -0.000000000000000000, -1.000000000000000000 ) ) ;
#355 = CARTESIAN_POINT ( 'NONE',  ( 61.00000000000002842, 61.00000000000001421, 10.00000000000000000 ) ) ;
#356 = SHAPE_DEFINITION_REPRESENTATION ( #70, #55 ) ;
#357 = LOCAL_TIME ( 13, 25, 50.00000000000000000, #159 ) ;
#358 = CC_DESIGN_APPROVAL ( #366, ( #267 ) ) ;
#359 = CARTESIAN_POINT ( 'NONE',  ( 77.00000000000000000, 77.00000000000000000, -10.00000000000000000 ) ) ;
#360 = PERSON_AND_ORGANIZATION ( #303, #143 ) ;
#361 = AXIS2_PLACEMENT_3D ( 'NONE', #376, #240, #371 ) ;
#362 = DIRECTION ( 'NONE',  ( -0.000000000000000000, -0.000000000000000000, -1.000000000000000000 ) ) ;
#363 = CARTESIAN_POINT ( 'NONE',  ( 61.00000000000002842, -61.00000000000001421, 10.00000000000000000 ) ) ;
#364 = ORIENTED_EDGE ( 'NONE', *, *, #422, .F. ) ;
#365 = COORDINATED_UNIVERSAL_TIME_OFFSET ( 1, 0, .AHEAD. ) ;
#366 = APPROVAL ( #75, 'UNSPECIFIED' ) ;
#367 = AXIS2_PLACEMENT_3D ( 'NONE', #523, #476, #482 ) ;
#368 = EDGE_CURVE ( 'NONE', #500, #460, #168, .T. ) ;
#369 = CYLINDRICAL_SURFACE ( 'NONE', #361, 6.500000000000019540 ) ;
#370 = ORIENTED_EDGE ( 'NONE', *, *, #233, .T. ) ;
#371 = DIRECTION ( 'NONE',  ( -1.000000000000000000, 0.000000000000000000, 0.000000000000000000 ) ) ;
#372 = AXIS2_PLACEMENT_3D ( 'NONE', #224, #362, #226 ) ;
#373 = ORIENTED_EDGE ( 'NONE', *, *, #287, .F. ) ;
#374 = DIRECTION ( 'NONE',  ( 1.000000000000000000, 0.000000000000000000, 0.000000000000000000 ) ) ;
#375 = ORIENTED_EDGE ( 'NONE', *, *, #473, .T. ) ;
#376 = CARTESIAN_POINT ( 'NONE',  ( -61.00000000000000000, -61.00000000000002842, 10.00000000000000000 ) ) ;
#377 = ORIENTED_EDGE ( 'NONE', *, *, #249, .T. ) ;
#378 = CARTESIAN_POINT ( 'NONE',  ( 61.00000000000002842, 61.00000000000001421, 10.00000000000000000 ) ) ;
#379 = EDGE_LOOP ( 'NONE', ( #364, #208 ) ) ;
#380 = CARTESIAN_POINT ( 'NONE',  ( 0.000000000000000000, 0.000000000000000000, -10.00000000000000000 ) ) ;
#381 = LINE ( 'NONE', #49, #517 ) ;
#382 = EDGE_CURVE ( 'NONE', #500, #6, #225, .T. ) ;
#383 = LINE ( 'NONE', #344, #104 ) ;
#384 = AXIS2_PLACEMENT_3D ( 'NONE', #452, #166, #494 ) ;
#385 = ORIENTED_EDGE ( 'NONE', *, *, #116, .T. ) ;
#386 = LOCAL_TIME ( 13, 25, 50.00000000000000000, #440 ) ;
#387 = LINE ( 'NONE', #458, #393 ) ;
#388 = ORIENTED_EDGE ( 'NONE', *, *, #529, .F. ) ;
#389 = VECTOR ( 'NONE', #264, 1000.000000000000000 ) ;
#390 = CC_DESIGN_SECURITY_CLASSIFICATION ( #267, ( #10 ) ) ;
#391 = VERTEX_POINT ( 'NONE', #411 ) ;
#392 = EDGE_LOOP ( 'NONE', ( #409, #466, #469, #493 ) ) ;
#393 = VECTOR ( 'NONE', #23, 1000.000000000000000 ) ;
#394 = AXIS2_PLACEMENT_3D ( 'NONE', #215, #176, #261 ) ;
#395 = LINE ( 'NONE', #102, #242 ) ;
#396 = CIRCLE ( 'NONE', #464, 6.500000000000026645 ) ;
#397 = CYLINDRICAL_SURFACE ( 'NONE', #372, 6.500000000000005329 ) ;
#398 = ORIENTED_EDGE ( 'NONE', *, *, #19, .T. ) ;
#399 = DIRECTION ( 'NONE',  ( -1.000000000000000000, -0.000000000000000000, -0.000000000000000000 ) ) ;
#400 = CARTESIAN_POINT ( 'NONE',  ( 67.50000000000002842, 61.00000000000001421, 10.00000000000000000 ) ) ;
#401 = CALENDAR_DATE ( 2026, 28, 1 ) ;
#402 = LINE ( 'NONE', #479, #15 ) ;
#403 = DIRECTION ( 'NONE',  ( 0.000000000000000000, 0.000000000000000000, 1.000000000000000000 ) ) ;
#404 = ORIENTED_EDGE ( 'NONE', *, *, #285, .F. ) ;
#405 = CC_DESIGN_DATE_AND_TIME_ASSIGNMENT ( #228, #282, ( #267 ) ) ;
#406 = PERSON_AND_ORGANIZATION_ROLE ( 'creator' ) ;
#407 = EDGE_CURVE ( 'NONE', #320, #11, #186, .T. ) ;
#408 = CARTESIAN_POINT ( 'NONE',  ( -61.00000000000002842, 61.00000000000000000, 10.00000000000000000 ) ) ;
#409 = ORIENTED_EDGE ( 'NONE', *, *, #434, .T. ) ;
#410 = CALENDAR_DATE ( 2026, 28, 1 ) ;
#411 = CARTESIAN_POINT ( 'NONE',  ( -77.00000000000000000, 77.00000000000000000, 10.00000000000000000 ) ) ;
#412 = EDGE_LOOP ( 'NONE', ( #509, #241 ) ) ;
#413 = APPROVAL_DATE_TIME ( #192, #114 ) ;
#414 = LINE ( 'NONE', #44, #82 ) ;
#415 = EDGE_LOOP ( 'NONE', ( #456, #297 ) ) ;
#416 = DIRECTION ( 'NONE',  ( 1.000000000000000000, 0.000000000000000000, 0.000000000000000000 ) ) ;
#417 = ORIENTED_EDGE ( 'NONE', *, *, #382, .T. ) ;
#418 = FACE_OUTER_BOUND ( 'NONE', #337, .T. ) ;
#419 = ORIENTED_EDGE ( 'NONE', *, *, #434, .F. ) ;
#420 = CARTESIAN_POINT ( 'NONE',  ( 54.50000000000002132, -61.00000000000001421, -10.00000000000000000 ) ) ;
#421 = ORIENTED_EDGE ( 'NONE', *, *, #243, .F. ) ;
#422 = EDGE_CURVE ( 'NONE', #281, #290, #330, .T. ) ;
#423 = DIRECTION ( 'NONE',  ( 0.000000000000000000, 0.000000000000000000, 1.000000000000000000 ) ) ;
#424 = ORIENTED_EDGE ( 'NONE', *, *, #529, .T. ) ;
#425 = CARTESIAN_POINT ( 'NONE',  ( -77.00000000000000000, -77.00000000000000000, 10.00000000000000000 ) ) ;
#426 = ORIENTED_EDGE ( 'NONE', *, *, #22, .F. ) ;
#427 = PLANE ( 'NONE',  #163 ) ;
#428 = ADVANCED_FACE ( 'NONE', ( #310, #207, #223, #338, #65 ), #427, .T. ) ;
#429 = CARTESIAN_POINT ( 'NONE',  ( 77.00000000000000000, 77.00000000000000000, 10.00000000000000000 ) ) ;
#430 = AXIS2_PLACEMENT_3D ( 'NONE', #110, #218, #316 ) ;
#431 = ORIENTED_EDGE ( 'NONE', *, *, #287, .T. ) ;
#432 = DIRECTION ( 'NONE',  ( 0.000000000000000000, 0.000000000000000000, 1.000000000000000000 ) ) ;
#433 = FACE_OUTER_BOUND ( 'NONE', #33, .T. ) ;
#434 = EDGE_CURVE ( 'NONE', #222, #487, #174, .T. ) ;
#435 = DIRECTION ( 'NONE',  ( 0.000000000000000000, 1.000000000000000000, 0.000000000000000000 ) ) ;
#436 = AXIS2_PLACEMENT_3D ( 'NONE', #188, #510, #520 ) ;
#437 = DIRECTION ( 'NONE',  ( 0.000000000000000000, 1.000000000000000000, 0.000000000000000000 ) ) ;
#438 = CALENDAR_DATE ( 2026, 28, 1 ) ;
#439 = DIRECTION ( 'NONE',  ( -0.000000000000000000, -0.000000000000000000, -1.000000000000000000 ) ) ;
#440 = COORDINATED_UNIVERSAL_TIME_OFFSET ( 1, 0, .AHEAD. ) ;
#441 = ADVANCED_FACE ( 'NONE', ( #474 ), #107, .F. ) ;
#442 = CARTESIAN_POINT ( 'NONE',  ( -61.00000000000000000, -61.00000000000002842, -10.00000000000000000 ) ) ;
#443 = EDGE_LOOP ( 'NONE', ( #135, #419, #161, #292 ) ) ;
#444 = DATE_AND_TIME ( #488, #227 ) ;
#445 = DIRECTION ( 'NONE',  ( 0.000000000000000000, 0.000000000000000000, 1.000000000000000000 ) ) ;
#446 = DIRECTION ( 'NONE',  ( 0.000000000000000000, 0.000000000000000000, 1.000000000000000000 ) ) ;
#447 = VERTEX_POINT ( 'NONE', #420 ) ;
#448 = APPROVAL_STATUS ( 'not_yet_approved' ) ;
#449 = DIRECTION ( 'NONE',  ( -1.000000000000000000, 0.000000000000000000, 0.000000000000000000 ) ) ;
#450 = ORIENTED_EDGE ( 'NONE', *, *, #103, .F. ) ;
#451 = CIRCLE ( 'NONE', #13, 6.500000000000005329 ) ;
#452 = CARTESIAN_POINT ( 'NONE',  ( -61.00000000000002842, 61.00000000000000000, -10.00000000000000000 ) ) ;
#453 = AXIS2_PLACEMENT_3D ( 'NONE', #115, #446, #80 ) ;
#454 = ORIENTED_EDGE ( 'NONE', *, *, #19, .F. ) ;
#455 = CYLINDRICAL_SURFACE ( 'NONE', #495, 6.500000000000005329 ) ;
#456 = ORIENTED_EDGE ( 'NONE', *, *, #348, .T. ) ;
#457 = CIRCLE ( 'NONE', #384, 6.500000000000026645 ) ;
#458 = CARTESIAN_POINT ( 'NONE',  ( 77.00000000000000000, -77.00000000000000000, 10.00000000000000000 ) ) ;
#459 = ADVANCED_FACE ( 'NONE', ( #468 ), #296, .F. ) ;
#460 = VERTEX_POINT ( 'NONE', #92 ) ;
#461 = EDGE_CURVE ( 'NONE', #295, #302, #387, .T. ) ;
#462 = DIRECTION ( 'NONE',  ( 0.000000000000000000, 1.000000000000000000, 0.000000000000000000 ) ) ;
#463 = DIRECTION ( 'NONE',  ( 0.000000000000000000, 0.000000000000000000, 1.000000000000000000 ) ) ;
#464 = AXIS2_PLACEMENT_3D ( 'NONE', #74, #530, #374 ) ;
#465 = LINE ( 'NONE', #171, #481 ) ;
#466 = ORIENTED_EDGE ( 'NONE', *, *, #345, .F. ) ;
#467 = EDGE_CURVE ( 'NONE', #6, #175, #383, .T. ) ;
#468 = FACE_OUTER_BOUND ( 'NONE', #173, .T. ) ;
#469 = ORIENTED_EDGE ( 'NONE', *, *, #205, .F. ) ;
#470 = DIRECTION ( 'NONE',  ( -1.000000000000000000, 0.000000000000000000, 0.000000000000000000 ) ) ;
#471 = VERTEX_POINT ( 'NONE', #131 ) ;
#472 = DIRECTION ( 'NONE',  ( 0.000000000000000000, -0.000000000000000000, -1.000000000000000000 ) ) ;
#473 = EDGE_CURVE ( 'NONE', #127, #137, #498, .T. ) ;
#474 = FACE_OUTER_BOUND ( 'NONE', #525, .T. ) ;
#475 = DIRECTION ( 'NONE',  ( -1.000000000000000000, 0.000000000000000000, -0.000000000000000000 ) ) ;
#476 = DIRECTION ( 'NONE',  ( 0.000000000000000000, 0.000000000000000000, 1.000000000000000000 ) ) ;
#477 = CARTESIAN_POINT ( 'NONE',  ( -77.00000000000000000, -77.00000000000000000, 10.00000000000000000 ) ) ;
#478 = PERSON_AND_ORGANIZATION ( #303, #143 ) ;
#479 = CARTESIAN_POINT ( 'NONE',  ( -77.00000000000000000, -77.00000000000000000, -10.00000000000000000 ) ) ;
#480 = ORIENTED_EDGE ( 'NONE', *, *, #491, .T. ) ;
#481 = VECTOR ( 'NONE', #128, 1000.000000000000000 ) ;
#482 = DIRECTION ( 'NONE',  ( 1.000000000000000000, 0.000000000000000000, 0.000000000000000000 ) ) ;
#483 = CARTESIAN_POINT ( 'NONE',  ( -54.50000000000000000, 61.00000000000000000, 10.00000000000000000 ) ) ;
#484 = EDGE_CURVE ( 'NONE', #81, #531, #465, .T. ) ;
#485 = PERSON_AND_ORGANIZATION ( #303, #143 ) ;
#486 = CARTESIAN_POINT ( 'NONE',  ( 61.00000000000002842, -61.00000000000001421, 10.00000000000000000 ) ) ;
#487 = VERTEX_POINT ( 'NONE', #88 ) ;
#488 = CALENDAR_DATE ( 2026, 28, 1 ) ;
#489 = LINE ( 'NONE', #202, #220 ) ;
#490 = ORIENTED_EDGE ( 'NONE', *, *, #151, .F. ) ;
#491 = EDGE_CURVE ( 'NONE', #531, #199, #17, .T. ) ;
#492 = CARTESIAN_POINT ( 'NONE',  ( 54.50000000000002132, -61.00000000000001421, 10.00000000000000000 ) ) ;
#493 = ORIENTED_EDGE ( 'NONE', *, *, #20, .T. ) ;
#494 = DIRECTION ( 'NONE',  ( 1.000000000000000000, 0.000000000000000000, 0.000000000000000000 ) ) ;
#495 = AXIS2_PLACEMENT_3D ( 'NONE', #378, #198, #118 ) ;
#496 = ORIENTED_EDGE ( 'NONE', *, *, #151, .T. ) ;
#497 = EDGE_CURVE ( 'NONE', #295, #238, #251, .T. ) ;
#498 = LINE ( 'NONE', #425, #237 ) ;
#499 = EDGE_CURVE ( 'NONE', #302, #222, #298, .T. ) ;
#500 = VERTEX_POINT ( 'NONE', #48 ) ;
#501 = AXIS2_PLACEMENT_3D ( 'NONE', #254, #209, #269 ) ;
#502 = CARTESIAN_POINT ( 'NONE',  ( 77.00000000000000000, -77.00000000000000000, 10.00000000000000000 ) ) ;
#503 = DIRECTION ( 'NONE',  ( 0.000000000000000000, 0.000000000000000000, 1.000000000000000000 ) ) ;
#504 = DIRECTION ( 'NONE',  ( -1.000000000000000000, 0.000000000000000000, 0.000000000000000000 ) ) ;
#505 = ORIENTED_EDGE ( 'NONE', *, *, #407, .F. ) ;
#506 = CIRCLE ( 'NONE', #148, 6.500000000000019540 ) ;
#507 = DIRECTION ( 'NONE',  ( -0.000000000000000000, -0.000000000000000000, -1.000000000000000000 ) ) ;
#508 = DIRECTION ( 'NONE',  ( -1.000000000000000000, 0.000000000000000000, 0.000000000000000000 ) ) ;
#509 = ORIENTED_EDGE ( 'NONE', *, *, #306, .T. ) ;
#510 = DIRECTION ( 'NONE',  ( 0.000000000000000000, 0.000000000000000000, 1.000000000000000000 ) ) ;
#511 =( NAMED_UNIT ( * ) PLANE_ANGLE_UNIT ( ) SI_UNIT ( $, .RADIAN. ) );
#512 = DIRECTION ( 'NONE',  ( 1.000000000000000000, 0.000000000000000000, 0.000000000000000000 ) ) ;
#513 = LOCAL_TIME ( 13, 25, 50.00000000000000000, #67 ) ;
#514 = DATE_AND_TIME ( #327, #357 ) ;
#515 = CARTESIAN_POINT ( 'NONE',  ( -77.00000000000000000, 77.00000000000000000, 10.00000000000000000 ) ) ;
#516 = ADVANCED_FACE ( 'NONE', ( #9 ), #340, .F. ) ;
#517 = VECTOR ( 'NONE', #54, 1000.000000000000000 ) ;
#518 = DATE_TIME_ROLE ( 'creation_date' ) ;
#519 = AXIS2_PLACEMENT_3D ( 'NONE', #232, #120, #246 ) ;
#520 = DIRECTION ( 'NONE',  ( -1.000000000000000000, 0.000000000000000000, 0.000000000000000000 ) ) ;
#521 = APPLICATION_CONTEXT ( 'configuration controlled 3d designs of mechanical parts and assemblies' ) ;
#522 = DIRECTION ( 'NONE',  ( -1.000000000000000000, 0.000000000000000000, 0.000000000000000000 ) ) ;
#523 = CARTESIAN_POINT ( 'NONE',  ( 0.000000000000000000, 0.000000000000000000, 0.000000000000000000 ) ) ;
#524 = CARTESIAN_POINT ( 'NONE',  ( 61.00000000000002842, 61.00000000000001421, -10.00000000000000000 ) ) ;
#525 = EDGE_LOOP ( 'NONE', ( #45, #263, #318, #201 ) ) ;
#526 =( NAMED_UNIT ( * ) SI_UNIT ( $, .STERADIAN. ) SOLID_ANGLE_UNIT ( ) );
#527 = AXIS2_PLACEMENT_3D ( 'NONE', #363, #439, #273 ) ;
#528 = VECTOR ( 'NONE', #291, 1000.000000000000000 ) ;
#529 = EDGE_CURVE ( 'NONE', #113, #447, #260, .T. ) ;
#530 = DIRECTION ( 'NONE',  ( 0.000000000000000000, 0.000000000000000000, 1.000000000000000000 ) ) ;
#531 = VERTEX_POINT ( 'NONE', #212 ) ;
#532 = CARTESIAN_POINT ( 'NONE',  ( 67.50000000000002842, 61.00000000000001421, -10.00000000000000000 ) ) ;
#533 = EDGE_LOOP ( 'NONE', ( #431, #37, #203, #197 ) ) ;
ENDSEC;
END-ISO-10303-21;
