ISO-10303-21;
HEADER;
FILE_DESCRIPTION (( 'STEP AP203' ),
    '1' );
FILE_NAME ('Cyl_hus_part_Default_sldprt.STEP',
    '2026-01-28T12:25:51',
    ( '' ),
    ( '' ),
    'SwSTEP 2.0',
    'SolidWorks 2024',
    '' );
FILE_SCHEMA (( 'CONFIG_CONTROL_DESIGN' ));
ENDSEC;

DATA;
#1 = CIRCLE ( 'NONE', #388, 17.50000000000000000 ) ;
#2 = ORIENTED_EDGE ( 'NONE', *, *, #188, .F. ) ;
#3 = DIRECTION ( 'NONE',  ( -0.000000000000000000, -0.000000000000000000, -1.000000000000000000 ) ) ;
#4 = ORIENTED_EDGE ( 'NONE', *, *, #14, .F. ) ;
#5 = EDGE_CURVE ( 'NONE', #248, #597, #478, .T. ) ;
#6 = ORIENTED_EDGE ( 'NONE', *, *, #659, .F. ) ;
#7 = DIRECTION ( 'NONE',  ( -1.000000000000000000, -1.850371707708595056E-16, 0.000000000000000000 ) ) ;
#8 = CARTESIAN_POINT ( 'NONE',  ( 0.000000000000000000, 40.00000000000003553, 0.000000000000000000 ) ) ;
#9 = AXIS2_PLACEMENT_3D ( 'NONE', #663, #482, #342 ) ;
#10 = VERTEX_POINT ( 'NONE', #265 ) ;
#11 = PLANE ( 'NONE',  #431 ) ;
#12 = DIRECTION ( 'NONE',  ( -0.000000000000000000, 1.000000000000000000, -0.000000000000000000 ) ) ;
#13 = ORIENTED_EDGE ( 'NONE', *, *, #402, .F. ) ;
#14 = EDGE_CURVE ( 'NONE', #420, #288, #129, .T. ) ;
#15 = CARTESIAN_POINT ( 'NONE',  ( -37.50000000000000711, 40.00000000000001421, -15.00000000000000000 ) ) ;
#16 = ORIENTED_EDGE ( 'NONE', *, *, #194, .F. ) ;
#17 = CARTESIAN_POINT ( 'NONE',  ( 35.50000000000007816, 40.00000000000004263, 12.08304597359428456 ) ) ;
#18 = DIRECTION ( 'NONE',  ( -1.220919748488075523E-16, 1.000000000000000000, -0.000000000000000000 ) ) ;
#19 = AXIS2_PLACEMENT_3D ( 'NONE', #89, #613, #740 ) ;
#20 = VECTOR ( 'NONE', #734, 1000.000000000000000 ) ;
#21 = EDGE_LOOP ( 'NONE', ( #599, #759 ) ) ;
#22 = CARTESIAN_POINT ( 'NONE',  ( 37.62860688426503941, 42.00000000000000000, 15.00000000000000000 ) ) ;
#23 = CARTESIAN_POINT ( 'NONE',  ( 45.62860688426503941, 42.00000000000000000, 15.00000000000000000 ) ) ;
#24 = CARTESIAN_POINT ( 'NONE',  ( -37.50000000000000711, 40.00000000000001421, 15.00000000000000000 ) ) ;
#25 = VERTEX_POINT ( 'NONE', #534 ) ;
#26 = CIRCLE ( 'NONE', #93, 37.49999999999998579 ) ;
#27 = FACE_OUTER_BOUND ( 'NONE', #528, .T. ) ;
#28 = COORDINATED_UNIVERSAL_TIME_OFFSET ( 1, 0, .AHEAD. ) ;
#29 = EDGE_LOOP ( 'NONE', ( #71, #654 ) ) ;
#30 = CARTESIAN_POINT ( 'NONE',  ( -32.49999999999991473, 171.9999999999999432, 0.000000000000000000 ) ) ;
#31 = ADVANCED_FACE ( 'NONE', ( #80 ), #739, .F. ) ;
#32 = DATE_AND_TIME ( #356, #223 ) ;
#33 = AXIS2_PLACEMENT_3D ( 'NONE', #451, #390, #582 ) ;
#34 = ORIENTED_EDGE ( 'NONE', *, *, #347, .F. ) ;
#35 = DIRECTION ( 'NONE',  ( 1.000000000000000000, 0.000000000000000000, -0.000000000000000000 ) ) ;
#36 = CARTESIAN_POINT ( 'NONE',  ( -9.583240110069336807E-15, 40.00000000000000711, 15.00000000000000000 ) ) ;
#37 = DIRECTION ( 'NONE',  ( 1.000000000000000000, 0.000000000000000000, 0.000000000000000000 ) ) ;
#38 = ORIENTED_EDGE ( 'NONE', *, *, #811, .F. ) ;
#39 = EDGE_CURVE ( 'NONE', #544, #248, #796, .T. ) ;
#40 = DIRECTION ( 'NONE',  ( 0.06417090780473200251, -0.9979389232771294083, 0.000000000000000000 ) ) ;
#41 = DIRECTION ( 'NONE',  ( -1.000000000000000000, 0.000000000000000000, 0.000000000000000000 ) ) ;
#42 = EDGE_LOOP ( 'NONE', ( #335, #672, #66, #185 ) ) ;
#43 = DIRECTION ( 'NONE',  ( -1.000000000000000000, -1.220919748488075523E-16, 0.000000000000000000 ) ) ;
#44 = EDGE_CURVE ( 'NONE', #705, #805, #1, .T. ) ;
#45 = CARTESIAN_POINT ( 'NONE',  ( 45.62860688426503941, 22.00000000000000000, 15.00000000000000000 ) ) ;
#46 = FACE_BOUND ( 'NONE', #572, .T. ) ;
#47 = EDGE_LOOP ( 'NONE', ( #623, #500, #123, #245 ) ) ;
#48 = CIRCLE ( 'NONE', #349, 37.49999999999977973 ) ;
#49 = FACE_OUTER_BOUND ( 'NONE', #650, .T. ) ;
#50 = LINE ( 'NONE', #180, #184 ) ;
#51 = FACE_OUTER_BOUND ( 'NONE', #635, .T. ) ;
#52 = EDGE_LOOP ( 'NONE', ( #676, #13 ) ) ;
#53 = CARTESIAN_POINT ( 'NONE',  ( -1.611614068004258181E-14, 171.9999999999999432, 0.000000000000000000 ) ) ;
#54 = CARTESIAN_POINT ( 'NONE',  ( 34.92786231469952440, -1.301042606982605321E-15, -15.00000000000000000 ) ) ;
#55 = ORIENTED_EDGE ( 'NONE', *, *, #69, .F. ) ;
#56 = DIRECTION ( 'NONE',  ( -1.220919748488075523E-16, 1.000000000000000000, -0.000000000000000000 ) ) ;
#57 = AXIS2_PLACEMENT_3D ( 'NONE', #768, #824, #644 ) ;
#58 = DIRECTION ( 'NONE',  ( -0.000000000000000000, 0.000000000000000000, -1.000000000000000000 ) ) ;
#59 = EDGE_LOOP ( 'NONE', ( #452, #79, #108, #318 ) ) ;
#60 = AXIS2_PLACEMENT_3D ( 'NONE', #708, #247, #777 ) ;
#61 = CARTESIAN_POINT ( 'NONE',  ( -8.326672684688674053E-14, 722.0000000000000000, 0.000000000000000000 ) ) ;
#62 = DIRECTION ( 'NONE',  ( -0.000000000000000000, -0.000000000000000000, -1.000000000000000000 ) ) ;
#63 = VECTOR ( 'NONE', #40, 1000.000000000000114 ) ;
#64 = VECTOR ( 'NONE', #629, 1000.000000000000114 ) ;
#65 = PRODUCT_DEFINITION_FORMATION_WITH_SPECIFIED_SOURCE ( 'ANY', '', #408, .NOT_KNOWN. ) ;
#66 = ORIENTED_EDGE ( 'NONE', *, *, #474, .F. ) ;
#67 = DIRECTION ( 'NONE',  ( -1.220919748488075523E-16, 1.000000000000000000, -0.000000000000000000 ) ) ;
#68 = DIRECTION ( 'NONE',  ( -1.220919748488075523E-16, 1.000000000000000000, -0.000000000000000000 ) ) ;
#69 = EDGE_CURVE ( 'NONE', #127, #213, #202, .T. ) ;
#70 = VECTOR ( 'NONE', #674, 1000.000000000000000 ) ;
#71 = ORIENTED_EDGE ( 'NONE', *, *, #132, .F. ) ;
#72 = CARTESIAN_POINT ( 'NONE',  ( 36.34253804161480161, 22.00000000000000000, -15.00000000000000000 ) ) ;
#73 = LINE ( 'NONE', #142, #566 ) ;
#74 = PRODUCT_RELATED_PRODUCT_CATEGORY ( 'detail', '', ( #408 ) ) ;
#75 = CARTESIAN_POINT ( 'NONE',  ( 35.49999999999998579, 722.0000000000000000, 12.08304597359400923 ) ) ;
#76 = DIRECTION ( 'NONE',  ( 1.000000000000000000, 1.220919748488075523E-16, -0.000000000000000000 ) ) ;
#77 = CIRCLE ( 'NONE', #254, 32.49999999999990052 ) ;
#78 = EDGE_CURVE ( 'NONE', #461, #288, #192, .T. ) ;
#79 = ORIENTED_EDGE ( 'NONE', *, *, #283, .T. ) ;
#80 = FACE_OUTER_BOUND ( 'NONE', #753, .T. ) ;
#81 = FACE_OUTER_BOUND ( 'NONE', #260, .T. ) ;
#82 = DATE_AND_TIME ( #174, #282 ) ;
#83 = EDGE_LOOP ( 'NONE', ( #842, #354, #209, #2, #398, #822, #297 ) ) ;
#84 = EDGE_CURVE ( 'NONE', #248, #516, #26, .T. ) ;
#85 = VECTOR ( 'NONE', #569, 1000.000000000000000 ) ;
#86 = CIRCLE ( 'NONE', #173, 35.00000000000000000 ) ;
#87 = DIRECTION ( 'NONE',  ( -1.220919748488075523E-16, 1.000000000000000000, -0.000000000000000000 ) ) ;
#88 = EDGE_LOOP ( 'NONE', ( #476, #331 ) ) ;
#89 = CARTESIAN_POINT ( 'NONE',  ( -4.973777466277251591E-15, 2.245981773165625750, -15.00000000000000000 ) ) ;
#90 = ADVANCED_FACE ( 'NONE', ( #204 ), #472, .F. ) ;
#91 = ORIENTED_EDGE ( 'NONE', *, *, #249, .F. ) ;
#92 = DIRECTION ( 'NONE',  ( -1.000000000000000000, 0.000000000000000000, 0.000000000000000000 ) ) ;
#93 = AXIS2_PLACEMENT_3D ( 'NONE', #8, #268, #799 ) ;
#94 = CARTESIAN_POINT ( 'NONE',  ( -4.973777466277251591E-15, 2.245981773165625750, 15.00000000000000000 ) ) ;
#95 = PERSON_AND_ORGANIZATION_ROLE ( 'classification_officer' ) ;
#96 = PRODUCT_DEFINITION ( 'UNKNOWN', '', #65, #212 ) ;
#97 = APPROVAL_STATUS ( 'not_yet_approved' ) ;
#98 = VERTEX_POINT ( 'NONE', #326 ) ;
#99 = LINE ( 'NONE', #159, #846 ) ;
#100 = CIRCLE ( 'NONE', #346, 37.49999999999998579 ) ;
#101 = EDGE_CURVE ( 'NONE', #367, #784, #593, .T. ) ;
#102 = APPROVAL_ROLE ( '' ) ;
#103 = CIRCLE ( 'NONE', #238, 37.49999999999987921 ) ;
#104 = ORIENTED_EDGE ( 'NONE', *, *, #828, .F. ) ;
#105 = FACE_BOUND ( 'NONE', #52, .T. ) ;
#106 = PLANE ( 'NONE',  #373 ) ;
#107 = CARTESIAN_POINT ( 'NONE',  ( 0.000000000000000000, 0.000000000000000000, -15.00000000000000000 ) ) ;
#108 = ORIENTED_EDGE ( 'NONE', *, *, #402, .T. ) ;
#109 = EDGE_CURVE ( 'NONE', #256, #666, #792, .T. ) ;
#110 = FACE_OUTER_BOUND ( 'NONE', #732, .T. ) ;
#111 = DIRECTION ( 'NONE',  ( -0.000000000000000000, -0.000000000000000000, -1.000000000000000000 ) ) ;
#112 = DIRECTION ( 'NONE',  ( -0.06417090780473200251, 0.9979389232771294083, 0.000000000000000000 ) ) ;
#113 = ORIENTED_EDGE ( 'NONE', *, *, #638, .T. ) ;
#114 = DIRECTION ( 'NONE',  ( 1.000000000000000000, -0.000000000000000000, -0.000000000000000000 ) ) ;
#115 = VERTEX_POINT ( 'NONE', #401 ) ;
#116 = CARTESIAN_POINT ( 'NONE',  ( 35.49999999999998579, 42.00000000000000000, 15.00000000000000000 ) ) ;
#117 = LINE ( 'NONE', #789, #306 ) ;
#118 = ORIENTED_EDGE ( 'NONE', *, *, #614, .F. ) ;
#119 = VECTOR ( 'NONE', #738, 1000.000000000000000 ) ;
#120 = CARTESIAN_POINT ( 'NONE',  ( -37.50000000000000711, 40.00000000000001421, 15.00000000000000000 ) ) ;
#121 = FACE_OUTER_BOUND ( 'NONE', #21, .T. ) ;
#122 = CARTESIAN_POINT ( 'NONE',  ( 12.50000000000000888, 1.530808498934192705E-15, 15.00000000000000000 ) ) ;
#123 = ORIENTED_EDGE ( 'NONE', *, *, #280, .F. ) ;
#124 = DIRECTION ( 'NONE',  ( 1.000000000000000000, 9.505334114941410982E-17, 0.000000000000000000 ) ) ;
#125 = DIRECTION ( 'NONE',  ( -0.9979389232771295193, 0.06417090780473247436, 0.000000000000000000 ) ) ;
#126 = VECTOR ( 'NONE', #76, 1000.000000000000000 ) ;
#127 = VERTEX_POINT ( 'NONE', #589 ) ;
#128 = FACE_OUTER_BOUND ( 'NONE', #404, .T. ) ;
#129 = LINE ( 'NONE', #670, #813 ) ;
#130 = DIRECTION ( 'NONE',  ( -1.000000000000000000, 0.000000000000000000, 0.000000000000000000 ) ) ;
#131 = ORIENTED_EDGE ( 'NONE', *, *, #166, .T. ) ;
#132 = EDGE_CURVE ( 'NONE', #826, #10, #729, .T. ) ;
#133 = AXIS2_PLACEMENT_3D ( 'NONE', #803, #684, #348 ) ;
#134 = LINE ( 'NONE', #851, #669 ) ;
#135 = EDGE_LOOP ( 'NONE', ( #587, #195 ) ) ;
#136 = ORIENTED_EDGE ( 'NONE', *, *, #257, .F. ) ;
#137 = EDGE_CURVE ( 'NONE', #832, #367, #73, .T. ) ;
#138 = CARTESIAN_POINT ( 'NONE',  ( -8.204580709839866486E-14, 712.0000000000000000, 0.000000000000000000 ) ) ;
#139 = CARTESIAN_POINT ( 'NONE',  ( 36.34253804161480161, 22.00000000000000000, -15.00000000000000000 ) ) ;
#140 = ORIENTED_EDGE ( 'NONE', *, *, #143, .T. ) ;
#141 = DIRECTION ( 'NONE',  ( -0.000000000000000000, -0.000000000000000000, -1.000000000000000000 ) ) ;
#142 = CARTESIAN_POINT ( 'NONE',  ( 45.62860688426503941, 42.00000000000000000, 15.00000000000000000 ) ) ;
#143 = EDGE_CURVE ( 'NONE', #288, #10, #207, .T. ) ;
#144 = ORIENTED_EDGE ( 'NONE', *, *, #381, .F. ) ;
#145 = DIRECTION ( 'NONE',  ( -1.220919748488075523E-16, 1.000000000000000000, -0.000000000000000000 ) ) ;
#146 = ORIENTED_EDGE ( 'NONE', *, *, #830, .T. ) ;
#147 = CC_DESIGN_DATE_AND_TIME_ASSIGNMENT ( #762, #161, ( #96 ) ) ;
#148 = APPLICATION_CONTEXT ( 'configuration controlled 3d designs of mechanical parts and assemblies' ) ;
#149 = VERTEX_POINT ( 'NONE', #546 ) ;
#150 = FACE_OUTER_BOUND ( 'NONE', #379, .T. ) ;
#151 = EDGE_LOOP ( 'NONE', ( #6, #642, #203 ) ) ;
#152 = VECTOR ( 'NONE', #601, 1000.000000000000000 ) ;
#153 = FACE_OUTER_BOUND ( 'NONE', #225, .T. ) ;
#154 =( NAMED_UNIT ( * ) PLANE_ANGLE_UNIT ( ) SI_UNIT ( $, .RADIAN. ) );
#155 = EDGE_CURVE ( 'NONE', #826, #819, #483, .T. ) ;
#156 = LOCAL_TIME ( 13, 25, 51.00000000000000000, #28 ) ;
#157 = DIRECTION ( 'NONE',  ( 0.000000000000000000, 0.000000000000000000, -1.000000000000000000 ) ) ;
#158 = ORIENTED_EDGE ( 'NONE', *, *, #143, .F. ) ;
#159 = CARTESIAN_POINT ( 'NONE',  ( 45.62860688426503941, 22.00000000000000000, 15.00000000000000000 ) ) ;
#160 = EDGE_CURVE ( 'NONE', #856, #25, #583, .T. ) ;
#161 = DATE_TIME_ROLE ( 'creation_date' ) ;
#162 = VERTEX_POINT ( 'NONE', #339 ) ;
#163 = CARTESIAN_POINT ( 'NONE',  ( 35.49999999999998579, 42.00000000000000000, -15.00000000000000000 ) ) ;
#164 = SHAPE_DEFINITION_REPRESENTATION ( #375, #329 ) ;
#165 = ADVANCED_FACE ( 'NONE', ( #150 ), #413, .F. ) ;
#166 = EDGE_CURVE ( 'NONE', #856, #685, #518, .T. ) ;
#167 = PERSON_AND_ORGANIZATION ( #214, #324 ) ;
#168 = ORIENTED_EDGE ( 'NONE', *, *, #788, .T. ) ;
#169 = LINE ( 'NONE', #564, #612 ) ;
#170 = VECTOR ( 'NONE', #648, 1000.000000000000000 ) ;
#171 = CARTESIAN_POINT ( 'NONE',  ( 17.49999999999991829, 722.0000000000000000, 2.143131898507868248E-15 ) ) ;
#172 = CIRCLE ( 'NONE', #19, 35.00000000000000000 ) ;
#173 = AXIS2_PLACEMENT_3D ( 'NONE', #664, #780, #453 ) ;
#174 = CALENDAR_DATE ( 2026, 28, 1 ) ;
#175 = VERTEX_POINT ( 'NONE', #844 ) ;
#176 = LINE ( 'NONE', #700, #64 ) ;
#177 = LINE ( 'NONE', #445, #170 ) ;
#178 = ORIENTED_EDGE ( 'NONE', *, *, #132, .T. ) ;
#179 = DIRECTION ( 'NONE',  ( -1.000000000000000000, 0.000000000000000000, 0.000000000000000000 ) ) ;
#180 = CARTESIAN_POINT ( 'NONE',  ( 37.62860688426503941, 42.00000000000000000, -15.00000000000000000 ) ) ;
#181 = VERTEX_POINT ( 'NONE', #515 ) ;
#182 = FACE_OUTER_BOUND ( 'NONE', #742, .T. ) ;
#183 = CARTESIAN_POINT ( 'NONE',  ( 37.49999999999987921, 42.00000000000003553, 4.592425496802564900E-15 ) ) ;
#184 = VECTOR ( 'NONE', #702, 1000.000000000000000 ) ;
#185 = ORIENTED_EDGE ( 'NONE', *, *, #261, .T. ) ;
#186 = AXIS2_PLACEMENT_3D ( 'NONE', #271, #470, #673 ) ;
#187 = CARTESIAN_POINT ( 'NONE',  ( -37.49999999999985789, 722.0000000000000000, 0.000000000000000000 ) ) ;
#188 = EDGE_CURVE ( 'NONE', #784, #149, #510, .T. ) ;
#189 = DIRECTION ( 'NONE',  ( 1.000000000000000000, 1.220919748488075523E-16, 0.000000000000000000 ) ) ;
#190 = ORIENTED_EDGE ( 'NONE', *, *, #514, .F. ) ;
#191 = FACE_OUTER_BOUND ( 'NONE', #717, .T. ) ;
#192 = LINE ( 'NONE', #526, #315 ) ;
#193 = VECTOR ( 'NONE', #604, 1000.000000000000000 ) ;
#194 = EDGE_CURVE ( 'NONE', #832, #284, #439, .T. ) ;
#195 = ORIENTED_EDGE ( 'NONE', *, *, #436, .T. ) ;
#196 = CARTESIAN_POINT ( 'NONE',  ( -37.50000000000000711, 40.00000000000001421, 15.00000000000000000 ) ) ;
#197 = CARTESIAN_POINT ( 'NONE',  ( -34.92786231469953151, 1.474514954580286030E-14, 15.00000000000000000 ) ) ;
#198 = ADVANCED_FACE ( 'NONE', ( #382 ), #304, .F. ) ;
#199 = AXIS2_PLACEMENT_3D ( 'NONE', #298, #695, #444 ) ;
#200 = LINE ( 'NONE', #412, #119 ) ;
#201 = PLANE ( 'NONE',  #362 ) ;
#202 = LINE ( 'NONE', #197, #490 ) ;
#203 = ORIENTED_EDGE ( 'NONE', *, *, #39, .F. ) ;
#204 = FACE_OUTER_BOUND ( 'NONE', #858, .T. ) ;
#205 = ORIENTED_EDGE ( 'NONE', *, *, #807, .T. ) ;
#206 = CYLINDRICAL_SURFACE ( 'NONE', #9, 37.49999999999987921 ) ;
#207 = LINE ( 'NONE', #211, #193 ) ;
#208 = PLANE ( 'NONE',  #252 ) ;
#209 = ORIENTED_EDGE ( 'NONE', *, *, #227, .T. ) ;
#210 = AXIS2_PLACEMENT_3D ( 'NONE', #94, #289, #35 ) ;
#211 = CARTESIAN_POINT ( 'NONE',  ( -37.50000000000000711, 40.00000000000001421, -15.00000000000000000 ) ) ;
#212 = DESIGN_CONTEXT ( 'detailed design', #579, 'design' ) ;
#213 = VERTEX_POINT ( 'NONE', #565 ) ;
#214 = PERSON ( 'UNSPECIFIED', 'UNSPECIFIED', 'UNSPECIFIED', ('UNSPECIFIED'), ('UNSPECIFIED'), ('UNSPECIFIED') ) ;
#215 = DIRECTION ( 'NONE',  ( -1.220919748488075523E-16, 1.000000000000000000, -0.000000000000000000 ) ) ;
#216 = ADVANCED_FACE ( 'NONE', ( #121 ), #106, .T. ) ;
#217 = DIRECTION ( 'NONE',  ( -1.000000000000000000, -9.505334114941410982E-17, -0.000000000000000000 ) ) ;
#218 = DIRECTION ( 'NONE',  ( -1.000000000000000000, -1.850371707708595056E-16, 0.000000000000000000 ) ) ;
#219 = CC_DESIGN_PERSON_AND_ORGANIZATION_ASSIGNMENT ( #551, #414, ( #65 ) ) ;
#220 = VERTEX_POINT ( 'NONE', #840 ) ;
#221 = VECTOR ( 'NONE', #624, 1000.000000000000000 ) ;
#222 = CIRCLE ( 'NONE', #467, 32.49999999999990052 ) ;
#223 = LOCAL_TIME ( 13, 25, 51.00000000000000000, #697 ) ;
#224 = CARTESIAN_POINT ( 'NONE',  ( 36.34253804161480161, 22.00000000000000000, 15.00000000000000000 ) ) ;
#225 = EDGE_LOOP ( 'NONE', ( #790, #144, #371 ) ) ;
#226 = UNCERTAINTY_MEASURE_WITH_UNIT (LENGTH_MEASURE( 1.000000000000000082E-05 ), #434, 'distance_accuracy_value', 'NONE');
#227 = EDGE_CURVE ( 'NONE', #308, #149, #464, .T. ) ;
#228 = LINE ( 'NONE', #498, #521 ) ;
#229 = ORIENTED_EDGE ( 'NONE', *, *, #283, .F. ) ;
#230 = CARTESIAN_POINT ( 'NONE',  ( 32.49999999999982236, 712.0000000000000000, 3.980102097228886004E-15 ) ) ;
#231 = EDGE_CURVE ( 'NONE', #10, #826, #359, .T. ) ;
#232 = PLANE ( 'NONE',  #535 ) ;
#233 = COORDINATED_UNIVERSAL_TIME_OFFSET ( 1, 0, .AHEAD. ) ;
#234 = ORIENTED_EDGE ( 'NONE', *, *, #836, .T. ) ;
#235 = CARTESIAN_POINT ( 'NONE',  ( 0.000000000000000000, 40.00000000000003553, 0.000000000000000000 ) ) ;
#236 = CARTESIAN_POINT ( 'NONE',  ( 35.49999999999998579, 40.00000000000002132, -15.00000000000000000 ) ) ;
#237 = CIRCLE ( 'NONE', #394, 37.49999999999998579 ) ;
#238 = AXIS2_PLACEMENT_3D ( 'NONE', #750, #553, #157 ) ;
#239 = VERTEX_POINT ( 'NONE', #454 ) ;
#240 = VECTOR ( 'NONE', #772, 1000.000000000000114 ) ;
#241 = DIRECTION ( 'NONE',  ( -1.000000000000000000, -1.220919748488075523E-16, 0.000000000000000000 ) ) ;
#242 = CARTESIAN_POINT ( 'NONE',  ( 35.49999999999998579, 42.00000000000000000, 15.00000000000000000 ) ) ;
#243 = ADVANCED_FACE ( 'NONE', ( #773 ), #232, .F. ) ;
#244 = DIRECTION ( 'NONE',  ( -1.000000000000000000, 0.000000000000000000, 0.000000000000000000 ) ) ;
#245 = ORIENTED_EDGE ( 'NONE', *, *, #446, .F. ) ;
#246 = PLANE ( 'NONE',  #210 ) ;
#247 = DIRECTION ( 'NONE',  ( -1.220919748488075523E-16, 1.000000000000000000, -0.000000000000000000 ) ) ;
#248 = VERTEX_POINT ( 'NONE', #316 ) ;
#249 = EDGE_CURVE ( 'NONE', #848, #420, #50, .T. ) ;
#250 = CARTESIAN_POINT ( 'NONE',  ( -8.326672684688674053E-14, 722.0000000000000000, 0.000000000000000000 ) ) ;
#251 = CARTESIAN_POINT ( 'NONE',  ( -32.49999999999991473, 171.9999999999999432, 0.000000000000000000 ) ) ;
#252 = AXIS2_PLACEMENT_3D ( 'NONE', #276, #671, #675 ) ;
#253 = ORIENTED_EDGE ( 'NONE', *, *, #78, .F. ) ;
#254 = AXIS2_PLACEMENT_3D ( 'NONE', #770, #378, #244 ) ;
#255 = CARTESIAN_POINT ( 'NONE',  ( -8.326672684688674053E-14, 722.0000000000000000, 0.000000000000000000 ) ) ;
#256 = VERTEX_POINT ( 'NONE', #54 ) ;
#257 = EDGE_CURVE ( 'NONE', #263, #456, #177, .T. ) ;
#258 = VERTEX_POINT ( 'NONE', #634 ) ;
#259 = DIRECTION ( 'NONE',  ( -1.000000000000000000, 0.000000000000000000, 0.000000000000000000 ) ) ;
#260 = EDGE_LOOP ( 'NONE', ( #292, #190, #626 ) ) ;
#261 = EDGE_CURVE ( 'NONE', #541, #256, #310, .T. ) ;
#262 = AXIS2_PLACEMENT_3D ( 'NONE', #714, #586, #41 ) ;
#263 = VERTEX_POINT ( 'NONE', #251 ) ;
#264 = CYLINDRICAL_SURFACE ( 'NONE', #550, 37.49999999999987921 ) ;
#265 = CARTESIAN_POINT ( 'NONE',  ( 34.36931771216876541, 40.00000000000004263, -15.00000000000004263 ) ) ;
#266 = ORIENTED_EDGE ( 'NONE', *, *, #614, .T. ) ;
#267 = CARTESIAN_POINT ( 'NONE',  ( -37.50000000000000711, 40.00000000000001421, 15.00000000000000000 ) ) ;
#268 = DIRECTION ( 'NONE',  ( -1.220919748488075523E-16, 1.000000000000000000, -0.000000000000000000 ) ) ;
#269 = AXIS2_PLACEMENT_3D ( 'NONE', #622, #87, #693 ) ;
#270 = ORIENTED_EDGE ( 'NONE', *, *, #69, .T. ) ;
#271 = CARTESIAN_POINT ( 'NONE',  ( 0.000000000000000000, 40.00000000000003553, 0.000000000000000000 ) ) ;
#272 = DIRECTION ( 'NONE',  ( 0.000000000000000000, -1.000000000000000000, 0.000000000000000000 ) ) ;
#273 = VECTOR ( 'NONE', #111, 1000.000000000000000 ) ;
#274 = DIRECTION ( 'NONE',  ( 1.220919748488075523E-16, -1.000000000000000000, 0.000000000000000000 ) ) ;
#275 = DIRECTION ( 'NONE',  ( 0.000000000000000000, 0.000000000000000000, 1.000000000000000000 ) ) ;
#276 = CARTESIAN_POINT ( 'NONE',  ( -1.126679203540920095E-30, 40.00000000000000711, 0.000000000000000000 ) ) ;
#277 = ORIENTED_EDGE ( 'NONE', *, *, #486, .F. ) ;
#278 = LINE ( 'NONE', #810, #484 ) ;
#279 = AXIS2_PLACEMENT_3D ( 'NONE', #61, #448, #723 ) ;
#280 = EDGE_CURVE ( 'NONE', #220, #797, #719, .T. ) ;
#281 = SECURITY_CLASSIFICATION_LEVEL ( 'unclassified' ) ;
#282 = LOCAL_TIME ( 13, 25, 51.00000000000000000, #233 ) ;
#283 = EDGE_CURVE ( 'NONE', #805, #98, #370, .T. ) ;
#284 = VERTEX_POINT ( 'NONE', #829 ) ;
#285 = PLANE ( 'NONE',  #655 ) ;
#286 = EDGE_LOOP ( 'NONE', ( #140, #427, #756 ) ) ;
#287 = PERSON_AND_ORGANIZATION ( #214, #324 ) ;
#288 = VERTEX_POINT ( 'NONE', #236 ) ;
#289 = DIRECTION ( 'NONE',  ( 0.000000000000000000, 0.000000000000000000, 1.000000000000000000 ) ) ;
#290 = AXIS2_PLACEMENT_3D ( 'NONE', #107, #758, #680 ) ;
#291 = CARTESIAN_POINT ( 'NONE',  ( 0.000000000000000000, 0.000000000000000000, 0.000000000000000000 ) ) ;
#292 = ORIENTED_EDGE ( 'NONE', *, *, #280, .T. ) ;
#293 = LINE ( 'NONE', #823, #85 ) ;
#294 = APPROVAL_STATUS ( 'not_yet_approved' ) ;
#295 = CARTESIAN_POINT ( 'NONE',  ( 35.49999999999998579, 40.00000000000002132, 15.00000000000000000 ) ) ;
#296 = APPROVAL_ROLE ( '' ) ;
#297 = ORIENTED_EDGE ( 'NONE', *, *, #249, .T. ) ;
#298 = CARTESIAN_POINT ( 'NONE',  ( 0.000000000000000000, 0.000000000000000000, 15.00000000000000000 ) ) ;
#299 = DIRECTION ( 'NONE',  ( -0.000000000000000000, -0.000000000000000000, -1.000000000000000000 ) ) ;
#300 = ORIENTED_EDGE ( 'NONE', *, *, #480, .T. ) ;
#301 = DIRECTION ( 'NONE',  ( -1.220919748488075523E-16, 1.000000000000000000, 0.000000000000000000 ) ) ;
#302 = CALENDAR_DATE ( 2026, 28, 1 ) ;
#303 = EDGE_CURVE ( 'NONE', #597, #162, #321, .T. ) ;
#304 = PLANE ( 'NONE',  #691 ) ;
#305 = CIRCLE ( 'NONE', #741, 17.50000000000000000 ) ;
#306 = VECTOR ( 'NONE', #855, 1000.000000000000000 ) ;
#307 = APPROVAL_PERSON_ORGANIZATION ( #508, #547, #767 ) ;
#308 = VERTEX_POINT ( 'NONE', #183 ) ;
#309 = CYLINDRICAL_SURFACE ( 'NONE', #621, 12.50000000000000888 ) ;
#310 = LINE ( 'NONE', #503, #668 ) ;
#311 = APPROVAL ( #426, 'UNSPECIFIED' ) ;
#312 = CARTESIAN_POINT ( 'NONE',  ( -37.50000000000000711, 40.00000000000001421, 15.00000000000000000 ) ) ;
#313 = ORIENTED_EDGE ( 'NONE', *, *, #692, .T. ) ;
#314 = FACE_OUTER_BOUND ( 'NONE', #151, .T. ) ;
#315 = VECTOR ( 'NONE', #735, 1000.000000000000000 ) ;
#316 = CARTESIAN_POINT ( 'NONE',  ( -37.50000000000000711, 40.00000000000002842, 0.000000000000000000 ) ) ;
#317 = FACE_OUTER_BOUND ( 'NONE', #537, .T. ) ;
#318 = ORIENTED_EDGE ( 'NONE', *, *, #480, .F. ) ;
#319 = EDGE_CURVE ( 'NONE', #516, #115, #449, .T. ) ;
#320 = CARTESIAN_POINT ( 'NONE',  ( -37.50000000000000711, 40.00000000000001421, 15.00000000000000000 ) ) ;
#321 = CIRCLE ( 'NONE', #60, 37.49999999999977973 ) ;
#322 = CARTESIAN_POINT ( 'NONE',  ( 35.49999999999998579, 42.00000000000003553, -12.08304597359425259 ) ) ;
#323 = ORIENTED_EDGE ( 'NONE', *, *, #706, .F. ) ;
#324 = ORGANIZATION ( 'UNSPECIFIED', 'UNSPECIFIED', '' ) ;
#325 = DIRECTION ( 'NONE',  ( -1.220919748488075523E-16, 1.000000000000000000, -0.000000000000000000 ) ) ;
#326 = CARTESIAN_POINT ( 'NONE',  ( 17.49999999999991829, 722.0000000000000000, 2.143131898507868248E-15 ) ) ;
#327 = CC_DESIGN_APPROVAL ( #511, ( #65 ) ) ;
#328 = ORIENTED_EDGE ( 'NONE', *, *, #678, .F. ) ;
#329 = ADVANCED_BREP_SHAPE_REPRESENTATION ( 'Cyl_hus_part_Default_sldprt', ( #410, #696 ), #590 ) ;
#330 = DIRECTION ( 'NONE',  ( -0.000000000000000000, -0.000000000000000000, -1.000000000000000000 ) ) ;
#331 = ORIENTED_EDGE ( 'NONE', *, *, #411, .F. ) ;
#332 = ORIENTED_EDGE ( 'NONE', *, *, #166, .F. ) ;
#333 = DIRECTION ( 'NONE',  ( -1.220919748488075523E-16, 1.000000000000000000, -0.000000000000000000 ) ) ;
#334 = CARTESIAN_POINT ( 'NONE',  ( -37.50000000000000711, 40.00000000000001421, 15.00000000000000000 ) ) ;
#335 = ORIENTED_EDGE ( 'NONE', *, *, #109, .T. ) ;
#336 = DIRECTION ( 'NONE',  ( 0.000000000000000000, 0.000000000000000000, 1.000000000000000000 ) ) ;
#337 = VECTOR ( 'NONE', #330, 1000.000000000000000 ) ;
#338 = ORIENTED_EDGE ( 'NONE', *, *, #457, .T. ) ;
#339 = CARTESIAN_POINT ( 'NONE',  ( 37.49999999999969447, 722.0000000000000000, 4.592425496802553856E-15 ) ) ;
#340 = DIRECTION ( 'NONE',  ( 9.505334114941410982E-17, -1.000000000000000000, 0.000000000000000000 ) ) ;
#341 = ORIENTED_EDGE ( 'NONE', *, *, #227, .F. ) ;
#342 = DIRECTION ( 'NONE',  ( -1.000000000000000000, 0.000000000000000000, 0.000000000000000000 ) ) ;
#343 = ADVANCED_FACE ( 'NONE', ( #153 ), #754, .F. ) ;
#344 = CARTESIAN_POINT ( 'NONE',  ( -37.50000000000000711, 40.00000000000001421, 15.00000000000000000 ) ) ;
#345 = ORIENTED_EDGE ( 'NONE', *, *, #261, .F. ) ;
#346 = AXIS2_PLACEMENT_3D ( 'NONE', #607, #18, #218 ) ;
#347 = EDGE_CURVE ( 'NONE', #213, #256, #172, .T. ) ;
#348 = DIRECTION ( 'NONE',  ( 1.000000000000000000, 9.505334114941410982E-17, 0.000000000000000000 ) ) ;
#349 = AXIS2_PLACEMENT_3D ( 'NONE', #477, #145, #606 ) ;
#350 = ORIENTED_EDGE ( 'NONE', *, *, #798, .F. ) ;
#351 = DIRECTION ( 'NONE',  ( -1.220919748488075523E-16, 1.000000000000000000, -0.000000000000000000 ) ) ;
#352 = AXIS2_PLACEMENT_3D ( 'NONE', #405, #543, #852 ) ;
#353 = CARTESIAN_POINT ( 'NONE',  ( -34.36931771216876541, 40.00000000000002842, -15.00000000000004263 ) ) ;
#354 = ORIENTED_EDGE ( 'NONE', *, *, #811, .T. ) ;
#355 = DIRECTION ( 'NONE',  ( -1.220919748488075523E-16, 1.000000000000000000, -0.000000000000000000 ) ) ;
#356 = CALENDAR_DATE ( 2026, 28, 1 ) ;
#357 = CARTESIAN_POINT ( 'NONE',  ( -37.50000000000000711, 40.00000000000001421, -15.00000000000000000 ) ) ;
#358 = ORIENTED_EDGE ( 'NONE', *, *, #303, .F. ) ;
#359 = CIRCLE ( 'NONE', #57, 37.49999999999998579 ) ;
#360 = AXIS2_PLACEMENT_3D ( 'NONE', #578, #686, #43 ) ;
#361 = LINE ( 'NONE', #369, #221 ) ;
#362 = AXIS2_PLACEMENT_3D ( 'NONE', #320, #718, #124 ) ;
#363 = CALENDAR_DATE ( 2026, 28, 1 ) ;
#364 = ORIENTED_EDGE ( 'NONE', *, *, #44, .F. ) ;
#365 = CARTESIAN_POINT ( 'NONE',  ( 35.49999999999998579, 40.00000000000003553, -12.08304597359425259 ) ) ;
#366 = DIRECTION ( 'NONE',  ( 1.220919748488075523E-16, -1.000000000000000000, 0.000000000000000000 ) ) ;
#367 = VERTEX_POINT ( 'NONE', #23 ) ;
#368 = ADVANCED_FACE ( 'NONE', ( #479 ), #208, .T. ) ;
#369 = CARTESIAN_POINT ( 'NONE',  ( 35.49999999999998579, 42.00000000000000000, 15.00000000000000000 ) ) ;
#370 = LINE ( 'NONE', #171, #730 ) ;
#371 = ORIENTED_EDGE ( 'NONE', *, *, #155, .T. ) ;
#372 = DIRECTION ( 'NONE',  ( -0.000000000000000000, -0.000000000000000000, -1.000000000000000000 ) ) ;
#373 = AXIS2_PLACEMENT_3D ( 'NONE', #581, #366, #189 ) ;
#374 = ADVANCED_FACE ( 'NONE', ( #81 ), #285, .F. ) ;
#375 = PRODUCT_DEFINITION_SHAPE ( 'NONE', 'NONE',  #96 ) ;
#376 = DIRECTION ( 'NONE',  ( 1.000000000000000000, 0.000000000000000000, -0.000000000000000000 ) ) ;
#377 = VECTOR ( 'NONE', #417, 1000.000000000000000 ) ;
#378 = DIRECTION ( 'NONE',  ( -1.220919748488075523E-16, 1.000000000000000000, -0.000000000000000000 ) ) ;
#379 = EDGE_LOOP ( 'NONE', ( #391, #386, #104, #332 ) ) ;
#380 = DIRECTION ( 'NONE',  ( -1.000000000000000000, 0.000000000000000000, 0.000000000000000000 ) ) ;
#381 = EDGE_CURVE ( 'NONE', #826, #248, #100, .T. ) ;
#382 = FACE_OUTER_BOUND ( 'NONE', #42, .T. ) ;
#383 = EDGE_CURVE ( 'NONE', #461, #10, #237, .T. ) ;
#384 = ADVANCED_FACE ( 'NONE', ( #27 ), #556, .T. ) ;
#385 = PLANE ( 'NONE',  #743 ) ;
#386 = ORIENTED_EDGE ( 'NONE', *, *, #746, .T. ) ;
#387 = CARTESIAN_POINT ( 'NONE',  ( -8.326672684688674053E-14, 722.0000000000000000, 0.000000000000000000 ) ) ;
#388 = AXIS2_PLACEMENT_3D ( 'NONE', #393, #540, #802 ) ;
#389 = DIRECTION ( 'NONE',  ( 0.000000000000000000, 0.000000000000000000, -1.000000000000000000 ) ) ;
#390 = DIRECTION ( 'NONE',  ( 0.000000000000000000, 0.000000000000000000, 1.000000000000000000 ) ) ;
#391 = ORIENTED_EDGE ( 'NONE', *, *, #160, .T. ) ;
#392 = CARTESIAN_POINT ( 'NONE',  ( -8.326672684688674053E-14, 722.0000000000000000, 0.000000000000000000 ) ) ;
#393 = CARTESIAN_POINT ( 'NONE',  ( -8.204580709839866486E-14, 712.0000000000000000, 0.000000000000000000 ) ) ;
#394 = AXIS2_PLACEMENT_3D ( 'NONE', #492, #351, #616 ) ;
#395 = ORIENTED_EDGE ( 'NONE', *, *, #468, .T. ) ;
#396 = AXIS2_PLACEMENT_3D ( 'NONE', #250, #520, #795 ) ;
#397 = FACE_OUTER_BOUND ( 'NONE', #59, .T. ) ;
#398 = ORIENTED_EDGE ( 'NONE', *, *, #101, .F. ) ;
#399 = ORIENTED_EDGE ( 'NONE', *, *, #474, .T. ) ;
#400 = LINE ( 'NONE', #600, #337 ) ;
#401 = CARTESIAN_POINT ( 'NONE',  ( 34.36931771216876541, 40.00000000000004263, 15.00000000000004263 ) ) ;
#402 = EDGE_CURVE ( 'NONE', #98, #239, #305, .T. ) ;
#403 = VECTOR ( 'NONE', #68, 1000.000000000000000 ) ;
#404 = EDGE_LOOP ( 'NONE', ( #562, #38, #350, #800, #763, #838, #631, #512 ) ) ;
#405 = CARTESIAN_POINT ( 'NONE',  ( 45.62860688426503941, 42.00000000000000000, 15.00000000000000000 ) ) ;
#406 = ADVANCED_FACE ( 'NONE', ( #559, #820 ), #246, .T. ) ;
#407 = EDGE_CURVE ( 'NONE', #666, #284, #228, .T. ) ;
#408 = PRODUCT ( 'Cyl_hus_part_Default_sldprt', 'Cyl_hus_part_Default_sldprt', '', ( #493 ) ) ;
#409 = ORIENTED_EDGE ( 'NONE', *, *, #747, .F. ) ;
#410 = MANIFOLD_SOLID_BREP ( 'Revolve1', #489 ) ;
#411 = EDGE_CURVE ( 'NONE', #25, #856, #573, .T. ) ;
#412 = CARTESIAN_POINT ( 'NONE',  ( 32.49999999999982236, 722.0000000000000000, 3.980102097228886004E-15 ) ) ;
#413 = CYLINDRICAL_SURFACE ( 'NONE', #262, 12.50000000000000888 ) ;
#414 = PERSON_AND_ORGANIZATION_ROLE ( 'creator' ) ;
#415 = ORIENTED_EDGE ( 'NONE', *, *, #683, .F. ) ;
#416 = ADVANCED_FACE ( 'NONE', ( #636 ), #309, .F. ) ;
#417 = DIRECTION ( 'NONE',  ( -0.000000000000000000, -0.000000000000000000, -1.000000000000000000 ) ) ;
#418 = VECTOR ( 'NONE', #141, 1000.000000000000000 ) ;
#419 = CARTESIAN_POINT ( 'NONE',  ( -12.50000000000000888, 0.000000000000000000, 15.00000000000000000 ) ) ;
#420 = VERTEX_POINT ( 'NONE', #163 ) ;
#421 = DIRECTION ( 'NONE',  ( -1.000000000000000000, 0.000000000000000000, 0.000000000000000000 ) ) ;
#422 = AXIS2_PLACEMENT_3D ( 'NONE', #806, #275, #745 ) ;
#423 = PERSON_AND_ORGANIZATION ( #214, #324 ) ;
#424 = ORIENTED_EDGE ( 'NONE', *, *, #514, .T. ) ;
#425 = PLANE ( 'NONE',  #640 ) ;
#426 = APPROVAL_STATUS ( 'not_yet_approved' ) ;
#427 = ORIENTED_EDGE ( 'NONE', *, *, #383, .F. ) ;
#428 = CARTESIAN_POINT ( 'NONE',  ( -37.50000000000000711, 40.00000000000001421, -15.00000000000000000 ) ) ;
#429 = CIRCLE ( 'NONE', #186, 37.49999999999998579 ) ;
#430 = CARTESIAN_POINT ( 'NONE',  ( -12.50000000000000888, 0.000000000000000000, 15.00000000000000000 ) ) ;
#431 = AXIS2_PLACEMENT_3D ( 'NONE', #22, #794, #545 ) ;
#432 = CC_DESIGN_SECURITY_CLASSIFICATION ( #809, ( #65 ) ) ;
#433 = ADVANCED_FACE ( 'NONE', ( #49, #105 ), #632, .T. ) ;
#434 =( LENGTH_UNIT ( ) NAMED_UNIT ( * ) SI_UNIT ( .MILLI., .METRE. ) );
#435 = ORIENTED_EDGE ( 'NONE', *, *, #830, .F. ) ;
#436 = EDGE_CURVE ( 'NONE', #805, #705, #849, .T. ) ;
#437 = CARTESIAN_POINT ( 'NONE',  ( -8.204580709839866486E-14, 712.0000000000000000, 0.000000000000000000 ) ) ;
#438 = COORDINATED_UNIVERSAL_TIME_OFFSET ( 1, 0, .AHEAD. ) ;
#439 = LINE ( 'NONE', #45, #845 ) ;
#440 = PLANE ( 'NONE',  #731 ) ;
#441 = VECTOR ( 'NONE', #603, 1000.000000000000000 ) ;
#442 = ORIENTED_EDGE ( 'NONE', *, *, #347, .T. ) ;
#443 = ADVANCED_FACE ( 'NONE', ( #757, #110 ), #425, .T. ) ;
#444 = DIRECTION ( 'NONE',  ( 1.000000000000000000, 0.000000000000000000, 0.000000000000000000 ) ) ;
#445 = CARTESIAN_POINT ( 'NONE',  ( -32.49999999999998579, 722.0000000000000000, 0.000000000000000000 ) ) ;
#446 = EDGE_CURVE ( 'NONE', #784, #220, #169, .T. ) ;
#447 = ORIENTED_EDGE ( 'NONE', *, *, #194, .T. ) ;
#448 = DIRECTION ( 'NONE',  ( -1.220919748488075523E-16, 1.000000000000000000, -0.000000000000000000 ) ) ;
#449 = LINE ( 'NONE', #36, #506 ) ;
#450 = VECTOR ( 'NONE', #3, 1000.000000000000000 ) ;
#451 = CARTESIAN_POINT ( 'NONE',  ( -4.973777466277251591E-15, 2.245981773165625750, -15.00000000000000000 ) ) ;
#452 = ORIENTED_EDGE ( 'NONE', *, *, #436, .F. ) ;
#453 = DIRECTION ( 'NONE',  ( 1.000000000000000000, 0.000000000000000000, 0.000000000000000000 ) ) ;
#454 = CARTESIAN_POINT ( 'NONE',  ( -17.50000000000008527, 722.0000000000000000, 0.000000000000000000 ) ) ;
#455 = FACE_OUTER_BOUND ( 'NONE', #771, .T. ) ;
#456 = VERTEX_POINT ( 'NONE', #839 ) ;
#457 = EDGE_CURVE ( 'NONE', #175, #832, #99, .T. ) ;
#458 = CYLINDRICAL_SURFACE ( 'NONE', #764, 32.49999999999990052 ) ;
#459 = ORIENTED_EDGE ( 'NONE', *, *, #746, .F. ) ;
#460 = CYLINDRICAL_SURFACE ( 'NONE', #853, 35.00000000000000000 ) ;
#461 = VERTEX_POINT ( 'NONE', #365 ) ;
#462 = FACE_OUTER_BOUND ( 'NONE', #286, .T. ) ;
#463 = DIRECTION ( 'NONE',  ( 0.06417090780473246048, 0.9979389232771294083, -0.000000000000000000 ) ) ;
#464 = CIRCLE ( 'NONE', #817, 37.49999999999987921 ) ;
#465 = AXIS2_PLACEMENT_3D ( 'NONE', #30, #301, #241 ) ;
#466 = ORIENTED_EDGE ( 'NONE', *, *, #798, .T. ) ;
#467 = AXIS2_PLACEMENT_3D ( 'NONE', #53, #333, #843 ) ;
#468 = EDGE_CURVE ( 'NONE', #689, #420, #361, .T. ) ;
#469 = APPROVAL_PERSON_ORGANIZATION ( #423, #511, #296 ) ;
#470 = DIRECTION ( 'NONE',  ( -1.220919748488075523E-16, 1.000000000000000000, -0.000000000000000000 ) ) ;
#471 = CARTESIAN_POINT ( 'NONE',  ( -37.50000000000000711, 40.00000000000001421, 15.00000000000000000 ) ) ;
#472 = PLANE ( 'NONE',  #703 ) ;
#473 = EDGE_LOOP ( 'NONE', ( #442, #345, #118, #270 ) ) ;
#474 = EDGE_CURVE ( 'NONE', #541, #175, #619, .T. ) ;
#475 = DIRECTION ( 'NONE',  ( 0.000000000000000000, 1.000000000000000000, -0.000000000000000000 ) ) ;
#476 = ORIENTED_EDGE ( 'NONE', *, *, #160, .F. ) ;
#477 = CARTESIAN_POINT ( 'NONE',  ( -8.326672684688674053E-14, 722.0000000000000000, 0.000000000000000000 ) ) ;
#478 = LINE ( 'NONE', #724, #403 ) ;
#479 = FACE_OUTER_BOUND ( 'NONE', #29, .T. ) ;
#480 = EDGE_CURVE ( 'NONE', #705, #239, #293, .T. ) ;
#481 = ORIENTED_EDGE ( 'NONE', *, *, #84, .T. ) ;
#482 = DIRECTION ( 'NONE',  ( -1.220919748488075523E-16, 1.000000000000000000, -0.000000000000000000 ) ) ;
#483 = LINE ( 'NONE', #15, #70 ) ;
#484 = VECTOR ( 'NONE', #215, 1000.000000000000000 ) ;
#485 = PERSON_AND_ORGANIZATION ( #214, #324 ) ;
#486 = EDGE_CURVE ( 'NONE', #544, #127, #176, .T. ) ;
#487 = VERTEX_POINT ( 'NONE', #230 ) ;
#488 = CARTESIAN_POINT ( 'NONE',  ( 17.49999999999991829, 712.0000000000000000, 2.143131898507868248E-15 ) ) ;
#489 = CLOSED_SHELL ( 'NONE', ( #548, #570, #787, #165, #687, #374, #563, #343, #406, #679, #769, #243, #620, #725, #720, #198, #90, #31, #416, #594, #368, #216, #433, #557, #443, #651, #384 ) ) ;
#490 = VECTOR ( 'NONE', #62, 1000.000000000000000 ) ;
#491 =( NAMED_UNIT ( * ) SI_UNIT ( $, .STERADIAN. ) SOLID_ANGLE_UNIT ( ) );
#492 = CARTESIAN_POINT ( 'NONE',  ( 0.000000000000000000, 40.00000000000003553, 0.000000000000000000 ) ) ;
#493 = MECHANICAL_CONTEXT ( 'NONE', #148, 'mechanical' ) ;
#494 = ORIENTED_EDGE ( 'NONE', *, *, #137, .T. ) ;
#495 = CIRCLE ( 'NONE', #752, 32.49999999999990052 ) ;
#496 = COORDINATED_UNIVERSAL_TIME_OFFSET ( 1, 0, .AHEAD. ) ;
#497 = ORIENTED_EDGE ( 'NONE', *, *, #678, .T. ) ;
#498 = CARTESIAN_POINT ( 'NONE',  ( 45.62860688426503941, 22.00000000000000000, -15.00000000000000000 ) ) ;
#499 = PERSON_AND_ORGANIZATION_ROLE ( 'design_owner' ) ;
#500 = ORIENTED_EDGE ( 'NONE', *, *, #747, .T. ) ;
#501 = LINE ( 'NONE', #428, #63 ) ;
#502 = EDGE_CURVE ( 'NONE', #819, #213, #501, .T. ) ;
#503 = CARTESIAN_POINT ( 'NONE',  ( 34.92786231469952440, -1.301042606982605321E-15, 15.00000000000000000 ) ) ;
#504 = CARTESIAN_POINT ( 'NONE',  ( 45.62860688426503941, 42.00000000000000000, -15.00000000000000000 ) ) ;
#505 = ORIENTED_EDGE ( 'NONE', *, *, #109, .F. ) ;
#506 = VECTOR ( 'NONE', #709, 1000.000000000000000 ) ;
#507 = DIRECTION ( 'NONE',  ( -1.220919748488075523E-16, 1.000000000000000000, -0.000000000000000000 ) ) ;
#508 = PERSON_AND_ORGANIZATION ( #214, #324 ) ;
#509 = CIRCLE ( 'NONE', #681, 12.50000000000000888 ) ;
#510 = LINE ( 'NONE', #116, #831 ) ;
#511 = APPROVAL ( #97, 'UNSPECIFIED' ) ;
#512 = ORIENTED_EDGE ( 'NONE', *, *, #788, .F. ) ;
#513 = CARTESIAN_POINT ( 'NONE',  ( 36.34253804161480161, 22.00000000000000000, 15.00000000000000000 ) ) ;
#514 = EDGE_CURVE ( 'NONE', #115, #797, #560, .T. ) ;
#515 = CARTESIAN_POINT ( 'NONE',  ( 32.49999999999989342, 171.9999999999999432, 3.980102097228890737E-15 ) ) ;
#516 = VERTEX_POINT ( 'NONE', #653 ) ;
#517 = DIRECTION ( 'NONE',  ( 0.000000000000000000, -1.000000000000000000, 0.000000000000000000 ) ) ;
#518 = LINE ( 'NONE', #430, #273 ) ;
#519 = ORIENTED_EDGE ( 'NONE', *, *, #446, .T. ) ;
#520 = DIRECTION ( 'NONE',  ( -1.220919748488075523E-16, 1.000000000000000000, -0.000000000000000000 ) ) ;
#521 = VECTOR ( 'NONE', #114, 1000.000000000000000 ) ;
#522 = DIRECTION ( 'NONE',  ( -0.000000000000000000, -0.000000000000000000, -1.000000000000000000 ) ) ;
#523 = VECTOR ( 'NONE', #274, 1000.000000000000000 ) ;
#524 = ORIENTED_EDGE ( 'NONE', *, *, #502, .F. ) ;
#525 = DIRECTION ( 'NONE',  ( -1.220919748488075523E-16, 1.000000000000000000, -0.000000000000000000 ) ) ;
#526 = CARTESIAN_POINT ( 'NONE',  ( 35.49999999999998579, 40.00000000000002132, 15.00000000000000000 ) ) ;
#527 = DIRECTION ( 'NONE',  ( -0.000000000000000000, -0.000000000000000000, -1.000000000000000000 ) ) ;
#528 = EDGE_LOOP ( 'NONE', ( #646, #146 ) ) ;
#529 = LINE ( 'NONE', #471, #20 ) ;
#530 = ORIENTED_EDGE ( 'NONE', *, *, #14, .T. ) ;
#531 = EDGE_CURVE ( 'NONE', #248, #819, #643, .T. ) ;
#532 = ORIENTED_EDGE ( 'NONE', *, *, #486, .T. ) ;
#533 = CARTESIAN_POINT ( 'NONE',  ( 34.92786231469952440, -1.301042606982605321E-15, 15.00000000000000000 ) ) ;
#534 = CARTESIAN_POINT ( 'NONE',  ( 12.50000000000000888, 1.530808498934192705E-15, 15.00000000000000000 ) ) ;
#535 = AXIS2_PLACEMENT_3D ( 'NONE', #242, #376, #630 ) ;
#536 = CC_DESIGN_PERSON_AND_ORGANIZATION_ASSIGNMENT ( #485, #608, ( #65 ) ) ;
#537 = EDGE_LOOP ( 'NONE', ( #91, #682, #779, #505, #34, #524, #808, #178, #158, #4 ) ) ;
#538 = VECTOR ( 'NONE', #217, 1000.000000000000000 ) ;
#539 = CC_DESIGN_APPROVAL ( #547, ( #809 ) ) ;
#540 = DIRECTION ( 'NONE',  ( -1.220919748488075523E-16, 1.000000000000000000, -0.000000000000000000 ) ) ;
#541 = VERTEX_POINT ( 'NONE', #533 ) ;
#542 = EDGE_CURVE ( 'NONE', #367, #848, #400, .T. ) ;
#543 = DIRECTION ( 'NONE',  ( -1.000000000000000000, 0.000000000000000000, 0.000000000000000000 ) ) ;
#544 = VERTEX_POINT ( 'NONE', #196 ) ;
#545 = DIRECTION ( 'NONE',  ( 0.000000000000000000, -0.000000000000000000, -1.000000000000000000 ) ) ;
#546 = CARTESIAN_POINT ( 'NONE',  ( 35.50000000000006395, 41.99999999999992895, 12.08304597359400923 ) ) ;
#547 = APPROVAL ( #294, 'UNSPECIFIED' ) ;
#548 = ADVANCED_FACE ( 'NONE', ( #182 ), #728, .F. ) ;
#549 = ORIENTED_EDGE ( 'NONE', *, *, #407, .T. ) ;
#550 = AXIS2_PLACEMENT_3D ( 'NONE', #255, #592, #857 ) ;
#551 = PERSON_AND_ORGANIZATION ( #214, #324 ) ;
#552 = ORIENTED_EDGE ( 'NONE', *, *, #257, .T. ) ;
#553 = DIRECTION ( 'NONE',  ( 0.000000000000000000, -1.000000000000000000, 0.000000000000000000 ) ) ;
#554 = EDGE_CURVE ( 'NONE', #263, #181, #222, .T. ) ;
#555 = ORIENTED_EDGE ( 'NONE', *, *, #659, .T. ) ;
#556 = PLANE ( 'NONE',  #465 ) ;
#557 = ADVANCED_FACE ( 'NONE', ( #191 ), #596, .F. ) ;
#558 = PERSON_AND_ORGANIZATION_ROLE ( 'creator' ) ;
#559 = FACE_OUTER_BOUND ( 'NONE', #699, .T. ) ;
#560 = CIRCLE ( 'NONE', #656, 37.49999999999998579 ) ;
#561 = DATE_AND_TIME ( #302, #766 ) ;
#562 = ORIENTED_EDGE ( 'NONE', *, *, #638, .F. ) ;
#563 = ADVANCED_FACE ( 'NONE', ( #314 ), #776, .F. ) ;
#564 = CARTESIAN_POINT ( 'NONE',  ( 35.49999999999998579, 42.00000000000000000, 15.00000000000000000 ) ) ;
#565 = CARTESIAN_POINT ( 'NONE',  ( -34.92786231469953151, 1.474514954580286030E-14, -15.00000000000000000 ) ) ;
#566 = VECTOR ( 'NONE', #12, 1000.000000000000000 ) ;
#567 = DIRECTION ( 'NONE',  ( 0.000000000000000000, 0.000000000000000000, 1.000000000000000000 ) ) ;
#568 = ORIENTED_EDGE ( 'NONE', *, *, #683, .T. ) ;
#569 = DIRECTION ( 'NONE',  ( -1.220919748488075523E-16, 1.000000000000000000, -0.000000000000000000 ) ) ;
#570 = ADVANCED_FACE ( 'NONE', ( #397 ), #791, .F. ) ;
#571 = DIRECTION ( 'NONE',  ( -1.220919748488075523E-16, 1.000000000000000000, -0.000000000000000000 ) ) ;
#572 = EDGE_LOOP ( 'NONE', ( #662, #568 ) ) ;
#573 = CIRCLE ( 'NONE', #199, 12.50000000000000888 ) ;
#574 = DIRECTION ( 'NONE',  ( -1.000000000000000000, 0.000000000000000000, 0.000000000000000000 ) ) ;
#575 = AXIS2_PLACEMENT_3D ( 'NONE', #387, #56, #588 ) ;
#576 = CARTESIAN_POINT ( 'NONE',  ( -2.441839496976148580E-16, 42.00000000000003553, 0.000000000000000000 ) ) ;
#577 = ORIENTED_EDGE ( 'NONE', *, *, #531, .T. ) ;
#578 = CARTESIAN_POINT ( 'NONE',  ( -37.49999999999985789, 722.0000000000000000, 0.000000000000000000 ) ) ;
#579 = APPLICATION_CONTEXT ( 'configuration controlled 3d designs of mechanical parts and assemblies' ) ;
#580 = DATE_TIME_ROLE ( 'classification_date' ) ;
#581 = CARTESIAN_POINT ( 'NONE',  ( -1.126679203540920095E-30, 40.00000000000000711, 0.000000000000000000 ) ) ;
#582 = DIRECTION ( 'NONE',  ( 1.000000000000000000, 0.000000000000000000, -0.000000000000000000 ) ) ;
#583 = CIRCLE ( 'NONE', #422, 12.50000000000000888 ) ;
#584 = EDGE_LOOP ( 'NONE', ( #459, #658, #131, #415 ) ) ;
#585 = DIRECTION ( 'NONE',  ( 9.505334114941410982E-17, -1.000000000000000000, 0.000000000000000000 ) ) ;
#586 = DIRECTION ( 'NONE',  ( -0.000000000000000000, -0.000000000000000000, -1.000000000000000000 ) ) ;
#587 = ORIENTED_EDGE ( 'NONE', *, *, #44, .T. ) ;
#588 = DIRECTION ( 'NONE',  ( -1.000000000000000000, 0.000000000000000000, 0.000000000000000000 ) ) ;
#589 = CARTESIAN_POINT ( 'NONE',  ( -34.92786231469953151, 1.474514954580286030E-14, 15.00000000000000000 ) ) ;
#590 =( GEOMETRIC_REPRESENTATION_CONTEXT ( 3 ) GLOBAL_UNCERTAINTY_ASSIGNED_CONTEXT ( ( #226 ) ) GLOBAL_UNIT_ASSIGNED_CONTEXT ( ( #434, #154, #491 ) ) REPRESENTATION_CONTEXT ( 'NONE', 'WORKASPACE' ) );
#591 = ORIENTED_EDGE ( 'NONE', *, *, #781, .T. ) ;
#592 = DIRECTION ( 'NONE',  ( -1.220919748488075523E-16, 1.000000000000000000, -0.000000000000000000 ) ) ;
#593 = LINE ( 'NONE', #737, #441 ) ;
#594 = ADVANCED_FACE ( 'NONE', ( #128 ), #264, .T. ) ;
#595 = ORIENTED_EDGE ( 'NONE', *, *, #502, .T. ) ;
#596 = CYLINDRICAL_SURFACE ( 'NONE', #611, 17.50000000000000000 ) ;
#597 = VERTEX_POINT ( 'NONE', #187 ) ;
#598 = CC_DESIGN_PERSON_AND_ORGANIZATION_ASSIGNMENT ( #701, #95, ( #809 ) ) ;
#599 = ORIENTED_EDGE ( 'NONE', *, *, #781, .F. ) ;
#600 = CARTESIAN_POINT ( 'NONE',  ( 45.62860688426503941, 42.00000000000000000, 15.00000000000000000 ) ) ;
#601 = DIRECTION ( 'NONE',  ( -0.000000000000000000, -0.000000000000000000, -1.000000000000000000 ) ) ;
#602 = ORIENTED_EDGE ( 'NONE', *, *, #628, .T. ) ;
#603 = DIRECTION ( 'NONE',  ( -1.000000000000000000, -0.000000000000000000, -0.000000000000000000 ) ) ;
#604 = DIRECTION ( 'NONE',  ( -1.000000000000000000, -9.505334114941410982E-17, -0.000000000000000000 ) ) ;
#605 = DIRECTION ( 'NONE',  ( 1.000000000000000000, 9.505334114941410982E-17, 0.000000000000000000 ) ) ;
#606 = DIRECTION ( 'NONE',  ( -1.000000000000000000, 0.000000000000000000, 0.000000000000000000 ) ) ;
#607 = CARTESIAN_POINT ( 'NONE',  ( 0.000000000000000000, 40.00000000000003553, 0.000000000000000000 ) ) ;
#608 = PERSON_AND_ORGANIZATION_ROLE ( 'design_supplier' ) ;
#609 = ORIENTED_EDGE ( 'NONE', *, *, #542, .F. ) ;
#610 = LINE ( 'NONE', #75, #523 ) ;
#611 = AXIS2_PLACEMENT_3D ( 'NONE', #711, #325, #380 ) ;
#612 = VECTOR ( 'NONE', #517, 1000.000000000000000 ) ;
#613 = DIRECTION ( 'NONE',  ( 0.000000000000000000, 0.000000000000000000, 1.000000000000000000 ) ) ;
#614 = EDGE_CURVE ( 'NONE', #127, #541, #86, .T. ) ;
#615 = ORIENTED_EDGE ( 'NONE', *, *, #554, .F. ) ;
#616 = DIRECTION ( 'NONE',  ( -1.000000000000000000, -1.850371707708595056E-16, 0.000000000000000000 ) ) ;
#617 = APPLICATION_PROTOCOL_DEFINITION ( 'international standard', 'config_control_design', 1994, #579 ) ;
#618 = ORIENTED_EDGE ( 'NONE', *, *, #706, .T. ) ;
#619 = LINE ( 'NONE', #513, #240 ) ;
#620 = ADVANCED_FACE ( 'NONE', ( #462 ), #201, .F. ) ;
#621 = AXIS2_PLACEMENT_3D ( 'NONE', #834, #372, #421 ) ;
#622 = CARTESIAN_POINT ( 'NONE',  ( -1.611614068004258181E-14, 171.9999999999999432, 0.000000000000000000 ) ) ;
#623 = ORIENTED_EDGE ( 'NONE', *, *, #188, .T. ) ;
#624 = DIRECTION ( 'NONE',  ( -0.000000000000000000, -0.000000000000000000, -1.000000000000000000 ) ) ;
#625 = LOCAL_TIME ( 13, 25, 51.00000000000000000, #496 ) ;
#626 = ORIENTED_EDGE ( 'NONE', *, *, #807, .F. ) ;
#627 = DIRECTION ( 'NONE',  ( -1.220919748488075523E-16, 1.000000000000000000, -0.000000000000000000 ) ) ;
#628 = EDGE_CURVE ( 'NONE', #239, #98, #713, .T. ) ;
#629 = DIRECTION ( 'NONE',  ( 0.06417090780473200251, -0.9979389232771294083, 0.000000000000000000 ) ) ;
#630 = DIRECTION ( 'NONE',  ( -0.000000000000000000, 0.000000000000000000, -1.000000000000000000 ) ) ;
#631 = ORIENTED_EDGE ( 'NONE', *, *, #5, .T. ) ;
#632 = PLANE ( 'NONE',  #360 ) ;
#633 = APPROVAL_DATE_TIME ( #561, #547 ) ;
#634 = CARTESIAN_POINT ( 'NONE',  ( 12.50000000000000888, 1.530808498934192705E-15, -15.00000000000000000 ) ) ;
#635 = EDGE_LOOP ( 'NONE', ( #595, #55, #277, #727, #577 ) ) ;
#636 = FACE_OUTER_BOUND ( 'NONE', #584, .T. ) ;
#637 = CIRCLE ( 'NONE', #290, 12.50000000000000888 ) ;
#638 = EDGE_CURVE ( 'NONE', #308, #162, #134, .T. ) ;
#639 = DIRECTION ( 'NONE',  ( -0.06417090780473246048, -0.9979389232771294083, 0.000000000000000000 ) ) ;
#640 = AXIS2_PLACEMENT_3D ( 'NONE', #690, #827, #760 ) ;
#641 = CARTESIAN_POINT ( 'NONE',  ( -4.973777466277251591E-15, 2.245981773165625750, 15.00000000000000000 ) ) ;
#642 = ORIENTED_EDGE ( 'NONE', *, *, #84, .F. ) ;
#643 = LINE ( 'NONE', #267, #450 ) ;
#644 = DIRECTION ( 'NONE',  ( -1.000000000000000000, -1.850371707708595056E-16, 0.000000000000000000 ) ) ;
#645 = PLANE ( 'NONE',  #33 ) ;
#646 = ORIENTED_EDGE ( 'NONE', *, *, #554, .T. ) ;
#647 = DIRECTION ( 'NONE',  ( 1.000000000000000000, 9.505334114941410982E-17, 0.000000000000000000 ) ) ;
#648 = DIRECTION ( 'NONE',  ( -1.220919748488075523E-16, 1.000000000000000000, -0.000000000000000000 ) ) ;
#649 = CARTESIAN_POINT ( 'NONE',  ( -17.50000000000008527, 712.0000000000000000, 0.000000000000000000 ) ) ;
#650 = EDGE_LOOP ( 'NONE', ( #793, #168 ) ) ;
#651 = ADVANCED_FACE ( 'NONE', ( #785 ), #458, .F. ) ;
#652 = VECTOR ( 'NONE', #522, 1000.000000000000000 ) ;
#653 = CARTESIAN_POINT ( 'NONE',  ( -34.36931771216876541, 40.00000000000002842, 15.00000000000004263 ) ) ;
#654 = ORIENTED_EDGE ( 'NONE', *, *, #231, .F. ) ;
#655 = AXIS2_PLACEMENT_3D ( 'NONE', #344, #340, #605 ) ;
#656 = AXIS2_PLACEMENT_3D ( 'NONE', #235, #660, #7 ) ;
#657 = DIRECTION ( 'NONE',  ( 0.9979389232771295193, 0.06417090780473201639, -0.000000000000000000 ) ) ;
#658 = ORIENTED_EDGE ( 'NONE', *, *, #411, .T. ) ;
#659 = EDGE_CURVE ( 'NONE', #516, #544, #529, .T. ) ;
#660 = DIRECTION ( 'NONE',  ( -1.220919748488075523E-16, 1.000000000000000000, -0.000000000000000000 ) ) ;
#661 = ORIENTED_EDGE ( 'NONE', *, *, #778, .T. ) ;
#662 = ORIENTED_EDGE ( 'NONE', *, *, #828, .T. ) ;
#663 = CARTESIAN_POINT ( 'NONE',  ( -8.326672684688674053E-14, 722.0000000000000000, 0.000000000000000000 ) ) ;
#664 = CARTESIAN_POINT ( 'NONE',  ( -4.973777466277251591E-15, 2.245981773165625750, 15.00000000000000000 ) ) ;
#665 = CARTESIAN_POINT ( 'NONE',  ( -9.583240110069336807E-15, 40.00000000000000711, -15.00000000000000000 ) ) ;
#666 = VERTEX_POINT ( 'NONE', #72 ) ;
#667 = CARTESIAN_POINT ( 'NONE',  ( 45.62860688426503941, 22.00000000000000000, 15.00000000000000000 ) ) ;
#668 = VECTOR ( 'NONE', #761, 1000.000000000000000 ) ;
#669 = VECTOR ( 'NONE', #525, 1000.000000000000000 ) ;
#670 = CARTESIAN_POINT ( 'NONE',  ( 35.49999999999998579, 42.00000000000000000, -15.00000000000000000 ) ) ;
#671 = DIRECTION ( 'NONE',  ( 1.220919748488075523E-16, -1.000000000000000000, 0.000000000000000000 ) ) ;
#672 = ORIENTED_EDGE ( 'NONE', *, *, #836, .F. ) ;
#673 = DIRECTION ( 'NONE',  ( -1.000000000000000000, -1.850371707708595056E-16, 0.000000000000000000 ) ) ;
#674 = DIRECTION ( 'NONE',  ( -1.000000000000000000, -9.505334114941410982E-17, -0.000000000000000000 ) ) ;
#675 = DIRECTION ( 'NONE',  ( 1.000000000000000000, 1.220919748488075523E-16, 0.000000000000000000 ) ) ;
#676 = ORIENTED_EDGE ( 'NONE', *, *, #628, .F. ) ;
#677 = FACE_OUTER_BOUND ( 'NONE', #83, .T. ) ;
#678 = EDGE_CURVE ( 'NONE', #487, #456, #495, .T. ) ;
#679 = ADVANCED_FACE ( 'NONE', ( #317, #46 ), #645, .F. ) ;
#680 = DIRECTION ( 'NONE',  ( 1.000000000000000000, 0.000000000000000000, 0.000000000000000000 ) ) ;
#681 = AXIS2_PLACEMENT_3D ( 'NONE', #721, #704, #774 ) ;
#682 = ORIENTED_EDGE ( 'NONE', *, *, #692, .F. ) ;
#683 = EDGE_CURVE ( 'NONE', #258, #685, #509, .T. ) ;
#684 = DIRECTION ( 'NONE',  ( 9.505334114941410982E-17, -1.000000000000000000, 0.000000000000000000 ) ) ;
#685 = VERTEX_POINT ( 'NONE', #847 ) ;
#686 = DIRECTION ( 'NONE',  ( -1.220919748488075523E-16, 1.000000000000000000, 0.000000000000000000 ) ) ;
#687 = ADVANCED_FACE ( 'NONE', ( #455 ), #440, .F. ) ;
#688 = DATE_AND_TIME ( #363, #156 ) ;
#689 = VERTEX_POINT ( 'NONE', #322 ) ;
#690 = CARTESIAN_POINT ( 'NONE',  ( -17.50000000000008527, 712.0000000000000000, 0.000000000000000000 ) ) ;
#691 = AXIS2_PLACEMENT_3D ( 'NONE', #698, #125, #639 ) ;
#692 = EDGE_CURVE ( 'NONE', #284, #848, #117, .T. ) ;
#693 = DIRECTION ( 'NONE',  ( -1.000000000000000000, 0.000000000000000000, 0.000000000000000000 ) ) ;
#694 = ORIENTED_EDGE ( 'NONE', *, *, #778, .F. ) ;
#695 = DIRECTION ( 'NONE',  ( 0.000000000000000000, 0.000000000000000000, 1.000000000000000000 ) ) ;
#696 = AXIS2_PLACEMENT_3D ( 'NONE', #291, #567, #37 ) ;
#697 = COORDINATED_UNIVERSAL_TIME_OFFSET ( 1, 0, .AHEAD. ) ;
#698 = CARTESIAN_POINT ( 'NONE',  ( 36.34253804161480161, 22.00000000000000000, 15.00000000000000000 ) ) ;
#699 = EDGE_LOOP ( 'NONE', ( #736, #519, #205, #748, #555, #532, #266, #399, #338, #494 ) ) ;
#700 = CARTESIAN_POINT ( 'NONE',  ( -37.50000000000000711, 40.00000000000001421, 15.00000000000000000 ) ) ;
#701 = PERSON_AND_ORGANIZATION ( #214, #324 ) ;
#702 = DIRECTION ( 'NONE',  ( -1.000000000000000000, 0.000000000000000000, 0.000000000000000000 ) ) ;
#703 = AXIS2_PLACEMENT_3D ( 'NONE', #667, #475, #336 ) ;
#704 = DIRECTION ( 'NONE',  ( 0.000000000000000000, 0.000000000000000000, 1.000000000000000000 ) ) ;
#705 = VERTEX_POINT ( 'NONE', #649 ) ;
#706 = EDGE_CURVE ( 'NONE', #456, #487, #77, .T. ) ;
#707 = CARTESIAN_POINT ( 'NONE',  ( -8.326672684688674053E-14, 722.0000000000000000, 0.000000000000000000 ) ) ;
#708 = CARTESIAN_POINT ( 'NONE',  ( -8.326672684688674053E-14, 722.0000000000000000, 0.000000000000000000 ) ) ;
#709 = DIRECTION ( 'NONE',  ( 1.000000000000000000, 1.220919748488075523E-16, -0.000000000000000000 ) ) ;
#710 = ORIENTED_EDGE ( 'NONE', *, *, #457, .F. ) ;
#711 = CARTESIAN_POINT ( 'NONE',  ( -8.326672684688674053E-14, 722.0000000000000000, 0.000000000000000000 ) ) ;
#712 = CC_DESIGN_PERSON_AND_ORGANIZATION_ASSIGNMENT ( #821, #499, ( #408 ) ) ;
#713 = CIRCLE ( 'NONE', #575, 17.50000000000000000 ) ;
#714 = CARTESIAN_POINT ( 'NONE',  ( 0.000000000000000000, 0.000000000000000000, 15.00000000000000000 ) ) ;
#715 = CC_DESIGN_APPROVAL ( #311, ( #96 ) ) ;
#716 = FACE_OUTER_BOUND ( 'NONE', #473, .T. ) ;
#717 = EDGE_LOOP ( 'NONE', ( #229, #364, #300, #602 ) ) ;
#718 = DIRECTION ( 'NONE',  ( 9.505334114941410982E-17, -1.000000000000000000, 0.000000000000000000 ) ) ;
#719 = LINE ( 'NONE', #295, #652 ) ;
#720 = ADVANCED_FACE ( 'NONE', ( #716 ), #460, .T. ) ;
#721 = CARTESIAN_POINT ( 'NONE',  ( 0.000000000000000000, 0.000000000000000000, -15.00000000000000000 ) ) ;
#722 = EDGE_LOOP ( 'NONE', ( #694, #615, #552, #618 ) ) ;
#723 = DIRECTION ( 'NONE',  ( -1.000000000000000000, 0.000000000000000000, 0.000000000000000000 ) ) ;
#724 = CARTESIAN_POINT ( 'NONE',  ( -37.49999999999996447, 722.0000000000000000, 0.000000000000000000 ) ) ;
#725 = ADVANCED_FACE ( 'NONE', ( #51 ), #385, .F. ) ;
#726 = CARTESIAN_POINT ( 'NONE',  ( 35.49999999999998579, 42.00000000000000000, 15.00000000000000000 ) ) ;
#727 = ORIENTED_EDGE ( 'NONE', *, *, #39, .T. ) ;
#728 = CYLINDRICAL_SURFACE ( 'NONE', #279, 32.49999999999990052 ) ;
#729 = LINE ( 'NONE', #665, #126 ) ;
#730 = VECTOR ( 'NONE', #571, 1000.000000000000000 ) ;
#731 = AXIS2_PLACEMENT_3D ( 'NONE', #726, #837, #58 ) ;
#732 = EDGE_LOOP ( 'NONE', ( #323, #328 ) ) ;
#733 = CARTESIAN_POINT ( 'NONE',  ( 35.49999999999998579, 42.00000000000000000, 15.00000000000000000 ) ) ;
#734 = DIRECTION ( 'NONE',  ( -1.000000000000000000, -9.505334114941410982E-17, -0.000000000000000000 ) ) ;
#735 = DIRECTION ( 'NONE',  ( -0.000000000000000000, -0.000000000000000000, -1.000000000000000000 ) ) ;
#736 = ORIENTED_EDGE ( 'NONE', *, *, #101, .T. ) ;
#737 = CARTESIAN_POINT ( 'NONE',  ( 37.62860688426503941, 42.00000000000000000, 15.00000000000000000 ) ) ;
#738 = DIRECTION ( 'NONE',  ( -1.220919748488075523E-16, 1.000000000000000000, -0.000000000000000000 ) ) ;
#739 = PLANE ( 'NONE',  #352 ) ;
#740 = DIRECTION ( 'NONE',  ( 1.000000000000000000, 0.000000000000000000, 0.000000000000000000 ) ) ;
#741 = AXIS2_PLACEMENT_3D ( 'NONE', #707, #507, #179 ) ;
#742 = EDGE_LOOP ( 'NONE', ( #435, #661, #497, #136 ) ) ;
#743 = AXIS2_PLACEMENT_3D ( 'NONE', #312, #657, #112 ) ;
#744 = APPROVAL_PERSON_ORGANIZATION ( #167, #311, #102 ) ;
#745 = DIRECTION ( 'NONE',  ( 1.000000000000000000, 0.000000000000000000, 0.000000000000000000 ) ) ;
#746 = EDGE_CURVE ( 'NONE', #25, #258, #841, .T. ) ;
#747 = EDGE_CURVE ( 'NONE', #149, #797, #610, .T. ) ;
#748 = ORIENTED_EDGE ( 'NONE', *, *, #319, .F. ) ;
#749 = CC_DESIGN_PERSON_AND_ORGANIZATION_ASSIGNMENT ( #287, #558, ( #96 ) ) ;
#750 = CARTESIAN_POINT ( 'NONE',  ( -2.441839496976148580E-16, 42.00000000000003553, 0.000000000000000000 ) ) ;
#751 = CARTESIAN_POINT ( 'NONE',  ( 45.62860688426503941, 22.00000000000000000, 15.00000000000000000 ) ) ;
#752 = AXIS2_PLACEMENT_3D ( 'NONE', #138, #627, #92 ) ;
#753 = EDGE_LOOP ( 'NONE', ( #313, #609, #816, #447 ) ) ;
#754 = PLANE ( 'NONE',  #133 ) ;
#755 = CALENDAR_DATE ( 2026, 28, 1 ) ;
#756 = ORIENTED_EDGE ( 'NONE', *, *, #78, .T. ) ;
#757 = FACE_BOUND ( 'NONE', #135, .T. ) ;
#758 = DIRECTION ( 'NONE',  ( 0.000000000000000000, 0.000000000000000000, 1.000000000000000000 ) ) ;
#759 = ORIENTED_EDGE ( 'NONE', *, *, #319, .T. ) ;
#760 = DIRECTION ( 'NONE',  ( 1.000000000000000000, 1.220919748488075523E-16, 0.000000000000000000 ) ) ;
#761 = DIRECTION ( 'NONE',  ( -0.000000000000000000, -0.000000000000000000, -1.000000000000000000 ) ) ;
#762 = DATE_AND_TIME ( #755, #625 ) ;
#763 = ORIENTED_EDGE ( 'NONE', *, *, #231, .T. ) ;
#764 = AXIS2_PLACEMENT_3D ( 'NONE', #392, #67, #259 ) ;
#765 = DIRECTION ( 'NONE',  ( 1.000000000000000000, -0.000000000000000000, -0.000000000000000000 ) ) ;
#766 = LOCAL_TIME ( 13, 25, 51.00000000000000000, #438 ) ;
#767 = APPROVAL_ROLE ( '' ) ;
#768 = CARTESIAN_POINT ( 'NONE',  ( 0.000000000000000000, 40.00000000000003553, 0.000000000000000000 ) ) ;
#769 = ADVANCED_FACE ( 'NONE', ( #677 ), #11, .F. ) ;
#770 = CARTESIAN_POINT ( 'NONE',  ( -8.204580709839866486E-14, 712.0000000000000000, 0.000000000000000000 ) ) ;
#771 = EDGE_LOOP ( 'NONE', ( #253, #466, #395, #530 ) ) ;
#772 = DIRECTION ( 'NONE',  ( 0.06417090780473246048, 0.9979389232771294083, -0.000000000000000000 ) ) ;
#773 = FACE_OUTER_BOUND ( 'NONE', #47, .T. ) ;
#774 = DIRECTION ( 'NONE',  ( 1.000000000000000000, 0.000000000000000000, 0.000000000000000000 ) ) ;
#775 = ORIENTED_EDGE ( 'NONE', *, *, #5, .F. ) ;
#776 = PLANE ( 'NONE',  #833 ) ;
#777 = DIRECTION ( 'NONE',  ( -1.000000000000000000, 0.000000000000000000, 0.000000000000000000 ) ) ;
#778 = EDGE_CURVE ( 'NONE', #181, #487, #200, .T. ) ;
#779 = ORIENTED_EDGE ( 'NONE', *, *, #407, .F. ) ;
#780 = DIRECTION ( 'NONE',  ( 0.000000000000000000, 0.000000000000000000, 1.000000000000000000 ) ) ;
#781 = EDGE_CURVE ( 'NONE', #516, #115, #429, .T. ) ;
#782 = CIRCLE ( 'NONE', #269, 32.49999999999990052 ) ;
#783 = DIRECTION ( 'NONE',  ( -0.000000000000000000, -0.000000000000000000, -1.000000000000000000 ) ) ;
#784 = VERTEX_POINT ( 'NONE', #733 ) ;
#785 = FACE_OUTER_BOUND ( 'NONE', #722, .T. ) ;
#786 = EDGE_LOOP ( 'NONE', ( #341, #113, #358, #775, #481, #591, #424, #409 ) ) ;
#787 = ADVANCED_FACE ( 'NONE', ( #801 ), #206, .T. ) ;
#788 = EDGE_CURVE ( 'NONE', #162, #597, #48, .T. ) ;
#789 = CARTESIAN_POINT ( 'NONE',  ( 45.62860688426503941, 42.00000000000000000, -15.00000000000000000 ) ) ;
#790 = ORIENTED_EDGE ( 'NONE', *, *, #531, .F. ) ;
#791 = CYLINDRICAL_SURFACE ( 'NONE', #396, 17.50000000000000000 ) ;
#792 = LINE ( 'NONE', #139, #814 ) ;
#793 = ORIENTED_EDGE ( 'NONE', *, *, #303, .T. ) ;
#794 = DIRECTION ( 'NONE',  ( 0.000000000000000000, -1.000000000000000000, 0.000000000000000000 ) ) ;
#795 = DIRECTION ( 'NONE',  ( -1.000000000000000000, 0.000000000000000000, 0.000000000000000000 ) ) ;
#796 = LINE ( 'NONE', #334, #152 ) ;
#797 = VERTEX_POINT ( 'NONE', #17 ) ;
#798 = EDGE_CURVE ( 'NONE', #461, #689, #278, .T. ) ;
#799 = DIRECTION ( 'NONE',  ( -1.000000000000000000, -1.850371707708595056E-16, 0.000000000000000000 ) ) ;
#800 = ORIENTED_EDGE ( 'NONE', *, *, #383, .T. ) ;
#801 = FACE_OUTER_BOUND ( 'NONE', #786, .T. ) ;
#802 = DIRECTION ( 'NONE',  ( -1.000000000000000000, 0.000000000000000000, 0.000000000000000000 ) ) ;
#803 = CARTESIAN_POINT ( 'NONE',  ( -37.50000000000000711, 40.00000000000001421, 15.00000000000000000 ) ) ;
#804 = APPROVAL_DATE_TIME ( #82, #511 ) ;
#805 = VERTEX_POINT ( 'NONE', #488 ) ;
#806 = CARTESIAN_POINT ( 'NONE',  ( 0.000000000000000000, 0.000000000000000000, 15.00000000000000000 ) ) ;
#807 = EDGE_CURVE ( 'NONE', #220, #115, #812, .T. ) ;
#808 = ORIENTED_EDGE ( 'NONE', *, *, #155, .F. ) ;
#809 = SECURITY_CLASSIFICATION ( '', '', #281 ) ;
#810 = CARTESIAN_POINT ( 'NONE',  ( 35.49999999999998579, 722.0000000000000000, -12.08304597359400923 ) ) ;
#811 = EDGE_CURVE ( 'NONE', #689, #308, #103, .T. ) ;
#812 = LINE ( 'NONE', #24, #538 ) ;
#813 = VECTOR ( 'NONE', #272, 1000.000000000000000 ) ;
#814 = VECTOR ( 'NONE', #463, 1000.000000000000114 ) ;
#815 = APPLICATION_PROTOCOL_DEFINITION ( 'international standard', 'config_control_design', 1994, #148 ) ;
#816 = ORIENTED_EDGE ( 'NONE', *, *, #137, .F. ) ;
#817 = AXIS2_PLACEMENT_3D ( 'NONE', #576, #835, #389 ) ;
#818 = LINE ( 'NONE', #224, #377 ) ;
#819 = VERTEX_POINT ( 'NONE', #357 ) ;
#820 = FACE_BOUND ( 'NONE', #88, .T. ) ;
#821 = PERSON_AND_ORGANIZATION ( #214, #324 ) ;
#822 = ORIENTED_EDGE ( 'NONE', *, *, #542, .T. ) ;
#823 = CARTESIAN_POINT ( 'NONE',  ( -17.50000000000008527, 722.0000000000000000, 0.000000000000000000 ) ) ;
#824 = DIRECTION ( 'NONE',  ( -1.220919748488075523E-16, 1.000000000000000000, -0.000000000000000000 ) ) ;
#825 = APPROVAL_DATE_TIME ( #688, #311 ) ;
#826 = VERTEX_POINT ( 'NONE', #353 ) ;
#827 = DIRECTION ( 'NONE',  ( 1.220919748488075523E-16, -1.000000000000000000, 0.000000000000000000 ) ) ;
#828 = EDGE_CURVE ( 'NONE', #685, #258, #637, .T. ) ;
#829 = CARTESIAN_POINT ( 'NONE',  ( 45.62860688426503941, 22.00000000000000000, -15.00000000000000000 ) ) ;
#830 = EDGE_CURVE ( 'NONE', #181, #263, #782, .T. ) ;
#831 = VECTOR ( 'NONE', #299, 1000.000000000000000 ) ;
#832 = VERTEX_POINT ( 'NONE', #751 ) ;
#833 = AXIS2_PLACEMENT_3D ( 'NONE', #120, #585, #647 ) ;
#834 = CARTESIAN_POINT ( 'NONE',  ( 0.000000000000000000, 0.000000000000000000, 15.00000000000000000 ) ) ;
#835 = DIRECTION ( 'NONE',  ( 0.000000000000000000, -1.000000000000000000, 0.000000000000000000 ) ) ;
#836 = EDGE_CURVE ( 'NONE', #175, #666, #818, .T. ) ;
#837 = DIRECTION ( 'NONE',  ( 1.000000000000000000, 0.000000000000000000, -0.000000000000000000 ) ) ;
#838 = ORIENTED_EDGE ( 'NONE', *, *, #381, .T. ) ;
#839 = CARTESIAN_POINT ( 'NONE',  ( -32.49999999999998579, 712.0000000000000000, 0.000000000000000000 ) ) ;
#840 = CARTESIAN_POINT ( 'NONE',  ( 35.49999999999998579, 40.00000000000002132, 15.00000000000000000 ) ) ;
#841 = LINE ( 'NONE', #122, #418 ) ;
#842 = ORIENTED_EDGE ( 'NONE', *, *, #468, .F. ) ;
#843 = DIRECTION ( 'NONE',  ( -1.000000000000000000, 0.000000000000000000, 0.000000000000000000 ) ) ;
#844 = CARTESIAN_POINT ( 'NONE',  ( 36.34253804161480161, 22.00000000000000000, 15.00000000000000000 ) ) ;
#845 = VECTOR ( 'NONE', #783, 1000.000000000000000 ) ;
#846 = VECTOR ( 'NONE', #765, 1000.000000000000000 ) ;
#847 = CARTESIAN_POINT ( 'NONE',  ( -12.50000000000000888, 0.000000000000000000, -15.00000000000000000 ) ) ;
#848 = VERTEX_POINT ( 'NONE', #504 ) ;
#849 = CIRCLE ( 'NONE', #854, 17.50000000000000000 ) ;
#850 = CC_DESIGN_DATE_AND_TIME_ASSIGNMENT ( #32, #580, ( #809 ) ) ;
#851 = CARTESIAN_POINT ( 'NONE',  ( 37.49999999999979394, 722.0000000000000000, 4.592425496802559378E-15 ) ) ;
#852 = DIRECTION ( 'NONE',  ( 0.000000000000000000, 0.000000000000000000, 1.000000000000000000 ) ) ;
#853 = AXIS2_PLACEMENT_3D ( 'NONE', #641, #527, #130 ) ;
#854 = AXIS2_PLACEMENT_3D ( 'NONE', #437, #355, #574 ) ;
#855 = DIRECTION ( 'NONE',  ( -0.000000000000000000, 1.000000000000000000, -0.000000000000000000 ) ) ;
#856 = VERTEX_POINT ( 'NONE', #419 ) ;
#857 = DIRECTION ( 'NONE',  ( -1.000000000000000000, 0.000000000000000000, 0.000000000000000000 ) ) ;
#858 = EDGE_LOOP ( 'NONE', ( #549, #16, #710, #234 ) ) ;
ENDSEC;
END-ISO-10303-21;
