ISO-10303-21;
HEADER;
FILE_DESCRIPTION (( 'STEP AP203' ),
    '1' );
FILE_NAME ('Cyl_rod_part_Default_sldprt.STEP',
    '2026-01-28T12:25:52',
    ( '' ),
    ( '' ),
    'SwSTEP 2.0',
    'SolidWorks 2024',
    '' );
FILE_SCHEMA (( 'CONFIG_CONTROL_DESIGN' ));
ENDSEC;

DATA;
#1 = FACE_BOUND ( 'NONE', #218, .T. ) ;
#2 = CLOSED_SHELL ( 'NONE', ( #455, #494, #793, #638, #818, #738, #853, #198, #400, #729 ) ) ;
#3 = ORIENTED_EDGE ( 'NONE', *, *, #817, .F. ) ;
#4 = PERSON_AND_ORGANIZATION_ROLE ( 'design_supplier' ) ;
#5 = AXIS2_PLACEMENT_3D ( 'NONE', #695, #187, #114 ) ;
#6 = APPROVAL_PERSON_ORGANIZATION ( #32, #354, #306 ) ;
#7 = FACE_BOUND ( 'NONE', #99, .T. ) ;
#8 = CARTESIAN_POINT ( 'NONE',  ( 2.886579864025407005E-12, 2.515349040166370287E-13, 15.00000000000000000 ) ) ;
#9 = VERTEX_POINT ( 'NONE', #38 ) ;
#10 = DATE_AND_TIME ( #16, #749 ) ;
#11 = FACE_BOUND ( 'NONE', #852, .T. ) ;
#12 = EDGE_CURVE ( 'NONE', #415, #80, #772, .T. ) ;
#13 = DIRECTION ( 'NONE',  ( 1.000000000000000000, 1.189524669241239066E-15, 0.000000000000000000 ) ) ;
#14 = EDGE_CURVE ( 'NONE', #380, #394, #184, .T. ) ;
#15 = VERTEX_POINT ( 'NONE', #708 ) ;
#16 = CALENDAR_DATE ( 2026, 28, 1 ) ;
#17 = ADVANCED_FACE ( 'NONE', ( #645 ), #120, .T. ) ;
#18 = DIRECTION ( 'NONE',  ( 0.000000000000000000, 0.000000000000000000, 1.000000000000000000 ) ) ;
#19 = DIRECTION ( 'NONE',  ( -1.110223024625163009E-14, -1.000000000000000000, 0.000000000000000000 ) ) ;
#20 = ORIENTED_EDGE ( 'NONE', *, *, #829, .F. ) ;
#21 = AXIS2_PLACEMENT_3D ( 'NONE', #427, #153, #685 ) ;
#22 = DIRECTION ( 'NONE',  ( 1.210905014603419013E-15, -1.000000000000000000, -0.000000000000000000 ) ) ;
#23 = CIRCLE ( 'NONE', #513, 35.00000000000031974 ) ;
#24 = DIRECTION ( 'NONE',  ( 1.210905014603419013E-15, -1.000000000000000000, -0.000000000000000000 ) ) ;
#25 = CIRCLE ( 'NONE', #140, 22.49999999999997513 ) ;
#26 = VERTEX_POINT ( 'NONE', #783 ) ;
#27 = EDGE_CURVE ( 'NONE', #766, #451, #212, .T. ) ;
#28 = EDGE_CURVE ( 'NONE', #122, #617, #576, .T. ) ;
#29 = DIRECTION ( 'NONE',  ( 0.000000000000000000, 0.000000000000000000, 1.000000000000000000 ) ) ;
#30 = DIRECTION ( 'NONE',  ( 1.000000000000000000, 0.000000000000000000, 0.000000000000000000 ) ) ;
#31 = ORIENTED_EDGE ( 'NONE', *, *, #162, .F. ) ;
#32 = PERSON_AND_ORGANIZATION ( #313, #600 ) ;
#33 = CARTESIAN_POINT ( 'NONE',  ( -13.49999999999724309, -50.00000000000005684, 1.653273178848911089E-15 ) ) ;
#34 = ORIENTED_EDGE ( 'NONE', *, *, #764, .F. ) ;
#35 = CARTESIAN_POINT ( 'NONE',  ( 3.108624468950438717E-12, -560.0000000000000000, 0.000000000000000000 ) ) ;
#36 = DIRECTION ( 'NONE',  ( 1.000000000000000000, 0.000000000000000000, 0.000000000000000000 ) ) ;
#37 = AXIS2_PLACEMENT_3D ( 'NONE', #297, #497, #762 ) ;
#38 = CARTESIAN_POINT ( 'NONE',  ( 12.50000000000261835, 2.530657125155711802E-13, 15.00000000000000000 ) ) ;
#39 = UNCERTAINTY_MEASURE_WITH_UNIT (LENGTH_MEASURE( 1.000000000000000082E-05 ), #438, 'distance_accuracy_value', 'NONE');
#40 = APPLICATION_PROTOCOL_DEFINITION ( 'international standard', 'config_control_design', 1994, #525 ) ;
#41 = EDGE_CURVE ( 'NONE', #327, #518, #809, .T. ) ;
#42 = LINE ( 'NONE', #317, #277 ) ;
#43 = ORIENTED_EDGE ( 'NONE', *, *, #565, .F. ) ;
#44 = EDGE_CURVE ( 'NONE', #766, #26, #319, .T. ) ;
#45 = PERSON_AND_ORGANIZATION ( #313, #600 ) ;
#46 = CARTESIAN_POINT ( 'NONE',  ( 2.491062911502695795E-12, -50.00000000000059686, 0.000000000000000000 ) ) ;
#47 = ORIENTED_EDGE ( 'NONE', *, *, #390, .F. ) ;
#48 = ORIENTED_EDGE ( 'NONE', *, *, #428, .F. ) ;
#49 = APPROVAL_ROLE ( '' ) ;
#50 = DIRECTION ( 'NONE',  ( 1.000000000000000000, 0.000000000000000000, 0.000000000000000000 ) ) ;
#51 = AXIS2_PLACEMENT_3D ( 'NONE', #553, #222, #486 ) ;
#52 = DIRECTION ( 'NONE',  ( 0.000000000000000000, 0.000000000000000000, 1.000000000000000000 ) ) ;
#53 = ORIENTED_EDGE ( 'NONE', *, *, #121, .T. ) ;
#54 = EDGE_CURVE ( 'NONE', #242, #714, #775, .T. ) ;
#55 = AXIS2_PLACEMENT_3D ( 'NONE', #746, #75, #210 ) ;
#56 = DATE_AND_TIME ( #836, #615 ) ;
#57 = CARTESIAN_POINT ( 'NONE',  ( 3.108624468950438717E-12, -560.0000000000000000, 0.000000000000000000 ) ) ;
#58 = DIRECTION ( 'NONE',  ( 1.210905014603419013E-15, -1.000000000000000000, -0.000000000000000000 ) ) ;
#59 = VERTEX_POINT ( 'NONE', #521 ) ;
#60 = LINE ( 'NONE', #208, #163 ) ;
#61 = DIRECTION ( 'NONE',  ( 1.210905014603419013E-15, -1.000000000000000000, -0.000000000000000000 ) ) ;
#62 = ORIENTED_EDGE ( 'NONE', *, *, #507, .F. ) ;
#63 = CARTESIAN_POINT ( 'NONE',  ( -24.99999999999736744, -34.99999999999980815, 15.00000000000000000 ) ) ;
#64 = DIRECTION ( 'NONE',  ( -0.000000000000000000, -0.000000000000000000, -1.000000000000000000 ) ) ;
#65 = VERTEX_POINT ( 'NONE', #188 ) ;
#66 = VECTOR ( 'NONE', #732, 1000.000000000000000 ) ;
#67 = AXIS2_PLACEMENT_3D ( 'NONE', #830, #413, #30 ) ;
#68 = CARTESIAN_POINT ( 'NONE',  ( -3.499999999997430944, -44.99999999999982236, 4.286263797015644890E-16 ) ) ;
#69 = CYLINDRICAL_SURFACE ( 'NONE', #195, 32.49999999999998579 ) ;
#70 = EDGE_LOOP ( 'NONE', ( #584, #473, #769, #116 ) ) ;
#71 = VECTOR ( 'NONE', #660, 1000.000000000000000 ) ;
#72 = SHAPE_DEFINITION_REPRESENTATION ( #426, #825 ) ;
#73 = AXIS2_PLACEMENT_3D ( 'NONE', #717, #384, #839 ) ;
#74 = CARTESIAN_POINT ( 'NONE',  ( 17.50000000000310862, -560.0000000000000000, 0.000000000000000000 ) ) ;
#75 = DIRECTION ( 'NONE',  ( 1.210905014603419013E-15, -1.000000000000000000, -0.000000000000000000 ) ) ;
#76 = EDGE_LOOP ( 'NONE', ( #463, #260, #146, #371 ) ) ;
#77 = APPROVAL_STATUS ( 'not_yet_approved' ) ;
#78 = DIRECTION ( 'NONE',  ( 1.000000000000000000, 1.210905014603419013E-15, 0.000000000000000000 ) ) ;
#79 = DIRECTION ( 'NONE',  ( 1.000000000000000000, 0.000000000000000000, 0.000000000000000000 ) ) ;
#80 = VERTEX_POINT ( 'NONE', #454 ) ;
#81 = APPROVAL_PERSON_ORGANIZATION ( #168, #227, #49 ) ;
#82 = EDGE_CURVE ( 'NONE', #26, #321, #605, .T. ) ;
#83 = CYLINDRICAL_SURFACE ( 'NONE', #165, 35.00000000000031974 ) ;
#84 = EDGE_CURVE ( 'NONE', #112, #415, #715, .T. ) ;
#85 = DIRECTION ( 'NONE',  ( 1.000000000000000000, 0.000000000000000000, 0.000000000000000000 ) ) ;
#86 = ORIENTED_EDGE ( 'NONE', *, *, #41, .F. ) ;
#87 = PLANE ( 'NONE',  #804 ) ;
#88 = CARTESIAN_POINT ( 'NONE',  ( -34.99999999999743494, 2.515349040166370287E-13, -15.00000000000000000 ) ) ;
#89 = ORIENTED_EDGE ( 'NONE', *, *, #787, .T. ) ;
#90 = CARTESIAN_POINT ( 'NONE',  ( 2.886579864025407005E-12, 2.515349040166370287E-13, 15.00000000000000000 ) ) ;
#91 = DIRECTION ( 'NONE',  ( -1.000000000000000000, 1.130782710266362623E-14, 0.000000000000000000 ) ) ;
#92 = ADVANCED_FACE ( 'NONE', ( #868 ), #480, .T. ) ;
#93 = EDGE_LOOP ( 'NONE', ( #641, #798, #666, #628 ) ) ;
#94 = AXIS2_PLACEMENT_3D ( 'NONE', #74, #679, #78 ) ;
#95 = DIRECTION ( 'NONE',  ( 1.210905014603419013E-15, -1.000000000000000000, -0.000000000000000000 ) ) ;
#96 = AXIS2_PLACEMENT_3D ( 'NONE', #597, #857, #261 ) ;
#97 = LINE ( 'NONE', #235, #669 ) ;
#98 = CIRCLE ( 'NONE', #332, 13.50000000000000711 ) ;
#99 = EDGE_LOOP ( 'NONE', ( #611, #554 ) ) ;
#100 = DIRECTION ( 'NONE',  ( 1.000000000000000000, 0.000000000000000000, 0.000000000000000000 ) ) ;
#101 = CYLINDRICAL_SURFACE ( 'NONE', #51, 12.49999999999973177 ) ;
#102 = ORIENTED_EDGE ( 'NONE', *, *, #586, .T. ) ;
#103 = CALENDAR_DATE ( 2026, 28, 1 ) ;
#104 = DIRECTION ( 'NONE',  ( 1.210905014603419013E-15, -1.000000000000000000, -0.000000000000000000 ) ) ;
#105 = ORIENTED_EDGE ( 'NONE', *, *, #84, .T. ) ;
#106 = CARTESIAN_POINT ( 'NONE',  ( 3.157329756324524912E-12, -600.2222195685907309, 0.000000000000000000 ) ) ;
#107 = ADVANCED_FACE ( 'NONE', ( #680 ), #69, .T. ) ;
#108 = DIRECTION ( 'NONE',  ( 1.210905014603419013E-15, -1.000000000000000000, -0.000000000000000000 ) ) ;
#109 = EDGE_CURVE ( 'NONE', #388, #15, #340, .T. ) ;
#110 = DIRECTION ( 'NONE',  ( 1.000000000000000000, 0.000000000000000000, 0.000000000000000000 ) ) ;
#111 = AXIS2_PLACEMENT_3D ( 'NONE', #768, #574, #782 ) ;
#112 = VERTEX_POINT ( 'NONE', #528 ) ;
#113 = COORDINATED_UNIVERSAL_TIME_OFFSET ( 1, 0, .AHEAD. ) ;
#114 = DIRECTION ( 'NONE',  ( 1.000000000000000000, 0.000000000000000000, 0.000000000000000000 ) ) ;
#115 = VECTOR ( 'NONE', #592, 1000.000000000000000 ) ;
#116 = ORIENTED_EDGE ( 'NONE', *, *, #630, .F. ) ;
#117 = ORIENTED_EDGE ( 'NONE', *, *, #829, .T. ) ;
#118 = MECHANICAL_CONTEXT ( 'NONE', #525, 'mechanical' ) ;
#119 = DIRECTION ( 'NONE',  ( 1.000000000000000000, 0.000000000000000000, 0.000000000000000000 ) ) ;
#120 = CYLINDRICAL_SURFACE ( 'NONE', #73, 17.50000000000000000 ) ;
#121 = EDGE_CURVE ( 'NONE', #9, #532, #838, .T. ) ;
#122 = VERTEX_POINT ( 'NONE', #607 ) ;
#123 = ADVANCED_FACE ( 'NONE', ( #477 ), #801, .T. ) ;
#124 = DIRECTION ( 'NONE',  ( 1.000000000000000000, 0.000000000000000000, 0.000000000000000000 ) ) ;
#125 = CARTESIAN_POINT ( 'NONE',  ( 17.50000000000249401, -50.00000000000057554, 0.000000000000000000 ) ) ;
#126 = AXIS2_PLACEMENT_3D ( 'NONE', #824, #95, #624 ) ;
#127 = ORIENTED_EDGE ( 'NONE', *, *, #649, .F. ) ;
#128 = ORIENTED_EDGE ( 'NONE', *, *, #41, .T. ) ;
#129 = DIRECTION ( 'NONE',  ( 1.210905014603419013E-15, -1.000000000000000000, -0.000000000000000000 ) ) ;
#130 = VERTEX_POINT ( 'NONE', #664 ) ;
#131 = ORIENTED_EDGE ( 'NONE', *, *, #703, .T. ) ;
#132 = CARTESIAN_POINT ( 'NONE',  ( 25.00000000000234479, -35.00000000000036238, 15.00000000000000000 ) ) ;
#133 = CARTESIAN_POINT ( 'NONE',  ( 2.886579864025407005E-12, 2.515349040166370287E-13, 15.00000000000000000 ) ) ;
#134 = ORIENTED_EDGE ( 'NONE', *, *, #850, .F. ) ;
#135 = DIRECTION ( 'NONE',  ( 0.3243243243243262852, -0.9459459459459452768, 0.000000000000000000 ) ) ;
#136 = DIRECTION ( 'NONE',  ( 0.9459459459459452768, 0.3243243243243262852, -0.000000000000000000 ) ) ;
#137 = PRODUCT_DEFINITION ( 'UNKNOWN', '', #765, #225 ) ;
#138 = ORIENTED_EDGE ( 'NONE', *, *, #799, .T. ) ;
#139 = CIRCLE ( 'NONE', #126, 17.50000000000000000 ) ;
#140 = AXIS2_PLACEMENT_3D ( 'NONE', #866, #129, #339 ) ;
#141 = FACE_OUTER_BOUND ( 'NONE', #831, .T. ) ;
#142 = CARTESIAN_POINT ( 'NONE',  ( -34.99999999999743494, 2.515349040166370287E-13, 15.00000000000000000 ) ) ;
#143 = ORIENTED_EDGE ( 'NONE', *, *, #54, .F. ) ;
#144 = LINE ( 'NONE', #63, #66 ) ;
#145 = CARTESIAN_POINT ( 'NONE',  ( 2.886579864025407005E-12, 2.515349040166370287E-13, -15.00000000000000000 ) ) ;
#146 = ORIENTED_EDGE ( 'NONE', *, *, #467, .F. ) ;
#147 = ADVANCED_FACE ( 'NONE', ( #281 ), #740, .F. ) ;
#148 = CC_DESIGN_DATE_AND_TIME_ASSIGNMENT ( #10, #870, ( #262 ) ) ;
#149 = FACE_OUTER_BOUND ( 'NONE', #675, .T. ) ;
#150 = CYLINDRICAL_SURFACE ( 'NONE', #696, 13.50000000000000711 ) ;
#151 = ORIENTED_EDGE ( 'NONE', *, *, #484, .F. ) ;
#152 = CARTESIAN_POINT ( 'NONE',  ( 22.50000000000309441, -560.0000000000000000, 0.000000000000000000 ) ) ;
#153 = DIRECTION ( 'NONE',  ( 1.210905014603419013E-15, -1.000000000000000000, -0.000000000000000000 ) ) ;
#154 = ORIENTED_EDGE ( 'NONE', *, *, #534, .T. ) ;
#155 = VECTOR ( 'NONE', #517, 1000.000000000000000 ) ;
#156 = DIRECTION ( 'NONE',  ( 0.000000000000000000, 0.000000000000000000, 1.000000000000000000 ) ) ;
#157 = CARTESIAN_POINT ( 'NONE',  ( -17.49999999999689138, -560.0000000000000000, 2.143131898507868248E-15 ) ) ;
#158 = VERTEX_POINT ( 'NONE', #471 ) ;
#159 = CARTESIAN_POINT ( 'NONE',  ( 2.548630031298073849E-12, -44.99999999999983658, 0.000000000000000000 ) ) ;
#160 = CYLINDRICAL_SURFACE ( 'NONE', #5, 3.499999999999642952 ) ;
#161 = ORIENTED_EDGE ( 'NONE', *, *, #612, .T. ) ;
#162 = EDGE_CURVE ( 'NONE', #65, #646, #545, .T. ) ;
#163 = VECTOR ( 'NONE', #737, 1000.000000000000000 ) ;
#164 = CYLINDRICAL_SURFACE ( 'NONE', #291, 22.49999999999998579 ) ;
#165 = AXIS2_PLACEMENT_3D ( 'NONE', #283, #280, #485 ) ;
#166 = DIRECTION ( 'NONE',  ( 1.000000000000000000, 0.000000000000000000, 0.000000000000000000 ) ) ;
#167 = ORIENTED_EDGE ( 'NONE', *, *, #175, .T. ) ;
#168 = PERSON_AND_ORGANIZATION ( #313, #600 ) ;
#169 = DIRECTION ( 'NONE',  ( -1.110223024625163009E-14, -1.000000000000000000, 0.000000000000000000 ) ) ;
#170 = EDGE_LOOP ( 'NONE', ( #34, #744 ) ) ;
#171 = EDGE_CURVE ( 'NONE', #714, #368, #867, .T. ) ;
#172 = DIRECTION ( 'NONE',  ( 1.210905014603419013E-15, -1.000000000000000000, -0.000000000000000000 ) ) ;
#173 = PLANE ( 'NONE',  #739 ) ;
#174 = ORIENTED_EDGE ( 'NONE', *, *, #264, .T. ) ;
#175 = EDGE_CURVE ( 'NONE', #158, #407, #730, .T. ) ;
#176 = EDGE_LOOP ( 'NONE', ( #492, #692 ) ) ;
#177 = CARTESIAN_POINT ( 'NONE',  ( 3.108624468950438717E-12, -560.0000000000000000, 0.000000000000000000 ) ) ;
#178 = VECTOR ( 'NONE', #796, 1000.000000000000000 ) ;
#179 = CARTESIAN_POINT ( 'NONE',  ( 13.50000000000311573, -560.0000000000000000, 0.000000000000000000 ) ) ;
#180 = CIRCLE ( 'NONE', #543, 13.50000000000000711 ) ;
#181 = EDGE_LOOP ( 'NONE', ( #185, #154 ) ) ;
#182 = EDGE_CURVE ( 'NONE', #451, #321, #214, .T. ) ;
#183 = CARTESIAN_POINT ( 'NONE',  ( 32.50000000000313349, -600.2222195685907309, 0.000000000000000000 ) ) ;
#184 = LINE ( 'NONE', #450, #269 ) ;
#185 = ORIENTED_EDGE ( 'NONE', *, *, #171, .T. ) ;
#186 = FACE_OUTER_BOUND ( 'NONE', #278, .T. ) ;
#187 = DIRECTION ( 'NONE',  ( 1.210905014603419013E-15, -1.000000000000000000, -0.000000000000000000 ) ) ;
#188 = CARTESIAN_POINT ( 'NONE',  ( 3.500000000001873168, -59.99999999999871392, 0.000000000000000000 ) ) ;
#189 = FACE_BOUND ( 'NONE', #223, .T. ) ;
#190 = AXIS2_PLACEMENT_3D ( 'NONE', #35, #643, #832 ) ;
#191 = ORIENTED_EDGE ( 'NONE', *, *, #850, .T. ) ;
#192 = ORIENTED_EDGE ( 'NONE', *, *, #364, .T. ) ;
#193 = LINE ( 'NONE', #728, #203 ) ;
#194 = DIRECTION ( 'NONE',  ( 1.000000000000000000, 0.000000000000000000, 0.000000000000000000 ) ) ;
#195 = AXIS2_PLACEMENT_3D ( 'NONE', #344, #598, #616 ) ;
#196 = ORIENTED_EDGE ( 'NONE', *, *, #392, .T. ) ;
#197 = DIRECTION ( 'NONE',  ( 0.3243243243243488783, 0.9459459459459375053, 0.000000000000000000 ) ) ;
#198 = ADVANCED_FACE ( 'NONE', ( #397, #1 ), #465, .T. ) ;
#199 = DIRECTION ( 'NONE',  ( 1.210905014603419013E-15, -1.000000000000000000, -0.000000000000000000 ) ) ;
#200 = ORIENTED_EDGE ( 'NONE', *, *, #338, .T. ) ;
#201 = DIRECTION ( 'NONE',  ( 1.210905014603419013E-15, -1.000000000000000000, -0.000000000000000000 ) ) ;
#202 = DIRECTION ( 'NONE',  ( 1.000000000000000000, -1.110223024625163009E-14, 0.000000000000000000 ) ) ;
#203 = VECTOR ( 'NONE', #271, 1000.000000000000000 ) ;
#204 = ORIENTED_EDGE ( 'NONE', *, *, #27, .T. ) ;
#205 = PERSON_AND_ORGANIZATION ( #313, #600 ) ;
#206 =( GEOMETRIC_REPRESENTATION_CONTEXT ( 3 ) GLOBAL_UNCERTAINTY_ASSIGNED_CONTEXT ( ( #39 ) ) GLOBAL_UNIT_ASSIGNED_CONTEXT ( ( #438, #385, #588 ) ) REPRESENTATION_CONTEXT ( 'NONE', 'WORKASPACE' ) );
#207 = AXIS2_PLACEMENT_3D ( 'NONE', #491, #701, #85 ) ;
#208 = CARTESIAN_POINT ( 'NONE',  ( -32.49999999999688072, -560.0000000000000000, 3.980102097228896259E-15 ) ) ;
#209 = EDGE_CURVE ( 'NONE', #289, #80, #489, .T. ) ;
#210 = DIRECTION ( 'NONE',  ( 1.000000000000000000, 1.210905014603419013E-15, 0.000000000000000000 ) ) ;
#211 = EDGE_LOOP ( 'NONE', ( #785, #196 ) ) ;
#212 = CIRCLE ( 'NONE', #564, 35.00000000000031974 ) ;
#213 = CARTESIAN_POINT ( 'NONE',  ( 3.108624468950438717E-12, -559.9999999999998863, 0.000000000000000000 ) ) ;
#214 = LINE ( 'NONE', #142, #257 ) ;
#215 = ORIENTED_EDGE ( 'NONE', *, *, #678, .T. ) ;
#216 = FACE_OUTER_BOUND ( 'NONE', #681, .T. ) ;
#217 = CYLINDRICAL_SURFACE ( 'NONE', #846, 35.00000000000031974 ) ;
#218 = EDGE_LOOP ( 'NONE', ( #31, #849 ) ) ;
#219 = CIRCLE ( 'NONE', #834, 12.49999999999973177 ) ;
#220 = PLANE ( 'NONE',  #430 ) ;
#221 = CIRCLE ( 'NONE', #67, 17.50000000000000000 ) ;
#222 = DIRECTION ( 'NONE',  ( -0.000000000000000000, -0.000000000000000000, -1.000000000000000000 ) ) ;
#223 = EDGE_LOOP ( 'NONE', ( #131, #200 ) ) ;
#224 = AXIS2_PLACEMENT_3D ( 'NONE', #145, #540, #794 ) ;
#225 = DESIGN_CONTEXT ( 'detailed design', #721, 'design' ) ;
#226 = CARTESIAN_POINT ( 'NONE',  ( 13.50000000000222578, -50.00000000000002842, 0.000000000000000000 ) ) ;
#227 = APPROVAL ( #435, 'UNSPECIFIED' ) ;
#228 = DIRECTION ( 'NONE',  ( 1.210905014603419013E-15, -1.000000000000000000, -0.000000000000000000 ) ) ;
#229 = ORIENTED_EDGE ( 'NONE', *, *, #522, .T. ) ;
#230 = CYLINDRICAL_SURFACE ( 'NONE', #37, 12.49999999999973177 ) ;
#231 = CARTESIAN_POINT ( 'NONE',  ( 2.491062911502695795E-12, -50.00000000000059686, 0.000000000000000000 ) ) ;
#232 = ORIENTED_EDGE ( 'NONE', *, *, #575, .F. ) ;
#233 = AXIS2_PLACEMENT_3D ( 'NONE', #819, #22, #551 ) ;
#234 = CARTESIAN_POINT ( 'NONE',  ( -7.499999999996893152, -560.0000000000000000, 9.184850993605149917E-16 ) ) ;
#235 = CARTESIAN_POINT ( 'NONE',  ( -24.99999999999736744, -34.99999999999980815, -15.00000000000000000 ) ) ;
#236 = ADVANCED_FACE ( 'NONE', ( #268 ), #531, .T. ) ;
#237 = ORIENTED_EDGE ( 'NONE', *, *, #82, .F. ) ;
#238 = PRODUCT_RELATED_PRODUCT_CATEGORY ( 'detail', '', ( #570 ) ) ;
#239 = VECTOR ( 'NONE', #202, 1000.000000000000000 ) ;
#240 = CARTESIAN_POINT ( 'NONE',  ( 17.50000000000310862, -560.0000000000000000, 0.000000000000000000 ) ) ;
#241 = DIRECTION ( 'NONE',  ( 1.000000000000000000, 0.000000000000000000, -0.000000000000000000 ) ) ;
#242 = VERTEX_POINT ( 'NONE', #670 ) ;
#243 = CYLINDRICAL_SURFACE ( 'NONE', #614, 22.49999999999998579 ) ;
#244 = DIRECTION ( 'NONE',  ( 1.210905014603419013E-15, -1.000000000000000000, -0.000000000000000000 ) ) ;
#245 = CARTESIAN_POINT ( 'NONE',  ( 35.00000000000321165, 2.558211678136527841E-13, 15.00000000000000000 ) ) ;
#246 = EDGE_CURVE ( 'NONE', #59, #273, #699, .T. ) ;
#247 = CARTESIAN_POINT ( 'NONE',  ( 3.108624468950438717E-12, -560.0000000000000000, 0.000000000000000000 ) ) ;
#248 = VECTOR ( 'NONE', #374, 1000.000000000000000 ) ;
#249 = CARTESIAN_POINT ( 'NONE',  ( 2.472899336283643547E-12, -35.00000000000014211, 0.000000000000000000 ) ) ;
#250 = CIRCLE ( 'NONE', #736, 32.50000000000000000 ) ;
#251 = ORIENTED_EDGE ( 'NONE', *, *, #484, .T. ) ;
#252 = AXIS2_PLACEMENT_3D ( 'NONE', #797, #199, #401 ) ;
#253 = ORIENTED_EDGE ( 'NONE', *, *, #649, .T. ) ;
#254 = CALENDAR_DATE ( 2026, 28, 1 ) ;
#255 = FACE_OUTER_BOUND ( 'NONE', #282, .T. ) ;
#256 = CARTESIAN_POINT ( 'NONE',  ( -33.10810810810546911, -11.35135135135138107, 15.00000000000000000 ) ) ;
#257 = VECTOR ( 'NONE', #406, 1000.000000000000000 ) ;
#258 = CARTESIAN_POINT ( 'NONE',  ( 33.10810810811101845, -11.35135135135206852, 15.00000000000000000 ) ) ;
#259 = DIRECTION ( 'NONE',  ( -0.000000000000000000, -0.000000000000000000, -1.000000000000000000 ) ) ;
#260 = ORIENTED_EDGE ( 'NONE', *, *, #678, .F. ) ;
#261 = DIRECTION ( 'NONE',  ( -1.000000000000000000, -1.210905014603419013E-15, 0.000000000000000000 ) ) ;
#262 = SECURITY_CLASSIFICATION ( '', '', #482 ) ;
#263 = CARTESIAN_POINT ( 'NONE',  ( 7.500000000003110401, -560.0000000000000000, 0.000000000000000000 ) ) ;
#264 = EDGE_CURVE ( 'NONE', #686, #130, #432, .T. ) ;
#265 = ORIENTED_EDGE ( 'NONE', *, *, #712, .F. ) ;
#266 = EDGE_CURVE ( 'NONE', #496, #380, #512, .T. ) ;
#267 = CARTESIAN_POINT ( 'NONE',  ( -24.99999999999736744, -34.99999999999980815, 15.00000000000000000 ) ) ;
#268 = FACE_OUTER_BOUND ( 'NONE', #812, .T. ) ;
#269 = VECTOR ( 'NONE', #58, 1000.000000000000000 ) ;
#270 = ORIENTED_EDGE ( 'NONE', *, *, #82, .T. ) ;
#271 = DIRECTION ( 'NONE',  ( 1.210905014603419013E-15, -1.000000000000000000, -0.000000000000000000 ) ) ;
#272 = CARTESIAN_POINT ( 'NONE',  ( -33.10810810810546911, -11.35135135135135087, 15.00000000000000000 ) ) ;
#273 = VERTEX_POINT ( 'NONE', #352 ) ;
#274 = EDGE_CURVE ( 'NONE', #788, #242, #180, .T. ) ;
#275 = FACE_OUTER_BOUND ( 'NONE', #563, .T. ) ;
#276 = DIRECTION ( 'NONE',  ( 1.000000000000000000, 1.982541115402422267E-15, 0.000000000000000000 ) ) ;
#277 = VECTOR ( 'NONE', #707, 1000.000000000000114 ) ;
#278 = EDGE_LOOP ( 'NONE', ( #731, #823, #757, #192 ) ) ;
#279 = CIRCLE ( 'NONE', #820, 32.50000000000000000 ) ;
#280 = DIRECTION ( 'NONE',  ( -0.000000000000000000, -0.000000000000000000, -1.000000000000000000 ) ) ;
#281 = FACE_OUTER_BOUND ( 'NONE', #76, .T. ) ;
#282 = EDGE_LOOP ( 'NONE', ( #43, #599, #499, #548 ) ) ;
#283 = CARTESIAN_POINT ( 'NONE',  ( 2.886579864025407005E-12, 2.515349040166370287E-13, 15.00000000000000000 ) ) ;
#284 = FACE_OUTER_BOUND ( 'NONE', #346, .T. ) ;
#285 = ORIENTED_EDGE ( 'NONE', *, *, #418, .F. ) ;
#286 = PERSON_AND_ORGANIZATION ( #313, #600 ) ;
#287 = DIRECTION ( 'NONE',  ( 1.000000000000000000, 0.000000000000000000, 0.000000000000000000 ) ) ;
#288 = DIRECTION ( 'NONE',  ( -0.000000000000000000, -0.000000000000000000, -1.000000000000000000 ) ) ;
#289 = VERTEX_POINT ( 'NONE', #498 ) ;
#290 = VECTOR ( 'NONE', #622, 1000.000000000000000 ) ;
#291 = AXIS2_PLACEMENT_3D ( 'NONE', #431, #700, #100 ) ;
#292 = CC_DESIGN_PERSON_AND_ORGANIZATION_ASSIGNMENT ( #205, #549, ( #262 ) ) ;
#293 = CARTESIAN_POINT ( 'NONE',  ( 35.00000000000321165, 2.558211678136527841E-13, 15.00000000000000000 ) ) ;
#294 = VECTOR ( 'NONE', #449, 1000.000000000000000 ) ;
#295 = FACE_BOUND ( 'NONE', #181, .T. ) ;
#296 = VERTEX_POINT ( 'NONE', #420 ) ;
#297 = CARTESIAN_POINT ( 'NONE',  ( 2.886579864025407005E-12, 2.515349040166370287E-13, 15.00000000000000000 ) ) ;
#298 = DIRECTION ( 'NONE',  ( -1.000000000000000000, 0.000000000000000000, 0.000000000000000000 ) ) ;
#299 = ORIENTED_EDGE ( 'NONE', *, *, #171, .F. ) ;
#300 = DIRECTION ( 'NONE',  ( 0.000000000000000000, 0.000000000000000000, 1.000000000000000000 ) ) ;
#301 = ADVANCED_FACE ( 'NONE', ( #632 ), #150, .T. ) ;
#302 = DIRECTION ( 'NONE',  ( 1.000000000000000000, -1.110223024625163009E-14, 0.000000000000000000 ) ) ;
#303 = ADVANCED_FACE ( 'NONE', ( #571 ), #217, .T. ) ;
#304 = VERTEX_POINT ( 'NONE', #763 ) ;
#305 = AXIS2_PLACEMENT_3D ( 'NONE', #90, #18, #479 ) ;
#306 = APPROVAL_ROLE ( '' ) ;
#307 = CARTESIAN_POINT ( 'NONE',  ( 2.886579864025407005E-12, 2.515349040166370287E-13, 15.00000000000000000 ) ) ;
#308 = DIRECTION ( 'NONE',  ( 1.000000000000000000, 0.000000000000000000, 0.000000000000000000 ) ) ;
#309 = CARTESIAN_POINT ( 'NONE',  ( 12.50000000000261835, 2.530657125155711802E-13, -15.00000000000000000 ) ) ;
#310 = ORIENTED_EDGE ( 'NONE', *, *, #316, .T. ) ;
#311 = PERSON_AND_ORGANIZATION_ROLE ( 'creator' ) ;
#312 = DIRECTION ( 'NONE',  ( -0.000000000000000000, -0.000000000000000000, -1.000000000000000000 ) ) ;
#313 = PERSON ( 'UNSPECIFIED', 'UNSPECIFIED', 'UNSPECIFIED', ('UNSPECIFIED'), ('UNSPECIFIED'), ('UNSPECIFIED') ) ;
#314 = ORIENTED_EDGE ( 'NONE', *, *, #84, .F. ) ;
#315 = APPROVAL_DATE_TIME ( #578, #227 ) ;
#316 = EDGE_CURVE ( 'NONE', #671, #357, #97, .T. ) ;
#317 = CARTESIAN_POINT ( 'NONE',  ( -33.10810810810546911, -11.35135135135135087, 15.00000000000000000 ) ) ;
#318 = LOCAL_TIME ( 13, 25, 52.00000000000000000, #113 ) ;
#319 = LINE ( 'NONE', #245, #593 ) ;
#320 = AXIS2_PLACEMENT_3D ( 'NONE', #177, #383, #119 ) ;
#321 = VERTEX_POINT ( 'NONE', #88 ) ;
#322 = CARTESIAN_POINT ( 'NONE',  ( 32.50000000000311218, -559.9999999999998863, 0.000000000000000000 ) ) ;
#323 = CARTESIAN_POINT ( 'NONE',  ( 2.886579864025407005E-12, 2.515349040166370287E-13, 15.00000000000000000 ) ) ;
#324 = EDGE_CURVE ( 'NONE', #646, #65, #500, .T. ) ;
#325 = DIRECTION ( 'NONE',  ( 0.3243243243243488783, 0.9459459459459375053, 0.000000000000000000 ) ) ;
#326 = CARTESIAN_POINT ( 'NONE',  ( 2.491062911502694988E-12, -50.00000000000004263, 0.000000000000000000 ) ) ;
#327 = VERTEX_POINT ( 'NONE', #567 ) ;
#328 = CARTESIAN_POINT ( 'NONE',  ( 2.491062911502694988E-12, -50.00000000000004263, 0.000000000000000000 ) ) ;
#329 = CIRCLE ( 'NONE', #233, 7.500000000000001776 ) ;
#330 = CARTESIAN_POINT ( 'NONE',  ( 3.145220706178490888E-12, -590.2222195685906172, 0.000000000000000000 ) ) ;
#331 = ORIENTED_EDGE ( 'NONE', *, *, #718, .T. ) ;
#332 = AXIS2_PLACEMENT_3D ( 'NONE', #249, #169, #647 ) ;
#333 = FACE_OUTER_BOUND ( 'NONE', #341, .T. ) ;
#334 = CARTESIAN_POINT ( 'NONE',  ( 3.157329756324524912E-12, -600.2222195685907309, 0.000000000000000000 ) ) ;
#335 = AXIS2_PLACEMENT_3D ( 'NONE', #674, #410, #79 ) ;
#336 = ORIENTED_EDGE ( 'NONE', *, *, #182, .F. ) ;
#337 = APPROVAL_DATE_TIME ( #816, #755 ) ;
#338 = EDGE_CURVE ( 'NONE', #394, #752, #221, .T. ) ;
#339 = DIRECTION ( 'NONE',  ( 1.000000000000000000, 0.000000000000000000, 0.000000000000000000 ) ) ;
#340 = LINE ( 'NONE', #263, #71 ) ;
#341 = EDGE_LOOP ( 'NONE', ( #747, #636, #237, #741, #722, #776 ) ) ;
#342 = PERSON_AND_ORGANIZATION_ROLE ( 'creator' ) ;
#343 = FACE_OUTER_BOUND ( 'NONE', #176, .T. ) ;
#344 = CARTESIAN_POINT ( 'NONE',  ( 3.108624468950438717E-12, -560.0000000000000000, 0.000000000000000000 ) ) ;
#345 = CIRCLE ( 'NONE', #501, 35.00000000000031974 ) ;
#346 = EDGE_LOOP ( 'NONE', ( #815, #229, #86, #265 ) ) ;
#347 = CARTESIAN_POINT ( 'NONE',  ( 2.886579864025407005E-12, 2.515349040166370287E-13, 15.00000000000000000 ) ) ;
#348 = DIRECTION ( 'NONE',  ( 1.210905014603419013E-15, -1.000000000000000000, -0.000000000000000000 ) ) ;
#349 = EDGE_LOOP ( 'NONE', ( #389, #648, #270, #336 ) ) ;
#350 = COORDINATED_UNIVERSAL_TIME_OFFSET ( 1, 0, .AHEAD. ) ;
#351 = CARTESIAN_POINT ( 'NONE',  ( -13.49999999999753264, -34.99999999999999289, 1.653273178848928839E-15 ) ) ;
#352 = CARTESIAN_POINT ( 'NONE',  ( -32.49999999999681677, -600.2222195685907309, 3.980102097228895470E-15 ) ) ;
#353 = ORIENTED_EDGE ( 'NONE', *, *, #175, .F. ) ;
#354 = APPROVAL ( #637, 'UNSPECIFIED' ) ;
#355 = PLANE ( 'NONE',  #667 ) ;
#356 = CARTESIAN_POINT ( 'NONE',  ( 2.503171961648728608E-12, -59.99999999999927525, 0.000000000000000000 ) ) ;
#357 = VERTEX_POINT ( 'NONE', #821 ) ;
#358 = AXIS2_PLACEMENT_3D ( 'NONE', #328, #601, #523 ) ;
#359 = CIRCLE ( 'NONE', #305, 12.49999999999973177 ) ;
#360 = DIRECTION ( 'NONE',  ( -0.000000000000000000, -0.000000000000000000, -1.000000000000000000 ) ) ;
#361 = CIRCLE ( 'NONE', #474, 7.500000000000001776 ) ;
#362 = CARTESIAN_POINT ( 'NONE',  ( 2.472899336283643547E-12, -35.00000000000014211, 0.000000000000000000 ) ) ;
#363 = ORIENTED_EDGE ( 'NONE', *, *, #630, .T. ) ;
#364 = EDGE_CURVE ( 'NONE', #15, #304, #657, .T. ) ;
#365 = VECTOR ( 'NONE', #855, 1000.000000000000000 ) ;
#366 = DIRECTION ( 'NONE',  ( 1.000000000000000000, 0.000000000000000000, 0.000000000000000000 ) ) ;
#367 = CARTESIAN_POINT ( 'NONE',  ( 7.500000000002504663, -59.99999999999926814, 0.000000000000000000 ) ) ;
#368 = VERTEX_POINT ( 'NONE', #33 ) ;
#369 = PERSON_AND_ORGANIZATION_ROLE ( 'design_owner' ) ;
#370 = CARTESIAN_POINT ( 'NONE',  ( -22.49999999999687361, -570.0000000000001137, 2.755455298081545172E-15 ) ) ;
#371 = ORIENTED_EDGE ( 'NONE', *, *, #28, .T. ) ;
#372 = APPROVAL_PERSON_ORGANIZATION ( #542, #755, #682 ) ;
#373 = DIRECTION ( 'NONE',  ( 1.210905014603419013E-15, -1.000000000000000000, -0.000000000000000000 ) ) ;
#374 = DIRECTION ( 'NONE',  ( -0.000000000000000000, -0.000000000000000000, -1.000000000000000000 ) ) ;
#375 = ORIENTED_EDGE ( 'NONE', *, *, #44, .F. ) ;
#376 = ORIENTED_EDGE ( 'NONE', *, *, #559, .F. ) ;
#377 = AXIS2_PLACEMENT_3D ( 'NONE', #133, #64, #743 ) ;
#378 = FACE_OUTER_BOUND ( 'NONE', #503, .T. ) ;
#379 = CYLINDRICAL_SURFACE ( 'NONE', #777, 7.500000000000001776 ) ;
#380 = VERTEX_POINT ( 'NONE', #619 ) ;
#381 = EDGE_LOOP ( 'NONE', ( #459, #466, #191, #827 ) ) ;
#382 = ADVANCED_FACE ( 'NONE', ( #284 ), #101, .F. ) ;
#383 = DIRECTION ( 'NONE',  ( 1.210905014603419013E-15, -1.000000000000000000, -0.000000000000000000 ) ) ;
#384 = DIRECTION ( 'NONE',  ( 1.210905014603419013E-15, -1.000000000000000000, -0.000000000000000000 ) ) ;
#385 =( NAMED_UNIT ( * ) PLANE_ANGLE_UNIT ( ) SI_UNIT ( $, .RADIAN. ) );
#386 = FACE_BOUND ( 'NONE', #170, .T. ) ;
#387 = VECTOR ( 'NONE', #325, 1000.000000000000114 ) ;
#388 = VERTEX_POINT ( 'NONE', #367 ) ;
#389 = ORIENTED_EDGE ( 'NONE', *, *, #27, .F. ) ;
#390 = EDGE_CURVE ( 'NONE', #686, #646, #635, .T. ) ;
#391 = LINE ( 'NONE', #659, #387 ) ;
#392 = EDGE_CURVE ( 'NONE', #296, #388, #629, .T. ) ;
#393 = CARTESIAN_POINT ( 'NONE',  ( 3.108624468950438717E-12, -560.0000000000000000, 0.000000000000000000 ) ) ;
#394 = VERTEX_POINT ( 'NONE', #157 ) ;
#395 = ADVANCED_FACE ( 'NONE', ( #423, #295 ), #562, .F. ) ;
#396 = CARTESIAN_POINT ( 'NONE',  ( -24.99999999999736744, -34.99999999999980815, -15.00000000000000000 ) ) ;
#397 = FACE_OUTER_BOUND ( 'NONE', #211, .T. ) ;
#398 = EDGE_LOOP ( 'NONE', ( #128, #536 ) ) ;
#399 = PLANE ( 'NONE',  #404 ) ;
#400 = ADVANCED_FACE ( 'NONE', ( #760 ), #160, .F. ) ;
#401 = DIRECTION ( 'NONE',  ( 1.000000000000000000, 0.000000000000000000, 0.000000000000000000 ) ) ;
#402 = ORIENTED_EDGE ( 'NONE', *, *, #507, .T. ) ;
#403 = CALENDAR_DATE ( 2026, 28, 1 ) ;
#404 = AXIS2_PLACEMENT_3D ( 'NONE', #267, #724, #606 ) ;
#405 = FACE_BOUND ( 'NONE', #398, .T. ) ;
#406 = DIRECTION ( 'NONE',  ( -0.000000000000000000, -0.000000000000000000, -1.000000000000000000 ) ) ;
#407 = VERTEX_POINT ( 'NONE', #439 ) ;
#408 = ADVANCED_FACE ( 'NONE', ( #255 ), #656, .T. ) ;
#409 = PLANE ( 'NONE',  #627 ) ;
#410 = DIRECTION ( 'NONE',  ( 1.210905014603419013E-15, -1.000000000000000000, -0.000000000000000000 ) ) ;
#411 = VERTEX_POINT ( 'NONE', #322 ) ;
#412 = DIRECTION ( 'NONE',  ( 1.000000000000000000, 0.000000000000000000, 0.000000000000000000 ) ) ;
#413 = DIRECTION ( 'NONE',  ( 1.210905014603419013E-15, -1.000000000000000000, -0.000000000000000000 ) ) ;
#414 = CC_DESIGN_APPROVAL ( #354, ( #765 ) ) ;
#415 = VERTEX_POINT ( 'NONE', #370 ) ;
#416 = EDGE_CURVE ( 'NONE', #242, #788, #98, .T. ) ;
#417 = CARTESIAN_POINT ( 'NONE',  ( 2.886579864025407005E-12, 2.515349040166370287E-13, -15.00000000000000000 ) ) ;
#418 = EDGE_CURVE ( 'NONE', #380, #496, #822, .T. ) ;
#419 = EDGE_CURVE ( 'NONE', #388, #296, #361, .T. ) ;
#420 = CARTESIAN_POINT ( 'NONE',  ( -7.499999999997497113, -59.99999999999928235, 9.184850993605526598E-16 ) ) ;
#421 = ORIENTED_EDGE ( 'NONE', *, *, #727, .T. ) ;
#422 = FACE_OUTER_BOUND ( 'NONE', #424, .T. ) ;
#423 = FACE_OUTER_BOUND ( 'NONE', #734, .T. ) ;
#424 = EDGE_LOOP ( 'NONE', ( #105, #402 ) ) ;
#425 = CARTESIAN_POINT ( 'NONE',  ( 2.886579864025407005E-12, 2.515349040166370287E-13, -15.00000000000000000 ) ) ;
#426 = PRODUCT_DEFINITION_SHAPE ( 'NONE', 'NONE',  #137 ) ;
#427 = CARTESIAN_POINT ( 'NONE',  ( 2.485008386429677571E-12, -44.99999999999981526, 0.000000000000000000 ) ) ;
#428 = EDGE_CURVE ( 'NONE', #407, #357, #840, .T. ) ;
#429 = ORIENTED_EDGE ( 'NONE', *, *, #12, .F. ) ;
#430 = AXIS2_PLACEMENT_3D ( 'NONE', #159, #687, #490 ) ;
#431 = CARTESIAN_POINT ( 'NONE',  ( 3.108624468950438717E-12, -560.0000000000000000, 0.000000000000000000 ) ) ;
#432 = CIRCLE ( 'NONE', #21, 3.499999999999916067 ) ;
#433 = DIRECTION ( 'NONE',  ( 1.210905014603419013E-15, -1.000000000000000000, -0.000000000000000000 ) ) ;
#434 = ORIENTED_EDGE ( 'NONE', *, *, #209, .T. ) ;
#435 = APPROVAL_STATUS ( 'not_yet_approved' ) ;
#436 = DIRECTION ( 'NONE',  ( 1.210905014603419013E-15, -1.000000000000000000, -0.000000000000000000 ) ) ;
#437 = ORIENTED_EDGE ( 'NONE', *, *, #703, .F. ) ;
#438 =( LENGTH_UNIT ( ) NAMED_UNIT ( * ) SI_UNIT ( .MILLI., .METRE. ) );
#439 = CARTESIAN_POINT ( 'NONE',  ( 25.00000000000234479, -35.00000000000036238, 15.00000000000000000 ) ) ;
#440 = CARTESIAN_POINT ( 'NONE',  ( -22.49999999999687716, -560.0000000000000000, 2.755455298081542806E-15 ) ) ;
#441 = ORIENTED_EDGE ( 'NONE', *, *, #428, .T. ) ;
#442 = CIRCLE ( 'NONE', #487, 35.00000000000031974 ) ;
#443 = CARTESIAN_POINT ( 'NONE',  ( 0.000000000000000000, 0.000000000000000000, 0.000000000000000000 ) ) ;
#444 = CARTESIAN_POINT ( 'NONE',  ( 33.10810810811101845, -11.35135135135206852, 15.00000000000000000 ) ) ;
#445 = AXIS2_PLACEMENT_3D ( 'NONE', #833, #502, #556 ) ;
#446 = ORIENTED_EDGE ( 'NONE', *, *, #416, .T. ) ;
#447 = EDGE_LOOP ( 'NONE', ( #375, #481, #251, #89 ) ) ;
#448 = DIRECTION ( 'NONE',  ( 1.000000000000000000, 0.000000000000000000, 0.000000000000000000 ) ) ;
#449 = DIRECTION ( 'NONE',  ( -0.000000000000000000, -0.000000000000000000, -1.000000000000000000 ) ) ;
#450 = CARTESIAN_POINT ( 'NONE',  ( -17.49999999999689138, -560.0000000000000000, 2.143131898507868248E-15 ) ) ;
#451 = VERTEX_POINT ( 'NONE', #582 ) ;
#452 = DATE_AND_TIME ( #254, #790 ) ;
#453 = DIRECTION ( 'NONE',  ( -1.210905014603419013E-15, 1.000000000000000000, 0.000000000000000000 ) ) ;
#454 = CARTESIAN_POINT ( 'NONE',  ( -22.49999999999682743, -590.2222195685906172, 2.755455298081542017E-15 ) ) ;
#455 = ADVANCED_FACE ( 'NONE', ( #773 ), #705, .F. ) ;
#456 = CC_DESIGN_PERSON_AND_ORGANIZATION_ASSIGNMENT ( #676, #4, ( #765 ) ) ;
#457 = PLANE ( 'NONE',  #94 ) ;
#458 = EDGE_CURVE ( 'NONE', #130, #686, #591, .T. ) ;
#459 = ORIENTED_EDGE ( 'NONE', *, *, #14, .F. ) ;
#460 = VERTEX_POINT ( 'NONE', #444 ) ;
#461 = CARTESIAN_POINT ( 'NONE',  ( -3.499999999996866507, -59.99999999999872813, 4.286263797015131637E-16 ) ) ;
#462 = DIRECTION ( 'NONE',  ( 1.210905014603419013E-15, -1.000000000000000000, -0.000000000000000000 ) ) ;
#463 = ORIENTED_EDGE ( 'NONE', *, *, #546, .T. ) ;
#464 = DIRECTION ( 'NONE',  ( 1.000000000000000000, 0.000000000000000000, 0.000000000000000000 ) ) ;
#465 = PLANE ( 'NONE',  #55 ) ;
#466 = ORIENTED_EDGE ( 'NONE', *, *, #418, .T. ) ;
#467 = EDGE_CURVE ( 'NONE', #122, #158, #42, .T. ) ;
#468 = LINE ( 'NONE', #530, #178 ) ;
#469 = AXIS2_PLACEMENT_3D ( 'NONE', #46, #244, #579 ) ;
#470 = CIRCLE ( 'NONE', #539, 35.00000000000031974 ) ;
#471 = CARTESIAN_POINT ( 'NONE',  ( -24.99999999999736744, -34.99999999999980815, 15.00000000000000000 ) ) ;
#472 = CC_DESIGN_PERSON_AND_ORGANIZATION_ASSIGNMENT ( #286, #342, ( #765 ) ) ;
#473 = ORIENTED_EDGE ( 'NONE', *, *, #390, .T. ) ;
#474 = AXIS2_PLACEMENT_3D ( 'NONE', #510, #436, #520 ) ;
#475 = DIRECTION ( 'NONE',  ( -0.3243243243243488783, -0.9459459459459375053, 0.000000000000000000 ) ) ;
#476 = AXIS2_PLACEMENT_3D ( 'NONE', #393, #811, #194 ) ;
#477 = FACE_OUTER_BOUND ( 'NONE', #506, .T. ) ;
#478 = ORIENTED_EDGE ( 'NONE', *, *, #12, .T. ) ;
#479 = DIRECTION ( 'NONE',  ( 1.000000000000000000, 0.000000000000000000, 0.000000000000000000 ) ) ;
#480 = CYLINDRICAL_SURFACE ( 'NONE', #377, 35.00000000000031974 ) ;
#481 = ORIENTED_EDGE ( 'NONE', *, *, #727, .F. ) ;
#482 = SECURITY_CLASSIFICATION_LEVEL ( 'unclassified' ) ;
#483 = ADVANCED_FACE ( 'NONE', ( #639 ), #173, .F. ) ;
#484 = EDGE_CURVE ( 'NONE', #460, #726, #854, .T. ) ;
#485 = DIRECTION ( 'NONE',  ( -1.000000000000000000, 0.000000000000000000, 0.000000000000000000 ) ) ;
#486 = DIRECTION ( 'NONE',  ( -1.000000000000000000, 0.000000000000000000, 0.000000000000000000 ) ) ;
#487 = AXIS2_PLACEMENT_3D ( 'NONE', #425, #621, #412 ) ;
#488 = ORIENTED_EDGE ( 'NONE', *, *, #246, .T. ) ;
#489 = CIRCLE ( 'NONE', #806, 22.49999999999997513 ) ;
#490 = DIRECTION ( 'NONE',  ( 1.000000000000000000, 1.210905014603419013E-15, 0.000000000000000000 ) ) ;
#491 = CARTESIAN_POINT ( 'NONE',  ( 3.120733519096472742E-12, -570.0000000000002274, 0.000000000000000000 ) ) ;
#492 = ORIENTED_EDGE ( 'NONE', *, *, #209, .F. ) ;
#493 = CARTESIAN_POINT ( 'NONE',  ( -12.49999999999684519, 2.515349040166370287E-13, 15.00000000000000000 ) ) ;
#494 = ADVANCED_FACE ( 'NONE', ( #713 ), #379, .F. ) ;
#495 = DIRECTION ( 'NONE',  ( 1.000000000000000000, 1.210905014603419013E-15, 0.000000000000000000 ) ) ;
#496 = VERTEX_POINT ( 'NONE', #125 ) ;
#497 = DIRECTION ( 'NONE',  ( -0.000000000000000000, -0.000000000000000000, -1.000000000000000000 ) ) ;
#498 = CARTESIAN_POINT ( 'NONE',  ( 22.50000000000312284, -590.2222195685906172, 0.000000000000000000 ) ) ;
#499 = ORIENTED_EDGE ( 'NONE', *, *, #54, .T. ) ;
#500 = CIRCLE ( 'NONE', #445, 3.499999999999369837 ) ;
#501 = AXIS2_PLACEMENT_3D ( 'NONE', #347, #29, #366 ) ;
#502 = DIRECTION ( 'NONE',  ( 1.210905014603419013E-15, -1.000000000000000000, -0.000000000000000000 ) ) ;
#503 = EDGE_LOOP ( 'NONE', ( #429, #314, #702, #434 ) ) ;
#504 = DIRECTION ( 'NONE',  ( 1.210905014603419013E-15, -1.000000000000000000, -0.000000000000000000 ) ) ;
#505 = LINE ( 'NONE', #771, #248 ) ;
#506 = EDGE_LOOP ( 'NONE', ( #706, #803, #437, #134 ) ) ;
#507 = EDGE_CURVE ( 'NONE', #415, #112, #602, .T. ) ;
#508 = DIRECTION ( 'NONE',  ( 1.210905014603419013E-15, -1.000000000000000000, -0.000000000000000000 ) ) ;
#509 = CC_DESIGN_DATE_AND_TIME_ASSIGNMENT ( #452, #719, ( #137 ) ) ;
#510 = CARTESIAN_POINT ( 'NONE',  ( 2.503171961648728608E-12, -59.99999999999927525, 0.000000000000000000 ) ) ;
#511 = VERTEX_POINT ( 'NONE', #716 ) ;
#512 = CIRCLE ( 'NONE', #860, 17.50000000000000000 ) ;
#513 = AXIS2_PLACEMENT_3D ( 'NONE', #810, #156, #287 ) ;
#514 = DIRECTION ( 'NONE',  ( 1.210905014603419013E-15, -1.000000000000000000, -0.000000000000000000 ) ) ;
#515 = DIRECTION ( 'NONE',  ( 1.000000000000000000, 0.000000000000000000, 0.000000000000000000 ) ) ;
#516 = AXIS2_PLACEMENT_3D ( 'NONE', #57, #108, #50 ) ;
#517 = DIRECTION ( 'NONE',  ( 1.210905014603419013E-15, -1.000000000000000000, -0.000000000000000000 ) ) ;
#518 = VERTEX_POINT ( 'NONE', #309 ) ;
#519 = ADVANCED_FACE ( 'NONE', ( #848, #386 ), #651, .T. ) ;
#520 = DIRECTION ( 'NONE',  ( 1.000000000000000000, 9.251858538542969855E-16, 0.000000000000000000 ) ) ;
#521 = CARTESIAN_POINT ( 'NONE',  ( 32.50000000000313349, -600.2222195685907309, 0.000000000000000000 ) ) ;
#522 = EDGE_CURVE ( 'NONE', #9, #518, #505, .T. ) ;
#523 = DIRECTION ( 'NONE',  ( 1.000000000000000000, 1.027984282060350472E-15, 0.000000000000000000 ) ) ;
#524 = ORIENTED_EDGE ( 'NONE', *, *, #28, .F. ) ;
#525 = APPLICATION_CONTEXT ( 'configuration controlled 3d designs of mechanical parts and assemblies' ) ;
#526 = VECTOR ( 'NONE', #172, 1000.000000000000000 ) ;
#527 = CARTESIAN_POINT ( 'NONE',  ( -33.10810810810546911, -11.35135135135138107, -15.00000000000000000 ) ) ;
#528 = CARTESIAN_POINT ( 'NONE',  ( 22.50000000000311218, -570.0000000000001137, 0.000000000000000000 ) ) ;
#529 = ORIENTED_EDGE ( 'NONE', *, *, #662, .F. ) ;
#530 = CARTESIAN_POINT ( 'NONE',  ( 3.500000000002751577, -560.0000000000000000, 0.000000000000000000 ) ) ;
#531 = CYLINDRICAL_SURFACE ( 'NONE', #252, 32.49999999999998579 ) ;
#532 = VERTEX_POINT ( 'NONE', #644 ) ;
#533 = LINE ( 'NONE', #784, #844 ) ;
#534 = EDGE_CURVE ( 'NONE', #368, #714, #735, .T. ) ;
#535 = CARTESIAN_POINT ( 'NONE',  ( -24.99999999999736744, -34.99999999999980815, 15.00000000000000000 ) ) ;
#536 = ORIENTED_EDGE ( 'NONE', *, *, #640, .T. ) ;
#537 = CARTESIAN_POINT ( 'NONE',  ( 3.108624468950438717E-12, -559.9999999999998863, 0.000000000000000000 ) ) ;
#538 = AXIS2_PLACEMENT_3D ( 'NONE', #307, #837, #241 ) ;
#539 = AXIS2_PLACEMENT_3D ( 'NONE', #634, #683, #745 ) ;
#540 = DIRECTION ( 'NONE',  ( 0.000000000000000000, 0.000000000000000000, 1.000000000000000000 ) ) ;
#541 = ORIENTED_EDGE ( 'NONE', *, *, #522, .F. ) ;
#542 = PERSON_AND_ORGANIZATION ( #313, #600 ) ;
#543 = AXIS2_PLACEMENT_3D ( 'NONE', #362, #19, #91 ) ;
#544 = LINE ( 'NONE', #493, #557 ) ;
#545 = CIRCLE ( 'NONE', #661, 3.499999999999369837 ) ;
#546 = EDGE_CURVE ( 'NONE', #617, #671, #533, .T. ) ;
#547 = DIRECTION ( 'NONE',  ( 1.000000000000000000, 1.027984282060350472E-15, 0.000000000000000000 ) ) ;
#548 = ORIENTED_EDGE ( 'NONE', *, *, #534, .F. ) ;
#549 = PERSON_AND_ORGANIZATION_ROLE ( 'classification_officer' ) ;
#550 = ADVANCED_FACE ( 'NONE', ( #141, #189 ), #457, .F. ) ;
#551 = DIRECTION ( 'NONE',  ( 1.000000000000000000, 0.000000000000000000, 0.000000000000000000 ) ) ;
#552 = BREP_WITH_VOIDS ( 'NONE', #786, ( #791 ) );
#553 = CARTESIAN_POINT ( 'NONE',  ( 2.886579864025407005E-12, 2.515349040166370287E-13, 15.00000000000000000 ) ) ;
#554 = ORIENTED_EDGE ( 'NONE', *, *, #274, .F. ) ;
#555 = DIRECTION ( 'NONE',  ( 1.000000000000000000, 0.000000000000000000, 0.000000000000000000 ) ) ;
#556 = DIRECTION ( 'NONE',  ( 1.000000000000000000, 1.982541115402422267E-15, 0.000000000000000000 ) ) ;
#557 = VECTOR ( 'NONE', #360, 1000.000000000000000 ) ;
#558 = ORIENTED_EDGE ( 'NONE', *, *, #759, .F. ) ;
#559 = EDGE_CURVE ( 'NONE', #511, #273, #60, .T. ) ;
#560 = VECTOR ( 'NONE', #312, 1000.000000000000000 ) ;
#561 = CARTESIAN_POINT ( 'NONE',  ( 17.50000000000318323, -570.0000000000001137, 0.000000000000000000 ) ) ;
#562 = PLANE ( 'NONE',  #774 ) ;
#563 = EDGE_LOOP ( 'NONE', ( #161, #151, #127, #441 ) ) ;
#564 = AXIS2_PLACEMENT_3D ( 'NONE', #323, #652, #308 ) ;
#565 = EDGE_CURVE ( 'NONE', #788, #368, #861, .T. ) ;
#566 = DIRECTION ( 'NONE',  ( 1.210905014603419013E-15, -1.000000000000000000, -0.000000000000000000 ) ) ;
#567 = CARTESIAN_POINT ( 'NONE',  ( -12.49999999999684519, 2.515349040166370287E-13, -15.00000000000000000 ) ) ;
#568 = EDGE_LOOP ( 'NONE', ( #604, #167, #253, #421, #204, #331 ) ) ;
#569 = LINE ( 'NONE', #234, #654 ) ;
#570 = PRODUCT ( 'Cyl_rod_part_Default_sldprt', 'Cyl_rod_part_Default_sldprt', '', ( #118 ) ) ;
#571 = FACE_OUTER_BOUND ( 'NONE', #447, .T. ) ;
#572 = ORIENTED_EDGE ( 'NONE', *, *, #246, .F. ) ;
#573 = COORDINATED_UNIVERSAL_TIME_OFFSET ( 1, 0, .AHEAD. ) ;
#574 = DIRECTION ( 'NONE',  ( 1.210905014603419013E-15, -1.000000000000000000, -0.000000000000000000 ) ) ;
#575 = EDGE_CURVE ( 'NONE', #411, #59, #193, .T. ) ;
#576 = LINE ( 'NONE', #256, #365 ) ;
#577 = ADVANCED_FACE ( 'NONE', ( #673, #7 ), #399, .F. ) ;
#578 = DATE_AND_TIME ( #103, #318 ) ;
#579 = DIRECTION ( 'NONE',  ( 1.000000000000000000, 1.189524669241239066E-15, 0.000000000000000000 ) ) ;
#580 = ORIENTED_EDGE ( 'NONE', *, *, #565, .T. ) ;
#581 = APPLICATION_PROTOCOL_DEFINITION ( 'international standard', 'config_control_design', 1994, #721 ) ;
#582 = CARTESIAN_POINT ( 'NONE',  ( -34.99999999999743494, 2.515349040166370287E-13, 15.00000000000000000 ) ) ;
#583 = ORIENTED_EDGE ( 'NONE', *, *, #759, .T. ) ;
#584 = ORIENTED_EDGE ( 'NONE', *, *, #264, .F. ) ;
#585 = VECTOR ( 'NONE', #613, 1000.000000000000000 ) ;
#586 = EDGE_CURVE ( 'NONE', #80, #289, #25, .T. ) ;
#587 = VECTOR ( 'NONE', #504, 1000.000000000000000 ) ;
#588 =( NAMED_UNIT ( * ) SI_UNIT ( $, .STERADIAN. ) SOLID_ANGLE_UNIT ( ) );
#589 = CC_DESIGN_SECURITY_CLASSIFICATION ( #262, ( #765 ) ) ;
#590 = CARTESIAN_POINT ( 'NONE',  ( 3.120733519096472742E-12, -570.0000000000001137, 0.000000000000000000 ) ) ;
#591 = CIRCLE ( 'NONE', #111, 3.499999999999916067 ) ;
#592 = DIRECTION ( 'NONE',  ( 1.210905014603419013E-15, -1.000000000000000000, -0.000000000000000000 ) ) ;
#593 = VECTOR ( 'NONE', #259, 1000.000000000000000 ) ;
#594 = CARTESIAN_POINT ( 'NONE',  ( 25.00000000000234479, -35.00000000000036238, 15.00000000000000000 ) ) ;
#595 = CARTESIAN_POINT ( 'NONE',  ( 2.886579864025407005E-12, 2.515349040166370287E-13, -15.00000000000000000 ) ) ;
#596 = ORIENTED_EDGE ( 'NONE', *, *, #718, .F. ) ;
#597 = CARTESIAN_POINT ( 'NONE',  ( 32.50000000000309797, -590.2222195685906172, 0.000000000000000000 ) ) ;
#598 = DIRECTION ( 'NONE',  ( 1.210905014603419013E-15, -1.000000000000000000, -0.000000000000000000 ) ) ;
#599 = ORIENTED_EDGE ( 'NONE', *, *, #274, .T. ) ;
#600 = ORGANIZATION ( 'UNSPECIFIED', 'UNSPECIFIED', '' ) ;
#601 = DIRECTION ( 'NONE',  ( 1.210905014603419013E-15, -1.000000000000000000, -0.000000000000000000 ) ) ;
#602 = CIRCLE ( 'NONE', #626, 22.49999999999999289 ) ;
#603 = DIRECTION ( 'NONE',  ( 0.000000000000000000, 0.000000000000000000, 1.000000000000000000 ) ) ;
#604 = ORIENTED_EDGE ( 'NONE', *, *, #467, .T. ) ;
#605 = CIRCLE ( 'NONE', #224, 35.00000000000031974 ) ;
#606 = DIRECTION ( 'NONE',  ( -1.000000000000000000, 1.110223024625163009E-14, 0.000000000000000000 ) ) ;
#607 = CARTESIAN_POINT ( 'NONE',  ( -33.10810810810546911, -11.35135135135138107, 15.00000000000000000 ) ) ;
#608 = EDGE_LOOP ( 'NONE', ( #541, #53, #689, #623 ) ) ;
#609 = PLANE ( 'NONE',  #96 ) ;
#610 = DIRECTION ( 'NONE',  ( 1.000000000000000000, 0.000000000000000000, 0.000000000000000000 ) ) ;
#611 = ORIENTED_EDGE ( 'NONE', *, *, #416, .F. ) ;
#612 = EDGE_CURVE ( 'NONE', #357, #726, #391, .T. ) ;
#613 = DIRECTION ( 'NONE',  ( 1.210905014603419013E-15, -1.000000000000000000, -0.000000000000000000 ) ) ;
#614 = AXIS2_PLACEMENT_3D ( 'NONE', #247, #508, #124 ) ;
#615 = LOCAL_TIME ( 13, 25, 52.00000000000000000, #573 ) ;
#616 = DIRECTION ( 'NONE',  ( 1.000000000000000000, 0.000000000000000000, 0.000000000000000000 ) ) ;
#617 = VERTEX_POINT ( 'NONE', #527 ) ;
#618 = DIRECTION ( 'NONE',  ( 1.000000000000000000, 1.210905014603419013E-15, 0.000000000000000000 ) ) ;
#619 = CARTESIAN_POINT ( 'NONE',  ( -17.49999999999750599, -50.00000000000061817, 2.143131898507906113E-15 ) ) ;
#620 = ORIENTED_EDGE ( 'NONE', *, *, #704, .F. ) ;
#621 = DIRECTION ( 'NONE',  ( 0.000000000000000000, 0.000000000000000000, 1.000000000000000000 ) ) ;
#622 = DIRECTION ( 'NONE',  ( 1.210905014603419013E-15, -1.000000000000000000, -0.000000000000000000 ) ) ;
#623 = ORIENTED_EDGE ( 'NONE', *, *, #640, .F. ) ;
#624 = DIRECTION ( 'NONE',  ( 1.000000000000000000, 0.000000000000000000, 0.000000000000000000 ) ) ;
#625 = DIRECTION ( 'NONE',  ( 1.210905014603419013E-15, -1.000000000000000000, -0.000000000000000000 ) ) ;
#626 = AXIS2_PLACEMENT_3D ( 'NONE', #590, #778, #36 ) ;
#627 = AXIS2_PLACEMENT_3D ( 'NONE', #663, #805, #475 ) ;
#628 = ORIENTED_EDGE ( 'NONE', *, *, #109, .F. ) ;
#629 = CIRCLE ( 'NONE', #711, 7.500000000000001776 ) ;
#630 = EDGE_CURVE ( 'NONE', #130, #65, #468, .T. ) ;
#631 = FACE_OUTER_BOUND ( 'NONE', #608, .T. ) ;
#632 = FACE_OUTER_BOUND ( 'NONE', #633, .T. ) ;
#633 = EDGE_LOOP ( 'NONE', ( #446, #580, #299, #143 ) ) ;
#634 = CARTESIAN_POINT ( 'NONE',  ( 2.886579864025407005E-12, 2.515349040166370287E-13, -15.00000000000000000 ) ) ;
#635 = LINE ( 'NONE', #751, #290 ) ;
#636 = ORIENTED_EDGE ( 'NONE', *, *, #799, .F. ) ;
#637 = APPROVAL_STATUS ( 'not_yet_approved' ) ;
#638 = ADVANCED_FACE ( 'NONE', ( #343 ), #609, .T. ) ;
#639 = FACE_OUTER_BOUND ( 'NONE', #658, .T. ) ;
#640 = EDGE_CURVE ( 'NONE', #518, #327, #219, .T. ) ;
#641 = ORIENTED_EDGE ( 'NONE', *, *, #392, .F. ) ;
#642 = CC_DESIGN_APPROVAL ( #227, ( #137 ) ) ;
#643 = DIRECTION ( 'NONE',  ( 1.210905014603419013E-15, -1.000000000000000000, -0.000000000000000000 ) ) ;
#644 = CARTESIAN_POINT ( 'NONE',  ( -12.49999999999684519, 2.515349040166370287E-13, 15.00000000000000000 ) ) ;
#645 = FACE_OUTER_BOUND ( 'NONE', #381, .T. ) ;
#646 = VERTEX_POINT ( 'NONE', #461 ) ;
#647 = DIRECTION ( 'NONE',  ( -1.000000000000000000, 1.130782710266362623E-14, 0.000000000000000000 ) ) ;
#648 = ORIENTED_EDGE ( 'NONE', *, *, #44, .T. ) ;
#649 = EDGE_CURVE ( 'NONE', #407, #460, #871, .T. ) ;
#650 = PERSON_AND_ORGANIZATION ( #313, #600 ) ;
#651 = PLANE ( 'NONE',  #538 ) ;
#652 = DIRECTION ( 'NONE',  ( 0.000000000000000000, 0.000000000000000000, 1.000000000000000000 ) ) ;
#653 = AXIS2_PLACEMENT_3D ( 'NONE', #334, #348, #166 ) ;
#654 = VECTOR ( 'NONE', #373, 1000.000000000000000 ) ;
#655 = APPROVAL_DATE_TIME ( #56, #354 ) ;
#656 = CYLINDRICAL_SURFACE ( 'NONE', #516, 13.50000000000000711 ) ;
#657 = CIRCLE ( 'NONE', #207, 7.500000000000001776 ) ;
#658 = EDGE_LOOP ( 'NONE', ( #488, #117 ) ) ;
#659 = CARTESIAN_POINT ( 'NONE',  ( 25.00000000000234479, -35.00000000000036238, -15.00000000000000000 ) ) ;
#660 = DIRECTION ( 'NONE',  ( 1.210905014603419013E-15, -1.000000000000000000, -0.000000000000000000 ) ) ;
#661 = AXIS2_PLACEMENT_3D ( 'NONE', #807, #61, #276 ) ;
#662 = EDGE_CURVE ( 'NONE', #511, #411, #279, .T. ) ;
#663 = CARTESIAN_POINT ( 'NONE',  ( 25.00000000000234479, -35.00000000000036238, 15.00000000000000000 ) ) ;
#664 = CARTESIAN_POINT ( 'NONE',  ( 3.500000000002400746, -44.99999999999980815, 0.000000000000000000 ) ) ;
#665 = CC_DESIGN_PERSON_AND_ORGANIZATION_ASSIGNMENT ( #45, #311, ( #137 ) ) ;
#666 = ORIENTED_EDGE ( 'NONE', *, *, #704, .T. ) ;
#667 = AXIS2_PLACEMENT_3D ( 'NONE', #417, #694, #754 ) ;
#668 = DIRECTION ( 'NONE',  ( 1.000000000000000000, 0.000000000000000000, 0.000000000000000000 ) ) ;
#669 = VECTOR ( 'NONE', #302, 1000.000000000000000 ) ;
#670 = CARTESIAN_POINT ( 'NONE',  ( 13.50000000000247979, -35.00000000000029132, 0.000000000000000000 ) ) ;
#671 = VERTEX_POINT ( 'NONE', #396 ) ;
#672 = AXIS2_PLACEMENT_3D ( 'NONE', #595, #52, #110 ) ;
#673 = FACE_OUTER_BOUND ( 'NONE', #795, .T. ) ;
#674 = CARTESIAN_POINT ( 'NONE',  ( 3.120733519096472742E-12, -570.0000000000001137, 0.000000000000000000 ) ) ;
#675 = EDGE_LOOP ( 'NONE', ( #725, #174 ) ) ;
#676 = PERSON_AND_ORGANIZATION ( #313, #600 ) ;
#677 = ADVANCED_FACE ( 'NONE', ( #275 ), #409, .F. ) ;
#678 = EDGE_CURVE ( 'NONE', #158, #671, #144, .T. ) ;
#679 = DIRECTION ( 'NONE',  ( 1.210905014603419013E-15, -1.000000000000000000, -0.000000000000000000 ) ) ;
#680 = FACE_OUTER_BOUND ( 'NONE', #780, .T. ) ;
#681 = EDGE_LOOP ( 'NONE', ( #596, #856, #138, #524 ) ) ;
#682 = APPROVAL_ROLE ( '' ) ;
#683 = DIRECTION ( 'NONE',  ( 0.000000000000000000, 0.000000000000000000, 1.000000000000000000 ) ) ;
#684 = AXIS2_PLACEMENT_3D ( 'NONE', #106, #514, #770 ) ;
#685 = DIRECTION ( 'NONE',  ( 1.000000000000000000, 1.982541115402112639E-15, 0.000000000000000000 ) ) ;
#686 = VERTEX_POINT ( 'NONE', #68 ) ;
#687 = DIRECTION ( 'NONE',  ( 1.210905014603419013E-15, -1.000000000000000000, -0.000000000000000000 ) ) ;
#688 = CARTESIAN_POINT ( 'NONE',  ( 2.886579864025407005E-12, 2.515349040166370287E-13, 15.00000000000000000 ) ) ;
#689 = ORIENTED_EDGE ( 'NONE', *, *, #712, .T. ) ;
#690 = DIRECTION ( 'NONE',  ( 1.210905014603419013E-15, -1.000000000000000000, -0.000000000000000000 ) ) ;
#691 = DIRECTION ( 'NONE',  ( 1.000000000000000000, 0.000000000000000000, 0.000000000000000000 ) ) ;
#692 = ORIENTED_EDGE ( 'NONE', *, *, #586, .F. ) ;
#693 = ADVANCED_FACE ( 'NONE', ( #333, #405 ), #355, .F. ) ;
#694 = DIRECTION ( 'NONE',  ( 0.000000000000000000, 0.000000000000000000, 1.000000000000000000 ) ) ;
#695 = CARTESIAN_POINT ( 'NONE',  ( 3.108624468950438717E-12, -560.0000000000000000, 0.000000000000000000 ) ) ;
#696 = AXIS2_PLACEMENT_3D ( 'NONE', #814, #433, #691 ) ;
#697 = CIRCLE ( 'NONE', #684, 32.49999999999997158 ) ;
#698 = ORIENTED_EDGE ( 'NONE', *, *, #162, .T. ) ;
#699 = CIRCLE ( 'NONE', #653, 32.49999999999997158 ) ;
#700 = DIRECTION ( 'NONE',  ( 1.210905014603419013E-15, -1.000000000000000000, -0.000000000000000000 ) ) ;
#701 = DIRECTION ( 'NONE',  ( 1.210905014603419013E-15, -1.000000000000000000, -0.000000000000000000 ) ) ;
#702 = ORIENTED_EDGE ( 'NONE', *, *, #817, .T. ) ;
#703 = EDGE_CURVE ( 'NONE', #752, #394, #139, .T. ) ;
#704 = EDGE_CURVE ( 'NONE', #304, #15, #329, .T. ) ;
#705 = CYLINDRICAL_SURFACE ( 'NONE', #320, 3.499999999999642952 ) ;
#706 = ORIENTED_EDGE ( 'NONE', *, *, #266, .T. ) ;
#707 = DIRECTION ( 'NONE',  ( 0.3243243243243262852, -0.9459459459459452768, 0.000000000000000000 ) ) ;
#708 = CARTESIAN_POINT ( 'NONE',  ( 7.500000000003121947, -570.0000000000002274, 0.000000000000000000 ) ) ;
#709 = VECTOR ( 'NONE', #197, 1000.000000000000114 ) ;
#710 = ORIENTED_EDGE ( 'NONE', *, *, #662, .T. ) ;
#711 = AXIS2_PLACEMENT_3D ( 'NONE', #356, #24, #756 ) ;
#712 = EDGE_CURVE ( 'NONE', #532, #327, #544, .T. ) ;
#713 = FACE_OUTER_BOUND ( 'NONE', #93, .T. ) ;
#714 = VERTEX_POINT ( 'NONE', #226 ) ;
#715 = CIRCLE ( 'NONE', #335, 22.49999999999999289 ) ;
#716 = CARTESIAN_POINT ( 'NONE',  ( -32.49999999999689493, -559.9999999999998863, 3.980102097228901781E-15 ) ) ;
#717 = CARTESIAN_POINT ( 'NONE',  ( 3.108624468950438717E-12, -560.0000000000000000, 0.000000000000000000 ) ) ;
#718 = EDGE_CURVE ( 'NONE', #451, #122, #345, .T. ) ;
#719 = DATE_TIME_ROLE ( 'creation_date' ) ;
#720 = DIRECTION ( 'NONE',  ( -1.000000000000000000, -1.210905014603419013E-15, 0.000000000000000000 ) ) ;
#721 = APPLICATION_CONTEXT ( 'configuration controlled 3d designs of mechanical parts and assemblies' ) ;
#722 = ORIENTED_EDGE ( 'NONE', *, *, #612, .F. ) ;
#723 = AXIS2_PLACEMENT_3D ( 'NONE', #443, #300, #448 ) ;
#724 = DIRECTION ( 'NONE',  ( 1.110223024625163009E-14, 1.000000000000000000, -0.000000000000000000 ) ) ;
#725 = ORIENTED_EDGE ( 'NONE', *, *, #458, .T. ) ;
#726 = VERTEX_POINT ( 'NONE', #758 ) ;
#727 = EDGE_CURVE ( 'NONE', #460, #766, #23, .T. ) ;
#728 = CARTESIAN_POINT ( 'NONE',  ( 32.50000000000309797, -560.0000000000000000, 0.000000000000000000 ) ) ;
#729 = ADVANCED_FACE ( 'NONE', ( #149 ), #220, .T. ) ;
#730 = LINE ( 'NONE', #535, #239 ) ;
#731 = ORIENTED_EDGE ( 'NONE', *, *, #842, .F. ) ;
#732 = DIRECTION ( 'NONE',  ( -0.000000000000000000, -0.000000000000000000, -1.000000000000000000 ) ) ;
#733 = DIRECTION ( 'NONE',  ( 1.210905014603419013E-15, -1.000000000000000000, -0.000000000000000000 ) ) ;
#734 = EDGE_LOOP ( 'NONE', ( #869, #285 ) ) ;
#735 = CIRCLE ( 'NONE', #358, 13.49999999999973355 ) ;
#736 = AXIS2_PLACEMENT_3D ( 'NONE', #213, #690, #555 ) ;
#737 = DIRECTION ( 'NONE',  ( 1.210905014603419013E-15, -1.000000000000000000, -0.000000000000000000 ) ) ;
#738 = ADVANCED_FACE ( 'NONE', ( #422, #11 ), #87, .T. ) ;
#739 = AXIS2_PLACEMENT_3D ( 'NONE', #183, #453, #720 ) ;
#740 = PLANE ( 'NONE',  #851 ) ;
#741 = ORIENTED_EDGE ( 'NONE', *, *, #787, .F. ) ;
#742 = CARTESIAN_POINT ( 'NONE',  ( -13.49999999999689848, -560.0000000000000000, 1.653273178848927656E-15 ) ) ;
#743 = DIRECTION ( 'NONE',  ( -1.000000000000000000, 0.000000000000000000, 0.000000000000000000 ) ) ;
#744 = ORIENTED_EDGE ( 'NONE', *, *, #121, .F. ) ;
#745 = DIRECTION ( 'NONE',  ( 1.000000000000000000, 0.000000000000000000, 0.000000000000000000 ) ) ;
#746 = CARTESIAN_POINT ( 'NONE',  ( 13.50000000000090772, -59.99999999999901235, 0.000000000000000000 ) ) ;
#747 = ORIENTED_EDGE ( 'NONE', *, *, #546, .F. ) ;
#748 = LINE ( 'NONE', #152, #526 ) ;
#749 = LOCAL_TIME ( 13, 25, 52.00000000000000000, #350 ) ;
#750 = CC_DESIGN_APPROVAL ( #755, ( #262 ) ) ;
#751 = CARTESIAN_POINT ( 'NONE',  ( -3.499999999996534328, -560.0000000000000000, 4.286263797015299270E-16 ) ) ;
#752 = VERTEX_POINT ( 'NONE', #828 ) ;
#753 = COORDINATED_UNIVERSAL_TIME_OFFSET ( 1, 0, .AHEAD. ) ;
#754 = DIRECTION ( 'NONE',  ( 1.000000000000000000, 0.000000000000000000, -0.000000000000000000 ) ) ;
#755 = APPROVAL ( #77, 'UNSPECIFIED' ) ;
#756 = DIRECTION ( 'NONE',  ( 1.000000000000000000, 9.251858538542969855E-16, 0.000000000000000000 ) ) ;
#757 = ORIENTED_EDGE ( 'NONE', *, *, #109, .T. ) ;
#758 = CARTESIAN_POINT ( 'NONE',  ( 33.10810810811101845, -11.35135135135206852, -15.00000000000000000 ) ) ;
#759 = EDGE_CURVE ( 'NONE', #411, #511, #250, .T. ) ;
#760 = FACE_OUTER_BOUND ( 'NONE', #845, .T. ) ;
#761 = ORIENTED_EDGE ( 'NONE', *, *, #364, .F. ) ;
#762 = DIRECTION ( 'NONE',  ( -1.000000000000000000, 0.000000000000000000, 0.000000000000000000 ) ) ;
#763 = CARTESIAN_POINT ( 'NONE',  ( -7.499999999996880717, -570.0000000000002274, 9.184850993605149917E-16 ) ) ;
#764 = EDGE_CURVE ( 'NONE', #532, #9, #359, .T. ) ;
#765 = PRODUCT_DEFINITION_FORMATION_WITH_SPECIFIED_SOURCE ( 'ANY', '', #570, .NOT_KNOWN. ) ;
#766 = VERTEX_POINT ( 'NONE', #293 ) ;
#767 = CYLINDRICAL_SURFACE ( 'NONE', #190, 7.500000000000001776 ) ;
#768 = CARTESIAN_POINT ( 'NONE',  ( 2.485008386429677571E-12, -44.99999999999981526, 0.000000000000000000 ) ) ;
#769 = ORIENTED_EDGE ( 'NONE', *, *, #324, .T. ) ;
#770 = DIRECTION ( 'NONE',  ( 1.000000000000000000, 0.000000000000000000, 0.000000000000000000 ) ) ;
#771 = CARTESIAN_POINT ( 'NONE',  ( 12.50000000000261835, 2.530657125155711802E-13, 15.00000000000000000 ) ) ;
#772 = LINE ( 'NONE', #440, #155 ) ;
#773 = FACE_OUTER_BOUND ( 'NONE', #70, .T. ) ;
#774 = AXIS2_PLACEMENT_3D ( 'NONE', #826, #228, #495 ) ;
#775 = LINE ( 'NONE', #179, #115 ) ;
#776 = ORIENTED_EDGE ( 'NONE', *, *, #316, .F. ) ;
#777 = AXIS2_PLACEMENT_3D ( 'NONE', #843, #104, #515 ) ;
#778 = DIRECTION ( 'NONE',  ( 1.210905014603419013E-15, -1.000000000000000000, -0.000000000000000000 ) ) ;
#779 = CC_DESIGN_PERSON_AND_ORGANIZATION_ASSIGNMENT ( #650, #369, ( #570 ) ) ;
#780 = EDGE_LOOP ( 'NONE', ( #376, #710, #841, #20 ) ) ;
#781 = LINE ( 'NONE', #240, #587 ) ;
#782 = DIRECTION ( 'NONE',  ( 1.000000000000000000, 1.982541115402112639E-15, 0.000000000000000000 ) ) ;
#783 = CARTESIAN_POINT ( 'NONE',  ( 35.00000000000321165, 2.558211678136527841E-13, -15.00000000000000000 ) ) ;
#784 = CARTESIAN_POINT ( 'NONE',  ( -33.10810810810546911, -11.35135135135135087, -15.00000000000000000 ) ) ;
#785 = ORIENTED_EDGE ( 'NONE', *, *, #419, .T. ) ;
#786 = CLOSED_SHELL ( 'NONE', ( #236, #123, #301, #382, #92, #802, #577, #519, #693, #147, #677, #303, #789, #408, #395, #17, #550, #107, #483 ) ) ;
#787 = EDGE_CURVE ( 'NONE', #726, #26, #442, .T. ) ;
#788 = VERTEX_POINT ( 'NONE', #351 ) ;
#789 = ADVANCED_FACE ( 'NONE', ( #631 ), #230, .F. ) ;
#790 = LOCAL_TIME ( 13, 25, 52.00000000000000000, #847 ) ;
#791 = ORIENTED_CLOSED_SHELL ( 'NONE', *, #2, .F. );
#792 = DIRECTION ( 'NONE',  ( 0.000000000000000000, 0.000000000000000000, 1.000000000000000000 ) ) ;
#793 = ADVANCED_FACE ( 'NONE', ( #813 ), #164, .F. ) ;
#794 = DIRECTION ( 'NONE',  ( 1.000000000000000000, 0.000000000000000000, 0.000000000000000000 ) ) ;
#795 = EDGE_LOOP ( 'NONE', ( #310, #48, #353, #215 ) ) ;
#796 = DIRECTION ( 'NONE',  ( 1.210905014603419013E-15, -1.000000000000000000, -0.000000000000000000 ) ) ;
#797 = CARTESIAN_POINT ( 'NONE',  ( 3.108624468950438717E-12, -560.0000000000000000, 0.000000000000000000 ) ) ;
#798 = ORIENTED_EDGE ( 'NONE', *, *, #842, .T. ) ;
#799 = EDGE_CURVE ( 'NONE', #321, #617, #470, .T. ) ;
#800 = CARTESIAN_POINT ( 'NONE',  ( 2.886579864025407005E-12, 2.515349040166370287E-13, -15.00000000000000000 ) ) ;
#801 = CYLINDRICAL_SURFACE ( 'NONE', #476, 17.50000000000000000 ) ;
#802 = ADVANCED_FACE ( 'NONE', ( #216 ), #83, .T. ) ;
#803 = ORIENTED_EDGE ( 'NONE', *, *, #14, .T. ) ;
#804 = AXIS2_PLACEMENT_3D ( 'NONE', #561, #566, #618 ) ;
#805 = DIRECTION ( 'NONE',  ( -0.9459459459459375053, 0.3243243243243488783, 0.000000000000000000 ) ) ;
#806 = AXIS2_PLACEMENT_3D ( 'NONE', #330, #733, #862 ) ;
#807 = CARTESIAN_POINT ( 'NONE',  ( 2.503171961648727800E-12, -59.99999999999872102, 0.000000000000000000 ) ) ;
#808 = ORIENTED_EDGE ( 'NONE', *, *, #458, .F. ) ;
#809 = CIRCLE ( 'NONE', #672, 12.49999999999973177 ) ;
#810 = CARTESIAN_POINT ( 'NONE',  ( 2.886579864025407005E-12, 2.515349040166370287E-13, 15.00000000000000000 ) ) ;
#811 = DIRECTION ( 'NONE',  ( 1.210905014603419013E-15, -1.000000000000000000, -0.000000000000000000 ) ) ;
#812 = EDGE_LOOP ( 'NONE', ( #583, #835, #572, #232 ) ) ;
#813 = FACE_OUTER_BOUND ( 'NONE', #863, .T. ) ;
#814 = CARTESIAN_POINT ( 'NONE',  ( 3.108624468950438717E-12, -560.0000000000000000, 0.000000000000000000 ) ) ;
#815 = ORIENTED_EDGE ( 'NONE', *, *, #764, .T. ) ;
#816 = DATE_AND_TIME ( #403, #859 ) ;
#817 = EDGE_CURVE ( 'NONE', #112, #289, #748, .T. ) ;
#818 = ADVANCED_FACE ( 'NONE', ( #378 ), #243, .F. ) ;
#819 = CARTESIAN_POINT ( 'NONE',  ( 3.120733519096472742E-12, -570.0000000000002274, 0.000000000000000000 ) ) ;
#820 = AXIS2_PLACEMENT_3D ( 'NONE', #537, #201, #464 ) ;
#821 = CARTESIAN_POINT ( 'NONE',  ( 25.00000000000234479, -35.00000000000036238, -15.00000000000000000 ) ) ;
#822 = CIRCLE ( 'NONE', #469, 17.50000000000000000 ) ;
#823 = ORIENTED_EDGE ( 'NONE', *, *, #419, .F. ) ;
#824 = CARTESIAN_POINT ( 'NONE',  ( 3.108624468950438717E-12, -560.0000000000000000, 0.000000000000000000 ) ) ;
#825 = ADVANCED_BREP_SHAPE_REPRESENTATION ( 'Cyl_rod_part_Default_sldprt', ( #552, #723 ), #206 ) ;
#826 = CARTESIAN_POINT ( 'NONE',  ( 13.50000000000222578, -50.00000000000033396, 0.000000000000000000 ) ) ;
#827 = ORIENTED_EDGE ( 'NONE', *, *, #338, .F. ) ;
#828 = CARTESIAN_POINT ( 'NONE',  ( 17.50000000000310862, -560.0000000000000000, 0.000000000000000000 ) ) ;
#829 = EDGE_CURVE ( 'NONE', #273, #59, #697, .T. ) ;
#830 = CARTESIAN_POINT ( 'NONE',  ( 3.108624468950438717E-12, -560.0000000000000000, 0.000000000000000000 ) ) ;
#831 = EDGE_LOOP ( 'NONE', ( #558, #529 ) ) ;
#832 = DIRECTION ( 'NONE',  ( 1.000000000000000000, 0.000000000000000000, 0.000000000000000000 ) ) ;
#833 = CARTESIAN_POINT ( 'NONE',  ( 2.503171961648727800E-12, -59.99999999999872102, 0.000000000000000000 ) ) ;
#834 = AXIS2_PLACEMENT_3D ( 'NONE', #800, #792, #668 ) ;
#835 = ORIENTED_EDGE ( 'NONE', *, *, #559, .T. ) ;
#836 = CALENDAR_DATE ( 2026, 28, 1 ) ;
#837 = DIRECTION ( 'NONE',  ( 0.000000000000000000, 0.000000000000000000, 1.000000000000000000 ) ) ;
#838 = CIRCLE ( 'NONE', #864, 12.49999999999973177 ) ;
#839 = DIRECTION ( 'NONE',  ( 1.000000000000000000, 0.000000000000000000, 0.000000000000000000 ) ) ;
#840 = LINE ( 'NONE', #594, #560 ) ;
#841 = ORIENTED_EDGE ( 'NONE', *, *, #575, .T. ) ;
#842 = EDGE_CURVE ( 'NONE', #296, #304, #569, .T. ) ;
#843 = CARTESIAN_POINT ( 'NONE',  ( 3.108624468950438717E-12, -560.0000000000000000, 0.000000000000000000 ) ) ;
#844 = VECTOR ( 'NONE', #135, 1000.000000000000114 ) ;
#845 = EDGE_LOOP ( 'NONE', ( #47, #808, #363, #698 ) ) ;
#846 = AXIS2_PLACEMENT_3D ( 'NONE', #688, #288, #298 ) ;
#847 = COORDINATED_UNIVERSAL_TIME_OFFSET ( 1, 0, .AHEAD. ) ;
#848 = FACE_OUTER_BOUND ( 'NONE', #568, .T. ) ;
#849 = ORIENTED_EDGE ( 'NONE', *, *, #324, .F. ) ;
#850 = EDGE_CURVE ( 'NONE', #496, #752, #781, .T. ) ;
#851 = AXIS2_PLACEMENT_3D ( 'NONE', #272, #136, #858 ) ;
#852 = EDGE_LOOP ( 'NONE', ( #761, #620 ) ) ;
#853 = ADVANCED_FACE ( 'NONE', ( #186 ), #767, .F. ) ;
#854 = LINE ( 'NONE', #258, #294 ) ;
#855 = DIRECTION ( 'NONE',  ( -0.000000000000000000, -0.000000000000000000, -1.000000000000000000 ) ) ;
#856 = ORIENTED_EDGE ( 'NONE', *, *, #182, .T. ) ;
#857 = DIRECTION ( 'NONE',  ( -1.210905014603419013E-15, 1.000000000000000000, 0.000000000000000000 ) ) ;
#858 = DIRECTION ( 'NONE',  ( -0.3243243243243262852, 0.9459459459459452768, 0.000000000000000000 ) ) ;
#859 = LOCAL_TIME ( 13, 25, 52.00000000000000000, #753 ) ;
#860 = AXIS2_PLACEMENT_3D ( 'NONE', #231, #625, #13 ) ;
#861 = LINE ( 'NONE', #742, #585 ) ;
#862 = DIRECTION ( 'NONE',  ( 1.000000000000000000, 0.000000000000000000, 0.000000000000000000 ) ) ;
#863 = EDGE_LOOP ( 'NONE', ( #62, #478, #102, #3 ) ) ;
#864 = AXIS2_PLACEMENT_3D ( 'NONE', #8, #603, #610 ) ;
#865 = AXIS2_PLACEMENT_3D ( 'NONE', #326, #462, #547 ) ;
#866 = CARTESIAN_POINT ( 'NONE',  ( 3.145220706178490888E-12, -590.2222195685906172, 0.000000000000000000 ) ) ;
#867 = CIRCLE ( 'NONE', #865, 13.49999999999973355 ) ;
#868 = FACE_OUTER_BOUND ( 'NONE', #349, .T. ) ;
#869 = ORIENTED_EDGE ( 'NONE', *, *, #266, .F. ) ;
#870 = DATE_TIME_ROLE ( 'classification_date' ) ;
#871 = LINE ( 'NONE', #132, #709 ) ;
ENDSEC;
END-ISO-10303-21;
